<svg width="900" height="1100" viewBox="0 0 900 1100" xmlns="http://www.w3.org/2000/svg" role="img">
  <defs>
    <linearGradient id="g2" x1="0.1" y1="0" x2="0.9" y2="1">
      <stop offset="0%" stop-color="#3a4326"/>
      <stop offset="100%" stop-color="#1c2113"/>
    </linearGradient>
    <radialGradient id="v2" cx="50%" cy="42%" r="72%">
      <stop offset="0%" stop-color="#000000" stop-opacity="0"/>
      <stop offset="100%" stop-color="#000000" stop-opacity="0.3"/>
    </radialGradient>
    <filter id="n2"><feTurbulence type="fractalNoise" baseFrequency="0.8" numOctaves="2" stitchTiles="stitch" result="noise"/><feColorMatrix in="noise" type="matrix" values="0 0 0 0 0  0 0 0 0 0  0 0 0 0 0  0 0 0 0.06 0"/></filter>
  </defs>
  <rect width="900" height="1100" fill="url(#g2)"/>
  <path d="M 155.20138888888889 280.91662037037037 Q 212.01778935185186 186.22261959876542 344.58939043209875 280.91662037037037 Q 212.01778935185186 375.61062114197534 155.20138888888889 280.91662037037037 Z" fill="#c9a469" opacity="0.7285005144032921" transform="rotate(137.2469135802469 155.20138888888889 280.91662037037037)"/><path d="M 229.4386574074074 242.1511111111111 Q 306.0067361111111 114.53764660493827 484.665586419753 242.1511111111111 Q 306.0067361111111 369.7645756172839 229.4386574074074 242.1511111111111 Z" fill="#c9a469" opacity="0.7549697788065843" transform="rotate(155.95833333333331 229.4386574074074 242.1511111111111)"/><path d="M 220.3287037037037 333.67171296296294 Q 307.0033217592593 189.21401620370366 509.24409722222225 333.67171296296294 Q 307.0033217592593 478.12940972222225 220.3287037037037 333.67171296296294 Z" fill="#c9a469" opacity="0.8068634259259259" transform="rotate(253.46604938271602 220.3287037037037 333.67171296296294)"/><path d="M 250.83819444444444 256.8450925925926 Q 341.51587962962964 105.71561728395062 553.0971450617284 256.8450925925926 Q 341.51587962962964 407.9745679012346 250.83819444444444 256.8450925925926 Z" fill="#c9a469" opacity="0.8124221965020576" transform="rotate(164.2145061728395 250.83819444444444 256.8450925925926)"/><path d="M 131.13379629629628 236.63791666666668 Q 196.05274305555554 128.43967206790126 347.53028549382714 236.63791666666668 Q 196.05274305555554 344.8361612654321 131.13379629629628 236.63791666666668 Z" fill="#c9a469" opacity="0.7109979423868312" transform="rotate(49.31481481481482 131.13379629629628 236.63791666666668)"/><g><ellipse cx="150.6" cy="184.8" rx="44.3" ry="27.1" fill="#c9a469" opacity="0.96" transform="rotate(6.657797578900895 150.6 184.8)"/><ellipse cx="126.3" cy="218.6" rx="44.3" ry="27.1" fill="#c9a469" opacity="0.96" transform="rotate(64.78852522838139 126.3 218.6)"/><ellipse cx="81.6" cy="213.7" rx="44.3" ry="27.1" fill="#c9a469" opacity="0.96" transform="rotate(127.955475266904 81.6 213.7)"/><ellipse cx="66.4" cy="169.7" rx="44.3" ry="27.1" fill="#c9a469" opacity="0.96" transform="rotate(193.727113841676 66.4 169.7)"/><ellipse cx="93.1" cy="139.7" rx="44.3" ry="27.1" fill="#c9a469" opacity="0.96" transform="rotate(249.59209403741764 93.1 139.7)"/><ellipse cx="135.3" cy="146.8" rx="44.3" ry="27.1" fill="#c9a469" opacity="0.96" transform="rotate(309.5648927874988 135.3 146.8)"/><circle cx="108.00041666666665" cy="179.87326388888889" r="25.7" fill="#12150c"/></g><g><ellipse cx="116.2" cy="296.5" rx="37.7" ry="23.1" fill="#f4ede3" opacity="0.96" transform="rotate(0.31204684444174846 116.2 296.5)"/><ellipse cx="91.0" cy="331.0" rx="37.7" ry="23.1" fill="#f4ede3" opacity="0.96" transform="rotate(71.93778737692253 91.0 331.0)"/><ellipse cx="55.5" cy="323.6" rx="37.7" ry="23.1" fill="#f4ede3" opacity="0.96" transform="rotate(131.4905939160667 55.5 323.6)"/><ellipse cx="43.4" cy="292.4" rx="37.7" ry="23.1" fill="#f4ede3" opacity="0.96" transform="rotate(186.0882291945952 43.4 292.4)"/><ellipse cx="65.5" cy="262.7" rx="37.7" ry="23.1" fill="#f4ede3" opacity="0.96" transform="rotate(247.09258776101268 65.5 262.7)"/><ellipse cx="102.9" cy="268.1" rx="37.7" ry="23.1" fill="#f4ede3" opacity="0.96" transform="rotate(309.41955337766143 102.9 268.1)"/><circle cx="79.70604166666666" cy="296.2913888888889" r="21.9" fill="#12150c"/></g><g><ellipse cx="288.3" cy="132.1" rx="37.3" ry="22.8" fill="#c9a469" opacity="0.96" transform="rotate(0.8298530308205886 288.3 132.1)"/><ellipse cx="269.8" cy="163.1" rx="37.3" ry="22.8" fill="#c9a469" opacity="0.96" transform="rotate(60.883702909328136 269.8 163.1)"/><ellipse cx="234.0" cy="162.7" rx="37.3" ry="22.8" fill="#c9a469" opacity="0.96" transform="rotate(120.40335216866151 234.0 162.7)"/><ellipse cx="216.2" cy="130.5" rx="37.3" ry="22.8" fill="#c9a469" opacity="0.96" transform="rotate(181.7319152487847 216.2 130.5)"/><ellipse cx="240.8" cy="97.4" rx="37.3" ry="22.8" fill="#c9a469" opacity="0.96" transform="rotate(251.4566384054456 240.8 97.4)"/><ellipse cx="273.1" cy="102.2" rx="37.3" ry="22.8" fill="#c9a469" opacity="0.96" transform="rotate(305.3948122299591 273.1 102.2)"/><circle cx="252.2241666666667" cy="131.57201388888888" r="21.6" fill="#12150c"/></g><path d="M 750.8755555555556 339.0939814814815 Q 819.7767824074075 224.2586033950617 980.5463117283952 339.0939814814815 Q 819.7767824074075 453.92935956790126 750.8755555555556 339.0939814814815 Z" fill="#c9a469" opacity="0.7724935699588477" transform="rotate(262.83024691358025 750.8755555555556 339.0939814814815)"/><path d="M 637.7121296296297 309.26944444444445 Q 710.8044444444445 187.4489197530864 881.3531790123458 309.26944444444445 Q 710.8044444444445 431.0899691358025 637.7121296296297 309.26944444444445 Z" fill="#c9a469" opacity="0.8260461676954732" transform="rotate(106.54166666666666 637.7121296296297 309.26944444444445)"/><path d="M 733.1098148148149 361.53935185185185 Q 796.150162037037 256.47210648148143 943.2443055555557 361.53935185185185 Q 796.150162037037 466.60659722222226 733.1098148148149 361.53935185185185 Z" fill="#c9a469" opacity="0.7300231481481481" transform="rotate(329.04938271604937 733.1098148148149 361.53935185185185)"/><path d="M 684.7352777777778 401.1703703703704 Q 726.3972685185186 331.73371913580246 823.6085802469137 401.1703703703704 Q 726.3972685185186 470.6070216049383 684.7352777777778 401.1703703703704 Z" fill="#c9a469" opacity="0.7126652520576131" transform="rotate(304.79783950617286 684.7352777777778 401.1703703703704)"/><path d="M 638.6551851851851 311.02916666666664 Q 703.7290972222222 202.57264660493826 855.5682253086419 311.02916666666664 Q 703.7290972222222 419.485686728395 638.6551851851851 311.02916666666664 Z" fill="#c9a469" opacity="0.7133243312757201" transform="rotate(194.89814814814815 638.6551851851851 311.02916666666664)"/><g><ellipse cx="719.3" cy="382.1" rx="35.6" ry="21.8" fill="#c9a469" opacity="0.96" transform="rotate(14.240867471633491 719.3 382.1)"/><ellipse cx="701.1" cy="404.5" rx="35.6" ry="21.8" fill="#c9a469" opacity="0.96" transform="rotate(63.817016929924606 701.1 404.5)"/><ellipse cx="663.6" cy="399.8" rx="35.6" ry="21.8" fill="#c9a469" opacity="0.96" transform="rotate(130.36600950915002 663.6 399.8)"/><ellipse cx="651.5" cy="371.9" rx="35.6" ry="21.8" fill="#c9a469" opacity="0.96" transform="rotate(182.80842159997573 651.5 371.9)"/><ellipse cx="675.0" cy="340.9" rx="35.6" ry="21.8" fill="#c9a469" opacity="0.96" transform="rotate(251.6047409219339 675.0 340.9)"/><ellipse cx="707.0" cy="346.4" rx="35.6" ry="21.8" fill="#c9a469" opacity="0.96" transform="rotate(307.79760977358256 707.0 346.4)"/><circle cx="685.8766666666667" cy="373.6043055555555" r="20.7" fill="#12150c"/></g><g><ellipse cx="722.8" cy="385.8" rx="32.9" ry="20.2" fill="#f4ede3" opacity="0.96" transform="rotate(2.5236374078228776 722.8 385.8)"/><ellipse cx="700.4" cy="414.9" rx="32.9" ry="20.2" fill="#f4ede3" opacity="0.96" transform="rotate(72.75677218824957 700.4 414.9)"/><ellipse cx="671.1" cy="409.4" rx="32.9" ry="20.2" fill="#f4ede3" opacity="0.96" transform="rotate(128.52964882896123 671.1 409.4)"/><ellipse cx="659.7" cy="378.2" rx="32.9" ry="20.2" fill="#f4ede3" opacity="0.96" transform="rotate(191.28397494094932 659.7 378.2)"/><ellipse cx="676.8" cy="355.8" rx="32.9" ry="20.2" fill="#f4ede3" opacity="0.96" transform="rotate(243.73375531617745 676.8 355.8)"/><ellipse cx="711.2" cy="359.8" rx="32.9" ry="20.2" fill="#f4ede3" opacity="0.96" transform="rotate(309.442763473529 711.2 359.8)"/><circle cx="690.9254166666667" cy="384.42805555555555" r="19.1" fill="#12150c"/></g><g><ellipse cx="792.5" cy="280.9" rx="46.2" ry="28.3" fill="#c9a469" opacity="0.96" transform="rotate(4.83193670398554 792.5 280.9)"/><ellipse cx="762.8" cy="319.3" rx="46.2" ry="28.3" fill="#c9a469" opacity="0.96" transform="rotate(70.6551532695743 762.8 319.3)"/><ellipse cx="717.1" cy="309.5" rx="46.2" ry="28.3" fill="#c9a469" opacity="0.96" transform="rotate(133.55684506961043 717.1 309.5)"/><ellipse cx="703.2" cy="275.9" rx="46.2" ry="28.3" fill="#c9a469" opacity="0.96" transform="rotate(181.5561816657874 703.2 275.9)"/><ellipse cx="732.6" cy="235.1" rx="46.2" ry="28.3" fill="#c9a469" opacity="0.96" transform="rotate(249.88829907039423 732.6 235.1)"/><ellipse cx="770.4" cy="238.4" rx="46.2" ry="28.3" fill="#c9a469" opacity="0.96" transform="rotate(300.0465429964752 770.4 238.4)"/><circle cx="747.9491666666667" cy="277.12680555555556" r="26.8" fill="#12150c"/></g><g><ellipse cx="722.3" cy="341.7" rx="37.2" ry="22.8" fill="#f4ede3" opacity="0.96" transform="rotate(10.422806701418544 722.3 341.7)"/><ellipse cx="704.2" cy="366.7" rx="37.2" ry="22.8" fill="#f4ede3" opacity="0.96" transform="rotate(61.09314639346643 704.2 366.7)"/><ellipse cx="668.6" cy="366.3" rx="37.2" ry="22.8" fill="#f4ede3" opacity="0.96" transform="rotate(120.38069469412412 668.6 366.3)"/><ellipse cx="651.0" cy="331.5" rx="37.2" ry="22.8" fill="#f4ede3" opacity="0.96" transform="rotate(185.85391775059878 651.0 331.5)"/><ellipse cx="671.6" cy="302.6" rx="37.2" ry="22.8" fill="#f4ede3" opacity="0.96" transform="rotate(245.00146864761078 671.6 302.6)"/><ellipse cx="710.9" cy="308.4" rx="37.2" ry="22.8" fill="#f4ede3" opacity="0.96" transform="rotate(311.83782431852995 710.9 308.4)"/><circle cx="686.8479166666666" cy="335.2005555555555" r="21.6" fill="#12150c"/></g><path d="M 303.73541666666665 733.3444444444444 Q 363.4315972222222 633.8508101851852 502.7226851851852 733.3444444444444 Q 363.4315972222222 832.8380787037037 303.73541666666665 733.3444444444444 Z" fill="#c9a469" opacity="0.7128813014403291" transform="rotate(203.0941358024691 303.73541666666665 733.3444444444444)"/><path d="M 268.3638888888889 764.7645833333333 Q 332.64427083333334 657.630613425926 482.6318287037037 764.7645833333333 Q 332.64427083333334 871.8985532407407 268.3638888888889 764.7645833333333 Z" fill="#c9a469" opacity="0.7042811213991769" transform="rotate(337.63888888888886 268.3638888888889 764.7645833333333)"/><path d="M 235.95069444444445 771.6430555555555 Q 288.4298611111111 684.1777777777777 410.88125 771.6430555555555 Q 288.4298611111111 859.1083333333333 235.95069444444445 771.6430555555555 Z" fill="#c9a469" opacity="0.8419386574074074" transform="rotate(240.97993827160494 235.95069444444445 771.6430555555555)"/><path d="M 368.99583333333334 868.4798611111111 Q 450.41336805555557 732.7839699074074 640.3876157407408 868.4798611111111 Q 450.41336805555557 1004.1757523148148 368.99583333333334 868.4798611111111 Z" fill="#c9a469" opacity="0.8040946502057613" transform="rotate(127.56172839506173 368.99583333333334 868.4798611111111)"/><path d="M 229.99930555555557 821.775 Q 292.71979166666665 717.2408564814815 439.06759259259263 821.775 Q 292.71979166666665 926.3091435185185 229.99930555555557 821.775 Z" fill="#c9a469" opacity="0.7301009516460905" transform="rotate(278.4953703703704 229.99930555555557 821.775)"/><path d="M 311.4611111111111 824.0284722222223 Q 361.9741319444444 739.8401041666667 479.8378472222222 824.0284722222223 Q 361.9741319444444 908.2168402777778 311.4611111111111 824.0284722222223 Z" fill="#c9a469" opacity="0.7870871913580246" transform="rotate(241.55864197530863 311.4611111111111 824.0284722222223)"/><path d="M 271.88125 755.7402777777778 Q 342.30138888888894 638.3733796296297 506.6150462962963 755.7402777777778 Q 342.30138888888894 873.107175925926 271.88125 755.7402777777778 Z" fill="#c9a469" opacity="0.8366274434156378" transform="rotate(71.19598765432099 271.88125 755.7402777777778)"/><g><ellipse cx="283.5" cy="904.3" rx="47.1" ry="28.9" fill="#c9a469" opacity="0.96" transform="rotate(9.683644971117527 283.5 904.3)"/><ellipse cx="260.2" cy="936.7" rx="47.1" ry="28.9" fill="#c9a469" opacity="0.96" transform="rotate(61.643434433585874 260.2 936.7)"/><ellipse cx="212.5" cy="934.0" rx="47.1" ry="28.9" fill="#c9a469" opacity="0.96" transform="rotate(124.96143430235776 212.5 934.0)"/><ellipse cx="194.0" cy="887.2" rx="47.1" ry="28.9" fill="#c9a469" opacity="0.96" transform="rotate(191.90094595491053 194.0 887.2)"/><ellipse cx="225.0" cy="853.1" rx="47.1" ry="28.9" fill="#c9a469" opacity="0.96" transform="rotate(252.6032048608295 225.0 853.1)"/><ellipse cx="269.4" cy="863.1" rx="47.1" ry="28.9" fill="#c9a469" opacity="0.96" transform="rotate(312.5944243219167 269.4 863.1)"/><circle cx="238.60104166666667" cy="896.6395833333333" r="27.3" fill="#12150c"/></g><g><ellipse cx="255.6" cy="828.2" rx="47.5" ry="29.1" fill="#f4ede3" opacity="0.96" transform="rotate(1.9121312047934846 255.6 828.2)"/><ellipse cx="224.1" cy="870.3" rx="47.5" ry="29.1" fill="#f4ede3" opacity="0.96" transform="rotate(71.74369448528924 224.1 870.3)"/><ellipse cx="179.5" cy="861.3" rx="47.5" ry="29.1" fill="#f4ede3" opacity="0.96" transform="rotate(131.04966349695292 179.5 861.3)"/><ellipse cx="163.8" cy="825.4" rx="47.5" ry="29.1" fill="#f4ede3" opacity="0.96" transform="rotate(181.64263620277563 163.8 825.4)"/><ellipse cx="195.4" cy="783.0" rx="47.5" ry="29.1" fill="#f4ede3" opacity="0.96" transform="rotate(251.86103441439752 195.4 783.0)"/><ellipse cx="241.5" cy="793.5" rx="47.5" ry="29.1" fill="#f4ede3" opacity="0.96" transform="rotate(313.8085333843226 241.5 793.5)"/><circle cx="209.69791666666669" cy="826.6739583333333" r="27.6" fill="#12150c"/></g><g><ellipse cx="342.1" cy="700.2" rx="47.3" ry="29.0" fill="#c9a469" opacity="0.96" transform="rotate(11.747133018010365 342.1 700.2)"/><ellipse cx="320.1" cy="730.6" rx="47.3" ry="29.0" fill="#c9a469" opacity="0.96" transform="rotate(60.05962170128944 320.1 730.6)"/><ellipse cx="265.8" cy="724.3" rx="47.3" ry="29.0" fill="#c9a469" opacity="0.96" transform="rotate(133.25849095368315 265.8 724.3)"/><ellipse cx="251.6" cy="686.6" rx="47.3" ry="29.0" fill="#c9a469" opacity="0.96" transform="rotate(185.409855810614 251.6 686.6)"/><ellipse cx="274.4" cy="651.2" rx="47.3" ry="29.0" fill="#c9a469" opacity="0.96" transform="rotate(240.07748979096525 274.4 651.2)"/><ellipse cx="325.2" cy="654.6" rx="47.3" ry="29.0" fill="#c9a469" opacity="0.96" transform="rotate(307.56225448929587 325.2 654.6)"/><circle cx="297.2322916666667" cy="690.8958333333334" r="27.5" fill="#12150c"/></g><path d="M 728.9705555555555 956.1244444444444 Q 767.8563888888889 891.3147222222221 858.5899999999999 956.1244444444444 Q 767.8563888888889 1020.9341666666667 728.9705555555555 956.1244444444444 Z" fill="#c9a469" opacity="0.7088483796296295" transform="rotate(181.56327160493828 728.9705555555555 956.1244444444444)"/><path d="M 707.6066666666667 927.3938888888889 Q 764.6931944444444 832.2496759259259 897.8950925925926 927.3938888888889 Q 764.6931944444444 1022.5381018518519 707.6066666666667 927.3938888888889 Z" fill="#c9a469" opacity="0.7230877057613169" transform="rotate(313.1450617283951 707.6066666666667 927.3938888888889)"/><path d="M 706.2094444444444 891.83 Q 770.3883333333333 784.8651851851852 920.1390740740741 891.83 Q 770.3883333333333 998.7948148148149 706.2094444444444 891.83 Z" fill="#c9a469" opacity="0.8261773405349794" transform="rotate(289.0787037037037 706.2094444444444 891.83)"/><path d="M 729.9788888888888 873.8327777777778 Q 768.6418055555555 809.3945833333333 858.8552777777777 873.8327777777778 Q 768.6418055555555 938.2709722222222 729.9788888888888 873.8327777777778 Z" fill="#c9a469" opacity="0.7352469135802469" transform="rotate(17.141975308641975 729.9788888888888 873.8327777777778)"/><path d="M 635.315 907.4022222222222 Q 701.1536111111112 797.6712037037037 854.7770370370372 907.4022222222222 Q 701.1536111111112 1017.1332407407408 635.315 907.4022222222222 Z" fill="#c9a469" opacity="0.7618704989711934" transform="rotate(271.77932098765433 635.315 907.4022222222222)"/><path d="M 619.4177777777778 920.9383333333333 Q 680.0237500000001 819.9283796296296 821.4376851851853 920.9383333333333 Q 680.0237500000001 1021.948287037037 619.4177777777778 920.9383333333333 Z" fill="#c9a469" opacity="0.8287332818930041" transform="rotate(214.10185185185185 619.4177777777778 920.9383333333333)"/><g><ellipse cx="751.6" cy="850.8" rx="21.5" ry="13.2" fill="#c9a469" opacity="0.96" transform="rotate(8.240873482757085 751.6 850.8)"/><ellipse cx="740.1" cy="866.6" rx="21.5" ry="13.2" fill="#c9a469" opacity="0.96" transform="rotate(63.96217213265193 740.1 866.6)"/><ellipse cx="716.5" cy="862.8" rx="21.5" ry="13.2" fill="#c9a469" opacity="0.96" transform="rotate(134.00373151861618 716.5 862.8)"/><ellipse cx="710.1" cy="846.3" rx="21.5" ry="13.2" fill="#c9a469" opacity="0.96" transform="rotate(184.10302916947788 710.1 846.3)"/><ellipse cx="722.6" cy="828.7" rx="21.5" ry="13.2" fill="#c9a469" opacity="0.96" transform="rotate(246.31210223568817 722.6 828.7)"/><ellipse cx="745.0" cy="832.4" rx="21.5" ry="13.2" fill="#c9a469" opacity="0.96" transform="rotate(312.36373561775144 745.0 832.4)"/><circle cx="730.95" cy="847.8308333333333" r="12.5" fill="#12150c"/></g><g><ellipse cx="665.6" cy="831.7" rx="22.9" ry="14.0" fill="#f4ede3" opacity="0.96" transform="rotate(4.0835032158115 665.6 831.7)"/><ellipse cx="650.7" cy="851.1" rx="22.9" ry="14.0" fill="#f4ede3" opacity="0.96" transform="rotate(70.9124906023282 650.7 851.1)"/><ellipse cx="632.2" cy="849.2" rx="22.9" ry="14.0" fill="#f4ede3" opacity="0.96" transform="rotate(120.62863746426497 632.2 849.2)"/><ellipse cx="621.4" cy="827.9" rx="22.9" ry="14.0" fill="#f4ede3" opacity="0.96" transform="rotate(185.81449742904593 621.4 827.9)"/><ellipse cx="636.2" cy="809.2" rx="22.9" ry="14.0" fill="#f4ede3" opacity="0.96" transform="rotate(250.77562471955355 636.2 809.2)"/><ellipse cx="655.4" cy="811.4" rx="22.9" ry="14.0" fill="#f4ede3" opacity="0.96" transform="rotate(302.4701559435355 655.4 811.4)"/><circle cx="643.4775" cy="830.1083333333333" r="13.3" fill="#12150c"/></g><g><ellipse cx="636.2" cy="914.4" rx="38.0" ry="23.3" fill="#c9a469" opacity="0.96" transform="rotate(13.951662308839191 636.2 914.4)"/><ellipse cx="615.0" cy="939.3" rx="38.0" ry="23.3" fill="#c9a469" opacity="0.96" transform="rotate(66.82143489500424 615.0 939.3)"/><ellipse cx="577.7" cy="934.3" rx="38.0" ry="23.3" fill="#c9a469" opacity="0.96" transform="rotate(128.44104520902235 577.7 934.3)"/><ellipse cx="563.9" cy="903.2" rx="38.0" ry="23.3" fill="#c9a469" opacity="0.96" transform="rotate(183.64656395074906 563.9 903.2)"/><ellipse cx="582.5" cy="873.5" rx="38.0" ry="23.3" fill="#c9a469" opacity="0.96" transform="rotate(240.6167868068511 582.5 873.5)"/><ellipse cx="624.3" cy="877.5" rx="38.0" ry="23.3" fill="#c9a469" opacity="0.96" transform="rotate(310.1830918488604 624.3 877.5)"/><circle cx="600.555" cy="905.5358333333334" r="22.0" fill="#12150c"/></g><g><ellipse cx="682.7" cy="935.6" rx="33.9" ry="20.8" fill="#f4ede3" opacity="0.96" transform="rotate(12.778447224866643 682.7 935.6)"/><ellipse cx="662.2" cy="959.0" rx="33.9" ry="20.8" fill="#f4ede3" opacity="0.96" transform="rotate(69.59393610851828 662.2 959.0)"/><ellipse cx="628.7" cy="952.5" rx="33.9" ry="20.8" fill="#f4ede3" opacity="0.96" transform="rotate(132.37405121591476 628.7 952.5)"/><ellipse cx="618.0" cy="927.6" rx="33.9" ry="20.8" fill="#f4ede3" opacity="0.96" transform="rotate(181.18021495415485 618.0 927.6)"/><ellipse cx="638.5" cy="897.9" rx="33.9" ry="20.8" fill="#f4ede3" opacity="0.96" transform="rotate(248.06446447368958 638.5 897.9)"/><ellipse cx="672.0" cy="903.4" rx="33.9" ry="20.8" fill="#f4ede3" opacity="0.96" transform="rotate(310.4356397967527 672.0 903.4)"/><circle cx="650.7825" cy="928.3133333333334" r="19.7" fill="#12150c"/></g><path d="M 445.25138888888887 559.9907407407408 Q 493.15578703703704 480.1500771604939 604.9327160493826 559.9907407407408 Q 493.15578703703704 639.8314043209876 445.25138888888887 559.9907407407408 Z" fill="#c9a469" opacity="0.7176421039094649" transform="rotate(263.40895061728395 445.25138888888887 559.9907407407408)"/><path d="M 465.337037037037 536.6041666666666 Q 510.2142361111111 461.8088348765432 614.927700617284 536.6041666666666 Q 510.2142361111111 611.3994984567901 465.337037037037 536.6041666666666 Z" fill="#c9a469" opacity="0.7085789609053498" transform="rotate(50.175925925925924 465.337037037037 536.6041666666666)"/><path d="M 467.3949074074074 560.8564814814815 Q 508.3212962962963 492.64583333333337 603.8162037037036 560.8564814814815 Q 508.3212962962963 629.0671296296297 467.3949074074074 560.8564814814815 Z" fill="#c9a469" opacity="0.8013290895061728" transform="rotate(59.07253086419753 467.3949074074074 560.8564814814815)"/><path d="M 475.7583333333333 589.0810185185185 Q 510.8936342592593 530.5221836419753 592.8760030864197 589.0810185185185 Q 510.8936342592593 647.6398533950617 475.7583333333333 589.0810185185185 Z" fill="#c9a469" opacity="0.7574665637860082" transform="rotate(104.54320987654322 475.7583333333333 589.0810185185185)"/><path d="M 474.76064814814816 597.6111111111111 Q 521.3479166666667 519.9656635802469 630.0515432098766 597.6111111111111 Q 521.3479166666667 675.2565586419753 474.76064814814816 597.6111111111111 Z" fill="#c9a469" opacity="0.8496765689300411" transform="rotate(187.69907407407408 474.76064814814816 597.6111111111111)"/><path d="M 456.7351851851852 558.7800925925926 Q 493.1008101851852 498.1707175925926 577.9539351851852 558.7800925925926 Q 493.1008101851852 619.3894675925926 456.7351851851852 558.7800925925926 Z" fill="#c9a469" opacity="0.8284220679012345" transform="rotate(56.317901234567906 456.7351851851852 558.7800925925926)"/><g><ellipse cx="459.2" cy="503.6" rx="32.5" ry="19.9" fill="#c9a469" opacity="0.96" transform="rotate(8.461676405349083 459.2 503.6)"/><ellipse cx="439.2" cy="528.4" rx="32.5" ry="19.9" fill="#c9a469" opacity="0.96" transform="rotate(69.32603756812092 439.2 528.4)"/><ellipse cx="406.7" cy="522.0" rx="32.5" ry="19.9" fill="#c9a469" opacity="0.96" transform="rotate(133.01613579921414 406.7 522.0)"/><ellipse cx="396.7" cy="499.0" rx="32.5" ry="19.9" fill="#c9a469" opacity="0.96" transform="rotate(180.12390998270044 396.7 499.0)"/><ellipse cx="417.2" cy="469.6" rx="32.5" ry="19.9" fill="#c9a469" opacity="0.96" transform="rotate(249.59811146967962 417.2 469.6)"/><ellipse cx="447.6" cy="474.4" rx="32.5" ry="19.9" fill="#c9a469" opacity="0.96" transform="rotate(308.23725074292594 447.6 474.4)"/><circle cx="428.1222222222222" cy="499.0229166666667" r="18.8" fill="#12150c"/></g><g><ellipse cx="558.9" cy="580.0" rx="23.3" ry="14.3" fill="#f4ede3" opacity="0.96" transform="rotate(10.803132981322557 558.9 580.0)"/><ellipse cx="547.8" cy="595.4" rx="23.3" ry="14.3" fill="#f4ede3" opacity="0.96" transform="rotate(60.49349084785091 547.8 595.4)"/><ellipse cx="522.4" cy="593.2" rx="23.3" ry="14.3" fill="#f4ede3" opacity="0.96" transform="rotate(129.3229674496199 522.4 593.2)"/><ellipse cx="514.7" cy="570.6" rx="23.3" ry="14.3" fill="#f4ede3" opacity="0.96" transform="rotate(193.10885337794437 514.7 570.6)"/><ellipse cx="526.5" cy="555.6" rx="23.3" ry="14.3" fill="#f4ede3" opacity="0.96" transform="rotate(243.0534170563556 526.5 555.6)"/><ellipse cx="552.1" cy="559.2" rx="23.3" ry="14.3" fill="#f4ede3" opacity="0.96" transform="rotate(312.8002450662238 552.1 559.2)"/><circle cx="536.7284722222222" cy="575.7541666666666" r="13.5" fill="#12150c"/></g><g><ellipse cx="544.6" cy="573.6" rx="25.6" ry="15.7" fill="#c9a469" opacity="0.96" transform="rotate(12.846174038998727 544.6 573.6)"/><ellipse cx="529.2" cy="591.3" rx="25.6" ry="15.7" fill="#c9a469" opacity="0.96" transform="rotate(69.26745970712182 529.2 591.3)"/><ellipse cx="503.7" cy="586.4" rx="25.6" ry="15.7" fill="#c9a469" opacity="0.96" transform="rotate(132.49335602086367 503.7 586.4)"/><ellipse cx="495.9" cy="564.7" rx="25.6" ry="15.7" fill="#c9a469" opacity="0.96" transform="rotate(187.89045015705284 495.9 564.7)"/><ellipse cx="512.2" cy="544.8" rx="25.6" ry="15.7" fill="#c9a469" opacity="0.96" transform="rotate(250.53425200300487 512.2 544.8)"/><ellipse cx="535.1" cy="548.2" rx="25.6" ry="15.7" fill="#c9a469" opacity="0.96" transform="rotate(306.32186521252135 535.1 548.2)"/><circle cx="520.4597222222222" cy="568.1104166666667" r="14.9" fill="#12150c"/></g>
  <rect width="900" height="1100" fill="url(#v2)"/>
  <rect width="900" height="1100" filter="url(#n2)" opacity="0.5"/>
</svg>