<svg width="900" height="1100" viewBox="0 0 900 1100" xmlns="http://www.w3.org/2000/svg" role="img">
  <defs>
    <linearGradient id="g2" x1="0" y1="0" x2="1" y2="1">
      <stop offset="0%" stop-color="#d8cab4"/>
      <stop offset="100%" stop-color="#cabca8"/>
    </linearGradient>
    <radialGradient id="soft2" cx="50%" cy="35%" r="75%">
      <stop offset="0%" stop-color="#ffffff" stop-opacity="0.35"/>
      <stop offset="100%" stop-color="#ffffff" stop-opacity="0"/>
    </radialGradient>
  </defs>
  <rect width="900" height="1100" fill="url(#g2)"/>
  <rect width="900" height="1100" fill="url(#soft2)"/>
  <g transform="rotate(60.78703703703703 337.17361111111114 484.6827846364883)"><ellipse cx="337.17361111111114" cy="484.6827846364883" rx="10.240470679012345" ry="4.551320301783265" fill="#b08d57" opacity="0.6279910408093279" transform="rotate(-30 337.17361111111114 484.6827846364883)"/><ellipse cx="342.2938464506173" cy="460.54576377091615" rx="10.240470679012345" ry="4.551320301783265" fill="#b08d57" opacity="0.6279910408093279" transform="rotate(-15 342.2938464506173 460.54576377091615)"/><ellipse cx="347.4140817901235" cy="450.5478823731138" rx="10.240470679012345" ry="4.551320301783265" fill="#b08d57" opacity="0.6279910408093279" transform="rotate(0 347.4140817901235 450.5478823731138)"/><ellipse cx="352.53431712962964" cy="460.54576377091615" rx="10.240470679012345" ry="4.551320301783265" fill="#b08d57" opacity="0.6279910408093279" transform="rotate(15 352.53431712962964 460.54576377091615)"/><ellipse cx="357.6545524691358" cy="484.6827846364883" rx="10.240470679012345" ry="4.551320301783265" fill="#b08d57" opacity="0.6279910408093279" transform="rotate(30 357.6545524691358 484.6827846364883)"/></g><g transform="rotate(206.3503086419753 282.60185185185185 513.2696759259259)"><ellipse cx="282.60185185185185" cy="513.2696759259259" rx="14.113348765432097" ry="6.272599451303154" fill="#5f6b41" opacity="0.5752057613168724" transform="rotate(-30 282.60185185185185 513.2696759259259)"/><ellipse cx="289.6585262345679" cy="480.0041938682998" rx="14.113348765432097" ry="6.272599451303154" fill="#5f6b41" opacity="0.5752057613168724" transform="rotate(-15 289.6585262345679 480.0041938682998)"/><ellipse cx="296.7152006172839" cy="466.2251800411522" rx="14.113348765432097" ry="6.272599451303154" fill="#5f6b41" opacity="0.5752057613168724" transform="rotate(0 296.7152006172839 466.2251800411522)"/><ellipse cx="303.771875" cy="480.0041938682998" rx="14.113348765432097" ry="6.272599451303154" fill="#5f6b41" opacity="0.5752057613168724" transform="rotate(15 303.771875 480.0041938682998)"/><ellipse cx="310.82854938271606" cy="513.2696759259259" rx="14.113348765432097" ry="6.272599451303154" fill="#5f6b41" opacity="0.5752057613168724" transform="rotate(30 310.82854938271606 513.2696759259259)"/></g><g transform="rotate(188.48765432098764 377.89120370370375 662.2397976680385)"><ellipse cx="377.89120370370375" cy="662.2397976680385" rx="16.095023148148147" ry="7.153343621399177" fill="#b08d57" opacity="0.6998253172153636" transform="rotate(-30 377.89120370370375 662.2397976680385)"/><ellipse cx="385.9387152777778" cy="624.3034642966718" rx="16.095023148148147" ry="7.153343621399177" fill="#b08d57" opacity="0.6998253172153636" transform="rotate(-15 385.9387152777778 624.3034642966718)"/><ellipse cx="393.9862268518519" cy="608.5897205075446" rx="16.095023148148147" ry="7.153343621399177" fill="#b08d57" opacity="0.6998253172153636" transform="rotate(0 393.9862268518519 608.5897205075446)"/><ellipse cx="402.033738425926" cy="624.3034642966718" rx="16.095023148148147" ry="7.153343621399177" fill="#b08d57" opacity="0.6998253172153636" transform="rotate(15 402.033738425926 624.3034642966718)"/><ellipse cx="410.08125000000007" cy="662.2397976680385" rx="16.095023148148147" ry="7.153343621399177" fill="#b08d57" opacity="0.6998253172153636" transform="rotate(30 410.08125000000007 662.2397976680385)"/></g><g transform="rotate(248.3101851851852 564.7083333333333 525.8832733196159)"><ellipse cx="564.7083333333333" cy="525.8832733196159" rx="16.87993827160494" ry="7.502194787379972" fill="#5f6b41" opacity="0.5952139060356654" transform="rotate(-30 564.7083333333333 525.8832733196159)"/><ellipse cx="573.1483024691357" cy="486.0968772600753" rx="16.87993827160494" ry="7.502194787379972" fill="#5f6b41" opacity="0.5952139060356654" transform="rotate(-15 573.1483024691357 486.0968772600753)"/><ellipse cx="581.5882716049382" cy="469.6168124142661" rx="16.87993827160494" ry="7.502194787379972" fill="#5f6b41" opacity="0.5952139060356654" transform="rotate(0 581.5882716049382 469.6168124142661)"/><ellipse cx="590.0282407407407" cy="486.0968772600753" rx="16.87993827160494" ry="7.502194787379972" fill="#5f6b41" opacity="0.5952139060356654" transform="rotate(15 590.0282407407407 486.0968772600753)"/><ellipse cx="598.4682098765431" cy="525.8832733196159" rx="16.87993827160494" ry="7.502194787379972" fill="#5f6b41" opacity="0.5952139060356654" transform="rotate(30 598.4682098765431 525.8832733196159)"/></g><circle cx="674.5331790123457" cy="150.68415637860082" r="22.243807870370368" fill="#8a9767" opacity="0.16707947530864198"/><circle cx="65.98765432098766" cy="172.77563443072702" r="19.455902777777776" fill="#8a9767" opacity="0.1724056927297668"/><circle cx="418.32175925925924" cy="367.7323388203018" r="25.497858796296295" fill="#b08d57" opacity="0.18696544924554184"/><circle cx="600.9799382716049" cy="5.615997942386831" r="27.411342592592593" fill="#8a9767" opacity="0.12217849794238683"/><circle cx="750.0733024691358" cy="882.4142661179698" r="23.738020833333334" fill="#8a9767" opacity="0.18576088820301784"/><circle cx="568.3796296296297" cy="108.92961248285322" r="21.519560185185185" fill="#8a9767" opacity="0.12616941015089161"/>
</svg>