<svg width="900" height="1100" viewBox="0 0 900 1100" xmlns="http://www.w3.org/2000/svg" role="img">
  <defs>
    <linearGradient id="g2" x1="0.2" y1="0" x2="0.8" y2="1">
      <stop offset="0%" stop-color="#f0ece0"/>
      <stop offset="100%" stop-color="#d9d3ba"/>
    </linearGradient>
    <radialGradient id="glow2" cx="50%" cy="30%" r="65%">
      <stop offset="0%" stop-color="#fff6e8" stop-opacity="0.55"/>
      <stop offset="100%" stop-color="#fff6e8" stop-opacity="0"/>
    </radialGradient>
    <filter id="n2"><feTurbulence type="fractalNoise" baseFrequency="0.85" numOctaves="2" stitchTiles="stitch" result="noise"/><feColorMatrix in="noise" type="matrix" values="0 0 0 0 0  0 0 0 0 0  0 0 0 0 0  0 0 0 0.035 0"/></filter>
  </defs>
  <rect width="900" height="1100" fill="url(#g2)"/>
  <rect width="900" height="1100" fill="url(#glow2)"/>
  <g fill="none" stroke="#5b4f3d" stroke-width="3.092934027777778"><ellipse cx="254.2" cy="244.9" rx="30.9" ry="18.6" transform="rotate(4.368704944080496 254.2 244.9)"/><ellipse cx="226.8" cy="278.8" rx="30.9" ry="18.6" transform="rotate(73.579416322603 226.8 278.8)"/><ellipse cx="184.2" cy="263.5" rx="30.9" ry="18.6" transform="rotate(145.9349114840709 184.2 263.5)"/><ellipse cx="188.5" cy="215.3" rx="30.9" ry="18.6" transform="rotate(224.1585083436122 188.5 215.3)"/><ellipse cx="229.2" cy="206.0" rx="30.9" ry="18.6" transform="rotate(290.17727891901393 229.2 206.0)"/><circle cx="216" cy="242" r="8.7" fill="#5b4f3d" stroke="none"/></g><g stroke="#ad8253" stroke-width="3.645" fill="none" transform="rotate(17.328703703703702 216 242)"><path d="M 216 242 Q 256.5 233.9 297 242" /><path d="M 236.25 240 q 9.719999999999999 -12.96 4.05 -22.680000000000003" /><path d="M 256.5 244 q 9.719999999999999 12.96 4.05 22.680000000000003" /><path d="M 276.75 240 q 9.719999999999999 -12.96 4.05 -22.680000000000003" /></g><g fill="none" stroke="#5b4f3d" stroke-width="3.467002314814815"><ellipse cx="744.7" cy="334.9" rx="34.7" ry="20.8" transform="rotate(6.568334325781724 744.7 334.9)"/><ellipse cx="711.1" cy="372.0" rx="34.7" ry="20.8" transform="rotate(77.73900935534331 711.1 372.0)"/><ellipse cx="665.5" cy="352.7" rx="34.7" ry="20.8" transform="rotate(148.1993817685133 665.5 352.7)"/><ellipse cx="671.1" cy="300.1" rx="34.7" ry="20.8" transform="rotate(224.06807493304674 671.1 300.1)"/><ellipse cx="721.5" cy="291.7" rx="34.7" ry="20.8" transform="rotate(297.0336640430336 721.5 291.7)"/><circle cx="702" cy="330" r="9.7" fill="#5b4f3d" stroke="none"/></g><g stroke="#c99a5f" stroke-width="3.645" fill="none" transform="rotate(90.94307270233196 702 330)"><path d="M 702 330 Q 742.5 321.9 783 330" /><path d="M 722.25 328 q 9.719999999999999 -12.96 4.05 -22.680000000000003" /><path d="M 742.5 332 q 9.719999999999999 12.96 4.05 22.680000000000003" /><path d="M 762.75 328 q 9.719999999999999 -12.96 4.05 -22.680000000000003" /></g><g fill="none" stroke="#5b4f3d" stroke-width="4.0490567129629635"><ellipse cx="319.7" cy="799.1" rx="40.5" ry="24.3" transform="rotate(8.163764386485942 319.7 799.1)"/><ellipse cx="281.1" cy="841.0" rx="40.5" ry="24.3" transform="rotate(77.22711007696039 281.1 841.0)"/><ellipse cx="224.9" cy="814.0" rx="40.5" ry="24.3" transform="rotate(154.03304901747947 224.9 814.0)"/><ellipse cx="233.8" cy="757.2" rx="40.5" ry="24.3" transform="rotate(223.9039586784572 233.8 757.2)"/><ellipse cx="290.9" cy="746.4" rx="40.5" ry="24.3" transform="rotate(294.65611515396233 290.9 746.4)"/><circle cx="270" cy="792" r="11.3" fill="#5b4f3d" stroke="none"/></g><g stroke="#ad8253" stroke-width="3.645" fill="none" transform="rotate(169.9792524005487 270 792)"><path d="M 270 792 Q 310.5 783.9 351 792" /><path d="M 290.25 790 q 9.719999999999999 -12.96 4.05 -22.680000000000003" /><path d="M 310.5 794 q 9.719999999999999 12.96 4.05 22.680000000000003" /><path d="M 330.75 790 q 9.719999999999999 -12.96 4.05 -22.680000000000003" /></g><g fill="none" stroke="#5b4f3d" stroke-width="2.8849305555555556"><ellipse cx="683.7" cy="882.2" rx="28.8" ry="17.3" transform="rotate(3.60225600054258 683.7 882.2)"/><ellipse cx="658.8" cy="914.1" rx="28.8" ry="17.3" transform="rotate(72.4327639039011 658.8 914.1)"/><ellipse cx="617.2" cy="898.2" rx="28.8" ry="17.3" transform="rotate(149.39491047375108 617.2 898.2)"/><ellipse cx="619.4" cy="858.6" rx="28.8" ry="17.3" transform="rotate(216.84018090945796 619.4 858.6)"/><ellipse cx="660.1" cy="846.3" rx="28.8" ry="17.3" transform="rotate(289.79987539192285 660.1 846.3)"/><circle cx="648" cy="880" r="8.1" fill="#5b4f3d" stroke="none"/></g><g stroke="#c99a5f" stroke-width="3.645" fill="none" transform="rotate(214.31378600823047 648 880)"><path d="M 648 880 Q 688.5 871.9 729 880" /><path d="M 668.25 878 q 9.719999999999999 -12.96 4.05 -22.680000000000003" /><path d="M 688.5 882 q 9.719999999999999 12.96 4.05 22.680000000000003" /><path d="M 708.75 878 q 9.719999999999999 -12.96 4.05 -22.680000000000003" /></g><g fill="none" stroke="#5b4f3d" stroke-width="3.070457175925926"><ellipse cx="487.9" cy="554.0" rx="30.7" ry="18.4" transform="rotate(6.00525003175012 487.9 554.0)"/><ellipse cx="458.4" cy="587.1" rx="30.7" ry="18.4" transform="rotate(77.32623806312071 458.4 587.1)"/><ellipse cx="417.8" cy="570.3" rx="30.7" ry="18.4" transform="rotate(147.8308201827051 417.8 570.3)"/><ellipse cx="421.9" cy="524.3" rx="30.7" ry="18.4" transform="rotate(222.36438021352322 421.9 524.3)"/><ellipse cx="468.4" cy="516.7" rx="30.7" ry="18.4" transform="rotate(298.98169107334076 468.4 516.7)"/><circle cx="450" cy="550" r="8.6" fill="#5b4f3d" stroke="none"/></g><g stroke="#ad8253" stroke-width="3.645" fill="none" transform="rotate(306.78617969821676 450 550)"><path d="M 450 550 Q 490.5 541.9 531 550" /><path d="M 470.25 548 q 9.719999999999999 -12.96 4.05 -22.680000000000003" /><path d="M 490.5 552 q 9.719999999999999 12.96 4.05 22.680000000000003" /><path d="M 510.75 548 q 9.719999999999999 -12.96 4.05 -22.680000000000003" /></g>
  <rect width="900" height="1100" filter="url(#n2)" opacity="0.4"/>
</svg>