<svg width="900" height="1200" viewBox="0 0 900 1200" xmlns="http://www.w3.org/2000/svg" role="img">
  <defs>
    <linearGradient id="g16" x1="0.1" y1="0" x2="0.9" y2="1">
      <stop offset="0%" stop-color="#3a4326"/>
      <stop offset="100%" stop-color="#1c2113"/>
    </linearGradient>
    <radialGradient id="v16" cx="50%" cy="42%" r="72%">
      <stop offset="0%" stop-color="#000000" stop-opacity="0"/>
      <stop offset="100%" stop-color="#000000" stop-opacity="0.3"/>
    </radialGradient>
    <filter id="n16"><feTurbulence type="fractalNoise" baseFrequency="0.8" numOctaves="2" stitchTiles="stitch" result="noise"/><feColorMatrix in="noise" type="matrix" values="0 0 0 0 0  0 0 0 0 0  0 0 0 0 0  0 0 0 0.06 0"/></filter>
  </defs>
  <rect width="900" height="1200" fill="url(#g16)"/>
  <path d="M 189 1104 L 189 453 A 261 261 0 0 1 711 453 L 711 1104" fill="none" stroke="#c9a469" stroke-width="7.2" opacity="0.85"/><path d="M 161.28296296296296 492.6966666666666 Q 190.98805555555555 443.1881790123456 260.29993827160496 492.6966666666666 Q 190.98805555555555 542.2051543209876 161.28296296296296 492.6966666666666 Z" fill="#c9a469" opacity="0.7113798868312757" transform="rotate(30.23148148148148 161.28296296296296 492.6966666666666)"/><path d="M 216.52925925925925 431.29851851851845 Q 254.0737037037037 368.7244444444444 341.67740740740743 431.29851851851845 Q 254.0737037037037 493.8725925925925 216.52925925925925 431.29851851851845 Z" fill="#c9a469" opacity="0.7805189043209876" transform="rotate(302.46141975308643 216.52925925925925 431.29851851851845)"/><path d="M 152.02 478.67814814814807 Q 193.5315740740741 409.4921913580246 290.3919135802469 478.67814814814807 Q 193.5315740740741 547.8641049382716 152.02 478.67814814814807 Z" fill="#c9a469" opacity="0.8463786008230452" transform="rotate(331.2654320987655 152.02 478.67814814814807)"/><path d="M 156.82185185185185 471.9022222222222 Q 199.295 401.1136419753086 298.399012345679 471.9022222222222 Q 199.295 542.6908024691357 156.82185185185185 471.9022222222222 Z" fill="#c9a469" opacity="0.7816441615226337" transform="rotate(237.75462962962962 156.82185185185185 471.9022222222222)"/><path d="M 167.20148148148147 417.63740740740735 Q 205.2973148148148 354.1443518518518 294.1875925925926 417.63740740740735 Q 205.2973148148148 481.1304629629629 167.20148148148147 417.63740740740735 Z" fill="#c9a469" opacity="0.836778549382716" transform="rotate(249.7067901234568 167.20148148148147 417.63740740740735)"/><path d="M 221.82555555555555 444.1503703703703 Q 261.47185185185185 378.07320987654316 353.9798765432099 444.1503703703703 Q 261.47185185185185 510.22753086419743 221.82555555555555 444.1503703703703 Z" fill="#c9a469" opacity="0.7066891718106996" transform="rotate(141.56635802469137 221.82555555555555 444.1503703703703)"/><path d="M 183.36074074074074 465.30777777777774 Q 221.75194444444443 401.3224382716049 311.33141975308644 465.30777777777774 Q 221.75194444444443 529.2931172839506 183.36074074074074 465.30777777777774 Z" fill="#c9a469" opacity="0.7973945473251028" transform="rotate(354.44444444444446 183.36074074074074 465.30777777777774)"/><g><ellipse cx="174.5" cy="483.9" rx="15.8" ry="9.7" fill="#c9a469" opacity="0.96" transform="rotate(4.076687552739278 174.5 483.9)"/><ellipse cx="165.7" cy="496.7" rx="15.8" ry="9.7" fill="#c9a469" opacity="0.96" transform="rotate(64.81578788067027 165.7 496.7)"/><ellipse cx="150.7" cy="495.6" rx="15.8" ry="9.7" fill="#c9a469" opacity="0.96" transform="rotate(123.69439639699462 150.7 495.6)"/><ellipse cx="143.9" cy="482.4" rx="15.8" ry="9.7" fill="#c9a469" opacity="0.96" transform="rotate(181.4640781107574 143.9 482.4)"/><ellipse cx="154.7" cy="468.2" rx="15.8" ry="9.7" fill="#c9a469" opacity="0.96" transform="rotate(252.66982643230125 154.7 468.2)"/><ellipse cx="167.3" cy="469.8" rx="15.8" ry="9.7" fill="#c9a469" opacity="0.96" transform="rotate(301.98808593650824 167.3 469.8)"/><circle cx="159.22333333333333" cy="482.8105555555555" r="9.2" fill="#12150c"/></g><g><ellipse cx="158.0" cy="494.0" rx="16.6" ry="10.2" fill="#f4ede3" opacity="0.96" transform="rotate(11.656994338820974 158.0 494.0)"/><ellipse cx="148.6" cy="505.5" rx="16.6" ry="10.2" fill="#f4ede3" opacity="0.96" transform="rotate(66.79251437872482 148.6 505.5)"/><ellipse cx="131.7" cy="502.8" rx="16.6" ry="10.2" fill="#f4ede3" opacity="0.96" transform="rotate(131.60627598118444 131.7 502.8)"/><ellipse cx="126.4" cy="488.6" rx="16.6" ry="10.2" fill="#f4ede3" opacity="0.96" transform="rotate(187.75125098421745 126.4 488.6)"/><ellipse cx="135.5" cy="476.2" rx="16.6" ry="10.2" fill="#f4ede3" opacity="0.96" transform="rotate(244.99778450540958 135.5 476.2)"/><ellipse cx="151.8" cy="477.8" rx="16.6" ry="10.2" fill="#f4ede3" opacity="0.96" transform="rotate(306.219507461698 151.8 477.8)"/><circle cx="142.30833333333334" cy="490.7955555555555" r="9.6" fill="#12150c"/></g><g><ellipse cx="239.0" cy="500.1" rx="20.2" ry="12.4" fill="#c9a469" opacity="0.96" transform="rotate(11.776913167470076 239.0 500.1)"/><ellipse cx="228.2" cy="513.8" rx="20.2" ry="12.4" fill="#c9a469" opacity="0.96" transform="rotate(64.88983913891441 228.2 513.8)"/><ellipse cx="208.7" cy="512.1" rx="20.2" ry="12.4" fill="#c9a469" opacity="0.96" transform="rotate(124.89579516880634 208.7 512.1)"/><ellipse cx="200.4" cy="495.1" rx="20.2" ry="12.4" fill="#c9a469" opacity="0.96" transform="rotate(182.99704968067724 200.4 495.1)"/><ellipse cx="211.4" cy="478.5" rx="20.2" ry="12.4" fill="#c9a469" opacity="0.96" transform="rotate(244.18929949935597 211.4 478.5)"/><ellipse cx="231.5" cy="480.4" rx="20.2" ry="12.4" fill="#c9a469" opacity="0.96" transform="rotate(306.5715272490228 231.5 480.4)"/><circle cx="219.89333333333335" cy="496.0805555555555" r="11.7" fill="#12150c"/></g><path d="M 244.00656446813872 579.4300989964836 Q 272.9531385422128 531.1858088730268 340.49514471505233 579.4300989964836 Q 272.9531385422128 627.6743891199404 244.00656446813872 579.4300989964836 Z" fill="#c9a469" opacity="0.7153716563786008" transform="rotate(36.848765432098766 244.00656446813872 579.4300989964836)"/><path d="M 235.60841631999057 573.8541730705576 Q 280.2165644681387 499.50725949031073 384.30224348048444 573.8541730705576 Q 280.2165644681387 648.2010866508045 235.60841631999057 573.8541730705576 Z" fill="#c9a469" opacity="0.8277205504115226" transform="rotate(128.33796296296296 235.60841631999057 573.8541730705576)"/><path d="M 218.38804594962022 592.7893582557429 Q 248.11887928295354 543.2379693668539 317.490823727398 592.7893582557429 Q 248.11887928295354 642.3407471446318 218.38804594962022 592.7893582557429 Z" fill="#c9a469" opacity="0.7349382716049382" transform="rotate(265.2901234567901 218.38804594962022 592.7893582557429)"/><path d="M 231.01212002369428 591.7023212187058 Q 269.79341631999057 527.0668273915453 360.28310767801526 591.7023212187058 Q 269.79341631999057 656.3378150458664 231.01212002369428 591.7023212187058 Z" fill="#c9a469" opacity="0.7319322273662551" transform="rotate(222.1496913580247 231.01212002369428 591.7023212187058)"/><path d="M 222.54730520887946 570.8597286261132 Q 263.97350891258316 501.8160557866071 360.6346508878918 570.8597286261132 Q 263.97350891258316 639.9034014656194 222.54730520887946 570.8597286261132 Z" fill="#c9a469" opacity="0.7747209362139917" transform="rotate(80.02777777777777 222.54730520887946 570.8597286261132)"/><g><ellipse cx="253.7" cy="647.6" rx="25.8" ry="15.8" fill="#c9a469" opacity="0.96" transform="rotate(9.272433299093445 253.7 647.6)"/><ellipse cx="241.0" cy="665.5" rx="25.8" ry="15.8" fill="#c9a469" opacity="0.96" transform="rotate(61.45695543583506 241.0 665.5)"/><ellipse cx="215.2" cy="664.4" rx="25.8" ry="15.8" fill="#c9a469" opacity="0.96" transform="rotate(123.71760649286217 215.2 664.4)"/><ellipse cx="204.2" cy="642.6" rx="25.8" ry="15.8" fill="#c9a469" opacity="0.96" transform="rotate(182.48200660094932 204.2 642.6)"/><ellipse cx="221.5" cy="619.9" rx="25.8" ry="15.8" fill="#c9a469" opacity="0.96" transform="rotate(252.29514917043903 221.5 619.9)"/><ellipse cx="245.8" cy="625.2" rx="25.8" ry="15.8" fill="#c9a469" opacity="0.96" transform="rotate(312.15742365448415 245.8 625.2)"/><circle cx="229.07989780147207" cy="643.6325064038909" r="15.0" fill="#12150c"/></g><g><ellipse cx="243.1" cy="606.0" rx="15.6" ry="9.5" fill="#f4ede3" opacity="0.96" transform="rotate(11.481260755823675 243.1 606.0)"/><ellipse cx="234.7" cy="616.7" rx="15.6" ry="9.5" fill="#f4ede3" opacity="0.96" transform="rotate(65.22417504367343 234.7 616.7)"/><ellipse cx="219.5" cy="615.2" rx="15.6" ry="9.5" fill="#f4ede3" opacity="0.96" transform="rotate(126.25800674770053 219.5 615.2)"/><ellipse cx="213.6" cy="600.3" rx="15.6" ry="9.5" fill="#f4ede3" opacity="0.96" transform="rotate(190.55967258419315 213.6 600.3)"/><ellipse cx="224.1" cy="588.6" rx="15.6" ry="9.5" fill="#f4ede3" opacity="0.96" transform="rotate(253.57557279246657 224.1 588.6)"/><ellipse cx="236.8" cy="590.5" rx="15.6" ry="9.5" fill="#f4ede3" opacity="0.96" transform="rotate(303.85539341118715 236.8 590.5)"/><circle cx="228.36489780147207" cy="603.0175064038909" r="9.0" fill="#12150c"/></g><g><ellipse cx="271.0" cy="627.7" rx="14.5" ry="8.9" fill="#c9a469" opacity="0.96" transform="rotate(13.391672694256597 271.0 627.7)"/><ellipse cx="261.6" cy="637.9" rx="14.5" ry="8.9" fill="#c9a469" opacity="0.96" transform="rotate(72.27396535278216 261.6 637.9)"/><ellipse cx="250.1" cy="636.5" rx="14.5" ry="8.9" fill="#c9a469" opacity="0.96" transform="rotate(121.3380190451063 250.1 636.5)"/><ellipse cx="243.3" cy="624.4" rx="14.5" ry="8.9" fill="#c9a469" opacity="0.96" transform="rotate(180.43399195130152 243.3 624.4)"/><ellipse cx="250.4" cy="612.3" rx="14.5" ry="8.9" fill="#c9a469" opacity="0.96" transform="rotate(240.23363601792616 250.4 612.3)"/><ellipse cx="266.9" cy="614.3" rx="14.5" ry="8.9" fill="#c9a469" opacity="0.96" transform="rotate(313.15987874743104 266.9 614.3)"/><circle cx="257.349897801472" cy="624.502506403891" r="8.4" fill="#12150c"/></g><g><ellipse cx="243.6" cy="612.7" rx="25.6" ry="15.7" fill="#f4ede3" opacity="0.96" transform="rotate(4.260710455689282 243.6 612.7)"/><ellipse cx="226.6" cy="634.5" rx="25.6" ry="15.7" fill="#f4ede3" opacity="0.96" transform="rotate(71.86336770445826 226.6 634.5)"/><ellipse cx="204.0" cy="630.7" rx="25.6" ry="15.7" fill="#f4ede3" opacity="0.96" transform="rotate(126.86257448291767 204.0 630.7)"/><ellipse cx="194.1" cy="609.0" rx="25.6" ry="15.7" fill="#f4ede3" opacity="0.96" transform="rotate(184.33384067838315 194.1 609.0)"/><ellipse cx="208.2" cy="588.5" rx="25.6" ry="15.7" fill="#f4ede3" opacity="0.96" transform="rotate(244.4982148229267 208.2 588.5)"/><ellipse cx="231.5" cy="589.5" rx="25.6" ry="15.7" fill="#f4ede3" opacity="0.96" transform="rotate(300.6800312479717 231.5 589.5)"/><circle cx="218.83489780147207" cy="610.8875064038909" r="14.9" fill="#12150c"/></g><path d="M 338.169897801472 703.7072322345166 Q 362.5823052088794 663.0198865555043 419.5445891594967 703.7072322345166 Q 362.5823052088794 744.3945779135289 338.169897801472 703.7072322345166 Z" fill="#c9a469" opacity="0.8265927211934156" transform="rotate(147.11265432098767 338.169897801472 703.7072322345166)"/><path d="M 404.3717496533239 674.3313063085907 Q 430.09573113480536 631.4580038394549 490.1183545915955 674.3313063085907 Q 430.09573113480536 717.2046087777264 404.3717496533239 674.3313063085907 Z" fill="#c9a469" opacity="0.7767888374485596" transform="rotate(289.43518518518516 404.3717496533239 674.3313063085907)"/><path d="M 344.1513792829535 695.8664914937758 Q 383.2480459496202 630.7053803826647 474.4736015051757 695.8664914937758 Q 383.2480459496202 761.027602604887 344.1513792829535 695.8664914937758 Z" fill="#c9a469" opacity="0.8176871141975308" transform="rotate(227.22067901234567 344.1513792829535 695.8664914937758)"/><path d="M 397.7754533570276 666.1794544567388 Q 437.5725829866572 599.8509050740228 530.4325521224597 666.1794544567388 Q 437.5725829866572 732.5080038394548 397.7754533570276 666.1794544567388 Z" fill="#c9a469" opacity="0.8441949588477365" transform="rotate(214.91358024691357 397.7754533570276 666.1794544567388)"/><path d="M 370.31063854221276 700.7368618641461 Q 396.6026755792498 656.916800135751 457.9507619990029 700.7368618641461 Q 396.6026755792498 744.5569235925412 370.31063854221276 700.7368618641461 Z" fill="#c9a469" opacity="0.7123308899176954" transform="rotate(93.625 370.31063854221276 700.7368618641461)"/><path d="M 361.22360150517574 681.4053803826647 Q 405.4716570607313 607.6586211234054 508.7171200236943 681.4053803826647 Q 405.4716570607313 755.152139641924 361.22360150517574 681.4053803826647 Z" fill="#c9a469" opacity="0.7058912037037036" transform="rotate(291.1327160493827 361.22360150517574 681.4053803826647)"/><path d="M 341.98100891258315 726.851676678961 Q 372.512860764435 675.9652569258745 443.753848418756 726.851676678961 Q 372.512860764435 777.7380964320474 341.98100891258315 726.851676678961 Z" fill="#c9a469" opacity="0.753116640946502" transform="rotate(181.88117283950615 341.98100891258315 726.851676678961)"/><g><ellipse cx="412.1" cy="744.0" rx="18.0" ry="11.0" fill="#c9a469" opacity="0.96" transform="rotate(8.91513290794694 412.1 744.0)"/><ellipse cx="403.2" cy="756.6" rx="18.0" ry="11.0" fill="#c9a469" opacity="0.96" transform="rotate(61.36122914097385 403.2 756.6)"/><ellipse cx="385.8" cy="756.1" rx="18.0" ry="11.0" fill="#c9a469" opacity="0.96" transform="rotate(121.45192044149343 385.8 756.1)"/><ellipse cx="378.0" cy="737.0" rx="18.0" ry="11.0" fill="#c9a469" opacity="0.96" transform="rotate(194.18290363433462 378.0 737.0)"/><ellipse cx="388.6" cy="725.0" rx="18.0" ry="11.0" fill="#c9a469" opacity="0.96" transform="rotate(249.00527158713632 388.6 725.0)"/><ellipse cx="405.8" cy="727.7" rx="18.0" ry="11.0" fill="#c9a469" opacity="0.96" transform="rotate(308.9522813418091 405.8 727.7)"/><circle cx="394.84712002369423" cy="741.2801951974795" r="10.5" fill="#12150c"/></g><g><ellipse cx="349.6" cy="746.7" rx="17.8" ry="10.9" fill="#f4ede3" opacity="0.96" transform="rotate(10.295028369406879 349.6 746.7)"/><ellipse cx="340.9" cy="758.7" rx="17.8" ry="10.9" fill="#f4ede3" opacity="0.96" transform="rotate(61.51430524943376 340.9 758.7)"/><ellipse cx="322.2" cy="757.3" rx="17.8" ry="10.9" fill="#f4ede3" opacity="0.96" transform="rotate(127.14226227835886 322.2 757.3)"/><ellipse cx="315.8" cy="739.7" rx="17.8" ry="10.9" fill="#f4ede3" opacity="0.96" transform="rotate(193.0760031099837 315.8 739.7)"/><ellipse cx="327.5" cy="727.1" rx="17.8" ry="10.9" fill="#f4ede3" opacity="0.96" transform="rotate(252.63986207573143 327.5 727.1)"/><ellipse cx="343.7" cy="730.3" rx="17.8" ry="10.9" fill="#f4ede3" opacity="0.96" transform="rotate(309.76850304648525 343.7 730.3)"/><circle cx="332.63212002369426" cy="743.5651951974795" r="10.4" fill="#12150c"/></g><g><ellipse cx="349.4" cy="710.9" rx="17.4" ry="10.7" fill="#c9a469" opacity="0.96" transform="rotate(0.6335496538665804 349.4 710.9)"/><ellipse cx="338.7" cy="726.5" rx="17.4" ry="10.7" fill="#c9a469" opacity="0.96" transform="rotate(68.53093827873165 338.7 726.5)"/><ellipse cx="321.9" cy="723.9" rx="17.4" ry="10.7" fill="#c9a469" opacity="0.96" transform="rotate(128.95320237735933 321.9 723.9)"/><ellipse cx="316.0" cy="707.3" rx="17.4" ry="10.7" fill="#c9a469" opacity="0.96" transform="rotate(191.67068706733542 316.0 707.3)"/><ellipse cx="325.4" cy="695.4" rx="17.4" ry="10.7" fill="#c9a469" opacity="0.96" transform="rotate(245.23307838732634 325.4 695.4)"/><ellipse cx="341.7" cy="696.6" rx="17.4" ry="10.7" fill="#c9a469" opacity="0.96" transform="rotate(303.1243367937288 341.7 696.6)"/><circle cx="332.51712002369425" cy="710.7501951974796" r="10.1" fill="#12150c"/></g><g><ellipse cx="445.7" cy="679.3" rx="19.9" ry="12.2" fill="#f4ede3" opacity="0.96" transform="rotate(12.159572737434848 445.7 679.3)"/><ellipse cx="433.0" cy="693.5" rx="19.9" ry="12.2" fill="#f4ede3" opacity="0.96" transform="rotate(71.66816957016461 433.0 693.5)"/><ellipse cx="414.4" cy="689.9" rx="19.9" ry="12.2" fill="#f4ede3" opacity="0.96" transform="rotate(130.46572695806253 414.4 689.9)"/><ellipse cx="408.2" cy="670.7" rx="19.9" ry="12.2" fill="#f4ede3" opacity="0.96" transform="rotate(193.54794172595754 408.2 670.7)"/><ellipse cx="418.7" cy="657.8" rx="19.9" ry="12.2" fill="#f4ede3" opacity="0.96" transform="rotate(244.6898516197592 418.7 657.8)"/><ellipse cx="438.5" cy="659.9" rx="19.9" ry="12.2" fill="#f4ede3" opacity="0.96" transform="rotate(306.92471368137797 438.5 659.9)"/><circle cx="426.90212002369424" cy="675.2351951974795" r="11.5" fill="#12150c"/></g><g><ellipse cx="404.2" cy="670.9" rx="15.8" ry="9.7" fill="#c9a469" opacity="0.96" transform="rotate(5.482249204867586 404.2 670.9)"/><ellipse cx="396.6" cy="682.7" rx="15.8" ry="9.7" fill="#c9a469" opacity="0.96" transform="rotate(60.183040465029684 396.6 682.7)"/><ellipse cx="381.1" cy="682.6" rx="15.8" ry="9.7" fill="#c9a469" opacity="0.96" transform="rotate(120.93687736176547 381.1 682.6)"/><ellipse cx="373.8" cy="667.3" rx="15.8" ry="9.7" fill="#c9a469" opacity="0.96" transform="rotate(187.96480842714706 373.8 667.3)"/><ellipse cx="381.4" cy="656.1" rx="15.8" ry="9.7" fill="#c9a469" opacity="0.96" transform="rotate(240.26722311432712 381.4 656.1)"/><ellipse cx="398.9" cy="657.8" rx="15.8" ry="9.7" fill="#c9a469" opacity="0.96" transform="rotate(310.42667505072984 398.9 657.8)"/><circle cx="388.9871200236943" cy="669.4201951974795" r="9.2" fill="#12150c"/></g><path d="M 564.8449170133426 696.0531581604425 Q 599.988250346676 637.4809359382203 681.989361457787 696.0531581604425 Q 599.988250346676 754.6253803826647 564.8449170133426 696.0531581604425 Z" fill="#c9a469" opacity="0.8319000771604937" transform="rotate(247.99845679012347 564.8449170133426 696.0531581604425)"/><path d="M 504.86899108741676 658.3661211234055 Q 543.5127873837131 593.9597939629117 633.6816454084044 658.3661211234055 Q 543.5127873837131 722.7724482838993 504.86899108741676 658.3661211234055 Z" fill="#c9a469" opacity="0.827852366255144" transform="rotate(322.358024691358 504.86899108741676 658.3661211234055)"/><path d="M 517.404176272602 694.5235285308129 Q 554.9428799763057 631.9590223579734 642.533188618281 694.5235285308129 Q 554.9428799763057 757.0880347036524 517.404176272602 694.5235285308129 Z" fill="#c9a469" opacity="0.7320994084362139" transform="rotate(327.7361111111111 517.404176272602 694.5235285308129)"/><path d="M 500.3171392355649 743.9920470493314 Q 527.4118614577872 698.8341766789611 590.6328799763057 743.9920470493314 Q 527.4118614577872 789.1499174197018 500.3171392355649 743.9920470493314 Z" fill="#c9a469" opacity="0.7784375" transform="rotate(211.9104938271605 500.3171392355649 743.9920470493314)"/><path d="M 569.0745466429723 723.8383433456277 Q 614.0530651614908 648.8741458147634 719.0029417047008 723.8383433456277 Q 614.0530651614908 798.8025408764919 569.0745466429723 723.8383433456277 Z" fill="#c9a469" opacity="0.8451073816872428" transform="rotate(309.32561728395063 569.0745466429723 723.8383433456277)"/><path d="M 519.1430651614908 711.1290840863684 Q 548.79982442075 661.701151987603 617.9989293590216 711.1290840863684 Q 548.79982442075 760.5570161851338 519.1430651614908 711.1290840863684 Z" fill="#c9a469" opacity="0.8214609053497942" transform="rotate(301.0925925925926 519.1430651614908 711.1290840863684)"/><g><ellipse cx="570.7" cy="740.5" rx="15.2" ry="9.3" fill="#c9a469" opacity="0.96" transform="rotate(7.126420466893698 570.7 740.5)"/><ellipse cx="561.4" cy="752.4" rx="15.2" ry="9.3" fill="#c9a469" opacity="0.96" transform="rotate(68.97076345518506 561.4 752.4)"/><ellipse cx="548.0" cy="751.0" rx="15.2" ry="9.3" fill="#c9a469" opacity="0.96" transform="rotate(123.11893338516698 548.0 751.0)"/><ellipse cx="541.4" cy="737.0" rx="15.2" ry="9.3" fill="#c9a469" opacity="0.96" transform="rotate(186.237989575074 541.4 737.0)"/><ellipse cx="551.2" cy="724.7" rx="15.2" ry="9.3" fill="#c9a469" opacity="0.96" transform="rotate(250.59123340238344 551.2 724.7)"/><ellipse cx="564.8" cy="726.8" rx="15.2" ry="9.3" fill="#c9a469" opacity="0.96" transform="rotate(306.31990033668075 564.8 726.8)"/><circle cx="556.0701021985278" cy="738.629639641924" r="8.8" fill="#12150c"/></g><g><ellipse cx="601.7" cy="708.5" rx="16.3" ry="10.0" fill="#f4ede3" opacity="0.96" transform="rotate(5.555318025191411 601.7 708.5)"/><ellipse cx="592.2" cy="721.5" rx="16.3" ry="10.0" fill="#f4ede3" opacity="0.96" transform="rotate(66.5707290182125 592.2 721.5)"/><ellipse cx="575.5" cy="718.9" rx="16.3" ry="10.0" fill="#f4ede3" opacity="0.96" transform="rotate(131.42870032708652 575.5 718.9)"/><ellipse cx="570.2" cy="706.1" rx="16.3" ry="10.0" fill="#f4ede3" opacity="0.96" transform="rotate(183.37375322075005 570.2 706.1)"/><ellipse cx="581.3" cy="691.9" rx="16.3" ry="10.0" fill="#f4ede3" opacity="0.96" transform="rotate(252.8663754187353 581.3 691.9)"/><ellipse cx="596.3" cy="695.1" rx="16.3" ry="10.0" fill="#f4ede3" opacity="0.96" transform="rotate(310.9492092196002 596.3 695.1)"/><circle cx="585.9551021985278" cy="707.014639641924" r="9.5" fill="#12150c"/></g><g><ellipse cx="600.0" cy="676.4" rx="20.3" ry="12.4" fill="#c9a469" opacity="0.96" transform="rotate(10.84777250432711 600.0 676.4)"/><ellipse cx="590.5" cy="689.7" rx="20.3" ry="12.4" fill="#c9a469" opacity="0.96" transform="rotate(60.29129284337497 590.5 689.7)"/><ellipse cx="569.5" cy="688.7" rx="20.3" ry="12.4" fill="#c9a469" opacity="0.96" transform="rotate(125.1161068724382 569.5 688.7)"/><ellipse cx="561.2" cy="671.4" rx="20.3" ry="12.4" fill="#c9a469" opacity="0.96" transform="rotate(183.79208756769646 561.2 671.4)"/><ellipse cx="573.3" cy="654.6" rx="20.3" ry="12.4" fill="#c9a469" opacity="0.96" transform="rotate(247.68112947765454 573.3 654.6)"/><ellipse cx="593.8" cy="658.1" rx="20.3" ry="12.4" fill="#c9a469" opacity="0.96" transform="rotate(311.69911636465474 593.8 658.1)"/><circle cx="580.7401021985279" cy="672.6996396419239" r="11.8" fill="#12150c"/></g><g><ellipse cx="589.6" cy="671.7" rx="17.7" ry="10.9" fill="#f4ede3" opacity="0.96" transform="rotate(12.260825245597864 589.6 671.7)"/><ellipse cx="579.2" cy="684.0" rx="17.7" ry="10.9" fill="#f4ede3" opacity="0.96" transform="rotate(68.03738602851074 579.2 684.0)"/><ellipse cx="563.7" cy="682.6" rx="17.7" ry="10.9" fill="#f4ede3" opacity="0.96" transform="rotate(122.08608411906019 563.7 682.6)"/><ellipse cx="556.0" cy="664.8" rx="17.7" ry="10.9" fill="#f4ede3" opacity="0.96" transform="rotate(191.07397883548086 556.0 664.8)"/><ellipse cx="567.8" cy="651.7" rx="17.7" ry="10.9" fill="#f4ede3" opacity="0.96" transform="rotate(252.94042667697946 567.8 651.7)"/><ellipse cx="584.3" cy="655.4" rx="17.7" ry="10.9" fill="#f4ede3" opacity="0.96" transform="rotate(312.1506079914119 584.3 655.4)"/><circle cx="572.8251021985278" cy="668.084639641924" r="10.3" fill="#12150c"/></g><path d="M 698.6323244207501 591.8156545520393 Q 739.6419540503798 523.4662718359899 835.3310898528489 591.8156545520393 Q 739.6419540503798 660.1650372680887 698.6323244207501 591.8156545520393 Z" fill="#c9a469" opacity="0.7619900977366255" transform="rotate(247.62191358024694 698.6323244207501 591.8156545520393)"/><path d="M 627.3675096059354 618.5730619594467 Q 656.5220466429724 569.9821668977183 724.5492997293923 618.5730619594467 Q 656.5220466429724 667.1639570211751 627.3675096059354 618.5730619594467 Z" fill="#c9a469" opacity="0.8290843621399177" transform="rotate(3.833333333333333 627.3675096059354 618.5730619594467)"/><path d="M 668.0804725688984 598.6415804779651 Q 697.0410281244539 550.3739878853726 764.6156577540835 598.6415804779651 Q 697.0410281244539 646.9091730705577 668.0804725688984 598.6415804779651 Z" fill="#c9a469" opacity="0.7341030092592592" transform="rotate(108.84104938271605 668.0804725688984 598.6415804779651)"/><path d="M 619.4378799763058 564.2878767742615 Q 661.5322318281576 494.1306236878417 759.7523861491453 564.2878767742615 Q 661.5322318281576 634.4451298606812 619.4378799763058 564.2878767742615 Z" fill="#c9a469" opacity="0.7052867798353909" transform="rotate(297.0895061728395 619.4378799763058 564.2878767742615)"/><path d="M 651.3063984948243 621.3786175150022 Q 687.1289910874169 561.6742965273479 770.715040470133 621.3786175150022 Q 687.1289910874169 681.0829385026566 651.3063984948243 621.3786175150022 Z" fill="#c9a469" opacity="0.8319875257201645" transform="rotate(9.689814814814815 651.3063984948243 621.3786175150022)"/><path d="M 651.9526947911206 584.5804693668541 Q 683.764639235565 531.5605619594467 757.9925096059354 584.5804693668541 Q 683.764639235565 637.6003767742616 651.9526947911206 584.5804693668541 Z" fill="#c9a469" opacity="0.7813348765432099" transform="rotate(114.41975308641975 651.9526947911206 584.5804693668541)"/><path d="M 669.6434355318613 620.5600989964837 Q 706.1725096059354 559.6783088730269 791.4070157787748 620.5600989964837 Q 706.1725096059354 681.4418891199405 669.6434355318613 620.5600989964837 Z" fill="#c9a469" opacity="0.8149029063786007" transform="rotate(185.72376543209876 669.6434355318613 620.5600989964837)"/><g><ellipse cx="643.3" cy="568.5" rx="14.7" ry="9.0" fill="#c9a469" opacity="0.96" transform="rotate(10.062743203621139 643.3 568.5)"/><ellipse cx="635.5" cy="578.9" rx="14.7" ry="9.0" fill="#c9a469" opacity="0.96" transform="rotate(63.945654895116554 635.5 578.9)"/><ellipse cx="621.3" cy="577.9" rx="14.7" ry="9.0" fill="#c9a469" opacity="0.96" transform="rotate(123.61635398469917 621.3 577.9)"/><ellipse cx="615.1" cy="564.5" rx="14.7" ry="9.0" fill="#c9a469" opacity="0.96" transform="rotate(186.1127901426032 615.1 564.5)"/><ellipse cx="623.5" cy="553.0" rx="14.7" ry="9.0" fill="#c9a469" opacity="0.96" transform="rotate(246.35084713117078 623.5 553.0)"/><ellipse cx="636.4" cy="553.7" rx="14.7" ry="9.0" fill="#c9a469" opacity="0.96" transform="rotate(300.30744166669024 636.4 553.7)"/><circle cx="629.2373244207502" cy="566.0497286261133" r="8.6" fill="#12150c"/></g><g><ellipse cx="728.5" cy="557.9" rx="23.8" ry="14.6" fill="#f4ede3" opacity="0.96" transform="rotate(5.275384620270135 728.5 557.9)"/><ellipse cx="713.5" cy="577.3" rx="23.8" ry="14.6" fill="#f4ede3" opacity="0.96" transform="rotate(69.86809769065766 713.5 577.3)"/><ellipse cx="690.0" cy="572.7" rx="23.8" ry="14.6" fill="#f4ede3" opacity="0.96" transform="rotate(132.68873836226737 690.0 572.7)"/><ellipse cx="682.7" cy="553.3" rx="23.8" ry="14.6" fill="#f4ede3" opacity="0.96" transform="rotate(186.0006080125766 682.7 553.3)"/><ellipse cx="697.2" cy="534.3" rx="23.8" ry="14.6" fill="#f4ede3" opacity="0.96" transform="rotate(248.59283186771182 697.2 534.3)"/><ellipse cx="720.9" cy="538.5" rx="23.8" ry="14.6" fill="#f4ede3" opacity="0.96" transform="rotate(311.6676783512045 720.9 538.5)"/><circle cx="705.6223244207501" cy="555.7347286261133" r="13.8" fill="#12150c"/></g><g><ellipse cx="674.7" cy="580.0" rx="26.3" ry="16.1" fill="#c9a469" opacity="0.96" transform="rotate(10.932569177324764 674.7 580.0)"/><ellipse cx="662.0" cy="597.4" rx="26.3" ry="16.1" fill="#c9a469" opacity="0.96" transform="rotate(61.168180089630894 662.0 597.4)"/><ellipse cx="633.1" cy="594.4" rx="26.3" ry="16.1" fill="#c9a469" opacity="0.96" transform="rotate(130.71974856283538 633.1 594.4)"/><ellipse cx="624.9" cy="569.5" rx="26.3" ry="16.1" fill="#c9a469" opacity="0.96" transform="rotate(192.75198280338802 624.9 569.5)"/><ellipse cx="639.7" cy="551.7" rx="26.3" ry="16.1" fill="#c9a469" opacity="0.96" transform="rotate(246.95541486638794 639.7 551.7)"/><ellipse cx="665.5" cy="555.2" rx="26.3" ry="16.1" fill="#c9a469" opacity="0.96" transform="rotate(308.4055546391508 665.5 555.2)"/><circle cx="649.7073244207502" cy="575.1197286261133" r="15.3" fill="#12150c"/></g><g><ellipse cx="648.1" cy="657.5" rx="25.5" ry="15.6" fill="#f4ede3" opacity="0.96" transform="rotate(1.967393337811504 648.1 657.5)"/><ellipse cx="631.9" cy="679.8" rx="25.5" ry="15.6" fill="#f4ede3" opacity="0.96" transform="rotate(70.07477806814506 631.9 679.8)"/><ellipse cx="610.7" cy="677.7" rx="25.5" ry="15.6" fill="#f4ede3" opacity="0.96" transform="rotate(121.29037080597074 610.7 677.7)"/><ellipse cx="598.8" cy="656.0" rx="25.5" ry="15.6" fill="#f4ede3" opacity="0.96" transform="rotate(181.30001097806388 598.8 656.0)"/><ellipse cx="613.1" cy="634.3" rx="25.5" ry="15.6" fill="#f4ede3" opacity="0.96" transform="rotate(245.01958234676673 613.1 634.3)"/><ellipse cx="638.8" cy="637.3" rx="25.5" ry="15.6" fill="#f4ede3" opacity="0.96" transform="rotate(308.4260016283675 638.8 637.3)"/><circle cx="623.4923244207502" cy="656.6047286261133" r="14.8" fill="#12150c"/></g><g><ellipse cx="682.6" cy="577.7" rx="24.4" ry="14.9" fill="#c9a469" opacity="0.96" transform="rotate(10.608733077839169 682.6 577.7)"/><ellipse cx="666.9" cy="595.8" rx="24.4" ry="14.9" fill="#c9a469" opacity="0.96" transform="rotate(71.52098808922662 666.9 595.8)"/><ellipse cx="646.8" cy="593.3" rx="24.4" ry="14.9" fill="#c9a469" opacity="0.96" transform="rotate(122.30553618951176 646.8 593.3)"/><ellipse cx="635.9" cy="571.8" rx="24.4" ry="14.9" fill="#c9a469" opacity="0.96" transform="rotate(183.87356851271306 635.9 571.8)"/><ellipse cx="649.9" cy="551.8" rx="24.4" ry="14.9" fill="#c9a469" opacity="0.96" transform="rotate(246.3663205284158 649.9 551.8)"/><ellipse cx="671.5" cy="553.2" rx="24.4" ry="14.9" fill="#c9a469" opacity="0.96" transform="rotate(300.9860606601515 671.5 553.2)"/><circle cx="659.3773244207501" cy="573.3897286261133" r="14.1" fill="#12150c"/></g><path d="M 738.9137037037037 464.61629629629635 Q 783.1209259259259 390.93759259259264 886.2711111111112 464.61629629629635 Q 783.1209259259259 538.2950000000001 738.9137037037037 464.61629629629635 Z" fill="#c9a469" opacity="0.7316493055555555" transform="rotate(209.61882716049382 738.9137037037037 464.61629629629635)"/><path d="M 691.8711111111111 451.06259259259264 Q 716.0121296296296 410.8275617283951 772.3411728395062 451.06259259259264 Q 716.0121296296296 491.2976234567902 691.8711111111111 451.06259259259264 Z" fill="#c9a469" opacity="0.7222775205761316" transform="rotate(244.53395061728395 691.8711111111111 451.06259259259264)"/><path d="M 706.1396296296297 452.15333333333336 Q 743.6088888888889 389.7045679012346 831.0371604938272 452.15333333333336 Q 743.6088888888889 514.6020987654322 706.1396296296297 452.15333333333336 Z" fill="#c9a469" opacity="0.7850893775720165" transform="rotate(203.80092592592592 706.1396296296297 452.15333333333336)"/><path d="M 727.585925925926 426.5551851851852 Q 761.4445370370371 370.1241666666667 840.447962962963 426.5551851851852 Q 761.4445370370371 482.9862037037037 727.585925925926 426.5551851851852 Z" fill="#c9a469" opacity="0.8372145061728394" transform="rotate(115.19753086419752 727.585925925926 426.5551851851852)"/><path d="M 689.2766666666666 425.73481481481485 Q 723.4524074074073 368.7752469135803 803.1958024691357 425.73481481481485 Q 723.4524074074073 482.6943827160494 689.2766666666666 425.73481481481485 Z" fill="#c9a469" opacity="0.7902269804526748" transform="rotate(153.16820987654322 689.2766666666666 425.73481481481485)"/><path d="M 751.4785185185185 430.7588888888889 Q 783.5658333333333 377.28003086419756 858.4362345679012 430.7588888888889 Q 783.5658333333333 484.2377469135803 751.4785185185185 430.7588888888889 Z" fill="#c9a469" opacity="0.7668119855967077" transform="rotate(318.8240740740741 751.4785185185185 430.7588888888889)"/><g><ellipse cx="756.5" cy="492.3" rx="15.7" ry="9.6" fill="#c9a469" opacity="0.96" transform="rotate(11.21397623912652 756.5 492.3)"/><ellipse cx="746.4" cy="503.8" rx="15.7" ry="9.6" fill="#c9a469" opacity="0.96" transform="rotate(71.57729406253499 746.4 503.8)"/><ellipse cx="731.8" cy="501.0" rx="15.7" ry="9.6" fill="#c9a469" opacity="0.96" transform="rotate(130.34537831282327 731.8 501.0)"/><ellipse cx="726.7" cy="486.4" rx="15.7" ry="9.6" fill="#c9a469" opacity="0.96" transform="rotate(191.4528928608744 726.7 486.4)"/><ellipse cx="737.3" cy="474.8" rx="15.7" ry="9.6" fill="#c9a469" opacity="0.96" transform="rotate(253.52933680784147 737.3 474.8)"/><ellipse cx="750.0" cy="476.7" rx="15.7" ry="9.6" fill="#c9a469" opacity="0.96" transform="rotate(303.53284676147194 750.0 476.7)"/><circle cx="741.6" cy="489.38722222222225" r="9.1" fill="#12150c"/></g><g><ellipse cx="687.5" cy="468.3" rx="15.6" ry="9.5" fill="#f4ede3" opacity="0.96" transform="rotate(5.862943898991719 687.5 468.3)"/><ellipse cx="679.3" cy="480.2" rx="15.6" ry="9.5" fill="#f4ede3" opacity="0.96" transform="rotate(63.010005580751475 679.3 480.2)"/><ellipse cx="662.8" cy="478.3" rx="15.6" ry="9.5" fill="#f4ede3" opacity="0.96" transform="rotate(130.10056706355346 662.8 478.3)"/><ellipse cx="657.8" cy="463.6" rx="15.6" ry="9.5" fill="#f4ede3" opacity="0.96" transform="rotate(191.97069904725325 657.8 463.6)"/><ellipse cx="665.5" cy="453.4" rx="15.6" ry="9.5" fill="#f4ede3" opacity="0.96" transform="rotate(242.47525234024707 665.5 453.4)"/><ellipse cx="681.5" cy="454.7" rx="15.6" ry="9.5" fill="#f4ede3" opacity="0.96" transform="rotate(306.76954989233735 681.5 454.7)"/><circle cx="672.485" cy="466.7722222222223" r="9.0" fill="#12150c"/></g><g><ellipse cx="786.4" cy="506.3" rx="24.5" ry="15.0" fill="#c9a469" opacity="0.96" transform="rotate(0.21349604055961421 786.4 506.3)"/><ellipse cx="770.0" cy="528.9" rx="24.5" ry="15.0" fill="#c9a469" opacity="0.96" transform="rotate(72.04923267850886 770.0 528.9)"/><ellipse cx="749.9" cy="526.3" rx="24.5" ry="15.0" fill="#c9a469" opacity="0.96" transform="rotate(122.39536785685105 749.9 526.3)"/><ellipse cx="739.2" cy="502.7" rx="24.5" ry="15.0" fill="#c9a469" opacity="0.96" transform="rotate(188.60910349576716 739.2 502.7)"/><ellipse cx="752.8" cy="484.6" rx="24.5" ry="15.0" fill="#c9a469" opacity="0.96" transform="rotate(245.44669723262595 752.8 484.6)"/><ellipse cx="779.0" cy="489.0" rx="24.5" ry="15.0" fill="#c9a469" opacity="0.96" transform="rotate(313.2888237244731 779.0 489.0)"/><circle cx="762.67" cy="506.25722222222225" r="14.3" fill="#12150c"/></g><g><ellipse cx="675.4" cy="514.9" rx="20.8" ry="12.7" fill="#f4ede3" opacity="0.96" transform="rotate(12.170563761668431 675.4 514.9)"/><ellipse cx="661.4" cy="529.9" rx="20.8" ry="12.7" fill="#f4ede3" opacity="0.96" transform="rotate(73.62807181883366 661.4 529.9)"/><ellipse cx="644.2" cy="527.1" rx="20.8" ry="12.7" fill="#f4ede3" opacity="0.96" transform="rotate(125.13471179055426 644.2 527.1)"/><ellipse cx="635.7" cy="508.9" rx="20.8" ry="12.7" fill="#f4ede3" opacity="0.96" transform="rotate(184.94909242598374 635.7 508.9)"/><ellipse cx="649.4" cy="491.6" rx="20.8" ry="12.7" fill="#f4ede3" opacity="0.96" transform="rotate(251.70071282627524 649.4 491.6)"/><ellipse cx="669.3" cy="495.8" rx="20.8" ry="12.7" fill="#f4ede3" opacity="0.96" transform="rotate(312.3477095991762 669.3 495.8)"/><circle cx="655.755" cy="510.6422222222223" r="12.1" fill="#12150c"/></g><g><ellipse cx="792.2" cy="513.1" rx="19.9" ry="12.2" fill="#c9a469" opacity="0.96" transform="rotate(2.3432986470740746 792.2 513.1)"/><ellipse cx="779.1" cy="530.5" rx="19.9" ry="12.2" fill="#c9a469" opacity="0.96" transform="rotate(71.32750922129352 779.1 530.5)"/><ellipse cx="761.2" cy="527.6" rx="19.9" ry="12.2" fill="#c9a469" opacity="0.96" transform="rotate(127.57564020596017 761.2 527.6)"/><ellipse cx="753.8" cy="510.8" rx="19.9" ry="12.2" fill="#c9a469" opacity="0.96" transform="rotate(184.57165205747066 753.8 510.8)"/><ellipse cx="766.5" cy="494.2" rx="19.9" ry="12.2" fill="#c9a469" opacity="0.96" transform="rotate(250.49434046249183 766.5 494.2)"/><ellipse cx="784.7" cy="497.1" rx="19.9" ry="12.2" fill="#c9a469" opacity="0.96" transform="rotate(307.5271937360144 784.7 497.1)"/><circle cx="772.94" cy="512.3272222222223" r="11.5" fill="#12150c"/></g><path d="M 415.15444444444444 1098.9927314814815 Q 473.1625115740741 1002.3126195987654 608.5146682098766 1098.9927314814815 Q 473.1625115740741 1195.6728433641977 415.15444444444444 1098.9927314814815 Z" fill="#c9a469" opacity="0.8392682613168724" transform="rotate(71.97839506172839 415.15444444444444 1098.9927314814815)"/><path d="M 410.5736574074074 1142.2925 Q 454.4580555555555 1069.1518364197532 556.8549845679013 1142.2925 Q 454.4580555555555 1215.4331635802469 410.5736574074074 1142.2925 Z" fill="#c9a469" opacity="0.8381912294238683" transform="rotate(277.912037037037 410.5736574074074 1142.2925)"/><path d="M 468.6623148148148 1122.4950462962963 Q 508.13207175925925 1056.7121180555555 600.2281712962963 1122.4950462962963 Q 508.13207175925925 1188.2779745370372 468.6623148148148 1122.4950462962963 Z" fill="#c9a469" opacity="0.8430941358024691" transform="rotate(355.9753086419753 468.6623148148148 1122.4950462962963)"/><path d="M 457.7870833333333 1070.767037037037 Q 491.6428935185185 1014.340686728395 570.6397839506174 1070.767037037037 Q 491.6428935185185 1127.193387345679 457.7870833333333 1070.767037037037 Z" fill="#c9a469" opacity="0.7155510545267489" transform="rotate(0.6126543209876544 457.7870833333333 1070.767037037037)"/><path d="M 439.91462962962964 1040.275138888889 Q 478.0488541666667 976.7180979938272 567.0287114197531 1040.275138888889 Q 478.0488541666667 1103.8321797839508 439.91462962962964 1040.275138888889 Z" fill="#c9a469" opacity="0.8282471707818929" transform="rotate(172.9351851851852 439.91462962962964 1040.275138888889)"/><path d="M 485.81162037037035 1079.7860185185186 Q 544.808287037037 981.4582407407408 682.4671759259259 1079.7860185185186 Q 544.808287037037 1178.1137962962964 485.81162037037035 1079.7860185185186 Z" fill="#c9a469" opacity="0.7316454475308641" transform="rotate(140.72067901234567 485.81162037037035 1079.7860185185186)"/><path d="M 450.64472222222224 1048.8663425925927 Q 483.379525462963 994.3083371913581 559.7607330246914 1048.8663425925927 Q 483.379525462963 1103.4243479938273 450.64472222222224 1048.8663425925927 Z" fill="#c9a469" opacity="0.7706532921810699" transform="rotate(158.4135802469136 450.64472222222224 1048.8663425925927)"/><g><ellipse cx="472.7" cy="1050.2" rx="31.2" ry="19.1" fill="#c9a469" opacity="0.96" transform="rotate(9.672408337403864 472.7 1050.2)"/><ellipse cx="452.4" cy="1073.8" rx="31.2" ry="19.1" fill="#c9a469" opacity="0.96" transform="rotate(71.72306328896252 452.4 1073.8)"/><ellipse cx="425.5" cy="1069.8" rx="31.2" ry="19.1" fill="#c9a469" opacity="0.96" transform="rotate(125.37018987958103 425.5 1069.8)"/><ellipse cx="412.8" cy="1043.3" rx="31.2" ry="19.1" fill="#c9a469" opacity="0.96" transform="rotate(183.56723208868317 412.8 1043.3)"/><ellipse cx="431.4" cy="1017.3" rx="31.2" ry="19.1" fill="#c9a469" opacity="0.96" transform="rotate(247.5962714022869 431.4 1017.3)"/><ellipse cx="462.4" cy="1022.1" rx="31.2" ry="19.1" fill="#c9a469" opacity="0.96" transform="rotate(310.25112567484257 462.4 1022.1)"/><circle cx="442.9218055555556" cy="1045.1709027777779" r="18.1" fill="#12150c"/></g><g><ellipse cx="488.3" cy="1144.3" rx="21.5" ry="13.2" fill="#f4ede3" opacity="0.96" transform="rotate(2.0003664105122554 488.3 1144.3)"/><ellipse cx="477.4" cy="1161.9" rx="21.5" ry="13.2" fill="#f4ede3" opacity="0.96" transform="rotate(61.63053993588167 477.4 1161.9)"/><ellipse cx="453.1" cy="1158.6" rx="21.5" ry="13.2" fill="#f4ede3" opacity="0.96" transform="rotate(133.94521505998708 453.1 1158.6)"/><ellipse cx="446.7" cy="1142.1" rx="21.5" ry="13.2" fill="#f4ede3" opacity="0.96" transform="rotate(184.15135283468365 446.7 1142.1)"/><ellipse cx="461.0" cy="1123.8" rx="21.5" ry="13.2" fill="#f4ede3" opacity="0.96" transform="rotate(251.7282210880442 461.0 1123.8)"/><ellipse cx="481.0" cy="1127.7" rx="21.5" ry="13.2" fill="#f4ede3" opacity="0.96" transform="rotate(310.3710445034917 481.0 1127.7)"/><circle cx="467.51368055555554" cy="1143.6002777777778" r="12.5" fill="#12150c"/></g><g><ellipse cx="475.8" cy="1060.8" rx="33.0" ry="20.2" fill="#c9a469" opacity="0.96" transform="rotate(1.1918814044586346 475.8 1060.8)"/><ellipse cx="458.8" cy="1088.3" rx="33.0" ry="20.2" fill="#c9a469" opacity="0.96" transform="rotate(61.98255972320645 458.8 1088.3)"/><ellipse cx="424.2" cy="1085.3" rx="33.0" ry="20.2" fill="#c9a469" opacity="0.96" transform="rotate(127.89787984382524 424.2 1085.3)"/><ellipse cx="412.2" cy="1055.7" rx="33.0" ry="20.2" fill="#c9a469" opacity="0.96" transform="rotate(188.01804428195442 412.2 1055.7)"/><ellipse cx="432.1" cy="1030.4" rx="33.0" ry="20.2" fill="#c9a469" opacity="0.96" transform="rotate(248.39978281636886 432.1 1030.4)"/><ellipse cx="462.9" cy="1034.5" rx="33.0" ry="20.2" fill="#c9a469" opacity="0.96" transform="rotate(306.6115615942759 462.9 1034.5)"/><circle cx="443.84305555555557" cy="1060.1171527777778" r="19.2" fill="#12150c"/></g><path d="M 237.21259259259259 1055.0818518518518 Q 280.95287037037036 982.1813888888888 383.01351851851854 1055.0818518518518 Q 280.95287037037036 1127.9823148148148 237.21259259259259 1055.0818518518518 Z" fill="#c9a469" opacity="0.7537538580246913" transform="rotate(41.55864197530864 237.21259259259259 1055.0818518518518)"/><path d="M 187.3033333333333 1076.2614814814815 Q 212.8607407407407 1033.6658024691358 272.4946913580247 1076.2614814814815 Q 212.8607407407407 1118.8571604938272 187.3033333333333 1076.2614814814815 Z" fill="#c9a469" opacity="0.7532941100823045" transform="rotate(111.19598765432099 187.3033333333333 1076.2614814814815)"/><path d="M 204.3051851851852 1098.4855555555555 Q 236.87416666666667 1044.2039197530864 312.86845679012345 1098.4855555555555 Q 236.87416666666667 1152.7671913580245 204.3051851851852 1098.4855555555555 Z" fill="#c9a469" opacity="0.8180735596707819" transform="rotate(288.51851851851853 204.3051851851852 1098.4855555555555)"/><path d="M 253.2848148148148 1070.8207407407408 Q 279.72648148148147 1026.7512962962965 341.4237037037037 1070.8207407407408 Q 279.72648148148147 1114.8901851851851 253.2848148148148 1070.8207407407408 Z" fill="#c9a469" opacity="0.7985551697530864" transform="rotate(201.30401234567898 253.2848148148148 1070.8207407407408)"/><path d="M 228.9088888888889 1063.9337037037037 Q 254.55101851851853 1021.1968209876543 314.3826543209877 1063.9337037037037 Q 254.55101851851853 1106.6705864197531 228.9088888888889 1063.9337037037037 Z" fill="#c9a469" opacity="0.7396463477366255" transform="rotate(103.99691358024691 228.9088888888889 1063.9337037037037)"/><g><ellipse cx="202.1" cy="1060.2" rx="23.6" ry="14.4" fill="#c9a469" opacity="0.96" transform="rotate(9.297731075541693 202.1 1060.2)"/><ellipse cx="188.3" cy="1077.6" rx="23.6" ry="14.4" fill="#c9a469" opacity="0.96" transform="rotate(67.56845612866782 188.3 1077.6)"/><ellipse cx="165.1" cy="1074.1" rx="23.6" ry="14.4" fill="#c9a469" opacity="0.96" transform="rotate(129.372273552746 165.1 1074.1)"/><ellipse cx="157.4" cy="1051.3" rx="23.6" ry="14.4" fill="#c9a469" opacity="0.96" transform="rotate(193.33868244892932 157.4 1051.3)"/><ellipse cx="170.4" cy="1035.6" rx="23.6" ry="14.4" fill="#c9a469" opacity="0.96" transform="rotate(246.42581942496523 170.4 1035.6)"/><ellipse cx="194.2" cy="1039.1" rx="23.6" ry="14.4" fill="#c9a469" opacity="0.96" transform="rotate(310.0753920918453 194.2 1039.1)"/><circle cx="179.5622222222222" cy="1056.516111111111" r="13.7" fill="#12150c"/></g><g><ellipse cx="230.9" cy="1082.7" rx="18.1" ry="11.1" fill="#f4ede3" opacity="0.96" transform="rotate(10.578154697569198 230.9 1082.7)"/><ellipse cx="218.6" cy="1096.3" rx="18.1" ry="11.1" fill="#f4ede3" opacity="0.96" transform="rotate(73.59037076364139 218.6 1096.3)"/><ellipse cx="201.8" cy="1092.4" rx="18.1" ry="11.1" fill="#f4ede3" opacity="0.96" transform="rotate(132.57581940380055 201.8 1092.4)"/><ellipse cx="196.1" cy="1079.1" rx="18.1" ry="11.1" fill="#f4ede3" opacity="0.96" transform="rotate(181.38935142644303 196.1 1079.1)"/><ellipse cx="206.3" cy="1063.6" rx="18.1" ry="11.1" fill="#f4ede3" opacity="0.96" transform="rotate(245.18628978137104 206.3 1063.6)"/><ellipse cx="225.4" cy="1066.5" rx="18.1" ry="11.1" fill="#f4ede3" opacity="0.96" transform="rotate(311.9858040302782 225.4 1066.5)"/><circle cx="213.6472222222222" cy="1079.5011111111112" r="10.5" fill="#12150c"/></g><g><ellipse cx="298.1" cy="1039.2" rx="21.8" ry="13.3" fill="#c9a469" opacity="0.96" transform="rotate(11.560162801299398 298.1 1039.2)"/><ellipse cx="285.1" cy="1054.6" rx="21.8" ry="13.3" fill="#c9a469" opacity="0.96" transform="rotate(68.5709112216147 285.1 1054.6)"/><ellipse cx="264.4" cy="1051.5" rx="21.8" ry="13.3" fill="#c9a469" opacity="0.96" transform="rotate(128.31897729742252 264.4 1051.5)"/><ellipse cx="257.0" cy="1029.8" rx="21.8" ry="13.3" fill="#c9a469" opacity="0.96" transform="rotate(194.20850842263295 257.0 1029.8)"/><ellipse cx="268.1" cy="1016.1" rx="21.8" ry="13.3" fill="#c9a469" opacity="0.96" transform="rotate(243.6483446194796 268.1 1016.1)"/><ellipse cx="288.9" cy="1017.3" rx="21.8" ry="13.3" fill="#c9a469" opacity="0.96" transform="rotate(302.8548417917109 288.9 1017.3)"/><circle cx="277.4322222222222" cy="1034.986111111111" r="12.6" fill="#12150c"/></g><g><ellipse cx="298.1" cy="1085.6" rx="25.2" ry="15.4" fill="#f4ede3" opacity="0.96" transform="rotate(1.500796728029362 298.1 1085.6)"/><ellipse cx="281.9" cy="1107.9" rx="25.2" ry="15.4" fill="#f4ede3" opacity="0.96" transform="rotate(70.41500860042599 281.9 1107.9)"/><ellipse cx="261.5" cy="1106.0" rx="25.2" ry="15.4" fill="#f4ede3" opacity="0.96" transform="rotate(120.18273345317958 261.5 1106.0)"/><ellipse cx="249.9" cy="1079.7" rx="25.2" ry="15.4" fill="#f4ede3" opacity="0.96" transform="rotate(192.405305022255 249.9 1079.7)"/><ellipse cx="263.6" cy="1062.8" rx="25.2" ry="15.4" fill="#f4ede3" opacity="0.96" transform="rotate(245.39297015885847 263.6 1062.8)"/><ellipse cx="286.1" cy="1064.0" rx="25.2" ry="15.4" fill="#f4ede3" opacity="0.96" transform="rotate(300.58743647398154 286.1 1064.0)"/><circle cx="273.71722222222223" cy="1084.9711111111112" r="14.6" fill="#12150c"/></g><path d="M 717.8759259259259 1093.345185185185 Q 749.682037037037 1040.3349999999998 823.8962962962963 1093.345185185185 Q 749.682037037037 1146.3553703703703 717.8759259259259 1093.345185185185 Z" fill="#c9a469" opacity="0.7635860339506172" transform="rotate(308.4891975308642 717.8759259259259 1093.345185185185)"/><path d="M 694.5666666666666 1071.5248148148148 Q 739.4399074074073 996.7360802469136 844.144135802469 1071.5248148148148 Q 739.4399074074073 1146.313549382716 694.5666666666666 1071.5248148148148 Z" fill="#c9a469" opacity="0.7676401748971193" transform="rotate(348.9598765432099 694.5666666666666 1071.5248148148148)"/><path d="M 678.1685185185185 1048.348888888889 Q 710.3033333333333 994.7908641975309 785.2845679012345 1048.348888888889 Q 710.3033333333333 1101.906913580247 678.1685185185185 1048.348888888889 Z" fill="#c9a469" opacity="0.7827668467078188" transform="rotate(127.11574074074075 678.1685185185185 1048.348888888889)"/><path d="M 662.5481481481481 1088.0840740740741 Q 689.8056481481482 1042.6549074074073 753.4064814814815 1088.0840740740741 Q 689.8056481481482 1133.513240740741 662.5481481481481 1088.0840740740741 Z" fill="#c9a469" opacity="0.709429012345679" transform="rotate(110.73456790123456 662.5481481481481 1088.0840740740741)"/><path d="M 657.5722222222222 1117.397037037037 Q 691.8801851851852 1060.2170987654322 771.9320987654321 1117.397037037037 Q 691.8801851851852 1174.576975308642 657.5722222222222 1117.397037037037 Z" fill="#c9a469" opacity="0.7925340792181069" transform="rotate(314.2608024691358 657.5722222222222 1117.397037037037)"/><path d="M 669.9074074074074 1107.7544444444445 Q 707.2602777777778 1045.4996604938272 794.416975308642 1107.7544444444445 Q 707.2602777777778 1170.0092283950619 669.9074074074074 1107.7544444444445 Z" fill="#c9a469" opacity="0.7881005658436213" transform="rotate(338.80555555555554 669.9074074074074 1107.7544444444445)"/><g><ellipse cx="640.0" cy="1042.0" rx="16.2" ry="9.9" fill="#c9a469" opacity="0.96" transform="rotate(2.8576048983617737 640.0 1042.0)"/><ellipse cx="629.5" cy="1056.0" rx="16.2" ry="9.9" fill="#c9a469" opacity="0.96" transform="rotate(70.69236310580642 629.5 1056.0)"/><ellipse cx="616.1" cy="1054.6" rx="16.2" ry="9.9" fill="#c9a469" opacity="0.96" transform="rotate(121.54690990791438 616.1 1054.6)"/><ellipse cx="608.8" cy="1038.6" rx="16.2" ry="9.9" fill="#c9a469" opacity="0.96" transform="rotate(189.59534836302873 608.8 1038.6)"/><ellipse cx="619.2" cy="1026.3" rx="16.2" ry="9.9" fill="#c9a469" opacity="0.96" transform="rotate(251.18548553943722 619.2 1026.3)"/><ellipse cx="633.2" cy="1028.2" rx="16.2" ry="9.9" fill="#c9a469" opacity="0.96" transform="rotate(304.41630406132003 633.2 1028.2)"/><circle cx="624.2933333333333" cy="1041.1805555555557" r="9.4" fill="#12150c"/></g><g><ellipse cx="747.5" cy="1109.3" rx="16.4" ry="10.1" fill="#f4ede3" opacity="0.96" transform="rotate(2.6791082087135716 747.5 1109.3)"/><ellipse cx="736.5" cy="1123.7" rx="16.4" ry="10.1" fill="#f4ede3" opacity="0.96" transform="rotate(72.07225856726637 736.5 1123.7)"/><ellipse cx="723.2" cy="1122.1" rx="16.4" ry="10.1" fill="#f4ede3" opacity="0.96" transform="rotate(121.6999860163743 723.2 1122.1)"/><ellipse cx="715.7" cy="1108.3" rx="16.4" ry="10.1" fill="#f4ede3" opacity="0.96" transform="rotate(180.96174532162357 715.7 1108.3)"/><ellipse cx="726.2" cy="1093.6" rx="16.4" ry="10.1" fill="#f4ede3" opacity="0.96" transform="rotate(250.0785850150863 726.2 1093.6)"/><ellipse cx="741.4" cy="1096.0" rx="16.4" ry="10.1" fill="#f4ede3" opacity="0.96" transform="rotate(308.05089454991514 741.4 1096.0)"/><circle cx="731.5783333333333" cy="1108.5655555555556" r="9.5" fill="#12150c"/></g><g><ellipse cx="763.9" cy="1109.4" rx="25.8" ry="15.8" fill="#c9a469" opacity="0.96" transform="rotate(2.202196000768066 763.9 1109.4)"/><ellipse cx="750.5" cy="1130.6" rx="25.8" ry="15.8" fill="#c9a469" opacity="0.96" transform="rotate(62.41077985172606 750.5 1130.6)"/><ellipse cx="723.4" cy="1127.9" rx="25.8" ry="15.8" fill="#c9a469" opacity="0.96" transform="rotate(128.71661904567222 723.4 1127.9)"/><ellipse cx="714.0" cy="1107.2" rx="25.8" ry="15.8" fill="#c9a469" opacity="0.96" transform="rotate(182.7726854206241 714.0 1107.2)"/><ellipse cx="729.9" cy="1085.2" rx="25.8" ry="15.8" fill="#c9a469" opacity="0.96" transform="rotate(248.67326897243805 729.9 1085.2)"/><ellipse cx="751.7" cy="1087.0" rx="25.8" ry="15.8" fill="#c9a469" opacity="0.96" transform="rotate(300.64411086151006 751.7 1087.0)"/><circle cx="738.9633333333333" cy="1108.4505555555556" r="15.0" fill="#12150c"/></g><path d="M 59.00666666666667 208.86481481481485 Q 96.71490740740741 146.01774691358028 184.70080246913582 208.86481481481485 Q 96.71490740740741 271.71188271604944 59.00666666666667 208.86481481481485 Z" fill="#c9a469" opacity="0.8241332304526748" transform="rotate(144.54320987654322 59.00666666666667 208.86481481481485)"/><path d="M 29.40851851851852 186.8888888888889 Q 69.07833333333335 120.77253086419755 161.64123456790125 186.8888888888889 Q 69.07833333333335 253.00524691358027 29.40851851851852 186.8888888888889 Z" fill="#c9a469" opacity="0.7163432355967078" transform="rotate(107.69907407407408 29.40851851851852 186.8888888888889)"/><path d="M 72.58814814814815 127.02407407407411 Q 96.88064814814815 86.53657407407411 153.56314814814817 127.02407407407411 Q 96.88064814814815 167.5115740740741 72.58814814814815 127.02407407407411 Z" fill="#c9a469" opacity="0.7950887345679012" transform="rotate(216.3179012345679 72.58814814814815 127.02407407407411)"/><path d="M 112.01222222222222 128.73703703703706 Q 150.85518518518518 63.99876543209878 241.48876543209877 128.73703703703706 Q 150.85518518518518 193.47530864197535 112.01222222222222 128.73703703703706 Z" fill="#c9a469" opacity="0.7052771347736625" transform="rotate(124.84413580246914 112.01222222222222 128.73703703703706)"/><path d="M 67.94740740740741 163.49444444444447 Q 92.13527777777779 123.18132716049385 148.57364197530865 163.49444444444447 Q 92.13527777777779 203.8075617283951 67.94740740740741 163.49444444444447 Z" fill="#c9a469" opacity="0.8029269547325102" transform="rotate(154.38888888888889 67.94740740740741 163.49444444444447)"/><path d="M 68.66037037037037 141.962962962963 Q 101.85425925925927 86.63981481481484 179.30666666666667 141.962962962963 Q 101.85425925925927 197.28611111111115 68.66037037037037 141.962962962963 Z" fill="#c9a469" opacity="0.8218344907407407" transform="rotate(132.72993827160494 68.66037037037037 141.962962962963)"/><g><ellipse cx="67.7" cy="232.6" rx="14.3" ry="8.8" fill="#c9a469" opacity="0.96" transform="rotate(3.8426831205929766 67.7 232.6)"/><ellipse cx="59.5" cy="244.3" rx="14.3" ry="8.8" fill="#c9a469" opacity="0.96" transform="rotate(65.58018598504951 59.5 244.3)"/><ellipse cx="45.1" cy="242.5" rx="14.3" ry="8.8" fill="#c9a469" opacity="0.96" transform="rotate(128.68450560615173 45.1 242.5)"/><ellipse cx="40.0" cy="230.4" rx="14.3" ry="8.8" fill="#c9a469" opacity="0.96" transform="rotate(184.88842688440394 40.0 230.4)"/><ellipse cx="48.2" cy="218.9" rx="14.3" ry="8.8" fill="#c9a469" opacity="0.96" transform="rotate(246.0843608452839 48.2 218.9)"/><ellipse cx="63.5" cy="221.7" rx="14.3" ry="8.8" fill="#c9a469" opacity="0.96" transform="rotate(314.0849054517827 63.5 221.7)"/><circle cx="53.80611111111111" cy="231.6266666666667" r="8.3" fill="#12150c"/></g><g><ellipse cx="156.4" cy="173.0" rx="21.2" ry="13.0" fill="#f4ede3" opacity="0.96" transform="rotate(9.267766718971922 156.4 173.0)"/><ellipse cx="146.1" cy="187.7" rx="21.2" ry="13.0" fill="#f4ede3" opacity="0.96" transform="rotate(61.02492836037418 146.1 187.7)"/><ellipse cx="122.9" cy="185.3" rx="21.2" ry="13.0" fill="#f4ede3" opacity="0.96" transform="rotate(130.46228842534143 122.9 185.3)"/><ellipse cx="116.0" cy="166.1" rx="21.2" ry="13.0" fill="#f4ede3" opacity="0.96" transform="rotate(190.21403864335048 116.0 166.1)"/><ellipse cx="128.3" cy="150.8" rx="21.2" ry="13.0" fill="#f4ede3" opacity="0.96" transform="rotate(247.39794174712222 128.3 150.8)"/><ellipse cx="150.3" cy="154.8" rx="21.2" ry="13.0" fill="#f4ede3" opacity="0.96" transform="rotate(313.37589228516146 150.3 154.8)"/><circle cx="136.19111111111113" cy="169.7116666666667" r="12.3" fill="#12150c"/></g><g><ellipse cx="106.7" cy="141.4" rx="21.5" ry="13.2" fill="#c9a469" opacity="0.96" transform="rotate(10.81344857948592 106.7 141.4)"/><ellipse cx="93.2" cy="157.1" rx="21.5" ry="13.2" fill="#c9a469" opacity="0.96" transform="rotate(70.49520009567215 93.2 157.1)"/><ellipse cx="75.5" cy="155.3" rx="21.5" ry="13.2" fill="#c9a469" opacity="0.96" transform="rotate(121.19869706753083 75.5 155.3)"/><ellipse cx="65.7" cy="134.6" rx="21.5" ry="13.2" fill="#c9a469" opacity="0.96" transform="rotate(188.0792624448644 65.7 134.6)"/><ellipse cx="77.4" cy="118.6" rx="21.5" ry="13.2" fill="#c9a469" opacity="0.96" transform="rotate(244.8321209110956 77.4 118.6)"/><ellipse cx="100.3" cy="122.1" rx="21.5" ry="13.2" fill="#c9a469" opacity="0.96" transform="rotate(312.368463600243 100.3 122.1)"/><circle cx="86.2761111111111" cy="137.4966666666667" r="12.5" fill="#12150c"/></g><g><ellipse cx="83.5" cy="171.1" rx="18.5" ry="11.3" fill="#f4ede3" opacity="0.96" transform="rotate(12.060714921702614 83.5 171.1)"/><ellipse cx="72.5" cy="184.1" rx="18.5" ry="11.3" fill="#f4ede3" opacity="0.96" transform="rotate(68.92409765396985 72.5 184.1)"/><ellipse cx="53.8" cy="180.4" rx="18.5" ry="11.3" fill="#f4ede3" opacity="0.96" transform="rotate(133.12260750882885 53.8 180.4)"/><ellipse cx="48.2" cy="166.7" rx="18.5" ry="11.3" fill="#f4ede3" opacity="0.96" transform="rotate(182.06508450851337 48.2 166.7)"/><ellipse cx="57.7" cy="151.6" rx="18.5" ry="11.3" fill="#f4ede3" opacity="0.96" transform="rotate(241.96788455677168 57.7 151.6)"/><ellipse cx="75.1" cy="151.9" rx="18.5" ry="11.3" fill="#f4ede3" opacity="0.96" transform="rotate(300.3196607383243 75.1 151.9)"/><circle cx="66.06111111111112" cy="167.3816666666667" r="10.7" fill="#12150c"/></g><g><ellipse cx="122.6" cy="162.7" rx="15.2" ry="9.3" fill="#c9a469" opacity="0.96" transform="rotate(2.2666070869190684 122.6 162.7)"/><ellipse cx="111.9" cy="176.3" rx="15.2" ry="9.3" fill="#c9a469" opacity="0.96" transform="rotate(74.21655213310555 111.9 176.3)"/><ellipse cx="99.1" cy="173.9" rx="15.2" ry="9.3" fill="#c9a469" opacity="0.96" transform="rotate(126.84317133399135 99.1 173.9)"/><ellipse cx="93.5" cy="159.6" rx="15.2" ry="9.3" fill="#c9a469" opacity="0.96" transform="rotate(190.07643593213558 93.5 159.6)"/><ellipse cx="101.1" cy="149.2" rx="15.2" ry="9.3" fill="#c9a469" opacity="0.96" transform="rotate(242.38621890371806 101.1 149.2)"/><ellipse cx="117.3" cy="150.8" rx="15.2" ry="9.3" fill="#c9a469" opacity="0.96" transform="rotate(309.4583596755141 117.3 150.8)"/><circle cx="107.94611111111112" cy="162.16666666666669" r="8.8" fill="#12150c"/></g><path d="M 867.1951851851852 132.67555555555558 Q 891.7116666666667 91.81475308641977 948.9167901234568 132.67555555555558 Q 891.7116666666667 173.53635802469137 867.1951851851852 132.67555555555558 Z" fill="#c9a469" opacity="0.702778420781893" transform="rotate(141.81018518518516 867.1951851851852 132.67555555555558)"/><path d="M 787.1748148148148 199.21074074074076 Q 825.5139814814814 135.31212962962965 914.972037037037 199.21074074074076 Q 825.5139814814814 263.1093518518519 787.1748148148148 199.21074074074076 Z" fill="#c9a469" opacity="0.7843016975308641" transform="rotate(177.09567901234567 787.1748148148148 199.21074074074076)"/><path d="M 799.3988888888889 192.92370370370372 Q 833.4885185185185 136.10765432098768 913.030987654321 192.92370370370372 Q 833.4885185185185 249.73975308641977 799.3988888888889 192.92370370370372 Z" fill="#c9a469" opacity="0.8139345421810699" transform="rotate(172.28858024691357 799.3988888888889 192.92370370370372)"/><path d="M 795.3340740740741 142.88111111111112 Q 827.1686111111112 89.82354938271607 901.4491975308642 142.88111111111112 Q 827.1686111111112 195.93867283950618 795.3340740740741 142.88111111111112 Z" fill="#c9a469" opacity="0.7976954732510287" transform="rotate(328.5 795.3340740740741 142.88111111111112)"/><path d="M 788.0470370370371 190.14962962962966 Q 822.0875925925926 133.4153703703704 901.5155555555556 190.14962962962966 Q 822.0875925925926 246.88388888888892 788.0470370370371 190.14962962962966 Z" fill="#c9a469" opacity="0.719380787037037" transform="rotate(353.5077160493827 788.0470370370371 190.14962962962966)"/><path d="M 835.4044444444445 194.19592592592596 Q 877.7787962962964 123.57200617283954 976.6522839506174 194.19592592592596 Q 877.7787962962964 264.81984567901236 835.4044444444445 194.19592592592596 Z" fill="#c9a469" opacity="0.8072312242798354" transform="rotate(341.7561728395062 835.4044444444445 194.19592592592596)"/><path d="M 848.072962962963 174.4866666666667 Q 872.1755555555555 134.31567901234573 928.4149382716049 174.4866666666667 Q 872.1755555555555 214.6576543209877 848.072962962963 174.4866666666667 Z" fill="#c9a469" opacity="0.7005986368312757" transform="rotate(94.35648148148148 848.072962962963 174.4866666666667)"/><g><ellipse cx="909.8" cy="131.9" rx="25.9" ry="15.9" fill="#c9a469" opacity="0.96" transform="rotate(11.135688217350992 909.8 131.9)"/><ellipse cx="892.1" cy="151.1" rx="25.9" ry="15.9" fill="#c9a469" opacity="0.96" transform="rotate(73.9415923201559 892.1 151.1)"/><ellipse cx="868.0" cy="145.3" rx="25.9" ry="15.9" fill="#c9a469" opacity="0.96" transform="rotate(133.42808429967846 868.0 145.3)"/><ellipse cx="860.4" cy="124.0" rx="25.9" ry="15.9" fill="#c9a469" opacity="0.96" transform="rotate(187.16363030312584 860.4 124.0)"/><ellipse cx="877.2" cy="103.4" rx="25.9" ry="15.9" fill="#c9a469" opacity="0.96" transform="rotate(251.28477317175958 877.2 103.4)"/><ellipse cx="901.7" cy="108.2" rx="25.9" ry="15.9" fill="#c9a469" opacity="0.96" transform="rotate(311.1581000824083 901.7 108.2)"/><circle cx="885.1916666666666" cy="127.07888888888891" r="15.0" fill="#12150c"/></g><g><ellipse cx="855.6" cy="110.6" rx="25.1" ry="15.4" fill="#f4ede3" opacity="0.96" transform="rotate(3.894690927999934 855.6 110.6)"/><ellipse cx="842.7" cy="130.5" rx="25.1" ry="15.4" fill="#f4ede3" opacity="0.96" transform="rotate(62.29067681596691 842.7 130.5)"/><ellipse cx="816.1" cy="127.9" rx="25.1" ry="15.4" fill="#f4ede3" opacity="0.96" transform="rotate(128.90598395481396 816.1 127.9)"/><ellipse cx="807.1" cy="108.0" rx="25.1" ry="15.4" fill="#f4ede3" opacity="0.96" transform="rotate(182.21048532072078 807.1 108.0)"/><ellipse cx="822.2" cy="86.4" rx="25.1" ry="15.4" fill="#f4ede3" opacity="0.96" transform="rotate(247.8900203404627 822.2 86.4)"/><ellipse cx="845.9" cy="89.4" rx="25.1" ry="15.4" fill="#f4ede3" opacity="0.96" transform="rotate(306.5365278981114 845.9 89.4)"/><circle cx="831.3766666666667" cy="108.96388888888893" r="14.6" fill="#12150c"/></g><g><ellipse cx="862.3" cy="191.1" rx="24.1" ry="14.8" fill="#c9a469" opacity="0.96" transform="rotate(14.260209218189798 862.3 191.1)"/><ellipse cx="846.9" cy="207.5" rx="24.1" ry="14.8" fill="#c9a469" opacity="0.96" transform="rotate(71.82726311088649 846.9 207.5)"/><ellipse cx="827.8" cy="205.5" rx="24.1" ry="14.8" fill="#c9a469" opacity="0.96" transform="rotate(120.50448187208447 827.8 205.5)"/><ellipse cx="816.8" cy="180.8" rx="24.1" ry="14.8" fill="#c9a469" opacity="0.96" transform="rotate(191.28286969828898 816.8 180.8)"/><ellipse cx="830.8" cy="163.7" rx="24.1" ry="14.8" fill="#c9a469" opacity="0.96" transform="rotate(247.77783821043607 830.8 163.7)"/><ellipse cx="854.3" cy="167.1" rx="24.1" ry="14.8" fill="#c9a469" opacity="0.96" transform="rotate(308.7785126346524 854.3 167.1)"/><circle cx="839.6616666666666" cy="185.34888888888892" r="14.0" fill="#12150c"/></g><path d="M 50.82534722222222 580.3892592592592 Q 86.5953587962963 520.7725733024691 170.05871913580245 580.3892592592592 Q 86.5953587962963 640.0059452160493 50.82534722222222 580.3892592592592 Z" fill="#c9a469" opacity="0.7641775977366254" transform="rotate(72.87191358024691 50.82534722222222 580.3892592592592)"/><path d="M 71.89768518518518 575.8046527777777 Q 91.45418402777777 543.2104880401234 137.08601466049384 575.8046527777777 Q 91.45418402777777 608.398817515432 71.89768518518518 575.8046527777777 Z" fill="#c9a469" opacity="0.7000218621399177" transform="rotate(234.08333333333331 71.89768518518518 575.8046527777777)"/><path d="M 78.6519675925926 568.3853240740741 Q 100.24460648148148 532.3975925925927 150.62743055555558 568.3853240740741 Q 100.24460648148148 604.3730555555555 78.6519675925926 568.3853240740741 Z" fill="#c9a469" opacity="0.8487905092592593" transform="rotate(204.09104938271608 78.6519675925926 568.3853240740741)"/><path d="M 47.90486111111112 584.3479398148148 Q 73.58745949074074 541.5436091820987 133.51352237654322 584.3479398148148 Q 73.58745949074074 627.1522704475309 47.90486111111112 584.3479398148148 Z" fill="#c9a469" opacity="0.8387242798353909" transform="rotate(77.3395061728395 47.90486111111112 584.3479398148148)"/><path d="M 47.47303240740741 569.3091666666667 Q 70.25357638888889 531.3415933641975 123.40817901234567 569.3091666666667 Q 70.25357638888889 607.2767399691359 47.47303240740741 569.3091666666667 Z" fill="#c9a469" opacity="0.7591750257201646" transform="rotate(14.939814814814815 47.47303240740741 569.3091666666667)"/><path d="M 56.77314814814815 583.2856712962963 Q 87.26379050925927 532.4679340277778 158.4086226851852 583.2856712962963 Q 87.26379050925927 634.1034085648148 56.77314814814815 583.2856712962963 Z" fill="#c9a469" opacity="0.7272723765432099" transform="rotate(164.66975308641975 56.77314814814815 583.2856712962963)"/><g><ellipse cx="141.7" cy="559.4" rx="19.8" ry="12.1" fill="#c9a469" opacity="0.96" transform="rotate(0.4383515195729324 141.7 559.4)"/><ellipse cx="128.5" cy="577.4" rx="19.8" ry="12.1" fill="#c9a469" opacity="0.96" transform="rotate(72.13409075387654 128.5 577.4)"/><ellipse cx="112.0" cy="575.1" rx="19.8" ry="12.1" fill="#c9a469" opacity="0.96" transform="rotate(123.84335854666317 112.0 575.1)"/><ellipse cx="103.9" cy="555.3" rx="19.8" ry="12.1" fill="#c9a469" opacity="0.96" transform="rotate(191.86232386416793 103.9 555.3)"/><ellipse cx="116.5" cy="541.1" rx="19.8" ry="12.1" fill="#c9a469" opacity="0.96" transform="rotate(251.4777608207325 116.5 541.1)"/><ellipse cx="132.6" cy="542.9" rx="19.8" ry="12.1" fill="#c9a469" opacity="0.96" transform="rotate(301.31916851751015 132.6 542.9)"/><circle cx="122.62236111111112" cy="559.2328125" r="11.5" fill="#12150c"/></g><g><ellipse cx="120.5" cy="590.1" rx="18.6" ry="11.4" fill="#f4ede3" opacity="0.96" transform="rotate(4.769244884195099 120.5 590.1)"/><ellipse cx="111.4" cy="604.3" rx="18.6" ry="11.4" fill="#f4ede3" opacity="0.96" transform="rotate(60.51633252949835 111.4 604.3)"/><ellipse cx="91.7" cy="603.0" rx="18.6" ry="11.4" fill="#f4ede3" opacity="0.96" transform="rotate(126.9142752784745 91.7 603.0)"/><ellipse cx="84.9" cy="584.7" rx="18.6" ry="11.4" fill="#f4ede3" opacity="0.96" transform="rotate(192.51275916979003 84.9 584.7)"/><ellipse cx="94.1" cy="572.7" rx="18.6" ry="11.4" fill="#f4ede3" opacity="0.96" transform="rotate(242.14785490330033 94.1 572.7)"/><ellipse cx="114.8" cy="575.4" rx="18.6" ry="11.4" fill="#f4ede3" opacity="0.96" transform="rotate(312.6462479222136 114.8 575.4)"/><circle cx="102.54142361111111" cy="588.633125" r="10.8" fill="#12150c"/></g><g><ellipse cx="120.7" cy="565.4" rx="14.7" ry="9.0" fill="#c9a469" opacity="0.96" transform="rotate(8.80172273051996 120.7 565.4)"/><ellipse cx="112.3" cy="576.3" rx="14.7" ry="9.0" fill="#c9a469" opacity="0.96" transform="rotate(66.5050898846611 112.3 576.3)"/><ellipse cx="98.9" cy="575.2" rx="14.7" ry="9.0" fill="#c9a469" opacity="0.96" transform="rotate(122.52480405285324 98.9 575.2)"/><ellipse cx="92.5" cy="560.9" rx="14.7" ry="9.0" fill="#c9a469" opacity="0.96" transform="rotate(189.28379273754712 92.5 560.9)"/><ellipse cx="101.0" cy="550.1" rx="14.7" ry="9.0" fill="#c9a469" opacity="0.96" transform="rotate(246.84347834584142 101.0 550.1)"/><ellipse cx="116.3" cy="552.7" rx="14.7" ry="9.0" fill="#c9a469" opacity="0.96" transform="rotate(312.93195314991675 116.3 552.7)"/><circle cx="106.59173611111112" cy="563.1896875" r="8.6" fill="#12150c"/></g><path d="M 801.6864351851852 589.5684027777778 Q 836.8713715277778 530.9268422067902 918.9695563271606 589.5684027777778 Q 836.8713715277778 648.2099633487654 801.6864351851852 589.5684027777778 Z" fill="#c9a469" opacity="0.7898482510288065" transform="rotate(229.66666666666666 801.6864351851852 589.5684027777778)"/><path d="M 821.1157175925925 606.5240740740741 Q 841.0305439814814 573.3326967592593 887.4984722222222 606.5240740740741 Q 841.0305439814814 639.7154513888888 821.1157175925925 606.5240740740741 Z" fill="#c9a469" opacity="0.7157002314814814" transform="rotate(144.67438271604937 821.1157175925925 606.5240740740741)"/><path d="M 861.5436111111111 564.9616898148148 Q 882.8671469907407 529.4224633487654 932.6220640432099 564.9616898148148 Q 882.8671469907407 600.5009162808642 861.5436111111111 564.9616898148148 Z" fill="#c9a469" opacity="0.7577173353909464" transform="rotate(262.92283950617286 861.5436111111111 564.9616898148148)"/><path d="M 850.3867824074074 621.0979166666667 Q 880.7520138888889 570.4891975308642 951.6042206790123 621.0979166666667 Q 880.7520138888889 671.7066358024692 850.3867824074074 621.0979166666667 Z" fill="#c9a469" opacity="0.7052514146090535" transform="rotate(25.52314814814815 850.3867824074074 621.0979166666667)"/><path d="M 837.2618981481481 624.3494212962963 Q 866.8059780092592 575.1092881944445 935.7421643518519 624.3494212962963 Q 866.8059780092592 673.5895543981482 837.2618981481481 624.3494212962963 Z" fill="#c9a469" opacity="0.825432098765432" transform="rotate(300.2530864197531 837.2618981481481 624.3494212962963)"/><path d="M 861.385625 569.7328703703704 Q 885.4998726851852 529.5424575617284 941.7664506172839 569.7328703703704 Q 885.4998726851852 609.9232831790124 861.385625 569.7328703703704 Z" fill="#c9a469" opacity="0.7798334619341564" transform="rotate(301.5570987654321 861.385625 569.7328703703704)"/><g><ellipse cx="870.4" cy="552.5" rx="17.5" ry="10.7" fill="#c9a469" opacity="0.96" transform="rotate(3.9286464386210063 870.4 552.5)"/><ellipse cx="861.2" cy="566.5" rx="17.5" ry="10.7" fill="#c9a469" opacity="0.96" transform="rotate(62.98409378060302 861.2 566.5)"/><ellipse cx="842.0" cy="563.8" rx="17.5" ry="10.7" fill="#c9a469" opacity="0.96" transform="rotate(132.6019768134291 842.0 563.8)"/><ellipse cx="836.6" cy="551.0" rx="17.5" ry="10.7" fill="#c9a469" opacity="0.96" transform="rotate(181.17235545079225 836.6 551.0)"/><ellipse cx="846.8" cy="535.8" rx="17.5" ry="10.7" fill="#c9a469" opacity="0.96" transform="rotate(246.58294808984647 846.8 535.8)"/><ellipse cx="864.5" cy="538.5" rx="17.5" ry="10.7" fill="#c9a469" opacity="0.96" transform="rotate(310.48672656860936 864.5 538.5)"/><circle cx="853.4994097222223" cy="551.3619444444445" r="10.2" fill="#12150c"/></g><g><ellipse cx="853.2" cy="570.1" rx="17.2" ry="10.6" fill="#f4ede3" opacity="0.96" transform="rotate(2.722274074837647 853.2 570.1)"/><ellipse cx="841.6" cy="585.2" rx="17.2" ry="10.6" fill="#f4ede3" opacity="0.96" transform="rotate(72.48752279571177 841.6 585.2)"/><ellipse cx="825.7" cy="581.9" rx="17.2" ry="10.6" fill="#f4ede3" opacity="0.96" transform="rotate(130.93140253229436 825.7 581.9)"/><ellipse cx="820.0" cy="568.0" rx="17.2" ry="10.6" fill="#f4ede3" opacity="0.96" transform="rotate(184.64115954033335 820.0 568.0)"/><ellipse cx="831.5" cy="553.4" rx="17.2" ry="10.6" fill="#f4ede3" opacity="0.96" transform="rotate(252.40591904595513 831.5 553.4)"/><ellipse cx="847.6" cy="556.7" rx="17.2" ry="10.6" fill="#f4ede3" opacity="0.96" transform="rotate(311.1040045944207 847.6 556.7)"/><circle cx="836.5872222222222" cy="569.3060069444444" r="10.0" fill="#12150c"/></g><g><ellipse cx="828.5" cy="613.7" rx="11.7" ry="7.2" fill="#c9a469" opacity="0.96" transform="rotate(11.960444851459917 828.5 613.7)"/><ellipse cx="821.8" cy="621.8" rx="11.7" ry="7.2" fill="#c9a469" opacity="0.96" transform="rotate(67.36859141425265 821.8 621.8)"/><ellipse cx="809.8" cy="619.7" rx="11.7" ry="7.2" fill="#c9a469" opacity="0.96" transform="rotate(132.54339895242998 809.8 619.7)"/><ellipse cx="806.2" cy="611.3" rx="11.7" ry="7.2" fill="#c9a469" opacity="0.96" transform="rotate(180.6495756724418 806.2 611.3)"/><ellipse cx="811.8" cy="601.6" rx="11.7" ry="7.2" fill="#c9a469" opacity="0.96" transform="rotate(240.02554338592827 811.8 601.6)"/><ellipse cx="825.0" cy="602.9" rx="11.7" ry="7.2" fill="#c9a469" opacity="0.96" transform="rotate(311.4228671019347 825.0 602.9)"/><circle cx="817.4812847222222" cy="611.3813194444444" r="6.8" fill="#12150c"/></g><g><ellipse cx="835.5" cy="600.1" rx="13.5" ry="8.3" fill="#f4ede3" opacity="0.96" transform="rotate(6.576255231514307 835.5 600.1)"/><ellipse cx="827.9" cy="610.5" rx="13.5" ry="8.3" fill="#f4ede3" opacity="0.96" transform="rotate(65.53223073406387 827.9 610.5)"/><ellipse cx="814.7" cy="609.1" rx="13.5" ry="8.3" fill="#f4ede3" opacity="0.96" transform="rotate(126.69500741513303 814.7 609.1)"/><ellipse cx="809.5" cy="597.0" rx="13.5" ry="8.3" fill="#f4ede3" opacity="0.96" transform="rotate(187.1025349449559 809.5 597.0)"/><ellipse cx="816.3" cy="587.1" rx="13.5" ry="8.3" fill="#f4ede3" opacity="0.96" transform="rotate(241.67069708587474 816.3 587.1)"/><ellipse cx="829.2" cy="587.4" rx="13.5" ry="8.3" fill="#f4ede3" opacity="0.96" transform="rotate(300.7003554324484 829.2 587.4)"/><circle cx="822.5065972222222" cy="598.6128819444444" r="7.9" fill="#12150c"/></g>
  <rect width="900" height="1200" fill="url(#v16)"/>
  <rect width="900" height="1200" filter="url(#n16)" opacity="0.5"/>
</svg>