<svg width="900" height="1200" viewBox="0 0 900 1200" xmlns="http://www.w3.org/2000/svg" role="img">
  <defs>
    <linearGradient id="g16" x1="0.2" y1="0" x2="0.8" y2="1">
      <stop offset="0%" stop-color="#f6e9dd"/>
      <stop offset="100%" stop-color="#e9cdb6"/>
    </linearGradient>
    <radialGradient id="glow16" cx="50%" cy="30%" r="65%">
      <stop offset="0%" stop-color="#fff6e8" stop-opacity="0.55"/>
      <stop offset="100%" stop-color="#fff6e8" stop-opacity="0"/>
    </radialGradient>
    <filter id="n16"><feTurbulence type="fractalNoise" baseFrequency="0.85" numOctaves="2" stitchTiles="stitch" result="noise"/><feColorMatrix in="noise" type="matrix" values="0 0 0 0 0  0 0 0 0 0  0 0 0 0 0  0 0 0 0.035 0"/></filter>
  </defs>
  <rect width="900" height="1200" fill="url(#g16)"/>
  <rect width="900" height="1200" fill="url(#glow16)"/>
  <path d="M 225 1128 L 225 393 A 225 225 0 0 1 675 393 L 675 1128" fill="none" stroke="#ad8253" stroke-width="5.4"/><g fill="none" stroke="#5b4f3d" stroke-width="3.014324845679013"><ellipse cx="262.4" cy="393.6" rx="30.1" ry="18.1" transform="rotate(0.9622979429537748 262.4 393.6)"/><ellipse cx="234.6" cy="429.1" rx="30.1" ry="18.1" transform="rotate(75.1539695775004 234.6 429.1)"/><ellipse cx="194.0" cy="413.9" rx="30.1" ry="18.1" transform="rotate(146.05349174105356 194.0 413.9)"/><ellipse cx="199.5" cy="365.7" rx="30.1" ry="18.1" transform="rotate(226.99451188820098 199.5 365.7)"/><ellipse cx="237.1" cy="357.6" rx="30.1" ry="18.1" transform="rotate(288.86935931569144 237.1 357.6)"/><circle cx="225" cy="393" r="8.4" fill="#5b4f3d" stroke="none"/></g><g stroke="#c99a5f" stroke-width="2.8350000000000004" fill="none" transform="rotate(20.410236625514408 225 393)"><path d="M 225 393 Q 256.5 386.7 288 393" /><path d="M 240.75 391 q 7.5600000000000005 -10.080000000000002 3.1500000000000004 -17.640000000000004" /><path d="M 256.5 395 q 7.5600000000000005 10.080000000000002 3.1500000000000004 17.640000000000004" /><path d="M 272.25 391 q 7.5600000000000005 -10.080000000000002 3.1500000000000004 -17.640000000000004" /></g><g fill="none" stroke="#5b4f3d" stroke-width="2.8243518518518522"><ellipse cx="302.5" cy="531.0" rx="28.2" ry="16.9" transform="rotate(9.380759360282767 302.5 531.0)"/><ellipse cx="277.1" cy="559.1" rx="28.2" ry="16.9" transform="rotate(74.85132957614573 277.1 559.1)"/><ellipse cx="237.6" cy="542.7" rx="28.2" ry="16.9" transform="rotate(150.1511911848137 237.6 542.7)"/><ellipse cx="243.9" cy="499.8" rx="28.2" ry="16.9" transform="rotate(226.54450619879822 243.9 499.8)"/><ellipse cx="284.1" cy="494.2" rx="28.2" ry="16.9" transform="rotate(297.41750253850273 284.1 494.2)"/><circle cx="267.9711762656368" cy="525.2516817658064" r="7.9" fill="#5b4f3d" stroke="none"/></g><g stroke="#c99a5f" stroke-width="2.8350000000000004" fill="none" transform="rotate(-25.680555555555557 267.9711762656368 525.2516817658064)"><path d="M 267.9711762656368 525.2516817658064 Q 299.4711762656368 518.9516817658065 330.9711762656368 525.2516817658064" /><path d="M 283.7211762656368 523.2516817658064 q 7.5600000000000005 -10.080000000000002 3.1500000000000004 -17.640000000000004" /><path d="M 299.4711762656368 527.2516817658064 q 7.5600000000000005 10.080000000000002 3.1500000000000004 17.640000000000004" /><path d="M 315.2211762656368 523.2516817658064 q 7.5600000000000005 -10.080000000000002 3.1500000000000004 -17.640000000000004" /></g><g fill="none" stroke="#5b4f3d" stroke-width="2.9674807098765434"><ellipse cx="416.6" cy="614.1" rx="29.7" ry="17.8" transform="rotate(11.182501384254255 416.6 614.1)"/><ellipse cx="387.1" cy="643.2" rx="29.7" ry="17.8" transform="rotate(79.56796490970767 387.1 643.2)"/><ellipse cx="347.4" cy="623.2" rx="29.7" ry="17.8" transform="rotate(153.92763342862906 347.4 623.2)"/><ellipse cx="351.3" cy="584.6" rx="29.7" ry="17.8" transform="rotate(217.46181850354068 351.3 584.6)"/><ellipse cx="396.7" cy="574.0" rx="29.7" ry="17.8" transform="rotate(296.2365630363817 396.7 574.0)"/><circle cx="380.4711762656368" cy="606.9877161664095" r="8.3" fill="#5b4f3d" stroke="none"/></g><g stroke="#c99a5f" stroke-width="2.8350000000000004" fill="none" transform="rotate(2.657664609053498 380.4711762656368 606.9877161664095)"><path d="M 380.4711762656368 606.9877161664095 Q 411.9711762656368 600.6877161664096 443.4711762656368 606.9877161664095" /><path d="M 396.2211762656368 604.9877161664095 q 7.5600000000000005 -10.080000000000002 3.1500000000000004 -17.640000000000004" /><path d="M 411.9711762656368 608.9877161664095 q 7.5600000000000005 10.080000000000002 3.1500000000000004 17.640000000000004" /><path d="M 427.7211762656368 604.9877161664095 q 7.5600000000000005 -10.080000000000002 3.1500000000000004 -17.640000000000004" /></g><g fill="none" stroke="#5b4f3d" stroke-width="2.8742669753086423"><ellipse cx="554.9" cy="611.7" rx="28.7" ry="17.2" transform="rotate(7.605395794471878 554.9 611.7)"/><ellipse cx="528.9" cy="641.4" rx="28.7" ry="17.2" transform="rotate(74.83845963938953 528.9 641.4)"/><ellipse cx="490.3" cy="627.4" rx="28.7" ry="17.2" transform="rotate(145.03946844159495 490.3 627.4)"/><ellipse cx="495.0" cy="581.2" rx="28.7" ry="17.2" transform="rotate(226.4491114767351 495.0 581.2)"/><ellipse cx="533.2" cy="574.1" rx="28.7" ry="17.2" transform="rotate(292.5061971310293 533.2 574.1)"/><circle cx="519.5288237343632" cy="606.9877161664095" r="8.0" fill="#5b4f3d" stroke="none"/></g><g stroke="#c99a5f" stroke-width="2.8350000000000004" fill="none" transform="rotate(14.128600823045268 519.5288237343632 606.9877161664095)"><path d="M 519.5288237343632 606.9877161664095 Q 551.0288237343632 600.6877161664096 582.5288237343632 606.9877161664095" /><path d="M 535.2788237343632 604.9877161664095 q 7.5600000000000005 -10.080000000000002 3.1500000000000004 -17.640000000000004" /><path d="M 551.0288237343632 608.9877161664095 q 7.5600000000000005 10.080000000000002 3.1500000000000004 17.640000000000004" /><path d="M 566.7788237343632 604.9877161664095 q 7.5600000000000005 -10.080000000000002 3.1500000000000004 -17.640000000000004" /></g><g fill="none" stroke="#5b4f3d" stroke-width="3.0419328703703705"><ellipse cx="669.6" cy="528.2" rx="30.4" ry="18.3" transform="rotate(4.55585936790152 669.6 528.2)"/><ellipse cx="643.4" cy="561.2" rx="30.4" ry="18.3" transform="rotate(72.51101508425462 643.4 561.2)"/><ellipse cx="597.8" cy="541.0" rx="30.4" ry="18.3" transform="rotate(155.2823170769588 597.8 541.0)"/><ellipse cx="604.8" cy="499.2" rx="30.4" ry="18.3" transform="rotate(223.76209464276297 604.8 499.2)"/><ellipse cx="646.8" cy="490.5" rx="30.4" ry="18.3" transform="rotate(292.9816479625684 646.8 490.5)"/><circle cx="632.0288237343632" cy="525.2516817658066" r="8.5" fill="#5b4f3d" stroke="none"/></g><g stroke="#c99a5f" stroke-width="2.8350000000000004" fill="none" transform="rotate(8.54706790123457 632.0288237343632 525.2516817658066)"><path d="M 632.0288237343632 525.2516817658066 Q 663.5288237343632 518.9516817658066 695.0288237343632 525.2516817658066" /><path d="M 647.7788237343632 523.2516817658066 q 7.5600000000000005 -10.080000000000002 3.1500000000000004 -17.640000000000004" /><path d="M 663.5288237343632 527.2516817658066 q 7.5600000000000005 10.080000000000002 3.1500000000000004 17.640000000000004" /><path d="M 679.2788237343632 523.2516817658066 q 7.5600000000000005 -10.080000000000002 3.1500000000000004 -17.640000000000004" /></g><g fill="none" stroke="#5b4f3d" stroke-width="2.8343672839506175"><ellipse cx="710.1" cy="395.3" rx="28.3" ry="17.0" transform="rotate(3.6961770657252053 710.1 395.3)"/><ellipse cx="684.0" cy="427.0" rx="28.3" ry="17.0" transform="rotate(75.09674256864174 684.0 427.0)"/><ellipse cx="643.9" cy="409.3" rx="28.3" ry="17.0" transform="rotate(152.3654097696317 643.9 409.3)"/><ellipse cx="647.1" cy="371.6" rx="28.3" ry="17.0" transform="rotate(217.42925068648205 647.1 371.6)"/><ellipse cx="687.7" cy="360.2" rx="28.3" ry="17.0" transform="rotate(291.2613500421914 687.7 360.2)"/><circle cx="675" cy="393.00000000000006" r="7.9" fill="#5b4f3d" stroke="none"/></g><g stroke="#c99a5f" stroke-width="2.8350000000000004" fill="none" transform="rotate(-9.82767489711934 675 393.00000000000006)"><path d="M 675 393.00000000000006 Q 706.5 386.70000000000005 738 393.00000000000006" /><path d="M 690.75 391.00000000000006 q 7.5600000000000005 -10.080000000000002 3.1500000000000004 -17.640000000000004" /><path d="M 706.5 395.00000000000006 q 7.5600000000000005 10.080000000000002 3.1500000000000004 17.640000000000004" /><path d="M 722.25 391.00000000000006 q 7.5600000000000005 -10.080000000000002 3.1500000000000004 -17.640000000000004" /></g><g fill="none" stroke="#5b4f3d" stroke-width="2.025"><ellipse cx="475.1" cy="1125.3" rx="20.3" ry="12.2" transform="rotate(2.9555171175956994 475.1 1125.3)"/><ellipse cx="457.3" cy="1148.0" rx="20.3" ry="12.2" transform="rotate(73.1712624886059 457.3 1148.0)"/><ellipse cx="427.4" cy="1135.0" rx="20.3" ry="12.2" transform="rotate(154.13586114584098 427.4 1135.0)"/><ellipse cx="430.1" cy="1108.7" rx="20.3" ry="12.2" transform="rotate(217.5904687492066 430.1 1108.7)"/><ellipse cx="458.4" cy="1100.3" rx="20.3" ry="12.2" transform="rotate(289.6011282006421 458.4 1100.3)"/><circle cx="450" cy="1124" r="5.7" fill="#5b4f3d" stroke="none"/></g>
    <rect x="174.6" y="1079.625925925926" width="10.8" height="66.37407407407407" rx="5.4" fill="none" stroke="#5b4f3d" stroke-width="1.296"/>
    <circle cx="180" cy="1062.345925925926" r="28.080000000000002" fill="#c99a5f" opacity="0.28"/>
    <path d="M 180 1077.625925925926 q 5.4 -15.12 0 -25.92 q -5.4 10.8 0 25.92" fill="#c99a5f"/>
  
    <rect x="354.6" y="1096.0313657407407" width="10.8" height="49.96863425925926" rx="5.4" fill="none" stroke="#5b4f3d" stroke-width="1.296"/>
    <circle cx="360" cy="1078.7513657407408" r="28.080000000000002" fill="#c99a5f" opacity="0.28"/>
    <path d="M 360 1094.0313657407407 q 5.4 -15.12 0 -25.92 q -5.4 10.8 0 25.92" fill="#c99a5f"/>
  
    <rect x="534.6000000000001" y="1079.0270833333334" width="10.8" height="66.97291666666668" rx="5.4" fill="none" stroke="#5b4f3d" stroke-width="1.296"/>
    <circle cx="540.0000000000001" cy="1061.7470833333334" r="28.080000000000002" fill="#c99a5f" opacity="0.28"/>
    <path d="M 540.0000000000001 1077.0270833333334 q 5.4 -15.12 0 -25.92 q -5.4 10.8 0 25.92" fill="#c99a5f"/>
  
    <rect x="714.6" y="1088.1964120370371" width="10.8" height="57.803587962962965" rx="5.4" fill="none" stroke="#5b4f3d" stroke-width="1.296"/>
    <circle cx="720" cy="1070.9164120370372" r="28.080000000000002" fill="#c99a5f" opacity="0.28"/>
    <path d="M 720 1086.1964120370371 q 5.4 -15.12 0 -25.92 q -5.4 10.8 0 25.92" fill="#c99a5f"/>
  
  <rect width="900" height="1200" filter="url(#n16)" opacity="0.4"/>
</svg>