<svg width="1400" height="800" viewBox="0 0 1400 800" xmlns="http://www.w3.org/2000/svg" role="img">
  <defs>
    <linearGradient id="g10" x1="0.1" y1="0" x2="0.9" y2="1">
      <stop offset="0%" stop-color="#7a5a28"/>
      <stop offset="100%" stop-color="#40300f"/>
    </linearGradient>
    <radialGradient id="v10" cx="50%" cy="42%" r="72%">
      <stop offset="0%" stop-color="#000000" stop-opacity="0"/>
      <stop offset="100%" stop-color="#000000" stop-opacity="0.3"/>
    </radialGradient>
    <filter id="n10"><feTurbulence type="fractalNoise" baseFrequency="0.8" numOctaves="2" stitchTiles="stitch" result="noise"/><feColorMatrix in="noise" type="matrix" values="0 0 0 0 0  0 0 0 0 0  0 0 0 0 0  0 0 0 0.06 0"/></filter>
  </defs>
  <rect width="1400" height="800" fill="url(#g10)"/>
  <circle cx="700" cy="336" r="112.00000000000001" fill="none" stroke="#f4ede3" stroke-width="3.2" opacity="0.5"/><circle cx="700" cy="336" r="216" fill="none" stroke="#f4ede3" stroke-width="3.2" opacity="0.38"/><circle cx="700" cy="336" r="320" fill="none" stroke="#f4ede3" stroke-width="3.2" opacity="0.26"/><g><ellipse cx="1004.8" cy="336.6" rx="33.9" ry="20.8" fill="#5f6b41" opacity="0.96" transform="rotate(0.9814554824000213 1004.8 336.6)"/><ellipse cx="984.7" cy="366.2" rx="33.9" ry="20.8" fill="#5f6b41" opacity="0.96" transform="rotate(67.1915069791149 984.7 366.2)"/><ellipse cx="949.8" cy="360.1" rx="33.9" ry="20.8" fill="#5f6b41" opacity="0.96" transform="rotate(132.73472873741238 949.8 360.1)"/><ellipse cx="939.3" cy="333.7" rx="33.9" ry="20.8" fill="#5f6b41" opacity="0.96" transform="rotate(184.0387408880669 939.3 333.7)"/><ellipse cx="960.8" cy="305.2" rx="33.9" ry="20.8" fill="#5f6b41" opacity="0.96" transform="rotate(249.97248171969167 960.8 305.2)"/><ellipse cx="992.9" cy="310.7" rx="33.9" ry="20.8" fill="#5f6b41" opacity="0.96" transform="rotate(309.5363406854395 992.9 310.7)"/><circle cx="972" cy="336" r="19.7" fill="#241a0a"/></g><g><ellipse cx="949.8" cy="479.5" rx="31.7" ry="19.4" fill="#f4ede3" opacity="0.96" transform="rotate(14.311848611376636 949.8 479.5)"/><ellipse cx="933.0" cy="499.7" rx="31.7" ry="19.4" fill="#f4ede3" opacity="0.96" transform="rotate(65.11113328046658 933.0 499.7)"/><ellipse cx="904.5" cy="498.3" rx="31.7" ry="19.4" fill="#f4ede3" opacity="0.96" transform="rotate(120.5045432744545 904.5 498.3)"/><ellipse cx="890.0" cy="465.6" rx="31.7" ry="19.4" fill="#f4ede3" opacity="0.96" transform="rotate(191.85397314184522 890.0 465.6)"/><ellipse cx="907.3" cy="444.0" rx="31.7" ry="19.4" fill="#f4ede3" opacity="0.96" transform="rotate(245.4274168884397 907.3 444.0)"/><ellipse cx="938.0" cy="447.0" rx="31.7" ry="19.4" fill="#f4ede3" opacity="0.96" transform="rotate(305.8496809870674 938.0 447.0)"/><circle cx="920.0526224699856" cy="471.8959503300198" r="18.4" fill="#241a0a"/></g><g><ellipse cx="816.6" cy="557.1" rx="33.7" ry="20.7" fill="#5f6b41" opacity="0.96" transform="rotate(2.1295569970343804 816.6 557.1)"/><ellipse cx="800.3" cy="584.1" rx="33.7" ry="20.7" fill="#5f6b41" opacity="0.96" transform="rotate(60.02081540343678 800.3 584.1)"/><ellipse cx="762.9" cy="580.7" rx="33.7" ry="20.7" fill="#5f6b41" opacity="0.96" transform="rotate(130.41973658291755 762.9 580.7)"/><ellipse cx="751.4" cy="555.2" rx="33.7" ry="20.7" fill="#5f6b41" opacity="0.96" transform="rotate(181.18586397219667 751.4 555.2)"/><ellipse cx="769.4" cy="526.7" rx="33.7" ry="20.7" fill="#5f6b41" opacity="0.96" transform="rotate(243.31020176777932 769.4 526.7)"/><ellipse cx="804.6" cy="530.6" rx="33.7" ry="20.7" fill="#5f6b41" opacity="0.96" transform="rotate(309.0560513471429 804.6 530.6)"/><circle cx="784.0526224699857" cy="555.8842665674395" r="19.6" fill="#241a0a"/></g><g><ellipse cx="648.3" cy="560.1" rx="33.7" ry="20.7" fill="#f4ede3" opacity="0.96" transform="rotate(7.362205567770579 648.3 560.1)"/><ellipse cx="626.9" cy="586.6" rx="33.7" ry="20.7" fill="#f4ede3" opacity="0.96" transform="rotate(70.4444203356656 626.9 586.6)"/><ellipse cx="598.9" cy="583.7" rx="33.7" ry="20.7" fill="#f4ede3" opacity="0.96" transform="rotate(121.58633022946724 598.9 583.7)"/><ellipse cx="583.4" cy="553.7" rx="33.7" ry="20.7" fill="#f4ede3" opacity="0.96" transform="rotate(183.82119229108596 583.4 553.7)"/><ellipse cx="602.8" cy="526.0" rx="33.7" ry="20.7" fill="#f4ede3" opacity="0.96" transform="rotate(246.2292090361611 602.8 526.0)"/><ellipse cx="632.5" cy="527.8" rx="33.7" ry="20.7" fill="#f4ede3" opacity="0.96" transform="rotate(300.5431653651971 632.5 527.8)"/><circle cx="615.9473775300144" cy="555.8842665674395" r="19.6" fill="#241a0a"/></g><g><ellipse cx="517.0" cy="473.4" rx="38.3" ry="23.5" fill="#5f6b41" opacity="0.96" transform="rotate(2.3787278145756274 517.0 473.4)"/><ellipse cx="491.8" cy="507.0" rx="38.3" ry="23.5" fill="#5f6b41" opacity="0.96" transform="rotate(71.4034639530083 491.8 507.0)"/><ellipse cx="455.1" cy="499.4" rx="38.3" ry="23.5" fill="#5f6b41" opacity="0.96" transform="rotate(132.1573008497441 455.1 499.4)"/><ellipse cx="443.0" cy="468.8" rx="38.3" ry="23.5" fill="#5f6b41" opacity="0.96" transform="rotate(184.86128703685512 443.0 468.8)"/><ellipse cx="468.2" cy="436.8" rx="38.3" ry="23.5" fill="#5f6b41" opacity="0.96" transform="rotate(251.48764660230574 468.2 436.8)"/><ellipse cx="502.4" cy="442.4" rx="38.3" ry="23.5" fill="#5f6b41" opacity="0.96" transform="rotate(307.32315366043787 502.4 442.4)"/><circle cx="479.94737753001436" cy="471.8959503300198" r="22.2" fill="#241a0a"/></g><g><ellipse cx="457.1" cy="339.5" rx="30.3" ry="18.6" fill="#f4ede3" opacity="0.96" transform="rotate(6.764023679035532 457.1 339.5)"/><ellipse cx="440.7" cy="362.5" rx="30.3" ry="18.6" fill="#f4ede3" opacity="0.96" transform="rotate(64.44528597996946 440.7 362.5)"/><ellipse cx="409.2" cy="358.6" rx="30.3" ry="18.6" fill="#f4ede3" opacity="0.96" transform="rotate(129.72693364198165 409.2 358.6)"/><ellipse cx="398.7" cy="334.4" rx="30.3" ry="18.6" fill="#f4ede3" opacity="0.96" transform="rotate(183.2009055491437 398.7 334.4)"/><ellipse cx="417.7" cy="308.5" rx="30.3" ry="18.6" fill="#f4ede3" opacity="0.96" transform="rotate(249.49200817428502 417.7 308.5)"/><ellipse cx="446.8" cy="313.4" rx="30.3" ry="18.6" fill="#f4ede3" opacity="0.96" transform="rotate(309.7226968784503 446.8 313.4)"/><circle cx="428" cy="336" r="17.6" fill="#241a0a"/></g><g><ellipse cx="509.8" cy="207.6" rx="31.8" ry="19.5" fill="#5f6b41" opacity="0.96" transform="rotate(14.107685731060066 509.8 207.6)"/><ellipse cx="489.8" cy="229.3" rx="31.8" ry="19.5" fill="#5f6b41" opacity="0.96" transform="rotate(71.27685226602702 489.8 229.3)"/><ellipse cx="460.5" cy="224.0" rx="31.8" ry="19.5" fill="#5f6b41" opacity="0.96" transform="rotate(129.10548025500898 460.5 224.0)"/><ellipse cx="449.6" cy="194.8" rx="31.8" ry="19.5" fill="#5f6b41" opacity="0.96" transform="rotate(189.93668413797002 449.6 194.8)"/><ellipse cx="467.4" cy="172.0" rx="31.8" ry="19.5" fill="#5f6b41" opacity="0.96" transform="rotate(246.0337652923874 467.4 172.0)"/><ellipse cx="496.2" cy="173.9" rx="31.8" ry="19.5" fill="#5f6b41" opacity="0.96" transform="rotate(301.8619040661171 496.2 173.9)"/><circle cx="479.9473775300143" cy="200.10404966998024" r="18.5" fill="#241a0a"/></g><g><ellipse cx="642.1" cy="122.8" rx="27.9" ry="17.1" fill="#f4ede3" opacity="0.96" transform="rotate(14.285691201748106 642.1 122.8)"/><ellipse cx="627.2" cy="140.6" rx="27.9" ry="17.1" fill="#f4ede3" opacity="0.96" transform="rotate(65.32812925611734 627.2 140.6)"/><ellipse cx="597.4" cy="135.7" rx="27.9" ry="17.1" fill="#f4ede3" opacity="0.96" transform="rotate(133.43182984424968 597.4 135.7)"/><ellipse cx="589.7" cy="109.9" rx="27.9" ry="17.1" fill="#f4ede3" opacity="0.96" transform="rotate(193.35305060351402 589.7 109.9)"/><ellipse cx="607.2" cy="90.6" rx="27.9" ry="17.1" fill="#f4ede3" opacity="0.96" transform="rotate(251.14852131268512 607.2 90.6)"/><ellipse cx="631.2" cy="93.9" rx="27.9" ry="17.1" fill="#f4ede3" opacity="0.96" transform="rotate(304.3867081189704 631.2 93.9)"/><circle cx="615.9473775300143" cy="116.11573343256055" r="16.2" fill="#241a0a"/></g><g><ellipse cx="816.7" cy="122.4" rx="34.4" ry="21.1" fill="#5f6b41" opacity="0.96" transform="rotate(10.967445723496134 816.7 122.4)"/><ellipse cx="795.2" cy="147.4" rx="34.4" ry="21.1" fill="#5f6b41" opacity="0.96" transform="rotate(70.42814870761028 795.2 147.4)"/><ellipse cx="763.7" cy="142.4" rx="34.4" ry="21.1" fill="#5f6b41" opacity="0.96" transform="rotate(127.80731134804569 763.7 142.4)"/><ellipse cx="751.4" cy="109.9" rx="34.4" ry="21.1" fill="#5f6b41" opacity="0.96" transform="rotate(190.7532128544963 751.4 109.9)"/><ellipse cx="772.1" cy="85.1" rx="34.4" ry="21.1" fill="#5f6b41" opacity="0.96" transform="rotate(248.87657221957437 772.1 85.1)"/><ellipse cx="801.1" cy="87.6" rx="34.4" ry="21.1" fill="#5f6b41" opacity="0.96" transform="rotate(300.80688854443315 801.1 87.6)"/><circle cx="784.0526224699856" cy="116.11573343256049" r="20.0" fill="#241a0a"/></g><g><ellipse cx="946.1" cy="202.7" rx="27.0" ry="16.6" fill="#f4ede3" opacity="0.96" transform="rotate(5.700289020808682 946.1 202.7)"/><ellipse cx="929.6" cy="224.4" rx="27.0" ry="16.6" fill="#f4ede3" opacity="0.96" transform="rotate(68.49514069700999 929.6 224.4)"/><ellipse cx="904.9" cy="221.4" rx="27.0" ry="16.6" fill="#f4ede3" opacity="0.96" transform="rotate(125.45062698430726 904.9 221.4)"/><ellipse cx="894.1" cy="197.0" rx="27.0" ry="16.6" fill="#f4ede3" opacity="0.96" transform="rotate(186.86760947725932 894.1 197.0)"/><ellipse cx="910.3" cy="175.8" rx="27.0" ry="16.6" fill="#f4ede3" opacity="0.96" transform="rotate(248.1924884151813 910.3 175.8)"/><ellipse cx="937.7" cy="180.8" rx="27.0" ry="16.6" fill="#f4ede3" opacity="0.96" transform="rotate(312.2988947150103 937.7 180.8)"/><circle cx="920.0526224699856" cy="200.10404966998016" r="15.7" fill="#241a0a"/></g><g><ellipse cx="752.7" cy="339.7" rx="54.6" ry="33.4" fill="#f4ede3" opacity="0.96" transform="rotate(4.022899076601739 752.7 339.7)"/><ellipse cx="733.3" cy="377.0" rx="54.6" ry="33.4" fill="#f4ede3" opacity="0.96" transform="rotate(50.86724206489313 733.3 377.0)"/><ellipse cx="700.0" cy="388.8" rx="54.6" ry="33.4" fill="#f4ede3" opacity="0.96" transform="rotate(90.01541199487501 700.0 388.8)"/><ellipse cx="660.7" cy="371.2" rx="54.6" ry="33.4" fill="#f4ede3" opacity="0.96" transform="rotate(138.13446818478204 660.7 371.2)"/><ellipse cx="647.7" cy="329.1" rx="54.6" ry="33.4" fill="#f4ede3" opacity="0.96" transform="rotate(187.4877120120915 647.7 329.1)"/><ellipse cx="664.8" cy="296.6" rx="54.6" ry="33.4" fill="#f4ede3" opacity="0.96" transform="rotate(228.21637894638874 664.8 296.6)"/><ellipse cx="709.3" cy="284.0" rx="54.6" ry="33.4" fill="#f4ede3" opacity="0.96" transform="rotate(280.1706271677463 709.3 284.0)"/><ellipse cx="740.3" cy="301.8" rx="54.6" ry="33.4" fill="#f4ede3" opacity="0.96" transform="rotate(319.698263744452 740.3 301.8)"/><circle cx="700" cy="336" r="31.7" fill="#241a0a"/></g><path d="M 203.01629629629633 646.43 Q 232.00472222222226 598.1159567901234 299.64438271604945 646.43 Q 232.00472222222226 694.7440432098765 203.01629629629633 646.43 Z" fill="#f4ede3" opacity="0.8022363683127571" transform="rotate(61.620370370370374 203.01629629629633 646.43)"/><path d="M 158.26259259259263 667.4318518518519 Q 196.49037037037039 603.718888888889 285.68851851851855 667.4318518518519 Q 196.49037037037039 731.1448148148148 158.26259259259263 667.4318518518519 Z" fill="#5f6b41" opacity="0.7810976080246913" transform="rotate(197.18364197530866 158.26259259259263 667.4318518518519)"/><path d="M 156.95333333333338 672.4114814814815 Q 183.74824074074078 627.7533024691357 246.26969135802474 672.4114814814815 Q 183.74824074074078 717.0696604938272 156.95333333333338 672.4114814814815 Z" fill="#f4ede3" opacity="0.7900128600823044" transform="rotate(289.320987654321 156.95333333333338 672.4114814814815)"/><path d="M 157.7551851851852 700.0355555555556 Q 182.1116666666667 659.4414197530864 238.9434567901235 700.0355555555556 Q 182.1116666666667 740.6296913580247 157.7551851851852 700.0355555555556 Z" fill="#5f6b41" opacity="0.7516673096707819" transform="rotate(219.14351851851853 157.7551851851852 700.0355555555556)"/><path d="M 212.13481481481483 699.3707407407408 Q 247.9139814814815 639.7387962962963 331.39870370370375 699.3707407407408 Q 247.9139814814815 759.0026851851852 212.13481481481483 699.3707407407408 Z" fill="#f4ede3" opacity="0.8165239197530864" transform="rotate(334.42901234567904 212.13481481481483 699.3707407407408)"/><path d="M 214.75888888888892 654.6837037037037 Q 251.08851851851855 594.1343209876543 335.8576543209877 654.6837037037037 Q 251.08851851851855 715.2330864197531 214.75888888888892 654.6837037037037 Z" fill="#5f6b41" opacity="0.7294900977366254" transform="rotate(169.6219135802469 214.75888888888892 654.6837037037037)"/><path d="M 229.8940740740741 681.4411111111111 Q 254.36861111111114 640.6502160493827 311.4758641975309 681.4411111111111 Q 254.36861111111114 722.2320061728395 229.8940740740741 681.4411111111111 Z" fill="#f4ede3" opacity="0.7965843621399177" transform="rotate(285.83333333333337 229.8940740740741 681.4411111111111)"/><g><ellipse cx="150.5" cy="670.4" rx="16.7" ry="10.2" fill="#5f6b41" opacity="0.96" transform="rotate(0.1530761084599132 150.5 670.4)"/><ellipse cx="140.2" cy="685.4" rx="16.7" ry="10.2" fill="#5f6b41" opacity="0.96" transform="rotate(68.71729447174242 140.2 685.4)"/><ellipse cx="124.1" cy="682.9" rx="16.7" ry="10.2" fill="#5f6b41" opacity="0.96" transform="rotate(129.05482329974248 124.1 682.9)"/><ellipse cx="118.5" cy="667.1" rx="16.7" ry="10.2" fill="#5f6b41" opacity="0.96" transform="rotate(191.46652418701888 118.5 667.1)"/><ellipse cx="129.2" cy="655.0" rx="16.7" ry="10.2" fill="#5f6b41" opacity="0.96" transform="rotate(251.39879737288672 129.2 655.0)"/><ellipse cx="145.1" cy="658.2" rx="16.7" ry="10.2" fill="#5f6b41" opacity="0.96" transform="rotate(311.72527377428327 145.1 658.2)"/><circle cx="134.32333333333338" cy="670.3105555555555" r="9.7" fill="#241a0a"/></g><g><ellipse cx="252.0" cy="669.3" rx="16.4" ry="10.1" fill="#f4ede3" opacity="0.96" transform="rotate(6.539720821352394 252.0 669.3)"/><ellipse cx="241.8" cy="682.4" rx="16.4" ry="10.1" fill="#f4ede3" opacity="0.96" transform="rotate(69.50035889660776 241.8 682.4)"/><ellipse cx="227.9" cy="681.0" rx="16.4" ry="10.1" fill="#f4ede3" opacity="0.96" transform="rotate(121.44909593247247 227.9 681.0)"/><ellipse cx="220.3" cy="666.9" rx="16.4" ry="10.1" fill="#f4ede3" opacity="0.96" transform="rotate(182.2360901090191 220.3 666.9)"/><ellipse cx="228.9" cy="653.4" rx="16.4" ry="10.1" fill="#f4ede3" opacity="0.96" transform="rotate(242.53309337280598 228.9 653.4)"/><ellipse cx="244.2" cy="653.8" rx="16.4" ry="10.1" fill="#f4ede3" opacity="0.96" transform="rotate(300.4390883480132 244.2 653.8)"/><circle cx="236.20833333333337" cy="667.4955555555556" r="9.5" fill="#241a0a"/></g><g><ellipse cx="191.7" cy="663.7" rx="19.0" ry="11.6" fill="#5f6b41" opacity="0.96" transform="rotate(5.46597757681228 191.7 663.7)"/><ellipse cx="180.7" cy="678.8" rx="19.0" ry="11.6" fill="#5f6b41" opacity="0.96" transform="rotate(66.40402158360816 180.7 678.8)"/><ellipse cx="162.1" cy="676.5" rx="19.0" ry="11.6" fill="#5f6b41" opacity="0.96" transform="rotate(127.86889792517577 162.1 676.5)"/><ellipse cx="155.4" cy="658.6" rx="19.0" ry="11.6" fill="#5f6b41" opacity="0.96" transform="rotate(190.61217161056027 155.4 658.6)"/><ellipse cx="164.4" cy="646.0" rx="19.0" ry="11.6" fill="#5f6b41" opacity="0.96" transform="rotate(240.53094629356306 164.4 646.0)"/><ellipse cx="186.1" cy="648.8" rx="19.0" ry="11.6" fill="#5f6b41" opacity="0.96" transform="rotate(313.92139094041937 186.1 648.8)"/><circle cx="173.39333333333337" cy="661.9805555555556" r="11.0" fill="#241a0a"/></g><path d="M 1163.8933333333334 662.9514814814814 Q 1188.9232407407408 621.2349691358024 1247.3263580246914 662.9514814814814 Q 1188.9232407407408 704.6679938271604 1163.8933333333334 662.9514814814814 Z" fill="#f4ede3" opacity="0.73400591563786" transform="rotate(174.90432098765433 1163.8933333333334 662.9514814814814)"/><path d="M 1237.8951851851853 691.7755555555556 Q 1275.1866666666667 629.6230864197531 1362.2001234567902 691.7755555555556 Q 1275.1866666666667 753.928024691358 1237.8951851851853 691.7755555555556 Z" fill="#5f6b41" opacity="0.7227436985596707" transform="rotate(289.72685185185185 1237.8951851851853 691.7755555555556)"/><path d="M 1178.2748148148148 677.9107407407407 Q 1216.4889814814815 614.220462962963 1305.6553703703703 677.9107407407407 Q 1216.4889814814815 741.6010185185185 1178.2748148148148 677.9107407407407 Z" fill="#f4ede3" opacity="0.7896836419753086" transform="rotate(170.01234567901236 1178.2748148148148 677.9107407407407)"/><path d="M 1225.298888888889 692.0237037037037 Q 1249.9635185185186 650.915987654321 1307.5143209876544 692.0237037037037 Q 1249.9635185185186 733.1314197530864 1225.298888888889 692.0237037037037 Z" fill="#5f6b41" opacity="0.829733153292181" transform="rotate(70.20524691358025 1225.298888888889 692.0237037037037)"/><path d="M 1184.0340740740742 676.7811111111112 Q 1222.3436111111112 612.9318827160495 1311.7325308641975 676.7811111111112 Q 1222.3436111111112 740.6303395061728 1184.0340740740742 676.7811111111112 Z" fill="#f4ede3" opacity="0.8489107510288065" transform="rotate(191.41666666666669 1184.0340740740742 676.7811111111112)"/><path d="M 1240.3470370370371 686.8496296296296 Q 1278.7625925925927 622.8237037037037 1368.398888888889 686.8496296296296 Q 1278.7625925925927 750.8755555555555 1240.3470370370371 686.8496296296296 Z" fill="#5f6b41" opacity="0.8310127314814815" transform="rotate(241.42438271604937 1240.3470370370371 686.8496296296296)"/><path d="M 1192.9044444444444 668.0959259259259 Q 1219.5537962962962 623.6803395061728 1281.7356172839507 668.0959259259259 Q 1219.5537962962962 712.5115123456791 1192.9044444444444 668.0959259259259 Z" fill="#f4ede3" opacity="0.7042798353909464" transform="rotate(314.6728395061728 1192.9044444444444 668.0959259259259)"/><g><ellipse cx="1232.3" cy="699.7" rx="26.1" ry="16.0" fill="#5f6b41" opacity="0.96" transform="rotate(0.7700471224210877 1232.3 699.7)"/><ellipse cx="1218.5" cy="721.9" rx="26.1" ry="16.0" fill="#5f6b41" opacity="0.96" transform="rotate(63.26279913812389 1218.5 721.9)"/><ellipse cx="1190.1" cy="718.1" rx="26.1" ry="16.0" fill="#5f6b41" opacity="0.96" transform="rotate(132.20648414813016 1190.1 718.1)"/><ellipse cx="1181.9" cy="697.6" rx="26.1" ry="16.0" fill="#5f6b41" opacity="0.96" transform="rotate(183.94890922072761 1181.9 697.6)"/><ellipse cx="1196.5" cy="676.4" rx="26.1" ry="16.0" fill="#5f6b41" opacity="0.96" transform="rotate(245.2369467366376 1196.5 676.4)"/><ellipse cx="1223.5" cy="680.1" rx="26.1" ry="16.0" fill="#5f6b41" opacity="0.96" transform="rotate(310.4559639812294 1223.5 680.1)"/><circle cx="1207.1055555555556" cy="699.3594444444444" r="15.1" fill="#241a0a"/></g><g><ellipse cx="1243.5" cy="680.3" rx="26.7" ry="16.4" fill="#f4ede3" opacity="0.96" transform="rotate(6.626175358340584 1243.5 680.3)"/><ellipse cx="1226.0" cy="701.9" rx="26.7" ry="16.4" fill="#f4ede3" opacity="0.96" transform="rotate(71.47309424061099 1226.0 701.9)"/><ellipse cx="1204.5" cy="699.5" rx="26.7" ry="16.4" fill="#f4ede3" opacity="0.96" transform="rotate(120.88714144204927 1204.5 699.5)"/><ellipse cx="1192.0" cy="675.7" rx="26.7" ry="16.4" fill="#f4ede3" opacity="0.96" transform="rotate(183.7372552512686 1192.0 675.7)"/><ellipse cx="1210.4" cy="652.6" rx="26.7" ry="16.4" fill="#f4ede3" opacity="0.96" transform="rotate(253.3477699996923 1210.4 652.6)"/><ellipse cx="1232.6" cy="656.2" rx="26.7" ry="16.4" fill="#f4ede3" opacity="0.96" transform="rotate(305.00545980166214 1232.6 656.2)"/><circle cx="1217.7905555555556" cy="677.3444444444444" r="15.5" fill="#241a0a"/></g><g><ellipse cx="1210.4" cy="654.1" rx="17.7" ry="10.9" fill="#5f6b41" opacity="0.96" transform="rotate(5.021915636827486 1210.4 654.1)"/><ellipse cx="1201.6" cy="667.7" rx="17.7" ry="10.9" fill="#5f6b41" opacity="0.96" transform="rotate(61.480042726962594 1201.6 667.7)"/><ellipse cx="1183.9" cy="666.9" rx="17.7" ry="10.9" fill="#5f6b41" opacity="0.96" transform="rotate(123.59332809594166 1183.9 666.9)"/><ellipse cx="1176.4" cy="650.6" rx="17.7" ry="10.9" fill="#5f6b41" opacity="0.96" transform="rotate(186.80817198307992 1176.4 650.6)"/><ellipse cx="1188.7" cy="636.2" rx="17.7" ry="10.9" fill="#5f6b41" opacity="0.96" transform="rotate(253.99820530531437 1188.7 636.2)"/><ellipse cx="1204.4" cy="639.5" rx="17.7" ry="10.9" fill="#5f6b41" opacity="0.96" transform="rotate(309.99949876250054 1204.4 639.5)"/><circle cx="1193.3755555555556" cy="652.6294444444444" r="10.3" fill="#241a0a"/></g><g><ellipse cx="1180.1" cy="661.0" rx="14.7" ry="9.0" fill="#f4ede3" opacity="0.96" transform="rotate(13.862199055720021 1180.1 661.0)"/><ellipse cx="1172.2" cy="670.5" rx="14.7" ry="9.0" fill="#f4ede3" opacity="0.96" transform="rotate(65.51252057328745 1172.2 670.5)"/><ellipse cx="1157.2" cy="668.6" rx="14.7" ry="9.0" fill="#f4ede3" opacity="0.96" transform="rotate(129.5820854511044 1157.2 668.6)"/><ellipse cx="1152.1" cy="657.0" rx="14.7" ry="9.0" fill="#f4ede3" opacity="0.96" transform="rotate(182.41870075745868 1152.1 657.0)"/><ellipse cx="1161.6" cy="644.2" rx="14.7" ry="9.0" fill="#f4ede3" opacity="0.96" transform="rotate(250.7692388730715 1161.6 644.2)"/><ellipse cx="1173.4" cy="645.4" rx="14.7" ry="9.0" fill="#f4ede3" opacity="0.96" transform="rotate(300.37117732677103 1173.4 645.4)"/><circle cx="1166.2605555555556" cy="657.6144444444444" r="8.5" fill="#241a0a"/></g>
  <rect width="1400" height="800" fill="url(#v10)"/>
  <rect width="1400" height="800" filter="url(#n10)" opacity="0.5"/>
</svg>