<svg width="1400" height="800" viewBox="0 0 1400 800" xmlns="http://www.w3.org/2000/svg" role="img">
  <defs>
    <linearGradient id="g10" x1="0.2" y1="0" x2="0.8" y2="1">
      <stop offset="0%" stop-color="#eee5da"/>
      <stop offset="100%" stop-color="#d7c9b4"/>
    </linearGradient>
    <radialGradient id="glow10" cx="50%" cy="30%" r="65%">
      <stop offset="0%" stop-color="#fff6e8" stop-opacity="0.55"/>
      <stop offset="100%" stop-color="#fff6e8" stop-opacity="0"/>
    </radialGradient>
    <filter id="n10"><feTurbulence type="fractalNoise" baseFrequency="0.85" numOctaves="2" stitchTiles="stitch" result="noise"/><feColorMatrix in="noise" type="matrix" values="0 0 0 0 0  0 0 0 0 0  0 0 0 0 0  0 0 0 0.035 0"/></filter>
  </defs>
  <rect width="1400" height="800" fill="url(#g10)"/>
  <rect width="1400" height="800" fill="url(#glow10)"/>
  <circle cx="700" cy="336" r="128" fill="none" stroke="#ad8253" stroke-width="2.4"/><circle cx="700" cy="336" r="240.00000000000003" fill="none" stroke="#ad8253" stroke-width="2.4"/><g fill="none" stroke="#3c6b68" stroke-width="1.8"><ellipse cx="962.2" cy="338.7" rx="18.0" ry="10.8" transform="rotate(6.990389656351343 962.2 338.7)"/><ellipse cx="946.6" cy="357.3" rx="18.0" ry="10.8" transform="rotate(72.78516438592001 946.6 357.3)"/><ellipse cx="920.7" cy="347.2" rx="18.0" ry="10.8" transform="rotate(149.75320558329196 920.7 347.2)"/><ellipse cx="924.5" cy="319.9" rx="18.0" ry="10.8" transform="rotate(226.18778298992993 924.5 319.9)"/><ellipse cx="948.1" cy="315.2" rx="18.0" ry="10.8" transform="rotate(291.23099271045356 948.1 315.2)"/><circle cx="940" cy="336" r="5.0" fill="#3c6b68" stroke="none"/></g><g fill="none" stroke="#5b4f3d" stroke-width="1.8"><ellipse cx="891.8" cy="483.3" rx="18.0" ry="10.8" transform="rotate(7.9779853757533665 891.8 483.3)"/><ellipse cx="873.7" cy="502.2" rx="18.0" ry="10.8" transform="rotate(79.6290725483516 873.7 502.2)"/><ellipse cx="850.5" cy="491.6" rx="18.0" ry="10.8" transform="rotate(149.3319853249546 850.5 491.6)"/><ellipse cx="854.6" cy="463.8" rx="18.0" ry="10.8" transform="rotate(227.4494788891013 854.6 463.8)"/><ellipse cx="878.1" cy="459.6" rx="18.0" ry="10.8" transform="rotate(292.0889066243733 878.1 459.6)"/><circle cx="869.7056274847714" cy="480.24978336205567" r="5.0" fill="#5b4f3d" stroke="none"/></g><g fill="none" stroke="#3c6b68" stroke-width="1.8"><ellipse cx="722.3" cy="540.2" rx="18.0" ry="10.8" transform="rotate(0.40363461956361235 722.3 540.2)"/><ellipse cx="703.3" cy="562.1" rx="18.0" ry="10.8" transform="rotate(81.48317851347616 703.3 562.1)"/><ellipse cx="681.0" cy="551.7" rx="18.0" ry="10.8" transform="rotate(148.34193351075174 681.0 551.7)"/><ellipse cx="683.1" cy="525.5" rx="18.0" ry="10.8" transform="rotate(220.6797447896539 683.1 525.5)"/><ellipse cx="709.4" cy="519.7" rx="18.0" ry="10.8" transform="rotate(294.85373254163477 709.4 519.7)"/><circle cx="700" cy="540" r="5.0" fill="#3c6b68" stroke="none"/></g><g fill="none" stroke="#5b4f3d" stroke-width="1.8"><ellipse cx="552.6" cy="480.9" rx="18.0" ry="10.8" transform="rotate(1.7036455976275044 552.6 480.9)"/><ellipse cx="537.2" cy="501.5" rx="18.0" ry="10.8" transform="rotate(72.01665232274942 537.2 501.5)"/><ellipse cx="510.5" cy="490.6" rx="18.0" ry="10.8" transform="rotate(152.33578926633402 510.5 490.6)"/><ellipse cx="512.5" cy="466.8" rx="18.0" ry="10.8" transform="rotate(216.94869117775733 512.5 466.8)"/><ellipse cx="538.2" cy="459.4" rx="18.0" ry="10.8" transform="rotate(290.64816141422347 538.2 459.4)"/><circle cx="530.2943725152286" cy="480.2497833620557" r="5.0" fill="#5b4f3d" stroke="none"/></g><g fill="none" stroke="#3c6b68" stroke-width="1.8"><ellipse cx="482.1" cy="338.8" rx="18.0" ry="10.8" transform="rotate(7.2448410777143115 482.1 338.8)"/><ellipse cx="464.3" cy="357.9" rx="18.0" ry="10.8" transform="rotate(78.85171854389813 464.3 357.9)"/><ellipse cx="440.7" cy="347.2" rx="18.0" ry="10.8" transform="rotate(149.88976445421648 440.7 347.2)"/><ellipse cx="444.0" cy="320.4" rx="18.0" ry="10.8" transform="rotate(224.3555362685325 444.0 320.4)"/><ellipse cx="467.4" cy="314.9" rx="18.0" ry="10.8" transform="rotate(289.2690641835738 467.4 314.9)"/><circle cx="460" cy="336" r="5.0" fill="#3c6b68" stroke="none"/></g><g fill="none" stroke="#5b4f3d" stroke-width="1.8"><ellipse cx="552.6" cy="192.9" rx="18.0" ry="10.8" transform="rotate(3.0569538328687753 552.6 192.9)"/><ellipse cx="535.3" cy="213.5" rx="18.0" ry="10.8" transform="rotate(76.98336722892893 535.3 213.5)"/><ellipse cx="512.1" cy="204.7" rx="18.0" ry="10.8" transform="rotate(144.43453229215768 512.1 204.7)"/><ellipse cx="514.9" cy="175.6" rx="18.0" ry="10.8" transform="rotate(226.38353374555376 514.9 175.6)"/><ellipse cx="537.9" cy="170.8" rx="18.0" ry="10.8" transform="rotate(289.9029822516605 537.9 170.8)"/><circle cx="530.2943725152286" cy="191.75021663794433" r="5.0" fill="#5b4f3d" stroke="none"/></g><g fill="none" stroke="#3c6b68" stroke-width="1.8"><ellipse cx="722.0" cy="135.5" rx="18.0" ry="10.8" transform="rotate(9.122771162406645 722.0 135.5)"/><ellipse cx="703.2" cy="154.1" rx="18.0" ry="10.8" transform="rotate(81.7258406797953 703.2 154.1)"/><ellipse cx="681.1" cy="143.9" rx="18.0" ry="10.8" transform="rotate(147.8890296294841 681.1 143.9)"/><ellipse cx="684.3" cy="116.2" rx="18.0" ry="10.8" transform="rotate(225.1901172818446 684.3 116.2)"/><ellipse cx="709.0" cy="111.6" rx="18.0" ry="10.8" transform="rotate(293.8585229283503 709.0 111.6)"/><circle cx="700" cy="132" r="5.0" fill="#3c6b68" stroke="none"/></g><g fill="none" stroke="#5b4f3d" stroke-width="1.8"><ellipse cx="892.0" cy="193.4" rx="18.0" ry="10.8" transform="rotate(4.257001752540073 892.0 193.4)"/><ellipse cx="874.6" cy="213.5" rx="18.0" ry="10.8" transform="rotate(77.41121894322842 874.6 213.5)"/><ellipse cx="850.9" cy="203.7" rx="18.0" ry="10.8" transform="rotate(147.55622878397557 850.9 203.7)"/><ellipse cx="853.6" cy="176.3" rx="18.0" ry="10.8" transform="rotate(223.78154691358532 853.6 176.3)"/><ellipse cx="877.5" cy="170.9" rx="18.0" ry="10.8" transform="rotate(290.560724439315 877.5 170.9)"/><circle cx="869.7056274847714" cy="191.75021663794428" r="5.0" fill="#5b4f3d" stroke="none"/></g><g fill="none" stroke="#5b4f3d" stroke-width="3.6"><ellipse cx="744.2" cy="341.9" rx="36.0" ry="21.6" transform="rotate(7.593606539428032 744.2 341.9)"/><ellipse cx="722.9" cy="374.3" rx="36.0" ry="21.6" transform="rotate(59.20672893133163 722.9 374.3)"/><ellipse cx="686.0" cy="378.4" rx="36.0" ry="21.6" transform="rotate(108.27042492000395 686.0 378.4)"/><ellipse cx="656.8" cy="347.1" rx="36.0" ry="21.6" transform="rotate(165.57186287056234 656.8 347.1)"/><ellipse cx="663.3" cy="310.6" rx="36.0" ry="21.6" transform="rotate(214.73576752710733 663.3 310.6)"/><ellipse cx="695.7" cy="291.6" rx="36.0" ry="21.6" transform="rotate(264.4272413468644 695.7 291.6)"/><ellipse cx="732.4" cy="305.3" rx="36.0" ry="21.6" transform="rotate(316.5207758818046 732.4 305.3)"/><circle cx="700" cy="336" r="10.1" fill="#5b4f3d" stroke="none"/></g><g stroke="#ad8253" stroke-width="4.32" fill="none" transform="rotate(-20 224 672)"><path d="M 224 672 Q 272 662.4 320 672" /><path d="M 248 670 q 11.52 -15.36 4.800000000000001 -26.880000000000003" /><path d="M 272 674 q 11.52 15.36 4.800000000000001 26.880000000000003" /><path d="M 296 670 q 11.52 -15.36 4.800000000000001 -26.880000000000003" /></g><g stroke="#3c6b68" stroke-width="4.32" fill="none" transform="rotate(20 1176 672)"><path d="M 1176 672 Q 1224 662.4 1272 672" /><path d="M 1200 670 q 11.52 -15.36 4.800000000000001 -26.880000000000003" /><path d="M 1224 674 q 11.52 15.36 4.800000000000001 26.880000000000003" /><path d="M 1248 670 q 11.52 -15.36 4.800000000000001 -26.880000000000003" /></g>
  <rect width="1400" height="800" filter="url(#n10)" opacity="0.4"/>
</svg>