<svg width="800" height="1100" viewBox="0 0 800 1100" xmlns="http://www.w3.org/2000/svg" role="img">
  <defs>
    <linearGradient id="g12" x1="0.1" y1="0" x2="0.9" y2="1">
      <stop offset="0%" stop-color="#3a4326"/>
      <stop offset="100%" stop-color="#1c2113"/>
    </linearGradient>
    <radialGradient id="v12" cx="50%" cy="42%" r="72%">
      <stop offset="0%" stop-color="#000000" stop-opacity="0"/>
      <stop offset="100%" stop-color="#000000" stop-opacity="0.3"/>
    </radialGradient>
    <filter id="n12"><feTurbulence type="fractalNoise" baseFrequency="0.8" numOctaves="2" stitchTiles="stitch" result="noise"/><feColorMatrix in="noise" type="matrix" values="0 0 0 0 0  0 0 0 0 0  0 0 0 0 0  0 0 0 0.06 0"/></filter>
  </defs>
  <rect width="800" height="1100" fill="url(#g12)"/>
  <path d="M 162.47736625514403 188.87115226337448 Q 211.15665637860084 107.73900205761315 324.7416666666667 188.87115226337448 Q 211.15665637860084 270.0033024691358 162.47736625514403 188.87115226337448 Z" fill="#c9a469" opacity="0.8234143518518517" transform="rotate(266.5216049382716 162.47736625514403 188.87115226337448)"/><path d="M 209.24135802469135 212.75860082304527 Q 261.85670781893003 125.06635116598079 384.6258573388203 212.75860082304527 Q 261.85670781893003 300.45085048010975 209.24135802469135 212.75860082304527 Z" fill="#c9a469" opacity="0.7303620113168724" transform="rotate(260.6033950617284 209.24135802469135 212.75860082304527)"/><path d="M 213.1485596707819 323.2411111111111 Q 279.51169753086424 212.63588134430722 434.3590192043896 323.2411111111111 Q 279.51169753086424 433.84634087791494 213.1485596707819 323.2411111111111 Z" fill="#c9a469" opacity="0.8136599794238683" transform="rotate(309.037037037037 213.1485596707819 323.2411111111111)"/><path d="M 180.7471193415638 224.64460905349793 Q 243.59569958847737 119.89697530864196 390.2423868312758 224.64460905349793 Q 243.59569958847737 329.3922427983539 180.7471193415638 224.64460905349793 Z" fill="#c9a469" opacity="0.7904378858024691" transform="rotate(319.6003086419753 180.7471193415638 224.64460905349793)"/><path d="M 257.6074074074074 286.1839094650206 Q 325.4938991769547 173.03975651577503 483.8957133058985 286.1839094650206 Q 325.4938991769547 399.3280624142661 257.6074074074074 286.1839094650206 Z" fill="#c9a469" opacity="0.8222698045267489" transform="rotate(346.7376543209877 257.6074074074074 286.1839094650206)"/><path d="M 202.45534979423869 254.49604938271605 Q 258.36925925925925 161.30620027434844 388.83504801097394 254.49604938271605 Q 258.36925925925925 347.68589849108366 202.45534979423869 254.49604938271605 Z" fill="#c9a469" opacity="0.831840920781893" transform="rotate(271.56018518518516 202.45534979423869 254.49604938271605)"/><path d="M 112.50576131687244 196.57362139917694 Q 189.42918724279838 68.36791152263373 368.9171810699589 196.57362139917694 Q 189.42918724279838 324.77933127572015 112.50576131687244 196.57362139917694 Z" fill="#c9a469" opacity="0.8196141975308642" transform="rotate(81.84567901234568 112.50576131687244 196.57362139917694)"/><g><ellipse cx="342.7" cy="135.0" rx="39.4" ry="24.1" fill="#c9a469" opacity="0.96" transform="rotate(12.461549593193313 342.7 135.0)"/><ellipse cx="316.7" cy="163.2" rx="39.4" ry="24.1" fill="#c9a469" opacity="0.96" transform="rotate(72.86170883861378 316.7 163.2)"/><ellipse cx="280.8" cy="155.7" rx="39.4" ry="24.1" fill="#c9a469" opacity="0.96" transform="rotate(130.5171821441393 280.8 155.7)"/><ellipse cx="267.6" cy="123.4" rx="39.4" ry="24.1" fill="#c9a469" opacity="0.96" transform="rotate(185.11850156486895 267.6 123.4)"/><ellipse cx="293.6" cy="90.6" rx="39.4" ry="24.1" fill="#c9a469" opacity="0.96" transform="rotate(251.74117698811844 293.6 90.6)"/><ellipse cx="325.7" cy="94.5" rx="39.4" ry="24.1" fill="#c9a469" opacity="0.96" transform="rotate(301.9583671894186 325.7 94.5)"/><circle cx="305.49913580246914" cy="126.7935185185185" r="22.8" fill="#12150c"/></g><g><ellipse cx="304.8" cy="176.8" rx="30.5" ry="18.7" fill="#f4ede3" opacity="0.96" transform="rotate(10.625188913004536 304.8 176.8)"/><ellipse cx="287.3" cy="198.5" rx="30.5" ry="18.7" fill="#f4ede3" opacity="0.96" transform="rotate(67.0133173013168 287.3 198.5)"/><ellipse cx="259.9" cy="196.2" rx="30.5" ry="18.7" fill="#f4ede3" opacity="0.96" transform="rotate(122.64619653838281 259.9 196.2)"/><ellipse cx="246.5" cy="167.9" rx="30.5" ry="18.7" fill="#f4ede3" opacity="0.96" transform="rotate(186.7636552648154 246.5 167.9)"/><ellipse cx="261.5" cy="145.5" rx="30.5" ry="18.7" fill="#f4ede3" opacity="0.96" transform="rotate(241.01866531863215 261.5 145.5)"/><ellipse cx="294.6" cy="148.6" rx="30.5" ry="18.7" fill="#f4ede3" opacity="0.96" transform="rotate(309.50551669568944 294.6 148.6)"/><circle cx="275.81524691358027" cy="171.34296296296296" r="17.7" fill="#12150c"/></g><g><ellipse cx="206.0" cy="211.4" rx="27.0" ry="16.6" fill="#c9a469" opacity="0.96" transform="rotate(1.3284402753831617 206.0 211.4)"/><ellipse cx="188.1" cy="235.6" rx="27.0" ry="16.6" fill="#c9a469" opacity="0.96" transform="rotate(71.60946890442547 188.1 235.6)"/><ellipse cx="163.5" cy="231.2" rx="27.0" ry="16.6" fill="#c9a469" opacity="0.96" transform="rotate(128.80074029259964 163.5 231.2)"/><ellipse cx="154.2" cy="205.5" rx="27.0" ry="16.6" fill="#c9a469" opacity="0.96" transform="rotate(191.6913796660322 154.2 205.5)"/><ellipse cx="171.5" cy="186.0" rx="27.0" ry="16.6" fill="#c9a469" opacity="0.96" transform="rotate(251.48365544825444 171.5 186.0)"/><ellipse cx="197.7" cy="191.7" rx="27.0" ry="16.6" fill="#c9a469" opacity="0.96" transform="rotate(313.1732644640954 197.7 191.7)"/><circle cx="179.83135802469135" cy="210.7924074074074" r="15.7" fill="#12150c"/></g><path d="M 580.0342386831276 321.65555555555557 Q 628.2073456790124 241.3670438957476 740.6112620027435 321.65555555555557 Q 628.2073456790124 401.94406721536353 580.0342386831276 321.65555555555557 Z" fill="#c9a469" opacity="0.7409863683127571" transform="rotate(274.6203703703704 580.0342386831276 321.65555555555557)"/><path d="M 577.617366255144 421.52510288065844 Q 623.3627983539095 345.2827160493827 730.1021399176955 421.52510288065844 Q 623.3627983539095 497.76748971193416 577.617366255144 421.52510288065844 Z" fill="#c9a469" opacity="0.7948476080246913" transform="rotate(230.18364197530866 577.617366255144 421.52510288065844)"/><path d="M 642.7807407407407 362.0711934156379 Q 687.54170781893 287.4695816186557 791.9839643347051 362.0711934156379 Q 687.54170781893 436.67280521262006 642.7807407407407 362.0711934156379 Z" fill="#c9a469" opacity="0.7287628600823045" transform="rotate(142.320987654321 642.7807407407407 362.0711934156379)"/><path d="M 576.8280658436214 337.84197530864196 Q 634.5959259259259 241.56220850480105 769.3875994513032 337.84197530864196 Q 634.5959259259259 434.1217421124829 576.8280658436214 337.84197530864196 Z" fill="#c9a469" opacity="0.7654173096707818" transform="rotate(252.14351851851853 576.8280658436214 337.84197530864196)"/><path d="M 594.2186008230452 404.00781893004114 Q 652.9550823045267 306.113683127572 790.0068724279836 404.00781893004114 Q 652.9550823045267 501.90195473251026 594.2186008230452 404.00781893004114 Z" fill="#c9a469" opacity="0.7552739197530863" transform="rotate(187.42901234567904 594.2186008230452 404.00781893004114)"/><g><ellipse cx="592.9" cy="438.8" rx="35.9" ry="22.0" fill="#c9a469" opacity="0.96" transform="rotate(4.129125176736376 592.9 438.8)"/><ellipse cx="572.6" cy="467.9" rx="35.9" ry="22.0" fill="#c9a469" opacity="0.96" transform="rotate(65.5240028164812 572.6 467.9)"/><ellipse cx="539.9" cy="465.8" rx="35.9" ry="22.0" fill="#c9a469" opacity="0.96" transform="rotate(121.78687036995262 539.9 465.8)"/><ellipse cx="523.7" cy="432.1" rx="35.9" ry="22.0" fill="#c9a469" opacity="0.96" transform="rotate(186.93220477052037 523.7 432.1)"/><ellipse cx="544.8" cy="404.1" rx="35.9" ry="22.0" fill="#c9a469" opacity="0.96" transform="rotate(247.38762614895887 544.8 404.1)"/><ellipse cx="577.3" cy="407.2" rx="35.9" ry="22.0" fill="#c9a469" opacity="0.96" transform="rotate(303.37418303734023 577.3 407.2)"/><circle cx="558.1965432098765" cy="436.25074074074075" r="20.9" fill="#12150c"/></g><g><ellipse cx="588.4" cy="403.2" rx="31.1" ry="19.0" fill="#f4ede3" opacity="0.96" transform="rotate(11.245230045466709 588.4 403.2)"/><ellipse cx="573.3" cy="423.8" rx="31.1" ry="19.0" fill="#f4ede3" opacity="0.96" transform="rotate(61.46610438896804 573.3 423.8)"/><ellipse cx="542.6" cy="422.6" rx="31.1" ry="19.0" fill="#f4ede3" opacity="0.96" transform="rotate(122.86835031311526 542.6 422.6)"/><ellipse cx="529.4" cy="391.9" rx="31.1" ry="19.0" fill="#f4ede3" opacity="0.96" transform="rotate(190.3678515802506 529.4 391.9)"/><ellipse cx="546.5" cy="370.0" rx="31.1" ry="19.0" fill="#f4ede3" opacity="0.96" transform="rotate(245.6175800283917 546.5 370.0)"/><ellipse cx="579.3" cy="375.2" rx="31.1" ry="19.0" fill="#f4ede3" opacity="0.96" transform="rotate(312.71182565339495 579.3 375.2)"/><circle cx="558.950987654321" cy="397.3385185185185" r="18.0" fill="#12150c"/></g><g><ellipse cx="644.9" cy="457.6" rx="40.4" ry="24.7" fill="#c9a469" opacity="0.96" transform="rotate(3.73897451762916 644.9 457.6)"/><ellipse cx="625.0" cy="489.1" rx="40.4" ry="24.7" fill="#c9a469" opacity="0.96" transform="rotate(60.690776662725234 625.0 489.1)"/><ellipse cx="580.4" cy="484.6" rx="40.4" ry="24.7" fill="#c9a469" opacity="0.96" transform="rotate(130.81338717711589 580.4 484.6)"/><ellipse cx="567.4" cy="448.3" rx="40.4" ry="24.7" fill="#c9a469" opacity="0.96" transform="rotate(189.92409665211594 567.4 448.3)"/><ellipse cx="588.5" cy="420.0" rx="40.4" ry="24.7" fill="#c9a469" opacity="0.96" transform="rotate(243.54911838952725 588.5 420.0)"/><ellipse cx="631.5" cy="425.5" rx="40.4" ry="24.7" fill="#c9a469" opacity="0.96" transform="rotate(311.00809409244937 631.5 425.5)"/><circle cx="605.9054320987655" cy="455.0262962962963" r="23.4" fill="#12150c"/></g><g><ellipse cx="575.9" cy="465.0" rx="29.8" ry="18.3" fill="#f4ede3" opacity="0.96" transform="rotate(13.839234569332532 575.9 465.0)"/><ellipse cx="559.2" cy="484.6" rx="29.8" ry="18.3" fill="#f4ede3" opacity="0.96" transform="rotate(66.77900585732041 559.2 484.6)"/><ellipse cx="533.2" cy="483.0" rx="29.8" ry="18.3" fill="#f4ede3" opacity="0.96" transform="rotate(120.55507742498098 533.2 483.0)"/><ellipse cx="519.4" cy="453.5" rx="29.8" ry="18.3" fill="#f4ede3" opacity="0.96" transform="rotate(189.18192620568394 519.4 453.5)"/><ellipse cx="535.6" cy="432.0" rx="29.8" ry="18.3" fill="#f4ede3" opacity="0.96" transform="rotate(244.7632274519331 535.6 432.0)"/><ellipse cx="563.1" cy="433.6" rx="29.8" ry="18.3" fill="#f4ede3" opacity="0.96" transform="rotate(301.8439745740713 563.1 433.6)"/><circle cx="547.8598765432099" cy="458.1140740740741" r="17.3" fill="#12150c"/></g><path d="M 205.66604938271604 810.3555555555555 Q 248.05648148148146 739.7048353909464 346.96748971193415 810.3555555555555 Q 248.05648148148146 881.0062757201646 205.66604938271604 810.3555555555555 Z" fill="#c9a469" opacity="0.7452629886831276" transform="rotate(328.21759259259255 205.66604938271604 810.3555555555555)"/><path d="M 215.4098765432099 861.691975308642 Q 287.2825617283951 741.9041666666667 454.98549382716055 861.691975308642 Q 287.2825617283951 981.4797839506173 215.4098765432099 861.691975308642 Z" fill="#c9a469" opacity="0.7203047839506173" transform="rotate(294.6141975308642 215.4098765432099 861.691975308642)"/><path d="M 293.56111111111113 834.3246913580247 Q 335.4623456790124 764.4893004115225 433.23189300411525 834.3246913580247 Q 335.4623456790124 904.1600823045268 293.56111111111113 834.3246913580247 Z" fill="#c9a469" opacity="0.7712339248971193" transform="rotate(87.58487654320987 293.56111111111113 834.3246913580247)"/><path d="M 275.2308641975309 840.6981481481481 Q 325.1513888888889 757.4972736625514 441.63261316872433 840.6981481481481 Q 325.1513888888889 923.8990226337448 275.2308641975309 840.6981481481481 Z" fill="#c9a469" opacity="0.7207355967078188" transform="rotate(68.24074074074073 275.2308641975309 840.6981481481481)"/><path d="M 294.1969135802469 843.9234567901235 Q 338.2385802469136 770.5206790123457 441.00246913580247 843.9234567901235 Q 338.2385802469136 917.3262345679013 294.1969135802469 843.9234567901235 Z" fill="#c9a469" opacity="0.769272762345679" transform="rotate(344.3595679012346 294.1969135802469 843.9234567901235)"/><path d="M 222.9037037037037 721.7783950617284 Q 289.94614197530865 610.0409979423868 446.37849794238684 721.7783950617284 Q 289.94614197530865 833.51579218107 222.9037037037037 721.7783950617284 Z" fill="#c9a469" opacity="0.7117528292181069" transform="rotate(210.3858024691358 222.9037037037037 721.7783950617284)"/><g><ellipse cx="290.9" cy="736.5" rx="43.9" ry="26.9" fill="#c9a469" opacity="0.96" transform="rotate(5.17517595239746 290.9 736.5)"/><ellipse cx="263.9" cy="772.3" rx="43.9" ry="26.9" fill="#c9a469" opacity="0.96" transform="rotate(68.88369489449668 263.9 772.3)"/><ellipse cx="221.4" cy="765.3" rx="43.9" ry="26.9" fill="#c9a469" opacity="0.96" transform="rotate(129.7591084838721 221.4 765.3)"/><ellipse cx="206.2" cy="731.5" rx="43.9" ry="26.9" fill="#c9a469" opacity="0.96" transform="rotate(181.65626752892004 206.2 731.5)"/><ellipse cx="233.9" cy="692.9" rx="43.9" ry="26.9" fill="#c9a469" opacity="0.96" transform="rotate(249.73049497944277 233.9 692.9)"/><ellipse cx="274.6" cy="699.1" rx="43.9" ry="26.9" fill="#c9a469" opacity="0.96" transform="rotate(307.67701551886324 274.6 699.1)"/><circle cx="248.6037037037037" cy="732.6935185185185" r="25.5" fill="#12150c"/></g><g><ellipse cx="220.5" cy="870.1" rx="43.5" ry="26.6" fill="#f4ede3" opacity="0.96" transform="rotate(12.423909940371042 220.5 870.1)"/><ellipse cx="196.2" cy="899.6" rx="43.5" ry="26.6" fill="#f4ede3" opacity="0.96" transform="rotate(66.54997501714573 196.2 899.6)"/><ellipse cx="155.5" cy="895.6" rx="43.5" ry="26.6" fill="#f4ede3" opacity="0.96" transform="rotate(124.60701982260221 155.5 895.6)"/><ellipse cx="138.0" cy="853.7" rx="43.5" ry="26.6" fill="#f4ede3" opacity="0.96" transform="rotate(189.99919175065043 138.0 853.7)"/><ellipse cx="158.5" cy="824.5" rx="43.5" ry="26.6" fill="#f4ede3" opacity="0.96" transform="rotate(240.1353308235241 158.5 824.5)"/><ellipse cx="201.2" cy="825.0" rx="43.5" ry="26.6" fill="#f4ede3" opacity="0.96" transform="rotate(301.2317929449717 201.2 825.0)"/><circle cx="179.412037037037" cy="861.0018518518518" r="25.2" fill="#12150c"/></g><g><ellipse cx="195.8" cy="880.0" rx="37.4" ry="22.9" fill="#c9a469" opacity="0.96" transform="rotate(5.050283531776737 195.8 880.0)"/><ellipse cx="173.6" cy="910.3" rx="37.4" ry="22.9" fill="#c9a469" opacity="0.96" transform="rotate(67.49882584106513 173.6 910.3)"/><ellipse cx="138.3" cy="906.0" rx="37.4" ry="22.9" fill="#c9a469" opacity="0.96" transform="rotate(126.31848808217025 138.3 906.0)"/><ellipse cx="123.5" cy="876.7" rx="37.4" ry="22.9" fill="#c9a469" opacity="0.96" transform="rotate(180.13876935624523 123.5 876.7)"/><ellipse cx="144.2" cy="844.1" rx="37.4" ry="22.9" fill="#c9a469" opacity="0.96" transform="rotate(244.5656960275787 144.2 844.1)"/><ellipse cx="184.1" cy="850.1" rx="37.4" ry="22.9" fill="#c9a469" opacity="0.96" transform="rotate(312.393085950621 184.1 850.1)"/><circle cx="159.72037037037035" cy="876.8101851851852" r="21.7" fill="#12150c"/></g><g><ellipse cx="273.5" cy="834.6" rx="30.9" ry="19.0" fill="#f4ede3" opacity="0.96" transform="rotate(0.9592278244527735 273.5 834.6)"/><ellipse cx="258.1" cy="860.3" rx="30.9" ry="19.0" fill="#f4ede3" opacity="0.96" transform="rotate(60.98728870755192 258.1 860.3)"/><ellipse cx="226.7" cy="858.9" rx="30.9" ry="19.0" fill="#f4ede3" opacity="0.96" transform="rotate(124.15055460387336 226.7 858.9)"/><ellipse cx="213.7" cy="831.9" rx="30.9" ry="19.0" fill="#f4ede3" opacity="0.96" transform="rotate(184.30387632181336 213.7 831.9)"/><ellipse cx="234.4" cy="805.6" rx="30.9" ry="19.0" fill="#f4ede3" opacity="0.96" transform="rotate(252.27863193290364 234.4 805.6)"/><ellipse cx="259.3" cy="808.7" rx="30.9" ry="19.0" fill="#f4ede3" opacity="0.96" transform="rotate(301.7700461205672 259.3 808.7)"/><circle cx="243.5287037037037" cy="834.1185185185185" r="18.0" fill="#12150c"/></g><g><ellipse cx="297.1" cy="788.8" rx="29.2" ry="17.9" fill="#c9a469" opacity="0.96" transform="rotate(3.7317290379667973 297.1 788.8)"/><ellipse cx="280.8" cy="812.6" rx="29.2" ry="17.9" fill="#c9a469" opacity="0.96" transform="rotate(64.92029471444435 280.8 812.6)"/><ellipse cx="254.0" cy="811.0" rx="29.2" ry="17.9" fill="#c9a469" opacity="0.96" transform="rotate(121.68420560727917 254.0 811.0)"/><ellipse cx="241.1" cy="781.2" rx="29.2" ry="17.9" fill="#c9a469" opacity="0.96" transform="rotate(191.7515539886518 241.1 781.2)"/><ellipse cx="260.3" cy="759.9" rx="29.2" ry="17.9" fill="#c9a469" opacity="0.96" transform="rotate(252.531179880796 260.3 759.9)"/><ellipse cx="283.7" cy="762.8" rx="29.2" ry="17.9" fill="#c9a469" opacity="0.96" transform="rotate(301.591549430919 283.7 762.8)"/><circle cx="268.837037037037" cy="786.9268518518519" r="17.0" fill="#12150c"/></g><path d="M 555.5101234567901 913.2024691358025 Q 606.1371604938271 828.8240740740741 724.2669135802469 913.2024691358025 Q 606.1371604938271 997.5808641975309 555.5101234567901 913.2024691358025 Z" fill="#c9a469" opacity="0.7261844135802469" transform="rotate(175.39197530864197 555.5101234567901 913.2024691358025)"/><path d="M 543.3644444444444 957.441975308642 Q 592.9476543209877 874.80329218107 708.6418106995884 957.441975308642 Q 592.9476543209877 1040.080658436214 543.3644444444444 957.441975308642 Z" fill="#c9a469" opacity="0.8465579989711933" transform="rotate(295.02932098765433 543.3644444444444 957.441975308642)"/><path d="M 543.6335802469135 926.2740740740741 Q 577.7655555555555 869.3874485596708 657.4068312757202 926.2740740740741 Q 577.7655555555555 983.1606995884773 543.6335802469135 926.2740740740741 Z" fill="#c9a469" opacity="0.782170781893004" transform="rotate(282.35185185185185 543.6335802469135 926.2740740740741)"/><path d="M 624.9397530864197 866.9876543209876 Q 664.5019753086419 801.0506172839506 756.8138271604938 866.9876543209876 Q 664.5019753086419 932.9246913580247 624.9397530864197 866.9876543209876 Z" fill="#c9a469" opacity="0.833485725308642" transform="rotate(125.13734567901236 624.9397530864197 866.9876543209876)"/><path d="M 646.8385185185185 873.8049382716049 Q 679.7346913580247 818.9779835390946 756.4924279835391 873.8049382716049 Q 679.7346913580247 928.6318930041152 646.8385185185185 873.8049382716049 Z" fill="#c9a469" opacity="0.7454102366255143" transform="rotate(77.83024691358025 646.8385185185185 873.8049382716049)"/><path d="M 579.8187654320988 870.2814814814815 Q 620.7081481481481 802.1325102880659 716.1167078189301 870.2814814814815 Q 620.7081481481481 938.4304526748971 579.8187654320988 870.2814814814815 Z" fill="#c9a469" opacity="0.8239628343621399" transform="rotate(341.5416666666667 579.8187654320988 870.2814814814815)"/><g><ellipse cx="573.9" cy="851.4" rx="31.3" ry="19.2" fill="#c9a469" opacity="0.96" transform="rotate(5.055379928488398 573.9 851.4)"/><ellipse cx="553.1" cy="877.6" rx="31.3" ry="19.2" fill="#c9a469" opacity="0.96" transform="rotate(71.92857702141951 553.1 877.6)"/><ellipse cx="523.5" cy="871.4" rx="31.3" ry="19.2" fill="#c9a469" opacity="0.96" transform="rotate(131.7687466522574 523.5 871.4)"/><ellipse cx="513.4" cy="848.5" rx="31.3" ry="19.2" fill="#c9a469" opacity="0.96" transform="rotate(180.55280553729025 513.4 848.5)"/><ellipse cx="529.6" cy="821.9" rx="31.3" ry="19.2" fill="#c9a469" opacity="0.96" transform="rotate(242.3750436723744 529.6 821.9)"/><ellipse cx="561.4" cy="824.2" rx="31.3" ry="19.2" fill="#c9a469" opacity="0.96" transform="rotate(305.78514709617633 561.4 824.2)"/><circle cx="543.7044444444444" cy="848.7540740740741" r="18.2" fill="#12150c"/></g><g><ellipse cx="657.9" cy="926.6" rx="34.1" ry="20.9" fill="#f4ede3" opacity="0.96" transform="rotate(10.546778086488969 657.9 926.6)"/><ellipse cx="637.8" cy="951.2" rx="34.1" ry="20.9" fill="#f4ede3" opacity="0.96" transform="rotate(68.2354086718253 637.8 951.2)"/><ellipse cx="604.2" cy="945.7" rx="34.1" ry="20.9" fill="#f4ede3" opacity="0.96" transform="rotate(130.42974516923078 604.2 945.7)"/><ellipse cx="592.9" cy="915.8" rx="34.1" ry="20.9" fill="#f4ede3" opacity="0.96" transform="rotate(188.33205600223684 592.9 915.8)"/><ellipse cx="612.6" cy="890.3" rx="34.1" ry="20.9" fill="#f4ede3" opacity="0.96" transform="rotate(246.93803799567223 612.6 890.3)"/><ellipse cx="644.1" cy="893.4" rx="34.1" ry="20.9" fill="#f4ede3" opacity="0.96" transform="rotate(304.34667377371727 644.1 893.4)"/><circle cx="625.5511111111111" cy="920.6007407407408" r="19.8" fill="#12150c"/></g><g><ellipse cx="636.5" cy="947.3" rx="19.8" ry="12.1" fill="#c9a469" opacity="0.96" transform="rotate(4.9968020674892974 636.5 947.3)"/><ellipse cx="623.5" cy="963.8" rx="19.8" ry="12.1" fill="#c9a469" opacity="0.96" transform="rotate(71.40579724306906 623.5 963.8)"/><ellipse cx="606.4" cy="961.3" rx="19.8" ry="12.1" fill="#c9a469" opacity="0.96" transform="rotate(125.21134194833925 606.4 961.3)"/><ellipse cx="598.3" cy="945.2" rx="19.8" ry="12.1" fill="#c9a469" opacity="0.96" transform="rotate(181.4889460706155 598.3 945.2)"/><ellipse cx="608.0" cy="929.0" rx="19.8" ry="12.1" fill="#c9a469" opacity="0.96" transform="rotate(240.45965814196987 608.0 929.0)"/><ellipse cx="629.6" cy="930.9" rx="19.8" ry="12.1" fill="#c9a469" opacity="0.96" transform="rotate(309.77175737209626 629.6 930.9)"/><circle cx="617.3977777777777" cy="945.6474074074074" r="11.5" fill="#12150c"/></g><g><ellipse cx="587.4" cy="969.9" rx="26.0" ry="15.9" fill="#f4ede3" opacity="0.96" transform="rotate(6.310382969327614 587.4 969.9)"/><ellipse cx="570.7" cy="990.8" rx="26.0" ry="15.9" fill="#f4ede3" opacity="0.96" transform="rotate(70.69678407644787 570.7 990.8)"/><ellipse cx="545.0" cy="985.2" rx="26.0" ry="15.9" fill="#f4ede3" opacity="0.96" transform="rotate(134.01846808742098 545.0 985.2)"/><ellipse cx="537.9" cy="961.8" rx="26.0" ry="15.9" fill="#f4ede3" opacity="0.96" transform="rotate(192.2523517185351 537.9 961.8)"/><ellipse cx="550.2" cy="945.2" rx="26.0" ry="15.9" fill="#f4ede3" opacity="0.96" transform="rotate(240.8448352091055 550.2 945.2)"/><ellipse cx="579.0" cy="948.2" rx="26.0" ry="15.9" fill="#f4ede3" opacity="0.96" transform="rotate(311.31743923261024 579.0 948.2)"/><circle cx="562.4444444444445" cy="967.0940740740741" r="15.1" fill="#12150c"/></g><g><ellipse cx="699.4" cy="856.8" rx="23.5" ry="14.4" fill="#c9a469" opacity="0.96" transform="rotate(3.7445621333009815 699.4 856.8)"/><ellipse cx="684.6" cy="876.6" rx="23.5" ry="14.4" fill="#c9a469" opacity="0.96" transform="rotate(69.68935539152938 684.6 876.6)"/><ellipse cx="661.6" cy="872.3" rx="23.5" ry="14.4" fill="#c9a469" opacity="0.96" transform="rotate(131.78422004950247 661.6 872.3)"/><ellipse cx="654.0" cy="854.9" rx="23.5" ry="14.4" fill="#c9a469" opacity="0.96" transform="rotate(181.23142453075153 654.0 854.9)"/><ellipse cx="669.5" cy="833.8" rx="23.5" ry="14.4" fill="#c9a469" opacity="0.96" transform="rotate(251.67455541664668 669.5 833.8)"/><ellipse cx="692.1" cy="838.6" rx="23.5" ry="14.4" fill="#c9a469" opacity="0.96" transform="rotate(312.5647055748269 692.1 838.6)"/><circle cx="676.6911111111111" cy="855.3407407407408" r="13.6" fill="#12150c"/></g><path d="M 373.9 582.1868312757201 Q 420.6045267489712 504.34595336076814 529.581755829904 582.1868312757201 Q 420.6045267489712 660.0277091906721 373.9 582.1868312757201 Z" fill="#c9a469" opacity="0.7218820730452674" transform="rotate(22.473765432098766 373.9 582.1868312757201)"/><path d="M 386.5687242798354 525.9913580246914 Q 426.175 459.98089849108374 518.5896433470508 525.9913580246914 Q 426.175 592.0018175582991 386.5687242798354 525.9913580246914 Z" fill="#c9a469" opacity="0.7936059670781892" transform="rotate(16.462962962962965 386.5687242798354 525.9913580246914)"/><path d="M 413.4349794238683 521.0304526748971 Q 442.0109053497942 473.40390946502055 508.6880658436214 521.0304526748971 Q 442.0109053497942 568.6569958847737 413.4349794238683 521.0304526748971 Z" fill="#c9a469" opacity="0.8476986882716049" transform="rotate(145.91512345679013 413.4349794238683 521.0304526748971)"/><path d="M 401.46172839506175 517.8226337448559 Q 451.59372427983544 434.2693072702332 568.5683813443072 517.8226337448559 Q 451.59372427983544 601.3759602194787 401.46172839506175 517.8226337448559 Z" fill="#c9a469" opacity="0.7290676440329218" transform="rotate(185.27469135802468 401.46172839506175 517.8226337448559)"/><path d="M 390.05637860082305 516.6641975308642 Q 436.62716049382715 439.04622770919065 545.2923182441701 516.6641975308642 Q 436.62716049382715 594.2821673525377 390.05637860082305 516.6641975308642 Z" fill="#c9a469" opacity="0.8437313528806584" transform="rotate(215.65277777777777 390.05637860082305 516.6641975308642)"/><path d="M 457.7374485596708 546.2958847736626 Q 494.3704732510288 485.2408436213992 579.8475308641976 546.2958847736626 Q 494.3704732510288 607.3509259259259 457.7374485596708 546.2958847736626 Z" fill="#c9a469" opacity="0.825486111111111" transform="rotate(184.82716049382717 457.7374485596708 546.2958847736626)"/><path d="M 444.80123456790125 514.5695473251029 Q 482.9718106995885 450.95192043895753 572.036488340192 514.5695473251029 Q 482.9718106995885 578.1871742112484 444.80123456790125 514.5695473251029 Z" fill="#c9a469" opacity="0.7025726594650206" transform="rotate(67.24228395061729 444.80123456790125 514.5695473251029)"/><g><ellipse cx="386.3" cy="547.0" rx="16.6" ry="10.2" fill="#c9a469" opacity="0.96" transform="rotate(10.918937851180317 386.3 547.0)"/><ellipse cx="377.7" cy="558.3" rx="16.6" ry="10.2" fill="#c9a469" opacity="0.96" transform="rotate(63.29871952458561 377.7 558.3)"/><ellipse cx="361.8" cy="557.5" rx="16.6" ry="10.2" fill="#c9a469" opacity="0.96" transform="rotate(122.52732155002406 361.8 557.5)"/><ellipse cx="354.4" cy="542.8" rx="16.6" ry="10.2" fill="#c9a469" opacity="0.96" transform="rotate(184.05114416681093 354.4 542.8)"/><ellipse cx="365.2" cy="528.8" rx="16.6" ry="10.2" fill="#c9a469" opacity="0.96" transform="rotate(250.74381829188317 365.2 528.8)"/><ellipse cx="380.3" cy="531.2" rx="16.6" ry="10.2" fill="#c9a469" opacity="0.96" transform="rotate(307.4414146250964 380.3 531.2)"/><circle cx="370.4783950617284" cy="543.9827160493827" r="9.6" fill="#12150c"/></g><g><ellipse cx="389.0" cy="545.0" rx="22.8" ry="14.0" fill="#f4ede3" opacity="0.96" transform="rotate(11.702002276045649 389.0 545.0)"/><ellipse cx="374.9" cy="561.3" rx="22.8" ry="14.0" fill="#f4ede3" opacity="0.96" transform="rotate(70.01693703558621 374.9 561.3)"/><ellipse cx="353.9" cy="558.0" rx="22.8" ry="14.0" fill="#f4ede3" opacity="0.96" transform="rotate(127.6208323502949 353.9 558.0)"/><ellipse cx="345.6" cy="536.9" rx="22.8" ry="14.0" fill="#f4ede3" opacity="0.96" transform="rotate(189.5093850450007 345.6 536.9)"/><ellipse cx="361.2" cy="519.3" rx="22.8" ry="14.0" fill="#f4ede3" opacity="0.96" transform="rotate(253.7815777438837 361.2 519.3)"/><ellipse cx="378.6" cy="521.5" rx="22.8" ry="14.0" fill="#f4ede3" opacity="0.96" transform="rotate(300.4988328540427 378.6 521.5)"/><circle cx="367.3506172839506" cy="540.5216049382716" r="13.2" fill="#12150c"/></g><g><ellipse cx="382.0" cy="573.2" rx="21.8" ry="13.3" fill="#c9a469" opacity="0.96" transform="rotate(8.605664963046033 382.0 573.2)"/><ellipse cx="371.1" cy="588.7" rx="21.8" ry="13.3" fill="#c9a469" opacity="0.96" transform="rotate(62.11279415001891 371.1 588.7)"/><ellipse cx="350.2" cy="588.0" rx="21.8" ry="13.3" fill="#c9a469" opacity="0.96" transform="rotate(121.6729689735655 350.2 588.0)"/><ellipse cx="340.3" cy="567.3" rx="21.8" ry="13.3" fill="#c9a469" opacity="0.96" transform="rotate(187.50723796575787 340.3 567.3)"/><ellipse cx="355.0" cy="549.9" rx="21.8" ry="13.3" fill="#c9a469" opacity="0.96" transform="rotate(252.93993545801928 355.0 549.9)"/><ellipse cx="374.1" cy="553.4" rx="21.8" ry="13.3" fill="#c9a469" opacity="0.96" transform="rotate(307.58178044296216 374.1 553.4)"/><circle cx="361.2228395061728" cy="570.0604938271605" r="12.6" fill="#12150c"/></g><g><ellipse cx="404.4" cy="526.1" rx="17.0" ry="10.4" fill="#f4ede3" opacity="0.96" transform="rotate(5.210912131749112 404.4 526.1)"/><ellipse cx="393.2" cy="540.2" rx="17.0" ry="10.4" fill="#f4ede3" opacity="0.96" transform="rotate(71.81516684399254 393.2 540.2)"/><ellipse cx="379.3" cy="538.4" rx="17.0" ry="10.4" fill="#f4ede3" opacity="0.96" transform="rotate(122.58866251767405 379.3 538.4)"/><ellipse cx="371.7" cy="524.1" rx="17.0" ry="10.4" fill="#f4ede3" opacity="0.96" transform="rotate(181.62568914865008 371.7 524.1)"/><ellipse cx="383.0" cy="509.0" rx="17.0" ry="10.4" fill="#f4ede3" opacity="0.96" transform="rotate(251.79987765385752 383.0 509.0)"/><ellipse cx="397.2" cy="510.9" rx="17.0" ry="10.4" fill="#f4ede3" opacity="0.96" transform="rotate(303.6233538548815 397.2 510.9)"/><circle cx="388.0950617283951" cy="524.5993827160494" r="9.8" fill="#12150c"/></g><g><ellipse cx="508.8" cy="586.4" rx="25.8" ry="15.8" fill="#c9a469" opacity="0.96" transform="rotate(5.098730001722533 508.8 586.4)"/><ellipse cx="490.8" cy="608.1" rx="25.8" ry="15.8" fill="#c9a469" opacity="0.96" transform="rotate(74.05715158053358 490.8 608.1)"/><ellipse cx="466.7" cy="602.1" rx="25.8" ry="15.8" fill="#c9a469" opacity="0.96" transform="rotate(133.94889920218827 466.7 602.1)"/><ellipse cx="459.4" cy="579.9" rx="25.8" ry="15.8" fill="#c9a469" opacity="0.96" transform="rotate(189.7696696915156 459.4 579.9)"/><ellipse cx="477.1" cy="560.2" rx="25.8" ry="15.8" fill="#c9a469" opacity="0.96" transform="rotate(253.94239055096614 477.1 560.2)"/><ellipse cx="498.8" cy="564.1" rx="25.8" ry="15.8" fill="#c9a469" opacity="0.96" transform="rotate(306.52848418763875 498.8 564.1)"/><circle cx="483.9672839506173" cy="584.1382716049383" r="15.0" fill="#12150c"/></g>
  <rect width="800" height="1100" fill="url(#v12)"/>
  <rect width="800" height="1100" filter="url(#n12)" opacity="0.5"/>
</svg>