<svg width="1000" height="750" viewBox="0 0 1000 750" xmlns="http://www.w3.org/2000/svg" role="img">
  <defs>
    <linearGradient id="g8" x1="0" y1="0" x2="1" y2="1">
      <stop offset="0%" stop-color="#7c8a56"/>
      <stop offset="100%" stop-color="#5f6b41"/>
    </linearGradient>
    <radialGradient id="soft8" cx="50%" cy="35%" r="75%">
      <stop offset="0%" stop-color="#ffffff" stop-opacity="0.35"/>
      <stop offset="100%" stop-color="#ffffff" stop-opacity="0"/>
    </radialGradient>
  </defs>
  <rect width="1000" height="750" fill="url(#g8)"/>
  <rect width="1000" height="750" fill="url(#soft8)"/>
  <path d="M 250 615 L 250 465 A 250 250 0 0 1 750 465 L 750 615" fill="none" stroke="#8a9767" stroke-width="2" opacity="0.5"/><g transform="rotate(20 320 315)"><ellipse cx="320" cy="315" rx="14.4" ry="6.4" fill="#5f6b41" opacity="0.6" transform="rotate(-30 320 315)"/><ellipse cx="327.2" cy="281.05887450304573" rx="14.4" ry="6.4" fill="#5f6b41" opacity="0.6" transform="rotate(-15 327.2 281.05887450304573)"/><ellipse cx="334.4" cy="267" rx="14.4" ry="6.4" fill="#5f6b41" opacity="0.6" transform="rotate(0 334.4 267)"/><ellipse cx="341.6" cy="281.05887450304573" rx="14.4" ry="6.4" fill="#5f6b41" opacity="0.6" transform="rotate(15 341.6 281.05887450304573)"/><ellipse cx="348.8" cy="315" rx="14.4" ry="6.4" fill="#5f6b41" opacity="0.6" transform="rotate(30 348.8 315)"/></g><g transform="rotate(-20 680 315)"><ellipse cx="680" cy="315" rx="14.4" ry="6.4" fill="#5f6b41" opacity="0.6" transform="rotate(-30 680 315)"/><ellipse cx="687.2" cy="281.05887450304573" rx="14.4" ry="6.4" fill="#5f6b41" opacity="0.6" transform="rotate(-15 687.2 281.05887450304573)"/><ellipse cx="694.4" cy="267" rx="14.4" ry="6.4" fill="#5f6b41" opacity="0.6" transform="rotate(0 694.4 267)"/><ellipse cx="701.6" cy="281.05887450304573" rx="14.4" ry="6.4" fill="#5f6b41" opacity="0.6" transform="rotate(15 701.6 281.05887450304573)"/><ellipse cx="708.8" cy="315" rx="14.4" ry="6.4" fill="#5f6b41" opacity="0.6" transform="rotate(30 708.8 315)"/></g><circle cx="530.2854938271605" cy="297.52443415637856" r="33.665059156378604" fill="#8a9767" opacity="0.15894590192043895"/><circle cx="569.6587791495199" cy="455.7195216049383" r="31.11522633744856" fill="#8a9767" opacity="0.1592824074074074"/><circle cx="868.034122085048" cy="597.5180041152263" r="23.46894290123457" fill="#8a9767" opacity="0.1398401063100137"/><circle cx="539.6090534979425" cy="86.34580761316873" r="20.216949588477366" fill="#b08d57" opacity="0.12685356652949245"/><circle cx="661.5440672153635" cy="174.51774691358025" r="26.961098251028808" fill="#b08d57" opacity="0.1650758744855967"/><circle cx="718.4070644718793" cy="86.57085905349794" r="32.08101851851852" fill="#8a9767" opacity="0.19555641289437586"/>
</svg>