<svg width="900" height="900" viewBox="0 0 900 900" xmlns="http://www.w3.org/2000/svg" role="img">
  <defs>
    <linearGradient id="g13" x1="0.2" y1="0" x2="0.8" y2="1">
      <stop offset="0%" stop-color="#f5e2d8"/>
      <stop offset="100%" stop-color="#e3bfab"/>
    </linearGradient>
    <radialGradient id="glow13" cx="50%" cy="30%" r="65%">
      <stop offset="0%" stop-color="#fff6e8" stop-opacity="0.55"/>
      <stop offset="100%" stop-color="#fff6e8" stop-opacity="0"/>
    </radialGradient>
    <filter id="n13"><feTurbulence type="fractalNoise" baseFrequency="0.85" numOctaves="2" stitchTiles="stitch" result="noise"/><feColorMatrix in="noise" type="matrix" values="0 0 0 0 0  0 0 0 0 0  0 0 0 0 0  0 0 0 0.035 0"/></filter>
  </defs>
  <rect width="900" height="900" fill="url(#g13)"/>
  <rect width="900" height="900" fill="url(#glow13)"/>
  <path d="M 450 558
    C 133.2 439.2, 252 144, 370.8 144
    C 430.2 144, 450 213.3, 450 213.3
    C 450 213.3, 469.8 144, 529.2 144
    C 648 144, 766.8 439.2, 450 558 Z" fill="none" stroke="#ad8253" stroke-width="6.3"/><g fill="none" stroke="#5b4f3d" stroke-width="2.0675057870370375"><ellipse cx="678.3" cy="432.9" rx="20.7" ry="12.4" transform="rotate(6.603309115745129 678.3 432.9)"/><ellipse cx="656.4" cy="455.3" rx="20.7" ry="12.4" transform="rotate(82.18316553170442 656.4 455.3)"/><ellipse cx="630.7" cy="442.7" rx="20.7" ry="12.4" transform="rotate(150.12063736549175 630.7 442.7)"/><ellipse cx="632.5" cy="414.4" rx="20.7" ry="12.4" transform="rotate(217.38317434801903 632.5 414.4)"/><ellipse cx="665.0" cy="407.3" rx="20.7" ry="12.4" transform="rotate(298.15325029703064 665.0 407.3)"/><circle cx="652.8821855576914" cy="429.9398680947124" r="5.8" fill="#5b4f3d" stroke="none"/></g><g fill="none" stroke="#5b4f3d" stroke-width="1.7457523148148153"><ellipse cx="582.0" cy="503.3" rx="17.5" ry="10.5" transform="rotate(0.5928521630173101 582.0 503.3)"/><ellipse cx="565.4" cy="524.1" rx="17.5" ry="10.5" transform="rotate(76.6855411733838 565.4 524.1)"/><ellipse cx="542.1" cy="514.7" rx="17.5" ry="10.5" transform="rotate(147.4701181002595 542.1 514.7)"/><ellipse cx="545.1" cy="487.8" rx="17.5" ry="10.5" transform="rotate(225.0069908534969 545.1 487.8)"/><ellipse cx="570.6" cy="484.0" rx="17.5" ry="10.5" transform="rotate(298.0138423561372 570.6 484.0)"/><circle cx="560.391150530091" cy="503.0788746773981" r="4.9" fill="#5b4f3d" stroke="none"/></g><g fill="none" stroke="#5b4f3d" stroke-width="1.6427488425925927"><ellipse cx="450.3" cy="527.2" rx="16.4" ry="9.9" transform="rotate(8.481926906981686 450.3 527.2)"/><ellipse cx="433.7" cy="544.3" rx="16.4" ry="9.9" transform="rotate(79.99449033281475 433.7 544.3)"/><ellipse cx="413.5" cy="536.0" rx="16.4" ry="9.9" transform="rotate(144.71349553963265 413.5 536.0)"/><ellipse cx="414.5" cy="511.2" rx="16.4" ry="9.9" transform="rotate(219.79230861622858 414.5 511.2)"/><ellipse cx="437.6" cy="505.3" rx="16.4" ry="9.9" transform="rotate(291.4021333961733 437.6 505.3)"/><circle cx="430.15463737635827" cy="524.2183341041928" r="4.6" fill="#5b4f3d" stroke="none"/></g><g fill="none" stroke="#5b4f3d" stroke-width="1.9834953703703704"><ellipse cx="330.8" cy="490.9" rx="19.8" ry="11.9" transform="rotate(11.171940176610812 330.8 490.9)"/><ellipse cx="313.9" cy="509.7" rx="19.8" ry="11.9" transform="rotate(73.0114198389698 313.9 509.7)"/><ellipse cx="286.4" cy="500.0" rx="19.8" ry="11.9" transform="rotate(145.67048831781668 286.4 500.0)"/><ellipse cx="287.1" cy="471.3" rx="19.8" ry="11.9" transform="rotate(217.01800217303594 287.1 471.3)"/><ellipse cx="316.5" cy="463.6" rx="19.8" ry="11.9" transform="rotate(293.59699795396097 316.5 463.6)"/><circle cx="306.70374695795203" cy="486.1301397781381" r="5.6" fill="#5b4f3d" stroke="none"/></g><g fill="none" stroke="#5b4f3d" stroke-width="1.6429918981481482"><ellipse cx="252.6" cy="402.2" rx="16.4" ry="9.9" transform="rotate(1.023454703493716 252.6 402.2)"/><ellipse cx="234.9" cy="422.0" rx="16.4" ry="9.9" transform="rotate(82.47436013128736 234.9 422.0)"/><ellipse cx="213.9" cy="410.7" rx="16.4" ry="9.9" transform="rotate(154.1608150690171 213.9 410.7)"/><ellipse cx="216.8" cy="388.6" rx="16.4" ry="9.9" transform="rotate(220.50379015812453 216.8 388.6)"/><ellipse cx="241.5" cy="383.7" rx="16.4" ry="9.9" transform="rotate(296.9589987610892 241.5 383.7)"/><circle cx="232.24940706721685" cy="401.83759201718954" r="4.6" fill="#5b4f3d" stroke="none"/></g><g fill="none" stroke="#5b4f3d" stroke-width="2.196238425925926"><ellipse cx="259.4" cy="302.4" rx="22.0" ry="13.2" transform="rotate(4.774500927068813 259.4 302.4)"/><ellipse cx="238.0" cy="326.8" rx="22.0" ry="13.2" transform="rotate(77.82556213612352 238.0 326.8)"/><ellipse cx="208.4" cy="313.3" rx="22.0" ry="13.2" transform="rotate(151.0858826222065 208.4 313.3)"/><ellipse cx="212.2" cy="281.7" rx="22.0" ry="13.2" transform="rotate(222.61023530308339 212.2 281.7)"/><ellipse cx="243.3" cy="275.3" rx="22.0" ry="13.2" transform="rotate(293.8486985491471 243.3 275.3)"/><circle cx="232.24940706721682" cy="300.1624079828106" r="6.1" fill="#5b4f3d" stroke="none"/></g><g fill="none" stroke="#5b4f3d" stroke-width="1.8432349537037038"><ellipse cx="329.5" cy="217.2" rx="18.4" ry="11.1" transform="rotate(3.3264856763086605 329.5 217.2)"/><ellipse cx="312.9" cy="237.9" rx="18.4" ry="11.1" transform="rotate(74.34390039030028 312.9 237.9)"/><ellipse cx="286.6" cy="226.7" rx="18.4" ry="11.1" transform="rotate(151.72456551420674 286.6 226.7)"/><ellipse cx="291.2" cy="199.1" rx="18.4" ry="11.1" transform="rotate(227.15705624211793 291.2 199.1)"/><ellipse cx="313.8" cy="194.1" rx="18.4" ry="11.1" transform="rotate(288.08581595234 313.8 194.1)"/><circle cx="306.7037469579519" cy="215.86986022186196" r="5.2" fill="#5b4f3d" stroke="none"/></g><g fill="none" stroke="#5b4f3d" stroke-width="2.1589814814814816"><ellipse cx="456.9" cy="178.0" rx="21.6" ry="13.0" transform="rotate(0.49912758541874963 456.9 178.0)"/><ellipse cx="436.7" cy="203.7" rx="21.6" ry="13.0" transform="rotate(75.84909352802306 436.7 203.7)"/><ellipse cx="407.3" cy="191.8" rx="21.6" ry="13.0" transform="rotate(148.4374264766069 407.3 191.8)"/><ellipse cx="411.7" cy="158.4" rx="21.6" ry="13.0" transform="rotate(226.50481570681725 411.7 158.4)"/><ellipse cx="441.4" cy="153.5" rx="21.6" ry="13.0" transform="rotate(294.9492255074899 441.4 153.5)"/><circle cx="430.1546373763582" cy="177.7816658958073" r="6.0" fill="#5b4f3d" stroke="none"/></g><g fill="none" stroke="#5b4f3d" stroke-width="2.0184780092592596"><ellipse cx="585.4" cy="199.0" rx="20.2" ry="12.1" transform="rotate(0.11214528860456699 585.4 199.0)"/><ellipse cx="567.0" cy="223.1" rx="20.2" ry="12.1" transform="rotate(74.70170428088093 567.0 223.1)"/><ellipse cx="539.9" cy="213.3" rx="20.2" ry="12.1" transform="rotate(145.04418414361245 539.9 213.3)"/><ellipse cx="542.5" cy="181.4" rx="20.2" ry="12.1" transform="rotate(224.47323233138684 542.5 181.4)"/><ellipse cx="571.1" cy="176.3" rx="20.2" ry="12.1" transform="rotate(295.34033404356944 571.1 176.3)"/><circle cx="560.3911505300908" cy="198.9211253226018" r="5.7" fill="#5b4f3d" stroke="none"/></g><g fill="none" stroke="#5b4f3d" stroke-width="1.6467245370370371"><ellipse cx="673.2" cy="274.2" rx="16.5" ry="9.9" transform="rotate(5.985257420071601 673.2 274.2)"/><ellipse cx="658.3" cy="291.8" rx="16.5" ry="9.9" transform="rotate(74.72145128307938 658.3 291.8)"/><ellipse cx="636.1" cy="283.7" rx="16.5" ry="9.9" transform="rotate(145.36455714942895 636.1 283.7)"/><ellipse cx="638.4" cy="257.7" rx="16.5" ry="9.9" transform="rotate(224.88202475003214 638.4 257.7)"/><ellipse cx="660.9" cy="253.3" rx="16.5" ry="9.9" transform="rotate(293.07886019478406 660.9 253.3)"/><circle cx="652.8821855576914" cy="272.06013190528756" r="4.6" fill="#5b4f3d" stroke="none"/></g><g stroke="#c99a5f" stroke-width="2.4299999999999997" fill="none" transform="rotate(-30 331.2 243)"><path d="M 331.2 243 Q 358.2 237.6 385.2 243" /><path d="M 344.7 241 q 6.4799999999999995 -8.64 2.7 -15.120000000000001" /><path d="M 358.2 245 q 6.4799999999999995 8.64 2.7 15.120000000000001" /><path d="M 371.7 241 q 6.4799999999999995 -8.64 2.7 -15.120000000000001" /></g><g stroke="#c99a5f" stroke-width="2.4299999999999997" fill="none" transform="rotate(30 568.8 243)"><path d="M 568.8 243 Q 595.8 237.6 622.8 243" /><path d="M 582.3 241 q 6.4799999999999995 -8.64 2.7 -15.120000000000001" /><path d="M 595.8 245 q 6.4799999999999995 8.64 2.7 15.120000000000001" /><path d="M 609.3 241 q 6.4799999999999995 -8.64 2.7 -15.120000000000001" /></g>
    <rect x="120.60000000000001" y="711.7930169753087" width="10.8" height="62.20698302469136" rx="5.4" fill="none" stroke="#5b4f3d" stroke-width="1.296"/>
    <circle cx="126.00000000000001" cy="694.5130169753087" r="28.080000000000002" fill="#c99a5f" opacity="0.28"/>
    <path d="M 126.00000000000001 709.7930169753087 q 5.4 -15.12 0 -25.92 q -5.4 10.8 0 25.92" fill="#c99a5f"/>
  
    <rect x="282.6" y="700.1942708333333" width="10.8" height="73.80572916666667" rx="5.4" fill="none" stroke="#5b4f3d" stroke-width="1.296"/>
    <circle cx="288" cy="682.9142708333334" r="28.080000000000002" fill="#c99a5f" opacity="0.28"/>
    <path d="M 288 698.1942708333333 q 5.4 -15.12 0 -25.92 q -5.4 10.8 0 25.92" fill="#c99a5f"/>
  
    <rect x="444.6" y="707.7564043209877" width="10.8" height="66.24359567901234" rx="5.4" fill="none" stroke="#5b4f3d" stroke-width="1.296"/>
    <circle cx="450" cy="690.4764043209877" r="28.080000000000002" fill="#c99a5f" opacity="0.28"/>
    <path d="M 450 705.7564043209877 q 5.4 -15.12 0 -25.92 q -5.4 10.8 0 25.92" fill="#c99a5f"/>
  
    <rect x="606.6" y="703.6599729938272" width="10.8" height="70.34002700617285" rx="5.4" fill="none" stroke="#5b4f3d" stroke-width="1.296"/>
    <circle cx="612" cy="686.3799729938272" r="28.080000000000002" fill="#c99a5f" opacity="0.28"/>
    <path d="M 612 701.6599729938272 q 5.4 -15.12 0 -25.92 q -5.4 10.8 0 25.92" fill="#c99a5f"/>
  
    <rect x="768.6" y="717.752199074074" width="10.8" height="56.24780092592593" rx="5.4" fill="none" stroke="#5b4f3d" stroke-width="1.296"/>
    <circle cx="774" cy="700.4721990740741" r="28.080000000000002" fill="#c99a5f" opacity="0.28"/>
    <path d="M 774 715.752199074074 q 5.4 -15.12 0 -25.92 q -5.4 10.8 0 25.92" fill="#c99a5f"/>
  
  <rect width="900" height="900" filter="url(#n13)" opacity="0.4"/>
</svg>