<svg width="1400" height="800" viewBox="0 0 1400 800" xmlns="http://www.w3.org/2000/svg" role="img">
  <defs>
    <linearGradient id="g15" x1="0.1" y1="0" x2="0.9" y2="1">
      <stop offset="0%" stop-color="#332a20"/>
      <stop offset="100%" stop-color="#191410"/>
    </linearGradient>
    <radialGradient id="v15" cx="50%" cy="42%" r="72%">
      <stop offset="0%" stop-color="#000000" stop-opacity="0"/>
      <stop offset="100%" stop-color="#000000" stop-opacity="0.3"/>
    </radialGradient>
    <filter id="n15"><feTurbulence type="fractalNoise" baseFrequency="0.8" numOctaves="2" stitchTiles="stitch" result="noise"/><feColorMatrix in="noise" type="matrix" values="0 0 0 0 0  0 0 0 0 0  0 0 0 0 0  0 0 0 0.06 0"/></filter>
  </defs>
  <rect width="1400" height="800" fill="url(#g15)"/>
  <rect x="0" y="496" width="1400" height="304" fill="#0f0c09" opacity="0.55"/><rect x="0" y="496" width="1400" height="4.8" fill="#c9a469" opacity="0.6"/><rect x="212.8" y="255.24965706447188" width="22.400000000000002" height="240.75034293552812" rx="11.200000000000001" fill="#e8dcc8" opacity="0.95"/><ellipse cx="224" cy="239.24965706447188" rx="3.2354700360082305" ry="7.395360082304527" fill="#f0b74a"/><ellipse cx="224" cy="243.24965706447188" rx="22.18608024691358" ry="33.27912037037037" fill="#f0b74a" opacity="0.22" filter="blur(2px)"/><rect x="520.8" y="281.62345679012344" width="22.400000000000002" height="214.37654320987653" rx="11.200000000000001" fill="#e8dcc8" opacity="0.95"/><ellipse cx="532" cy="265.62345679012344" rx="3.9873849022633747" ry="9.114022633744856" fill="#f0b74a"/><ellipse cx="532" cy="269.62345679012344" rx="27.342067901234568" ry="41.01310185185185" fill="#f0b74a" opacity="0.22" filter="blur(2px)"/><rect x="856.8" y="318.9437585733882" width="22.400000000000002" height="177.0562414266118" rx="11.200000000000001" fill="#e8dcc8" opacity="0.95"/><ellipse cx="868" cy="302.9437585733882" rx="2.9882195216049383" ry="6.830216049382716" fill="#f0b74a"/><ellipse cx="868" cy="306.9437585733882" rx="20.490648148148146" ry="30.73597222222222" fill="#f0b74a" opacity="0.22" filter="blur(2px)"/><rect x="1164.8" y="295.11179698216733" width="22.400000000000002" height="200.88820301783264" rx="11.200000000000001" fill="#e8dcc8" opacity="0.95"/><ellipse cx="1176" cy="279.11179698216733" rx="3.7898257458847735" ry="8.662458847736625" fill="#f0b74a"/><ellipse cx="1176" cy="283.11179698216733" rx="25.987376543209876" ry="38.981064814814815" fill="#f0b74a" opacity="0.22" filter="blur(2px)"/><path d="M 430.8555555555556 463.8090534979424 Q 480.132304526749 381.68113854595333 595.1113854595337 463.8090534979424 Q 480.132304526749 545.9369684499314 430.8555555555556 463.8090534979424 Z" fill="#c9a469" opacity="0.8442084619341563" transform="rotate(96.0570987654321 430.8555555555556 463.8090534979424)"/><path d="M 364.85761316872436 440.9469135802469 Q 407.3694444444445 370.09386145404665 506.5637174211249 440.9469135802469 Q 407.3694444444445 511.7999657064472 364.85761316872436 440.9469135802469 Z" fill="#b08d57" opacity="0.8430156893004115" transform="rotate(35.0462962962963 364.85761316872436 440.9469135802469)"/><path d="M 393.0572016460906 453.319341563786 Q 420.87201646090546 406.961316872428 485.77325102880667 453.319341563786 Q 420.87201646090546 499.677366255144 393.0572016460906 453.319341563786 Z" fill="#c9a469" opacity="0.7991917438271604" transform="rotate(49.498456790123456 393.0572016460906 453.319341563786)"/><path d="M 366.41728395061733 451.4448559670782 Q 408.1215020576132 381.9378257887517 505.4313443072703 451.4448559670782 Q 408.1215020576132 520.9518861454046 366.41728395061733 451.4448559670782 Z" fill="#b08d57" opacity="0.7076440329218107" transform="rotate(273.858024691358 366.41728395061733 451.4448559670782)"/><path d="M 420.345267489712 531.6197530864198 Q 446.82160493827166 487.492524005487 508.59972565157756 531.6197530864198 Q 446.82160493827166 575.7469821673526 420.345267489712 531.6197530864198 Z" fill="#c9a469" opacity="0.8243910751028806" transform="rotate(69.23611111111111 420.345267489712 531.6197530864198)"/><g><ellipse cx="482.6" cy="421.9" rx="29.0" ry="17.8" fill="#b08d57" opacity="0.96" transform="rotate(7.947799970651523 482.6 421.9)"/><ellipse cx="462.6" cy="445.0" rx="29.0" ry="17.8" fill="#b08d57" opacity="0.96" transform="rotate(73.95890778850155 462.6 445.0)"/><ellipse cx="439.7" cy="441.7" rx="29.0" ry="17.8" fill="#b08d57" opacity="0.96" transform="rotate(122.59191684328512 439.7 441.7)"/><ellipse cx="426.8" cy="416.5" rx="29.0" ry="17.8" fill="#b08d57" opacity="0.96" transform="rotate(183.24628190058849 426.8 416.5)"/><ellipse cx="441.6" cy="393.3" rx="29.0" ry="17.8" fill="#b08d57" opacity="0.96" transform="rotate(241.81910661421313 441.6 393.3)"/><ellipse cx="471.3" cy="395.3" rx="29.0" ry="17.8" fill="#b08d57" opacity="0.96" transform="rotate(305.958670193853 471.3 395.3)"/><circle cx="454.83148148148155" cy="418.03950617283954" r="16.8" fill="#0f0c09"/></g><g><ellipse cx="389.2" cy="545.5" rx="16.8" ry="10.3" fill="#e8dcc8" opacity="0.96" transform="rotate(5.680394652922195 389.2 545.5)"/><ellipse cx="378.7" cy="559.1" rx="16.8" ry="10.3" fill="#e8dcc8" opacity="0.96" transform="rotate(69.66890840231271 378.7 559.1)"/><ellipse cx="363.1" cy="556.7" rx="16.8" ry="10.3" fill="#e8dcc8" opacity="0.96" transform="rotate(127.81805676279922 363.1 556.7)"/><ellipse cx="357.1" cy="541.0" rx="16.8" ry="10.3" fill="#e8dcc8" opacity="0.96" transform="rotate(190.42870132894043 357.1 541.0)"/><ellipse cx="368.3" cy="528.4" rx="16.8" ry="10.3" fill="#e8dcc8" opacity="0.96" transform="rotate(252.94724234005164 368.3 528.4)"/><ellipse cx="382.1" cy="530.4" rx="16.8" ry="10.3" fill="#e8dcc8" opacity="0.96" transform="rotate(303.9233658347993 382.1 530.4)"/><circle cx="373.03703703703707" cy="543.9117283950617" r="9.7" fill="#0f0c09"/></g><g><ellipse cx="455.9" cy="564.6" rx="25.1" ry="15.4" fill="#b08d57" opacity="0.96" transform="rotate(13.857532475598498 455.9 564.6)"/><ellipse cx="442.5" cy="580.8" rx="25.1" ry="15.4" fill="#b08d57" opacity="0.96" transform="rotate(65.08049349782658 442.5 580.8)"/><ellipse cx="419.4" cy="579.4" rx="25.1" ry="15.4" fill="#b08d57" opacity="0.96" transform="rotate(122.00282250531305 419.4 579.4)"/><ellipse cx="408.3" cy="554.5" rx="25.1" ry="15.4" fill="#b08d57" opacity="0.96" transform="rotate(190.15073279985984 408.3 554.5)"/><ellipse cx="422.3" cy="536.6" rx="25.1" ry="15.4" fill="#b08d57" opacity="0.96" transform="rotate(245.87203144975464 422.3 536.6)"/><ellipse cx="445.0" cy="538.1" rx="25.1" ry="15.4" fill="#b08d57" opacity="0.96" transform="rotate(301.58964595744834 445.0 538.1)"/><circle cx="432.24259259259264" cy="558.783950617284" r="14.6" fill="#0f0c09"/></g><path d="M 1009.6777777777778 465.29794238683127 Q 1059.9934156378602 381.43854595336074 1177.3965706447188 465.29794238683127 Q 1059.9934156378602 549.1573388203018 1009.6777777777778 465.29794238683127 Z" fill="#c9a469" opacity="0.7319515174897119" transform="rotate(206.64043209876544 1009.6777777777778 465.29794238683127)"/><path d="M 977.0131687242798 491.7691358024691 Q 1024.8972222222221 411.96237997256515 1136.6266803840879 491.7691358024691 Q 1024.8972222222221 571.5758916323731 977.0131687242798 491.7691358024691 Z" fill="#b08d57" opacity="0.8328420781893003" transform="rotate(150.62962962962962 977.0131687242798 491.7691358024691)"/><path d="M 1022.5460905349794 441.47489711934156 Q 1056.0664609053497 385.60761316872424 1134.280658436214 441.47489711934156 Q 1056.0664609053497 497.3421810699589 1022.5460905349794 441.47489711934156 Z" fill="#c9a469" opacity="0.7161014660493826" transform="rotate(110.08179012345678 1022.5460905349794 441.47489711934156)"/><path d="M 997.2395061728395 456.93374485596706 Q 1040.9826131687241 384.0285665294924 1143.0498628257888 456.93374485596706 Q 1040.9826131687241 529.8389231824417 997.2395061728395 456.93374485596706 Z" fill="#b08d57" opacity="0.8266370884773662" transform="rotate(219.44135802469137 997.2395061728395 456.93374485596706)"/><path d="M 1036.5008230452675 442.441975308642 Q 1081.3493827160494 367.69437585733885 1185.9960219478737 442.441975308642 Q 1081.3493827160494 517.1895747599451 1036.5008230452675 442.441975308642 Z" fill="#c9a469" opacity="0.8204674639917695" transform="rotate(199.81944444444443 1036.5008230452675 442.441975308642)"/><path d="M 1026.848559670782 522.740329218107 Q 1058.4260288065843 470.1112139917696 1132.106790123457 522.740329218107 Q 1058.4260288065843 575.3694444444445 1026.848559670782 522.740329218107 Z" fill="#b08d57" opacity="0.7813888888888888" transform="rotate(358.9938271604938 1026.848559670782 522.740329218107)"/><g><ellipse cx="1077.4" cy="478.4" rx="26.0" ry="15.9" fill="#b08d57" opacity="0.96" transform="rotate(3.59455614334207 1077.4 478.4)"/><ellipse cx="1063.3" cy="499.4" rx="26.0" ry="15.9" fill="#b08d57" opacity="0.96" transform="rotate(63.90629597593371 1063.3 499.4)"/><ellipse cx="1036.2" cy="496.1" rx="26.0" ry="15.9" fill="#b08d57" opacity="0.96" transform="rotate(129.96161350019815 1036.2 496.1)"/><ellipse cx="1027.5" cy="473.1" rx="26.0" ry="15.9" fill="#b08d57" opacity="0.96" transform="rotate(188.7186453238829 1027.5 473.1)"/><ellipse cx="1042.6" cy="453.7" rx="26.0" ry="15.9" fill="#b08d57" opacity="0.96" transform="rotate(247.29515417970867 1042.6 453.7)"/><ellipse cx="1065.9" cy="455.7" rx="26.0" ry="15.9" fill="#b08d57" opacity="0.96" transform="rotate(302.72908973790993 1065.9 455.7)"/><circle cx="1052.29012345679" cy="476.8685185185185" r="15.1" fill="#0f0c09"/></g><g><ellipse cx="1002.2" cy="499.4" rx="24.6" ry="15.1" fill="#e8dcc8" opacity="0.96" transform="rotate(10.511717333207535 1002.2 499.4)"/><ellipse cx="986.3" cy="517.7" rx="24.6" ry="15.1" fill="#e8dcc8" opacity="0.96" transform="rotate(71.58607460144785 986.3 517.7)"/><ellipse cx="964.8" cy="514.3" rx="24.6" ry="15.1" fill="#e8dcc8" opacity="0.96" transform="rotate(126.06950147173906 964.8 514.3)"/><ellipse cx="955.1" cy="493.1" rx="24.6" ry="15.1" fill="#e8dcc8" opacity="0.96" transform="rotate(184.79337601561298 955.1 493.1)"/><ellipse cx="970.7" cy="472.7" rx="24.6" ry="15.1" fill="#e8dcc8" opacity="0.96" transform="rotate(250.10081267303354 970.7 472.7)"/><ellipse cx="995.4" cy="478.0" rx="24.6" ry="15.1" fill="#e8dcc8" opacity="0.96" transform="rotate(314.2551128214781 995.4 478.0)"/><circle cx="978.829012345679" cy="495.0740740740741" r="14.3" fill="#0f0c09"/></g><g><ellipse cx="1035.5" cy="514.7" rx="26.4" ry="16.2" fill="#b08d57" opacity="0.96" transform="rotate(9.968490565640407 1035.5 514.7)"/><ellipse cx="1022.7" cy="532.6" rx="26.4" ry="16.2" fill="#b08d57" opacity="0.96" transform="rotate(61.062506610826446 1022.7 532.6)"/><ellipse cx="996.9" cy="532.0" rx="26.4" ry="16.2" fill="#b08d57" opacity="0.96" transform="rotate(121.87897392498267 996.9 532.0)"/><ellipse cx="984.9" cy="508.4" rx="26.4" ry="16.2" fill="#b08d57" opacity="0.96" transform="rotate(184.15067740861338 984.9 508.4)"/><ellipse cx="999.7" cy="487.0" rx="26.4" ry="16.2" fill="#b08d57" opacity="0.96" transform="rotate(245.44608320892578 999.7 487.0)"/><ellipse cx="1026.0" cy="490.0" rx="26.4" ry="16.2" fill="#b08d57" opacity="0.96" transform="rotate(307.5777892889109 1026.0 490.0)"/><circle cx="1010.3679012345679" cy="510.27962962962965" r="15.3" fill="#0f0c09"/></g><g><ellipse cx="1059.1" cy="560.4" rx="21.0" ry="12.9" fill="#e8dcc8" opacity="0.96" transform="rotate(5.545862060208328 1059.1 560.4)"/><ellipse cx="1047.6" cy="576.8" rx="21.0" ry="12.9" fill="#e8dcc8" opacity="0.96" transform="rotate(64.56446798017832 1047.6 576.8)"/><ellipse cx="1028.5" cy="575.9" rx="21.0" ry="12.9" fill="#e8dcc8" opacity="0.96" transform="rotate(120.9710170794966 1028.5 575.9)"/><ellipse cx="1018.9" cy="554.8" rx="21.0" ry="12.9" fill="#e8dcc8" opacity="0.96" transform="rotate(190.37153572245182 1018.9 554.8)"/><ellipse cx="1032.4" cy="539.2" rx="21.0" ry="12.9" fill="#e8dcc8" opacity="0.96" transform="rotate(251.23589688522364 1032.4 539.2)"/><ellipse cx="1049.3" cy="541.0" rx="21.0" ry="12.9" fill="#e8dcc8" opacity="0.96" transform="rotate(300.6020502380464 1049.3 541.0)"/><circle cx="1038.9067901234569" cy="558.4851851851852" r="12.2" fill="#0f0c09"/></g><g><ellipse cx="981.3" cy="532.0" rx="25.7" ry="15.8" fill="#b08d57" opacity="0.96" transform="rotate(0.8248180364789467 981.3 532.0)"/><ellipse cx="964.4" cy="555.3" rx="25.7" ry="15.8" fill="#b08d57" opacity="0.96" transform="rotate(71.34900005080054 964.4 555.3)"/><ellipse cx="941.5" cy="551.6" rx="25.7" ry="15.8" fill="#b08d57" opacity="0.96" transform="rotate(126.92661715484853 941.5 551.6)"/><ellipse cx="932.2" cy="526.2" rx="25.7" ry="15.8" fill="#b08d57" opacity="0.96" transform="rotate(192.71299229842532 932.2 526.2)"/><ellipse cx="944.9" cy="509.6" rx="25.7" ry="15.8" fill="#b08d57" opacity="0.96" transform="rotate(242.40335016495365 944.9 509.6)"/><ellipse cx="972.8" cy="513.0" rx="25.7" ry="15.8" fill="#b08d57" opacity="0.96" transform="rotate(311.23282676672267 972.8 513.0)"/><circle cx="956.4456790123456" cy="531.6907407407407" r="14.9" fill="#0f0c09"/></g><path d="M 735.1097942386831 146.8256790123457 Q 756.7474074074074 110.76299039780523 807.2351714677641 146.8256790123457 Q 756.7474074074074 182.88836762688615 735.1097942386831 146.8256790123457 Z" fill="#c9a469" opacity="0.7942772633744856" transform="rotate(124.74074074074073 735.1097942386831 146.8256790123457)"/><path d="M 662.0250205761317 142.1458436213992 Q 698.127242798354 81.97547325102882 782.3657613168725 142.1458436213992 Q 698.127242798354 202.3162139917696 662.0250205761317 142.1458436213992 Z" fill="#b08d57" opacity="0.8303144290123456" transform="rotate(10.859567901234568 662.0250205761317 142.1458436213992)"/><path d="M 694.401975308642 147.40181069958848 Q 721.9712757201646 101.4529766803841 786.2996433470508 147.40181069958848 Q 721.9712757201646 193.35064471879286 694.401975308642 147.40181069958848 Z" fill="#c9a469" opacity="0.7602944958847736" transform="rotate(206.8858024691358 694.401975308642 147.40181069958848)"/><path d="M 684.5665843621399 137.2306172839506 Q 724.0424691358024 71.43747599451302 816.1528669410151 137.2306172839506 Q 724.0424691358024 203.0237585733882 684.5665843621399 137.2306172839506 Z" fill="#b08d57" opacity="0.790235982510288" transform="rotate(313.93055555555554 684.5665843621399 137.2306172839506)"/><path d="M 669.7336625514404 109.0248559670782 Q 692.5482304526749 71.00057613168724 745.7822222222222 109.0248559670782 Q 692.5482304526749 147.04913580246915 669.7336625514404 109.0248559670782 Z" fill="#c9a469" opacity="0.8039351851851851" transform="rotate(159.7716049382716 669.7336625514404 109.0248559670782)"/><g><ellipse cx="674.9" cy="170.5" rx="16.7" ry="10.2" fill="#b08d57" opacity="0.96" transform="rotate(7.604376515129544 674.9 170.5)"/><ellipse cx="663.3" cy="183.9" rx="16.7" ry="10.2" fill="#b08d57" opacity="0.96" transform="rotate(74.01705583291051 663.3 183.9)"/><ellipse cx="647.8" cy="180.1" rx="16.7" ry="10.2" fill="#b08d57" opacity="0.96" transform="rotate(133.44091739501263 647.8 180.1)"/><ellipse cx="643.1" cy="165.1" rx="16.7" ry="10.2" fill="#b08d57" opacity="0.96" transform="rotate(191.93269098021088 643.1 165.1)"/><ellipse cx="652.6" cy="153.6" rx="16.7" ry="10.2" fill="#b08d57" opacity="0.96" transform="rotate(247.0608427357123 652.6 153.6)"/><ellipse cx="667.1" cy="154.5" rx="16.7" ry="10.2" fill="#b08d57" opacity="0.96" transform="rotate(300.63797062450806 667.1 154.5)"/><circle cx="658.880987654321" cy="168.41037037037037" r="9.7" fill="#0f0c09"/></g><g><ellipse cx="709.1" cy="166.6" rx="13.7" ry="8.4" fill="#e8dcc8" opacity="0.96" transform="rotate(12.13421355861658 709.1 166.6)"/><ellipse cx="701.7" cy="175.8" rx="13.7" ry="8.4" fill="#e8dcc8" opacity="0.96" transform="rotate(64.98556543377563 701.7 175.8)"/><ellipse cx="688.1" cy="174.4" rx="13.7" ry="8.4" fill="#e8dcc8" opacity="0.96" transform="rotate(127.16148122017513 688.1 174.4)"/><ellipse cx="682.9" cy="162.5" rx="13.7" ry="8.4" fill="#e8dcc8" opacity="0.96" transform="rotate(185.62009752556253 682.9 162.5)"/><ellipse cx="691.0" cy="151.5" rx="13.7" ry="8.4" fill="#e8dcc8" opacity="0.96" transform="rotate(247.4791770826587 691.0 151.5)"/><ellipse cx="704.6" cy="153.6" rx="13.7" ry="8.4" fill="#e8dcc8" opacity="0.96" transform="rotate(309.7766695616979 704.6 153.6)"/><circle cx="696.112098765432" cy="163.77481481481482" r="8.0" fill="#0f0c09"/></g><g><ellipse cx="714.9" cy="158.8" rx="13.3" ry="8.2" fill="#b08d57" opacity="0.96" transform="rotate(9.20366264467102 714.9 158.8)"/><ellipse cx="707.3" cy="168.6" rx="13.3" ry="8.2" fill="#b08d57" opacity="0.96" transform="rotate(66.39861817504638 707.3 168.6)"/><ellipse cx="695.6" cy="167.8" rx="13.3" ry="8.2" fill="#b08d57" opacity="0.96" transform="rotate(120.58362952704032 695.6 167.8)"/><ellipse cx="689.3" cy="156.2" rx="13.3" ry="8.2" fill="#b08d57" opacity="0.96" transform="rotate(182.59007477218455 689.3 156.2)"/><ellipse cx="695.8" cy="145.5" rx="13.3" ry="8.2" fill="#b08d57" opacity="0.96" transform="rotate(240.43712347217252 695.8 145.5)"/><ellipse cx="708.7" cy="145.6" rx="13.3" ry="8.2" fill="#b08d57" opacity="0.96" transform="rotate(300.7120218827522 708.7 145.6)"/><circle cx="702.1432098765432" cy="156.73925925925926" r="7.7" fill="#0f0c09"/></g><g><ellipse cx="723.4" cy="176.8" rx="18.3" ry="11.2" fill="#e8dcc8" opacity="0.96" transform="rotate(2.393709992860512 723.4 176.8)"/><ellipse cx="712.5" cy="192.4" rx="18.3" ry="11.2" fill="#e8dcc8" opacity="0.96" transform="rotate(67.51325539801982 712.5 192.4)"/><ellipse cx="694.0" cy="189.3" rx="18.3" ry="11.2" fill="#e8dcc8" opacity="0.96" transform="rotate(131.6122934134464 694.0 189.3)"/><ellipse cx="688.2" cy="174.1" rx="18.3" ry="11.2" fill="#e8dcc8" opacity="0.96" transform="rotate(186.4236089396445 688.2 174.1)"/><ellipse cx="698.0" cy="160.2" rx="18.3" ry="11.2" fill="#e8dcc8" opacity="0.96" transform="rotate(243.83961300209197 698.0 160.2)"/><ellipse cx="716.1" cy="161.7" rx="18.3" ry="11.2" fill="#e8dcc8" opacity="0.96" transform="rotate(305.67290356377976 716.1 161.7)"/><circle cx="705.7743209876543" cy="176.1037037037037" r="10.6" fill="#0f0c09"/></g><g><ellipse cx="755.1" cy="138.7" rx="20.2" ry="12.4" fill="#b08d57" opacity="0.96" transform="rotate(9.609286701023283 755.1 138.7)"/><ellipse cx="741.9" cy="154.0" rx="20.2" ry="12.4" fill="#b08d57" opacity="0.96" transform="rotate(71.91046332226362 741.9 154.0)"/><ellipse cx="725.8" cy="152.2" rx="20.2" ry="12.4" fill="#b08d57" opacity="0.96" transform="rotate(120.85662446414932 725.8 152.2)"/><ellipse cx="716.4" cy="133.3" rx="20.2" ry="12.4" fill="#b08d57" opacity="0.96" transform="rotate(186.37774136923957 716.4 133.3)"/><ellipse cx="728.2" cy="117.5" rx="20.2" ry="12.4" fill="#b08d57" opacity="0.96" transform="rotate(246.94368701371408 728.2 117.5)"/><ellipse cx="749.4" cy="121.4" rx="20.2" ry="12.4" fill="#b08d57" opacity="0.96" transform="rotate(313.9163559460777 749.4 121.4)"/><circle cx="735.8054320987654" cy="135.46814814814815" r="11.7" fill="#0f0c09"/></g>
  <rect width="1400" height="800" fill="url(#v15)"/>
  <rect width="1400" height="800" filter="url(#n15)" opacity="0.5"/>
</svg>