<svg width="900" height="900" viewBox="0 0 900 900" xmlns="http://www.w3.org/2000/svg" role="img">
  <defs>
    <linearGradient id="g9" x1="0.1" y1="0" x2="0.9" y2="1">
      <stop offset="0%" stop-color="#5c342c"/>
      <stop offset="100%" stop-color="#2c1815"/>
    </linearGradient>
    <radialGradient id="v9" cx="50%" cy="42%" r="72%">
      <stop offset="0%" stop-color="#000000" stop-opacity="0"/>
      <stop offset="100%" stop-color="#000000" stop-opacity="0.3"/>
    </radialGradient>
    <filter id="n9"><feTurbulence type="fractalNoise" baseFrequency="0.8" numOctaves="2" stitchTiles="stitch" result="noise"/><feColorMatrix in="noise" type="matrix" values="0 0 0 0 0  0 0 0 0 0  0 0 0 0 0  0 0 0 0.06 0"/></filter>
  </defs>
  <rect width="900" height="900" fill="url(#g9)"/>
  <path d="M 247.9513425925926 167.83601851851853 Q 330.8712037037037 29.636250000000018 524.3508796296296 167.83601851851853 Q 330.8712037037037 306.03578703703704 247.9513425925926 167.83601851851853 Z" fill="#e8b45a" opacity="0.7949402006172839" transform="rotate(83.73919753086419 247.9513425925926 167.83601851851853)"/><path d="M 160.16916666666668 175.0177314814815 Q 238.34417824074075 44.72604552469136 420.75253858024695 175.0177314814815 Q 238.34417824074075 305.3094174382716 160.16916666666668 175.0177314814815 Z" fill="#c9a469" opacity="0.7677443415637859" transform="rotate(49.20987654320987 160.16916666666668 175.0177314814815)"/><path d="M 178.87310185185186 271.1188888888889 Q 266.31645833333334 125.37996141975307 470.35095679012346 271.1188888888889 Q 266.31645833333334 416.8578163580247 178.87310185185186 271.1188888888889 Z" fill="#e8b45a" opacity="0.8266210133744856" transform="rotate(292.36574074074076 178.87310185185186 271.1188888888889)"/><path d="M 291.0298148148148 225.50615740740741 Q 381.4963773148148 74.72855324074075 592.5850231481481 225.50615740740741 Q 381.4963773148148 376.2837615740741 291.0298148148148 225.50615740740741 Z" fill="#c9a469" opacity="0.7220331790123456" transform="rotate(200.98456790123458 291.0298148148148 225.50615740740741)"/><path d="M 150.40597222222223 249.5462037037037 Q 246.29226851851854 89.73570987654321 470.0269598765432 249.5462037037037 Q 246.29226851851854 409.35669753086415 150.40597222222223 249.5462037037037 Z" fill="#e8b45a" opacity="0.8488882458847736" transform="rotate(149.5108024691358 150.40597222222223 249.5462037037037)"/><path d="M 138.36824074074076 282.60569444444445 Q 208.2124652777778 166.1986535493827 371.1823225308642 282.60569444444445 Q 208.2124652777778 399.0127353395062 138.36824074074076 282.60569444444445 Z" fill="#c9a469" opacity="0.813204732510288" transform="rotate(99.05555555555554 138.36824074074076 282.60569444444445)"/><g><ellipse cx="281.0" cy="119.9" rx="34.5" ry="21.1" fill="#c9a469" opacity="0.96" transform="rotate(9.4326934848457 281.0 119.9)"/><ellipse cx="263.5" cy="144.0" rx="34.5" ry="21.1" fill="#c9a469" opacity="0.96" transform="rotate(62.34667577742516 263.5 144.0)"/><ellipse cx="224.8" cy="138.4" rx="34.5" ry="21.1" fill="#c9a469" opacity="0.96" transform="rotate(134.0903088603444 224.8 138.4)"/><ellipse cx="214.9" cy="110.2" rx="34.5" ry="21.1" fill="#c9a469" opacity="0.96" transform="rotate(187.21797140059357 214.9 110.2)"/><ellipse cx="231.9" cy="85.2" rx="34.5" ry="21.1" fill="#c9a469" opacity="0.96" transform="rotate(241.04930510127213 231.9 85.2)"/><ellipse cx="268.6" cy="88.1" rx="34.5" ry="21.1" fill="#c9a469" opacity="0.96" transform="rotate(308.0072374648309 268.6 88.1)"/><circle cx="248.05208333333331" cy="114.42493055555556" r="20.0" fill="#1a0f0d"/></g><g><ellipse cx="272.0" cy="156.9" rx="38.3" ry="23.5" fill="#f0ddc4" opacity="0.96" transform="rotate(3.8827174658460297 272.0 156.9)"/><ellipse cx="250.4" cy="188.1" rx="38.3" ry="23.5" fill="#f0ddc4" opacity="0.96" transform="rotate(65.51706434866892 250.4 188.1)"/><ellipse cx="211.8" cy="183.2" rx="38.3" ry="23.5" fill="#f0ddc4" opacity="0.96" transform="rotate(128.87190563945282 211.8 183.2)"/><ellipse cx="198.0" cy="154.1" rx="38.3" ry="23.5" fill="#f0ddc4" opacity="0.96" transform="rotate(180.37486146897226 198.0 154.1)"/><ellipse cx="221.7" cy="119.8" rx="38.3" ry="23.5" fill="#f0ddc4" opacity="0.96" transform="rotate(248.8948701258403 221.7 119.8)"/><ellipse cx="260.5" cy="127.4" rx="38.3" ry="23.5" fill="#f0ddc4" opacity="0.96" transform="rotate(313.4323210632099 260.5 127.4)"/><circle cx="235.05770833333335" cy="154.34305555555557" r="22.2" fill="#1a0f0d"/></g><g><ellipse cx="193.9" cy="192.7" rx="48.2" ry="29.5" fill="#c9a469" opacity="0.96" transform="rotate(5.1962983676843475 193.9 192.7)"/><ellipse cx="167.3" cy="230.7" rx="48.2" ry="29.5" fill="#c9a469" opacity="0.96" transform="rotate(64.80805118204773 167.3 230.7)"/><ellipse cx="121.8" cy="227.5" rx="48.2" ry="29.5" fill="#c9a469" opacity="0.96" transform="rotate(123.35508690026398 121.8 227.5)"/><ellipse cx="101.7" cy="179.5" rx="48.2" ry="29.5" fill="#c9a469" opacity="0.96" transform="rotate(191.13826711689183 101.7 179.5)"/><ellipse cx="131.0" cy="144.9" rx="48.2" ry="29.5" fill="#c9a469" opacity="0.96" transform="rotate(249.28004719297596 131.0 144.9)"/><ellipse cx="171.2" cy="148.4" rx="48.2" ry="29.5" fill="#c9a469" opacity="0.96" transform="rotate(300.65405804545327 171.2 148.4)"/><circle cx="147.47583333333333" cy="188.52368055555556" r="28.0" fill="#1a0f0d"/></g><g><ellipse cx="372.3" cy="287.8" rx="44.2" ry="27.1" fill="#f0ddc4" opacity="0.96" transform="rotate(2.6304775316577147 372.3 287.8)"/><ellipse cx="348.4" cy="324.2" rx="44.2" ry="27.1" fill="#f0ddc4" opacity="0.96" transform="rotate(63.80062249712926 348.4 324.2)"/><ellipse cx="307.4" cy="322.4" rx="44.2" ry="27.1" fill="#f0ddc4" opacity="0.96" transform="rotate(121.12083886234548 307.4 322.4)"/><ellipse cx="286.8" cy="285.7" rx="44.2" ry="27.1" fill="#f0ddc4" opacity="0.96" transform="rotate(180.11733992910825 286.8 285.7)"/><ellipse cx="312.0" cy="246.8" rx="44.2" ry="27.1" fill="#f0ddc4" opacity="0.96" transform="rotate(245.78582252224655 312.0 246.8)"/><ellipse cx="352.2" cy="249.5" rx="44.2" ry="27.1" fill="#f0ddc4" opacity="0.96" transform="rotate(301.90132438767 352.2 249.5)"/><circle cx="329.55645833333335" cy="285.81680555555556" r="25.7" fill="#1a0f0d"/></g><path d="M 775.1325 294.5342592592593 Q 820.5521296296297 218.83487654320987 926.5312654320988 294.5342592592593 Q 820.5521296296297 370.2336419753087 775.1325 294.5342592592593 Z" fill="#e8b45a" opacity="0.7602154063786007" transform="rotate(234.4737654320988 775.1325 294.5342592592593)"/><path d="M 694.2857407407407 256.4263888888889 Q 741.125625 178.35991512345674 850.418688271605 256.4263888888889 Q 741.125625 334.492862654321 694.2857407407407 256.4263888888889 Z" fill="#c9a469" opacity="0.7319393004115226" transform="rotate(348.46296296296293 694.2857407407407 256.4263888888889)"/><path d="M 635.8000925925926 299.01296296296294 Q 677.867175925926 228.90115740740737 776.0237037037037 299.01296296296294 Q 677.867175925926 369.1247685185185 635.8000925925926 299.01296296296294 Z" fill="#e8b45a" opacity="0.8360320216049382" transform="rotate(237.9151234567901 635.8000925925926 299.01296296296294)"/><path d="M 667.3422222222222 344.36064814814813 Q 718.1601157407407 259.66415895061726 836.7352006172839 344.36064814814813 Q 718.1601157407407 429.057137345679 667.3422222222222 344.36064814814813 Z" fill="#c9a469" opacity="0.7674009773662551" transform="rotate(37.27469135802469 667.3422222222222 344.36064814814813)"/><path d="M 699.7787962962963 241.7361111111111 Q 757.5877777777778 145.38780864197525 892.4754012345679 241.7361111111111 Q 757.5877777777778 338.0844135802469 699.7787962962963 241.7361111111111 Z" fill="#e8b45a" opacity="0.7820646862139917" transform="rotate(187.6527777777778 699.7787962962963 241.7361111111111)"/><path d="M 705.5764814814814 338.8060185185185 Q 760.3334953703703 247.54432870370368 888.0998611111111 338.8060185185185 Q 760.3334953703703 430.0677083333333 705.5764814814814 338.8060185185185 Z" fill="#c9a469" opacity="0.8138194444444444" transform="rotate(276.82716049382714 705.5764814814814 338.8060185185185)"/><path d="M 735.6019444444445 339.23703703703706 Q 805.3806018518519 222.93927469135804 968.1974691358025 339.23703703703706 Q 805.3806018518519 455.5347993827161 735.6019444444445 339.23703703703706 Z" fill="#e8b45a" opacity="0.7409059927983539" transform="rotate(279.2422839506173 735.6019444444445 339.23703703703706)"/><g><ellipse cx="808.5" cy="358.4" rx="46.3" ry="28.4" fill="#c9a469" opacity="0.96" transform="rotate(5.030204956780189 808.5 358.4)"/><ellipse cx="781.4" cy="395.7" rx="46.3" ry="28.4" fill="#c9a469" opacity="0.96" transform="rotate(66.9592832156992 781.4 395.7)"/><ellipse cx="740.5" cy="392.8" rx="46.3" ry="28.4" fill="#c9a469" opacity="0.96" transform="rotate(121.41323694838078 740.5 392.8)"/><ellipse cx="720.1" cy="344.8" rx="46.3" ry="28.4" fill="#c9a469" opacity="0.96" transform="rotate(192.4863561506814 720.1 344.8)"/><ellipse cx="741.5" cy="315.6" rx="46.3" ry="28.4" fill="#c9a469" opacity="0.96" transform="rotate(240.0804371047262 741.5 315.6)"/><ellipse cx="790.4" cy="318.4" rx="46.3" ry="28.4" fill="#c9a469" opacity="0.96" transform="rotate(306.32733002345316 790.4 318.4)"/><circle cx="763.8634722222222" cy="354.48277777777776" r="26.9" fill="#1a0f0d"/></g><g><ellipse cx="791.9" cy="352.4" rx="34.2" ry="21.0" fill="#f0ddc4" opacity="0.96" transform="rotate(5.8132693816455205 791.9 352.4)"/><ellipse cx="768.2" cy="380.8" rx="34.2" ry="21.0" fill="#f0ddc4" opacity="0.96" transform="rotate(73.67750072669979 768.2 380.8)"/><ellipse cx="739.2" cy="375.6" rx="34.2" ry="21.0" fill="#f0ddc4" opacity="0.96" transform="rotate(126.50674774865163 739.2 375.6)"/><ellipse cx="725.9" cy="346.9" rx="34.2" ry="21.0" fill="#f0ddc4" opacity="0.96" transform="rotate(183.62065215060056 725.9 346.9)"/><ellipse cx="744.0" cy="319.5" rx="34.2" ry="21.0" fill="#f0ddc4" opacity="0.96" transform="rotate(243.1181965567267 744.0 319.5)"/><ellipse cx="781.8" cy="325.1" rx="34.2" ry="21.0" fill="#f0ddc4" opacity="0.96" transform="rotate(313.70869313067 781.8 325.1)"/><circle cx="758.9372222222222" cy="349.0315277777778" r="19.9" fill="#1a0f0d"/></g><g><ellipse cx="780.8" cy="397.0" rx="32.6" ry="20.0" fill="#c9a469" opacity="0.96" transform="rotate(2.716932068645905 780.8 397.0)"/><ellipse cx="762.2" cy="424.3" rx="32.6" ry="20.0" fill="#c9a469" opacity="0.96" transform="rotate(65.77335784113251 762.2 424.3)"/><ellipse cx="733.3" cy="422.7" rx="32.6" ry="20.0" fill="#c9a469" opacity="0.96" transform="rotate(120.55888437192223 733.3 422.7)"/><ellipse cx="717.8" cy="394.7" rx="32.6" ry="20.0" fill="#c9a469" opacity="0.96" transform="rotate(181.61850507135773 717.8 394.7)"/><ellipse cx="734.6" cy="367.6" rx="32.6" ry="20.0" fill="#c9a469" opacity="0.96" transform="rotate(242.27655427086228 734.6 367.6)"/><ellipse cx="768.0" cy="370.2" rx="32.6" ry="20.0" fill="#c9a469" opacity="0.96" transform="rotate(306.46769584131897 768.0 370.2)"/><circle cx="749.2859722222222" cy="395.5552777777778" r="18.9" fill="#1a0f0d"/></g><g><ellipse cx="815.1" cy="329.7" rx="25.0" ry="15.3" fill="#f0ddc4" opacity="0.96" transform="rotate(13.646124115619564 815.1 329.7)"/><ellipse cx="803.3" cy="345.2" rx="25.0" ry="15.3" fill="#f0ddc4" opacity="0.96" transform="rotate(61.15178565683555 803.3 345.2)"/><ellipse cx="779.0" cy="344.6" rx="25.0" ry="15.3" fill="#f0ddc4" opacity="0.96" transform="rotate(121.47457791603081 779.0 344.6)"/><ellipse cx="767.8" cy="319.7" rx="25.0" ry="15.3" fill="#f0ddc4" opacity="0.96" transform="rotate(190.06090113252054 767.8 319.7)"/><ellipse cx="779.9" cy="302.8" rx="25.0" ry="15.3" fill="#f0ddc4" opacity="0.96" transform="rotate(241.13649646670052 779.9 302.8)"/><ellipse cx="804.6" cy="303.5" rx="25.0" ry="15.3" fill="#f0ddc4" opacity="0.96" transform="rotate(302.50926925323824 804.6 303.5)"/><circle cx="791.6097222222222" cy="323.95402777777775" r="14.5" fill="#1a0f0d"/></g><path d="M 360.06527777777774 605.3826388888889 Q 430.29184027777774 488.3383680555555 594.1538194444445 605.3826388888889 Q 430.29184027777774 722.4269097222223 360.06527777777774 605.3826388888889 Z" fill="#e8b45a" opacity="0.8344058641975308" transform="rotate(357.34567901234567 360.06527777777774 605.3826388888889)"/><path d="M 268.23541666666665 721.8444444444444 Q 322.0565972222222 632.1424768518518 447.63935185185187 721.8444444444444 Q 322.0565972222222 811.546412037037 268.23541666666665 721.8444444444444 Z" fill="#c9a469" opacity="0.7577887088477366" transform="rotate(97.53858024691358 268.23541666666665 721.8444444444444)"/><path d="M 226.86388888888888 675.2645833333333 Q 288.26927083333334 572.9222800925926 431.54849537037035 675.2645833333333 Q 288.26927083333334 777.6068865740741 226.86388888888888 675.2645833333333 Z" fill="#e8b45a" opacity="0.7102996399176954" transform="rotate(178.75 226.86388888888888 675.2645833333333)"/><path d="M 260.4506944444444 568.1430555555555 Q 317.5548611111111 472.96944444444443 450.79791666666665 568.1430555555555 Q 317.5548611111111 663.3166666666666 260.4506944444444 568.1430555555555 Z" fill="#c9a469" opacity="0.8257349537037036" transform="rotate(308.75771604938274 260.4506944444444 568.1430555555555)"/><path d="M 315.49583333333334 622.9798611111111 Q 400.03836805555557 482.075636574074 597.3042824074075 622.9798611111111 Q 400.03836805555557 763.8840856481481 315.49583333333334 622.9798611111111 Z" fill="#e8b45a" opacity="0.732335390946502" transform="rotate(222.00617283950615 315.49583333333334 622.9798611111111)"/><path d="M 224.49930555555557 714.275 Q 306.8447916666667 577.0325231481481 498.9842592592593 714.275 Q 306.8447916666667 851.5174768518518 224.49930555555557 714.275 Z" fill="#c9a469" opacity="0.8194528034979424" transform="rotate(79.60648148148148 224.49930555555557 714.275)"/><g><ellipse cx="241.3" cy="615.4" rx="39.7" ry="24.4" fill="#c9a469" opacity="0.96" transform="rotate(5.177325035348161 241.3 615.4)"/><ellipse cx="222.1" cy="645.3" rx="39.7" ry="24.4" fill="#c9a469" opacity="0.96" transform="rotate(60.22442566242318 222.1 645.3)"/><ellipse cx="176.6" cy="639.9" rx="39.7" ry="24.4" fill="#c9a469" opacity="0.96" transform="rotate(133.4380314836217 176.6 639.9)"/><ellipse cx="165.7" cy="602.8" rx="39.7" ry="24.4" fill="#c9a469" opacity="0.96" transform="rotate(193.73871888960974 165.7 602.8)"/><ellipse cx="185.5" cy="577.7" rx="39.7" ry="24.4" fill="#c9a469" opacity="0.96" transform="rotate(242.93908584337836 185.5 577.7)"/><ellipse cx="227.4" cy="582.2" rx="39.7" ry="24.4" fill="#c9a469" opacity="0.96" transform="rotate(309.3775541565678 227.4 582.2)"/><circle cx="203.028125" cy="611.9416666666667" r="23.1" fill="#1a0f0d"/></g><g><ellipse cx="281.8" cy="615.3" rx="29.6" ry="18.1" fill="#f0ddc4" opacity="0.96" transform="rotate(14.050765734051504 281.8 615.3)"/><ellipse cx="262.9" cy="635.5" rx="29.6" ry="18.1" fill="#f0ddc4" opacity="0.96" transform="rotate(71.84992058542387 262.9 635.5)"/><ellipse cx="235.3" cy="630.0" rx="29.6" ry="18.1" fill="#f0ddc4" opacity="0.96" transform="rotate(130.706424248541 235.3 630.0)"/><ellipse cx="225.4" cy="606.6" rx="29.6" ry="18.1" fill="#f0ddc4" opacity="0.96" transform="rotate(183.41409457785323 225.4 606.6)"/><ellipse cx="240.3" cy="583.2" rx="29.6" ry="18.1" fill="#f0ddc4" opacity="0.96" transform="rotate(241.33482612186523 240.3 583.2)"/><ellipse cx="273.8" cy="587.7" rx="29.6" ry="18.1" fill="#f0ddc4" opacity="0.96" transform="rotate(313.7084475211899 273.8 587.7)"/><circle cx="254" cy="608.3510416666667" r="17.2" fill="#1a0f0d"/></g><g><ellipse cx="329.5" cy="662.9" rx="30.6" ry="18.8" fill="#c9a469" opacity="0.96" transform="rotate(4.720859816619321 329.5 662.9)"/><ellipse cx="310.6" cy="688.1" rx="30.6" ry="18.8" fill="#c9a469" opacity="0.96" transform="rotate(68.8530551118567 310.6 688.1)"/><ellipse cx="280.4" cy="682.7" rx="30.6" ry="18.8" fill="#c9a469" opacity="0.96" transform="rotate(131.25738771473067 280.4 682.7)"/><ellipse cx="271.2" cy="653.1" rx="30.6" ry="18.8" fill="#c9a469" opacity="0.96" transform="rotate(194.27697206520526 271.2 653.1)"/><ellipse cx="289.9" cy="632.6" rx="30.6" ry="18.8" fill="#c9a469" opacity="0.96" transform="rotate(250.17510954075772 289.9 632.6)"/><ellipse cx="316.2" cy="635.7" rx="30.6" ry="18.8" fill="#c9a469" opacity="0.96" transform="rotate(303.4169804892442 316.2 635.7)"/><circle cx="299.909375" cy="660.4479166666666" r="17.8" fill="#1a0f0d"/></g><path d="M 686.3983333333333 755.8855555555556 Q 752.4577777777778 645.7864814814815 906.5964814814815 755.8855555555556 Q 752.4577777777778 865.9846296296297 686.3983333333333 755.8855555555556 Z" fill="#e8b45a" opacity="0.7455317644032922" transform="rotate(88.12191358024691 686.3983333333333 755.8855555555556)"/><path d="M 698.3011111111111 785.2216666666667 Q 743.8779166666667 709.2603240740741 850.2237962962963 785.2216666666667 Q 743.8779166666667 861.1830092592593 698.3011111111111 785.2216666666667 Z" fill="#c9a469" opacity="0.8001260288065843" transform="rotate(174.33333333333334 698.3011111111111 785.2216666666667)"/><path d="M 618.9705555555555 744.5244444444445 Q 661.5563888888888 673.5480555555556 760.9233333333333 744.5244444444445 Q 661.5563888888888 815.5008333333334 618.9705555555555 744.5244444444445 Z" fill="#e8b45a" opacity="0.8426446759259258" transform="rotate(249.34104938271608 618.9705555555555 744.5244444444445)"/><path d="M 664.8066666666666 682.1938888888889 Q 724.3931944444444 582.8830092592592 863.4284259259259 682.1938888888889 Q 724.3931944444444 781.5047685185185 664.8066666666666 682.1938888888889 Z" fill="#c9a469" opacity="0.8013284465020576" transform="rotate(47.589506172839506 664.8066666666666 682.1938888888889)"/><path d="M 701.8094444444445 757.03 Q 749.2883333333334 677.8985185185185 860.0724074074075 757.03 Q 749.2883333333334 836.1614814814815 701.8094444444445 757.03 Z" fill="#e8b45a" opacity="0.7655291923868313" transform="rotate(90.18981481481482 701.8094444444445 757.03)"/><path d="M 691.9788888888888 691.0327777777778 Q 730.7418055555555 626.4279166666668 821.1886111111111 691.0327777777778 Q 730.7418055555555 755.6376388888889 691.9788888888888 691.0327777777778 Z" fill="#c9a469" opacity="0.7023765432098765" transform="rotate(164.91975308641975 691.9788888888888 691.0327777777778)"/><path d="M 707.715 734.2022222222222 Q 750.8536111111111 662.304537037037 851.5103703703704 734.2022222222222 Q 750.8536111111111 806.0999074074074 707.715 734.2022222222222 Z" fill="#e8b45a" opacity="0.7234445730452674" transform="rotate(206.22376543209876 707.715 734.2022222222222)"/><g><ellipse cx="760.9" cy="704.8" rx="35.7" ry="21.9" fill="#c9a469" opacity="0.96" transform="rotate(0.1354536282641671 760.9 704.8)"/><ellipse cx="742.4" cy="735.3" rx="35.7" ry="21.9" fill="#c9a469" opacity="0.96" transform="rotate(62.37399983208408 742.4 735.3)"/><ellipse cx="704.0" cy="731.0" rx="35.7" ry="21.9" fill="#c9a469" opacity="0.96" transform="rotate(130.40033343399122 704.0 731.0)"/><ellipse cx="692.1" cy="700.6" rx="35.7" ry="21.9" fill="#c9a469" opacity="0.96" transform="rotate(186.92845922594913 692.1 700.6)"/><ellipse cx="709.8" cy="674.5" rx="35.7" ry="21.9" fill="#c9a469" opacity="0.96" transform="rotate(241.19820584857067 709.8 674.5)"/><ellipse cx="745.5" cy="675.9" rx="35.7" ry="21.9" fill="#c9a469" opacity="0.96" transform="rotate(303.51043489641467 745.5 675.9)"/><circle cx="726.3958333333334" cy="704.7266666666667" r="20.7" fill="#1a0f0d"/></g><g><ellipse cx="728.3" cy="745.7" rx="35.2" ry="21.6" fill="#f0ddc4" opacity="0.96" transform="rotate(13.253026142751388 728.3 745.7)"/><ellipse cx="705.8" cy="770.2" rx="35.2" ry="21.6" fill="#f0ddc4" opacity="0.96" transform="rotate(71.87742884719285 705.8 770.2)"/><ellipse cx="673.9" cy="764.4" rx="35.2" ry="21.6" fill="#f0ddc4" opacity="0.96" transform="rotate(128.7297591528565 673.9 764.4)"/><ellipse cx="661.7" cy="731.7" rx="35.2" ry="21.6" fill="#f0ddc4" opacity="0.96" transform="rotate(190.39726331549022 661.7 731.7)"/><ellipse cx="681.9" cy="706.5" rx="35.2" ry="21.6" fill="#f0ddc4" opacity="0.96" transform="rotate(247.02117680467933 681.9 706.5)"/><ellipse cx="714.3" cy="709.7" rx="35.2" ry="21.6" fill="#f0ddc4" opacity="0.96" transform="rotate(304.1277129222259 714.3 709.7)"/><circle cx="695.1733333333333" cy="737.8541666666666" r="20.4" fill="#1a0f0d"/></g><g><ellipse cx="683.8" cy="819.0" rx="24.9" ry="15.3" fill="#c9a469" opacity="0.96" transform="rotate(8.16725204110308 683.8 819.0)"/><ellipse cx="669.4" cy="837.7" rx="24.9" ry="15.3" fill="#c9a469" opacity="0.96" transform="rotate(66.75849746573373 669.4 837.7)"/><ellipse cx="644.3" cy="833.9" rx="24.9" ry="15.3" fill="#c9a469" opacity="0.96" transform="rotate(130.34175557299213 644.3 833.9)"/><ellipse cx="635.9" cy="812.8" rx="24.9" ry="15.3" fill="#c9a469" opacity="0.96" transform="rotate(186.4056794475987 635.9 812.8)"/><ellipse cx="651.2" cy="793.0" rx="24.9" ry="15.3" fill="#c9a469" opacity="0.96" transform="rotate(248.96474602292312 651.2 793.0)"/><ellipse cx="673.5" cy="795.6" rx="24.9" ry="15.3" fill="#c9a469" opacity="0.96" transform="rotate(304.44657542973994 673.5 795.6)"/><circle cx="659.9008333333334" cy="815.5316666666666" r="14.5" fill="#1a0f0d"/></g><g><ellipse cx="696.6" cy="793.3" rx="28.3" ry="17.4" fill="#f0ddc4" opacity="0.96" transform="rotate(2.7830624211574677 696.6 793.3)"/><ellipse cx="680.8" cy="816.8" rx="28.3" ry="17.4" fill="#f0ddc4" opacity="0.96" transform="rotate(64.92213678554495 680.8 816.8)"/><ellipse cx="653.6" cy="814.6" rx="28.3" ry="17.4" fill="#f0ddc4" opacity="0.96" transform="rotate(124.49336403569512 653.6 814.6)"/><ellipse cx="642.4" cy="785.9" rx="28.3" ry="17.4" fill="#f0ddc4" opacity="0.96" transform="rotate(192.8586387201128 642.4 785.9)"/><ellipse cx="660.1" cy="766.1" rx="28.3" ry="17.4" fill="#f0ddc4" opacity="0.96" transform="rotate(250.60989972286953 660.1 766.1)"/><ellipse cx="686.1" cy="770.4" rx="28.3" ry="17.4" fill="#f0ddc4" opacity="0.96" transform="rotate(308.0480086385242 686.1 770.4)"/><circle cx="669.1783333333333" cy="791.9591666666666" r="16.5" fill="#1a0f0d"/></g><g><ellipse cx="607.6" cy="716.1" rx="31.4" ry="19.2" fill="#c9a469" opacity="0.96" transform="rotate(0.681443502482197 607.6 716.1)"/><ellipse cx="587.6" cy="744.2" rx="31.4" ry="19.2" fill="#c9a469" opacity="0.96" transform="rotate(69.94933302619415 587.6 744.2)"/><ellipse cx="558.1" cy="739.3" rx="31.4" ry="19.2" fill="#c9a469" opacity="0.96" transform="rotate(129.08951563880382 558.1 739.3)"/><ellipse cx="547.0" cy="713.3" rx="31.4" ry="19.2" fill="#c9a469" opacity="0.96" transform="rotate(184.689237596059 547.0 713.3)"/><ellipse cx="562.6" cy="689.1" rx="31.4" ry="19.2" fill="#c9a469" opacity="0.96" transform="rotate(241.21367924581574 562.6 689.1)"/><ellipse cx="594.3" cy="690.6" rx="31.4" ry="19.2" fill="#c9a469" opacity="0.96" transform="rotate(304.189053889876 594.3 690.6)"/><circle cx="577.2058333333333" cy="715.7366666666667" r="18.2" fill="#1a0f0d"/></g><path d="M 455.04212962962964 479.6703703703704 Q 509.5886574074074 388.7594907407408 636.8638888888888 479.6703703703704 Q 509.5886574074074 570.58125 455.04212962962964 479.6703703703704 Z" fill="#e8b45a" opacity="0.8401909722222222" transform="rotate(350.1188271604938 455.04212962962964 479.6703703703704)"/><path d="M 495.2388888888889 453.7282407407407 Q 549.452662037037 363.37195216049383 675.9514660493827 453.7282407407407 Q 549.452662037037 544.0845293209876 495.2388888888889 453.7282407407407 Z" fill="#c9a469" opacity="0.8183191872427983" transform="rotate(355.03395061728395 495.2388888888889 453.7282407407407)"/><path d="M 504.07453703703703 446.09166666666664 Q 545.6986111111111 376.71820987654314 642.821450617284 446.09166666666664 Q 545.6986111111111 515.4651234567901 504.07453703703703 446.09166666666664 Z" fill="#e8b45a" opacity="0.7186310442386831" transform="rotate(284.3009259259259 504.07453703703703 446.09166666666664)"/><path d="M 521.8824074074074 405.0939814814815 Q 556.7431712962963 346.9927083333333 638.0849537037037 405.0939814814815 Q 556.7431712962963 463.19525462962963 521.8824074074074 405.0939814814815 Z" fill="#c9a469" opacity="0.7582561728395061" transform="rotate(165.69753086419752 521.8824074074074 405.0939814814815)"/><path d="M 464.99583333333334 503.06851851851854 Q 498.0030092592593 448.05655864197536 575.0197530864198 503.06851851851854 Q 498.0030092592593 558.0804783950617 464.99583333333334 503.06851851851854 Z" fill="#e8b45a" opacity="0.8487686471193415" transform="rotate(173.66820987654322 464.99583333333334 503.06851851851854)"/><g><ellipse cx="571.0" cy="392.6" rx="33.0" ry="20.2" fill="#c9a469" opacity="0.96" transform="rotate(10.776729962213949 571.0 392.6)"/><ellipse cx="549.1" cy="417.1" rx="33.0" ry="20.2" fill="#c9a469" opacity="0.96" transform="rotate(72.75001792754738 549.1 417.1)"/><ellipse cx="522.3" cy="413.4" rx="33.0" ry="20.2" fill="#c9a469" opacity="0.96" transform="rotate(123.00404955085952 522.3 413.4)"/><ellipse cx="508.5" cy="380.0" rx="33.0" ry="20.2" fill="#c9a469" opacity="0.96" transform="rotate(191.9993125516826 508.5 380.0)"/><ellipse cx="529.2" cy="356.5" rx="33.0" ry="20.2" fill="#c9a469" opacity="0.96" transform="rotate(250.7784492285745 529.2 356.5)"/><ellipse cx="555.7" cy="359.0" rx="33.0" ry="20.2" fill="#c9a469" opacity="0.96" transform="rotate(300.09302459058034 555.7 359.0)"/><circle cx="539.6798611111111" cy="386.6222222222222" r="19.1" fill="#1a0f0d"/></g><g><ellipse cx="515.4" cy="390.9" rx="29.9" ry="18.3" fill="#f0ddc4" opacity="0.96" transform="rotate(7.183033452052158 515.4 390.9)"/><ellipse cx="498.7" cy="413.6" rx="29.9" ry="18.3" fill="#f0ddc4" opacity="0.96" transform="rotate(65.54217791800713 498.7 413.6)"/><ellipse cx="466.8" cy="408.3" rx="29.9" ry="18.3" fill="#f0ddc4" opacity="0.96" transform="rotate(133.27009600161696 466.8 408.3)"/><ellipse cx="458.4" cy="380.7" rx="29.9" ry="18.3" fill="#f0ddc4" opacity="0.96" transform="rotate(193.0807924948452 458.4 380.7)"/><ellipse cx="478.8" cy="359.4" rx="29.9" ry="18.3" fill="#f0ddc4" opacity="0.96" transform="rotate(254.21409603830477 478.8 359.4)"/><ellipse cx="506.3" cy="365.9" rx="29.9" ry="18.3" fill="#f0ddc4" opacity="0.96" transform="rotate(312.6469233482838 506.3 365.9)"/><circle cx="486.6611111111111" cy="387.2284722222222" r="17.4" fill="#1a0f0d"/></g><g><ellipse cx="447.9" cy="429.4" rx="18.8" ry="11.5" fill="#c9a469" opacity="0.96" transform="rotate(14.033880082296 447.9 429.4)"/><ellipse cx="435.8" cy="442.3" rx="18.8" ry="11.5" fill="#c9a469" opacity="0.96" transform="rotate(72.35986726844015 435.8 442.3)"/><ellipse cx="418.0" cy="438.4" rx="18.8" ry="11.5" fill="#c9a469" opacity="0.96" transform="rotate(132.49476827537413 418.0 438.4)"/><ellipse cx="412.2" cy="422.8" rx="18.8" ry="11.5" fill="#c9a469" opacity="0.96" transform="rotate(186.70188448057527 412.2 422.8)"/><ellipse cx="425.2" cy="407.5" rx="18.8" ry="11.5" fill="#c9a469" opacity="0.96" transform="rotate(253.77034111017002 425.2 407.5)"/><ellipse cx="442.1" cy="411.2" rx="18.8" ry="11.5" fill="#c9a469" opacity="0.96" transform="rotate(310.57846170941934 442.1 411.2)"/><circle cx="430.2673611111111" cy="424.95972222222224" r="10.9" fill="#1a0f0d"/></g><g><ellipse cx="429.3" cy="380.3" rx="19.0" ry="11.7" fill="#f0ddc4" opacity="0.96" transform="rotate(6.262366315971957 429.3 380.3)"/><ellipse cx="417.9" cy="395.4" rx="19.0" ry="11.7" fill="#f0ddc4" opacity="0.96" transform="rotate(68.13618244187293 417.9 395.4)"/><ellipse cx="400.6" cy="393.5" rx="19.0" ry="11.7" fill="#f0ddc4" opacity="0.96" transform="rotate(124.25905259169875 400.6 393.5)"/><ellipse cx="392.9" cy="374.9" rx="19.0" ry="11.7" fill="#f0ddc4" opacity="0.96" transform="rotate(190.76751960671095 392.9 374.9)"/><ellipse cx="405.6" cy="360.7" rx="19.0" ry="11.7" fill="#f0ddc4" opacity="0.96" transform="rotate(253.02817066373805 405.6 360.7)"/><ellipse cx="423.3" cy="364.6" rx="19.0" ry="11.7" fill="#f0ddc4" opacity="0.96" transform="rotate(311.7925707718252 423.3 364.6)"/><circle cx="410.99861111111113" cy="378.31597222222223" r="11.0" fill="#1a0f0d"/></g><g><ellipse cx="487.7" cy="450.4" rx="18.9" ry="11.6" fill="#c9a469" opacity="0.96" transform="rotate(1.7734232509182566 487.7 450.4)"/><ellipse cx="475.4" cy="467.1" rx="18.9" ry="11.6" fill="#c9a469" opacity="0.96" transform="rotate(70.77605453614372 475.4 467.1)"/><ellipse cx="458.5" cy="464.5" rx="18.9" ry="11.6" fill="#c9a469" opacity="0.96" transform="rotate(126.46788004842897 458.5 464.5)"/><ellipse cx="451.0" cy="449.7" rx="18.9" ry="11.6" fill="#c9a469" opacity="0.96" transform="rotate(180.21079433627872 451.0 449.7)"/><ellipse cx="460.5" cy="433.7" rx="18.9" ry="11.6" fill="#c9a469" opacity="0.96" transform="rotate(241.2446260403058 460.5 433.7)"/><ellipse cx="480.0" cy="434.9" rx="18.9" ry="11.6" fill="#c9a469" opacity="0.96" transform="rotate(305.5462918767985 480.0 434.9)"/><circle cx="469.3548611111111" cy="449.7972222222222" r="11.0" fill="#1a0f0d"/></g>
  <rect width="900" height="900" fill="url(#v9)"/>
  <rect width="900" height="900" filter="url(#n9)" opacity="0.5"/>
</svg>