<svg width="1000" height="750" viewBox="0 0 1000 750" xmlns="http://www.w3.org/2000/svg" role="img">
  <defs>
    <linearGradient id="g8" x1="0.2" y1="0" x2="0.8" y2="1">
      <stop offset="0%" stop-color="#f6e9dd"/>
      <stop offset="100%" stop-color="#e9cdb6"/>
    </linearGradient>
    <radialGradient id="glow8" cx="50%" cy="30%" r="65%">
      <stop offset="0%" stop-color="#fff6e8" stop-opacity="0.55"/>
      <stop offset="100%" stop-color="#fff6e8" stop-opacity="0"/>
    </radialGradient>
    <filter id="n8"><feTurbulence type="fractalNoise" baseFrequency="0.85" numOctaves="2" stitchTiles="stitch" result="noise"/><feColorMatrix in="noise" type="matrix" values="0 0 0 0 0  0 0 0 0 0  0 0 0 0 0  0 0 0 0.035 0"/></filter>
  </defs>
  <rect width="1000" height="750" fill="url(#g8)"/>
  <rect width="1000" height="750" fill="url(#glow8)"/>
  <path d="M 250 705 L 250 355 A 250 250 0 0 1 750 355 L 750 705" fill="none" stroke="#ad8253" stroke-width="6"/><g fill="none" stroke="#5b4f3d" stroke-width="2.2727141203703702"><ellipse cx="278.1" cy="357.2" rx="22.7" ry="13.6" transform="rotate(4.545838501114253 278.1 357.2)"/><ellipse cx="253.7" cy="382.9" rx="22.7" ry="13.6" transform="rotate(82.43933621942793 253.7 382.9)"/><ellipse cx="225.8" cy="369.4" rx="22.7" ry="13.6" transform="rotate(149.25977613781106 225.8 369.4)"/><ellipse cx="228.6" cy="336.7" rx="22.7" ry="13.6" transform="rotate(220.4628716187432 228.6 336.7)"/><ellipse cx="261.7" cy="329.4" rx="22.7" ry="13.6" transform="rotate(294.5278087615685 261.7 329.4)"/><circle cx="250" cy="354.99999999999994" r="6.4" fill="#5b4f3d" stroke="none"/></g><g stroke="#c99a5f" stroke-width="2.3625000000000003" fill="none" transform="rotate(6.4575617283950635 250 354.99999999999994)"><path d="M 250 354.99999999999994 Q 276.25 349.74999999999994 302.5 354.99999999999994" /><path d="M 263.125 352.99999999999994 q 6.300000000000001 -8.400000000000002 2.6250000000000004 -14.700000000000003" /><path d="M 276.25 356.99999999999994 q 6.300000000000001 8.400000000000002 2.6250000000000004 14.700000000000003" /><path d="M 289.375 352.99999999999994 q 6.300000000000001 -8.400000000000002 2.6250000000000004 -14.700000000000003" /></g><g fill="none" stroke="#5b4f3d" stroke-width="2.4307613168724282"><ellipse cx="327.8" cy="504.3" rx="24.3" ry="14.6" transform="rotate(4.499614796963181 327.8 504.3)"/><ellipse cx="304.8" cy="531.3" rx="24.3" ry="14.6" transform="rotate(76.50143230711578 304.8 531.3)"/><ellipse cx="270.7" cy="515.2" rx="24.3" ry="14.6" transform="rotate(153.94693833376337 270.7 515.2)"/><ellipse cx="276.5" cy="480.6" rx="24.3" ry="14.6" transform="rotate(225.12940261836883 276.5 480.6)"/><ellipse cx="308.4" cy="473.7" rx="24.3" ry="14.6" transform="rotate(290.65007716816814 308.4 473.7)"/><circle cx="297.74575140626314" cy="501.9463130731183" r="6.8" fill="#5b4f3d" stroke="none"/></g><g stroke="#c99a5f" stroke-width="2.3625000000000003" fill="none" transform="rotate(-18.769032921810698 297.74575140626314 501.9463130731183)"><path d="M 297.74575140626314 501.9463130731183 Q 323.99575140626314 496.6963130731183 350.24575140626314 501.9463130731183" /><path d="M 310.87075140626314 499.9463130731183 q 6.300000000000001 -8.400000000000002 2.6250000000000004 -14.700000000000003" /><path d="M 323.99575140626314 503.9463130731183 q 6.300000000000001 8.400000000000002 2.6250000000000004 14.700000000000003" /><path d="M 337.12075140626314 499.9463130731183 q 6.300000000000001 -8.400000000000002 2.6250000000000004 -14.700000000000003" /></g><g fill="none" stroke="#5b4f3d" stroke-width="2.023800797325103"><ellipse cx="447.7" cy="595.5" rx="20.2" ry="12.1" transform="rotate(6.183464270496231 447.7 595.5)"/><ellipse cx="429.9" cy="616.8" rx="20.2" ry="12.1" transform="rotate(73.31926676130216 429.9 616.8)"/><ellipse cx="402.4" cy="607.5" rx="20.2" ry="12.1" transform="rotate(144.16573727715803 402.4 607.5)"/><ellipse cx="404.8" cy="575.2" rx="20.2" ry="12.1" transform="rotate(224.41708600424053 404.8 575.2)"/><ellipse cx="430.8" cy="569.0" rx="20.2" ry="12.1" transform="rotate(288.7853608735041 430.8 569.0)"/><circle cx="422.74575140626314" cy="592.7641290737884" r="5.7" fill="#5b4f3d" stroke="none"/></g><g stroke="#c99a5f" stroke-width="2.3625000000000003" fill="none" transform="rotate(9.692644032921812 422.74575140626314 592.7641290737884)"><path d="M 422.74575140626314 592.7641290737884 Q 448.99575140626314 587.5141290737884 475.24575140626314 592.7641290737884" /><path d="M 435.87075140626314 590.7641290737884 q 6.300000000000001 -8.400000000000002 2.6250000000000004 -14.700000000000003" /><path d="M 448.99575140626314 594.7641290737884 q 6.300000000000001 8.400000000000002 2.6250000000000004 14.700000000000003" /><path d="M 462.12075140626314 590.7641290737884 q 6.300000000000001 -8.400000000000002 2.6250000000000004 -14.700000000000003" /></g><g fill="none" stroke="#5b4f3d" stroke-width="2.0495177469135806"><ellipse cx="602.6" cy="595.1" rx="20.5" ry="12.3" transform="rotate(5.317887340797993 602.6 595.1)"/><ellipse cx="582.4" cy="617.7" rx="20.5" ry="12.3" transform="rotate(78.37484317737464 582.4 617.7)"/><ellipse cx="555.4" cy="605.8" rx="20.5" ry="12.3" transform="rotate(149.16531473177227 555.4 605.8)"/><ellipse cx="559.0" cy="575.0" rx="20.5" ry="12.3" transform="rotate(224.23233855332433 559.0 575.0)"/><ellipse cx="585.7" cy="568.8" rx="20.5" ry="12.3" transform="rotate(289.3227052940233 585.7 568.8)"/><circle cx="577.2542485937367" cy="592.7641290737884" r="5.7" fill="#5b4f3d" stroke="none"/></g><g stroke="#c99a5f" stroke-width="2.3625000000000003" fill="none" transform="rotate(18.324074074074076 577.2542485937367 592.7641290737884)"><path d="M 577.2542485937367 592.7641290737884 Q 603.5042485937367 587.5141290737884 629.7542485937367 592.7641290737884" /><path d="M 590.3792485937367 590.7641290737884 q 6.300000000000001 -8.400000000000002 2.6250000000000004 -14.700000000000003" /><path d="M 603.5042485937367 594.7641290737884 q 6.300000000000001 8.400000000000002 2.6250000000000004 14.700000000000003" /><path d="M 616.6292485937367 590.7641290737884 q 6.300000000000001 -8.400000000000002 2.6250000000000004 -14.700000000000003" /></g><g fill="none" stroke="#5b4f3d" stroke-width="2.061152906378601"><ellipse cx="727.5" cy="505.8" rx="20.6" ry="12.4" transform="rotate(8.65812714799114 727.5 505.8)"/><ellipse cx="706.6" cy="527.1" rx="20.6" ry="12.4" transform="rotate(80.17363788758516 706.6 527.1)"/><ellipse cx="680.3" cy="515.0" rx="20.6" ry="12.4" transform="rotate(149.38729657986863 680.3 515.0)"/><ellipse cx="684.6" cy="483.5" rx="20.6" ry="12.4" transform="rotate(226.2374452268021 684.6 483.5)"/><ellipse cx="713.0" cy="478.7" rx="20.6" ry="12.4" transform="rotate(294.77322175406454 713.0 478.7)"/><circle cx="702.2542485937369" cy="501.94631307311835" r="5.8" fill="#5b4f3d" stroke="none"/></g><g stroke="#c99a5f" stroke-width="2.3625000000000003" fill="none" transform="rotate(18.051183127572017 702.2542485937369 501.94631307311835)"><path d="M 702.2542485937369 501.94631307311835 Q 728.5042485937369 496.69631307311835 754.7542485937369 501.94631307311835" /><path d="M 715.3792485937369 499.94631307311835 q 6.300000000000001 -8.400000000000002 2.6250000000000004 -14.700000000000003" /><path d="M 728.5042485937369 503.94631307311835 q 6.300000000000001 8.400000000000002 2.6250000000000004 14.700000000000003" /><path d="M 741.6292485937369 499.94631307311835 q 6.300000000000001 -8.400000000000002 2.6250000000000004 -14.700000000000003" /></g><g fill="none" stroke="#5b4f3d" stroke-width="2.5841692386831276"><ellipse cx="781.6" cy="360.5" rx="25.8" ry="15.5" transform="rotate(9.80261820326832 781.6 360.5)"/><ellipse cx="755.8" cy="386.5" rx="25.8" ry="15.5" transform="rotate(79.52910948995901 755.8 386.5)"/><ellipse cx="722.9" cy="372.1" rx="25.8" ry="15.5" transform="rotate(147.76720732736436 722.9 372.1)"/><ellipse cx="728.0" cy="331.7" rx="25.8" ry="15.5" transform="rotate(226.57731962533694 728.0 331.7)"/><ellipse cx="762.6" cy="325.6" rx="25.8" ry="15.5" transform="rotate(293.2179734043014 762.6 325.6)"/><circle cx="750" cy="355.00000000000006" r="7.2" fill="#5b4f3d" stroke="none"/></g><g stroke="#c99a5f" stroke-width="2.3625000000000003" fill="none" transform="rotate(-2.4223251028806594 750 355.00000000000006)"><path d="M 750 355.00000000000006 Q 776.25 349.75000000000006 802.5 355.00000000000006" /><path d="M 763.125 353.00000000000006 q 6.300000000000001 -8.400000000000002 2.6250000000000004 -14.700000000000003" /><path d="M 776.25 357.00000000000006 q 6.300000000000001 8.400000000000002 2.6250000000000004 14.700000000000003" /><path d="M 789.375 353.00000000000006 q 6.300000000000001 -8.400000000000002 2.6250000000000004 -14.700000000000003" /></g><g fill="none" stroke="#5b4f3d" stroke-width="1.6875"><ellipse cx="520.9" cy="701.9" rx="16.9" ry="10.1" transform="rotate(2.4128184104107433 520.9 701.9)"/><ellipse cx="504.0" cy="721.5" rx="16.9" ry="10.1" transform="rotate(79.01834001518446 504.0 721.5)"/><ellipse cx="481.4" cy="710.6" rx="16.9" ry="10.1" transform="rotate(152.65002203514848 481.4 710.6)"/><ellipse cx="483.4" cy="688.2" rx="16.9" ry="10.1" transform="rotate(217.54291875386312 483.4 688.2)"/><ellipse cx="508.6" cy="681.9" rx="16.9" ry="10.1" transform="rotate(294.24570171274854 508.6 681.9)"/><circle cx="500" cy="701" r="4.7" fill="#5b4f3d" stroke="none"/></g>
    <rect x="195.5" y="668.3001543209876" width="9" height="51.69984567901234" rx="4.5" fill="none" stroke="#5b4f3d" stroke-width="1.08"/>
    <circle cx="200" cy="653.9001543209877" r="23.400000000000002" fill="#c99a5f" opacity="0.28"/>
    <path d="M 200 666.3001543209876 q 4.5 -12.6 0 -21.599999999999998 q -4.5 9 0 21.599999999999998" fill="#c99a5f"/>
  
    <rect x="395.5" y="679.9806134259259" width="9" height="40.019386574074076" rx="4.5" fill="none" stroke="#5b4f3d" stroke-width="1.08"/>
    <circle cx="400" cy="665.5806134259259" r="23.400000000000002" fill="#c99a5f" opacity="0.28"/>
    <path d="M 400 677.9806134259259 q 4.5 -12.6 0 -21.599999999999998 q -4.5 9 0 21.599999999999998" fill="#c99a5f"/>
  
    <rect x="595.5000000000001" y="667.4307484567901" width="9" height="52.56925154320988" rx="4.5" fill="none" stroke="#5b4f3d" stroke-width="1.08"/>
    <circle cx="600.0000000000001" cy="653.0307484567901" r="23.400000000000002" fill="#c99a5f" opacity="0.28"/>
    <path d="M 600.0000000000001 665.4307484567901 q 4.5 -12.6 0 -21.599999999999998 q -4.5 9 0 21.599999999999998" fill="#c99a5f"/>
  
    <rect x="795.5" y="671.1366705246913" width="9" height="48.863329475308646" rx="4.5" fill="none" stroke="#5b4f3d" stroke-width="1.08"/>
    <circle cx="800" cy="656.7366705246914" r="23.400000000000002" fill="#c99a5f" opacity="0.28"/>
    <path d="M 800 669.1366705246913 q 4.5 -12.6 0 -21.599999999999998 q -4.5 9 0 21.599999999999998" fill="#c99a5f"/>
  
  <rect width="1000" height="750" filter="url(#n8)" opacity="0.4"/>
</svg>