<svg width="800" height="1100" viewBox="0 0 800 1100" xmlns="http://www.w3.org/2000/svg" role="img">
  <defs>
    <linearGradient id="g12" x1="0" y1="0" x2="1" y2="1">
      <stop offset="0%" stop-color="#7c8a56"/>
      <stop offset="100%" stop-color="#5f6b41"/>
    </linearGradient>
    <radialGradient id="soft12" cx="50%" cy="35%" r="75%">
      <stop offset="0%" stop-color="#ffffff" stop-opacity="0.35"/>
      <stop offset="100%" stop-color="#ffffff" stop-opacity="0"/>
    </radialGradient>
  </defs>
  <rect width="800" height="1100" fill="url(#g12)"/>
  <rect width="800" height="1100" fill="url(#soft12)"/>
  <g transform="rotate(114.87654320987654 491.08847736625523 682.1857853223594)"><ellipse cx="491.08847736625523" cy="682.1857853223594" rx="9.838078703703705" ry="4.372479423868313" fill="#b08d57" opacity="0.49361389746227713" transform="rotate(-30 491.08847736625523 682.1857853223594)"/><ellipse cx="496.00751671810707" cy="658.9972114382399" rx="9.838078703703705" ry="4.372479423868313" fill="#b08d57" opacity="0.49361389746227713" transform="rotate(-15 496.00751671810707 658.9972114382399)"/><ellipse cx="500.92655606995896" cy="649.392189643347" rx="9.838078703703705" ry="4.372479423868313" fill="#b08d57" opacity="0.49361389746227713" transform="rotate(0 500.92655606995896 649.392189643347)"/><ellipse cx="505.8455954218108" cy="658.9972114382399" rx="9.838078703703705" ry="4.372479423868313" fill="#b08d57" opacity="0.49361389746227713" transform="rotate(15 505.8455954218108 658.9972114382399)"/><ellipse cx="510.76463477366264" cy="682.1857853223594" rx="9.838078703703705" ry="4.372479423868313" fill="#b08d57" opacity="0.49361389746227713" transform="rotate(30 510.76463477366264 682.1857853223594)"/></g><g transform="rotate(218.0324074074074 554.9259259259259 673.1440757887517)"><ellipse cx="554.9259259259259" cy="673.1440757887517" rx="10.706327160493828" ry="4.7583676268861455" fill="#5f6b41" opacity="0.5302061899862826" transform="rotate(-30 554.9259259259259 673.1440757887517)"/><ellipse cx="560.2790895061728" cy="647.9090206661288" rx="10.706327160493828" ry="4.7583676268861455" fill="#5f6b41" opacity="0.5302061899862826" transform="rotate(-15 560.2790895061728 647.9090206661288)"/><ellipse cx="565.6322530864197" cy="637.4563185871057" rx="10.706327160493828" ry="4.7583676268861455" fill="#5f6b41" opacity="0.5302061899862826" transform="rotate(0 565.6322530864197 637.4563185871057)"/><ellipse cx="570.9854166666667" cy="647.9090206661288" rx="10.706327160493828" ry="4.7583676268861455" fill="#5f6b41" opacity="0.5302061899862826" transform="rotate(15 570.9854166666667 647.9090206661288)"/><ellipse cx="576.3385802469136" cy="673.1440757887517" rx="10.706327160493828" ry="4.7583676268861455" fill="#5f6b41" opacity="0.5302061899862826" transform="rotate(30 576.3385802469136 673.1440757887517)"/></g><g transform="rotate(226.65123456790124 257.15843621399176 747.1399176954732)"><ellipse cx="257.15843621399176" cy="747.1399176954732" rx="13.738927469135803" ry="6.106189986282579" fill="#b08d57" opacity="0.6994502314814814" transform="rotate(-30 257.15843621399176 747.1399176954732)"/><ellipse cx="264.02789994855965" cy="714.7569550966197" rx="13.738927469135803" ry="6.106189986282579" fill="#b08d57" opacity="0.6994502314814814" transform="rotate(-15 264.02789994855965 714.7569550966197)"/><ellipse cx="270.89736368312754" cy="701.3434927983539" rx="13.738927469135803" ry="6.106189986282579" fill="#b08d57" opacity="0.6994502314814814" transform="rotate(0 270.89736368312754 701.3434927983539)"/><ellipse cx="277.7668274176955" cy="714.7569550966197" rx="13.738927469135803" ry="6.106189986282579" fill="#b08d57" opacity="0.6994502314814814" transform="rotate(15 277.7668274176955 714.7569550966197)"/><ellipse cx="284.63629115226337" cy="747.1399176954732" rx="13.738927469135803" ry="6.106189986282579" fill="#b08d57" opacity="0.6994502314814814" transform="rotate(30 284.63629115226337 747.1399176954732)"/></g><g transform="rotate(155.17746913580248 523.7119341563786 763.2782493141289)"><ellipse cx="523.7119341563786" cy="763.2782493141289" rx="12.963657407407407" ry="5.761625514403292" fill="#5f6b41" opacity="0.5484139231824418" transform="rotate(-30 523.7119341563786 763.2782493141289)"/><ellipse cx="530.1937628600823" cy="732.7226157749388" rx="12.963657407407407" ry="5.761625514403292" fill="#5f6b41" opacity="0.5484139231824418" transform="rotate(-15 530.1937628600823 732.7226157749388)"/><ellipse cx="536.6755915637859" cy="720.0660579561041" rx="12.963657407407407" ry="5.761625514403292" fill="#5f6b41" opacity="0.5484139231824418" transform="rotate(0 536.6755915637859 720.0660579561041)"/><ellipse cx="543.1574202674897" cy="732.7226157749388" rx="12.963657407407407" ry="5.761625514403292" fill="#5f6b41" opacity="0.5484139231824418" transform="rotate(15 543.1574202674897 732.7226157749388)"/><ellipse cx="549.6392489711934" cy="763.2782493141289" rx="12.963657407407407" ry="5.761625514403292" fill="#5f6b41" opacity="0.5484139231824418" transform="rotate(30 549.6392489711934 763.2782493141289)"/></g><circle cx="482.33539094650206" cy="1059.4761659807957" r="22.76661522633745" fill="#b08d57" opacity="0.19707347393689986"/><circle cx="652.1056241426612" cy="829.7672325102881" r="19.245267489711935" fill="#b08d57" opacity="0.17765689300411522"/><circle cx="703.1515775034293" cy="250.0840192043896" r="25.424537037037034" fill="#8a9767" opacity="0.14216520919067216"/><circle cx="637.9423868312757" cy="97.89566186556927" r="27.563683127572016" fill="#8a9767" opacity="0.17238854595336076"/><circle cx="695.9842249657065" cy="987.7083333333334" r="24.81085390946502" fill="#8a9767" opacity="0.20196887860082305"/><circle cx="109.3758573388203" cy="926.6207990397805" r="18.53641975308642" fill="#8a9767" opacity="0.19417781207133059"/>
</svg>