<svg width="900" height="1000" viewBox="0 0 900 1000" xmlns="http://www.w3.org/2000/svg" role="img">
  <defs>
    <linearGradient id="g14" x1="0.1" y1="0" x2="0.9" y2="1">
      <stop offset="0%" stop-color="#7a5a28"/>
      <stop offset="100%" stop-color="#40300f"/>
    </linearGradient>
    <radialGradient id="v14" cx="50%" cy="42%" r="72%">
      <stop offset="0%" stop-color="#000000" stop-opacity="0"/>
      <stop offset="100%" stop-color="#000000" stop-opacity="0.3"/>
    </radialGradient>
    <filter id="n14"><feTurbulence type="fractalNoise" baseFrequency="0.8" numOctaves="2" stitchTiles="stitch" result="noise"/><feColorMatrix in="noise" type="matrix" values="0 0 0 0 0  0 0 0 0 0  0 0 0 0 0  0 0 0 0.06 0"/></filter>
  </defs>
  <rect width="900" height="1000" fill="url(#g14)"/>
  <circle cx="450" cy="420" r="126.00000000000001" fill="none" stroke="#f4ede3" stroke-width="3.6" opacity="0.5"/><circle cx="450" cy="420" r="243.00000000000003" fill="none" stroke="#f4ede3" stroke-width="3.6" opacity="0.38"/><circle cx="450" cy="420" r="360" fill="none" stroke="#f4ede3" stroke-width="3.6" opacity="0.26"/><g><ellipse cx="795.3" cy="424.1" rx="40.8" ry="25.0" fill="#5f6b41" opacity="0.96" transform="rotate(5.903715072685013 795.3 424.1)"/><ellipse cx="769.6" cy="457.0" rx="40.8" ry="25.0" fill="#5f6b41" opacity="0.96" transform="rotate(69.8001252670455 769.6 457.0)"/><ellipse cx="730.2" cy="449.9" rx="40.8" ry="25.0" fill="#5f6b41" opacity="0.96" transform="rotate(130.73080098943896 730.2 449.9)"/><ellipse cx="716.5" cy="419.3" rx="40.8" ry="25.0" fill="#5f6b41" opacity="0.96" transform="rotate(180.95904361734273 716.5 419.3)"/><ellipse cx="744.9" cy="382.1" rx="40.8" ry="25.0" fill="#5f6b41" opacity="0.96" transform="rotate(253.59792325515383 744.9 382.1)"/><ellipse cx="782.0" cy="390.3" rx="40.8" ry="25.0" fill="#5f6b41" opacity="0.96" transform="rotate(311.20181856986255 782.0 390.3)"/><circle cx="756" cy="420" r="23.7" fill="#241a0a"/></g><g><ellipse cx="739.3" cy="575.1" rx="43.2" ry="26.5" fill="#f4ede3" opacity="0.96" transform="rotate(3.038619085180797 739.3 575.1)"/><ellipse cx="715.8" cy="610.5" rx="43.2" ry="26.5" fill="#f4ede3" opacity="0.96" transform="rotate(64.0798190736103 715.8 610.5)"/><ellipse cx="673.4" cy="607.0" rx="43.2" ry="26.5" fill="#f4ede3" opacity="0.96" transform="rotate(125.29417374549624 673.4 607.0)"/><ellipse cx="656.8" cy="563.7" rx="43.2" ry="26.5" fill="#f4ede3" opacity="0.96" transform="rotate(192.73841287961358 656.8 563.7)"/><ellipse cx="683.0" cy="533.7" rx="43.2" ry="26.5" fill="#f4ede3" opacity="0.96" transform="rotate(249.65705774489882 683.0 533.7)"/><ellipse cx="725.6" cy="541.9" rx="43.2" ry="26.5" fill="#f4ede3" opacity="0.96" transform="rotate(312.1866511826137 725.6 541.9)"/><circle cx="697.5592002787339" cy="572.8829441212722" r="25.1" fill="#241a0a"/></g><g><ellipse cx="577.9" cy="670.4" rx="34.6" ry="21.2" fill="#5f6b41" opacity="0.96" transform="rotate(5.253955193133147 577.9 670.4)"/><ellipse cx="555.4" cy="699.0" rx="34.6" ry="21.2" fill="#5f6b41" opacity="0.96" transform="rotate(71.0882241853255 555.4 699.0)"/><ellipse cx="526.7" cy="695.7" rx="34.6" ry="21.2" fill="#5f6b41" opacity="0.96" transform="rotate(122.19697679931635 526.7 695.7)"/><ellipse cx="511.8" cy="660.9" rx="34.6" ry="21.2" fill="#5f6b41" opacity="0.96" transform="rotate(191.16276666252983 511.8 660.9)"/><ellipse cx="532.0" cy="636.4" rx="34.6" ry="21.2" fill="#5f6b41" opacity="0.96" transform="rotate(247.96720311957782 532.0 636.4)"/><ellipse cx="565.2" cy="641.1" rx="34.6" ry="21.2" fill="#5f6b41" opacity="0.96" transform="rotate(308.2163125347491 565.2 641.1)"/><circle cx="544.5592002787339" cy="667.3697998883695" r="20.1" fill="#241a0a"/></g><g><ellipse cx="387.4" cy="672.3" rx="33.4" ry="20.5" fill="#f4ede3" opacity="0.96" transform="rotate(8.791898351316757 387.4 672.3)"/><ellipse cx="371.1" cy="695.7" rx="33.4" ry="20.5" fill="#f4ede3" opacity="0.96" transform="rotate(61.072208185289604 371.1 695.7)"/><ellipse cx="336.4" cy="693.5" rx="33.4" ry="20.5" fill="#f4ede3" opacity="0.96" transform="rotate(126.1696487372417 336.4 693.5)"/><ellipse cx="323.3" cy="664.4" rx="33.4" ry="20.5" fill="#f4ede3" opacity="0.96" transform="rotate(185.20667536821773 323.3 664.4)"/><ellipse cx="339.8" cy="639.1" rx="33.4" ry="20.5" fill="#f4ede3" opacity="0.96" transform="rotate(241.05691899515458 339.8 639.1)"/><ellipse cx="375.0" cy="641.6" rx="33.4" ry="20.5" fill="#f4ede3" opacity="0.96" transform="rotate(307.20434007444914 375.0 641.6)"/><circle cx="355.4407997212661" cy="667.3697998883695" r="19.4" fill="#241a0a"/></g><g><ellipse cx="232.1" cy="580.4" rx="31.6" ry="19.4" fill="#5f6b41" opacity="0.96" transform="rotate(14.138755330290197 232.1 580.4)"/><ellipse cx="211.0" cy="602.3" rx="31.6" ry="19.4" fill="#5f6b41" opacity="0.96" transform="rotate(73.776297140062 211.0 602.3)"/><ellipse cx="183.3" cy="596.8" rx="31.6" ry="19.4" fill="#5f6b41" opacity="0.96" transform="rotate(128.6797162212902 183.3 596.8)"/><ellipse cx="171.9" cy="571.1" rx="31.6" ry="19.4" fill="#5f6b41" opacity="0.96" transform="rotate(183.31419292183065 171.9 571.1)"/><ellipse cx="188.6" cy="545.6" rx="31.6" ry="19.4" fill="#5f6b41" opacity="0.96" transform="rotate(243.20594054348535 188.6 545.6)"/><ellipse cx="223.4" cy="550.6" rx="31.6" ry="19.4" fill="#5f6b41" opacity="0.96" transform="rotate(313.35065591108327 223.4 550.6)"/><circle cx="202.4407997212661" cy="572.8829441212723" r="18.4" fill="#241a0a"/></g><g><ellipse cx="174.1" cy="425.4" rx="31.6" ry="19.4" fill="#f4ede3" opacity="0.96" transform="rotate(10.109470407206375 174.1 425.4)"/><ellipse cx="155.1" cy="448.6" rx="31.6" ry="19.4" fill="#f4ede3" opacity="0.96" transform="rotate(68.83702909328147 155.1 448.6)"/><ellipse cx="126.2" cy="444.9" rx="31.6" ry="19.4" fill="#f4ede3" opacity="0.96" transform="rotate(125.43883772926341 126.2 444.9)"/><ellipse cx="114.0" cy="413.7" rx="31.6" ry="19.4" fill="#f4ede3" opacity="0.96" transform="rotate(191.80730734063 114.0 413.7)"/><ellipse cx="129.2" cy="393.2" rx="31.6" ry="19.4" fill="#f4ede3" opacity="0.96" transform="rotate(241.107146133831 129.2 393.2)"/><ellipse cx="160.1" cy="393.9" rx="31.6" ry="19.4" fill="#f4ede3" opacity="0.96" transform="rotate(301.67677592050677 160.1 393.9)"/><circle cx="144" cy="420.00000000000006" r="18.4" fill="#241a0a"/></g><g><ellipse cx="244.9" cy="274.9" rx="44.6" ry="27.3" fill="#5f6b41" opacity="0.96" transform="rotate(10.453262276948474 244.9 274.9)"/><ellipse cx="215.6" cy="308.2" rx="44.6" ry="27.3" fill="#5f6b41" opacity="0.96" transform="rotate(72.20550171020982 215.6 308.2)"/><ellipse cx="175.2" cy="300.6" rx="44.6" ry="27.3" fill="#5f6b41" opacity="0.96" transform="rotate(129.1351990020987 175.2 300.6)"/><ellipse cx="160.6" cy="256.5" rx="44.6" ry="27.3" fill="#5f6b41" opacity="0.96" transform="rotate(194.19579813203882 160.6 256.5)"/><ellipse cx="180.9" cy="229.8" rx="44.6" ry="27.3" fill="#5f6b41" opacity="0.96" transform="rotate(240.021490829507 180.9 229.8)"/><ellipse cx="225.5" cy="230.7" rx="44.6" ry="27.3" fill="#5f6b41" opacity="0.96" transform="rotate(302.37792958376536 225.5 230.7)"/><circle cx="202.44079972126607" cy="267.1170558787278" r="25.9" fill="#241a0a"/></g><g><ellipse cx="386.0" cy="180.3" rx="32.6" ry="20.0" fill="#f4ede3" opacity="0.96" transform="rotate(14.064888279156111 386.0 180.3)"/><ellipse cx="364.0" cy="203.0" rx="32.6" ry="20.0" fill="#f4ede3" opacity="0.96" transform="rotate(74.28820869891892 364.0 203.0)"/><ellipse cx="339.6" cy="199.9" rx="32.6" ry="20.0" fill="#f4ede3" opacity="0.96" transform="rotate(120.09548068538112 339.6 199.9)"/><ellipse cx="324.0" cy="171.0" rx="32.6" ry="20.0" fill="#f4ede3" opacity="0.96" transform="rotate(183.00822491202086 324.0 171.0)"/><ellipse cx="343.6" cy="143.5" rx="32.6" ry="20.0" fill="#f4ede3" opacity="0.96" transform="rotate(247.8625120786937 343.6 143.5)"/><ellipse cx="375.1" cy="148.0" rx="32.6" ry="20.0" fill="#f4ede3" opacity="0.96" transform="rotate(308.51319299379594 375.1 148.0)"/><circle cx="355.44079972126605" cy="172.6302001116306" r="18.9" fill="#241a0a"/></g><g><ellipse cx="573.2" cy="174.3" rx="29.6" ry="18.2" fill="#5f6b41" opacity="0.96" transform="rotate(3.3930949673063795 573.2 174.3)"/><ellipse cx="556.0" cy="198.9" rx="29.6" ry="18.2" fill="#5f6b41" opacity="0.96" transform="rotate(66.55267672142661 556.0 198.9)"/><ellipse cx="529.8" cy="197.2" rx="29.6" ry="18.2" fill="#5f6b41" opacity="0.96" transform="rotate(121.08768158253467 529.8 197.2)"/><ellipse cx="516.1" cy="169.2" rx="29.6" ry="18.2" fill="#5f6b41" opacity="0.96" transform="rotate(186.84826773070301 516.1 169.2)"/><ellipse cx="530.3" cy="147.8" rx="29.6" ry="18.2" fill="#5f6b41" opacity="0.96" transform="rotate(240.1822422342194 530.3 147.8)"/><ellipse cx="562.1" cy="150.0" rx="29.6" ry="18.2" fill="#5f6b41" opacity="0.96" transform="rotate(307.83647747380525 562.1 150.0)"/><circle cx="544.5592002787339" cy="172.63020011163056" r="17.2" fill="#241a0a"/></g><g><ellipse cx="735.2" cy="273.5" rx="39.4" ry="24.2" fill="#f4ede3" opacity="0.96" transform="rotate(9.69414477639095 735.2 273.5)"/><ellipse cx="708.5" cy="303.7" rx="39.4" ry="24.2" fill="#f4ede3" opacity="0.96" transform="rotate(73.35845401207577 708.5 303.7)"/><ellipse cx="676.2" cy="298.7" rx="39.4" ry="24.2" fill="#f4ede3" opacity="0.96" transform="rotate(124.10984483255007 676.2 298.7)"/><ellipse cx="660.3" cy="258.9" rx="39.4" ry="24.2" fill="#f4ede3" opacity="0.96" transform="rotate(192.40880495734612 660.3 258.9)"/><ellipse cx="684.1" cy="231.4" rx="39.4" ry="24.2" fill="#f4ede3" opacity="0.96" transform="rotate(249.29797668502178 684.1 231.4)"/><ellipse cx="722.0" cy="237.8" rx="39.4" ry="24.2" fill="#f4ede3" opacity="0.96" transform="rotate(309.85286990289273 722.0 237.8)"/><circle cx="697.5592002787339" cy="267.1170558787277" r="22.9" fill="#241a0a"/></g><g><ellipse cx="507.6" cy="434.7" rx="61.4" ry="37.6" fill="#f4ede3" opacity="0.96" transform="rotate(14.294533143030991 507.6 434.7)"/><ellipse cx="490.8" cy="463.2" rx="61.4" ry="37.6" fill="#f4ede3" opacity="0.96" transform="rotate(46.62335585858932 490.8 463.2)"/><ellipse cx="445.4" cy="479.2" rx="61.4" ry="37.6" fill="#f4ede3" opacity="0.96" transform="rotate(94.42189167699183 445.4 479.2)"/><ellipse cx="403.2" cy="456.6" rx="61.4" ry="37.6" fill="#f4ede3" opacity="0.96" transform="rotate(141.99569482112108 403.2 456.6)"/><ellipse cx="391.6" cy="409.0" rx="61.4" ry="37.6" fill="#f4ede3" opacity="0.96" transform="rotate(190.62684677699508 391.6 409.0)"/><ellipse cx="414.3" cy="372.5" rx="61.4" ry="37.6" fill="#f4ede3" opacity="0.96" transform="rotate(233.10916539906415 414.3 372.5)"/><ellipse cx="461.1" cy="361.7" rx="61.4" ry="37.6" fill="#f4ede3" opacity="0.96" transform="rotate(280.804545235833 461.1 361.7)"/><ellipse cx="500.7" cy="389.1" rx="61.4" ry="37.6" fill="#f4ede3" opacity="0.96" transform="rotate(328.6288700496439 500.7 389.1)"/><circle cx="450" cy="420" r="35.6" fill="#241a0a"/></g><path d="M 141.29500000000002 838.5354166666667 Q 171.88239583333336 787.5564236111112 243.2529861111111 838.5354166666667 Q 171.88239583333336 889.5144097222222 141.29500000000002 838.5354166666667 Z" fill="#f4ede3" opacity="0.8170537551440329" transform="rotate(76.44135802469135 141.29500000000002 838.5354166666667)"/><path d="M 100.04708333333335 840.0625 Q 135.80375 780.4680555555556 219.23597222222224 840.0625 Q 135.80375 899.6569444444444 100.04708333333335 840.0625 Z" fill="#5f6b41" opacity="0.8358841306584361" transform="rotate(116.81944444444444 100.04708333333335 840.0625)"/><path d="M 106.47416666666669 840.3645833333334 Q 157.1438541666667 755.9151041666667 275.373125 840.3645833333334 Q 157.1438541666667 924.8140625000001 106.47416666666669 840.3645833333334 Z" fill="#f4ede3" opacity="0.8218055555555555" transform="rotate(335.9938271604938 106.47416666666669 840.3645833333334)"/><path d="M 96.07625000000002 843.3416666666667 Q 140.87770833333335 768.6725694444444 245.41444444444446 843.3416666666667 Q 140.87770833333335 918.010763888889 96.07625000000002 843.3416666666667 Z" fill="#5f6b41" opacity="0.8030587705761316" transform="rotate(348.40895061728395 96.07625000000002 843.3416666666667)"/><path d="M 130.35333333333335 838.49375 Q 176.48031250000003 761.6154513888889 284.1099305555556 838.49375 Q 176.48031250000003 915.372048611111 130.35333333333335 838.49375 Z" fill="#f4ede3" opacity="0.8189956275720164" transform="rotate(195.1759259259259 130.35333333333335 838.49375)"/><path d="M 148.4054166666667 876.5208333333334 Q 195.0266666666667 798.81875 303.80958333333336 876.5208333333334 Q 195.0266666666667 954.2229166666667 148.4054166666667 876.5208333333334 Z" fill="#5f6b41" opacity="0.7867457561728395" transform="rotate(264.0725308641975 148.4054166666667 876.5208333333334)"/><path d="M 172.13250000000002 820.9229166666667 Q 217.59177083333336 745.1574652777778 323.66340277777783 820.9229166666667 Q 217.59177083333336 896.6883680555555 172.13250000000002 820.9229166666667 Z" fill="#f4ede3" opacity="0.7678832304526748" transform="rotate(9.54320987654321 172.13250000000002 820.9229166666667)"/><g><ellipse cx="126.0" cy="807.5" rx="20.9" ry="12.8" fill="#5f6b41" opacity="0.96" transform="rotate(3.3511571485827054 126.0 807.5)"/><ellipse cx="114.9" cy="824.4" rx="20.9" ry="12.8" fill="#5f6b41" opacity="0.96" transform="rotate(63.235536485835 114.9 824.4)"/><ellipse cx="95.1" cy="823.5" rx="20.9" ry="12.8" fill="#5f6b41" opacity="0.96" transform="rotate(122.14361813976896 95.1 823.5)"/><ellipse cx="85.6" cy="805.7" rx="20.9" ry="12.8" fill="#5f6b41" opacity="0.96" transform="rotate(181.8880000733756 85.6 805.7)"/><ellipse cx="96.4" cy="788.5" rx="20.9" ry="12.8" fill="#5f6b41" opacity="0.96" transform="rotate(242.15921434175408 96.4 788.5)"/><ellipse cx="117.0" cy="789.5" rx="20.9" ry="12.8" fill="#5f6b41" opacity="0.96" transform="rotate(303.7088259539494 117.0 789.5)"/><circle cx="105.81625000000001" cy="806.351875" r="12.1" fill="#241a0a"/></g><g><ellipse cx="138.4" cy="837.0" rx="17.3" ry="10.6" fill="#f4ede3" opacity="0.96" transform="rotate(9.60517274223194 138.4 837.0)"/><ellipse cx="129.7" cy="849.1" rx="17.3" ry="10.6" fill="#f4ede3" opacity="0.96" transform="rotate(62.29442236053813 129.7 849.1)"/><ellipse cx="113.3" cy="848.6" rx="17.3" ry="10.6" fill="#f4ede3" opacity="0.96" transform="rotate(120.77145937693155 113.3 848.6)"/><ellipse cx="105.1" cy="833.6" rx="17.3" ry="10.6" fill="#f4ede3" opacity="0.96" transform="rotate(182.07423346164634 105.1 833.6)"/><ellipse cx="113.8" cy="819.6" rx="17.3" ry="10.6" fill="#f4ede3" opacity="0.96" transform="rotate(241.11862837702472 113.8 819.6)"/><ellipse cx="132.2" cy="821.1" rx="17.3" ry="10.6" fill="#f4ede3" opacity="0.96" transform="rotate(308.20550571762556 132.2 821.1)"/><circle cx="121.88687500000002" cy="834.235" r="10.1" fill="#241a0a"/></g><g><ellipse cx="114.7" cy="861.5" rx="16.9" ry="10.4" fill="#5f6b41" opacity="0.96" transform="rotate(8.398800378448582 114.7 861.5)"/><ellipse cx="103.6" cy="874.7" rx="16.9" ry="10.4" fill="#5f6b41" opacity="0.96" transform="rotate(71.7978513756469 103.6 874.7)"/><ellipse cx="87.2" cy="871.0" rx="16.9" ry="10.4" fill="#5f6b41" opacity="0.96" transform="rotate(133.4248299740674 87.2 871.0)"/><ellipse cx="82.2" cy="857.5" rx="16.9" ry="10.4" fill="#5f6b41" opacity="0.96" transform="rotate(185.5430375511874 82.2 857.5)"/><ellipse cx="92.0" cy="844.0" rx="16.9" ry="10.4" fill="#5f6b41" opacity="0.96" transform="rotate(246.9415993331334 92.0 844.0)"/><ellipse cx="108.7" cy="846.3" rx="16.9" ry="10.4" fill="#5f6b41" opacity="0.96" transform="rotate(308.82278374343684 108.7 846.3)"/><circle cx="98.47000000000001" cy="859.080625" r="9.8" fill="#241a0a"/></g><g><ellipse cx="94.5" cy="918.6" rx="23.3" ry="14.3" fill="#f4ede3" opacity="0.96" transform="rotate(3.313026276800272 94.5 918.6)"/><ellipse cx="80.9" cy="938.1" rx="23.3" ry="14.3" fill="#f4ede3" opacity="0.96" transform="rotate(66.67891999418778 80.9 938.1)"/><ellipse cx="60.5" cy="936.7" rx="23.3" ry="14.3" fill="#f4ede3" opacity="0.96" transform="rotate(120.71288151593245 60.5 936.7)"/><ellipse cx="49.5" cy="916.7" rx="23.3" ry="14.3" fill="#f4ede3" opacity="0.96" transform="rotate(181.55145368329588 49.5 916.7)"/><ellipse cx="63.9" cy="896.3" rx="23.3" ry="14.3" fill="#f4ede3" opacity="0.96" transform="rotate(248.88516855137718 63.9 896.3)"/><ellipse cx="86.3" cy="899.8" rx="23.3" ry="14.3" fill="#f4ede3" opacity="0.96" transform="rotate(309.14164625095077 86.3 899.8)"/><circle cx="72.015625" cy="917.33875" r="13.5" fill="#241a0a"/></g><path d="M 808.5454166666667 844.2608333333334 Q 852.2016666666667 771.5004166666668 954.0662500000001 844.2608333333334 Q 852.2016666666667 917.02125 808.5454166666667 844.2608333333334 Z" fill="#f4ede3" opacity="0.7962210648148148" transform="rotate(277.92438271604937 808.5454166666667 844.2608333333334)"/><path d="M 811.8725 879.8629166666667 Q 856.4667708333333 805.5391319444445 960.5200694444444 879.8629166666667 Q 856.4667708333333 954.1867013888889 811.8725 879.8629166666667 Z" fill="#5f6b41" opacity="0.7569881687242798" transform="rotate(201.17283950617283 811.8725 879.8629166666667)"/><path d="M 792.3745833333334 904.94 Q 836.3256250000001 831.688263888889 938.8780555555556 904.94 Q 836.3256250000001 978.1917361111111 792.3745833333334 904.94 Z" fill="#f4ede3" opacity="0.8482722479423868" transform="rotate(308.77314814814815 792.3745833333334 904.94)"/><path d="M 818.7516666666667 905.3920833333333 Q 860.5532291666667 835.7228124999999 958.0902083333333 905.3920833333333 Q 860.5532291666667 975.0613541666667 818.7516666666667 905.3920833333333 Z" fill="#5f6b41" opacity="0.7372029320987654" transform="rotate(28.503086419753085 818.7516666666667 905.3920833333333)"/><path d="M 750.90375 874.3191666666667 Q 796.3245833333333 798.6177777777777 902.3065277777778 874.3191666666667 Q 796.3245833333333 950.0205555555556 750.90375 874.3191666666667 Z" fill="#f4ede3" opacity="0.8353542952674897" transform="rotate(14.8070987654321 750.90375 874.3191666666667)"/><g><ellipse cx="746.8" cy="901.7" rx="17.7" ry="10.9" fill="#5f6b41" opacity="0.96" transform="rotate(1.4716920046398718 746.8 901.7)"/><ellipse cx="735.0" cy="917.6" rx="17.7" ry="10.9" fill="#5f6b41" opacity="0.96" transform="rotate(71.86692904191942 735.0 917.6)"/><ellipse cx="718.3" cy="914.2" rx="17.7" ry="10.9" fill="#5f6b41" opacity="0.96" transform="rotate(131.33868445263718 718.3 914.2)"/><ellipse cx="712.8" cy="898.0" rx="17.7" ry="10.9" fill="#5f6b41" opacity="0.96" transform="rotate(191.24885278529786 712.8 898.0)"/><ellipse cx="722.8" cy="885.6" rx="17.7" ry="10.9" fill="#5f6b41" opacity="0.96" transform="rotate(246.51331780224376 722.8 885.6)"/><ellipse cx="740.0" cy="887.7" rx="17.7" ry="10.9" fill="#5f6b41" opacity="0.96" transform="rotate(307.43294109803367 740.0 887.7)"/><circle cx="729.623125" cy="901.29625" r="10.3" fill="#241a0a"/></g><g><ellipse cx="822.6" cy="799.5" rx="26.1" ry="16.0" fill="#f4ede3" opacity="0.96" transform="rotate(2.055812750640335 822.6 799.5)"/><ellipse cx="809.3" cy="820.8" rx="26.1" ry="16.0" fill="#f4ede3" opacity="0.96" transform="rotate(61.67493384940614 809.3 820.8)"/><ellipse cx="780.6" cy="817.5" rx="26.1" ry="16.0" fill="#f4ede3" opacity="0.96" transform="rotate(131.4586032812863 780.6 817.5)"/><ellipse cx="772.4" cy="794.5" rx="26.1" ry="16.0" fill="#f4ede3" opacity="0.96" transform="rotate(189.3461775454875 772.4 794.5)"/><ellipse cx="790.4" cy="774.2" rx="26.1" ry="16.0" fill="#f4ede3" opacity="0.96" transform="rotate(254.12678186813625 790.4 774.2)"/><ellipse cx="811.0" cy="777.3" rx="26.1" ry="16.0" fill="#f4ede3" opacity="0.96" transform="rotate(302.6787397944935 811.0 777.3)"/><circle cx="797.33125" cy="798.566875" r="15.2" fill="#241a0a"/></g><g><ellipse cx="808.5" cy="804.2" rx="20.2" ry="12.4" fill="#5f6b41" opacity="0.96" transform="rotate(5.922504197911139 808.5 804.2)"/><ellipse cx="794.9" cy="820.8" rx="20.2" ry="12.4" fill="#5f6b41" opacity="0.96" transform="rotate(72.67044045600142 794.9 820.8)"/><ellipse cx="777.1" cy="817.6" rx="20.2" ry="12.4" fill="#5f6b41" opacity="0.96" transform="rotate(127.69912037207042 777.1 817.6)"/><ellipse cx="769.7" cy="799.7" rx="20.2" ry="12.4" fill="#5f6b41" opacity="0.96" transform="rotate(187.1450867873798 769.7 799.7)"/><ellipse cx="782.6" cy="783.7" rx="20.2" ry="12.4" fill="#5f6b41" opacity="0.96" transform="rotate(250.6988717570285 782.6 783.7)"/><ellipse cx="800.3" cy="786.1" rx="20.2" ry="12.4" fill="#5f6b41" opacity="0.96" transform="rotate(304.7880954117913 800.3 786.1)"/><circle cx="789.101875" cy="802.15" r="11.7" fill="#241a0a"/></g>
  <rect width="900" height="1000" fill="url(#v14)"/>
  <rect width="900" height="1000" filter="url(#n14)" opacity="0.5"/>
</svg>