<svg width="800" height="1100" viewBox="0 0 800 1100" xmlns="http://www.w3.org/2000/svg" role="img">
  <defs>
    <linearGradient id="g7" x1="0" y1="0" x2="1" y2="1">
      <stop offset="0%" stop-color="#f4ede3"/>
      <stop offset="100%" stop-color="#e8dcc8"/>
    </linearGradient>
    <radialGradient id="soft7" cx="50%" cy="35%" r="75%">
      <stop offset="0%" stop-color="#ffffff" stop-opacity="0.35"/>
      <stop offset="100%" stop-color="#ffffff" stop-opacity="0"/>
    </radialGradient>
  </defs>
  <rect width="800" height="1100" fill="url(#g7)"/>
  <rect width="800" height="1100" fill="url(#soft7)"/>
  <g transform="rotate(87.83179012345678 395.3991769547325 583.434284979424)"><ellipse cx="395.3991769547325" cy="583.434284979424" rx="10.039274691358024" ry="4.461899862825788" fill="#b08d57" opacity="0.5608024691358025" transform="rotate(-30 395.3991769547325 583.434284979424)"/><ellipse cx="400.41881430041155" cy="559.7714876045782" rx="10.039274691358024" ry="4.461899862825788" fill="#b08d57" opacity="0.5608024691358025" transform="rotate(-15 400.41881430041155 559.7714876045782)"/><ellipse cx="405.4384516460905" cy="549.9700360082305" rx="10.039274691358024" ry="4.461899862825788" fill="#b08d57" opacity="0.5608024691358025" transform="rotate(0 405.4384516460905 549.9700360082305)"/><ellipse cx="410.45808899176956" cy="559.7714876045782" rx="10.039274691358024" ry="4.461899862825788" fill="#b08d57" opacity="0.5608024691358025" transform="rotate(15 410.45808899176956 559.7714876045782)"/><ellipse cx="415.4777263374486" cy="583.434284979424" rx="10.039274691358024" ry="4.461899862825788" fill="#b08d57" opacity="0.5608024691358025" transform="rotate(30 415.4777263374486 583.434284979424)"/></g><g transform="rotate(212.19135802469134 403.06378600823047 318.20687585733884)"><ellipse cx="403.06378600823047" cy="318.20687585733884" rx="16.909837962962964" ry="7.51548353909465" fill="#5f6b41" opacity="0.5527059756515775" transform="rotate(-30 403.06378600823047 318.20687585733884)"/><ellipse cx="411.5187049897119" cy="278.3500055494161" rx="16.909837962962964" ry="7.51548353909465" fill="#5f6b41" opacity="0.5527059756515775" transform="rotate(-15 411.5187049897119 278.3500055494161)"/><ellipse cx="419.97362397119343" cy="261.84074931412897" rx="16.909837962962964" ry="7.51548353909465" fill="#5f6b41" opacity="0.5527059756515775" transform="rotate(0 419.97362397119343 261.84074931412897)"/><ellipse cx="428.4285429526749" cy="278.3500055494161" rx="16.909837962962964" ry="7.51548353909465" fill="#5f6b41" opacity="0.5527059756515775" transform="rotate(15 428.4285429526749 278.3500055494161)"/><ellipse cx="436.8834619341564" cy="318.20687585733884" rx="16.909837962962964" ry="7.51548353909465" fill="#5f6b41" opacity="0.5527059756515775" transform="rotate(30 436.8834619341564 318.20687585733884)"/></g><g transform="rotate(27.569444444444443 296.5308641975309 704.6898576817558)"><ellipse cx="296.5308641975309" cy="704.6898576817558" rx="14.916975308641977" ry="6.629766803840878" fill="#b08d57" opacity="0.5746377743484226" transform="rotate(-30 296.5308641975309 704.6898576817558)"/><ellipse cx="303.9893518518519" cy="669.5302096966457" rx="14.916975308641977" ry="6.629766803840878" fill="#b08d57" opacity="0.5746377743484226" transform="rotate(-15 303.9893518518519 669.5302096966457)"/><ellipse cx="311.44783950617284" cy="654.9666066529493" rx="14.916975308641977" ry="6.629766803840878" fill="#b08d57" opacity="0.5746377743484226" transform="rotate(0 311.44783950617284 654.9666066529493)"/><ellipse cx="318.90632716049384" cy="669.5302096966457" rx="14.916975308641977" ry="6.629766803840878" fill="#b08d57" opacity="0.5746377743484226" transform="rotate(15 318.90632716049384 669.5302096966457)"/><ellipse cx="326.36481481481485" cy="704.6898576817558" rx="14.916975308641977" ry="6.629766803840878" fill="#b08d57" opacity="0.5746377743484226" transform="rotate(30 326.36481481481485 704.6898576817558)"/></g><g transform="rotate(201.74382716049382 272.8374485596708 644.5807613168724)"><ellipse cx="272.8374485596708" cy="644.5807613168724" rx="10.421797839506173" ry="4.631910150891632" fill="#5f6b41" opacity="0.5718139146090535" transform="rotate(-30 272.8374485596708 644.5807613168724)"/><ellipse cx="278.0483474794239" cy="620.0163482353054" rx="10.421797839506173" ry="4.631910150891632" fill="#5f6b41" opacity="0.5718139146090535" transform="rotate(-15 278.0483474794239 620.0163482353054)"/><ellipse cx="283.25924639917696" cy="609.8414351851852" rx="10.421797839506173" ry="4.631910150891632" fill="#5f6b41" opacity="0.5718139146090535" transform="rotate(0 283.25924639917696 609.8414351851852)"/><ellipse cx="288.47014531893007" cy="620.0163482353054" rx="10.421797839506173" ry="4.631910150891632" fill="#5f6b41" opacity="0.5718139146090535" transform="rotate(15 288.47014531893007 620.0163482353054)"/><ellipse cx="293.68104423868317" cy="644.5807613168724" rx="10.421797839506173" ry="4.631910150891632" fill="#5f6b41" opacity="0.5718139146090535" transform="rotate(30 293.68104423868317 644.5807613168724)"/></g><circle cx="140.960219478738" cy="55.080161179698216" r="27.269444444444446" fill="#b08d57" opacity="0.13207647462277092"/><circle cx="355.380658436214" cy="1051.2714334705076" r="18.269701646090535" fill="#8a9767" opacity="0.17503129286694102"/><circle cx="537.4965706447189" cy="308.90817901234567" r="18.044650205761318" fill="#b08d57" opacity="0.164565329218107"/><circle cx="186.07338820301783" cy="601.7558299039781" r="19.96466049382716" fill="#8a9767" opacity="0.1972835219478738"/><circle cx="281.358024691358" cy="385.06129972565157" r="16.95565843621399" fill="#b08d57" opacity="0.14386488340192044"/><circle cx="707.30109739369" cy="517.7752057613169" r="18.832458847736625" fill="#b08d57" opacity="0.1601736111111111"/>
</svg>