<svg width="1400" height="800" viewBox="0 0 1400 800" xmlns="http://www.w3.org/2000/svg" role="img">
  <defs>
    <linearGradient id="g15" x1="0.2" y1="0" x2="0.8" y2="1">
      <stop offset="0%" stop-color="#faf3ea"/>
      <stop offset="100%" stop-color="#efdccb"/>
    </linearGradient>
    <radialGradient id="glow15" cx="50%" cy="30%" r="65%">
      <stop offset="0%" stop-color="#fff6e8" stop-opacity="0.55"/>
      <stop offset="100%" stop-color="#fff6e8" stop-opacity="0"/>
    </radialGradient>
    <filter id="n15"><feTurbulence type="fractalNoise" baseFrequency="0.85" numOctaves="2" stitchTiles="stitch" result="noise"/><feColorMatrix in="noise" type="matrix" values="0 0 0 0 0  0 0 0 0 0  0 0 0 0 0  0 0 0 0.035 0"/></filter>
  </defs>
  <rect width="1400" height="800" fill="url(#g15)"/>
  <rect width="1400" height="800" fill="url(#glow15)"/>
  <line x1="0" y1="480" x2="1400" y2="480" stroke="#ad8253" stroke-width="4"/>
    <rect x="243.2" y="300.1997256515775" width="17.599999999999998" height="179.8002743484225" rx="8.799999999999999" fill="none" stroke="#5b4f3d" stroke-width="2.1119999999999997"/>
    <circle cx="252" cy="272.03972565157756" r="45.76" fill="#c99a5f" opacity="0.28"/>
    <path d="M 252 298.1997256515775 q 8.799999999999999 -24.639999999999997 0 -42.239999999999995 q -8.799999999999999 17.599999999999998 0 42.239999999999995" fill="#c99a5f"/>
  
    <rect x="551.2" y="336.12373113854596" width="17.599999999999998" height="143.87626886145407" rx="8.799999999999999" fill="none" stroke="#5b4f3d" stroke-width="2.1119999999999997"/>
    <circle cx="560" cy="307.963731138546" r="45.76" fill="#c99a5f" opacity="0.28"/>
    <path d="M 560 334.12373113854596 q 8.799999999999999 -24.639999999999997 0 -42.239999999999995 q -8.799999999999999 17.599999999999998 0 42.239999999999995" fill="#c99a5f"/>
  
    <rect x="859.2" y="321.2987654320988" width="17.599999999999998" height="158.70123456790125" rx="8.799999999999999" fill="none" stroke="#5b4f3d" stroke-width="2.1119999999999997"/>
    <circle cx="868" cy="293.1387654320988" r="45.76" fill="#c99a5f" opacity="0.28"/>
    <path d="M 868 319.2987654320988 q 8.799999999999999 -24.639999999999997 0 -42.239999999999995 q -8.799999999999999 17.599999999999998 0 42.239999999999995" fill="#c99a5f"/>
  
    <rect x="1167.2" y="290.29272976680386" width="17.599999999999998" height="189.70727023319617" rx="8.799999999999999" fill="none" stroke="#5b4f3d" stroke-width="2.1119999999999997"/>
    <circle cx="1176" cy="262.1327297668039" r="45.76" fill="#c99a5f" opacity="0.28"/>
    <path d="M 1176 288.29272976680386 q 8.799999999999999 -24.639999999999997 0 -42.239999999999995 q -8.799999999999999 17.599999999999998 0 42.239999999999995" fill="#c99a5f"/>
  <g fill="none" stroke="#5b4f3d" stroke-width="2.4000000000000004"><ellipse cx="421.8" cy="476.1" rx="24.0" ry="14.4" transform="rotate(0.15129543972933263 421.8 476.1)"/><ellipse cx="401.1" cy="504.3" rx="24.0" ry="14.4" transform="rotate(72.14427100859905 401.1 504.3)"/><ellipse cx="366.9" cy="492.0" rx="24.0" ry="14.4" transform="rotate(147.5649724814664 366.9 492.0)"/><ellipse cx="370.9" cy="455.0" rx="24.0" ry="14.4" transform="rotate(224.8925859576756 370.9 455.0)"/><ellipse cx="401.3" cy="447.7" rx="24.0" ry="14.4" transform="rotate(288.1762493629054 401.3 447.7)"/><circle cx="392.00000000000006" cy="476" r="6.7" fill="#5b4f3d" stroke="none"/></g><g fill="none" stroke="#5b4f3d" stroke-width="2.4000000000000004"><ellipse cx="1037.7" cy="477.6" rx="24.0" ry="14.4" transform="rotate(3.0575924175169833 1037.7 477.6)"/><ellipse cx="1011.7" cy="505.5" rx="24.0" ry="14.4" transform="rotate(82.9228430419136 1011.7 505.5)"/><ellipse cx="981.2" cy="488.9" rx="24.0" ry="14.4" transform="rotate(154.36761825124455 981.2 488.9)"/><ellipse cx="984.8" cy="457.3" rx="24.0" ry="14.4" transform="rotate(218.84199641590268 984.8 457.3)"/><ellipse cx="1022.4" cy="450.0" rx="24.0" ry="14.4" transform="rotate(299.01671498520017 1022.4 450.0)"/><circle cx="1008" cy="476" r="6.7" fill="#5b4f3d" stroke="none"/></g><g stroke="#c99a5f" stroke-width="3.5999999999999996" fill="none" transform="rotate(0 700 160)"><path d="M 700 160 Q 740 152 780 160" /><path d="M 720 158 q 9.6 -12.8 4 -22.400000000000002" /><path d="M 740 162 q 9.6 12.8 4 22.400000000000002" /><path d="M 760 158 q 9.6 -12.8 4 -22.400000000000002" /></g>
  <rect width="1400" height="800" filter="url(#n15)" opacity="0.4"/>
</svg>