<svg width="900" height="900" viewBox="0 0 900 900" xmlns="http://www.w3.org/2000/svg" role="img">
  <defs>
    <linearGradient id="g13" x1="0.1" y1="0" x2="0.9" y2="1">
      <stop offset="0%" stop-color="#5c342c"/>
      <stop offset="100%" stop-color="#2c1815"/>
    </linearGradient>
    <radialGradient id="v13" cx="50%" cy="42%" r="72%">
      <stop offset="0%" stop-color="#000000" stop-opacity="0"/>
      <stop offset="100%" stop-color="#000000" stop-opacity="0.3"/>
    </radialGradient>
    <filter id="n13"><feTurbulence type="fractalNoise" baseFrequency="0.8" numOctaves="2" stitchTiles="stitch" result="noise"/><feColorMatrix in="noise" type="matrix" values="0 0 0 0 0  0 0 0 0 0  0 0 0 0 0  0 0 0 0.06 0"/></filter>
  </defs>
  <rect width="900" height="900" fill="url(#g13)"/>
  <rect x="0" y="558" width="900" height="342" fill="#1a0f0d" opacity="0.55"/><rect x="0" y="558" width="900" height="5.4" fill="#e8b45a" opacity="0.6"/><rect x="131.4" y="294.3325617283951" width="25.2" height="263.6674382716049" rx="12.6" fill="#f0ddc4" opacity="0.95"/><ellipse cx="144" cy="276.3325617283951" rx="3.5800597993827163" ry="8.182993827160495" fill="#f0b74a"/><ellipse cx="144" cy="280.8325617283951" rx="27.61760416666667" ry="41.42640625000001" fill="#f0b74a" opacity="0.22" filter="blur(2px)"/><rect x="329.4" y="280.0216049382716" width="25.2" height="277.9783950617284" rx="12.6" fill="#f0ddc4" opacity="0.95"/><ellipse cx="342" cy="262.0216049382716" rx="3.535832690329218" ry="8.08190329218107" fill="#f0b74a"/><ellipse cx="342" cy="266.5216049382716" rx="27.27642361111111" ry="40.91463541666666" fill="#f0b74a" opacity="0.22" filter="blur(2px)"/><rect x="545.4" y="349.1365740740741" width="25.2" height="208.86342592592592" rx="12.6" fill="#f0ddc4" opacity="0.95"/><ellipse cx="558" cy="331.1365740740741" rx="3.905340149176955" ry="8.926491769547326" fill="#f0b74a"/><ellipse cx="558" cy="335.6365740740741" rx="30.126909722222223" ry="45.190364583333334" fill="#f0b74a" opacity="0.22" filter="blur(2px)"/><rect x="743.4" y="337.233024691358" width="25.2" height="220.76697530864197" rx="12.6" fill="#f0ddc4" opacity="0.95"/><ellipse cx="756" cy="319.233024691358" rx="3.0293229166666666" ry="6.924166666666666" fill="#f0b74a"/><ellipse cx="756" cy="323.733024691358" rx="23.3690625" ry="35.05359375" fill="#f0b74a" opacity="0.22" filter="blur(2px)"/><path d="M 292.37824074074075 505.8398148148148 Q 343.30046296296297 420.96944444444443 462.1189814814815 505.8398148148148 Q 343.30046296296297 590.7101851851852 292.37824074074075 505.8398148148148 Z" fill="#e8b45a" opacity="0.8110281635802469" transform="rotate(109.01697530864196 292.37824074074075 505.8398148148148)"/><path d="M 233.7416666666667 527.0643518518518 Q 265.12280092592596 474.76246141975304 338.34544753086425 527.0643518518518 Q 265.12280092592596 579.3662422839506 233.7416666666667 527.0643518518518 Z" fill="#c9a469" opacity="0.7907767489711933" transform="rotate(251.15432098765433 233.7416666666667 527.0643518518518)"/><path d="M 213.7439814814815 504.59444444444443 Q 245.82708333333335 451.1226080246913 320.6876543209877 504.59444444444443 Q 245.82708333333335 558.0662808641976 213.7439814814815 504.59444444444443 Z" fill="#e8b45a" opacity="0.773264531893004" transform="rotate(350.97685185185185 213.7439814814815 504.59444444444443)"/><path d="M 296.7185185185185 590.763425925926 Q 328.8299768518519 537.2443287037038 403.756712962963 590.763425925926 Q 328.8299768518519 644.2825231481481 296.7185185185185 590.763425925926 Z" fill="#c9a469" opacity="0.7589544753086419" transform="rotate(36.26234567901234 296.7185185185185 590.763425925926)"/><path d="M 242.99861111111113 549.9046296296297 Q 297.5481481481482 458.98873456790125 424.83040123456794 549.9046296296297 Q 297.5481481481482 640.8205246913581 242.99861111111113 549.9046296296297 Z" fill="#e8b45a" opacity="0.7927539866255143" transform="rotate(281.45524691358025 242.99861111111113 549.9046296296297)"/><path d="M 240.91759259259263 526.3513888888889 Q 284.39826388888895 453.88360339506175 385.8531635802469 526.3513888888889 Q 284.39826388888895 598.819174382716 240.91759259259263 526.3513888888889 Z" fill="#c9a469" opacity="0.7306815843621399" transform="rotate(207.66666666666666 240.91759259259263 526.3513888888889)"/><g><ellipse cx="359.1" cy="469.5" rx="31.4" ry="19.2" fill="#c9a469" opacity="0.96" transform="rotate(0.623909481773437 359.1 469.5)"/><ellipse cx="341.7" cy="496.7" rx="31.4" ry="19.2" fill="#c9a469" opacity="0.96" transform="rotate(64.81136691002882 341.7 496.7)"/><ellipse cx="311.1" cy="493.9" rx="31.4" ry="19.2" fill="#c9a469" opacity="0.96" transform="rotate(125.54678309575861 311.1 493.9)"/><ellipse cx="299.2" cy="462.3" rx="31.4" ry="19.2" fill="#c9a469" opacity="0.96" transform="rotate(193.1310196335216 299.2 462.3)"/><ellipse cx="317.7" cy="440.9" rx="31.4" ry="19.2" fill="#c9a469" opacity="0.96" transform="rotate(248.6865318843624 317.7 440.9)"/><ellipse cx="348.0" cy="445.8" rx="31.4" ry="19.2" fill="#c9a469" opacity="0.96" transform="rotate(309.4108956434886 348.0 445.8)"/><circle cx="328.7291666666667" cy="469.2131944444444" r="18.2" fill="#1a0f0d"/></g><g><ellipse cx="190.9" cy="509.6" rx="19.3" ry="11.8" fill="#f0ddc4" opacity="0.96" transform="rotate(10.591540414233563 190.9 509.6)"/><ellipse cx="179.2" cy="523.6" rx="19.3" ry="11.8" fill="#f0ddc4" opacity="0.96" transform="rotate(69.1754175544618 179.2 523.6)"/><ellipse cx="162.8" cy="522.1" rx="19.3" ry="11.8" fill="#f0ddc4" opacity="0.96" transform="rotate(121.52204194805628 162.8 522.1)"/><ellipse cx="154.1" cy="503.8" rx="19.3" ry="11.8" fill="#f0ddc4" opacity="0.96" transform="rotate(187.4815717750895 154.1 503.8)"/><ellipse cx="164.2" cy="489.5" rx="19.3" ry="11.8" fill="#f0ddc4" opacity="0.96" transform="rotate(243.4018141038492 164.2 489.5)"/><ellipse cx="182.4" cy="490.3" rx="19.3" ry="11.8" fill="#f0ddc4" opacity="0.96" transform="rotate(301.7056964367862 182.4 490.3)"/><circle cx="172.58541666666667" cy="506.19444444444446" r="11.2" fill="#1a0f0d"/></g><g><ellipse cx="321.4" cy="545.6" rx="26.4" ry="16.2" fill="#c9a469" opacity="0.96" transform="rotate(13.098783389261094 321.4 545.6)"/><ellipse cx="305.4" cy="563.7" rx="26.4" ry="16.2" fill="#c9a469" opacity="0.96" transform="rotate(69.66006646102984 305.4 563.7)"/><ellipse cx="279.6" cy="558.9" rx="26.4" ry="16.2" fill="#c9a469" opacity="0.96" transform="rotate(131.5228301603272 279.6 558.9)"/><ellipse cx="271.1" cy="537.5" rx="26.4" ry="16.2" fill="#c9a469" opacity="0.96" transform="rotate(185.1146946179277 271.1 537.5)"/><ellipse cx="285.8" cy="516.7" rx="26.4" ry="16.2" fill="#c9a469" opacity="0.96" transform="rotate(244.98065324417402 285.8 516.7)"/><ellipse cx="311.0" cy="518.7" rx="26.4" ry="16.2" fill="#c9a469" opacity="0.96" transform="rotate(304.44504037048944 311.0 518.7)"/><circle cx="296.5666666666667" cy="539.8006944444444" r="15.3" fill="#1a0f0d"/></g><g><ellipse cx="279.2" cy="615.5" rx="25.4" ry="15.5" fill="#f0ddc4" opacity="0.96" transform="rotate(11.726624626423678 279.2 615.5)"/><ellipse cx="263.6" cy="633.6" rx="25.4" ry="15.5" fill="#f0ddc4" opacity="0.96" transform="rotate(69.84629984930056 263.6 633.6)"/><ellipse cx="239.2" cy="629.2" rx="25.4" ry="15.5" fill="#f0ddc4" opacity="0.96" transform="rotate(130.48224419559793 239.2 629.2)"/><ellipse cx="231.0" cy="606.4" rx="25.4" ry="15.5" fill="#f0ddc4" opacity="0.96" transform="rotate(189.61137438160398 231.0 606.4)"/><ellipse cx="243.9" cy="588.7" rx="25.4" ry="15.5" fill="#f0ddc4" opacity="0.96" transform="rotate(242.68009064663386 243.9 588.7)"/><ellipse cx="269.9" cy="590.9" rx="25.4" ry="15.5" fill="#f0ddc4" opacity="0.96" transform="rotate(306.88596878589533 269.9 590.9)"/><circle cx="255.17291666666668" cy="610.5319444444444" r="14.7" fill="#1a0f0d"/></g><g><ellipse cx="270.1" cy="600.3" rx="20.1" ry="12.3" fill="#c9a469" opacity="0.96" transform="rotate(10.056050345288957 270.1 600.3)"/><ellipse cx="256.5" cy="615.5" rx="20.1" ry="12.3" fill="#c9a469" opacity="0.96" transform="rotate(73.31510393884162 256.5 615.5)"/><ellipse cx="240.6" cy="613.4" rx="20.1" ry="12.3" fill="#c9a469" opacity="0.96" transform="rotate(121.98127027343602 240.6 613.4)"/><ellipse cx="231.8" cy="593.4" rx="20.1" ry="12.3" fill="#c9a469" opacity="0.96" transform="rotate(190.22865240741524 231.8 593.4)"/><ellipse cx="241.2" cy="580.0" rx="20.1" ry="12.3" fill="#c9a469" opacity="0.96" transform="rotate(240.0811125307964 241.2 580.0)"/><ellipse cx="264.1" cy="582.6" rx="20.1" ry="12.3" fill="#c9a469" opacity="0.96" transform="rotate(312.6094679025715 264.1 582.6)"/><circle cx="250.9041666666667" cy="596.8881944444445" r="11.7" fill="#1a0f0d"/></g><path d="M 681.975 565.2976851851852 Q 732.9144675925926 480.39857253086416 851.7732253086419 565.2976851851852 Q 732.9144675925926 650.1967978395062 681.975 565.2976851851852 Z" fill="#e8b45a" opacity="0.7411008230452675" transform="rotate(158.59876543209876 681.975 565.2976851851852)"/><path d="M 675.9773148148148 508.8277777777778 Q 707.11875 456.9253858024691 779.7820987654321 508.8277777777778 Q 707.11875 560.7301697530864 675.9773148148148 508.8277777777778 Z" fill="#c9a469" opacity="0.7096997170781892" transform="rotate(265.08796296296293 675.9773148148148 508.8277777777778)"/><path d="M 604.9518518518519 536.9967592592593 Q 645.6216435185186 469.2137731481482 740.517824074074 536.9967592592593 Q 645.6216435185186 604.7797453703704 604.9518518518519 536.9967592592593 Z" fill="#e8b45a" opacity="0.8481674382716049" transform="rotate(237.04012345679013 604.9518518518519 536.9967592592593)"/><path d="M 625.2319444444445 594.137962962963 Q 664.8398148148149 528.1248456790124 757.2581790123457 594.137962962963 Q 664.8398148148149 660.1510802469136 625.2319444444445 594.137962962963 Z" fill="#c9a469" opacity="0.7014113940329217" transform="rotate(208.8996913580247 625.2319444444445 594.137962962963)"/><path d="M 673.1509259259259 572.5847222222222 Q 717.1899305555555 499.1863811728395 819.9476080246914 572.5847222222222 Q 717.1899305555555 645.9830632716049 673.1509259259259 572.5847222222222 Z" fill="#e8b45a" opacity="0.8254501028806583" transform="rotate(261.77777777777777 673.1509259259259 572.5847222222222)"/><path d="M 621.0421296296296 504.6703703703704 Q 669.0886574074074 424.5928240740741 781.1972222222222 504.6703703703704 Q 669.0886574074074 584.7479166666667 621.0421296296296 504.6703703703704 Z" fill="#c9a469" opacity="0.7040798611111111" transform="rotate(343.4521604938272 621.0421296296296 504.6703703703704)"/><path d="M 613.2388888888889 502.7282407407407 Q 657.952662037037 428.20528549382715 762.2847993827161 502.7282407407407 Q 657.952662037037 577.2511959876543 613.2388888888889 502.7282407407407 Z" fill="#e8b45a" opacity="0.8155414094650205" transform="rotate(68.36728395061728 613.2388888888889 502.7282407407407)"/><g><ellipse cx="643.2" cy="494.2" rx="26.5" ry="16.3" fill="#c9a469" opacity="0.96" transform="rotate(4.696974294681533 643.2 494.2)"/><ellipse cx="629.8" cy="514.7" rx="26.5" ry="16.3" fill="#c9a469" opacity="0.96" transform="rotate(61.552988742546376 629.8 514.7)"/><ellipse cx="601.4" cy="512.1" rx="26.5" ry="16.3" fill="#c9a469" opacity="0.96" transform="rotate(128.83880976201206 601.4 512.1)"/><ellipse cx="592.1" cy="488.7" rx="26.5" ry="16.3" fill="#c9a469" opacity="0.96" transform="rotate(187.67689271412317 592.1 488.7)"/><ellipse cx="605.1" cy="469.7" rx="26.5" ry="16.3" fill="#c9a469" opacity="0.96" transform="rotate(240.94086851581676 605.1 469.7)"/><ellipse cx="631.2" cy="470.4" rx="26.5" ry="16.3" fill="#c9a469" opacity="0.96" transform="rotate(302.1146976234896 631.2 470.4)"/><circle cx="617.5444444444445" cy="492.1118055555556" r="15.4" fill="#1a0f0d"/></g><g><ellipse cx="649.9" cy="540.1" rx="26.7" ry="16.4" fill="#f0ddc4" opacity="0.96" transform="rotate(2.7942990548711317 649.9 540.1)"/><ellipse cx="633.3" cy="563.0" rx="26.7" ry="16.4" fill="#f0ddc4" opacity="0.96" transform="rotate(69.16645280843889 633.3 563.0)"/><ellipse cx="609.7" cy="560.2" rx="26.7" ry="16.4" fill="#f0ddc4" opacity="0.96" transform="rotate(124.08460845847186 609.7 560.2)"/><ellipse cx="598.5" cy="535.8" rx="26.7" ry="16.4" fill="#f0ddc4" opacity="0.96" transform="rotate(186.86840770806955 598.5 535.8)"/><ellipse cx="611.7" cy="516.2" rx="26.7" ry="16.4" fill="#f0ddc4" opacity="0.96" transform="rotate(241.29288830314152 611.7 516.2)"/><ellipse cx="640.9" cy="519.2" rx="26.7" ry="16.4" fill="#f0ddc4" opacity="0.96" transform="rotate(310.39130728559826 640.9 519.2)"/><circle cx="624.1506944444444" cy="538.8430555555556" r="15.5" fill="#1a0f0d"/></g><g><ellipse cx="689.7" cy="501.4" rx="22.6" ry="13.8" fill="#c9a469" opacity="0.96" transform="rotate(0.5932082967634262 689.7 501.4)"/><ellipse cx="676.9" cy="521.1" rx="22.6" ry="13.8" fill="#c9a469" opacity="0.96" transform="rotate(65.73854269733116 676.9 521.1)"/><ellipse cx="655.0" cy="518.8" rx="22.6" ry="13.8" fill="#c9a469" opacity="0.96" transform="rotate(126.19396407576966 655.0 518.8)"/><ellipse cx="646.0" cy="500.4" rx="22.6" ry="13.8" fill="#c9a469" opacity="0.96" transform="rotate(182.180520964151 646.0 500.4)"/><ellipse cx="657.4" cy="482.0" rx="22.6" ry="13.8" fill="#c9a469" opacity="0.96" transform="rotate(241.346492572169 657.4 482.0)"/><ellipse cx="681.2" cy="483.9" rx="22.6" ry="13.8" fill="#c9a469" opacity="0.96" transform="rotate(307.62654277070675 681.2 483.9)"/><circle cx="667.8819444444445" cy="501.19930555555555" r="13.1" fill="#1a0f0d"/></g><g><ellipse cx="644.8" cy="582.2" rx="18.2" ry="11.1" fill="#f0ddc4" opacity="0.96" transform="rotate(1.6746882399260623 644.8 582.2)"/><ellipse cx="633.5" cy="598.1" rx="18.2" ry="11.1" fill="#f0ddc4" opacity="0.96" transform="rotate(69.1741895070614 633.5 598.1)"/><ellipse cx="617.3" cy="596.2" rx="18.2" ry="11.1" fill="#f0ddc4" opacity="0.96" transform="rotate(124.42391795520248 617.3 596.2)"/><ellipse cx="610.0" cy="578.2" rx="18.2" ry="11.1" fill="#f0ddc4" opacity="0.96" transform="rotate(191.5181635802057 610.0 578.2)"/><ellipse cx="619.7" cy="565.8" rx="18.2" ry="11.1" fill="#f0ddc4" opacity="0.96" transform="rotate(244.68266754246682 619.7 565.8)"/><ellipse cx="638.9" cy="568.6" rx="18.2" ry="11.1" fill="#f0ddc4" opacity="0.96" transform="rotate(311.72533517665323 638.9 568.6)"/><circle cx="627.2381944444444" cy="581.6805555555555" r="10.5" fill="#1a0f0d"/></g><path d="M 464.82481481481483 153.46074074074073 Q 509.4264814814815 79.12462962962962 613.497037037037 153.46074074074073 Q 509.4264814814815 227.79685185185184 464.82481481481483 153.46074074074073 Z" fill="#e8b45a" opacity="0.7246662808641975" transform="rotate(63.97067901234568 464.82481481481483 153.46074074074073)"/><path d="M 478.8488888888889 127.37370370370371 Q 503.45101851851854 86.37015432098767 560.855987654321 127.37370370370371 Q 503.45101851851854 168.37725308641976 478.8488888888889 127.37370370370371 Z" fill="#c9a469" opacity="0.8324241255144033" transform="rotate(246.6635802469136 478.8488888888889 127.37370370370371)"/><path d="M 454.98407407407404 122.33111111111111 Q 499.38111111111107 48.336049382716055 602.9741975308641 122.33111111111111 Q 499.38111111111107 196.32617283950617 454.98407407407404 122.33111111111111 Z" fill="#e8b45a" opacity="0.7068100565843621" transform="rotate(140.375 454.98407407407404 122.33111111111111)"/><path d="M 492.69703703703703 106.59962962962963 Q 534.3500925925925 37.17787037037037 631.5405555555556 106.59962962962963 Q 534.3500925925925 176.0213888888889 492.69703703703703 106.59962962962963 Z" fill="#c9a469" opacity="0.7816203703703704" transform="rotate(172.8827160493827 492.69703703703703 106.59962962962963)"/><path d="M 477.05444444444447 112.44592592592593 Q 516.6912962962963 46.38450617283951 609.1772839506173 112.44592592592593 Q 516.6912962962963 178.50734567901236 477.05444444444447 112.44592592592593 Z" fill="#e8b45a" opacity="0.8350958076131687" transform="rotate(78.63117283950618 477.05444444444447 112.44592592592593)"/><path d="M 491.522962962963 159.33666666666667 Q 518.7380555555555 113.97817901234569 582.239938271605 159.33666666666667 Q 518.7380555555555 204.69515432098765 491.522962962963 159.33666666666667 Z" fill="#c9a469" opacity="0.806588220164609" transform="rotate(18.73148148148148 491.522962962963 159.33666666666667)"/><path d="M 424.36925925925925 148.33851851851853 Q 450.4237037037037 104.91444444444446 511.2174074074074 148.33851851851853 Q 450.4237037037037 191.7625925925926 424.36925925925925 148.33851851851853 Z" fill="#e8b45a" opacity="0.8132272376543209" transform="rotate(140.9614197530864 424.36925925925925 148.33851851851853)"/><g><ellipse cx="520.0" cy="88.7" rx="22.8" ry="14.0" fill="#c9a469" opacity="0.96" transform="rotate(11.133232122550192 520.0 88.7)"/><ellipse cx="507.6" cy="104.5" rx="22.8" ry="14.0" fill="#c9a469" opacity="0.96" transform="rotate(65.42139945617775 507.6 104.5)"/><ellipse cx="485.0" cy="102.0" rx="22.8" ry="14.0" fill="#c9a469" opacity="0.96" transform="rotate(127.17732303164028 485.0 102.0)"/><ellipse cx="476.6" cy="80.7" rx="22.8" ry="14.0" fill="#c9a469" opacity="0.96" transform="rotate(189.72533718036115 476.6 80.7)"/><ellipse cx="488.2" cy="64.8" rx="22.8" ry="14.0" fill="#c9a469" opacity="0.96" transform="rotate(242.67616089495257 488.2 64.8)"/><ellipse cx="513.5" cy="68.3" rx="22.8" ry="14.0" fill="#c9a469" opacity="0.96" transform="rotate(313.3071830331091 513.5 68.3)"/><circle cx="498.3694444444444" cy="84.39" r="13.2" fill="#1a0f0d"/></g><g><ellipse cx="532.6" cy="194.1" rx="19.1" ry="11.7" fill="#f0ddc4" opacity="0.96" transform="rotate(2.035427163793688 532.6 194.1)"/><ellipse cx="519.7" cy="211.1" rx="19.1" ry="11.7" fill="#f0ddc4" opacity="0.96" transform="rotate(72.6038188845297 519.7 211.1)"/><ellipse cx="503.8" cy="208.8" rx="19.1" ry="11.7" fill="#f0ddc4" opacity="0.96" transform="rotate(123.98151387920824 503.8 208.8)"/><ellipse cx="495.9" cy="191.0" rx="19.1" ry="11.7" fill="#f0ddc4" opacity="0.96" transform="rotate(187.69003282130748 495.9 191.0)"/><ellipse cx="507.4" cy="176.3" rx="19.1" ry="11.7" fill="#f0ddc4" opacity="0.96" transform="rotate(248.5654464106829 507.4 176.3)"/><ellipse cx="523.5" cy="177.6" rx="19.1" ry="11.7" fill="#f0ddc4" opacity="0.96" transform="rotate(300.46260545573085 523.5 177.6)"/><circle cx="514.1544444444445" cy="193.47500000000002" r="11.1" fill="#1a0f0d"/></g><g><ellipse cx="476.8" cy="140.5" rx="15.1" ry="9.2" fill="#c9a469" opacity="0.96" transform="rotate(10.544137784578105 476.8 140.5)"/><ellipse cx="466.9" cy="151.7" rx="15.1" ry="9.2" fill="#c9a469" opacity="0.96" transform="rotate(72.32585035544906 466.9 151.7)"/><ellipse cx="452.8" cy="148.8" rx="15.1" ry="9.2" fill="#c9a469" opacity="0.96" transform="rotate(131.23024786718182 452.8 148.8)"/><ellipse cx="447.9" cy="136.5" rx="15.1" ry="9.2" fill="#c9a469" opacity="0.96" transform="rotate(185.3563129439565 447.9 136.5)"/><ellipse cx="455.9" cy="124.8" rx="15.1" ry="9.2" fill="#c9a469" opacity="0.96" transform="rotate(243.413357749413 455.9 124.8)"/><ellipse cx="471.6" cy="126.5" rx="15.1" ry="9.2" fill="#c9a469" opacity="0.96" transform="rotate(308.8055296774612 471.6 126.5)"/><circle cx="462.43944444444446" cy="137.85999999999999" r="8.7" fill="#1a0f0d"/></g>
  <rect width="900" height="900" fill="url(#v13)"/>
  <rect width="900" height="900" filter="url(#n13)" opacity="0.5"/>
</svg>