<svg width="800" height="1100" viewBox="0 0 800 1100" xmlns="http://www.w3.org/2000/svg" role="img">
  <defs>
    <linearGradient id="g7" x1="0.2" y1="0" x2="0.8" y2="1">
      <stop offset="0%" stop-color="#f0ece0"/>
      <stop offset="100%" stop-color="#d9d3ba"/>
    </linearGradient>
    <radialGradient id="glow7" cx="50%" cy="30%" r="65%">
      <stop offset="0%" stop-color="#fff6e8" stop-opacity="0.55"/>
      <stop offset="100%" stop-color="#fff6e8" stop-opacity="0"/>
    </radialGradient>
    <filter id="n7"><feTurbulence type="fractalNoise" baseFrequency="0.85" numOctaves="2" stitchTiles="stitch" result="noise"/><feColorMatrix in="noise" type="matrix" values="0 0 0 0 0  0 0 0 0 0  0 0 0 0 0  0 0 0 0.035 0"/></filter>
  </defs>
  <rect width="800" height="1100" fill="url(#g7)"/>
  <rect width="800" height="1100" fill="url(#glow7)"/>
  <g fill="none" stroke="#5b4f3d" stroke-width="2.9884979423868314"><ellipse cx="228.8" cy="246.1" rx="29.9" ry="17.9" transform="rotate(6.426175558711371 228.8 246.1)"/><ellipse cx="202.6" cy="277.5" rx="29.9" ry="17.9" transform="rotate(73.32324563487947 202.6 277.5)"/><ellipse cx="161.0" cy="262.3" rx="29.9" ry="17.9" transform="rotate(146.7957727117516 161.0 262.3)"/><ellipse cx="164.1" cy="217.6" rx="29.9" ry="17.9" transform="rotate(221.07881107288802 164.1 217.6)"/><ellipse cx="207.0" cy="208.1" rx="29.9" ry="17.9" transform="rotate(293.80272045447606 207.0 208.1)"/><circle cx="192" cy="242" r="8.4" fill="#5b4f3d" stroke="none"/></g><g stroke="#ad8253" stroke-width="3.2399999999999998" fill="none" transform="rotate(3.142318244170096 192 242)"><path d="M 192 242 Q 228 234.8 264 242" /><path d="M 210 240 q 8.64 -11.52 3.6 -20.160000000000004" /><path d="M 228 244 q 8.64 11.52 3.6 20.160000000000004" /><path d="M 246 240 q 8.64 -11.52 3.6 -20.160000000000004" /></g><g fill="none" stroke="#5b4f3d" stroke-width="3.4546450617283955"><ellipse cx="666.5" cy="335.0" rx="34.5" ry="20.7" transform="rotate(6.754260702202349 666.5 335.0)"/><ellipse cx="633.8" cy="371.7" rx="34.5" ry="20.7" transform="rotate(76.70769514848702 633.8 371.7)"/><ellipse cx="588.0" cy="353.2" rx="34.5" ry="20.7" transform="rotate(147.2594342882468 588.0 353.2)"/><ellipse cx="593.7" cy="299.7" rx="34.5" ry="20.7" transform="rotate(224.95251467081513 593.7 299.7)"/><ellipse cx="642.5" cy="291.3" rx="34.5" ry="20.7" transform="rotate(295.5337269481845 642.5 291.3)"/><circle cx="624" cy="330" r="9.7" fill="#5b4f3d" stroke="none"/></g><g stroke="#c99a5f" stroke-width="3.2399999999999998" fill="none" transform="rotate(73.06327160493827 624 330)"><path d="M 624 330 Q 660 322.8 696 330" /><path d="M 642 328 q 8.64 -11.52 3.6 -20.160000000000004" /><path d="M 660 332 q 8.64 11.52 3.6 20.160000000000004" /><path d="M 678 328 q 8.64 -11.52 3.6 -20.160000000000004" /></g><g fill="none" stroke="#5b4f3d" stroke-width="2.998261316872428"><ellipse cx="277.1" cy="793.7" rx="30.0" ry="18.0" transform="rotate(2.693795655622361 277.1 793.7)"/><ellipse cx="246.6" cy="828.6" rx="30.0" ry="18.0" transform="rotate(79.70015193188678 246.6 828.6)"/><ellipse cx="209.2" cy="812.9" rx="30.0" ry="18.0" transform="rotate(145.81028923387828 209.2 812.9)"/><ellipse cx="212.6" cy="766.9" rx="30.0" ry="18.0" transform="rotate(222.4217054661739 212.6 766.9)"/><ellipse cx="254.9" cy="757.9" rx="30.0" ry="18.0" transform="rotate(293.5835385544526 254.9 757.9)"/><circle cx="240" cy="792" r="8.4" fill="#5b4f3d" stroke="none"/></g><g stroke="#ad8253" stroke-width="3.2399999999999998" fill="none" transform="rotate(147.0480109739369 240 792)"><path d="M 240 792 Q 276 784.8 312 792" /><path d="M 258 790 q 8.64 -11.52 3.6 -20.160000000000004" /><path d="M 276 794 q 8.64 11.52 3.6 20.160000000000004" /><path d="M 294 790 q 8.64 -11.52 3.6 -20.160000000000004" /></g><g fill="none" stroke="#5b4f3d" stroke-width="2.460087448559671"><ellipse cx="606.0" cy="885.7" rx="24.6" ry="14.8" transform="rotate(10.761526735396991 606.0 885.7)"/><ellipse cx="579.7" cy="910.3" rx="24.6" ry="14.8" transform="rotate(83.11407458310396 579.7 910.3)"/><ellipse cx="550.9" cy="897.3" rx="24.6" ry="14.8" transform="rotate(145.38386205456322 550.9 897.3)"/><ellipse cx="553.0" cy="860.0" rx="24.6" ry="14.8" transform="rotate(221.09045296224383 553.0 860.0)"/><ellipse cx="590.8" cy="853.3" rx="24.6" ry="14.8" transform="rotate(298.9515302291869 590.8 853.3)"/><circle cx="576" cy="880" r="6.9" fill="#5b4f3d" stroke="none"/></g><g stroke="#c99a5f" stroke-width="3.2399999999999998" fill="none" transform="rotate(217.56567215363512 576 880)"><path d="M 576 880 Q 612 872.8 648 880" /><path d="M 594 878 q 8.64 -11.52 3.6 -20.160000000000004" /><path d="M 612 882 q 8.64 11.52 3.6 20.160000000000004" /><path d="M 630 878 q 8.64 -11.52 3.6 -20.160000000000004" /></g><g fill="none" stroke="#5b4f3d" stroke-width="2.9030864197530866"><ellipse cx="435.8" cy="554.0" rx="29.0" ry="17.4" transform="rotate(6.306121644848226 435.8 554.0)"/><ellipse cx="406.4" cy="585.4" rx="29.0" ry="17.4" transform="rotate(79.69907125017443 406.4 585.4)"/><ellipse cx="369.7" cy="569.5" rx="29.0" ry="17.4" transform="rotate(147.2180245299053 369.7 569.5)"/><ellipse cx="371.6" cy="527.9" rx="29.0" ry="17.4" transform="rotate(217.95249712284465 371.6 527.9)"/><ellipse cx="417.6" cy="518.6" rx="29.0" ry="17.4" transform="rotate(299.2943519414828 417.6 518.6)"/><circle cx="400" cy="550" r="8.1" fill="#5b4f3d" stroke="none"/></g><g stroke="#ad8253" stroke-width="3.2399999999999998" fill="none" transform="rotate(297.8261316872428 400 550)"><path d="M 400 550 Q 436 542.8 472 550" /><path d="M 418 548 q 8.64 -11.52 3.6 -20.160000000000004" /><path d="M 436 552 q 8.64 11.52 3.6 20.160000000000004" /><path d="M 454 548 q 8.64 -11.52 3.6 -20.160000000000004" /></g>
  <rect width="800" height="1100" filter="url(#n7)" opacity="0.4"/>
</svg>