<svg width="900" height="900" viewBox="0 0 900 900" xmlns="http://www.w3.org/2000/svg" role="img">
  <defs>
    <linearGradient id="g11" x1="0.2" y1="0" x2="0.8" y2="1">
      <stop offset="0%" stop-color="#faf3ea"/>
      <stop offset="100%" stop-color="#efdccb"/>
    </linearGradient>
    <radialGradient id="glow11" cx="50%" cy="30%" r="65%">
      <stop offset="0%" stop-color="#fff6e8" stop-opacity="0.55"/>
      <stop offset="100%" stop-color="#fff6e8" stop-opacity="0"/>
    </radialGradient>
    <filter id="n11"><feTurbulence type="fractalNoise" baseFrequency="0.85" numOctaves="2" stitchTiles="stitch" result="noise"/><feColorMatrix in="noise" type="matrix" values="0 0 0 0 0  0 0 0 0 0  0 0 0 0 0  0 0 0 0.035 0"/></filter>
  </defs>
  <rect width="900" height="900" fill="url(#g11)"/>
  <rect width="900" height="900" fill="url(#glow11)"/>
  <line x1="0" y1="540" x2="900" y2="540" stroke="#ad8253" stroke-width="4.5"/>
    <rect x="152.1" y="349.2074074074074" width="19.799999999999997" height="190.7925925925926" rx="9.899999999999999" fill="none" stroke="#5b4f3d" stroke-width="2.3759999999999994"/>
    <circle cx="162" cy="317.5274074074074" r="51.48" fill="#c99a5f" opacity="0.28"/>
    <path d="M 162 347.2074074074074 q 9.899999999999999 -27.719999999999995 0 -47.51999999999999 q -9.899999999999999 19.799999999999997 0 47.51999999999999" fill="#c99a5f"/>
  
    <rect x="350.1" y="330.8811728395062" width="19.799999999999997" height="209.11882716049382" rx="9.899999999999999" fill="none" stroke="#5b4f3d" stroke-width="2.3759999999999994"/>
    <circle cx="360" cy="299.20117283950617" r="51.48" fill="#c99a5f" opacity="0.28"/>
    <path d="M 360 328.8811728395062 q 9.899999999999999 -27.719999999999995 0 -47.51999999999999 q -9.899999999999999 19.799999999999997 0 47.51999999999999" fill="#c99a5f"/>
  
    <rect x="548.1" y="374.5734567901235" width="19.799999999999997" height="165.42654320987654" rx="9.899999999999999" fill="none" stroke="#5b4f3d" stroke-width="2.3759999999999994"/>
    <circle cx="558" cy="342.8934567901235" r="51.48" fill="#c99a5f" opacity="0.28"/>
    <path d="M 558 372.5734567901235 q 9.899999999999999 -27.719999999999995 0 -47.51999999999999 q -9.899999999999999 19.799999999999997 0 47.51999999999999" fill="#c99a5f"/>
  
    <rect x="746.1" y="388.5064814814815" width="19.799999999999997" height="151.49351851851853" rx="9.899999999999999" fill="none" stroke="#5b4f3d" stroke-width="2.3759999999999994"/>
    <circle cx="756" cy="356.8264814814815" r="51.48" fill="#c99a5f" opacity="0.28"/>
    <path d="M 756 386.5064814814815 q 9.899999999999999 -27.719999999999995 0 -47.51999999999999 q -9.899999999999999 19.799999999999997 0 47.51999999999999" fill="#c99a5f"/>
  <g fill="none" stroke="#5b4f3d" stroke-width="2.7"><ellipse cx="285.4" cy="537.5" rx="27.0" ry="16.2" transform="rotate(2.6150532563086855 285.4 537.5)"/><ellipse cx="257.4" cy="569.0" rx="27.0" ry="16.2" transform="rotate(80.7030736828458 257.4 569.0)"/><ellipse cx="224.2" cy="554.6" rx="27.0" ry="16.2" transform="rotate(146.23259017392797 224.2 554.6)"/><ellipse cx="226.3" cy="514.6" rx="27.0" ry="16.2" transform="rotate(219.7522742709755 226.3 514.6)"/><ellipse cx="267.3" cy="506.2" rx="27.0" ry="16.2" transform="rotate(297.19483298386217 267.3 506.2)"/><circle cx="252.00000000000003" cy="536" r="7.6" fill="#5b4f3d" stroke="none"/></g><g fill="none" stroke="#5b4f3d" stroke-width="2.7"><ellipse cx="681.4" cy="538.3" rx="27.0" ry="16.2" transform="rotate(3.882643783002006 681.4 538.3)"/><ellipse cx="654.3" cy="568.9" rx="27.0" ry="16.2" transform="rotate(79.0911386650802 654.3 568.9)"/><ellipse cx="618.0" cy="550.9" rx="27.0" ry="16.2" transform="rotate(153.66006646102986 618.0 550.9)"/><ellipse cx="625.1" cy="511.5" rx="27.0" ry="16.2" transform="rotate(226.91743963335182 625.1 511.5)"/><ellipse cx="661.6" cy="505.4" rx="27.0" ry="16.2" transform="rotate(293.9471388287632 661.6 505.4)"/><circle cx="648" cy="536" r="7.6" fill="#5b4f3d" stroke="none"/></g><g stroke="#c99a5f" stroke-width="4.05" fill="none" transform="rotate(0 450 180)"><path d="M 450 180 Q 495 171 540 180" /><path d="M 472.5 178 q 10.799999999999999 -14.4 4.5 -25.200000000000003" /><path d="M 495 182 q 10.799999999999999 14.4 4.5 25.200000000000003" /><path d="M 517.5 178 q 10.799999999999999 -14.4 4.5 -25.200000000000003" /></g>
  <rect width="900" height="900" filter="url(#n11)" opacity="0.4"/>
</svg>