<svg width="900" height="1000" viewBox="0 0 900 1000" xmlns="http://www.w3.org/2000/svg" role="img">
  <defs>
    <linearGradient id="g14" x1="0.2" y1="0" x2="0.8" y2="1">
      <stop offset="0%" stop-color="#eee5da"/>
      <stop offset="100%" stop-color="#d7c9b4"/>
    </linearGradient>
    <radialGradient id="glow14" cx="50%" cy="30%" r="65%">
      <stop offset="0%" stop-color="#fff6e8" stop-opacity="0.55"/>
      <stop offset="100%" stop-color="#fff6e8" stop-opacity="0"/>
    </radialGradient>
    <filter id="n14"><feTurbulence type="fractalNoise" baseFrequency="0.85" numOctaves="2" stitchTiles="stitch" result="noise"/><feColorMatrix in="noise" type="matrix" values="0 0 0 0 0  0 0 0 0 0  0 0 0 0 0  0 0 0 0.035 0"/></filter>
  </defs>
  <rect width="900" height="1000" fill="url(#g14)"/>
  <rect width="900" height="1000" fill="url(#glow14)"/>
  <circle cx="450" cy="420" r="144" fill="none" stroke="#ad8253" stroke-width="2.7"/><circle cx="450" cy="420" r="270.00000000000006" fill="none" stroke="#ad8253" stroke-width="2.7"/><g fill="none" stroke="#3c6b68" stroke-width="2.025"><ellipse cx="744.8" cy="423.8" rx="20.3" ry="12.2" transform="rotate(8.817920675731244 744.8 423.8)"/><ellipse cx="725.8" cy="444.4" rx="20.3" ry="12.2" transform="rotate(76.72297205814802 725.8 444.4)"/><ellipse cx="697.9" cy="431.9" rx="20.3" ry="12.2" transform="rotate(151.84010021363642 697.9 431.9)"/><ellipse cx="702.1" cy="402.4" rx="20.3" ry="12.2" transform="rotate(224.5846407915512 702.1 402.4)"/><ellipse cx="728.1" cy="396.2" rx="20.3" ry="12.2" transform="rotate(288.7672348938742 728.1 396.2)"/><circle cx="720" cy="420" r="5.7" fill="#3c6b68" stroke="none"/></g><g fill="none" stroke="#5b4f3d" stroke-width="2.025"><ellipse cx="665.6" cy="587.0" rx="20.3" ry="12.2" transform="rotate(10.878338604123078 665.6 587.0)"/><ellipse cx="644.9" cy="607.1" rx="20.3" ry="12.2" transform="rotate(80.96145485589004 644.9 607.1)"/><ellipse cx="618.3" cy="593.1" rx="20.3" ry="12.2" transform="rotate(154.4722970116547 618.3 593.1)"/><ellipse cx="621.2" cy="566.7" rx="20.3" ry="12.2" transform="rotate(218.43089526814464 621.2 566.7)"/><ellipse cx="650.0" cy="558.9" rx="20.3" ry="12.2" transform="rotate(291.26385525888827 650.0 558.9)"/><circle cx="640.9188309203678" cy="582.2810062823127" r="5.7" fill="#5b4f3d" stroke="none"/></g><g fill="none" stroke="#3c6b68" stroke-width="2.025"><ellipse cx="475.0" cy="651.4" rx="20.3" ry="12.2" transform="rotate(4.235338996397008 475.0 651.4)"/><ellipse cx="453.4" cy="674.4" rx="20.3" ry="12.2" transform="rotate(82.19073030369087 453.4 674.4)"/><ellipse cx="427.9" cy="661.4" rx="20.3" ry="12.2" transform="rotate(151.72564619591907 427.9 661.4)"/><ellipse cx="432.5" cy="631.5" rx="20.3" ry="12.2" transform="rotate(225.74932094609093 432.5 631.5)"/><ellipse cx="459.6" cy="626.3" rx="20.3" ry="12.2" transform="rotate(292.5550242956692 459.6 626.3)"/><circle cx="450" cy="649.5" r="5.7" fill="#3c6b68" stroke="none"/></g><g fill="none" stroke="#5b4f3d" stroke-width="2.025"><ellipse cx="284.1" cy="584.1" rx="20.3" ry="12.2" transform="rotate(4.203164154506518 284.1 584.1)"/><ellipse cx="263.1" cy="607.1" rx="20.3" ry="12.2" transform="rotate(80.8705793482604 263.1 607.1)"/><ellipse cx="238.3" cy="596.4" rx="20.3" ry="12.2" transform="rotate(145.75758143945308 238.3 596.4)"/><ellipse cx="241.3" cy="564.5" rx="20.3" ry="12.2" transform="rotate(224.93021333002383 241.3 564.5)"/><ellipse cx="269.4" cy="559.4" rx="20.3" ry="12.2" transform="rotate(294.3737624956623 269.4 559.4)"/><circle cx="259.0811690796322" cy="582.2810062823127" r="5.7" fill="#5b4f3d" stroke="none"/></g><g fill="none" stroke="#3c6b68" stroke-width="2.025"><ellipse cx="204.9" cy="422.9" rx="20.3" ry="12.2" transform="rotate(6.573050027799262 204.9 422.9)"/><ellipse cx="186.2" cy="444.3" rx="20.3" ry="12.2" transform="rotate(75.76313020999504 186.2 444.3)"/><ellipse cx="158.0" cy="432.2" rx="20.3" ry="12.2" transform="rotate(151.0335186810534 158.0 432.2)"/><ellipse cx="159.9" cy="404.9" rx="20.3" ry="12.2" transform="rotate(216.8577665482317 159.9 404.9)"/><ellipse cx="189.8" cy="396.9" rx="20.3" ry="12.2" transform="rotate(292.9357189897934 189.8 396.9)"/><circle cx="180" cy="420" r="5.7" fill="#3c6b68" stroke="none"/></g><g fill="none" stroke="#5b4f3d" stroke-width="2.025"><ellipse cx="284.1" cy="259.5" rx="20.3" ry="12.2" transform="rotate(4.165340294574184 284.1 259.5)"/><ellipse cx="266.5" cy="281.7" rx="20.3" ry="12.2" transform="rotate(72.8455351961237 266.5 281.7)"/><ellipse cx="237.4" cy="270.4" rx="20.3" ry="12.2" transform="rotate(149.7634720595593 237.4 270.4)"/><ellipse cx="239.4" cy="242.1" rx="20.3" ry="12.2" transform="rotate(218.54387562898148 239.4 242.1)"/><ellipse cx="271.4" cy="235.8" rx="20.3" ry="12.2" transform="rotate(299.3110042642321 271.4 235.8)"/><circle cx="259.0811690796321" cy="257.71899371768734" r="5.7" fill="#5b4f3d" stroke="none"/></g><g fill="none" stroke="#3c6b68" stroke-width="2.025"><ellipse cx="474.6" cy="195.3" rx="20.3" ry="12.2" transform="rotate(11.02103771204961 474.6 195.3)"/><ellipse cx="454.8" cy="215.1" rx="20.3" ry="12.2" transform="rotate(78.94377297703214 454.8 215.1)"/><ellipse cx="429.0" cy="204.3" rx="20.3" ry="12.2" transform="rotate(146.65135433746454 429.0 204.3)"/><ellipse cx="430.4" cy="174.8" rx="20.3" ry="12.2" transform="rotate(218.5647524347883 430.4 174.8)"/><ellipse cx="462.1" cy="168.5" rx="20.3" ry="12.2" transform="rotate(298.6805247288666 462.1 168.5)"/><circle cx="449.99999999999994" cy="190.5" r="5.7" fill="#3c6b68" stroke="none"/></g><g fill="none" stroke="#5b4f3d" stroke-width="2.025"><ellipse cx="666.0" cy="258.8" rx="20.3" ry="12.2" transform="rotate(2.559545513810586 666.0 258.8)"/><ellipse cx="645.2" cy="282.5" rx="20.3" ry="12.2" transform="rotate(80.0875763257651 645.2 282.5)"/><ellipse cx="618.9" cy="269.9" rx="20.3" ry="12.2" transform="rotate(151.06962327462517 618.9 269.9)"/><ellipse cx="621.8" cy="241.5" rx="20.3" ry="12.2" transform="rotate(220.35107018341074 621.8 241.5)"/><ellipse cx="652.5" cy="235.4" rx="20.3" ry="12.2" transform="rotate(297.44584587250404 652.5 235.4)"/><circle cx="640.9188309203678" cy="257.71899371768734" r="5.7" fill="#5b4f3d" stroke="none"/></g><g fill="none" stroke="#5b4f3d" stroke-width="4.05"><ellipse cx="500.2" cy="420.8" rx="40.5" ry="24.3" transform="rotate(0.885716907064804 500.2 420.8)"/><ellipse cx="480.4" cy="460.0" rx="40.5" ry="24.3" transform="rotate(52.76999216497682 480.4 460.0)"/><ellipse cx="429.4" cy="465.8" rx="40.5" ry="24.3" transform="rotate(114.27135222490467 429.4 465.8)"/><ellipse cx="402.1" cy="435.0" rx="40.5" ry="24.3" transform="rotate(162.64832410727306 402.1 435.0)"/><ellipse cx="409.1" cy="390.9" rx="40.5" ry="24.3" transform="rotate(215.47868708245358 409.1 390.9)"/><ellipse cx="445.1" cy="370.0" rx="40.5" ry="24.3" transform="rotate(264.4510163445361 445.1 370.0)"/><ellipse cx="488.4" cy="387.7" rx="40.5" ry="24.3" transform="rotate(319.9280670770596 488.4 387.7)"/><circle cx="450" cy="420" r="11.3" fill="#5b4f3d" stroke="none"/></g><g stroke="#ad8253" stroke-width="4.859999999999999" fill="none" transform="rotate(-20 144 840)"><path d="M 144 840 Q 198 829.2 252 840" /><path d="M 171 838 q 12.959999999999999 -17.28 5.4 -30.240000000000002" /><path d="M 198 842 q 12.959999999999999 17.28 5.4 30.240000000000002" /><path d="M 225 838 q 12.959999999999999 -17.28 5.4 -30.240000000000002" /></g><g stroke="#3c6b68" stroke-width="4.859999999999999" fill="none" transform="rotate(20 756 840)"><path d="M 756 840 Q 810 829.2 864 840" /><path d="M 783 838 q 12.959999999999999 -17.28 5.4 -30.240000000000002" /><path d="M 810 842 q 12.959999999999999 17.28 5.4 30.240000000000002" /><path d="M 837 838 q 12.959999999999999 -17.28 5.4 -30.240000000000002" /></g>
  <rect width="900" height="1000" filter="url(#n14)" opacity="0.4"/>
</svg>