<svg width="900" height="900" viewBox="0 0 900 900" xmlns="http://www.w3.org/2000/svg" role="img">
  <defs>
    <linearGradient id="g9" x1="0" y1="0" x2="1" y2="1">
      <stop offset="0%" stop-color="#d8cab4"/>
      <stop offset="100%" stop-color="#cabca8"/>
    </linearGradient>
    <radialGradient id="soft9" cx="50%" cy="35%" r="75%">
      <stop offset="0%" stop-color="#ffffff" stop-opacity="0.35"/>
      <stop offset="100%" stop-color="#ffffff" stop-opacity="0"/>
    </radialGradient>
  </defs>
  <rect width="900" height="900" fill="url(#g9)"/>
  <rect width="900" height="900" fill="url(#soft9)"/>
  <g transform="rotate(242.6496913580247 487.88425925925924 329.67399691358025)"><ellipse cx="487.88425925925924" cy="329.67399691358025" rx="15.358796296296296" ry="6.826131687242798" fill="#b08d57" opacity="0.5339270404663923" transform="rotate(-30 487.88425925925924 329.67399691358025)"/><ellipse cx="495.5636574074074" cy="293.47296687366713" rx="15.358796296296296" ry="6.826131687242798" fill="#b08d57" opacity="0.5339270404663923" transform="rotate(-15 495.5636574074074 293.47296687366713)"/><ellipse cx="503.24305555555554" cy="278.47800925925924" rx="15.358796296296296" ry="6.826131687242798" fill="#b08d57" opacity="0.5339270404663923" transform="rotate(0 503.24305555555554 278.47800925925924)"/><ellipse cx="510.9224537037037" cy="293.47296687366713" rx="15.358796296296296" ry="6.826131687242798" fill="#b08d57" opacity="0.5339270404663923" transform="rotate(15 510.9224537037037 293.47296687366713)"/><ellipse cx="518.6018518518518" cy="329.67399691358025" rx="15.358796296296296" ry="6.826131687242798" fill="#b08d57" opacity="0.5339270404663923" transform="rotate(30 518.6018518518518 329.67399691358025)"/></g><g transform="rotate(70.52777777777779 521.7847222222223 286.5123456790123)"><ellipse cx="521.7847222222223" cy="286.5123456790123" rx="14.428433641975309" ry="6.412637174211248" fill="#5f6b41" opacity="0.5437060613854595" transform="rotate(-30 521.7847222222223 286.5123456790123)"/><ellipse cx="528.9989390432099" cy="252.50420144520945" rx="14.428433641975309" ry="6.412637174211248" fill="#5f6b41" opacity="0.5437060613854595" transform="rotate(-15 528.9989390432099 252.50420144520945)"/><ellipse cx="536.2131558641976" cy="238.41756687242793" rx="14.428433641975309" ry="6.412637174211248" fill="#5f6b41" opacity="0.5437060613854595" transform="rotate(0 536.2131558641976 238.41756687242793)"/><ellipse cx="543.4273726851852" cy="252.50420144520945" rx="14.428433641975309" ry="6.412637174211248" fill="#5f6b41" opacity="0.5437060613854595" transform="rotate(15 543.4273726851852 252.50420144520945)"/><ellipse cx="550.6415895061729" cy="286.5123456790123" rx="14.428433641975309" ry="6.412637174211248" fill="#5f6b41" opacity="0.5437060613854595" transform="rotate(30 550.6415895061729 286.5123456790123)"/></g><g transform="rotate(107.20216049382715 423.8796296296296 590.457175925926)"><ellipse cx="423.8796296296296" cy="590.457175925926" rx="16.245756172839506" ry="7.220336076817558" fill="#b08d57" opacity="0.6745627572016462" transform="rotate(-30 423.8796296296296 590.457175925926)"/><ellipse cx="432.00250771604937" cy="552.1655614081992" rx="16.245756172839506" ry="7.220336076817558" fill="#b08d57" opacity="0.6745627572016462" transform="rotate(-15 432.00250771604937 552.1655614081992)"/><ellipse cx="440.1253858024691" cy="536.3046553497943" rx="16.245756172839506" ry="7.220336076817558" fill="#b08d57" opacity="0.6745627572016462" transform="rotate(0 440.1253858024691 536.3046553497943)"/><ellipse cx="448.24826388888886" cy="552.1655614081992" rx="16.245756172839506" ry="7.220336076817558" fill="#b08d57" opacity="0.6745627572016462" transform="rotate(15 448.24826388888886 552.1655614081992)"/><ellipse cx="456.37114197530866" cy="590.457175925926" rx="16.245756172839506" ry="7.220336076817558" fill="#b08d57" opacity="0.6745627572016462" transform="rotate(30 456.37114197530866 590.457175925926)"/></g><g transform="rotate(327.1172839506173 635.8356481481482 476.23070987654324)"><ellipse cx="635.8356481481482" cy="476.23070987654324" rx="16.838541666666664" ry="7.483796296296296" fill="#5f6b41" opacity="0.6124539180384088" transform="rotate(-30 635.8356481481482 476.23070987654324)"/><ellipse cx="644.2549189814815" cy="436.54188655056913" rx="16.838541666666664" ry="7.483796296296296" fill="#5f6b41" opacity="0.6124539180384088" transform="rotate(-15 644.2549189814815 436.54188655056913)"/><ellipse cx="652.6741898148148" cy="420.102237654321" rx="16.838541666666664" ry="7.483796296296296" fill="#5f6b41" opacity="0.6124539180384088" transform="rotate(0 652.6741898148148 420.102237654321)"/><ellipse cx="661.0934606481482" cy="436.54188655056913" rx="16.838541666666664" ry="7.483796296296296" fill="#5f6b41" opacity="0.6124539180384088" transform="rotate(15 661.0934606481482 436.54188655056913)"/><ellipse cx="669.5127314814815" cy="476.23070987654324" rx="16.838541666666664" ry="7.483796296296296" fill="#5f6b41" opacity="0.6124539180384088" transform="rotate(30 669.5127314814815 476.23070987654324)"/></g><circle cx="132.19907407407408" cy="373.7770061728395" r="31.35185185185185" fill="#8a9767" opacity="0.19807527434842248"/><circle cx="893.329475308642" cy="247.63888888888886" r="23.69241898148148" fill="#8a9767" opacity="0.2160815329218107"/><circle cx="679.2283950617284" cy="593.491512345679" r="26.321180555555557" fill="#8a9767" opacity="0.13560528120713305"/><circle cx="592.6736111111111" cy="147.445987654321" r="31.27980324074074" fill="#b08d57" opacity="0.1273255315500686"/><circle cx="503.1095679012345" cy="512.2800925925926" r="22.609953703703702" fill="#8a9767" opacity="0.14710648148148148"/><circle cx="346.6473765432099" cy="557.4382716049382" r="18.35329861111111" fill="#b08d57" opacity="0.21377529149519892"/>
</svg>