<svg width="800" height="1100" viewBox="0 0 800 1100" xmlns="http://www.w3.org/2000/svg" role="img">
  <defs>
    <linearGradient id="g7" x1="0.1" y1="0" x2="0.9" y2="1">
      <stop offset="0%" stop-color="#3a4326"/>
      <stop offset="100%" stop-color="#1c2113"/>
    </linearGradient>
    <radialGradient id="v7" cx="50%" cy="42%" r="72%">
      <stop offset="0%" stop-color="#000000" stop-opacity="0"/>
      <stop offset="100%" stop-color="#000000" stop-opacity="0.3"/>
    </radialGradient>
    <filter id="n7"><feTurbulence type="fractalNoise" baseFrequency="0.8" numOctaves="2" stitchTiles="stitch" result="noise"/><feColorMatrix in="noise" type="matrix" values="0 0 0 0 0  0 0 0 0 0  0 0 0 0 0  0 0 0 0.06 0"/></filter>
  </defs>
  <rect width="800" height="1100" fill="url(#g7)"/>
  <path d="M 150.21707818930042 232.73185185185184 Q 199.80845679012347 150.07955418381343 315.52167352537725 232.73185185185184 Q 199.80845679012347 315.38414951989023 150.21707818930042 232.73185185185184 Z" fill="#c9a469" opacity="0.7759574331275719" transform="rotate(201.88425925925927 150.21707818930042 232.73185185185184)"/><path d="M 206.5934156378601 227.4464609053498 Q 287.3313477366255 92.88324074074075 475.71985596707816 227.4464609053498 Q 287.3313477366255 362.00968106995884 206.5934156378601 227.4464609053498 Z" fill="#c9a469" opacity="0.7426658950617283" transform="rotate(28.280864197530864 206.5934156378601 227.4464609053498)"/><path d="M 122.89814814814815 241.7635390946502 Q 194.60176954732512 122.25750342935527 361.91021947873804 241.7635390946502 Q 194.60176954732512 361.26957475994516 122.89814814814815 241.7635390946502 Z" fill="#c9a469" opacity="0.7352617026748971" transform="rotate(281.2515432098765 122.89814814814815 241.7635390946502)"/><path d="M 201.85720164609052 239.92012345679012 Q 253.18268518518516 154.37765089163236 372.94214677640605 239.92012345679012 Q 253.18268518518516 325.4625960219479 201.85720164609052 239.92012345679012 Z" fill="#c9a469" opacity="0.7264300411522633" transform="rotate(241.90740740740742 201.85720164609052 239.92012345679012)"/><path d="M 268.685390946502 180.10880658436213 Q 351.88150205761315 41.44862139917694 546.0057613168724 180.10880658436213 Q 351.88150205761315 318.7689917695473 268.685390946502 180.10880658436213 Z" fill="#c9a469" opacity="0.7666338734567901" transform="rotate(18.026234567901234 268.685390946502 180.10880658436213)"/><path d="M 178.81975308641975 250.21106995884773 Q 231.41673868312756 162.54942729766805 354.14303840877915 250.21106995884773 Q 231.41673868312756 337.8727126200274 178.81975308641975 250.21106995884773 Z" fill="#c9a469" opacity="0.8007806069958847" transform="rotate(344.0524691358025 178.81975308641975 250.21106995884773)"/><g><ellipse cx="147.5" cy="363.0" rx="37.5" ry="23.0" fill="#c9a469" opacity="0.96" transform="rotate(3.3316311949163384 147.5 363.0)"/><ellipse cx="125.0" cy="394.5" rx="37.5" ry="23.0" fill="#c9a469" opacity="0.96" transform="rotate(67.83592485247505 125.0 394.5)"/><ellipse cx="90.6" cy="390.7" rx="37.5" ry="23.0" fill="#c9a469" opacity="0.96" transform="rotate(124.73246486455311 90.6 390.7)"/><ellipse cx="75.0" cy="359.5" rx="37.5" ry="23.0" fill="#c9a469" opacity="0.96" transform="rotate(182.20004691781736 75.0 359.5)"/><ellipse cx="99.5" cy="326.5" rx="37.5" ry="23.0" fill="#c9a469" opacity="0.96" transform="rotate(251.0700490837996 99.5 326.5)"/><ellipse cx="132.1" cy="331.2" rx="37.5" ry="23.0" fill="#c9a469" opacity="0.96" transform="rotate(305.03769604592264 132.1 331.2)"/><circle cx="111.31086419753088" cy="360.8793209876543" r="21.8" fill="#12150c"/></g><g><ellipse cx="202.5" cy="141.9" rx="48.9" ry="29.9" fill="#f4ede3" opacity="0.96" transform="rotate(3.418392743754629 202.5 141.9)"/><ellipse cx="169.4" cy="184.2" rx="48.9" ry="29.9" fill="#f4ede3" opacity="0.96" transform="rotate(72.66417741425938 169.4 184.2)"/><ellipse cx="127.0" cy="177.0" rx="48.9" ry="29.9" fill="#f4ede3" opacity="0.96" transform="rotate(126.74234864241846 127.0 177.0)"/><ellipse cx="108.1" cy="136.3" rx="48.9" ry="29.9" fill="#f4ede3" opacity="0.96" transform="rotate(183.38099870041245 108.1 136.3)"/><ellipse cx="138.1" cy="95.1" rx="48.9" ry="29.9" fill="#f4ede3" opacity="0.96" transform="rotate(248.6368573670162 138.1 95.1)"/><ellipse cx="182.9" cy="100.7" rx="48.9" ry="29.9" fill="#f4ede3" opacity="0.96" transform="rotate(305.7544459111664 182.9 100.7)"/><circle cx="155.29364197530865" cy="139.09543209876543" r="28.4" fill="#12150c"/></g><g><ellipse cx="284.6" cy="281.0" rx="30.2" ry="18.5" fill="#c9a469" opacity="0.96" transform="rotate(3.2067387742956153 284.6 281.0)"/><ellipse cx="267.1" cy="306.2" rx="30.2" ry="18.5" fill="#c9a469" opacity="0.96" transform="rotate(66.45105579904347 267.1 306.2)"/><ellipse cx="240.2" cy="304.4" rx="30.2" ry="18.5" fill="#c9a469" opacity="0.96" transform="rotate(121.29184446285122 240.2 304.4)"/><ellipse cx="226.2" cy="279.1" rx="30.2" ry="18.5" fill="#c9a469" opacity="0.96" transform="rotate(180.68254874514253 226.2 279.1)"/><ellipse cx="243.4" cy="252.7" rx="30.2" ry="18.5" fill="#c9a469" opacity="0.96" transform="rotate(245.90525013193547 243.4 252.7)"/><ellipse cx="274.1" cy="256.9" rx="30.2" ry="18.5" fill="#c9a469" opacity="0.96" transform="rotate(309.75376647768036 274.1 256.9)"/><circle cx="255.37641975308642" cy="279.4115432098765" r="17.5" fill="#12150c"/></g><path d="M 615.7025514403292 373.4325102880658 Q 663.5803909465021 293.63611111111106 775.2953497942387 373.4325102880658 Q 663.5803909465021 453.2289094650206 615.7025514403292 373.4325102880658 Z" fill="#c9a469" opacity="0.7658256172839506" transform="rotate(343.8641975308642 615.7025514403292 373.4325102880658)"/><path d="M 615.8437037037037 342.2897119341564 Q 667.9481893004115 255.44890260631 789.5253223593965 342.2897119341564 Q 667.9481893004115 429.1305212620028 615.8437037037037 342.2897119341564 Z" fill="#c9a469" opacity="0.7355047582304526" transform="rotate(301.8348765432099 615.8437037037037 342.2897119341564)"/><path d="M 593.1354732510288 409.83827160493826 Q 634.5246296296295 340.8563443072702 731.0993278463649 409.83827160493826 Q 634.5246296296295 478.8201989026063 593.1354732510288 409.83827160493826 Z" fill="#c9a469" opacity="0.8287564300411522" transform="rotate(267.4907407407407 593.1354732510288 409.83827160493826)"/><path d="M 672.4371193415637 407.2485596707819 Q 740.5393415637859 293.7448559670782 899.4445267489712 407.2485596707819 Q 740.5393415637859 520.7522633744857 672.4371193415637 407.2485596707819 Z" fill="#c9a469" opacity="0.7960435956790123" transform="rotate(348.6095679012345 672.4371193415637 407.2485596707819)"/><path d="M 600.2967901234568 354.8465020576132 Q 638.0663991769547 291.8971536351166 726.19548696845 354.8465020576132 Q 638.0663991769547 417.7958504801098 600.2967901234568 354.8465020576132 Z" fill="#c9a469" opacity="0.7322736625514403" transform="rotate(199.6358024691358 600.2967901234568 354.8465020576132)"/><path d="M 655.8848559670782 342.6469135802469 Q 715.8909876543211 242.6366941015089 855.9052949245543 342.6469135802469 Q 715.8909876543211 442.6571330589849 655.8848559670782 342.6469135802469 Z" fill="#c9a469" opacity="0.8434651491769547" transform="rotate(141.68055555555554 655.8848559670782 342.6469135802469)"/><g><ellipse cx="625.5" cy="392.0" rx="30.8" ry="18.9" fill="#c9a469" opacity="0.96" transform="rotate(1.2809762433576855 625.5 392.0)"/><ellipse cx="603.9" cy="420.0" rx="30.8" ry="18.9" fill="#c9a469" opacity="0.96" transform="rotate(74.1887982618565 603.9 420.0)"/><ellipse cx="578.0" cy="415.2" rx="30.8" ry="18.9" fill="#c9a469" opacity="0.96" transform="rotate(126.53542265545097 578.0 415.2)"/><ellipse cx="566.6" cy="384.8" rx="30.8" ry="18.9" fill="#c9a469" opacity="0.96" transform="rotate(192.49495248248422 566.6 384.8)"/><ellipse cx="584.8" cy="363.6" rx="30.8" ry="18.9" fill="#c9a469" opacity="0.96" transform="rotate(248.41519481124394 584.8 363.6)"/><ellipse cx="613.6" cy="367.4" rx="30.8" ry="18.9" fill="#c9a469" opacity="0.96" transform="rotate(306.7190771441809 613.6 367.4)"/><circle cx="595.7329629629629" cy="391.2908641975309" r="17.9" fill="#12150c"/></g><g><ellipse cx="586.7" cy="435.6" rx="39.6" ry="24.3" fill="#f4ede3" opacity="0.96" transform="rotate(3.7882192183852177 586.7 435.6)"/><ellipse cx="567.4" cy="466.5" rx="39.6" ry="24.3" fill="#f4ede3" opacity="0.96" transform="rotate(60.34950229015395 567.4 466.5)"/><ellipse cx="528.0" cy="465.6" rx="39.6" ry="24.3" fill="#f4ede3" opacity="0.96" transform="rotate(122.21226598945132 528.0 465.6)"/><ellipse cx="510.7" cy="426.4" rx="39.6" ry="24.3" fill="#f4ede3" opacity="0.96" transform="rotate(190.12807532532244 510.7 426.4)"/><ellipse cx="535.3" cy="397.1" rx="39.6" ry="24.3" fill="#f4ede3" opacity="0.96" transform="rotate(249.99403395156872 535.3 397.1)"/><ellipse cx="572.8" cy="403.5" rx="39.6" ry="24.3" fill="#f4ede3" opacity="0.96" transform="rotate(309.4584210778841 572.8 403.5)"/><circle cx="548.4207407407407" cy="433.111975308642" r="23.0" fill="#12150c"/></g><g><ellipse cx="735.6" cy="321.1" rx="38.4" ry="23.5" fill="#c9a469" opacity="0.96" transform="rotate(2.4160604555478002 735.6 321.1)"/><ellipse cx="716.8" cy="351.9" rx="38.4" ry="23.5" fill="#c9a469" opacity="0.96" transform="rotate(60.53573567842469 716.8 351.9)"/><ellipse cx="679.3" cy="351.3" rx="38.4" ry="23.5" fill="#c9a469" opacity="0.96" transform="rotate(121.17168002472205 679.3 351.3)"/><ellipse cx="661.4" cy="319.3" rx="38.4" ry="23.5" fill="#c9a469" opacity="0.96" transform="rotate(180.3008102107281 661.4 319.3)"/><ellipse cx="684.4" cy="285.2" rx="38.4" ry="23.5" fill="#c9a469" opacity="0.96" transform="rotate(247.6934713540286 684.4 285.2)"/><ellipse cx="723.3" cy="291.9" rx="38.4" ry="23.5" fill="#c9a469" opacity="0.96" transform="rotate(311.89934949329 723.3 291.9)"/><circle cx="698.5085185185185" cy="319.5330864197531" r="22.3" fill="#12150c"/></g><path d="M 191.49444444444447 760.2580246913581 Q 248.87901234567903 664.6170781893004 382.77633744855973 760.2580246913581 Q 248.87901234567903 855.8989711934157 191.49444444444447 760.2580246913581 Z" fill="#c9a469" opacity="0.7732478137860082" transform="rotate(52.41820987654321 191.49444444444447 760.2580246913581)"/><path d="M 217.16419753086421 762.6314814814815 Q 269.5680555555556 675.2917181069959 391.84372427983544 762.6314814814815 Q 269.5680555555556 849.9712448559671 217.16419753086421 762.6314814814815 Z" fill="#c9a469" opacity="0.8185828189300411" transform="rotate(23.074074074074073 217.16419753086421 762.6314814814815)"/><path d="M 184.13024691358027 809.8567901234568 Q 229.65524691358027 733.9817901234568 335.88024691358027 809.8567901234568 Q 229.65524691358027 885.7317901234568 184.13024691358027 809.8567901234568 Z" fill="#c9a469" opacity="0.7129533179012345" transform="rotate(49.1929012345679 184.13024691358027 809.8567901234568)"/><path d="M 252.83703703703702 779.7117283950618 Q 296.3628086419753 707.1687757201646 397.92294238683127 779.7117283950618 Q 296.3628086419753 852.2546810699589 252.83703703703702 779.7117283950618 Z" fill="#c9a469" opacity="0.7012667181069958" transform="rotate(145.21913580246914 252.83703703703702 779.7117283950618)"/><path d="M 290.3956790123457 768.6407407407407 Q 346.2462962962963 675.556378600823 476.56440329218105 768.6407407407407 Q 346.2462962962963 861.7251028806585 290.3956790123457 768.6407407407407 Z" fill="#c9a469" opacity="0.8395415380658435" transform="rotate(272.2638888888889 290.3956790123457 768.6407407407407)"/><path d="M 222.58395061728396 771.7549382716049 Q 285.1945987654321 667.4038580246913 431.28611111111115 771.7549382716049 Q 285.1945987654321 876.1060185185186 222.58395061728396 771.7549382716049 Z" fill="#c9a469" opacity="0.711574074074074" transform="rotate(258.1049382716049 222.58395061728396 771.7549382716049)"/><path d="M 193.84629629629632 746.8320987654321 Q 236.42993827160495 675.8593621399177 335.7917695473251 746.8320987654321 Q 236.42993827160495 817.8048353909464 193.84629629629632 746.8320987654321 Z" fill="#c9a469" opacity="0.7456050668724279" transform="rotate(317.1867283950617 193.84629629629632 746.8320987654321)"/><g><ellipse cx="308.0" cy="783.1" rx="31.7" ry="19.4" fill="#c9a469" opacity="0.96" transform="rotate(7.73362850402169 308.0 783.1)"/><ellipse cx="286.7" cy="808.2" rx="31.7" ry="19.4" fill="#c9a469" opacity="0.96" transform="rotate(72.97843474402184 286.7 808.2)"/><ellipse cx="259.0" cy="803.2" rx="31.7" ry="19.4" fill="#c9a469" opacity="0.96" transform="rotate(127.56501759594671 259.0 803.2)"/><ellipse cx="247.2" cy="775.7" rx="31.7" ry="19.4" fill="#c9a469" opacity="0.96" transform="rotate(186.03837047013894 247.2 775.7)"/><ellipse cx="263.2" cy="752.0" rx="31.7" ry="19.4" fill="#c9a469" opacity="0.96" transform="rotate(241.72282769802177 263.2 752.0)"/><ellipse cx="298.5" cy="756.5" rx="31.7" ry="19.4" fill="#c9a469" opacity="0.96" transform="rotate(312.87699802874874 298.5 756.5)"/><circle cx="277.68425925925925" cy="778.9407407407407" r="18.4" fill="#12150c"/></g><g><ellipse cx="331.7" cy="798.7" rx="42.7" ry="26.2" fill="#f4ede3" opacity="0.96" transform="rotate(9.710355002076238 331.7 798.7)"/><ellipse cx="307.4" cy="829.7" rx="42.7" ry="26.2" fill="#f4ede3" opacity="0.96" transform="rotate(66.56636944994108 307.4 829.7)"/><ellipse cx="262.4" cy="821.5" rx="42.7" ry="26.2" fill="#f4ede3" opacity="0.96" transform="rotate(133.85219046940674 262.4 821.5)"/><ellipse cx="250.7" cy="782.7" rx="42.7" ry="26.2" fill="#f4ede3" opacity="0.96" transform="rotate(192.69027342151793 250.7 782.7)"/><ellipse cx="274.2" cy="754.0" rx="42.7" ry="26.2" fill="#f4ede3" opacity="0.96" transform="rotate(245.95424922321146 274.2 754.0)"/><ellipse cx="315.9" cy="758.8" rx="42.7" ry="26.2" fill="#f4ede3" opacity="0.96" transform="rotate(307.12807833088425 315.9 758.8)"/><circle cx="290.9925925925926" cy="791.7490740740741" r="24.8" fill="#12150c"/></g><g><ellipse cx="340.9" cy="859.7" rx="42.9" ry="26.3" fill="#c9a469" opacity="0.96" transform="rotate(7.807679762265836 340.9 859.7)"/><ellipse cx="311.1" cy="894.0" rx="42.9" ry="26.3" fill="#c9a469" opacity="0.96" transform="rotate(74.1798335158336 311.1 894.0)"/><ellipse cx="273.6" cy="886.3" rx="42.9" ry="26.3" fill="#c9a469" opacity="0.96" transform="rotate(129.09798916586655 273.6 886.3)"/><ellipse cx="259.2" cy="845.5" rx="42.9" ry="26.3" fill="#c9a469" opacity="0.96" transform="rotate(191.88178841546426 259.2 845.5)"/><ellipse cx="283.1" cy="816.1" rx="42.9" ry="26.3" fill="#c9a469" opacity="0.96" transform="rotate(246.30626901053628 283.1 816.1)"/><ellipse cx="321.2" cy="818.5" rx="42.9" ry="26.3" fill="#c9a469" opacity="0.96" transform="rotate(301.0807431147224 321.2 818.5)"/><circle cx="299.8009259259259" cy="854.0574074074074" r="24.9" fill="#12150c"/></g><path d="M 579.4908641975309 930.872098765432 Q 629.9575308641976 846.760987654321 747.7130864197532 930.872098765432 Q 629.9575308641976 1014.9832098765431 579.4908641975309 930.872098765432 Z" fill="#c9a469" opacity="0.8173630401234567" transform="rotate(199.77623456790124 579.4908641975309 930.872098765432)"/><path d="M 636.0562962962963 927.5560493827161 Q 680.5235802469136 853.4439094650206 784.2805761316872 927.5560493827161 Q 680.5235802469136 1001.6681893004115 636.0562962962963 927.5560493827161 Z" fill="#c9a469" opacity="0.7077597736625514" transform="rotate(180.80246913580245 636.0562962962963 927.5560493827161)"/><path d="M 648.5032098765432 920.2992592592593 Q 693.6303703703704 845.0873251028806 798.9270781893005 920.2992592592593 Q 693.6303703703704 995.511193415638 648.5032098765432 920.2992592592593 Z" fill="#c9a469" opacity="0.7231179269547324" transform="rotate(132.84722222222223 648.5032098765432 920.2992592592593)"/><path d="M 557.4538271604938 905.1906172839506 Q 593.9890123456789 844.2986419753086 679.2377777777778 905.1906172839506 Q 593.9890123456789 966.0825925925926 557.4538271604938 905.1906172839506 Z" fill="#c9a469" opacity="0.7472337962962963" transform="rotate(243.68827160493828 557.4538271604938 905.1906172839506)"/><path d="M 593.6637037037037 848.4523456790123 Q 652.9772839506173 749.596378600823 791.3756378600824 848.4523456790123 Q 652.9772839506173 947.3083127572016 593.6637037037037 848.4523456790123 Z" fill="#c9a469" opacity="0.7583481224279836" transform="rotate(7.770061728395062 593.6637037037037 848.4523456790123)"/><path d="M 561.2217283950617 929.64 Q 611.8396296296296 845.2768312757202 729.9480658436214 929.64 Q 611.8396296296296 1014.0031687242798 561.2217283950617 929.64 Z" fill="#c9a469" opacity="0.7458127572016461" transform="rotate(66.20370370370371 561.2217283950617 929.64)"/><path d="M 579.9501234567902 940.0424691358024 Q 628.8871604938272 858.4807407407407 743.0735802469136 940.0424691358024 Q 628.8871604938272 1021.6041975308642 579.9501234567902 940.0424691358024 Z" fill="#c9a469" opacity="0.7267573302469136" transform="rotate(326.766975308642 579.9501234567902 940.0424691358024)"/><g><ellipse cx="605.3" cy="970.7" rx="28.5" ry="17.5" fill="#c9a469" opacity="0.96" transform="rotate(1.2181002164571837 605.3 970.7)"/><ellipse cx="590.5" cy="994.6" rx="28.5" ry="17.5" fill="#c9a469" opacity="0.96" transform="rotate(62.336667191111914 590.5 994.6)"/><ellipse cx="561.1" cy="992.2" rx="28.5" ry="17.5" fill="#c9a469" opacity="0.96" transform="rotate(126.94411683030424 561.1 992.2)"/><ellipse cx="550.1" cy="968.4" rx="28.5" ry="17.5" fill="#c9a469" opacity="0.96" transform="rotate(183.59013517270066 550.1 968.4)"/><ellipse cx="566.3" cy="944.9" rx="28.5" ry="17.5" fill="#c9a469" opacity="0.96" transform="rotate(245.75868267469767 566.3 944.9)"/><ellipse cx="594.4" cy="948.2" rx="28.5" ry="17.5" fill="#c9a469" opacity="0.96" transform="rotate(307.3046101446918 594.4 948.2)"/><circle cx="577.6792592592593" cy="970.1066666666667" r="16.6" fill="#12150c"/></g><g><ellipse cx="581.8" cy="823.9" rx="20.1" ry="12.3" fill="#f4ede3" opacity="0.96" transform="rotate(10.622057392133515 581.8 823.9)"/><ellipse cx="570.5" cy="838.2" rx="20.1" ry="12.3" fill="#f4ede3" opacity="0.96" transform="rotate(66.53493143649084 570.5 838.2)"/><ellipse cx="550.8" cy="835.7" rx="20.1" ry="12.3" fill="#f4ede3" opacity="0.96" transform="rotate(127.92612493403446 550.8 835.7)"/><ellipse cx="543.8" cy="816.0" rx="20.1" ry="12.3" fill="#f4ede3" opacity="0.96" transform="rotate(192.89462050894454 543.8 816.0)"/><ellipse cx="553.5" cy="803.3" rx="20.1" ry="12.3" fill="#f4ede3" opacity="0.96" transform="rotate(241.50184056831966 553.5 803.3)"/><ellipse cx="574.1" cy="804.6" rx="20.1" ry="12.3" fill="#f4ede3" opacity="0.96" transform="rotate(305.79982226261114 574.1 804.6)"/><circle cx="562.7259259259259" cy="820.3533333333334" r="11.6" fill="#12150c"/></g><g><ellipse cx="563.1" cy="883.6" rx="19.6" ry="12.0" fill="#c9a469" opacity="0.96" transform="rotate(1.8226679516743136 563.1 883.6)"/><ellipse cx="550.5" cy="900.9" rx="19.6" ry="12.0" fill="#c9a469" opacity="0.96" transform="rotate(70.43478016357244 550.5 900.9)"/><ellipse cx="531.4" cy="897.0" rx="19.6" ry="12.0" fill="#c9a469" opacity="0.96" transform="rotate(132.190703739035 531.4 897.0)"/><ellipse cx="525.2" cy="882.9" rx="19.6" ry="12.0" fill="#c9a469" opacity="0.96" transform="rotate(180.41477300948523 525.2 882.9)"/><ellipse cx="537.0" cy="865.5" rx="19.6" ry="12.0" fill="#c9a469" opacity="0.96" transform="rotate(247.68954160234728 537.0 865.5)"/><ellipse cx="554.8" cy="867.3" rx="19.6" ry="12.0" fill="#c9a469" opacity="0.96" transform="rotate(303.99661886223316 554.8 867.3)"/><circle cx="544.1725925925925" cy="883" r="11.4" fill="#12150c"/></g><g><ellipse cx="595.2" cy="859.4" rx="31.3" ry="19.2" fill="#f4ede3" opacity="0.96" transform="rotate(7.048807871188391 595.2 859.4)"/><ellipse cx="578.8" cy="882.7" rx="31.3" ry="19.2" fill="#f4ede3" opacity="0.96" transform="rotate(63.29325471365383 578.8 882.7)"/><ellipse cx="546.2" cy="879.2" rx="31.3" ry="19.2" fill="#f4ede3" opacity="0.96" transform="rotate(128.99489458660295 546.2 879.2)"/><ellipse cx="535.7" cy="849.0" rx="31.3" ry="19.2" fill="#f4ede3" opacity="0.96" transform="rotate(192.70341352870219 535.7 849.0)"/><ellipse cx="556.7" cy="826.6" rx="31.3" ry="19.2" fill="#f4ede3" opacity="0.96" transform="rotate(253.57882711807764 556.7 826.6)"/><ellipse cx="582.8" cy="831.0" rx="31.3" ry="19.2" fill="#f4ede3" opacity="0.96" transform="rotate(305.4759861631256 582.8 831.0)"/><circle cx="565.2192592592593" cy="855.6466666666666" r="18.1" fill="#12150c"/></g><path d="M 376.26748971193416 522.2086419753086 Q 412.55771604938275 461.72493141289436 497.2349108367627 522.2086419753086 Q 412.55771604938275 582.6923525377229 376.26748971193416 522.2086419753086 Z" fill="#c9a469" opacity="0.7201028806584362" transform="rotate(288.94444444444446 376.26748971193416 522.2086419753086)"/><path d="M 460.6152263374486 528.5069958847737 Q 501.1343621399177 460.9751028806585 595.679012345679 528.5069958847737 Q 501.1343621399177 596.0388888888889 460.6152263374486 528.5069958847737 Z" fill="#c9a469" opacity="0.7528993055555555" transform="rotate(260.6188271604938 460.6152263374486 528.5069958847737)"/><path d="M 456.34567901234567 561.4473251028807 Q 486.5690329218107 511.0750685871056 557.0901920438957 561.4473251028807 Q 486.5690329218107 611.8195816186557 456.34567901234567 561.4473251028807 Z" fill="#c9a469" opacity="0.8185275205761317" transform="rotate(115.53395061728395 456.34567901234567 561.4473251028807)"/><path d="M 424.19958847736626 514.6592592592592 Q 457.2320987654321 459.60507544581617 534.3079561042524 514.6592592592592 Q 457.2320987654321 569.7134430727023 424.19958847736626 514.6592592592592 Z" fill="#c9a469" opacity="0.8063393775720165" transform="rotate(254.80092592592592 424.19958847736626 514.6592592592592)"/><path d="M 400.02880658436214 534.2168724279835 Q 441.0494855967078 465.849074074074 536.7644032921811 534.2168724279835 Q 441.0494855967078 602.584670781893 400.02880658436214 534.2168724279835 Z" fill="#c9a469" opacity="0.7834645061728395" transform="rotate(346.1975308641975 400.02880658436214 534.2168724279835)"/><path d="M 405.462962962963 581.3053497942387 Q 434.8360082304527 532.3502743484225 503.3731138545954 581.3053497942387 Q 434.8360082304527 630.2604252400549 405.462962962963 581.3053497942387 Z" fill="#c9a469" opacity="0.8114769804526749" transform="rotate(204.1682098765432 405.462962962963 581.3053497942387)"/><path d="M 426.5761316872428 538.8876543209876 Q 465.6287037037037 473.8000342935528 556.7513717421125 538.8876543209876 Q 465.6287037037037 603.9752743484224 426.5761316872428 538.8876543209876 Z" fill="#c9a469" opacity="0.7130619855967077" transform="rotate(189.82407407407408 426.5761316872428 538.8876543209876)"/><g><ellipse cx="423.2" cy="616.7" rx="26.3" ry="16.1" fill="#c9a469" opacity="0.96" transform="rotate(13.243201763548184 423.2 616.7)"/><ellipse cx="408.6" cy="634.2" rx="26.3" ry="16.1" fill="#c9a469" opacity="0.96" transform="rotate(66.44454714782137 408.6 634.2)"/><ellipse cx="381.2" cy="629.7" rx="26.3" ry="16.1" fill="#c9a469" opacity="0.96" transform="rotate(132.37460383724496 381.2 629.7)"/><ellipse cx="373.1" cy="608.0" rx="26.3" ry="16.1" fill="#c9a469" opacity="0.96" transform="rotate(186.32014594616078 373.1 608.0)"/><ellipse cx="386.1" cy="588.5" rx="26.3" ry="16.1" fill="#c9a469" opacity="0.96" transform="rotate(241.23461745399257 386.1 588.5)"/><ellipse cx="415.7" cy="592.1" rx="26.3" ry="16.1" fill="#c9a469" opacity="0.96" transform="rotate(312.72404472502893 415.7 592.1)"/><circle cx="398.4" cy="610.8302469135803" r="15.3" fill="#12150c"/></g><g><ellipse cx="412.2" cy="513.9" rx="19.3" ry="11.8" fill="#f4ede3" opacity="0.96" transform="rotate(0.7301969842780939 412.2 513.9)"/><ellipse cx="401.5" cy="530.6" rx="19.3" ry="11.8" fill="#f4ede3" opacity="0.96" transform="rotate(65.03923110517313 401.5 530.6)"/><ellipse cx="382.9" cy="529.0" rx="19.3" ry="11.8" fill="#f4ede3" opacity="0.96" transform="rotate(124.96782014883982 382.9 529.0)"/><ellipse cx="375.5" cy="509.2" rx="19.3" ry="11.8" fill="#f4ede3" opacity="0.96" transform="rotate(193.99992457167494 375.5 509.2)"/><ellipse cx="387.7" cy="496.0" rx="19.3" ry="11.8" fill="#f4ede3" opacity="0.96" transform="rotate(251.66645030380403 387.7 496.0)"/><ellipse cx="405.3" cy="499.2" rx="19.3" ry="11.8" fill="#f4ede3" opacity="0.96" transform="rotate(308.798775416759 405.3 499.2)"/><circle cx="393.60555555555555" cy="513.7024691358025" r="11.2" fill="#12150c"/></g><g><ellipse cx="443.4" cy="486.4" rx="22.3" ry="13.7" fill="#c9a469" opacity="0.96" transform="rotate(2.24272156498128 443.4 486.4)"/><ellipse cx="430.3" cy="505.4" rx="22.3" ry="13.7" fill="#c9a469" opacity="0.96" transform="rotate(66.91648576379524 430.3 505.4)"/><ellipse cx="409.6" cy="503.4" rx="22.3" ry="13.7" fill="#c9a469" opacity="0.96" transform="rotate(124.4245933812727 409.6 503.4)"/><ellipse cx="400.3" cy="484.3" rx="22.3" ry="13.7" fill="#c9a469" opacity="0.96" transform="rotate(183.47635658105352 400.3 484.3)"/><ellipse cx="413.5" cy="465.6" rx="22.3" ry="13.7" fill="#c9a469" opacity="0.96" transform="rotate(247.4759227570476 413.5 465.6)"/><ellipse cx="435.1" cy="468.6" rx="22.3" ry="13.7" fill="#c9a469" opacity="0.96" transform="rotate(308.1560768097595 435.1 468.6)"/><circle cx="421.81111111111113" cy="485.57469135802467" r="12.9" fill="#12150c"/></g>
  <rect width="800" height="1100" fill="url(#v7)"/>
  <rect width="800" height="1100" filter="url(#n7)" opacity="0.5"/>
</svg>