<svg width="1000" height="750" viewBox="0 0 1000 750" xmlns="http://www.w3.org/2000/svg" role="img">
  <defs>
    <linearGradient id="g8" x1="0.1" y1="0" x2="0.9" y2="1">
      <stop offset="0%" stop-color="#332a20"/>
      <stop offset="100%" stop-color="#191410"/>
    </linearGradient>
    <radialGradient id="v8" cx="50%" cy="42%" r="72%">
      <stop offset="0%" stop-color="#000000" stop-opacity="0"/>
      <stop offset="100%" stop-color="#000000" stop-opacity="0.3"/>
    </radialGradient>
    <filter id="n8"><feTurbulence type="fractalNoise" baseFrequency="0.8" numOctaves="2" stitchTiles="stitch" result="noise"/><feColorMatrix in="noise" type="matrix" values="0 0 0 0 0  0 0 0 0 0  0 0 0 0 0  0 0 0 0.06 0"/></filter>
  </defs>
  <rect width="1000" height="750" fill="url(#g8)"/>
  <path d="M 210 690 L 210 410 A 290 290 0 0 1 790 410 L 790 690" fill="none" stroke="#c9a469" stroke-width="8" opacity="0.85"/><path d="M 207.04814814814816 402.041049382716 Q 243.24621913580248 341.71093106995875 327.7083847736626 402.041049382716 Q 243.24621913580248 462.3711676954732 207.04814814814816 402.041049382716 Z" fill="#c9a469" opacity="0.785448816872428" transform="rotate(142.81172839506172 207.04814814814816 402.041049382716)"/><path d="M 202.27191358024692 402.2833333333333 Q 235.41018518518518 347.05288065843615 312.73281893004116 402.2833333333333 Q 235.41018518518518 457.51378600823045 202.27191358024692 402.2833333333333 Z" fill="#b08d57" opacity="0.8302051183127571" transform="rotate(218.74537037037035 202.27191358024692 402.2833333333333)"/><path d="M 187.47716049382717 388.2848765432098 Q 211.43989197530865 348.3469907407407 267.35293209876545 388.2848765432098 Q 211.43989197530865 428.2227623456789 187.47716049382717 388.2848765432098 Z" fill="#c9a469" opacity="0.7809413580246913" transform="rotate(286.80864197530866 187.47716049382717 388.2848765432098)"/><path d="M 226.88611111111112 378.9345679012345 Q 246.94645061728397 345.50066872427976 293.75390946502057 378.9345679012345 Q 246.94645061728397 412.36846707818927 226.88611111111112 378.9345679012345 Z" fill="#b08d57" opacity="0.7992316100823045" transform="rotate(41.44598765432099 226.88611111111112 378.9345679012345)"/><path d="M 214.05432098765434 406.45462962962955 Q 242.2076388888889 359.53243312757195 307.89871399176957 406.45462962962955 Q 242.2076388888889 453.37682613168715 214.05432098765434 406.45462962962955 Z" fill="#c9a469" opacity="0.8077610596707818" transform="rotate(83.76851851851852 214.05432098765434 406.45462962962955)"/><path d="M 191.87067901234568 428.40061728395057 Q 226.1679012345679 371.2385802469135 306.1947530864198 428.40061728395057 Q 226.1679012345679 485.56265432098763 191.87067901234568 428.40061728395057 Z" fill="#b08d57" opacity="0.8069926697530864" transform="rotate(41.55401234567901 191.87067901234568 428.40061728395057)"/><g><ellipse cx="271.5" cy="424.4" rx="20.2" ry="12.4" fill="#b08d57" opacity="0.96" transform="rotate(13.54413477901631 271.5 424.4)"/><ellipse cx="258.5" cy="438.5" rx="20.2" ry="12.4" fill="#b08d57" opacity="0.96" transform="rotate(72.25327275408539 258.5 438.5)"/><ellipse cx="240.0" cy="435.0" rx="20.2" ry="12.4" fill="#b08d57" opacity="0.96" transform="rotate(129.41138686244875 240.0 435.0)"/><ellipse cx="233.0" cy="418.2" rx="20.2" ry="12.4" fill="#b08d57" opacity="0.96" transform="rotate(184.70900915920546 233.0 418.2)"/><ellipse cx="246.8" cy="401.1" rx="20.2" ry="12.4" fill="#b08d57" opacity="0.96" transform="rotate(253.22164953167115 246.8 401.1)"/><ellipse cx="264.1" cy="404.1" rx="20.2" ry="12.4" fill="#b08d57" opacity="0.96" transform="rotate(306.5224667553768 264.1 404.1)"/><circle cx="252.48564814814813" cy="419.83611111111105" r="11.8" fill="#0f0c09"/></g><g><ellipse cx="223.0" cy="382.1" rx="18.3" ry="11.2" fill="#e8dcc8" opacity="0.96" transform="rotate(10.81252754393562 223.0 382.1)"/><ellipse cx="214.0" cy="394.4" rx="18.3" ry="11.2" fill="#e8dcc8" opacity="0.96" transform="rotate(61.928648442328864 214.0 394.4)"/><ellipse cx="194.8" cy="392.7" rx="18.3" ry="11.2" fill="#e8dcc8" opacity="0.96" transform="rotate(127.80712714093565 194.8 392.7)"/><ellipse cx="188.2" cy="376.0" rx="18.3" ry="11.2" fill="#e8dcc8" opacity="0.96" transform="rotate(189.03990252382764 188.2 376.0)"/><ellipse cx="197.2" cy="363.2" rx="18.3" ry="11.2" fill="#e8dcc8" opacity="0.96" transform="rotate(241.60389130729297 197.2 363.2)"/><ellipse cx="216.9" cy="365.1" rx="18.3" ry="11.2" fill="#e8dcc8" opacity="0.96" transform="rotate(309.5933834871881 216.9 365.1)"/><circle cx="205.63981481481483" cy="378.7402777777777" r="10.6" fill="#0f0c09"/></g><g><ellipse cx="225.8" cy="419.5" rx="16.1" ry="9.9" fill="#b08d57" opacity="0.96" transform="rotate(11.363491010125271 225.8 419.5)"/><ellipse cx="215.2" cy="431.3" rx="16.1" ry="9.9" fill="#b08d57" opacity="0.96" transform="rotate(72.7915259296809 215.2 431.3)"/><ellipse cx="202.2" cy="429.6" rx="16.1" ry="9.9" fill="#b08d57" opacity="0.96" transform="rotate(122.3234656815576 202.2 429.6)"/><ellipse cx="195.4" cy="412.9" rx="16.1" ry="9.9" fill="#b08d57" opacity="0.96" transform="rotate(193.07238037015247 195.4 412.9)"/><ellipse cx="204.6" cy="402.0" rx="16.1" ry="9.9" fill="#b08d57" opacity="0.96" transform="rotate(247.5926486624557 204.6 402.0)"/><ellipse cx="219.5" cy="403.7" rx="16.1" ry="9.9" fill="#b08d57" opacity="0.96" transform="rotate(305.2039122615668 219.5 403.7)"/><circle cx="210.54398148148147" cy="416.3944444444444" r="9.4" fill="#0f0c09"/></g><g><ellipse cx="201.9" cy="453.0" rx="16.3" ry="10.0" fill="#e8dcc8" opacity="0.96" transform="rotate(4.454066518882328 201.9 453.0)"/><ellipse cx="192.8" cy="466.2" rx="16.3" ry="10.0" fill="#e8dcc8" opacity="0.96" transform="rotate(65.4510568008974 192.8 466.2)"/><ellipse cx="175.9" cy="463.7" rx="16.3" ry="10.0" fill="#e8dcc8" opacity="0.96" transform="rotate(130.86533358215283 175.9 463.7)"/><ellipse cx="170.5" cy="450.1" rx="16.3" ry="10.0" fill="#e8dcc8" opacity="0.96" transform="rotate(186.06348403947712 170.5 450.1)"/><ellipse cx="179.8" cy="437.4" rx="16.3" ry="10.0" fill="#e8dcc8" opacity="0.96" transform="rotate(246.12101806018583 179.8 437.4)"/><ellipse cx="196.6" cy="439.9" rx="16.3" ry="10.0" fill="#e8dcc8" opacity="0.96" transform="rotate(311.2589841763512 196.6 439.9)"/><circle cx="186.19814814814816" cy="451.79861111111103" r="9.5" fill="#0f0c09"/></g><path d="M 269.5430963226233 605.4605009425949 Q 305.944562372006 544.7913908602903 390.8813164872323 605.4605009425949 Q 305.944562372006 666.1296110248994 269.5430963226233 605.4605009425949 Z" fill="#c9a469" opacity="0.7876067386831275" transform="rotate(159.84259259259258 269.5430963226233 605.4605009425949)"/><path d="M 242.9150099028702 545.6287108191382 Q 263.6826024954628 511.01605649815053 312.1403185448455 545.6287108191382 Q 263.6826024954628 580.2413651401258 242.9150099028702 545.6287108191382 Z" fill="#b08d57" opacity="0.7720235339506172" transform="rotate(148.7391975308642 242.9150099028702 545.6287108191382)"/><path d="M 268.4906271868208 608.4450688438295 Q 302.39749447077145 551.9336233705785 381.51351813332286 608.4450688438295 Q 302.39749447077145 664.9565143170805 268.4906271868208 608.4450688438295 Z" fill="#c9a469" opacity="0.7198276748971193" transform="rotate(54.20987654320987 268.4906271868208 608.4450688438295)"/><path d="M 263.8255037300307 562.1317972388912 Q 298.36701607570967 504.5626099960928 378.9638782156274 562.1317972388912 Q 298.36701607570967 619.7009844816895 263.8255037300307 562.1317972388912 Z" fill="#b08d57" opacity="0.7537043467078188" transform="rotate(237.36574074074073 263.8255037300307 562.1317972388912)"/><path d="M 295.8085284213887 604.2444515598788 Q 328.535611754722 549.6993126709899 404.8988061991665 604.2444515598788 Q 328.535611754722 658.7895904487677 295.8085284213887 604.2444515598788 Z" fill="#c9a469" opacity="0.774116512345679" transform="rotate(85.98456790123457 295.8085284213887 604.2444515598788)"/><g><ellipse cx="303.2" cy="634.2" rx="20.2" ry="12.4" fill="#b08d57" opacity="0.96" transform="rotate(2.4801031274786824 303.2 634.2)"/><ellipse cx="290.7" cy="651.6" rx="20.2" ry="12.4" fill="#b08d57" opacity="0.96" transform="rotate(68.91488729846685 290.7 651.6)"/><ellipse cx="270.3" cy="647.6" rx="20.2" ry="12.4" fill="#b08d57" opacity="0.96" transform="rotate(133.40076024501954 270.3 647.6)"/><ellipse cx="264.5" cy="629.7" rx="20.2" ry="12.4" fill="#b08d57" opacity="0.96" transform="rotate(190.853605729479 264.5 629.7)"/><ellipse cx="277.5" cy="614.8" rx="20.2" ry="12.4" fill="#b08d57" opacity="0.96" transform="rotate(251.57428534640397 277.5 614.8)"/><ellipse cx="296.5" cy="618.6" rx="20.2" ry="12.4" fill="#b08d57" opacity="0.96" transform="rotate(311.00919933510977 296.5 618.6)"/><circle cx="283.6998864460801" cy="633.3730009425949" r="11.7" fill="#0f0c09"/></g><g><ellipse cx="320.4" cy="634.4" rx="19.3" ry="11.8" fill="#e8dcc8" opacity="0.96" transform="rotate(11.983532142587448 320.4 634.4)"/><ellipse cx="309.3" cy="647.8" rx="19.3" ry="11.8" fill="#e8dcc8" opacity="0.96" transform="rotate(67.24431301733215 309.3 647.8)"/><ellipse cx="292.1" cy="646.3" rx="19.3" ry="11.8" fill="#e8dcc8" opacity="0.96" transform="rotate(122.54561945629001 292.1 646.3)"/><ellipse cx="283.4" cy="629.8" rx="19.3" ry="11.8" fill="#e8dcc8" opacity="0.96" transform="rotate(182.35263180731712 283.4 629.8)"/><ellipse cx="296.4" cy="612.7" rx="19.3" ry="11.8" fill="#e8dcc8" opacity="0.96" transform="rotate(252.19156337221528 296.4 612.7)"/><ellipse cx="313.7" cy="615.9" rx="19.3" ry="11.8" fill="#e8dcc8" opacity="0.96" transform="rotate(308.41022121927233 313.7 615.9)"/><circle cx="302.1040531127467" cy="630.5271676092616" r="11.2" fill="#0f0c09"/></g><g><ellipse cx="252.3" cy="573.2" rx="15.6" ry="9.6" fill="#b08d57" opacity="0.96" transform="rotate(6.864600761128327 252.3 573.2)"/><ellipse cx="242.7" cy="585.5" rx="15.6" ry="9.6" fill="#b08d57" opacity="0.96" transform="rotate(68.85630943746776 242.7 585.5)"/><ellipse cx="227.0" cy="582.5" rx="15.6" ry="9.6" fill="#b08d57" opacity="0.96" transform="rotate(132.87798046666907 227.0 582.5)"/><ellipse cx="222.2" cy="570.3" rx="15.6" ry="9.6" fill="#b08d57" opacity="0.96" transform="rotate(184.29620102556086 222.2 570.3)"/><ellipse cx="232.7" cy="557.0" rx="15.6" ry="9.6" fill="#b08d57" opacity="0.96" transform="rotate(252.51042587972924 232.7 557.0)"/><ellipse cx="246.8" cy="559.7" rx="15.6" ry="9.6" fill="#b08d57" opacity="0.96" transform="rotate(309.09381380470523 246.8 559.7)"/><circle cx="237.2582197794134" cy="571.4313342759283" r="9.1" fill="#0f0c09"/></g><g><ellipse cx="245.5" cy="593.0" rx="22.1" ry="13.5" fill="#e8dcc8" opacity="0.96" transform="rotate(5.028240080939549 245.5 593.0)"/><ellipse cx="233.9" cy="610.1" rx="22.1" ry="13.5" fill="#e8dcc8" opacity="0.96" transform="rotate(63.00791790017078 233.9 610.1)"/><ellipse cx="211.9" cy="608.6" rx="22.1" ry="13.5" fill="#e8dcc8" opacity="0.96" transform="rotate(125.00699486091263 211.9 608.6)"/><ellipse cx="202.9" cy="588.9" rx="22.1" ry="13.5" fill="#e8dcc8" opacity="0.96" transform="rotate(185.9413547255073 202.9 588.9)"/><ellipse cx="214.0" cy="572.2" rx="22.1" ry="13.5" fill="#e8dcc8" opacity="0.96" transform="rotate(241.78791421024297 214.0 572.2)"/><ellipse cx="235.6" cy="573.0" rx="22.1" ry="13.5" fill="#e8dcc8" opacity="0.96" transform="rotate(302.3170184327055 235.6 573.0)"/><circle cx="224.16238644608006" cy="591.0855009425949" r="12.8" fill="#0f0c09"/></g><g><ellipse cx="309.4" cy="612.0" rx="20.6" ry="12.6" fill="#b08d57" opacity="0.96" transform="rotate(10.055436321588758 309.4 612.0)"/><ellipse cx="297.4" cy="626.9" rx="20.6" ry="12.6" fill="#b08d57" opacity="0.96" transform="rotate(67.60406950327943 297.4 626.9)"/><ellipse cx="276.7" cy="623.5" rx="20.6" ry="12.6" fill="#b08d57" opacity="0.96" transform="rotate(131.16153861512942 276.7 623.5)"/><ellipse cx="270.3" cy="604.7" rx="20.6" ry="12.6" fill="#b08d57" opacity="0.96" transform="rotate(190.86907912672407 270.3 604.7)"/><ellipse cx="283.7" cy="589.5" rx="20.6" ry="12.6" fill="#b08d57" opacity="0.96" transform="rotate(252.2529043398653 283.7 589.5)"/><ellipse cx="301.5" cy="592.4" rx="20.6" ry="12.6" fill="#b08d57" opacity="0.96" transform="rotate(305.9847662011115 301.5 592.4)"/><circle cx="289.81655311274676" cy="608.4896676092616" r="11.9" fill="#0f0c09"/></g><path d="M 430.6986518781788 709.6313897255945 Q 453.47234014978375 671.6752426062529 506.6109461168619 709.6313897255945 Q 453.47234014978375 747.5875368449362 430.6986518781788 709.6313897255945 Z" fill="#c9a469" opacity="0.7657085905349794" transform="rotate(53.95370370370371 430.6986518781788 709.6313897255945)"/><path d="M 421.403898791759 659.132932935471 Q 446.87704693990713 616.6776860218907 506.3143926189195 659.132932935471 Q 446.87704693990713 701.5881798490512 421.403898791759 659.132932935471 Z" fill="#b08d57" opacity="0.7029031635802468" transform="rotate(209.51697530864197 421.403898791759 659.132932935471)"/><path d="M 400.31284940904294 691.2826242934957 Q 435.2586055818824 633.0396973387632 516.7987033185079 691.2826242934957 Q 435.2586055818824 749.5255512482282 400.31284940904294 691.2826242934957 Z" fill="#c9a469" opacity="0.7201517489711934" transform="rotate(81.65432098765432 400.31284940904294 691.2826242934957)"/><path d="M 404.9810592855862 694.3026860218908 Q 426.89479385348744 657.7797950753888 478.0268411785903 694.3026860218908 Q 426.89479385348744 730.8255769683929 404.9810592855862 694.3026860218908 Z" fill="#b08d57" opacity="0.7401395318930041" transform="rotate(271.47685185185185 404.9810592855862 694.3026860218908)"/><path d="M 406.2974173102775 697.7486736762118 Q 432.7300561991664 653.6942755280636 494.40621360657383 697.7486736762118 Q 432.7300561991664 741.8030718243599 406.2974173102775 697.7486736762118 Z" fill="#c9a469" opacity="0.7633294753086419" transform="rotate(46.76234567901235 406.2974173102775 697.7486736762118)"/><g><ellipse cx="421.4" cy="656.7" rx="17.5" ry="10.7" fill="#b08d57" opacity="0.96" transform="rotate(12.85612122294197 421.4 656.7)"/><ellipse cx="413.0" cy="667.8" rx="17.5" ry="10.7" fill="#b08d57" opacity="0.96" transform="rotate(61.518603415335164 413.0 667.8)"/><ellipse cx="395.4" cy="667.0" rx="17.5" ry="10.7" fill="#b08d57" opacity="0.96" transform="rotate(124.14766869248241 395.4 667.0)"/><ellipse cx="388.1" cy="651.2" rx="17.5" ry="10.7" fill="#b08d57" opacity="0.96" transform="rotate(186.10990423121223 388.1 651.2)"/><ellipse cx="398.6" cy="637.2" rx="17.5" ry="10.7" fill="#b08d57" opacity="0.96" transform="rotate(248.1568750405697 398.6 637.2)"/><ellipse cx="415.9" cy="640.1" rx="17.5" ry="10.7" fill="#b08d57" opacity="0.96" transform="rotate(310.50962965262687 415.9 640.1)"/><circle cx="404.9332197794133" cy="652.9550008367056" r="10.2" fill="#0f0c09"/></g><g><ellipse cx="419.7" cy="633.5" rx="14.9" ry="9.1" fill="#e8dcc8" opacity="0.96" transform="rotate(5.648281213401724 419.7 633.5)"/><ellipse cx="409.8" cy="645.8" rx="14.9" ry="9.1" fill="#e8dcc8" opacity="0.96" transform="rotate(71.7846498660926 409.8 645.8)"/><ellipse cx="397.0" cy="643.9" rx="14.9" ry="9.1" fill="#e8dcc8" opacity="0.96" transform="rotate(125.22914863564506 397.0 643.9)"/><ellipse cx="391.1" cy="629.7" rx="14.9" ry="9.1" fill="#e8dcc8" opacity="0.96" transform="rotate(189.54555104094248 391.1 629.7)"/><ellipse cx="399.6" cy="618.9" rx="14.9" ry="9.1" fill="#e8dcc8" opacity="0.96" transform="rotate(246.38682892000256 399.6 618.9)"/><ellipse cx="413.7" cy="620.4" rx="14.9" ry="9.1" fill="#e8dcc8" opacity="0.96" transform="rotate(305.52332739041094 413.7 620.4)"/><circle cx="405.33738644608" cy="632.1091675033723" r="8.6" fill="#0f0c09"/></g><g><ellipse cx="449.3" cy="667.2" rx="19.9" ry="12.2" fill="#b08d57" opacity="0.96" transform="rotate(12.465970563834754 449.3 667.2)"/><ellipse cx="436.7" cy="681.2" rx="19.9" ry="12.2" fill="#b08d57" opacity="0.96" transform="rotate(71.00932213984979 436.7 681.2)"/><ellipse cx="417.3" cy="677.0" rx="19.9" ry="12.2" fill="#b08d57" opacity="0.96" transform="rotate(133.17418549964566 417.3 677.0)"/><ellipse cx="411.5" cy="660.0" rx="19.9" ry="12.2" fill="#b08d57" opacity="0.96" transform="rotate(189.10179611280782 411.5 660.0)"/><ellipse cx="422.2" cy="645.7" rx="19.9" ry="12.2" fill="#b08d57" opacity="0.96" transform="rotate(244.31836728113808 422.2 645.7)"/><ellipse cx="441.2" cy="647.0" rx="19.9" ry="12.2" fill="#b08d57" opacity="0.96" transform="rotate(303.8195958294654 441.2 647.0)"/><circle cx="430.49155311274666" cy="663.0133341700389" r="11.5" fill="#0f0c09"/></g><path d="M 595.045175282315 663.7480563922612 Q 618.8480302205866 624.0766314951419 674.3880250765536 663.7480563922612 Q 618.8480302205866 703.4194812893805 595.045175282315 663.7480563922612 Z" fill="#c9a469" opacity="0.7305349794238682" transform="rotate(109.53703703703702 595.045175282315 663.7480563922612)"/><path d="M 598.7504221958952 710.2495996021377 Q 625.50273701071 665.662408244113 687.9248049119446 710.2495996021377 Q 625.50273701071 754.8367909601624 598.7504221958952 710.2495996021377 Z" fill="#b08d57" opacity="0.7448128858024691" transform="rotate(210.10030864197532 598.7504221958952 710.2495996021377)"/><path d="M 578.6593728131792 683.3992909601624 Q 612.1342956526853 627.6077528943188 690.2424489448664 683.3992909601624 Q 612.1342956526853 739.190829026006 578.6593728131792 683.3992909601624 Z" fill="#c9a469" opacity="0.814144804526749" transform="rotate(327.23765432098764 578.6593728131792 683.3992909601624)"/><path d="M 572.3275826897224 687.4193526885574 Q 605.0204839242903 632.9311839642776 681.303920138282 687.4193526885574 Q 605.0204839242903 741.9075214128372 572.3275826897224 687.4193526885574 Z" fill="#b08d57" opacity="0.711215920781893" transform="rotate(342.0601851851852 572.3275826897224 687.4193526885574)"/><path d="M 622.6439407144137 679.8653403428784 Q 651.1057462699692 632.4289977502858 717.5166258995989 679.8653403428784 Q 651.1057462699692 727.301682935471 622.6439407144137 679.8653403428784 Z" fill="#c9a469" opacity="0.7364891975308642" transform="rotate(242.34567901234567 622.6439407144137 679.8653403428784)"/><path d="M 569.8306691094755 719.6261428120142 Q 606.0011938008336 659.3419349930841 690.3990847473356 719.6261428120142 Q 606.0011938008336 779.9103506309443 569.8306691094755 719.6261428120142 Z" fill="#b08d57" opacity="0.7848720421810699" transform="rotate(282.53858024691357 569.8306691094755 719.6261428120142)"/><g><ellipse cx="652.8" cy="718.9" rx="17.3" ry="10.6" fill="#b08d57" opacity="0.96" transform="rotate(1.1824868418455712 652.8 718.9)"/><ellipse cx="644.3" cy="733.1" rx="17.3" ry="10.6" fill="#b08d57" opacity="0.96" transform="rotate(60.54740212872849 644.3 733.1)"/><ellipse cx="625.4" cy="731.5" rx="17.3" ry="10.6" fill="#b08d57" opacity="0.96" transform="rotate(129.4137201525095 625.4 731.5)"/><ellipse cx="619.7" cy="715.0" rx="17.3" ry="10.6" fill="#b08d57" opacity="0.96" transform="rotate(192.08699513607118 619.7 715.0)"/><ellipse cx="630.3" cy="702.9" rx="17.3" ry="10.6" fill="#b08d57" opacity="0.96" transform="rotate(249.84930856543153 630.3 702.9)"/><ellipse cx="646.8" cy="705.7" rx="17.3" ry="10.6" fill="#b08d57" opacity="0.96" transform="rotate(309.8184231733115 646.8 705.7)"/><circle cx="636.0626135539198" cy="718.5489823181871" r="10.0" fill="#0f0c09"/></g><g><ellipse cx="615.1" cy="652.4" rx="12.1" ry="7.4" fill="#e8dcc8" opacity="0.96" transform="rotate(12.310622567684101 615.1 652.4)"/><ellipse cx="607.2" cy="661.1" rx="12.1" ry="7.4" fill="#e8dcc8" opacity="0.96" transform="rotate(72.83604264794542 607.2 661.1)"/><ellipse cx="597.7" cy="660.0" rx="12.1" ry="7.4" fill="#e8dcc8" opacity="0.96" transform="rotate(120.97906078996922 597.7 660.0)"/><ellipse cx="592.4" cy="647.2" rx="12.1" ry="7.4" fill="#e8dcc8" opacity="0.96" transform="rotate(193.56636243696357 592.4 647.2)"/><ellipse cx="598.6" cy="639.4" rx="12.1" ry="7.4" fill="#e8dcc8" opacity="0.96" transform="rotate(244.1335461473778 598.6 639.4)"/><ellipse cx="610.2" cy="640.2" rx="12.1" ry="7.4" fill="#e8dcc8" opacity="0.96" transform="rotate(303.67161611771724 610.2 640.2)"/><circle cx="603.7167802205865" cy="649.9531489848538" r="7.0" fill="#0f0c09"/></g><g><ellipse cx="590.6" cy="716.1" rx="22.3" ry="13.7" fill="#b08d57" opacity="0.96" transform="rotate(5.235411677387099 590.6 716.1)"/><ellipse cx="576.3" cy="734.4" rx="22.3" ry="13.7" fill="#b08d57" opacity="0.96" transform="rotate(70.50232277059447 576.3 734.4)"/><ellipse cx="555.2" cy="730.6" rx="22.3" ry="13.7" fill="#b08d57" opacity="0.96" transform="rotate(130.15091700696988 555.2 730.6)"/><ellipse cx="547.7" cy="711.3" rx="22.3" ry="13.7" fill="#b08d57" opacity="0.96" transform="rotate(187.58534178042336 547.7 711.3)"/><ellipse cx="561.3" cy="694.0" rx="22.3" ry="13.7" fill="#b08d57" opacity="0.96" transform="rotate(248.8623268697297 561.3 694.0)"/><ellipse cx="583.4" cy="698.0" rx="22.3" ry="13.7" fill="#b08d57" opacity="0.96" transform="rotate(311.5503384220962 583.4 698.0)"/><circle cx="569.1209468872532" cy="714.1073156515205" r="12.9" fill="#0f0c09"/></g><g><ellipse cx="577.5" cy="725.9" rx="19.3" ry="11.8" fill="#e8dcc8" opacity="0.96" transform="rotate(12.185730147063378 577.5 725.9)"/><ellipse cx="565.2" cy="739.7" rx="19.3" ry="11.8" fill="#e8dcc8" opacity="0.96" transform="rotate(71.45117359451385 565.2 739.7)"/><ellipse cx="546.8" cy="735.9" rx="19.3" ry="11.8" fill="#e8dcc8" opacity="0.96" transform="rotate(131.86238526653796 546.8 735.9)"/><ellipse cx="541.0" cy="718.1" rx="19.3" ry="11.8" fill="#e8dcc8" opacity="0.96" transform="rotate(192.04886426428874 541.0 718.1)"/><ellipse cx="553.9" cy="704.1" rx="19.3" ry="11.8" fill="#e8dcc8" opacity="0.96" transform="rotate(253.2926920737843 553.9 704.1)"/><ellipse cx="570.9" cy="707.4" rx="19.3" ry="11.8" fill="#e8dcc8" opacity="0.96" transform="rotate(308.387686549475 570.9 707.4)"/><circle cx="559.2751135539199" cy="722.0114823181871" r="11.2" fill="#0f0c09"/></g><g><ellipse cx="616.5" cy="702.9" rx="16.0" ry="9.8" fill="#b08d57" opacity="0.96" transform="rotate(8.094674439739414 616.5 702.9)"/><ellipse cx="607.8" cy="714.7" rx="16.0" ry="9.8" fill="#b08d57" opacity="0.96" transform="rotate(64.93963646100065 607.8 714.7)"/><ellipse cx="591.3" cy="712.6" rx="16.0" ry="9.8" fill="#b08d57" opacity="0.96" transform="rotate(129.69445178824103 591.3 712.6)"/><ellipse cx="585.7" cy="700.2" rx="16.0" ry="9.8" fill="#b08d57" opacity="0.96" transform="rotate(181.89002635158627 585.7 700.2)"/><ellipse cx="595.0" cy="686.4" rx="16.0" ry="9.8" fill="#b08d57" opacity="0.96" transform="rotate(246.68168310083868 595.0 686.4)"/><ellipse cx="611.6" cy="689.2" rx="16.0" ry="9.8" fill="#b08d57" opacity="0.96" transform="rotate(312.0885915976917 611.6 689.2)"/><circle cx="601.1792802205865" cy="700.6656489848538" r="9.3" fill="#0f0c09"/></g><path d="M 753.239311084784 589.056488596916 Q 778.6971814551545 546.6267046462987 838.0988789860186 589.056488596916 Q 778.6971814551545 631.4862725475333 753.239311084784 589.056488596916 Z" fill="#c9a469" opacity="0.7756925154320987" transform="rotate(150.8780864197531 753.239311084784 589.056488596916)"/><path d="M 758.4815950354014 603.5395132882741 Q 786.9954067637964 556.0164937409489 853.5276341300516 603.5395132882741 Q 786.9954067637964 651.0625328355992 758.4815950354014 603.5395132882741 Z" fill="#b08d57" opacity="0.764468878600823" transform="rotate(234.6820987654321 758.4815950354014 603.5395132882741)"/><path d="M 761.4831382452779 584.8929083500025 Q 793.5482617020681 531.451035922019 868.366883101245 584.8929083500025 Q 793.5482617020681 638.334780777986 761.4831382452779 584.8929083500025 Z" fill="#c9a469" opacity="0.7976511059670781" transform="rotate(256.1712962962963 761.4831382452779 584.8929083500025)"/><path d="M 709.1328296033026 610.6722293376567 Q 743.3001907144137 553.7266274858049 823.0240333070063 610.6722293376567 Q 743.3001907144137 667.6178311895086 709.1328296033026 610.6722293376567 Z" fill="#b08d57" opacity="0.825702160493827" transform="rotate(83.12345679012346 709.1328296033026 610.6722293376567)"/><path d="M 705.6528913316977 571.7663651401259 Q 731.8623049119446 528.0840091730477 793.0176032658541 571.7663651401259 Q 731.8623049119446 615.4487211072042 705.6528913316977 571.7663651401259 Z" fill="#c9a469" opacity="0.8435294495884773" transform="rotate(209.98302469135803 705.6528913316977 571.7663651401259)"/><path d="M 708.5988789860187 612.397537979632 Q 745.5123820724384 550.8750328355991 831.6438892740846 612.397537979632 Q 745.5123820724384 673.920043123665 708.5988789860187 612.397537979632 Z" fill="#b08d57" opacity="0.8071514917695473" transform="rotate(357.86111111111114 708.5988789860187 612.397537979632)"/><path d="M 704.8596814551545 610.1213034117309 Q 731.1948666403397 566.2293281030888 792.6436320724384 610.1213034117309 Q 731.1948666403397 654.0132787203729 704.8596814551545 610.1213034117309 Z" fill="#c9a469" opacity="0.8003645833333333" transform="rotate(114.53549382716048 704.8596814551545 610.1213034117309)"/><g><ellipse cx="731.8" cy="556.6" rx="15.3" ry="9.4" fill="#b08d57" opacity="0.96" transform="rotate(0.1345939950838868 731.8 556.6)"/><ellipse cx="722.4" cy="570.3" rx="15.3" ry="9.4" fill="#b08d57" opacity="0.96" transform="rotate(68.7024965005676 722.4 570.3)"/><ellipse cx="709.5" cy="569.3" rx="15.3" ry="9.4" fill="#b08d57" opacity="0.96" transform="rotate(120.33439730712901 709.5 569.3)"/><ellipse cx="702.3" cy="555.2" rx="15.3" ry="9.4" fill="#b08d57" opacity="0.96" transform="rotate(184.96026765732736 702.3 555.2)"/><ellipse cx="709.8" cy="543.6" rx="15.3" ry="9.4" fill="#b08d57" opacity="0.96" transform="rotate(241.04998052734237 709.8 543.6)"/><ellipse cx="727.3" cy="545.9" rx="15.3" ry="9.4" fill="#b08d57" opacity="0.96" transform="rotate(314.28937534394936 727.3 545.9)"/><circle cx="716.9950209613273" cy="556.5216120537061" r="8.9" fill="#0f0c09"/></g><g><ellipse cx="781.1" cy="539.5" rx="18.8" ry="11.5" fill="#e8dcc8" opacity="0.96" transform="rotate(9.737494849625087 781.1 539.5)"/><ellipse cx="771.9" cy="552.4" rx="18.8" ry="11.5" fill="#e8dcc8" opacity="0.96" transform="rotate(61.163083692919244 771.9 552.4)"/><ellipse cx="752.4" cy="551.1" rx="18.8" ry="11.5" fill="#e8dcc8" opacity="0.96" transform="rotate(126.28999738248095 752.4 551.1)"/><ellipse cx="745.1" cy="534.1" rx="18.8" ry="11.5" fill="#e8dcc8" opacity="0.96" transform="rotate(187.30172423330086 745.1 534.1)"/><ellipse cx="755.9" cy="519.7" rx="18.8" ry="11.5" fill="#e8dcc8" opacity="0.96" transform="rotate(246.5413786853429 755.9 519.7)"/><ellipse cx="775.0" cy="522.6" rx="18.8" ry="11.5" fill="#e8dcc8" opacity="0.96" transform="rotate(310.5962069943551 775.0 522.6)"/><circle cx="763.1491876279939" cy="536.4257787203728" r="10.9" fill="#0f0c09"/></g><g><ellipse cx="774.3" cy="598.2" rx="22.1" ry="13.6" fill="#b08d57" opacity="0.96" transform="rotate(8.299021527166046 774.3 598.2)"/><ellipse cx="763.6" cy="613.7" rx="22.1" ry="13.6" fill="#b08d57" opacity="0.96" transform="rotate(60.48722780610887 763.6 613.7)"/><ellipse cx="739.8" cy="611.9" rx="22.1" ry="13.6" fill="#b08d57" opacity="0.96" transform="rotate(128.36619571996795 739.8 611.9)"/><ellipse cx="731.9" cy="591.6" rx="22.1" ry="13.6" fill="#b08d57" opacity="0.96" transform="rotate(189.34476529097702 731.9 591.6)"/><ellipse cx="742.7" cy="576.3" rx="22.1" ry="13.6" fill="#b08d57" opacity="0.96" transform="rotate(240.99140266634322 742.7 576.3)"/><ellipse cx="767.9" cy="579.6" rx="22.1" ry="13.6" fill="#b08d57" opacity="0.96" transform="rotate(313.7665955655989 767.9 579.6)"/><circle cx="753.0533542946606" cy="595.0799453870395" r="12.9" fill="#0f0c09"/></g><g><ellipse cx="730.1" cy="547.5" rx="17.4" ry="10.7" fill="#e8dcc8" opacity="0.96" transform="rotate(13.724105125544991 730.1 547.5)"/><ellipse cx="719.4" cy="559.4" rx="17.4" ry="10.7" fill="#e8dcc8" opacity="0.96" transform="rotate(70.25591505970412 719.4 559.4)"/><ellipse cx="702.8" cy="556.4" rx="17.4" ry="10.7" fill="#e8dcc8" opacity="0.96" transform="rotate(130.14397853915762 702.8 556.4)"/><ellipse cx="696.8" cy="543.4" rx="17.4" ry="10.7" fill="#e8dcc8" opacity="0.96" transform="rotate(180.34643217165296 696.8 543.4)"/><ellipse cx="705.9" cy="528.6" rx="17.4" ry="10.7" fill="#e8dcc8" opacity="0.96" transform="rotate(242.30498356818154 705.9 528.6)"/><ellipse cx="725.2" cy="531.2" rx="17.4" ry="10.7" fill="#e8dcc8" opacity="0.96" transform="rotate(313.0575823989777 725.2 531.2)"/><circle cx="713.7075209613273" cy="543.4841120537061" r="10.1" fill="#0f0c09"/></g><path d="M 758.7543209876543 401.1546296296297 Q 788.5826388888888 351.4407664609054 858.1820473251029 401.1546296296297 Q 788.5826388888888 450.868492798354 758.7543209876543 401.1546296296297 Z" fill="#c9a469" opacity="0.7092193930041152" transform="rotate(327.26851851851853 758.7543209876543 401.1546296296297)"/><path d="M 814.5706790123456 429.10061728395067 Q 852.0429012345678 366.646913580247 939.478086419753 429.10061728395067 Q 852.0429012345678 491.55432098765436 814.5706790123456 429.10061728395067 Z" fill="#b08d57" opacity="0.7209510030864197" transform="rotate(315.054012345679 814.5706790123456 429.10061728395067)"/><path d="M 773.2574074074074 438.36141975308647 Q 795.8133487654321 400.76818415637865 848.443878600823 438.36141975308647 Q 795.8133487654321 475.9546553497943 773.2574074074074 438.36141975308647 Z" fill="#c9a469" opacity="0.7682921810699588" transform="rotate(112.74691358024691 773.2574074074074 438.36141975308647)"/><path d="M 760.3700617283951 381.15925925925933 Q 780.1717592592593 348.1564300411523 826.3757201646091 381.15925925925933 Q 780.1717592592593 414.16208847736635 760.3700617283951 381.15925925925933 Z" fill="#b08d57" opacity="0.707261445473251" transform="rotate(281.4583333333333 760.3700617283951 381.15925925925933)"/><path d="M 786.7975308641975 375.04969135802475 Q 818.0625771604938 322.9412808641976 891.0143518518518 375.04969135802475 Q 818.0625771604938 427.1581018518519 786.7975308641975 375.04969135802475 Z" fill="#c9a469" opacity="0.8216550925925925" transform="rotate(168.96604938271605 786.7975308641975 375.04969135802475)"/><path d="M 756.7620370370371 374.9216049382717 Q 779.096913580247 337.6968106995886 831.2116255144033 374.9216049382717 Q 779.096913580247 412.1463991769548 756.7620370370371 374.9216049382717 Z" fill="#b08d57" opacity="0.7397138631687242" transform="rotate(229.71450617283952 756.7620370370371 374.9216049382717)"/><path d="M 811.8191358024691 396.99722222222226 Q 849.5525462962962 334.10820473251033 937.5971707818929 396.99722222222226 Q 849.5525462962962 459.8862397119342 811.8191358024691 396.99722222222226 Z" fill="#c9a469" opacity="0.7007896090534979" transform="rotate(264.81481481481484 811.8191358024691 396.99722222222226)"/><g><ellipse cx="777.4" cy="409.2" rx="20.1" ry="12.3" fill="#b08d57" opacity="0.96" transform="rotate(11.651283918409112 777.4 409.2)"/><ellipse cx="764.6" cy="423.7" rx="20.1" ry="12.3" fill="#b08d57" opacity="0.96" transform="rotate(70.97567364107881 764.6 423.7)"/><ellipse cx="748.3" cy="422.0" rx="20.1" ry="12.3" fill="#b08d57" opacity="0.96" transform="rotate(121.01234087452009 748.3 422.0)"/><ellipse cx="739.0" cy="402.6" rx="20.1" ry="12.3" fill="#b08d57" opacity="0.96" transform="rotate(187.97764152248126 739.0 402.6)"/><ellipse cx="750.1" cy="387.6" rx="20.1" ry="12.3" fill="#b08d57" opacity="0.96" transform="rotate(245.03628379141213 750.1 387.6)"/><ellipse cx="769.8" cy="389.6" rx="20.1" ry="12.3" fill="#b08d57" opacity="0.96" transform="rotate(306.20274461468256 769.8 389.6)"/><circle cx="758.2972222222222" cy="405.2865740740741" r="11.7" fill="#0f0c09"/></g><g><ellipse cx="842.7" cy="424.4" rx="15.0" ry="9.2" fill="#e8dcc8" opacity="0.96" transform="rotate(1.7245469643823195 842.7 424.4)"/><ellipse cx="835.4" cy="436.5" rx="15.0" ry="9.2" fill="#e8dcc8" opacity="0.96" transform="rotate(60.22000469178174 835.4 436.5)"/><ellipse cx="820.8" cy="436.4" rx="15.0" ry="9.2" fill="#e8dcc8" opacity="0.96" transform="rotate(120.96647330411514 820.8 436.4)"/><ellipse cx="814.0" cy="421.2" rx="15.0" ry="9.2" fill="#e8dcc8" opacity="0.96" transform="rotate(191.08171553410338 814.0 421.2)"/><ellipse cx="824.0" cy="410.1" rx="15.0" ry="9.2" fill="#e8dcc8" opacity="0.96" transform="rotate(253.2797361737101 824.0 410.1)"/><ellipse cx="836.0" cy="411.7" rx="15.0" ry="9.2" fill="#e8dcc8" opacity="0.96" transform="rotate(302.4764189852775 836.0 411.7)"/><circle cx="828.2013888888889" cy="423.9407407407408" r="8.7" fill="#0f0c09"/></g><g><ellipse cx="772.3" cy="443.0" rx="12.2" ry="7.5" fill="#b08d57" opacity="0.96" transform="rotate(12.985311809464097 772.3 443.0)"/><ellipse cx="764.1" cy="451.7" rx="12.2" ry="7.5" fill="#b08d57" opacity="0.96" transform="rotate(74.23282376116086 764.1 451.7)"/><ellipse cx="754.9" cy="450.5" rx="12.2" ry="7.5" fill="#b08d57" opacity="0.96" transform="rotate(120.62219021541287 754.9 450.5)"/><ellipse cx="749.1" cy="439.7" rx="12.2" ry="7.5" fill="#b08d57" opacity="0.96" transform="rotate(183.1444153687253 749.1 439.7)"/><ellipse cx="757.6" cy="429.0" rx="12.2" ry="7.5" fill="#b08d57" opacity="0.96" transform="rotate(254.0628005985754 757.6 429.0)"/><ellipse cx="768.3" cy="431.2" rx="12.2" ry="7.5" fill="#b08d57" opacity="0.96" transform="rotate(309.1946364962781 768.3 431.2)"/><circle cx="760.8555555555556" cy="440.34490740740745" r="7.1" fill="#0f0c09"/></g><path d="M 492.26435185185187 719.6573688271604 Q 525.3813753858025 664.4623296039094 602.654430298354 719.6573688271604 Q 525.3813753858025 774.8524080504114 492.26435185185187 719.6573688271604 Z" fill="#c9a469" opacity="0.7372852366255144" transform="rotate(58.33024691358025 492.26435185185187 719.6573688271604)"/><path d="M 459.4192515432099 642.3793981481482 Q 505.5929398148148 565.4232510288066 613.331545781893 642.3793981481482 Q 505.5929398148148 719.3355452674898 459.4192515432099 642.3793981481482 Z" fill="#b08d57" opacity="0.7033378343621399" transform="rotate(52.041666666666664 459.4192515432099 642.3793981481482)"/><path d="M 464.13202160493825 717.8537422839506 Q 514.0365644290123 634.6795042438272 630.4804976851851 717.8537422839506 Q 514.0365644290123 801.0279803240741 464.13202160493825 717.8537422839506 Z" fill="#c9a469" opacity="0.8198148148148148" transform="rotate(64.54938271604938 464.13202160493825 717.8537422839506)"/><path d="M 473.7082175925926 686.0526234567901 Q 519.9275270061728 609.0204411008231 627.7725823045267 686.0526234567901 Q 519.9275270061728 763.0848058127572 473.7082175925926 686.0526234567901 Z" fill="#b08d57" opacity="0.7149569187242798" transform="rotate(190.29783950617286 473.7082175925926 686.0526234567901)"/><path d="M 484.78672839506174 668.2815972222222 Q 531.8977719907407 589.7631912294239 641.8235403806584 668.2815972222222 Q 531.8977719907407 746.8000032150205 484.78672839506174 668.2815972222222 Z" fill="#c9a469" opacity="0.7781159979423868" transform="rotate(230.39814814814815 484.78672839506174 668.2815972222222)"/><path d="M 468.3397762345679 650.1795524691358 Q 496.2459104938272 603.6693287037037 561.3602237654321 650.1795524691358 Q 496.2459104938272 696.689776234568 468.3397762345679 650.1795524691358 Z" fill="#b08d57" opacity="0.8264216820987653" transform="rotate(332.6280864197531 468.3397762345679 650.1795524691358)"/><g><ellipse cx="564.5" cy="650.5" rx="30.6" ry="18.7" fill="#b08d57" opacity="0.96" transform="rotate(11.597434039901552 564.5 650.5)"/><ellipse cx="544.9" cy="672.6" rx="30.6" ry="18.7" fill="#b08d57" opacity="0.96" transform="rotate(71.45602438174544 544.9 672.6)"/><ellipse cx="514.9" cy="665.8" rx="30.6" ry="18.7" fill="#b08d57" opacity="0.96" transform="rotate(134.00772267266746 514.9 665.8)"/><ellipse cx="506.6" cy="638.1" rx="30.6" ry="18.7" fill="#b08d57" opacity="0.96" transform="rotate(192.5768632440909 506.6 638.1)"/><ellipse cx="525.9" cy="616.5" rx="30.6" ry="18.7" fill="#b08d57" opacity="0.96" transform="rotate(251.09810996689873 525.9 616.5)"/><ellipse cx="553.8" cy="621.3" rx="30.6" ry="18.7" fill="#b08d57" opacity="0.96" transform="rotate(308.2009619422441 553.8 621.3)"/><circle cx="535.4858217592592" cy="644.509375" r="17.8" fill="#0f0c09"/></g><g><ellipse cx="497.6" cy="698.4" rx="19.1" ry="11.7" fill="#e8dcc8" opacity="0.96" transform="rotate(9.661601520280339 497.6 698.4)"/><ellipse cx="485.2" cy="712.8" rx="19.1" ry="11.7" fill="#e8dcc8" opacity="0.96" transform="rotate(71.4764713709621 485.2 712.8)"/><ellipse cx="469.1" cy="710.7" rx="19.1" ry="11.7" fill="#e8dcc8" opacity="0.96" transform="rotate(123.64994108110012 469.1 710.7)"/><ellipse cx="460.8" cy="694.2" rx="19.1" ry="11.7" fill="#e8dcc8" opacity="0.96" transform="rotate(183.37958644590196 460.8 694.2)"/><ellipse cx="472.9" cy="677.9" rx="19.1" ry="11.7" fill="#e8dcc8" opacity="0.96" transform="rotate(249.82542304349374 472.9 677.9)"/><ellipse cx="489.3" cy="679.6" rx="19.1" ry="11.7" fill="#e8dcc8" opacity="0.96" transform="rotate(302.5183568040012 489.3 679.6)"/><circle cx="479.32280092592595" cy="695.2526041666666" r="11.1" fill="#0f0c09"/></g><g><ellipse cx="514.9" cy="709.8" rx="21.7" ry="13.3" fill="#b08d57" opacity="0.96" transform="rotate(11.008339701929467 514.9 709.8)"/><ellipse cx="503.5" cy="724.7" rx="21.7" ry="13.3" fill="#b08d57" opacity="0.96" transform="rotate(64.03653040274618 503.5 724.7)"/><ellipse cx="482.7" cy="723.2" rx="21.7" ry="13.3" fill="#b08d57" opacity="0.96" transform="rotate(123.73670262993843 482.7 723.2)"/><ellipse cx="473.5" cy="702.8" rx="21.7" ry="13.3" fill="#b08d57" opacity="0.96" transform="rotate(188.20783900768632 473.5 702.8)"/><ellipse cx="487.8" cy="685.8" rx="21.7" ry="13.3" fill="#b08d57" opacity="0.96" transform="rotate(251.8353068213591 487.8 685.8)"/><ellipse cx="506.0" cy="688.3" rx="21.7" ry="13.3" fill="#b08d57" opacity="0.96" transform="rotate(303.69930858659626 506.0 688.3)"/><circle cx="494.3160300925926" cy="705.7770833333333" r="12.6" fill="#0f0c09"/></g><path d="M 227.6033950617284 674.3925925925926 Q 261.46342592592595 617.95920781893 340.47016460905354 674.3925925925926 Q 261.46342592592595 730.8259773662551 227.6033950617284 674.3925925925926 Z" fill="#c9a469" opacity="0.7369142232510287" transform="rotate(272.625 227.6033950617284 674.3925925925926)"/><path d="M 208.03086419753086 646.283024691358 Q 235.8542438271605 599.910725308642 300.77546296296293 646.283024691358 Q 235.8542438271605 692.6553240740741 208.03086419753086 646.283024691358 Z" fill="#b08d57" opacity="0.705474537037037" transform="rotate(50.132716049382715 208.03086419753086 646.283024691358)"/><path d="M 251.99537037037038 672.1549382716049 Q 283.3885802469136 619.8329218106995 356.6394032921811 672.1549382716049 Q 283.3885802469136 724.4769547325103 251.99537037037038 672.1549382716049 Z" fill="#c9a469" opacity="0.7276999742798353" transform="rotate(240.88117283950618 251.99537037037038 672.1549382716049)"/><path d="M 213.05246913580248 696.2305555555555 Q 248.34421296296298 637.410982510288 330.6916152263375 696.2305555555555 Q 248.34421296296298 755.050128600823 213.05246913580248 696.2305555555555 Z" fill="#b08d57" opacity="0.7429423868312757" transform="rotate(285.98148148148147 213.05246913580248 696.2305555555555)"/><path d="M 214.09104938271605 708.0654320987654 Q 235.66558641975308 672.1078703703704 286.0061728395062 708.0654320987654 Q 235.66558641975308 744.0229938271605 214.09104938271605 708.0654320987654 Z" fill="#c9a469" opacity="0.7183314043209876" transform="rotate(333.21141975308643 214.09104938271605 708.0654320987654)"/><g><ellipse cx="276.3" cy="653.7" rx="21.1" ry="12.9" fill="#b08d57" opacity="0.96" transform="rotate(6.249164806417652 276.3 653.7)"/><ellipse cx="261.5" cy="671.2" rx="21.1" ry="12.9" fill="#b08d57" opacity="0.96" transform="rotate(74.26444598172117 261.5 671.2)"/><ellipse cx="243.3" cy="667.5" rx="21.1" ry="12.9" fill="#b08d57" opacity="0.96" transform="rotate(128.26156608145382 243.3 667.5)"/><ellipse cx="235.9" cy="647.9" rx="21.1" ry="12.9" fill="#b08d57" opacity="0.96" transform="rotate(190.21274919358004 235.9 647.9)"/><ellipse cx="248.9" cy="632.3" rx="21.1" ry="12.9" fill="#b08d57" opacity="0.96" transform="rotate(249.7287143107122 248.9 632.3)"/><ellipse cx="267.8" cy="634.9" rx="21.1" ry="12.9" fill="#b08d57" opacity="0.96" transform="rotate(305.4389605340035 267.8 634.9)"/><circle cx="255.98287037037036" cy="651.5" r="12.3" fill="#0f0c09"/></g><g><ellipse cx="301.2" cy="703.9" rx="19.3" ry="11.8" fill="#e8dcc8" opacity="0.96" transform="rotate(6.1038253965802625 301.2 703.9)"/><ellipse cx="289.3" cy="719.3" rx="19.3" ry="11.8" fill="#e8dcc8" opacity="0.96" transform="rotate(68.91341364158637 289.3 719.3)"/><ellipse cx="269.7" cy="715.3" rx="19.3" ry="11.8" fill="#e8dcc8" opacity="0.96" transform="rotate(134.0182224779409 269.7 715.3)"/><ellipse cx="264.3" cy="698.7" rx="19.3" ry="11.8" fill="#e8dcc8" opacity="0.96" transform="rotate(189.96793794431022 264.3 698.7)"/><ellipse cx="276.3" cy="684.3" rx="19.3" ry="11.8" fill="#e8dcc8" opacity="0.96" transform="rotate(250.24652049709107 276.3 684.3)"/><ellipse cx="294.3" cy="687.3" rx="19.3" ry="11.8" fill="#e8dcc8" opacity="0.96" transform="rotate(308.7088209446797 294.3 687.3)"/><circle cx="282.63703703703703" cy="701.9041666666667" r="11.2" fill="#0f0c09"/></g><g><ellipse cx="210.7" cy="669.5" rx="12.0" ry="7.4" fill="#b08d57" opacity="0.96" transform="rotate(2.079084248877923 210.7 669.5)"/><ellipse cx="204.3" cy="679.5" rx="12.0" ry="7.4" fill="#b08d57" opacity="0.96" transform="rotate(63.263965783154276 204.3 679.5)"/><ellipse cx="191.8" cy="678.1" rx="12.0" ry="7.4" fill="#b08d57" opacity="0.96" transform="rotate(128.7335046974277 191.8 678.1)"/><ellipse cx="187.4" cy="668.6" rx="12.0" ry="7.4" fill="#b08d57" opacity="0.96" transform="rotate(182.2627387376078 187.4 668.6)"/><ellipse cx="194.5" cy="658.3" rx="12.0" ry="7.4" fill="#b08d57" opacity="0.96" transform="rotate(246.88492494560495 194.5 658.3)"/><ellipse cx="206.8" cy="660.4" rx="12.0" ry="7.4" fill="#b08d57" opacity="0.96" transform="rotate(311.6802658370586 206.8 660.4)"/><circle cx="199.0412037037037" cy="669.0583333333333" r="7.0" fill="#0f0c09"/></g><g><ellipse cx="259.9" cy="690.5" rx="12.4" ry="7.6" fill="#e8dcc8" opacity="0.96" transform="rotate(12.07987246114886 259.9 690.5)"/><ellipse cx="254.0" cy="698.4" rx="12.4" ry="7.6" fill="#e8dcc8" opacity="0.96" transform="rotate(60.89708862599252 254.0 698.4)"/><ellipse cx="240.4" cy="697.1" rx="12.4" ry="7.6" fill="#e8dcc8" opacity="0.96" transform="rotate(130.3123438377525 240.4 697.1)"/><ellipse cx="236.3" cy="686.9" rx="12.4" ry="7.6" fill="#e8dcc8" opacity="0.96" transform="rotate(185.00208267131103 236.3 686.9)"/><ellipse cx="242.8" cy="677.3" rx="12.4" ry="7.6" fill="#e8dcc8" opacity="0.96" transform="rotate(243.2249138758215 242.8 677.3)"/><ellipse cx="254.8" cy="678.0" rx="12.4" ry="7.6" fill="#e8dcc8" opacity="0.96" transform="rotate(303.6103365524372 254.8 678.0)"/><circle cx="248.19537037037037" cy="687.9625" r="7.2" fill="#0f0c09"/></g><g><ellipse cx="253.0" cy="679.9" rx="12.5" ry="7.7" fill="#b08d57" opacity="0.96" transform="rotate(11.03928649641956 253.0 679.9)"/><ellipse cx="246.1" cy="688.6" rx="12.5" ry="7.7" fill="#b08d57" opacity="0.96" transform="rotate(65.39376838966874 246.1 688.6)"/><ellipse cx="233.6" cy="687.2" rx="12.5" ry="7.7" fill="#b08d57" opacity="0.96" transform="rotate(128.01178124021237 233.6 687.2)"/><ellipse cx="229.1" cy="676.0" rx="12.5" ry="7.7" fill="#b08d57" opacity="0.96" transform="rotate(187.44301108671692 229.1 676.0)"/><ellipse cx="235.6" cy="666.8" rx="12.5" ry="7.7" fill="#b08d57" opacity="0.96" transform="rotate(242.84747350730845 235.6 666.8)"/><ellipse cx="247.6" cy="667.4" rx="12.5" ry="7.7" fill="#b08d57" opacity="0.96" transform="rotate(302.4039641886539 247.6 667.4)"/><circle cx="241.09953703703704" cy="677.6166666666667" r="7.3" fill="#0f0c09"/></g><path d="M 737.758950617284 669.2148148148149 Q 762.9912037037037 627.1610596707819 821.8664609053499 669.2148148148149 Q 762.9912037037037 711.2685699588478 737.758950617284 669.2148148148149 Z" fill="#c9a469" opacity="0.7566827417695473" transform="rotate(146.73611111111111 737.758950617284 669.2148148148149)"/><path d="M 783.5197530864198 698.4385802469136 Q 815.048688271605 645.8903549382717 888.6162037037037 698.4385802469136 Q 815.048688271605 750.9868055555555 783.5197530864198 698.4385802469136 Z" fill="#b08d57" opacity="0.7780208333333333" transform="rotate(330.91049382716045 783.5197530864198 698.4385802469136)"/><path d="M 756.8175925925926 669.6438271604939 Q 782.2496913580247 627.2569958847737 841.591255144033 669.6438271604939 Q 782.2496913580247 712.030658436214 756.8175925925926 669.6438271604939 Z" fill="#c9a469" opacity="0.8196907150205761" transform="rotate(8.325617283950617 756.8175925925926 669.6438271604939)"/><path d="M 775.208024691358 647.0527777777778 Q 802.8719907407407 600.9461676954733 867.4212448559671 647.0527777777778 Q 802.8719907407407 693.1593878600823 775.208024691358 647.0527777777778 Z" fill="#b08d57" opacity="0.7710442386831275" transform="rotate(300.09259259259255 775.208024691358 647.0527777777778)"/><path d="M 793.579938271605 668.220987654321 Q 825.8600308641976 614.4208333333333 901.1802469135803 668.220987654321 Q 825.8600308641976 722.0211419753086 793.579938271605 668.220987654321 Z" fill="#c9a469" opacity="0.8492110339506173" transform="rotate(153.9891975308642 793.579938271605 668.220987654321)"/><g><ellipse cx="732.5" cy="671.7" rx="21.3" ry="13.1" fill="#b08d57" opacity="0.96" transform="rotate(11.054759893664604 732.5 671.7)"/><ellipse cx="720.6" cy="686.6" rx="21.3" ry="13.1" fill="#b08d57" opacity="0.96" transform="rotate(66.07238738313 720.6 686.6)"/><ellipse cx="701.0" cy="685.0" rx="21.3" ry="13.1" fill="#b08d57" opacity="0.96" transform="rotate(122.98734810621407 701.0 685.0)"/><ellipse cx="692.2" cy="662.7" rx="21.3" ry="13.1" fill="#b08d57" opacity="0.96" transform="rotate(194.22256956536754 692.2 662.7)"/><ellipse cx="703.7" cy="649.0" rx="21.3" ry="13.1" fill="#b08d57" opacity="0.96" transform="rotate(245.51552928941842 703.7 649.0)"/><ellipse cx="725.2" cy="651.7" rx="21.3" ry="13.1" fill="#b08d57" opacity="0.96" transform="rotate(308.91826442881796 725.2 651.7)"/><circle cx="712.2162037037037" cy="667.7333333333333" r="12.4" fill="#0f0c09"/></g><g><ellipse cx="737.9" cy="702.7" rx="17.8" ry="10.9" fill="#e8dcc8" opacity="0.96" transform="rotate(8.522096337448783 737.9 702.7)"/><ellipse cx="726.0" cy="716.5" rx="17.8" ry="10.9" fill="#e8dcc8" opacity="0.96" transform="rotate(72.65797577488735 726.0 716.5)"/><ellipse cx="710.7" cy="714.0" rx="17.8" ry="10.9" fill="#e8dcc8" opacity="0.96" transform="rotate(126.35668035632271 710.7 714.0)"/><ellipse cx="704.0" cy="696.7" rx="17.8" ry="10.9" fill="#e8dcc8" opacity="0.96" transform="rotate(191.59043416971926 704.0 696.7)"/><ellipse cx="713.2" cy="684.7" rx="17.8" ry="10.9" fill="#e8dcc8" opacity="0.96" transform="rotate(243.64601132941883 713.2 684.7)"/><ellipse cx="731.9" cy="686.9" rx="17.8" ry="10.9" fill="#e8dcc8" opacity="0.96" transform="rotate(309.8008006931158 731.9 686.9)"/><circle cx="720.8703703703703" cy="700.1375" r="10.3" fill="#0f0c09"/></g><g><ellipse cx="745.8" cy="650.0" rx="19.2" ry="11.8" fill="#b08d57" opacity="0.96" transform="rotate(2.110031043368014 745.8 650.0)"/><ellipse cx="735.2" cy="666.1" rx="19.2" ry="11.8" fill="#b08d57" opacity="0.96" transform="rotate(64.62120377007683 735.2 666.1)"/><ellipse cx="714.6" cy="662.9" rx="19.2" ry="11.8" fill="#b08d57" opacity="0.96" transform="rotate(133.00858330770168 714.6 662.9)"/><ellipse cx="708.7" cy="648.8" rx="19.2" ry="11.8" fill="#b08d57" opacity="0.96" transform="rotate(181.49791081663844 708.7 648.8)"/><ellipse cx="721.6" cy="631.6" rx="19.2" ry="11.8" fill="#b08d57" opacity="0.96" transform="rotate(252.22103650982487 721.6 631.6)"/><ellipse cx="739.3" cy="635.1" rx="19.2" ry="11.8" fill="#b08d57" opacity="0.96" transform="rotate(310.3849214391162 739.3 635.1)"/><circle cx="727.274537037037" cy="649.2916666666666" r="11.1" fill="#0f0c09"/></g><path d="M 92.87561728395062 140.3314814814815 Q 122.88703703703703 90.31244855967078 192.91368312757203 140.3314814814815 Q 122.88703703703703 190.3505144032922 92.87561728395062 140.3314814814815 Z" fill="#c9a469" opacity="0.8277591306584362" transform="rotate(97.31944444444446 92.87561728395062 140.3314814814815)"/><path d="M 115.63641975308641 86.55524691358026 Q 143.19452160493827 40.625077160493845 207.49675925925925 86.55524691358026 Q 143.19452160493827 132.48541666666668 115.63641975308641 86.55524691358026 Z" fill="#b08d57" opacity="0.7011805555555555" transform="rotate(46.49382716049383 115.63641975308641 86.55524691358026)"/><path d="M 53.93425925925926 106.7604938271605 Q 81.64552469135802 60.575051440329226 146.30514403292182 106.7604938271605 Q 81.64552469135802 152.94593621399179 53.93425925925926 106.7604938271605 Z" fill="#c9a469" opacity="0.7199337705761316" transform="rotate(148.90895061728395 53.93425925925926 106.7604938271605)"/><path d="M 97.3246913580247 121.16944444444445 Q 130.51782407407407 65.84755658436214 207.96846707818932 121.16944444444445 Q 130.51782407407407 176.49133230452676 97.3246913580247 121.16944444444445 Z" fill="#b08d57" opacity="0.7733706275720165" transform="rotate(85.67592592592592 97.3246913580247 121.16944444444445)"/><path d="M 56.696604938271605 95.33765432098767 Q 76.75586419753087 61.905555555555566 123.56080246913581 95.33765432098767 Q 76.75586419753087 128.76975308641977 56.696604938271605 95.33765432098767 Z" fill="#c9a469" opacity="0.7786207561728394" transform="rotate(244.57253086419752 56.696604938271605 95.33765432098767)"/><path d="M 92.27222222222223 72.15401234567904 Q 115.97075617283951 32.65645576131689 171.26733539094653 72.15401234567904 Q 115.97075617283951 111.65156893004118 92.27222222222223 72.15401234567904 Z" fill="#b08d57" opacity="0.7972582304526749" transform="rotate(80.04320987654322 92.27222222222223 72.15401234567904)"/><g><ellipse cx="48.9" cy="62.3" rx="17.5" ry="10.7" fill="#b08d57" opacity="0.96" transform="rotate(9.737249240145006 48.9 62.3)"/><ellipse cx="37.1" cy="75.6" rx="17.5" ry="10.7" fill="#b08d57" opacity="0.96" transform="rotate(73.20261479696495 37.1 75.6)"/><ellipse cx="23.4" cy="73.9" rx="17.5" ry="10.7" fill="#b08d57" opacity="0.96" transform="rotate(121.36773779219597 23.4 73.9)"/><ellipse cx="15.3" cy="58.0" rx="17.5" ry="10.7" fill="#b08d57" opacity="0.96" transform="rotate(184.69310594537026 15.3 58.0)"/><ellipse cx="26.0" cy="43.6" rx="17.5" ry="10.7" fill="#b08d57" opacity="0.96" transform="rotate(248.54530643331634 26.0 43.6)"/><ellipse cx="43.9" cy="47.1" rx="17.5" ry="10.7" fill="#b08d57" opacity="0.96" transform="rotate(313.6759042650793 43.9 47.1)"/><circle cx="32.199074074074076" cy="59.41064814814816" r="10.2" fill="#0f0c09"/></g><g><ellipse cx="87.9" cy="108.6" rx="17.5" ry="10.7" fill="#e8dcc8" opacity="0.96" transform="rotate(5.248306175091305 87.9 108.6)"/><ellipse cx="79.2" cy="121.9" rx="17.5" ry="10.7" fill="#e8dcc8" opacity="0.96" transform="rotate(61.51854201296514 79.2 121.9)"/><ellipse cx="61.8" cy="121.1" rx="17.5" ry="10.7" fill="#e8dcc8" opacity="0.96" transform="rotate(123.57656524892619 61.8 121.1)"/><ellipse cx="54.4" cy="104.6" rx="17.5" ry="10.7" fill="#e8dcc8" opacity="0.96" transform="rotate(188.46032555320866 54.4 104.6)"/><ellipse cx="65.6" cy="91.1" rx="17.5" ry="10.7" fill="#e8dcc8" opacity="0.96" transform="rotate(251.08570668815466 65.6 91.1)"/><ellipse cx="81.4" cy="93.6" rx="17.5" ry="10.7" fill="#e8dcc8" opacity="0.96" transform="rotate(307.4296253700526 81.4 93.6)"/><circle cx="71.10324074074074" cy="107.06481481481482" r="10.1" fill="#0f0c09"/></g><g><ellipse cx="99.7" cy="155.0" rx="19.8" ry="12.1" fill="#b08d57" opacity="0.96" transform="rotate(7.622920030875591 99.7 155.0)"/><ellipse cx="90.3" cy="169.1" rx="19.8" ry="12.1" fill="#b08d57" opacity="0.96" transform="rotate(60.279012369370975 90.3 169.1)"/><ellipse cx="69.6" cy="168.1" rx="19.8" ry="12.1" fill="#b08d57" opacity="0.96" transform="rotate(125.4869771873591 69.6 168.1)"/><ellipse cx="61.6" cy="152.1" rx="19.8" ry="12.1" fill="#b08d57" opacity="0.96" transform="rotate(181.18617098404675 61.6 152.1)"/><ellipse cx="73.0" cy="134.9" rx="19.8" ry="12.1" fill="#b08d57" opacity="0.96" transform="rotate(246.16571898556043 73.0 134.9)"/><ellipse cx="93.5" cy="138.1" rx="19.8" ry="12.1" fill="#b08d57" opacity="0.96" transform="rotate(311.6278896154315 93.5 138.1)"/><circle cx="80.75740740740741" cy="152.4689814814815" r="11.5" fill="#0f0c09"/></g><g><ellipse cx="104.2" cy="116.3" rx="16.7" ry="10.2" fill="#e8dcc8" opacity="0.96" transform="rotate(6.118132148794928 104.2 116.3)"/><ellipse cx="92.9" cy="130.1" rx="16.7" ry="10.2" fill="#e8dcc8" opacity="0.96" transform="rotate(73.06501208575007 92.9 130.1)"/><ellipse cx="77.6" cy="126.9" rx="16.7" ry="10.2" fill="#e8dcc8" opacity="0.96" transform="rotate(130.6799598270624 77.6 126.9)"/><ellipse cx="72.0" cy="114.4" rx="16.7" ry="10.2" fill="#e8dcc8" opacity="0.96" transform="rotate(180.7755733357229 72.0 114.4)"/><ellipse cx="83.1" cy="99.3" rx="16.7" ry="10.2" fill="#e8dcc8" opacity="0.96" transform="rotate(251.69027442337182 83.1 99.3)"/><ellipse cx="96.5" cy="100.8" rx="16.7" ry="10.2" fill="#e8dcc8" opacity="0.96" transform="rotate(301.2037934642425 96.5 100.8)"/><circle cx="88.16157407407407" cy="114.62314814814818" r="9.7" fill="#0f0c09"/></g><g><ellipse cx="140.8" cy="130.1" rx="21.2" ry="13.0" fill="#b08d57" opacity="0.96" transform="rotate(4.3149287484169605 140.8 130.1)"/><ellipse cx="130.4" cy="146.4" rx="21.2" ry="13.0" fill="#b08d57" opacity="0.96" transform="rotate(60.48569274685836 130.4 146.4)"/><ellipse cx="107.6" cy="144.6" rx="21.2" ry="13.0" fill="#b08d57" opacity="0.96" transform="rotate(128.41255450933306 107.6 144.6)"/><ellipse cx="100.2" cy="124.7" rx="21.2" ry="13.0" fill="#b08d57" opacity="0.96" transform="rotate(190.80951882780465 100.2 124.7)"/><ellipse cx="110.9" cy="110.3" rx="21.2" ry="13.0" fill="#b08d57" opacity="0.96" transform="rotate(242.59246946461533 110.9 110.3)"/><ellipse cx="133.1" cy="112.4" rx="21.2" ry="13.0" fill="#b08d57" opacity="0.96" transform="rotate(308.38621289259453 133.1 112.4)"/><circle cx="120.31574074074075" cy="128.52731481481484" r="12.3" fill="#0f0c09"/></g><path d="M 913.1253086419753 114.71080246913581 Q 938.3889660493827 72.60470679012346 997.3375 114.71080246913581 Q 938.3889660493827 156.81689814814817 913.1253086419753 114.71080246913581 Z" fill="#c9a469" opacity="0.7237268518518518" transform="rotate(207.2716049382716 913.1253086419753 114.71080246913581)"/><path d="M 924.7564814814815 80.2493827160494 Q 958.5066358024692 23.999125514403303 1037.2569958847737 80.2493827160494 Q 958.5066358024692 136.4996399176955 924.7564814814815 80.2493827160494 Z" fill="#b08d57" opacity="0.7619245113168723" transform="rotate(156.35339506172838 924.7564814814815 80.2493827160494)"/><path d="M 953.4802469135802 119.99166666666667 Q 991.0456018518519 57.38274176954732 1078.6980967078189 119.99166666666667 Q 991.0456018518519 182.60059156378603 953.4802469135802 119.99166666666667 Z" fill="#c9a469" opacity="0.7514724794238683" transform="rotate(339.787037037037 953.4802469135802 119.99166666666667)"/><path d="M 930.1854938271605 103.49320987654322 Q 954.9503086419753 62.21851851851852 1012.7348765432099 103.49320987654322 Q 954.9503086419753 144.76790123456792 930.1854938271605 103.49320987654322 Z" fill="#b08d57" opacity="0.7095003858024691" transform="rotate(305.3503086419753 930.1854938271605 103.49320987654322)"/><path d="M 919.0944444444444 121.64290123456792 Q 943.8318672839506 80.41386316872429 1001.5525205761317 121.64290123456792 Q 943.8318672839506 162.87193930041155 919.0944444444444 121.64290123456792 Z" fill="#c9a469" opacity="0.7975823045267489" transform="rotate(107.48765432098764 919.0944444444444 121.64290123456792)"/><path d="M 885.7626543209876 134.66296296296298 Q 911.9680555555556 90.98729423868315 973.1139917695473 134.66296296296298 Q 911.9680555555556 178.3386316872428 885.7626543209876 134.66296296296298 Z" fill="#b08d57" opacity="0.788403420781893" transform="rotate(347.31018518518516 885.7626543209876 134.66296296296298)"/><g><ellipse cx="962.0" cy="146.1" rx="16.4" ry="10.1" fill="#b08d57" opacity="0.96" transform="rotate(12.645818105623396 962.0 146.1)"/><ellipse cx="952.5" cy="157.3" rx="16.4" ry="10.1" fill="#b08d57" opacity="0.96" transform="rotate(67.86975755835607 952.5 157.3)"/><ellipse cx="937.6" cy="155.7" rx="16.4" ry="10.1" fill="#b08d57" opacity="0.96" transform="rotate(124.28367494207677 937.6 155.7)"/><ellipse cx="930.9" cy="139.7" rx="16.4" ry="10.1" fill="#b08d57" opacity="0.96" transform="rotate(190.5968824204253 930.9 139.7)"/><ellipse cx="939.0" cy="128.7" rx="16.4" ry="10.1" fill="#b08d57" opacity="0.96" transform="rotate(241.56563763077045 939.0 128.7)"/><ellipse cx="957.1" cy="130.8" rx="16.4" ry="10.1" fill="#b08d57" opacity="0.96" transform="rotate(311.8945601084285 957.1 130.8)"/><circle cx="946.5458333333333" cy="142.61851851851853" r="9.5" fill="#0f0c09"/></g><g><ellipse cx="961.1" cy="154.1" rx="16.5" ry="10.1" fill="#e8dcc8" opacity="0.96" transform="rotate(4.012215064218255 961.1 154.1)"/><ellipse cx="951.5" cy="167.7" rx="16.5" ry="10.1" fill="#e8dcc8" opacity="0.96" transform="rotate(66.76285703400515 951.5 167.7)"/><ellipse cx="935.4" cy="165.6" rx="16.5" ry="10.1" fill="#e8dcc8" opacity="0.96" transform="rotate(127.91826543067188 935.4 165.6)"/><ellipse cx="929.5" cy="149.9" rx="16.5" ry="10.1" fill="#e8dcc8" opacity="0.96" transform="rotate(191.41310412510148 929.5 149.9)"/><ellipse cx="937.6" cy="139.0" rx="16.5" ry="10.1" fill="#e8dcc8" opacity="0.96" transform="rotate(241.55292734017635 937.6 139.0)"/><ellipse cx="955.1" cy="140.5" rx="16.5" ry="10.1" fill="#e8dcc8" opacity="0.96" transform="rotate(308.26770631845585 955.1 140.5)"/><circle cx="945.2" cy="153.0226851851852" r="9.6" fill="#0f0c09"/></g><g><ellipse cx="962.4" cy="82.3" rx="21.6" ry="13.2" fill="#b08d57" opacity="0.96" transform="rotate(5.823155163218745 962.4 82.3)"/><ellipse cx="950.3" cy="99.2" rx="21.6" ry="13.2" fill="#b08d57" opacity="0.96" transform="rotate(65.35754099135691 950.3 99.2)"/><ellipse cx="931.0" cy="98.2" rx="21.6" ry="13.2" fill="#b08d57" opacity="0.96" transform="rotate(120.51148174226678 931.0 98.2)"/><ellipse cx="920.8" cy="78.4" rx="21.6" ry="13.2" fill="#b08d57" opacity="0.96" transform="rotate(184.76893787234496 920.8 78.4)"/><ellipse cx="935.1" cy="60.3" rx="21.6" ry="13.2" fill="#b08d57" opacity="0.96" transform="rotate(251.9847601899878 935.1 60.3)"/><ellipse cx="953.4" cy="62.9" rx="21.6" ry="13.2" fill="#b08d57" opacity="0.96" transform="rotate(304.34243701018596 953.4 62.9)"/><circle cx="941.6041666666666" cy="80.17685185185186" r="12.6" fill="#0f0c09"/></g><g><ellipse cx="975.7" cy="60.7" rx="13.5" ry="8.3" fill="#e8dcc8" opacity="0.96" transform="rotate(7.33567974392193 975.7 60.7)"/><ellipse cx="967.8" cy="71.1" rx="13.5" ry="8.3" fill="#e8dcc8" opacity="0.96" transform="rotate(67.23479564997902 967.8 71.1)"/><ellipse cx="953.6" cy="68.4" rx="13.5" ry="8.3" fill="#e8dcc8" opacity="0.96" transform="rotate(134.2921998529702 953.6 68.4)"/><ellipse cx="949.9" cy="57.1" rx="13.5" ry="8.3" fill="#e8dcc8" opacity="0.96" transform="rotate(188.5693147599942 949.9 57.1)"/><ellipse cx="957.8" cy="47.0" rx="13.5" ry="8.3" fill="#e8dcc8" opacity="0.96" transform="rotate(247.79423264323145 957.8 47.0)"/><ellipse cx="970.0" cy="48.2" rx="13.5" ry="8.3" fill="#e8dcc8" opacity="0.96" transform="rotate(303.69973840318636 970.0 48.2)"/><circle cx="962.7583333333333" cy="59.08101851851853" r="7.8" fill="#0f0c09"/></g><g><ellipse cx="942.4" cy="119.9" rx="15.5" ry="9.5" fill="#b08d57" opacity="0.96" transform="rotate(12.130775025895458 942.4 119.9)"/><ellipse cx="934.8" cy="130.0" rx="15.5" ry="9.5" fill="#b08d57" opacity="0.96" transform="rotate(61.65166235116856 934.8 130.0)"/><ellipse cx="918.0" cy="128.3" rx="15.5" ry="9.5" fill="#b08d57" opacity="0.96" transform="rotate(129.86957134753814 918.0 128.3)"/><ellipse cx="912.9" cy="113.6" rx="15.5" ry="9.5" fill="#b08d57" opacity="0.96" transform="rotate(192.07127612934605 912.9 113.6)"/><ellipse cx="921.8" cy="102.9" rx="15.5" ry="9.5" fill="#b08d57" opacity="0.96" transform="rotate(246.88627579774536 921.8 102.9)"/><ellipse cx="937.3" cy="105.2" rx="15.5" ry="9.5" fill="#b08d57" opacity="0.96" transform="rotate(309.9205967170248 937.3 105.2)"/><circle cx="927.6625" cy="116.7351851851852" r="9.0" fill="#0f0c09"/></g><path d="M 89.40769675925927 372.34984567901233 Q 116.86129436728396 326.59384966563783 180.91968878600824 372.34984567901233 Q 116.86129436728396 418.10584169238683 89.40769675925927 372.34984567901233 Z" fill="#c9a469" opacity="0.7539152520576131" transform="rotate(43.79783950617284 89.40769675925927 372.34984567901233)"/><path d="M 100.82908950617283 366.7237847222222 Q 130.02837094907406 318.05831565072015 198.16002764917695 366.7237847222222 Q 130.02837094907406 415.38925379372427 100.82908950617283 366.7237847222222 Z" fill="#b08d57" opacity="0.8295743312757201" transform="rotate(113.89814814814815 100.82908950617283 366.7237847222222)"/><path d="M 95.98543595679013 360.90212191358023 Q 115.05511188271605 329.1193287037037 159.55102237654322 360.90212191358023 Q 115.05511188271605 392.6849151234568 95.98543595679013 360.90212191358023 Z" fill="#c9a469" opacity="0.7403800154320987" transform="rotate(246.1280864197531 95.98543595679013 360.90212191358023)"/><path d="M 107.55729166666666 350.73207947530864 Q 138.25054494598766 299.576657343107 209.86813593106996 350.73207947530864 Q 138.25054494598766 401.8875016075103 107.55729166666666 350.73207947530864 Z" fill="#b08d57" opacity="0.747906378600823" transform="rotate(14.932098765432098 107.55729166666666 350.73207947530864)"/><path d="M 88.05854552469135 401.39421296296297 Q 108.84036458333333 366.7578478652263 157.33127572016463 401.39421296296297 Q 108.84036458333333 436.0305780606996 88.05854552469135 401.39421296296297 Z" fill="#c9a469" opacity="0.7248386059670782" transform="rotate(261.4212962962963 88.05854552469135 401.39421296296297)"/><path d="M 52.83641975308642 400.4024112654321 Q 69.8419319058642 372.05989101080246 109.52146026234568 400.4024112654321 Q 69.8419319058642 428.7449315200617 52.83641975308642 400.4024112654321 Z" fill="#b08d57" opacity="0.7716396604938272" transform="rotate(133.37345679012347 52.83641975308642 400.4024112654321)"/><path d="M 86.5714699074074 376.10389660493826 Q 113.56427469135802 331.1158886316872 176.54748585390945 376.10389660493826 Q 113.56427469135802 421.0919045781893 86.5714699074074 376.10389660493826 Z" fill="#c9a469" opacity="0.7332169495884773" transform="rotate(125.23302469135803 86.5714699074074 376.10389660493826)"/><g><ellipse cx="136.0" cy="399.8" rx="15.7" ry="9.6" fill="#b08d57" opacity="0.96" transform="rotate(1.4886390587653975 136.0 399.8)"/><ellipse cx="125.5" cy="413.8" rx="15.7" ry="9.6" fill="#b08d57" opacity="0.96" transform="rotate(71.92808580245936 125.5 413.8)"/><ellipse cx="111.7" cy="411.5" rx="15.7" ry="9.6" fill="#b08d57" opacity="0.96" transform="rotate(127.19991910380764 111.7 411.5)"/><ellipse cx="105.7" cy="398.1" rx="15.7" ry="9.6" fill="#b08d57" opacity="0.96" transform="rotate(185.03223123499086 105.7 398.1)"/><ellipse cx="116.0" cy="385.0" rx="15.7" ry="9.6" fill="#b08d57" opacity="0.96" transform="rotate(251.48175197478383 116.0 385.0)"/><ellipse cx="130.5" cy="387.8" rx="15.7" ry="9.6" fill="#b08d57" opacity="0.96" transform="rotate(309.7930025921232 130.5 387.8)"/><circle cx="120.8330150462963" cy="399.41637731481484" r="9.1" fill="#0f0c09"/></g><g><ellipse cx="61.5" cy="343.1" rx="15.3" ry="9.4" fill="#e8dcc8" opacity="0.96" transform="rotate(12.019943748009318 61.5 343.1)"/><ellipse cx="54.0" cy="353.1" rx="15.3" ry="9.4" fill="#e8dcc8" opacity="0.96" transform="rotate(62.13397796767582 54.0 353.1)"/><ellipse cx="37.0" cy="351.0" rx="15.3" ry="9.4" fill="#e8dcc8" opacity="0.96" transform="rotate(132.49237358294334 37.0 351.0)"/><ellipse cx="32.6" cy="336.7" rx="15.3" ry="9.4" fill="#e8dcc8" opacity="0.96" transform="rotate(193.0767399384239 32.6 336.7)"/><ellipse cx="40.8" cy="326.6" rx="15.3" ry="9.4" fill="#e8dcc8" opacity="0.96" transform="rotate(245.1691585201355 40.8 326.6)"/><ellipse cx="56.6" cy="328.7" rx="15.3" ry="9.4" fill="#e8dcc8" opacity="0.96" transform="rotate(310.21133693906955 56.6 328.7)"/><circle cx="47.020775462962966" cy="340.0260127314815" r="8.9" fill="#0f0c09"/></g><g><ellipse cx="117.0" cy="347.5" rx="14.8" ry="9.1" fill="#b08d57" opacity="0.96" transform="rotate(11.509874260253001 117.0 347.5)"/><ellipse cx="107.1" cy="358.4" rx="14.8" ry="9.1" fill="#b08d57" opacity="0.96" transform="rotate(73.52737193200085 107.1 358.4)"/><ellipse cx="93.1" cy="354.9" rx="14.8" ry="9.1" fill="#b08d57" opacity="0.96" transform="rotate(133.90542632421412 93.1 354.9)"/><ellipse cx="88.8" cy="343.0" rx="14.8" ry="9.1" fill="#b08d57" opacity="0.96" transform="rotate(186.4988882452891 88.8 343.0)"/><ellipse cx="96.3" cy="332.0" rx="14.8" ry="9.1" fill="#b08d57" opacity="0.96" transform="rotate(242.13913576675748 96.3 332.0)"/><ellipse cx="110.8" cy="332.6" rx="14.8" ry="9.1" fill="#b08d57" opacity="0.96" transform="rotate(303.1692833285834 110.8 332.6)"/><circle cx="103.00541087962964" cy="344.62002314814816" r="8.6" fill="#0f0c09"/></g><g><ellipse cx="63.2" cy="348.4" rx="16.2" ry="9.9" fill="#e8dcc8" opacity="0.96" transform="rotate(3.539416815064091 63.2 348.4)"/><ellipse cx="53.7" cy="361.8" rx="16.2" ry="9.9" fill="#e8dcc8" opacity="0.96" transform="rotate(66.71741928019034 53.7 361.8)"/><ellipse cx="39.5" cy="360.9" rx="16.2" ry="9.9" fill="#e8dcc8" opacity="0.96" transform="rotate(120.69611866891698 39.5 360.9)"/><ellipse cx="31.8" cy="346.5" rx="16.2" ry="9.9" fill="#e8dcc8" opacity="0.96" transform="rotate(183.20360725342462 31.8 346.5)"/><ellipse cx="41.1" cy="333.0" rx="16.2" ry="9.9" fill="#e8dcc8" opacity="0.96" transform="rotate(245.97266993421746 41.1 333.0)"/><ellipse cx="56.8" cy="334.8" rx="16.2" ry="9.9" fill="#e8dcc8" opacity="0.96" transform="rotate(306.57177285850287 56.8 334.8)"/><circle cx="47.4744212962963" cy="347.3859085648148" r="9.4" fill="#0f0c09"/></g><g><ellipse cx="90.6" cy="371.6" rx="13.2" ry="8.1" fill="#b08d57" opacity="0.96" transform="rotate(6.01350251028081 90.6 371.6)"/><ellipse cx="81.4" cy="382.6" rx="13.2" ry="8.1" fill="#b08d57" opacity="0.96" transform="rotate(73.9329959883531 81.4 382.6)"/><ellipse cx="70.5" cy="380.7" rx="13.2" ry="8.1" fill="#b08d57" opacity="0.96" transform="rotate(125.09332659316075 70.5 380.7)"/><ellipse cx="65.1" cy="368.7" rx="13.2" ry="8.1" fill="#b08d57" opacity="0.96" transform="rotate(186.77188318239808 65.1 368.7)"/><ellipse cx="72.6" cy="358.6" rx="13.2" ry="8.1" fill="#b08d57" opacity="0.96" transform="rotate(245.9268023638125 72.6 358.6)"/><ellipse cx="86.0" cy="360.4" rx="13.2" ry="8.1" fill="#b08d57" opacity="0.96" transform="rotate(309.675846870125 86.0 360.4)"/><circle cx="77.86530671296296" cy="370.2611689814815" r="7.7" fill="#0f0c09"/></g><path d="M 924.1951581790123 387.02851080246916 Q 951.9630979938271 340.74861111111113 1016.7549575617284 387.02851080246916 Q 951.9630979938271 433.3084104938272 924.1951581790123 387.02851080246916 Z" fill="#c9a469" opacity="0.7212596450617283" transform="rotate(66.90586419753086 924.1951581790123 387.02851080246916)"/><path d="M 897.8503472222222 351.9418016975309 Q 919.6376977237654 315.62955086162555 970.4748488940329 351.9418016975309 Q 919.6376977237654 388.2540525334362 897.8503472222222 351.9418016975309 Z" fill="#b08d57" opacity="0.7982304526748971" transform="rotate(162.37654320987656 897.8503472222222 351.9418016975309)"/><path d="M 944.4349344135802 384.1872685185185 Q 974.4566840277778 334.15101916152264 1044.507433127572 384.1872685185185 Q 974.4566840277778 434.2235178755144 944.4349344135802 384.1872685185185 Z" fill="#c9a469" opacity="0.7612737911522633" transform="rotate(55.532407407407405 944.4349344135802 384.1872685185185)"/><path d="M 942.7961419753086 351.778800154321 Q 959.5624180169752 323.83500675154323 998.6837287808642 351.778800154321 Q 959.5624180169752 379.7225935570988 942.7961419753086 351.778800154321 Z" fill="#b08d57" opacity="0.8108526234567901" transform="rotate(214.15123456790124 942.7961419753086 351.778800154321)"/><path d="M 899.614525462963 380.5636188271605 Q 928.2639274691359 332.8146154835391 995.1125321502058 380.5636188271605 Q 928.2639274691359 428.3126221707819 899.614525462963 380.5636188271605 Z" fill="#c9a469" opacity="0.7418743569958848" transform="rotate(292.6774691358025 899.614525462963 380.5636188271605)"/><g><ellipse cx="949.3" cy="401.2" rx="16.5" ry="10.1" fill="#b08d57" opacity="0.96" transform="rotate(5.763717669039364 949.3 401.2)"/><ellipse cx="938.5" cy="414.7" rx="16.5" ry="10.1" fill="#b08d57" opacity="0.96" transform="rotate(71.16325788148997 938.5 414.7)"/><ellipse cx="922.6" cy="411.3" rx="16.5" ry="10.1" fill="#b08d57" opacity="0.96" transform="rotate(132.5360306680276 922.6 411.3)"/><ellipse cx="917.5" cy="398.6" rx="16.5" ry="10.1" fill="#b08d57" opacity="0.96" transform="rotate(183.73688683704847 917.5 398.6)"/><ellipse cx="927.9" cy="384.6" rx="16.5" ry="10.1" fill="#b08d57" opacity="0.96" transform="rotate(249.92114933835495 927.9 384.6)"/><ellipse cx="942.5" cy="386.5" rx="16.5" ry="10.1" fill="#b08d57" opacity="0.96" transform="rotate(304.78404285537 942.5 386.5)"/><circle cx="933.3975983796296" cy="399.60596064814814" r="9.6" fill="#0f0c09"/></g><g><ellipse cx="946.5" cy="416.8" rx="14.7" ry="9.0" fill="#e8dcc8" opacity="0.96" transform="rotate(13.907698211904856 946.5 416.8)"/><ellipse cx="936.8" cy="427.0" rx="14.7" ry="9.0" fill="#e8dcc8" opacity="0.96" transform="rotate(73.30577077859857 936.8 427.0)"/><ellipse cx="925.4" cy="425.5" rx="14.7" ry="9.0" fill="#e8dcc8" opacity="0.96" transform="rotate(121.1172161225143 925.4 425.5)"/><ellipse cx="918.7" cy="411.0" rx="14.7" ry="9.0" fill="#e8dcc8" opacity="0.96" transform="rotate(189.39407139410312 918.7 411.0)"/><ellipse cx="925.9" cy="400.9" rx="14.7" ry="9.0" fill="#e8dcc8" opacity="0.96" transform="rotate(241.2212317373282 925.9 400.9)"/><ellipse cx="940.4" cy="401.4" rx="14.7" ry="9.0" fill="#e8dcc8" opacity="0.96" transform="rotate(302.81505305593794 940.4 401.4)"/><circle cx="932.7103587962963" cy="413.3405960648148" r="8.5" fill="#0f0c09"/></g><g><ellipse cx="898.5" cy="405.7" rx="12.8" ry="7.8" fill="#b08d57" opacity="0.96" transform="rotate(11.010304577770107 898.5 405.7)"/><ellipse cx="891.0" cy="414.8" rx="12.8" ry="7.8" fill="#b08d57" opacity="0.96" transform="rotate(67.98789571827459 891.0 414.8)"/><ellipse cx="880.1" cy="414.0" rx="12.8" ry="7.8" fill="#b08d57" opacity="0.96" transform="rotate(120.1429447174066 880.1 414.0)"/><ellipse cx="873.9" cy="403.2" rx="12.8" ry="7.8" fill="#b08d57" opacity="0.96" transform="rotate(180.42889555458981 873.9 403.2)"/><ellipse cx="882.1" cy="391.7" rx="12.8" ry="7.8" fill="#b08d57" opacity="0.96" transform="rotate(250.12782971584238 882.1 391.7)"/><ellipse cx="893.9" cy="393.5" rx="12.8" ry="7.8" fill="#b08d57" opacity="0.96" transform="rotate(307.7096201773439 893.9 393.5)"/><circle cx="886.3199942129629" cy="403.30960648148147" r="7.4" fill="#0f0c09"/></g><g><ellipse cx="916.3" cy="391.6" rx="12.8" ry="7.8" fill="#e8dcc8" opacity="0.96" transform="rotate(0.6525229862027668 916.3 391.6)"/><ellipse cx="907.5" cy="403.3" rx="12.8" ry="7.8" fill="#e8dcc8" opacity="0.96" transform="rotate(73.11456379835623 907.5 403.3)"/><ellipse cx="895.4" cy="400.5" rx="12.8" ry="7.8" fill="#e8dcc8" opacity="0.96" transform="rotate(133.19420267227218 895.4 400.5)"/><ellipse cx="891.7" cy="389.5" rx="12.8" ry="7.8" fill="#e8dcc8" opacity="0.96" transform="rotate(189.07023529461753 891.7 389.5)"/><ellipse cx="900.0" cy="379.7" rx="12.8" ry="7.8" fill="#e8dcc8" opacity="0.96" transform="rotate(251.5740397369239 900.0 379.7)"/><ellipse cx="911.7" cy="381.8" rx="12.8" ry="7.8" fill="#e8dcc8" opacity="0.96" transform="rotate(308.7247855608849 911.7 381.8)"/><circle cx="903.9140046296296" cy="391.45049189814813" r="7.4" fill="#0f0c09"/></g><g><ellipse cx="936.0" cy="399.9" rx="16.9" ry="10.3" fill="#b08d57" opacity="0.96" transform="rotate(0.7392845350410571 936.0 399.9)"/><ellipse cx="926.9" cy="414.3" rx="16.9" ry="10.3" fill="#b08d57" opacity="0.96" transform="rotate(63.61887148186999 926.9 414.3)"/><ellipse cx="911.3" cy="413.7" rx="16.9" ry="10.3" fill="#b08d57" opacity="0.96" transform="rotate(120.88014157186699 911.3 413.7)"/><ellipse cx="903.6" cy="396.8" rx="16.9" ry="10.3" fill="#b08d57" opacity="0.96" transform="rotate(190.25118707721256 903.6 396.8)"/><ellipse cx="913.9" cy="384.4" rx="16.9" ry="10.3" fill="#b08d57" opacity="0.96" transform="rotate(249.1408480201405 913.9 384.4)"/><ellipse cx="930.1" cy="387.1" rx="16.9" ry="10.3" fill="#b08d57" opacity="0.96" transform="rotate(309.4415354261286 930.1 387.1)"/><circle cx="919.6798900462964" cy="399.7007523148148" r="9.8" fill="#0f0c09"/></g>
  <rect width="1000" height="750" fill="url(#v8)"/>
  <rect width="1000" height="750" filter="url(#n8)" opacity="0.5"/>
</svg>