<svg width="900" height="900" viewBox="0 0 900 900" xmlns="http://www.w3.org/2000/svg" role="img">
  <defs>
    <linearGradient id="g9" x1="0.2" y1="0" x2="0.8" y2="1">
      <stop offset="0%" stop-color="#f5e2d8"/>
      <stop offset="100%" stop-color="#e3bfab"/>
    </linearGradient>
    <radialGradient id="glow9" cx="50%" cy="30%" r="65%">
      <stop offset="0%" stop-color="#fff6e8" stop-opacity="0.55"/>
      <stop offset="100%" stop-color="#fff6e8" stop-opacity="0"/>
    </radialGradient>
    <filter id="n9"><feTurbulence type="fractalNoise" baseFrequency="0.85" numOctaves="2" stitchTiles="stitch" result="noise"/><feColorMatrix in="noise" type="matrix" values="0 0 0 0 0  0 0 0 0 0  0 0 0 0 0  0 0 0 0.035 0"/></filter>
  </defs>
  <rect width="900" height="900" fill="url(#g9)"/>
  <rect width="900" height="900" fill="url(#glow9)"/>
  <g fill="none" stroke="#5b4f3d" stroke-width="3.4697106481481486"><ellipse cx="259.0" cy="200.0" rx="34.7" ry="20.8" transform="rotate(2.6655014435171345 259.0 200.0)"/><ellipse cx="223.4" cy="240.4" rx="34.7" ry="20.8" transform="rotate(80.09627090135994 223.4 240.4)"/><ellipse cx="178.1" cy="218.4" rx="34.7" ry="20.8" transform="rotate(151.72377956387047 178.1 218.4)"/><ellipse cx="183.0" cy="170.4" rx="34.7" ry="20.8" transform="rotate(219.84693216459834 183.0 170.4)"/><ellipse cx="234.4" cy="159.1" rx="34.7" ry="20.8" transform="rotate(295.25289706866096 234.4 159.1)"/><circle cx="216" cy="198" r="9.7" fill="#5b4f3d" stroke="none"/></g><g stroke="#ad8253" stroke-width="3.645" fill="none" transform="rotate(5.467764060356652 216 198)"><path d="M 216 198 Q 256.5 189.9 297 198" /><path d="M 236.25 196 q 9.719999999999999 -12.96 4.05 -22.680000000000003" /><path d="M 256.5 200 q 9.719999999999999 12.96 4.05 22.680000000000003" /><path d="M 276.75 196 q 9.719999999999999 -12.96 4.05 -22.680000000000003" /></g><g fill="none" stroke="#5b4f3d" stroke-width="3.5142650462962965"><ellipse cx="745.5" cy="271.7" rx="35.1" ry="21.1" transform="rotate(2.244968891724013 745.5 271.7)"/><ellipse cx="712.3" cy="312.3" rx="35.1" ry="21.1" transform="rotate(76.29516946574452 712.3 312.3)"/><ellipse cx="664.6" cy="292.3" rx="35.1" ry="21.1" transform="rotate(149.1752864766635 664.6 292.3)"/><ellipse cx="671.4" cy="239.0" rx="35.1" ry="21.1" transform="rotate(225.30629056592247 671.4 239.0)"/><ellipse cx="721.9" cy="231.3" rx="35.1" ry="21.1" transform="rotate(297.2255832907682 721.9 231.3)"/><circle cx="702" cy="270" r="9.8" fill="#5b4f3d" stroke="none"/></g><g stroke="#c99a5f" stroke-width="3.645" fill="none" transform="rotate(81.91135116598079 702 270)"><path d="M 702 270 Q 742.5 261.9 783 270" /><path d="M 722.25 268 q 9.719999999999999 -12.96 4.05 -22.680000000000003" /><path d="M 742.5 272 q 9.719999999999999 12.96 4.05 22.680000000000003" /><path d="M 762.75 268 q 9.719999999999999 -12.96 4.05 -22.680000000000003" /></g><g fill="none" stroke="#5b4f3d" stroke-width="3.912638888888889"><ellipse cx="317.8" cy="656.2" rx="39.1" ry="23.5" transform="rotate(9.673132885370102 317.8 656.2)"/><ellipse cx="279.8" cy="695.5" rx="39.1" ry="23.5" transform="rotate(78.39753749333404 279.8 695.5)"/><ellipse cx="226.4" cy="669.3" rx="39.1" ry="23.5" transform="rotate(153.98034122305427 226.4 669.3)"/><ellipse cx="236.5" cy="612.9" rx="39.1" ry="23.5" transform="rotate(226.4124665423072 236.5 612.9)"/><ellipse cx="290.8" cy="604.2" rx="39.1" ry="23.5" transform="rotate(295.44633909517205 290.8 604.2)"/><circle cx="270" cy="648" r="11.0" fill="#5b4f3d" stroke="none"/></g><g stroke="#ad8253" stroke-width="3.645" fill="none" transform="rotate(145.8755144032922 270 648)"><path d="M 270 648 Q 310.5 639.9 351 648" /><path d="M 290.25 646 q 9.719999999999999 -12.96 4.05 -22.680000000000003" /><path d="M 310.5 650 q 9.719999999999999 12.96 4.05 22.680000000000003" /><path d="M 330.75 646 q 9.719999999999999 -12.96 4.05 -22.680000000000003" /></g><g fill="none" stroke="#5b4f3d" stroke-width="3.260665509259259"><ellipse cx="687.6" cy="727.9" rx="32.6" ry="19.6" transform="rotate(11.333403848815463 687.6 727.9)"/><ellipse cx="659.4" cy="758.8" rx="32.6" ry="19.6" transform="rotate(73.63561177164532 659.4 758.8)"/><ellipse cx="612.0" cy="738.4" rx="32.6" ry="19.6" transform="rotate(152.94676740898126 612.0 738.4)"/><ellipse cx="620.6" cy="690.3" rx="32.6" ry="19.6" transform="rotate(227.3742241444048 620.6 690.3)"/><ellipse cx="662.6" cy="682.3" rx="32.6" ry="19.6" transform="rotate(291.15303626147613 662.6 682.3)"/><circle cx="648" cy="720" r="9.1" fill="#5b4f3d" stroke="none"/></g><g stroke="#c99a5f" stroke-width="3.645" fill="none" transform="rotate(226.86642661179698 648 720)"><path d="M 648 720 Q 688.5 711.9 729 720" /><path d="M 668.25 718 q 9.719999999999999 -12.96 4.05 -22.680000000000003" /><path d="M 688.5 722 q 9.719999999999999 12.96 4.05 22.680000000000003" /><path d="M 708.75 718 q 9.719999999999999 -12.96 4.05 -22.680000000000003" /></g><g fill="none" stroke="#5b4f3d" stroke-width="2.804178240740741"><ellipse cx="484.1" cy="456.6" rx="28.0" ry="16.8" transform="rotate(11.010132651134052 484.1 456.6)"/><ellipse cx="455.7" cy="484.3" rx="28.0" ry="16.8" transform="rotate(80.6482045249959 455.7 484.3)"/><ellipse cx="419.4" cy="466.6" rx="28.0" ry="16.8" transform="rotate(151.556568629832 419.4 466.6)"/><ellipse cx="424.6" cy="426.3" rx="28.0" ry="16.8" transform="rotate(223.06323742814308 424.6 426.3)"/><ellipse cx="462.0" cy="417.4" rx="28.0" ry="16.8" transform="rotate(290.25209156664636 462.0 417.4)"/><circle cx="450" cy="450" r="7.9" fill="#5b4f3d" stroke="none"/></g><g stroke="#ad8253" stroke-width="3.645" fill="none" transform="rotate(286.2421124828532 450 450)"><path d="M 450 450 Q 490.5 441.9 531 450" /><path d="M 470.25 448 q 9.719999999999999 -12.96 4.05 -22.680000000000003" /><path d="M 490.5 452 q 9.719999999999999 12.96 4.05 22.680000000000003" /><path d="M 510.75 448 q 9.719999999999999 -12.96 4.05 -22.680000000000003" /></g>
  <rect width="900" height="900" filter="url(#n9)" opacity="0.4"/>
</svg>