<svg width="800" height="1100" viewBox="0 0 800 1100" xmlns="http://www.w3.org/2000/svg" role="img">
  <defs>
    <linearGradient id="g12" x1="0.2" y1="0" x2="0.8" y2="1">
      <stop offset="0%" stop-color="#f0ece0"/>
      <stop offset="100%" stop-color="#d9d3ba"/>
    </linearGradient>
    <radialGradient id="glow12" cx="50%" cy="30%" r="65%">
      <stop offset="0%" stop-color="#fff6e8" stop-opacity="0.55"/>
      <stop offset="100%" stop-color="#fff6e8" stop-opacity="0"/>
    </radialGradient>
    <filter id="n12"><feTurbulence type="fractalNoise" baseFrequency="0.85" numOctaves="2" stitchTiles="stitch" result="noise"/><feColorMatrix in="noise" type="matrix" values="0 0 0 0 0  0 0 0 0 0  0 0 0 0 0  0 0 0 0.035 0"/></filter>
  </defs>
  <rect width="800" height="1100" fill="url(#g12)"/>
  <rect width="800" height="1100" fill="url(#glow12)"/>
  <g fill="none" stroke="#5b4f3d" stroke-width="3.2277211934156385"><ellipse cx="231.6" cy="247.9" rx="32.3" ry="19.4" transform="rotate(8.483646173342246 231.6 247.9)"/><ellipse cx="203.7" cy="280.3" rx="32.3" ry="19.4" transform="rotate(73.06707494715594 203.7 280.3)"/><ellipse cx="158.2" cy="263.4" rx="32.3" ry="19.4" transform="rotate(147.6566339394323 158.2 263.4)"/><ellipse cx="160.5" cy="217.4" rx="32.3" ry="19.4" transform="rotate(217.99911380216383 160.5 217.4)"/><ellipse cx="210.4" cy="206.5" rx="32.3" ry="19.4" transform="rotate(297.42816198993825 210.4 206.5)"/><circle cx="192" cy="242" r="9.0" fill="#5b4f3d" stroke="none"/></g><g stroke="#ad8253" stroke-width="3.2399999999999998" fill="none" transform="rotate(28.955932784636488 192 242)"><path d="M 192 242 Q 228 234.8 264 242" /><path d="M 210 240 q 8.64 -11.52 3.6 -20.160000000000004" /><path d="M 228 244 q 8.64 11.52 3.6 20.160000000000004" /><path d="M 246 240 q 8.64 -11.52 3.6 -20.160000000000004" /></g><g fill="none" stroke="#5b4f3d" stroke-width="2.6275102880658436"><ellipse cx="656.3" cy="333.9" rx="26.3" ry="15.8" transform="rotate(6.940187078622975 656.3 333.9)"/><ellipse cx="632.1" cy="361.6" rx="26.3" ry="15.8" transform="rotate(75.67638094163075 632.1 361.6)"/><ellipse cx="596.9" cy="348.1" rx="26.3" ry="15.8" transform="rotate(146.3194868079803 596.9 348.1)"/><ellipse cx="601.3" cy="306.6" rx="26.3" ry="15.8" transform="rotate(225.83695440858352 601.3 306.6)"/><ellipse cx="637.3" cy="300.2" rx="26.3" ry="15.8" transform="rotate(294.0337898533354 637.3 300.2)"/><circle cx="624" cy="330" r="7.4" fill="#5b4f3d" stroke="none"/></g><g stroke="#c99a5f" stroke-width="3.2399999999999998" fill="none" transform="rotate(95.18347050754458 624 330)"><path d="M 624 330 Q 660 322.8 696 330" /><path d="M 642 328 q 8.64 -11.52 3.6 -20.160000000000004" /><path d="M 660 332 q 8.64 11.52 3.6 20.160000000000004" /><path d="M 678 328 q 8.64 -11.52 3.6 -20.160000000000004" /></g><g fill="none" stroke="#5b4f3d" stroke-width="3.5973611111111112"><ellipse cx="284.1" cy="798.7" rx="36.0" ry="21.6" transform="rotate(8.682982827375243 284.1 798.7)"/><ellipse cx="246.1" cy="836.2" rx="36.0" ry="21.6" transform="rotate(82.17319378681316 246.1 836.2)"/><ellipse cx="201.7" cy="814.9" rx="36.0" ry="21.6" transform="rotate(149.04668535289358 201.7 814.9)"/><ellipse cx="206.3" cy="762.8" rx="36.0" ry="21.6" transform="rotate(220.93945225389058 206.3 762.8)"/><ellipse cx="257.1" cy="750.8" rx="36.0" ry="21.6" transform="rotate(292.5109619549429 257.1 750.8)"/><circle cx="240" cy="792" r="10.1" fill="#5b4f3d" stroke="none"/></g><g stroke="#ad8253" stroke-width="3.2399999999999998" fill="none" transform="rotate(164.1167695473251 240 792)"><path d="M 240 792 Q 276 784.8 312 792" /><path d="M 258 790 q 8.64 -11.52 3.6 -20.160000000000004" /><path d="M 276 794 q 8.64 11.52 3.6 20.160000000000004" /><path d="M 294 790 q 8.64 -11.52 3.6 -20.160000000000004" /></g><g fill="none" stroke="#5b4f3d" stroke-width="3.5557921810699593"><ellipse cx="619.8" cy="885.0" rx="35.6" ry="21.3" transform="rotate(6.461641567634935 619.8 885.0)"/><ellipse cx="581.9" cy="923.7" rx="35.6" ry="21.3" transform="rotate(82.33622935969032 581.9 923.7)"/><ellipse cx="536.8" cy="900.1" rx="35.6" ry="21.3" transform="rotate(152.83196953799182 536.8 900.1)"/><ellipse cx="545.0" cy="848.6" rx="35.6" ry="21.3" transform="rotate(225.34072501502973 545.0 848.6)"/><ellipse cx="595.8" cy="840.6" rx="35.6" ry="21.3" transform="rotate(296.64402916383455 595.8 840.6)"/><circle cx="576" cy="880" r="10.0" fill="#5b4f3d" stroke="none"/></g><g stroke="#c99a5f" stroke-width="3.2399999999999998" fill="none" transform="rotate(220.81755829903977 576 880)"><path d="M 576 880 Q 612 872.8 648 880" /><path d="M 594 878 q 8.64 -11.52 3.6 -20.160000000000004" /><path d="M 612 882 q 8.64 11.52 3.6 20.160000000000004" /><path d="M 630 878 q 8.64 -11.52 3.6 -20.160000000000004" /></g><g fill="none" stroke="#5b4f3d" stroke-width="3.076877572016461"><ellipse cx="437.9" cy="554.4" rx="30.8" ry="18.5" transform="rotate(6.60699325794633 437.9 554.4)"/><ellipse cx="405.3" cy="587.8" rx="30.8" ry="18.5" transform="rotate(82.07190443722813 405.3 587.8)"/><ellipse cx="368.1" cy="571.0" rx="30.8" ry="18.5" transform="rotate(146.60522887710547 368.1 571.0)"/><ellipse cx="373.0" cy="523.0" rx="30.8" ry="18.5" transform="rotate(224.99976993478253 373.0 523.0)"/><ellipse cx="411.9" cy="513.7" rx="30.8" ry="18.5" transform="rotate(288.1478569070082 411.9 513.7)"/><circle cx="400" cy="550" r="8.6" fill="#5b4f3d" stroke="none"/></g><g stroke="#ad8253" stroke-width="3.2399999999999998" fill="none" transform="rotate(288.8660836762689 400 550)"><path d="M 400 550 Q 436 542.8 472 550" /><path d="M 418 548 q 8.64 -11.52 3.6 -20.160000000000004" /><path d="M 436 552 q 8.64 11.52 3.6 20.160000000000004" /><path d="M 454 548 q 8.64 -11.52 3.6 -20.160000000000004" /></g>
  <rect width="800" height="1100" filter="url(#n12)" opacity="0.4"/>
</svg>