<svg width="900" height="900" viewBox="0 0 900 900" xmlns="http://www.w3.org/2000/svg" role="img">
  <defs>
    <linearGradient id="g11" x1="0.1" y1="0" x2="0.9" y2="1">
      <stop offset="0%" stop-color="#544a37"/>
      <stop offset="100%" stop-color="#2c261b"/>
    </linearGradient>
    <radialGradient id="v11" cx="50%" cy="42%" r="72%">
      <stop offset="0%" stop-color="#000000" stop-opacity="0"/>
      <stop offset="100%" stop-color="#000000" stop-opacity="0.3"/>
    </radialGradient>
    <filter id="n11"><feTurbulence type="fractalNoise" baseFrequency="0.8" numOctaves="2" stitchTiles="stitch" result="noise"/><feColorMatrix in="noise" type="matrix" values="0 0 0 0 0  0 0 0 0 0  0 0 0 0 0  0 0 0 0.06 0"/></filter>
  </defs>
  <rect width="900" height="900" fill="url(#g11)"/>
  <rect x="0" y="558" width="900" height="342" fill="#181510" opacity="0.55"/><rect x="0" y="558" width="900" height="5.4" fill="#c9a469" opacity="0.6"/><rect x="131.4" y="301.50925925925924" width="25.2" height="256.49074074074076" rx="12.6" fill="#f4ede3" opacity="0.95"/><ellipse cx="144" cy="283.50925925925924" rx="3.924649562757202" ry="8.970627572016461" fill="#f0b74a"/><ellipse cx="144" cy="288.00925925925924" rx="30.275868055555556" ry="45.41380208333334" fill="#f0b74a" opacity="0.22" filter="blur(2px)"/><rect x="329.4" y="333.21682098765433" width="25.2" height="224.78317901234567" rx="12.6" fill="#f4ede3" opacity="0.95"/><ellipse cx="342" cy="315.21682098765433" rx="3.084280478395062" ry="7.049783950617284" fill="#f0b74a"/><ellipse cx="342" cy="319.71682098765433" rx="23.793020833333333" ry="35.68953125" fill="#f0b74a" opacity="0.22" filter="blur(2px)"/><rect x="545.4" y="339.46141975308643" width="25.2" height="218.53858024691357" rx="12.6" fill="#f4ede3" opacity="0.95"/><ellipse cx="558" cy="321.46141975308643" rx="3.7724607767489715" ry="8.622767489711935" fill="#f0b74a"/><ellipse cx="558" cy="325.96141975308643" rx="29.10184027777778" ry="43.652760416666666" fill="#f0b74a" opacity="0.22" filter="blur(2px)"/><rect x="743.4" y="342.4652777777778" width="25.2" height="215.5347222222222" rx="12.6" fill="#f4ede3" opacity="0.95"/><ellipse cx="756" cy="324.4652777777778" rx="3.3188200874485596" ry="7.585874485596707" fill="#f0b74a"/><ellipse cx="756" cy="328.9652777777778" rx="25.602326388888887" ry="38.40348958333333" fill="#f0b74a" opacity="0.22" filter="blur(2px)"/><path d="M 289.0439814814815 597.8944444444444 Q 335.45208333333335 520.5476080246913 443.7376543209877 597.8944444444444 Q 335.45208333333335 675.2412808641975 289.0439814814815 597.8944444444444 Z" fill="#c9a469" opacity="0.7778478652263374" transform="rotate(121.97685185185185 289.0439814814815 597.8944444444444)"/><path d="M 246.01851851851856 558.0634259259259 Q 287.9549768518519 488.1693287037037 385.80671296296305 558.0634259259259 Q 287.9549768518519 627.9575231481481 246.01851851851856 558.0634259259259 Z" fill="#8a9767" opacity="0.7385378086419753" transform="rotate(107.26234567901236 246.01851851851856 558.0634259259259)"/><path d="M 282.29861111111114 499.2046296296296 Q 315.1731481481482 444.4137345679012 391.88040123456796 499.2046296296296 Q 315.1731481481482 553.995524691358 282.29861111111114 499.2046296296296 Z" fill="#c9a469" opacity="0.7473373199588477" transform="rotate(292.45524691358025 282.29861111111114 499.2046296296296)"/><path d="M 262.2175925925926 565.6513888888888 Q 306.5232638888889 491.8086033950617 409.90316358024694 565.6513888888888 Q 306.5232638888889 639.494174382716 262.2175925925926 565.6513888888888 Z" fill="#8a9767" opacity="0.8102649176954733" transform="rotate(158.66666666666669 262.2175925925926 565.6513888888888)"/><path d="M 202.10879629629633 501.73703703703706 Q 254.4219907407408 414.5483796296296 376.4861111111112 501.73703703703706 Q 254.4219907407408 588.9256944444445 202.10879629629633 501.73703703703706 Z" fill="#c9a469" opacity="0.7611168981481481" transform="rotate(133.67438271604937 202.10879629629633 501.73703703703706)"/><path d="M 282.3055555555556 563.7949074074074 Q 314.2859953703704 510.4941743827161 388.90702160493834 563.7949074074074 Q 314.2859953703704 617.0956404320988 282.3055555555556 563.7949074074074 Z" fill="#8a9767" opacity="0.8281340020576131" transform="rotate(311.92283950617286 282.3055555555556 563.7949074074074)"/><path d="M 283.14120370370375 560.1583333333333 Q 333.5319444444445 476.1737654320987 451.11033950617286 560.1583333333333 Q 333.5319444444445 644.1429012345678 283.14120370370375 560.1583333333333 Z" fill="#c9a469" opacity="0.8006680812757201" transform="rotate(134.52314814814815 283.14120370370375 560.1583333333333)"/><g><ellipse cx="343.8" cy="597.1" rx="30.6" ry="18.8" fill="#8a9767" opacity="0.96" transform="rotate(9.15288288466446 343.8 597.1)"/><ellipse cx="326.2" cy="619.6" rx="30.6" ry="18.8" fill="#8a9767" opacity="0.96" transform="rotate(66.78625133698277 326.2 619.6)"/><ellipse cx="295.3" cy="614.9" rx="30.6" ry="18.8" fill="#8a9767" opacity="0.96" transform="rotate(130.64950425153245 295.3 614.9)"/><ellipse cx="285.0" cy="590.4" rx="30.6" ry="18.8" fill="#8a9767" opacity="0.96" transform="rotate(183.98716289725007 285.0 590.4)"/><ellipse cx="301.1" cy="566.0" rx="30.6" ry="18.8" fill="#8a9767" opacity="0.96" transform="rotate(242.93577011539725 301.1 566.0)"/><ellipse cx="332.5" cy="568.8" rx="30.6" ry="18.8" fill="#8a9767" opacity="0.96" transform="rotate(307.1858579610731 332.5 568.8)"/><circle cx="314.56458333333336" cy="592.4236111111111" r="17.8" fill="#181510"/></g><g><ellipse cx="231.1" cy="534.7" rx="25.8" ry="15.8" fill="#f4ede3" opacity="0.96" transform="rotate(12.654844254016341 231.1 534.7)"/><ellipse cx="217.0" cy="552.1" rx="25.8" ry="15.8" fill="#f4ede3" opacity="0.96" transform="rotate(65.87829449149672 217.0 552.1)"/><ellipse cx="193.4" cy="550.3" rx="25.8" ry="15.8" fill="#f4ede3" opacity="0.96" transform="rotate(122.54641768710032 193.4 550.3)"/><ellipse cx="182.2" cy="525.0" rx="25.8" ry="15.8" fill="#f4ede3" opacity="0.96" transform="rotate(189.77697657354796 182.2 525.0)"/><ellipse cx="198.4" cy="505.8" rx="25.8" ry="15.8" fill="#f4ede3" opacity="0.96" transform="rotate(250.28397594280324 198.4 505.8)"/><ellipse cx="223.9" cy="511.1" rx="25.8" ry="15.8" fill="#f4ede3" opacity="0.96" transform="rotate(313.3072444354791 223.9 511.1)"/><circle cx="206.79583333333335" cy="529.2798611111111" r="15.0" fill="#181510"/></g><g><ellipse cx="196.5" cy="586.0" rx="20.6" ry="12.6" fill="#8a9767" opacity="0.96" transform="rotate(5.115431446367978 196.5 586.0)"/><ellipse cx="182.9" cy="603.2" rx="20.6" ry="12.6" fill="#8a9767" opacity="0.96" transform="rotate(71.83389456684866 182.9 603.2)"/><ellipse cx="165.2" cy="600.6" rx="20.6" ry="12.6" fill="#8a9767" opacity="0.96" transform="rotate(124.88787426307377 165.2 600.6)"/><ellipse cx="156.7" cy="583.9" rx="20.6" ry="12.6" fill="#8a9767" opacity="0.96" transform="rotate(180.94442985327794 156.7 583.9)"/><ellipse cx="168.7" cy="565.9" rx="20.6" ry="12.6" fill="#8a9767" opacity="0.96" transform="rotate(246.590807593209 168.7 565.9)"/><ellipse cx="190.0" cy="569.4" rx="20.6" ry="12.6" fill="#8a9767" opacity="0.96" transform="rotate(311.9682429524525 190.0 569.4)"/><circle cx="176.65208333333334" cy="584.2611111111111" r="12.0" fill="#181510"/></g><path d="M 627.4736111111112 599.8796296296297 Q 659.2668981481482 546.8908179012346 733.4512345679013 599.8796296296297 Q 659.2668981481482 652.8684413580247 627.4736111111112 599.8796296296297 Z" fill="#c9a469" opacity="0.7725803755144033" transform="rotate(13.03858024691358 627.4736111111112 599.8796296296297)"/><path d="M 644.8925925925926 505.8263888888889 Q 692.9920138888889 425.6606867283951 805.2239969135802 505.8263888888889 Q 692.9920138888889 585.9920910493827 644.8925925925926 505.8263888888889 Z" fill="#8a9767" opacity="0.787591306584362" transform="rotate(244.25 644.8925925925926 505.8263888888889)"/><path d="M 604.2837962962963 587.4120370370371 Q 660.7657407407407 493.275462962963 792.5569444444444 587.4120370370371 Q 660.7657407407407 681.5486111111111 604.2837962962963 587.4120370370371 Z" fill="#c9a469" opacity="0.8155266203703703" transform="rotate(164.2577160493827 604.2837962962963 587.4120370370371)"/><path d="M 685.9805555555556 560.9699074074074 Q 718.0047453703704 507.59625771604937 792.7278549382717 560.9699074074074 Q 718.0047453703704 614.3435570987655 685.9805555555556 560.9699074074074 Z" fill="#8a9767" opacity="0.7846270576131686" transform="rotate(227.50617283950618 685.9805555555556 560.9699074074074)"/><path d="M 670.3162037037036 558.8333333333334 Q 712.1256944444444 489.1508487654321 809.6811728395062 558.8333333333334 Q 712.1256944444444 628.5158179012346 670.3162037037036 558.8333333333334 Z" fill="#c9a469" opacity="0.784244470164609" transform="rotate(235.10648148148147 670.3162037037036 558.8333333333334)"/><path d="M 633.6240740740741 565.3356481481482 Q 665.5452546296297 512.1336805555555 740.0280092592593 565.3356481481482 Q 665.5452546296297 618.5376157407408 633.6240740740741 565.3356481481482 Z" fill="#8a9767" opacity="0.7815084876543209" transform="rotate(334.83641975308643 633.6240740740741 565.3356481481482)"/><g><ellipse cx="641.6" cy="533.1" rx="29.1" ry="17.8" fill="#8a9767" opacity="0.96" transform="rotate(3.628081837373002 641.6 533.1)"/><ellipse cx="627.3" cy="555.9" rx="29.1" ry="17.8" fill="#8a9767" opacity="0.96" transform="rotate(60.60198883567628 627.3 555.9)"/><ellipse cx="598.8" cy="555.4" rx="29.1" ry="17.8" fill="#8a9767" opacity="0.96" transform="rotate(121.46266585624691 598.8 555.4)"/><ellipse cx="586.1" cy="524.6" rx="29.1" ry="17.8" fill="#8a9767" opacity="0.96" transform="rotate(193.85839210877876 586.1 524.6)"/><ellipse cx="605.3" cy="504.4" rx="29.1" ry="17.8" fill="#8a9767" opacity="0.96" transform="rotate(253.07594170761362 605.3 504.4)"/><ellipse cx="632.3" cy="510.4" rx="29.1" ry="17.8" fill="#8a9767" opacity="0.96" transform="rotate(312.0687586321753 632.3 510.4)"/><circle cx="613.4555555555555" cy="531.35625" r="16.9" fill="#181510"/></g><g><ellipse cx="726.7" cy="537.8" rx="23.5" ry="14.4" fill="#f4ede3" opacity="0.96" transform="rotate(4.377988982427522 726.7 537.8)"/><ellipse cx="710.3" cy="557.9" rx="23.5" ry="14.4" fill="#f4ede3" opacity="0.96" transform="rotate(74.05113414827163 710.3 557.9)"/><ellipse cx="692.4" cy="555.6" rx="23.5" ry="14.4" fill="#f4ede3" opacity="0.96" transform="rotate(120.9525963684906 692.4 555.6)"/><ellipse cx="681.8" cy="531.8" rx="23.5" ry="14.4" fill="#f4ede3" opacity="0.96" transform="rotate(190.92784119483323 681.8 531.8)"/><ellipse cx="692.8" cy="516.4" rx="23.5" ry="14.4" fill="#f4ede3" opacity="0.96" transform="rotate(240.16504957061383 692.8 516.4)"/><ellipse cx="717.2" cy="517.6" rx="23.5" ry="14.4" fill="#f4ede3" opacity="0.96" transform="rotate(305.4909069390405 717.2 517.6)"/><circle cx="704.0618055555556" cy="536.0875" r="13.6" fill="#181510"/></g><g><ellipse cx="697.9" cy="620.8" rx="29.2" ry="17.9" fill="#8a9767" opacity="0.96" transform="rotate(4.829480609184739 697.9 620.8)"/><ellipse cx="683.0" cy="643.4" rx="29.2" ry="17.9" fill="#8a9767" opacity="0.96" transform="rotate(62.13496040559614 683.0 643.4)"/><ellipse cx="652.7" cy="640.9" rx="29.2" ry="17.9" fill="#8a9767" opacity="0.96" transform="rotate(127.30608380157229 652.7 640.9)"/><ellipse cx="641.6" cy="616.4" rx="29.2" ry="17.9" fill="#8a9767" opacity="0.96" transform="rotate(184.1178885430227 641.6 616.4)"/><ellipse cx="656.2" cy="593.7" rx="29.2" ry="17.9" fill="#8a9767" opacity="0.96" transform="rotate(241.27968679358727 656.2 593.7)"/><ellipse cx="684.8" cy="594.5" rx="29.2" ry="17.9" fill="#8a9767" opacity="0.96" transform="rotate(302.1956259471759 684.8 594.5)"/><circle cx="669.7930555555555" cy="618.44375" r="17.0" fill="#181510"/></g><path d="M 458.4540740740741 169.6011111111111 Q 483.7686111111111 127.4102160493827 542.8358641975309 169.6011111111111 Q 483.7686111111111 211.79200617283948 458.4540740740741 169.6011111111111 Z" fill="#c9a469" opacity="0.8024176954732509" transform="rotate(59.833333333333336 458.4540740740741 169.6011111111111)"/><path d="M 441.56703703703704 178.46962962962962 Q 473.88759259259257 124.60203703703704 549.3022222222222 178.46962962962962 Q 473.88759259259257 232.3372222222222 441.56703703703704 178.46962962962962 Z" fill="#8a9767" opacity="0.7574363425925925" transform="rotate(284.84104938271605 441.56703703703704 178.46962962962962)"/><path d="M 421.72444444444443 172.91592592592593 Q 452.77879629629626 121.15867283950618 525.238950617284 172.91592592592593 Q 452.77879629629626 224.67317901234568 421.72444444444443 172.91592592592593 Z" fill="#c9a469" opacity="0.7786201131687243" transform="rotate(233.08950617283952 421.72444444444443 172.91592592592593)"/><path d="M 482.39296296296294 172.40666666666667 Q 514.3755555555555 119.10234567901234 589.0016049382716 172.40666666666667 Q 514.3755555555555 225.710987654321 482.39296296296294 172.40666666666667 Z" fill="#8a9767" opacity="0.8053208590534979" transform="rotate(65.68981481481481 482.39296296296294 172.40666666666667)"/><path d="M 425.43925925925925 164.40851851851852 Q 460.61120370370367 105.78861111111111 542.679074074074 164.40851851851852 Q 460.61120370370367 223.02842592592594 425.43925925925925 164.40851851851852 Z" fill="#c9a469" opacity="0.8046682098765432" transform="rotate(290.41975308641975 425.43925925925925 164.40851851851852)"/><path d="M 471.93 142.78814814814814 Q 497.4190740740741 100.30635802469135 556.8935802469136 142.78814814814814 Q 497.4190740740741 185.26993827160493 471.93 142.78814814814814 Z" fill="#8a9767" opacity="0.7382362397119341" transform="rotate(121.72376543209877 471.93 142.78814814814814)"/><path d="M 465.33185185185187 117.41222222222223 Q 490.7325 75.07780864197531 550.0006790123457 117.41222222222223 Q 490.7325 159.74663580246914 465.33185185185187 117.41222222222223 Z" fill="#c9a469" opacity="0.7787101337448559" transform="rotate(40.71296296296296 465.33185185185187 117.41222222222223)"/><g><ellipse cx="463.2" cy="112.6" rx="25.9" ry="15.9" fill="#8a9767" opacity="0.96" transform="rotate(2.535610869976782 463.2 112.6)"/><ellipse cx="446.9" cy="135.0" rx="25.9" ry="15.9" fill="#8a9767" opacity="0.96" transform="rotate(69.53038465554755 446.9 135.0)"/><ellipse cx="422.4" cy="131.1" rx="25.9" ry="15.9" fill="#8a9767" opacity="0.96" transform="rotate(128.56372714432234 422.4 131.1)"/><ellipse cx="413.6" cy="105.8" rx="25.9" ry="15.9" fill="#8a9767" opacity="0.96" transform="rotate(193.11959879269787 413.6 105.8)"/><ellipse cx="426.6" cy="89.2" rx="25.9" ry="15.9" fill="#8a9767" opacity="0.96" transform="rotate(242.7289055307998 426.6 89.2)"/><ellipse cx="451.6" cy="90.3" rx="25.9" ry="15.9" fill="#8a9767" opacity="0.96" transform="rotate(302.5469703084305 451.6 90.3)"/><circle cx="438.08" cy="111.46722222222222" r="15.1" fill="#181510"/></g><g><ellipse cx="405.0" cy="114.0" rx="15.4" ry="9.4" fill="#f4ede3" opacity="0.96" transform="rotate(13.895847554490993 405.0 114.0)"/><ellipse cx="397.2" cy="123.8" rx="15.4" ry="9.4" fill="#f4ede3" opacity="0.96" transform="rotate(63.350420320142455 397.2 123.8)"/><ellipse cx="380.8" cy="121.7" rx="15.4" ry="9.4" fill="#f4ede3" opacity="0.96" transform="rotate(130.70624004143096 380.8 121.7)"/><ellipse cx="375.7" cy="110.0" rx="15.4" ry="9.4" fill="#f4ede3" opacity="0.96" transform="rotate(181.70078424718454 375.7 110.0)"/><ellipse cx="385.1" cy="96.6" rx="15.4" ry="9.4" fill="#f4ede3" opacity="0.96" transform="rotate(248.38609008785443 385.1 96.6)"/><ellipse cx="399.8" cy="98.7" rx="15.4" ry="9.4" fill="#f4ede3" opacity="0.96" transform="rotate(308.17099758567434 399.8 98.7)"/><circle cx="390.565" cy="110.45222222222222" r="8.9" fill="#181510"/></g><g><ellipse cx="527.5" cy="176.3" rx="26.5" ry="16.2" fill="#8a9767" opacity="0.96" transform="rotate(10.633723842437318 527.5 176.3)"/><ellipse cx="515.0" cy="193.8" rx="26.5" ry="16.2" fill="#8a9767" opacity="0.96" transform="rotate(60.453026686007725 515.0 193.8)"/><ellipse cx="487.5" cy="192.4" rx="26.5" ry="16.2" fill="#8a9767" opacity="0.96" transform="rotate(125.38836498110695 487.5 192.4)"/><ellipse cx="476.7" cy="171.2" rx="26.5" ry="16.2" fill="#8a9767" opacity="0.96" transform="rotate(180.7265128420769 476.7 171.2)"/><ellipse cx="495.2" cy="146.9" rx="26.5" ry="16.2" fill="#8a9767" opacity="0.96" transform="rotate(253.74485912661171 495.2 146.9)"/><ellipse cx="516.2" cy="150.0" rx="26.5" ry="16.2" fill="#8a9767" opacity="0.96" transform="rotate(302.7536506859179 516.2 150.0)"/><circle cx="502.35" cy="171.53722222222223" r="15.4" fill="#181510"/></g><g><ellipse cx="440.6" cy="202.0" rx="24.8" ry="15.2" fill="#f4ede3" opacity="0.96" transform="rotate(10.654170831653985 440.6 202.0)"/><ellipse cx="427.4" cy="219.1" rx="24.8" ry="15.2" fill="#f4ede3" opacity="0.96" transform="rotate(64.41918997271095 427.4 219.1)"/><ellipse cx="401.5" cy="215.7" rx="24.8" ry="15.2" fill="#f4ede3" opacity="0.96" transform="rotate(130.5150330611886 401.5 215.7)"/><ellipse cx="393.7" cy="191.8" rx="24.8" ry="15.2" fill="#f4ede3" opacity="0.96" transform="rotate(193.7777707969425 393.7 191.8)"/><ellipse cx="408.1" cy="175.3" rx="24.8" ry="15.2" fill="#f4ede3" opacity="0.96" transform="rotate(248.06225398836884 408.1 175.3)"/><ellipse cx="430.5" cy="177.7" rx="24.8" ry="15.2" fill="#f4ede3" opacity="0.96" transform="rotate(304.19986070699946 430.5 177.7)"/><circle cx="417.03499999999997" cy="197.52222222222224" r="14.4" fill="#181510"/></g><g><ellipse cx="451.3" cy="92.6" rx="26.0" ry="15.9" fill="#8a9767" opacity="0.96" transform="rotate(3.2142298634380575 451.3 92.6)"/><ellipse cx="437.0" cy="113.9" rx="26.0" ry="15.9" fill="#8a9767" opacity="0.96" transform="rotate(64.50595152154924 437.0 113.9)"/><ellipse cx="413.3" cy="112.7" rx="26.0" ry="15.9" fill="#8a9767" opacity="0.96" transform="rotate(121.01934074470236 413.3 112.7)"/><ellipse cx="401.1" cy="90.6" rx="26.0" ry="15.9" fill="#8a9767" opacity="0.96" transform="rotate(181.46370969653728 401.1 90.6)"/><ellipse cx="417.3" cy="67.7" rx="26.0" ry="15.9" fill="#8a9767" opacity="0.96" transform="rotate(249.2432057709639 417.3 67.7)"/><ellipse cx="439.4" cy="69.9" rx="26.0" ry="15.9" fill="#8a9767" opacity="0.96" transform="rotate(301.76666899021603 439.4 69.9)"/><circle cx="426.22" cy="91.20722222222221" r="15.1" fill="#181510"/></g>
  <rect width="900" height="900" fill="url(#v11)"/>
  <rect width="900" height="900" filter="url(#n11)" opacity="0.5"/>
</svg>