<svg width="1920" height="1280" viewBox="0 0 1920 1280" xmlns="http://www.w3.org/2000/svg" role="img">
  <defs>
    <linearGradient id="g1" x1="0.2" y1="0" x2="0.8" y2="1">
      <stop offset="0%" stop-color="#f6e9dd"/>
      <stop offset="100%" stop-color="#e9cdb6"/>
    </linearGradient>
    <radialGradient id="glow1" cx="50%" cy="30%" r="65%">
      <stop offset="0%" stop-color="#fff6e8" stop-opacity="0.55"/>
      <stop offset="100%" stop-color="#fff6e8" stop-opacity="0"/>
    </radialGradient>
    <filter id="n1"><feTurbulence type="fractalNoise" baseFrequency="0.85" numOctaves="2" stitchTiles="stitch" result="noise"/><feColorMatrix in="noise" type="matrix" values="0 0 0 0 0  0 0 0 0 0  0 0 0 0 0  0 0 0 0.035 0"/></filter>
  </defs>
  <rect width="1920" height="1280" fill="url(#g1)"/>
  <rect width="1920" height="1280" fill="url(#glow1)"/>
  <path d="M 1344 547.84
    C 803.328 345.088, 1006.0799999999999 76.8, 1208.8319999999999 76.8
    C 1310.208 76.8, 1344 195.072, 1344 195.072
    C 1344 195.072, 1377.792 76.8, 1479.1680000000001 76.8
    C 1681.92 76.8, 1884.672 345.088, 1344 547.84 Z" fill="none" stroke="#ad8253" stroke-width="13.44"/><g fill="none" stroke="#5b4f3d" stroke-width="2.481144032921811"><ellipse cx="1720.8" cy="405.5" rx="24.8" ry="14.9" transform="rotate(6.249042001677614 1720.8 405.5)"/><ellipse cx="1697.7" cy="432.0" rx="24.8" ry="14.9" transform="rotate(75.922481640671 1697.7 432.0)"/><ellipse cx="1662.4" cy="415.2" rx="24.8" ry="14.9" transform="rotate(154.93006396062793 1662.4 415.2)"/><ellipse cx="1668.4" cy="380.5" rx="24.8" ry="14.9" transform="rotate(224.7744477977571 1668.4 380.5)"/><ellipse cx="1700.5" cy="373.1" rx="24.8" ry="14.9" transform="rotate(289.4521906119215 1700.5 373.1)"/><circle cx="1690.2522633517933" cy="402.1360276988728" r="6.9" fill="#5b4f3d" stroke="none"/></g><g fill="none" stroke="#5b4f3d" stroke-width="3.1079835390946506"><ellipse cx="1570.6" cy="490.8" rx="31.1" ry="18.6" transform="rotate(8.090228908149966 1570.6 490.8)"/><ellipse cx="1538.5" cy="523.4" rx="31.1" ry="18.6" transform="rotate(80.82298023102089 1538.5 523.4)"/><ellipse cx="1499.0" cy="504.7" rx="31.1" ry="18.6" transform="rotate(149.94527219671457 1499.0 504.7)"/><ellipse cx="1505.1" cy="458.1" rx="31.1" ry="18.6" transform="rotate(224.9710336256132 1505.1 458.1)"/><ellipse cx="1549.2" cy="450.7" rx="31.1" ry="18.6" transform="rotate(295.89118698549305 1549.2 450.7)"/><circle cx="1532.4008969046886" cy="485.3519640773952" r="8.7" fill="#5b4f3d" stroke="none"/></g><g fill="none" stroke="#5b4f3d" stroke-width="2.4459341563786015"><ellipse cx="1340.4" cy="511.9" rx="24.5" ry="14.7" transform="rotate(4.73235434028707 1340.4 511.9)"/><ellipse cx="1317.8" cy="538.8" rx="24.5" ry="14.7" transform="rotate(75.4314591680949 1317.8 538.8)"/><ellipse cx="1284.2" cy="525.2" rx="24.5" ry="14.7" transform="rotate(148.6740957716121 1284.2 525.2)"/><ellipse cx="1285.6" cy="491.5" rx="24.5" ry="14.7" transform="rotate(216.14883934492852 1285.6 491.5)"/><ellipse cx="1319.6" cy="480.6" rx="24.5" ry="14.7" transform="rotate(288.21844507158323 1319.6 480.6)"/><circle cx="1310.130581122318" cy="509.4039712474371" r="6.8" fill="#5b4f3d" stroke="none"/></g><g fill="none" stroke="#5b4f3d" stroke-width="2.734995884773663"><ellipse cx="1132.7" cy="472.8" rx="27.3" ry="16.4" transform="rotate(11.454292834910879 1132.7 472.8)"/><ellipse cx="1108.2" cy="498.8" rx="27.3" ry="16.4" transform="rotate(75.02679298871494 1108.2 498.8)"/><ellipse cx="1068.7" cy="480.4" rx="27.3" ry="16.4" transform="rotate(154.93625331952597 1068.7 480.4)"/><ellipse cx="1075.5" cy="442.1" rx="27.3" ry="16.4" transform="rotate(225.04589539514157 1075.5 442.1)"/><ellipse cx="1112.8" cy="434.9" rx="27.3" ry="16.4" transform="rotate(293.1719953096304 1112.8 434.9)"/><circle cx="1099.441061474905" cy="466.06807014757044" r="7.7" fill="#5b4f3d" stroke="none"/></g><g fill="none" stroke="#5b4f3d" stroke-width="2.3751687242798356"><ellipse cx="1001.4" cy="374.8" rx="23.8" ry="14.3" transform="rotate(9.157451220993952 1001.4 374.8)"/><ellipse cx="975.7" cy="399.4" rx="23.8" ry="14.3" transform="rotate(83.42870032708655 975.7 399.4)"/><ellipse cx="947.0" cy="385.1" rx="23.8" ry="14.3" transform="rotate(149.6331516694288 947.0 385.1)"/><ellipse cx="950.2" cy="350.8" rx="23.8" ry="14.3" transform="rotate(221.1044527026084 950.2 350.8)"/><ellipse cx="983.2" cy="342.8" rx="23.8" ry="14.3" transform="rotate(291.6532445286072 983.2 342.8)"/><circle cx="972.3723213947167" cy="370.1618824728912" r="6.7" fill="#5b4f3d" stroke="none"/></g><g fill="none" stroke="#5b4f3d" stroke-width="2.6464526748971196"><ellipse cx="1005.2" cy="255.4" rx="26.5" ry="15.9" transform="rotate(1.6615481327417778 1005.2 255.4)"/><ellipse cx="977.2" cy="286.9" rx="26.5" ry="15.9" transform="rotate(81.53858801218223 977.2 286.9)"/><ellipse cx="944.5" cy="271.8" rx="26.5" ry="15.9" transform="rotate(148.0436653581425 944.5 271.8)"/><ellipse cx="947.1" cy="233.6" rx="26.5" ry="15.9" transform="rotate(219.60338580415095 947.1 233.6)"/><ellipse cx="988.3" cy="225.8" rx="26.5" ry="15.9" transform="rotate(298.9410672653355 988.3 225.8)"/><circle cx="972.3723213947167" cy="254.47811752710894" r="7.4" fill="#5b4f3d" stroke="none"/></g><g fill="none" stroke="#5b4f3d" stroke-width="2.9088477366255145"><ellipse cx="1135.4" cy="161.2" rx="29.1" ry="17.5" transform="rotate(4.245458106976309 1135.4 161.2)"/><ellipse cx="1109.9" cy="193.1" rx="29.1" ry="17.5" transform="rotate(73.17617467820752 1109.9 193.1)"/><ellipse cx="1067.0" cy="174.4" rx="29.1" ry="17.5" transform="rotate(153.98751301987264 1067.0 174.4)"/><ellipse cx="1073.7" cy="133.4" rx="29.1" ry="17.5" transform="rotate(224.36241333397473 1073.7 133.4)"/><ellipse cx="1115.2" cy="126.1" rx="29.1" ry="17.5" transform="rotate(295.936870348788 1115.2 126.1)"/><circle cx="1099.4410614749047" cy="158.57192985242958" r="8.1" fill="#5b4f3d" stroke="none"/></g><g fill="none" stroke="#5b4f3d" stroke-width="2.522353909465021"><ellipse cx="1341.0" cy="120.3" rx="25.2" ry="15.1" transform="rotate(9.269743875286567 1341.0 120.3)"/><ellipse cx="1319.0" cy="145.2" rx="25.2" ry="15.1" transform="rotate(73.62033486198435 1319.0 145.2)"/><ellipse cx="1283.5" cy="131.6" rx="25.2" ry="15.1" transform="rotate(148.36610148359165 1283.5 131.6)"/><ellipse cx="1284.9" cy="96.7" rx="25.2" ry="15.1" transform="rotate(216.28294212105226 1284.9 96.7)"/><ellipse cx="1324.8" cy="87.6" rx="25.2" ry="15.1" transform="rotate(297.91952831578647 1324.8 87.6)"/><circle cx="1310.130581122318" cy="115.23602875256293" r="7.1" fill="#5b4f3d" stroke="none"/></g><g fill="none" stroke="#5b4f3d" stroke-width="2.7669711934156385"><ellipse cx="1566.3" cy="144.7" rx="27.7" ry="16.6" transform="rotate(9.094968169261579 1566.3 144.7)"/><ellipse cx="1541.1" cy="172.5" rx="27.7" ry="16.6" transform="rotate(75.23163129510174 1541.1 172.5)"/><ellipse cx="1503.8" cy="158.2" rx="27.7" ry="16.6" transform="rotate(146.45830528612157 1503.8 158.2)"/><ellipse cx="1506.9" cy="116.3" rx="27.7" ry="16.6" transform="rotate(222.10300260482202 1506.9 116.3)"/><ellipse cx="1548.1" cy="108.8" rx="27.7" ry="16.6" transform="rotate(297.24960389792005 1548.1 108.8)"/><circle cx="1532.4008969046884" cy="139.28803592260473" r="7.7" fill="#5b4f3d" stroke="none"/></g><g fill="none" stroke="#5b4f3d" stroke-width="3.0026995884773666"><ellipse cx="1727.2" cy="227.4" rx="30.0" ry="18.0" transform="rotate(7.54084962310683 1727.2 227.4)"/><ellipse cx="1695.5" cy="259.4" rx="30.0" ry="18.0" transform="rotate(81.82978261176517 1695.5 259.4)"/><ellipse cx="1657.4" cy="239.9" rx="30.0" ry="18.0" transform="rotate(152.0838430616679 1657.4 239.9)"/><ellipse cx="1662.9" cy="197.2" rx="30.0" ry="18.0" transform="rotate(222.72400161425648 1662.9 197.2)"/><ellipse cx="1707.6" cy="189.6" rx="30.0" ry="18.0" transform="rotate(297.74681572939414 1707.6 189.6)"/><circle cx="1690.2522633517933" cy="222.5039723011272" r="8.4" fill="#5b4f3d" stroke="none"/></g><g stroke="#c99a5f" stroke-width="3.456" fill="none" transform="rotate(-30 1141.248 245.76)"><path d="M 1141.248 245.76 Q 1179.6480000000001 238.07999999999998 1218.048 245.76" /><path d="M 1160.448 243.76 q 9.216 -12.288 3.84 -21.504" /><path d="M 1179.6480000000001 247.76 q 9.216 12.288 3.84 21.504" /><path d="M 1198.848 243.76 q 9.216 -12.288 3.84 -21.504" /></g><g stroke="#c99a5f" stroke-width="3.456" fill="none" transform="rotate(30 1546.752 245.76)"><path d="M 1546.752 245.76 Q 1585.152 238.07999999999998 1623.552 245.76" /><path d="M 1565.952 243.76 q 9.216 -12.288 3.84 -21.504" /><path d="M 1585.152 247.76 q 9.216 12.288 3.84 21.504" /><path d="M 1604.3519999999999 243.76 q 9.216 -12.288 3.84 -21.504" /></g>
    <rect x="261.12" y="1020.4881755829904" width="15.36" height="80.31182441700962" rx="7.68" fill="none" stroke="#5b4f3d" stroke-width="1.8432"/>
    <circle cx="268.8" cy="995.9121755829904" r="39.936" fill="#c99a5f" opacity="0.28"/>
    <path d="M 268.8 1018.4881755829904 q 7.68 -21.503999999999998 0 -36.864 q -7.68 15.36 0 36.864" fill="#c99a5f"/>
  
    <rect x="606.72" y="1003.8539094650205" width="15.36" height="96.94609053497942" rx="7.68" fill="none" stroke="#5b4f3d" stroke-width="1.8432"/>
    <circle cx="614.4" cy="979.2779094650205" r="39.936" fill="#c99a5f" opacity="0.28"/>
    <path d="M 614.4 1001.8539094650205 q 7.68 -21.503999999999998 0 -36.864 q -7.68 15.36 0 36.864" fill="#c99a5f"/>
  
    <rect x="952.32" y="1027.7447462277091" width="15.36" height="73.05525377229081" rx="7.68" fill="none" stroke="#5b4f3d" stroke-width="1.8432"/>
    <circle cx="960" cy="1003.1687462277091" r="39.936" fill="#c99a5f" opacity="0.28"/>
    <path d="M 960 1025.7447462277091 q 7.68 -21.503999999999998 0 -36.864 q -7.68 15.36 0 36.864" fill="#c99a5f"/>
  
    <rect x="1297.92" y="1028.417475994513" width="15.36" height="72.38252400548697" rx="7.68" fill="none" stroke="#5b4f3d" stroke-width="1.8432"/>
    <circle cx="1305.6000000000001" cy="1003.8414759945131" r="39.936" fill="#c99a5f" opacity="0.28"/>
    <path d="M 1305.6000000000001 1026.417475994513 q 7.68 -21.503999999999998 0 -36.864 q -7.68 15.36 0 36.864" fill="#c99a5f"/>
  
    <rect x="1643.52" y="1013.477037037037" width="15.36" height="87.32296296296298" rx="7.68" fill="none" stroke="#5b4f3d" stroke-width="1.8432"/>
    <circle cx="1651.2" cy="988.901037037037" r="39.936" fill="#c99a5f" opacity="0.28"/>
    <path d="M 1651.2 1011.477037037037 q 7.68 -21.503999999999998 0 -36.864 q -7.68 15.36 0 36.864" fill="#c99a5f"/>
  
  <rect width="1920" height="1280" filter="url(#n1)" opacity="0.4"/>
</svg>