<svg width="1920" height="1280" viewBox="0 0 1920 1280" xmlns="http://www.w3.org/2000/svg" role="img">
  <defs>
    <linearGradient id="g1" x1="0.1" y1="0" x2="0.9" y2="1">
      <stop offset="0%" stop-color="#332a20"/>
      <stop offset="100%" stop-color="#191410"/>
    </linearGradient>
    <radialGradient id="v1" cx="50%" cy="42%" r="72%">
      <stop offset="0%" stop-color="#000000" stop-opacity="0"/>
      <stop offset="100%" stop-color="#000000" stop-opacity="0.3"/>
    </radialGradient>
    <filter id="n1"><feTurbulence type="fractalNoise" baseFrequency="0.8" numOctaves="2" stitchTiles="stitch" result="noise"/><feColorMatrix in="noise" type="matrix" values="0 0 0 0 0  0 0 0 0 0  0 0 0 0 0  0 0 0 0.06 0"/></filter>
  </defs>
  <rect width="1920" height="1280" fill="url(#g1)"/>
  <path d="M 403.20000000000005 1177.6000000000001 L 403.20000000000005 761.5999999999999 A 556.8 556.8 0 0 1 1516.8 761.5999999999999 L 1516.8 1177.6000000000001" fill="none" stroke="#c9a469" stroke-width="15.36" opacity="0.85"/><path d="M 458.96638683127577 794.2510617283949 Q 503.27387654320995 720.405245541838 606.6580192043896 794.2510617283949 Q 503.27387654320995 868.0968779149518 458.96638683127577 794.2510617283949 Z" fill="#c9a469" opacity="0.7190091306584362" transform="rotate(196.31944444444443 458.96638683127577 794.2510617283949)"/><path d="M 436.3714897119342 763.9129547325101 Q 491.8519835390947 671.445465020576 621.3064691358026 763.9129547325101 Q 491.8519835390947 856.3804444444443 436.3714897119342 763.9129547325101 Z" fill="#b08d57" opacity="0.8174305555555554" transform="rotate(325.4938271604938 436.3714897119342 763.9129547325101)"/><path d="M 392.5064691358025 736.956576131687 Q 432.8883621399177 669.6534211248284 527.11277914952 736.956576131687 Q 432.8883621399177 804.2597311385457 392.5064691358025 736.956576131687 Z" fill="#c9a469" opacity="0.7611837705761316" transform="rotate(247.90895061728398 392.5064691358025 736.956576131687)"/><path d="M 405.11947325102886 822.9878518518517 Q 439.49708641975315 765.6918299039779 519.7115171467765 822.9878518518517 Q 439.49708641975315 880.2838737997255 405.11947325102886 822.9878518518517 Z" fill="#b08d57" opacity="0.7396206275720164" transform="rotate(4.675925925925926 405.11947325102886 822.9878518518517)"/><path d="M 397.2208724279836 717.4615967078187 Q 455.26334156378607 620.7241481481478 590.6957695473252 717.4615967078187 Q 455.26334156378607 814.1990452674895 397.2208724279836 717.4615967078187 Z" fill="#c9a469" opacity="0.8198707561728394" transform="rotate(343.5725308641975 397.2208724279836 717.4615967078187)"/><g><ellipse cx="426.7" cy="754.2" rx="26.0" ry="15.9" fill="#b08d57" opacity="0.96" transform="rotate(6.064589282137469 426.7 754.2)"/><ellipse cx="413.4" cy="773.8" rx="26.0" ry="15.9" fill="#b08d57" opacity="0.96" transform="rotate(62.07693516592722 413.4 773.8)"/><ellipse cx="384.8" cy="770.3" rx="26.0" ry="15.9" fill="#b08d57" opacity="0.96" transform="rotate(131.92323501522776 384.8 770.3)"/><ellipse cx="376.6" cy="749.3" rx="26.0" ry="15.9" fill="#b08d57" opacity="0.96" transform="rotate(185.05458169767815 376.6 749.3)"/><ellipse cx="390.8" cy="728.8" rx="26.0" ry="15.9" fill="#b08d57" opacity="0.96" transform="rotate(244.50423225518867 390.8 728.8)"/><ellipse cx="419.0" cy="733.4" rx="26.0" ry="15.9" fill="#b08d57" opacity="0.96" transform="rotate(313.67633408166944 419.0 733.4)"/><circle cx="401.64898765432105" cy="751.5448888888886" r="15.1" fill="#0f0c09"/></g><g><ellipse cx="460.4" cy="742.4" rx="22.1" ry="13.6" fill="#e8dcc8" opacity="0.96" transform="rotate(12.48439127484076 460.4 742.4)"/><ellipse cx="446.6" cy="757.9" rx="22.1" ry="13.6" fill="#e8dcc8" opacity="0.96" transform="rotate(70.45301666746839 446.6 757.9)"/><ellipse cx="425.7" cy="754.2" rx="22.1" ry="13.6" fill="#e8dcc8" opacity="0.96" transform="rotate(129.92108793598496 425.7 754.2)"/><ellipse cx="418.1" cy="736.2" rx="22.1" ry="13.6" fill="#e8dcc8" opacity="0.96" transform="rotate(184.21293941181372 418.1 736.2)"/><ellipse cx="432.7" cy="717.4" rx="22.1" ry="13.6" fill="#e8dcc8" opacity="0.96" transform="rotate(251.58717984410822 432.7 717.4)"/><ellipse cx="450.8" cy="719.6" rx="22.1" ry="13.6" fill="#e8dcc8" opacity="0.96" transform="rotate(302.0254185774804 450.8 719.6)"/><circle cx="439.4587654320988" cy="737.7279999999998" r="12.9" fill="#0f0c09"/></g><g><ellipse cx="415.5" cy="678.7" rx="35.7" ry="21.9" fill="#b08d57" opacity="0.96" transform="rotate(7.862819090543814 415.5 678.7)"/><ellipse cx="392.3" cy="706.7" rx="35.7" ry="21.9" fill="#b08d57" opacity="0.96" transform="rotate(71.36871021157697 392.3 706.7)"/><ellipse cx="361.9" cy="702.6" rx="35.7" ry="21.9" fill="#b08d57" opacity="0.96" transform="rotate(124.03953911887714 361.9 702.6)"/><ellipse cx="346.8" cy="672.1" rx="35.7" ry="21.9" fill="#b08d57" opacity="0.96" transform="rotate(183.07288160765196 346.8 672.1)"/><ellipse cx="368.1" cy="642.0" rx="35.7" ry="21.9" fill="#b08d57" opacity="0.96" transform="rotate(247.6287532560275 368.1 642.0)"/><ellipse cx="404.2" cy="648.1" rx="35.7" ry="21.9" fill="#b08d57" opacity="0.96" transform="rotate(311.56200487240005 404.2 648.1)"/><circle cx="381.2685432098766" cy="673.9911111111109" r="20.7" fill="#0f0c09"/></g><g><ellipse cx="491.4" cy="796.8" rx="35.6" ry="21.8" fill="#e8dcc8" opacity="0.96" transform="rotate(10.104803827084853 491.4 796.8)"/><ellipse cx="470.1" cy="822.7" rx="35.6" ry="21.8" fill="#e8dcc8" opacity="0.96" transform="rotate(68.4050020178206 470.1 822.7)"/><ellipse cx="434.4" cy="816.2" rx="35.6" ry="21.8" fill="#e8dcc8" opacity="0.96" transform="rotate(132.18351966174265 434.4 816.2)"/><ellipse cx="423.2" cy="787.6" rx="35.6" ry="21.8" fill="#e8dcc8" opacity="0.96" transform="rotate(185.21539450476058 423.2 787.6)"/><ellipse cx="446.0" cy="758.3" rx="35.6" ry="21.8" fill="#e8dcc8" opacity="0.96" transform="rotate(250.53388358878476 446.0 758.3)"/><ellipse cx="476.2" cy="761.8" rx="35.6" ry="21.8" fill="#e8dcc8" opacity="0.96" transform="rotate(302.8952445511841 476.2 761.8)"/><circle cx="457.4783209876544" cy="790.734222222222" r="20.7" fill="#0f0c09"/></g><g><ellipse cx="370.6" cy="769.1" rx="26.2" ry="16.0" fill="#b08d57" opacity="0.96" transform="rotate(8.467386825760945 370.6 769.1)"/><ellipse cx="356.2" cy="788.4" rx="26.2" ry="16.0" fill="#b08d57" opacity="0.96" transform="rotate(65.14287830576693 356.2 788.4)"/><ellipse cx="329.5" cy="785.0" rx="26.2" ry="16.0" fill="#b08d57" opacity="0.96" transform="rotate(129.2861260276079 329.5 785.0)"/><ellipse cx="321.0" cy="759.2" rx="26.2" ry="16.0" fill="#b08d57" opacity="0.96" transform="rotate(194.22146432270716 321.0 759.2)"/><ellipse cx="336.7" cy="741.7" rx="26.2" ry="16.0" fill="#b08d57" opacity="0.96" transform="rotate(249.55961218367705 336.7 741.7)"/><ellipse cx="361.2" cy="745.5" rx="26.2" ry="16.0" fill="#b08d57" opacity="0.96" transform="rotate(308.2540135899414 361.2 745.5)"/><circle cx="345.5280987654321" cy="765.3973333333331" r="15.2" fill="#0f0c09"/></g><path d="M 504.1312058447865 1071.7331494641032 Q 554.19395481598 988.2952345121142 671.0070357487646 1071.7331494641032 Q 554.19395481598 1155.1710644160923 504.1312058447865 1071.7331494641032 Z" fill="#c9a469" opacity="0.8387776491769547" transform="rotate(310.43055555555554 504.1312058447865 1071.7331494641032)"/><path d="M 470.1585309476672 1139.2439313571074 Q 521.7231729229759 1053.3028613982597 642.0406708653627 1139.2439313571074 Q 521.7231729229759 1225.185001315955 470.1585309476672 1139.2439313571074 Z" fill="#b08d57" opacity="0.8399768518518518" transform="rotate(126.27160493827161 470.1585309476672 1139.2439313571074)"/><path d="M 551.449065927091 1141.8697749785065 Q 602.1373293015766 1057.3893360210304 720.409943842043 1141.8697749785065 Q 602.1373293015766 1226.3502139359825 551.449065927091 1141.8697749785065 Z" fill="#c9a469" opacity="0.8031745113168723" transform="rotate(255.35339506172838 551.449065927091 1141.8697749785065)"/><path d="M 539.0309589312063 1148.2566062542267 Q 580.8704980258565 1078.5240410964764 678.496089246707 1148.2566062542267 Q 580.8704980258565 1217.989171411977 539.0309589312063 1148.2566062542267 Z" fill="#b08d57" opacity="0.7177224794238682" transform="rotate(258.78703703703707 539.0309589312063 1148.2566062542267)"/><path d="M 560.7145803303832 1058.6592399990827 Q 596.0678642810005 999.7371000813872 678.5588601657741 1058.6592399990827 Q 596.0678642810005 1117.5813799167781 560.7145803303832 1058.6592399990827 Z" fill="#c9a469" opacity="0.7507503858024691" transform="rotate(44.35030864197531 560.7145803303832 1058.6592399990827)"/><path d="M 480.3458560505478 1028.1947132501114 Q 531.0123910299717 943.7504882844049 649.2343059819607 1028.1947132501114 Q 531.0123910299717 1112.638938215818 480.3458560505478 1028.1947132501114 Z" fill="#b08d57" opacity="0.7638323045267489" transform="rotate(26.48765432098765 480.3458560505478 1028.1947132501114)"/><path d="M 484.89960090651493 1111.8556185999057 Q 522.7114856801775 1048.8358106438016 610.9392168187235 1111.8556185999057 Q 522.7114856801775 1174.8754265560099 484.89960090651493 1111.8556185999057 Z" fill="#c9a469" opacity="0.829653420781893" transform="rotate(86.31018518518518 484.89960090651493 1111.8556185999057)"/><g><ellipse cx="452.6" cy="1116.8" rx="32.9" ry="20.2" fill="#b08d57" opacity="0.96" transform="rotate(9.422930508012517 452.6 1116.8)"/><ellipse cx="431.1" cy="1141.8" rx="32.9" ry="20.2" fill="#b08d57" opacity="0.96" transform="rotate(71.80884239988049 431.1 1141.8)"/><ellipse cx="404.8" cy="1138.9" rx="32.9" ry="20.2" fill="#b08d57" opacity="0.96" transform="rotate(121.0607873444659 404.8 1138.9)"/><ellipse cx="389.4" cy="1111.5" rx="32.9" ry="20.2" fill="#b08d57" opacity="0.96" transform="rotate(180.21202238367914 389.4 1111.5)"/><ellipse cx="411.7" cy="1081.2" rx="32.9" ry="20.2" fill="#b08d57" opacity="0.96" transform="rotate(252.6666949114302 411.7 1081.2)"/><ellipse cx="437.8" cy="1084.5" rx="32.9" ry="20.2" fill="#b08d57" opacity="0.96" transform="rotate(301.5097000716823 437.8 1084.5)"/><circle cx="421.2122264209182" cy="1111.6091000813872" r="19.1" fill="#0f0c09"/></g><g><ellipse cx="534.3" cy="1040.4" rx="24.2" ry="14.8" fill="#e8dcc8" opacity="0.96" transform="rotate(7.9512999057426645 534.3 1040.4)"/><ellipse cx="521.5" cy="1058.2" rx="24.2" ry="14.8" fill="#e8dcc8" opacity="0.96" transform="rotate(63.539969436394266 521.5 1058.2)"/><ellipse cx="495.5" cy="1054.6" rx="24.2" ry="14.8" fill="#e8dcc8" opacity="0.96" transform="rotate(131.8573502721963 495.5 1054.6)"/><ellipse cx="487.9" cy="1033.9" rx="24.2" ry="14.8" fill="#e8dcc8" opacity="0.96" transform="rotate(188.19021652749055 487.9 1033.9)"/><ellipse cx="501.4" cy="1015.9" rx="24.2" ry="14.8" fill="#e8dcc8" opacity="0.96" transform="rotate(245.49201218170072 501.4 1015.9)"/><ellipse cx="524.5" cy="1018.0" rx="24.2" ry="14.8" fill="#e8dcc8" opacity="0.96" transform="rotate(305.044818720845 524.5 1018.0)"/><circle cx="511.0753375320293" cy="1037.2055445258316" r="14.0" fill="#0f0c09"/></g><g><ellipse cx="620.3" cy="1006.1" rx="24.0" ry="14.7" fill="#b08d57" opacity="0.96" transform="rotate(2.600267565607864 620.3 1006.1)"/><ellipse cx="605.3" cy="1026.8" rx="24.0" ry="14.7" fill="#b08d57" opacity="0.96" transform="rotate(69.29662583288132 605.3 1026.8)"/><ellipse cx="581.7" cy="1022.4" rx="24.0" ry="14.7" fill="#b08d57" opacity="0.96" transform="rotate(131.61253902292648 581.7 1022.4)"/><ellipse cx="574.1" cy="1001.5" rx="24.0" ry="14.7" fill="#b08d57" opacity="0.96" transform="rotate(188.70802271386938 574.1 1001.5)"/><ellipse cx="588.7" cy="983.4" rx="24.0" ry="14.7" fill="#b08d57" opacity="0.96" transform="rotate(248.76187259237696 588.7 983.4)"/><ellipse cx="611.5" cy="986.8" rx="24.0" ry="14.7" fill="#b08d57" opacity="0.96" transform="rotate(308.28152185171035 611.5 986.8)"/><circle cx="597.0984486431405" cy="1005.0419889702761" r="13.9" fill="#0f0c09"/></g><g><ellipse cx="576.0" cy="1068.2" rx="36.8" ry="22.5" fill="#e8dcc8" opacity="0.96" transform="rotate(11.27476458544634 576.0 1068.2)"/><ellipse cx="556.6" cy="1093.2" rx="36.8" ry="22.5" fill="#e8dcc8" opacity="0.96" transform="rotate(64.01190805236816 556.6 1093.2)"/><ellipse cx="521.2" cy="1090.7" rx="36.8" ry="22.5" fill="#e8dcc8" opacity="0.96" transform="rotate(123.90733981622405 521.2 1090.7)"/><ellipse cx="505.6" cy="1057.9" rx="36.8" ry="22.5" fill="#e8dcc8" opacity="0.96" transform="rotate(185.34642716238326 505.6 1057.9)"/><ellipse cx="529.9" cy="1027.4" rx="36.8" ry="22.5" fill="#e8dcc8" opacity="0.96" transform="rotate(251.73331748475584 529.9 1027.4)"/><ellipse cx="559.1" cy="1030.5" rx="36.8" ry="22.5" fill="#e8dcc8" opacity="0.96" transform="rotate(300.47685080557557 559.1 1030.5)"/><circle cx="541.0415597542516" cy="1061.1984334147205" r="21.4" fill="#0f0c09"/></g><path d="M 802.9169177789428 1277.6692888492728 Q 855.9032552275024 1189.3587264350067 979.5380426074751 1277.6692888492728 Q 855.9032552275024 1365.9798512635389 802.9169177789428 1277.6692888492728 Z" fill="#c9a469" opacity="0.7696039094650206" transform="rotate(138.11728395061726 802.9169177789428 1277.6692888492728)"/><path d="M 845.3965885608358 1321.887231236104 Q 887.0453128406712 1252.4726907697118 984.2256694936204 1321.887231236104 Q 887.0453128406712 1391.3017717024964 845.3965885608358 1321.887231236104 Z" fill="#b08d57" opacity="0.7594990997942387" transform="rotate(42.38425925925926 845.3965885608358 1321.887231236104)"/><path d="M 754.7246544044572 1307.6676427587379 Q 817.2649013180375 1203.4338979027707 963.1921441163913 1307.6676427587379 Q 817.2649013180375 1411.901387614705 754.7246544044572 1307.6676427587379 Z" fill="#c9a469" opacity="0.713707561728395" transform="rotate(198.78086419753086 754.7246544044572 1307.6676427587379)"/><path d="M 804.347041235733 1308.207560454211 Q 857.5249836225643 1219.5776564761588 981.6068491918372 1308.207560454211 Q 857.5249836225643 1396.8374644322632 804.347041235733 1308.207560454211 Z" fill="#b08d57" opacity="0.8438033693415637" transform="rotate(61.751543209876544 804.347041235733 1308.207560454211)"/><path d="M 730.6785638694778 1296.5795769151166 Q 765.9529671616589 1237.7889047614815 848.259908176748 1296.5795769151166 Q 765.9529671616589 1355.3702490687517 730.6785638694778 1296.5795769151166 Z" fill="#c9a469" opacity="0.82247170781893" transform="rotate(352.40740740740745 730.6785638694778 1296.5795769151166)"/><path d="M 770.7562593427288 1241.3051736229354 Q 827.4673704538399 1146.786655104417 959.7932963797658 1241.3051736229354 Q 827.4673704538399 1335.8236921414539 770.7562593427288 1241.3051736229354 Z" fill="#b08d57" opacity="0.7001755401234567" transform="rotate(98.52623456790124 770.7562593427288 1241.3051736229354)"/><path d="M 815.7327202480785 1283.8480542813716 Q 877.5644897954037 1180.7951050358297 1021.8386187391623 1283.8480542813716 Q 877.5644897954037 1386.9010035269134 815.7327202480785 1283.8480542813716 Z" fill="#c9a469" opacity="0.7218222736625514" transform="rotate(34.55246913580247 815.7327202480785 1283.8480542813716)"/><g><ellipse cx="868.9" cy="1241.3" rx="24.8" ry="15.2" fill="#b08d57" opacity="0.96" transform="rotate(8.921948571019161 868.9 1241.3)"/><ellipse cx="854.4" cy="1259.7" rx="24.8" ry="15.2" fill="#b08d57" opacity="0.96" transform="rotate(67.45793186263178 854.4 1259.7)"/><ellipse cx="828.9" cy="1255.2" rx="24.8" ry="15.2" fill="#b08d57" opacity="0.96" transform="rotate(132.71010638703436 828.9 1255.2)"/><ellipse cx="821.3" cy="1235.8" rx="24.8" ry="15.2" fill="#b08d57" opacity="0.96" transform="rotate(184.20937807435254 821.3 1235.8)"/><ellipse cx="835.9" cy="1215.4" rx="24.8" ry="15.2" fill="#b08d57" opacity="0.96" transform="rotate(247.11106987438868 835.9 1215.4)"/><ellipse cx="860.4" cy="1219.0" rx="24.8" ry="15.2" fill="#b08d57" opacity="0.96" transform="rotate(309.43435134883623 860.4 1219.0)"/><circle cx="845.201164692523" cy="1237.5534040756104" r="14.4" fill="#0f0c09"/></g><g><ellipse cx="775.8" cy="1308.9" rx="37.8" ry="23.2" fill="#e8dcc8" opacity="0.96" transform="rotate(12.589696339425098 775.8 1308.9)"/><ellipse cx="757.5" cy="1333.1" rx="37.8" ry="23.2" fill="#e8dcc8" opacity="0.96" transform="rotate(61.543225765713196 757.5 1333.1)"/><ellipse cx="719.6" cy="1331.3" rx="37.8" ry="23.2" fill="#e8dcc8" opacity="0.96" transform="rotate(123.97703150619677 719.6 1331.3)"/><ellipse cx="704.0" cy="1295.3" rx="37.8" ry="23.2" fill="#e8dcc8" opacity="0.96" transform="rotate(188.97131607651528 704.0 1295.3)"/><ellipse cx="726.5" cy="1267.0" rx="37.8" ry="23.2" fill="#e8dcc8" opacity="0.96" transform="rotate(248.25886437717296 726.5 1267.0)"/><ellipse cx="765.4" cy="1274.5" rx="37.8" ry="23.2" fill="#e8dcc8" opacity="0.96" transform="rotate(313.7320874336476 765.4 1274.5)"/><circle cx="740.0776091369675" cy="1300.963181853388" r="21.9" fill="#0f0c09"/></g><g><ellipse cx="888.8" cy="1269.2" rx="28.2" ry="17.3" fill="#b08d57" opacity="0.96" transform="rotate(1.6350837112631484 888.8 1269.2)"/><ellipse cx="869.4" cy="1294.5" rx="28.2" ry="17.3" fill="#b08d57" opacity="0.96" transform="rotate(73.23503524833552 869.4 1294.5)"/><ellipse cx="847.0" cy="1291.5" rx="28.2" ry="17.3" fill="#b08d57" opacity="0.96" transform="rotate(122.10751354619718 847.0 1291.5)"/><ellipse cx="834.6" cy="1263.7" rx="28.2" ry="17.3" fill="#b08d57" opacity="0.96" transform="rotate(189.85385234081303 834.6 1263.7)"/><ellipse cx="851.8" cy="1242.9" rx="28.2" ry="17.3" fill="#b08d57" opacity="0.96" transform="rotate(249.10824336165987 851.8 1242.9)"/><ellipse cx="877.9" cy="1246.6" rx="28.2" ry="17.3" fill="#b08d57" opacity="0.96" transform="rotate(306.98844934145876 877.9 1246.6)"/><circle cx="861.5140535814119" cy="1268.372959631166" r="16.4" fill="#0f0c09"/></g><g><ellipse cx="737.1" cy="1375.2" rx="36.0" ry="22.1" fill="#e8dcc8" opacity="0.96" transform="rotate(8.286986662642121 737.1 1375.2)"/><ellipse cx="718.4" cy="1401.3" rx="36.0" ry="22.1" fill="#e8dcc8" opacity="0.96" transform="rotate(63.142511895254664 718.4 1401.3)"/><ellipse cx="679.9" cy="1396.6" rx="36.0" ry="22.1" fill="#e8dcc8" opacity="0.96" transform="rotate(130.68253872660324 679.9 1396.6)"/><ellipse cx="668.4" cy="1363.9" rx="36.0" ry="22.1" fill="#e8dcc8" opacity="0.96" transform="rotate(190.43797308681346 668.4 1363.9)"/><ellipse cx="692.6" cy="1336.8" rx="36.0" ry="22.1" fill="#e8dcc8" opacity="0.96" transform="rotate(253.2401930474172 692.6 1336.8)"/><ellipse cx="723.6" cy="1342.4" rx="36.0" ry="22.1" fill="#e8dcc8" opacity="0.96" transform="rotate(307.10836817010784 723.6 1342.4)"/><circle cx="702.6304980258564" cy="1370.1827374089437" r="20.9" fill="#0f0c09"/></g><path d="M 1134.7760534144727 1259.686605721701 Q 1185.463263291016 1175.2079225941288 1303.7334196696168 1259.686605721701 Q 1185.463263291016 1344.165288849273 1134.7760534144727 1259.686605721701 Z" fill="#c9a469" opacity="0.7485397376543209" transform="rotate(165.71141975308643 1134.7760534144727 1259.686605721701)"/><path d="M 1099.3495513568594 1321.9509678616187 Q 1154.398901151098 1230.2020515378874 1282.8473840043216 1321.9509678616187 Q 1154.398901151098 1413.69988418535 1099.3495513568594 1321.9509678616187 Z" fill="#b08d57" opacity="0.7331494341563786" transform="rotate(359.5154320987654 1099.3495513568594 1321.9509678616187)"/><path d="M 1101.058851768382 1245.7540954336353 Q 1140.8357735790817 1179.4592257491358 1233.6485911373807 1245.7540954336353 Q 1140.8357735790817 1312.0489651181347 1101.058851768382 1245.7540954336353 Z" fill="#c9a469" opacity="0.812164994855967" transform="rotate(251.00462962962965 1101.058851768382 1245.7540954336353)"/><path d="M 1172.1409916860775 1286.337469919232 Q 1235.132399093485 1181.3517909068864 1382.112349710769 1286.337469919232 Q 1235.132399093485 1391.3231489315776 1172.1409916860775 1286.337469919232 Z" fill="#b08d57" opacity="0.7860493827160493" transform="rotate(67.9567901234568 1172.1409916860775 1286.337469919232)"/><path d="M 1121.8285637025385 1257.4847950221126 Q 1170.3850739906043 1176.5572778753362 1283.6835979960913 1257.4847950221126 Q 1170.3850739906043 1338.412312168889 1121.8285637025385 1257.4847950221126 Z" fill="#c9a469" opacity="0.7997100051440329" transform="rotate(304.81635802469134 1121.8285637025385 1257.4847950221126)"/><path d="M 1123.4430492992462 1282.4553300015364 Q 1168.9345390111805 1206.636180481646 1275.0813483390268 1282.4553300015364 Q 1168.9345390111805 1358.2744795214267 1123.4430492992462 1282.4553300015364 Z" fill="#b08d57" opacity="0.8091653806584361" transform="rotate(322.69444444444446 1123.4430492992462 1282.4553300015364)"/><path d="M 1154.6081521799047 1275.1572230056518 Q 1201.6726460070652 1196.7163999603843 1311.4897982704397 1275.1572230056518 Q 1201.6726460070652 1353.5980460509193 1154.6081521799047 1275.1572230056518 Z" fill="#c9a469" opacity="0.7482118055555556" transform="rotate(69.36882716049382 1154.6081521799047 1275.1572230056518)"/><g><ellipse cx="1130.5" cy="1297.1" rx="21.9" ry="13.4" fill="#b08d57" opacity="0.96" transform="rotate(9.080428088040838 1130.5 1297.1)"/><ellipse cx="1118.2" cy="1313.1" rx="21.9" ry="13.4" fill="#b08d57" opacity="0.96" transform="rotate(66.10959721936214 1118.2 1313.1)"/><ellipse cx="1097.3" cy="1311.0" rx="21.9" ry="13.4" fill="#b08d57" opacity="0.96" transform="rotate(125.30135782278859 1097.3 1311.0)"/><ellipse cx="1088.6" cy="1290.8" rx="21.9" ry="13.4" fill="#b08d57" opacity="0.96" transform="rotate(187.93779138433828 1088.6 1290.8)"/><ellipse cx="1101.2" cy="1274.3" rx="21.9" ry="13.4" fill="#b08d57" opacity="0.96" transform="rotate(246.81271575846137 1101.2 1274.3)"/><ellipse cx="1124.1" cy="1278.3" rx="21.9" ry="13.4" fill="#b08d57" opacity="0.96" transform="rotate(313.2880254936628 1124.1 1278.3)"/><circle cx="1109.584020492662" cy="1293.7319719768452" r="12.7" fill="#0f0c09"/></g><g><ellipse cx="1165.0" cy="1213.7" rx="23.5" ry="14.4" fill="#e8dcc8" opacity="0.96" transform="rotate(0.7783978447438107 1165.0 1213.7)"/><ellipse cx="1150.3" cy="1234.6" rx="23.5" ry="14.4" fill="#e8dcc8" opacity="0.96" transform="rotate(69.31314307041671 1150.3 1234.6)"/><ellipse cx="1128.4" cy="1231.3" rx="23.5" ry="14.4" fill="#e8dcc8" opacity="0.96" transform="rotate(127.67597167857288 1128.4 1231.3)"/><ellipse cx="1119.7" cy="1210.7" rx="23.5" ry="14.4" fill="#e8dcc8" opacity="0.96" transform="rotate(186.69826174074407 1119.7 1210.7)"/><ellipse cx="1134.0" cy="1192.2" rx="23.5" ry="14.4" fill="#e8dcc8" opacity="0.96" transform="rotate(248.72312769689432 1134.0 1192.2)"/><ellipse cx="1155.6" cy="1195.0" rx="23.5" ry="14.4" fill="#e8dcc8" opacity="0.96" transform="rotate(306.01387092450096 1155.6 1195.0)"/><circle cx="1142.2737982704398" cy="1213.3550830879562" r="13.6" fill="#0f0c09"/></g><g><ellipse cx="1102.5" cy="1271.6" rx="24.7" ry="15.1" fill="#b08d57" opacity="0.96" transform="rotate(10.082883180987707 1102.5 1271.6)"/><ellipse cx="1089.0" cy="1289.0" rx="24.7" ry="15.1" fill="#b08d57" opacity="0.96" transform="rotate(65.0563009640387 1089.0 1289.0)"/><ellipse cx="1064.9" cy="1286.7" rx="24.7" ry="15.1" fill="#b08d57" opacity="0.96" transform="rotate(126.17118379649222 1064.9 1286.7)"/><ellipse cx="1055.2" cy="1265.2" rx="24.7" ry="15.1" fill="#b08d57" opacity="0.96" transform="rotate(185.16031657885262 1055.2 1265.2)"/><ellipse cx="1072.3" cy="1244.4" rx="24.7" ry="15.1" fill="#b08d57" opacity="0.96" transform="rotate(253.91611033659757 1072.3 1244.4)"/><ellipse cx="1092.9" cy="1248.0" rx="24.7" ry="15.1" fill="#b08d57" opacity="0.96" transform="rotate(305.60327327617705 1092.9 1248.0)"/><circle cx="1078.9635760482174" cy="1267.3781941990674" r="14.3" fill="#0f0c09"/></g><g><ellipse cx="1178.4" cy="1323.6" rx="30.0" ry="18.4" fill="#e8dcc8" opacity="0.96" transform="rotate(11.926980559799008 1178.4 1323.6)"/><ellipse cx="1159.4" cy="1345.0" rx="30.0" ry="18.4" fill="#e8dcc8" opacity="0.96" transform="rotate(71.24400199806631 1159.4 1345.0)"/><ellipse cx="1133.7" cy="1341.5" rx="30.0" ry="18.4" fill="#e8dcc8" opacity="0.96" transform="rotate(124.36798039611423 1133.7 1341.5)"/><ellipse cx="1121.3" cy="1314.1" rx="30.0" ry="18.4" fill="#e8dcc8" opacity="0.96" transform="rotate(186.90494211823147 1121.3 1314.1)"/><ellipse cx="1140.9" cy="1290.0" rx="30.0" ry="18.4" fill="#e8dcc8" opacity="0.96" transform="rotate(251.64870501886824 1140.9 1290.0)"/><ellipse cx="1165.1" cy="1292.8" rx="30.0" ry="18.4" fill="#e8dcc8" opacity="0.96" transform="rotate(301.31327388998824 1165.1 1292.8)"/><circle cx="1150.0533538259954" cy="1317.5613053101783" r="17.4" fill="#0f0c09"/></g><path d="M 1433.877814731345 1051.5391741554615 Q 1477.5172550605632 978.8067736067646 1579.3426158287389 1051.5391741554615 Q 1477.5172550605632 1124.2715747041584 1433.877814731345 1051.5391741554615 Z" fill="#c9a469" opacity="0.7612332818930041" transform="rotate(52.101851851851855 1433.877814731345 1051.5391741554615)"/><path d="M 1443.804399093485 1095.820326418836 Q 1489.3961027971886 1019.8341535793298 1595.7767447724973 1095.820326418836 Q 1489.3961027971886 1171.8064992583422 1443.804399093485 1095.820326418836 Z" fill="#b08d57" opacity="0.7187982253086419" transform="rotate(29.88734567901235 1443.804399093485 1095.820326418836)"/><path d="M 1451.8030822210571 1149.1720959661611 Q 1501.8043332498637 1065.8366775848167 1618.4739189837458 1149.1720959661611 Q 1501.8043332498637 1232.5075143475055 1451.8030822210571 1149.1720959661611 Z" fill="#c9a469" opacity="0.7619727366255143" transform="rotate(297.58024691358025 1451.8030822210571 1149.1720959661611)"/><path d="M 1426.3953455955427 1130.0537420566961 Q 1481.0826871593288 1038.9081727837195 1608.686484141496 1130.0537420566961 Q 1481.0826871593288 1221.1993113296728 1426.3953455955427 1130.0537420566961 Z" fill="#b08d57" opacity="0.7467753343621398" transform="rotate(336.2916666666667 1426.3953455955427 1130.0537420566961)"/><path d="M 1386.1648929206456 1116.213412838589 Q 1449.3230163774358 1010.9498737439387 1596.691971109946 1116.213412838589 Q 1449.3230163774358 1221.4769519332392 1386.1648929206456 1116.213412838589 Z" fill="#c9a469" opacity="0.8070023148148148" transform="rotate(213.79938271604937 1386.1648929206456 1116.213412838589)"/><path d="M 1413.410983455625 1030.6614786822104 Q 1460.4749505338143 952.2215335518948 1570.290873716256 1030.6614786822104 Q 1460.4749505338143 1109.1014238125258 1413.410983455625 1030.6614786822104 Z" fill="#b08d57" opacity="0.7208944187242798" transform="rotate(24.54783950617284 1413.410983455625 1030.6614786822104)"/><path d="M 1381.081765348629 1146.8438655134862 Q 1433.0925637025384 1060.1592015903038 1554.451093194994 1146.8438655134862 Q 1433.0925637025384 1233.5285294366686 1381.081765348629 1146.8438655134862 Z" fill="#c9a469" opacity="0.7278034979423867" transform="rotate(289.64814814814815 1381.081765348629 1146.8438655134862)"/><g><ellipse cx="1426.2" cy="1041.4" rx="27.7" ry="17.0" fill="#b08d57" opacity="0.96" transform="rotate(9.05838463720365 1426.2 1041.4)"/><ellipse cx="1412.5" cy="1060.8" rx="27.7" ry="17.0" fill="#b08d57" opacity="0.96" transform="rotate(61.6186892784678 1412.5 1060.8)"/><ellipse cx="1384.8" cy="1059.4" rx="27.7" ry="17.0" fill="#b08d57" opacity="0.96" transform="rotate(123.98986460153095 1384.8 1059.4)"/><ellipse cx="1373.8" cy="1030.9" rx="27.7" ry="17.0" fill="#b08d57" opacity="0.96" transform="rotate(193.7403767536003 1373.8 1030.9)"/><ellipse cx="1388.1" cy="1013.2" rx="27.7" ry="17.0" fill="#b08d57" opacity="0.96" transform="rotate(244.03493394112564 1388.1 1013.2)"/><ellipse cx="1414.5" cy="1014.8" rx="27.7" ry="17.0" fill="#b08d57" opacity="0.96" transform="rotate(303.2119579757474 1414.5 1014.8)"/><circle cx="1399.7892550605632" cy="1037.2292482295356" r="16.1" fill="#0f0c09"/></g><g><ellipse cx="1503.7" cy="1028.3" rx="32.2" ry="19.7" fill="#e8dcc8" opacity="0.96" transform="rotate(9.874606341879794 1503.7 1028.3)"/><ellipse cx="1487.8" cy="1050.4" rx="32.2" ry="19.7" fill="#e8dcc8" opacity="0.96" transform="rotate(61.60597898787365 1487.8 1050.4)"/><ellipse cx="1457.3" cy="1049.9" rx="32.2" ry="19.7" fill="#e8dcc8" opacity="0.96" transform="rotate(120.36301081155837 1457.3 1049.9)"/><ellipse cx="1442.7" cy="1015.8" rx="32.2" ry="19.7" fill="#e8dcc8" opacity="0.96" transform="rotate(193.26346454565478 1442.7 1015.8)"/><ellipse cx="1461.7" cy="994.0" rx="32.2" ry="19.7" fill="#e8dcc8" opacity="0.96" transform="rotate(248.69740010385593 1461.7 994.0)"/><ellipse cx="1493.1" cy="999.2" rx="32.2" ry="19.7" fill="#e8dcc8" opacity="0.96" transform="rotate(310.22859100504525 1493.1 999.2)"/><circle cx="1473.0123661716743" cy="1022.98569267398" r="18.7" fill="#0f0c09"/></g><g><ellipse cx="1518.5" cy="1006.2" rx="23.0" ry="14.1" fill="#b08d57" opacity="0.96" transform="rotate(3.230440089123343 1518.5 1006.2)"/><ellipse cx="1503.2" cy="1026.1" rx="23.0" ry="14.1" fill="#b08d57" opacity="0.96" transform="rotate(72.03781183768515 1503.2 1026.1)"/><ellipse cx="1481.8" cy="1021.8" rx="23.0" ry="14.1" fill="#b08d57" opacity="0.96" transform="rotate(130.76168638155903 1481.8 1021.8)"/><ellipse cx="1474.1" cy="1004.2" rx="23.0" ry="14.1" fill="#b08d57" opacity="0.96" transform="rotate(181.74517816070903 1474.1 1004.2)"/><ellipse cx="1487.2" cy="984.6" rx="23.0" ry="14.1" fill="#b08d57" opacity="0.96" transform="rotate(245.89947830915364 1487.2 984.6)"/><ellipse cx="1511.6" cy="988.7" rx="23.0" ry="14.1" fill="#b08d57" opacity="0.96" transform="rotate(313.3658222964782 1511.6 988.7)"/><circle cx="1496.3154772827854" cy="1004.9021371184244" r="13.4" fill="#0f0c09"/></g><path d="M 1515.6748641975307 767.4790452674897 Q 1552.925893004115 705.3939972565157 1639.8449602194787 767.4790452674897 Q 1552.925893004115 829.5640932784637 1515.6748641975307 767.4790452674897 Z" fill="#c9a469" opacity="0.8059657921810699" transform="rotate(63.16358024691358 1515.6748641975307 767.4790452674897)"/><path d="M 1471.493794238683 750.0673580246914 Q 1534.3375802469134 645.3277146776406 1680.9730809327846 750.0673580246914 Q 1534.3375802469134 854.8070013717422 1471.493794238683 750.0673580246914 Z" fill="#b08d57" opacity="0.8178517232510287" transform="rotate(286.875 1471.493794238683 750.0673580246914)"/><path d="M 1514.8900082304526 717.4536954732511 Q 1571.2712427983538 623.4849711934156 1702.8274567901235 717.4536954732511 Q 1571.2712427983538 811.4224197530865 1514.8900082304526 717.4536954732511 Z" fill="#c9a469" opacity="0.730162037037037" transform="rotate(289.3827160493827 1514.8900082304526 717.4536954732511)"/><path d="M 1482.4027654320987 715.5284279835391 Q 1533.3565102880657 630.6055198902607 1652.2485816186556 715.5284279835391 Q 1533.3565102880657 800.4513360768176 1482.4027654320987 715.5284279835391 Z" fill="#b08d57" opacity="0.7711374742798354" transform="rotate(165.13117283950618 1482.4027654320987 715.5284279835391)"/><path d="M 1492.7402139917695 771.9774814814815 Q 1554.1874567901234 669.5654101508917 1697.5643566529493 771.9774814814815 Q 1554.1874567901234 874.3895528120713 1492.7402139917695 771.9774814814815 Z" fill="#c9a469" opacity="0.7301298868312757" transform="rotate(75.23148148148148 1492.7402139917695 771.9774814814815)"/><g><ellipse cx="1591.4" cy="752.3" rx="27.0" ry="16.5" fill="#b08d57" opacity="0.96" transform="rotate(2.317509651665666 1591.4 752.3)"/><ellipse cx="1578.1" cy="774.0" rx="27.0" ry="16.5" fill="#b08d57" opacity="0.96" transform="rotate(60.647180980011015 1578.1 774.0)"/><ellipse cx="1549.8" cy="772.2" rx="27.0" ry="16.5" fill="#b08d57" opacity="0.96" transform="rotate(126.40039884377696 1549.8 772.2)"/><ellipse cx="1539.2" cy="749.9" rx="27.0" ry="16.5" fill="#b08d57" opacity="0.96" transform="rotate(182.8216845119001 1539.2 749.9)"/><ellipse cx="1554.7" cy="727.4" rx="27.0" ry="16.5" fill="#b08d57" opacity="0.96" transform="rotate(246.0475808256419 1554.7 727.4)"/><ellipse cx="1578.9" cy="728.9" rx="27.0" ry="16.5" fill="#b08d57" opacity="0.96" transform="rotate(301.4446749618311 1578.9 728.9)"/><circle cx="1565.3072592592591" cy="751.2090864197531" r="15.7" fill="#0f0c09"/></g><g><ellipse cx="1509.1" cy="859.0" rx="33.7" ry="20.7" fill="#e8dcc8" opacity="0.96" transform="rotate(12.086196905260921 1509.1 859.0)"/><ellipse cx="1492.3" cy="881.1" rx="33.7" ry="20.7" fill="#e8dcc8" opacity="0.96" transform="rotate(62.4249637992007 1492.3 881.1)"/><ellipse cx="1455.5" cy="876.5" rx="33.7" ry="20.7" fill="#e8dcc8" opacity="0.96" transform="rotate(131.72601060272345 1455.5 876.5)"/><ellipse cx="1444.7" cy="849.8" rx="33.7" ry="20.7" fill="#e8dcc8" opacity="0.96" transform="rotate(184.13526541373838 1444.7 849.8)"/><ellipse cx="1463.6" cy="822.5" rx="33.7" ry="20.7" fill="#e8dcc8" opacity="0.96" transform="rotate(245.33856765902073 1463.6 822.5)"/><ellipse cx="1498.3" cy="827.3" rx="33.7" ry="20.7" fill="#e8dcc8" opacity="0.96" transform="rotate(310.2518011009128 1498.3 827.3)"/><circle cx="1477.2503703703703" cy="852.1655308641975" r="19.6" fill="#0f0c09"/></g><g><ellipse cx="1465.6" cy="677.1" rx="35.6" ry="21.8" fill="#b08d57" opacity="0.96" transform="rotate(7.232523762288294 1465.6 677.1)"/><ellipse cx="1444.6" cy="704.6" rx="35.6" ry="21.8" fill="#b08d57" opacity="0.96" transform="rotate(67.48531731966071 1444.6 704.6)"/><ellipse cx="1409.5" cy="699.4" rx="35.6" ry="21.8" fill="#b08d57" opacity="0.96" transform="rotate(129.59123440423738 1409.5 699.4)"/><ellipse cx="1397.0" cy="671.9" rx="35.6" ry="21.8" fill="#b08d57" opacity="0.96" transform="rotate(181.56944457771175 1397.0 671.9)"/><ellipse cx="1416.5" cy="641.7" rx="35.6" ry="21.8" fill="#b08d57" opacity="0.96" transform="rotate(244.33113897410223 1416.5 641.7)"/><ellipse cx="1452.7" cy="645.7" rx="35.6" ry="21.8" fill="#b08d57" opacity="0.96" transform="rotate(308.0175530629943 1452.7 645.7)"/><circle cx="1431.4334814814815" cy="672.801975308642" r="20.7" fill="#0f0c09"/></g><g><ellipse cx="1509.7" cy="815.7" rx="37.2" ry="22.8" fill="#e8dcc8" opacity="0.96" transform="rotate(5.661421320586008 1509.7 815.7)"/><ellipse cx="1489.1" cy="844.8" rx="37.2" ry="22.8" fill="#e8dcc8" opacity="0.96" transform="rotate(65.08528288268813 1489.1 844.8)"/><ellipse cx="1454.0" cy="842.1" rx="37.2" ry="22.8" fill="#e8dcc8" opacity="0.96" transform="rotate(123.57705646788635 1454.0 842.1)"/><ellipse cx="1438.9" cy="804.1" rx="37.2" ry="22.8" fill="#e8dcc8" opacity="0.96" transform="rotate(193.0291531016584 1438.9 804.1)"/><ellipse cx="1459.7" cy="779.2" rx="37.2" ry="22.8" fill="#e8dcc8" opacity="0.96" transform="rotate(246.60628099045408 1459.7 779.2)"/><ellipse cx="1498.3" cy="785.7" rx="37.2" ry="22.8" fill="#e8dcc8" opacity="0.96" transform="rotate(312.64686194591377 1498.3 785.7)"/><circle cx="1473.9365925925924" cy="812.1584197530865" r="21.6" fill="#0f0c09"/></g><path d="M 1004.7279012345679 1222.3942057613172 Q 1062.3345843621398 1126.3830672153638 1196.7501783264747 1222.3942057613172 Q 1062.3345843621398 1318.4053443072705 1004.7279012345679 1222.3942057613172 Z" fill="#c9a469" opacity="0.8213535236625513" transform="rotate(183.42746913580248 1004.7279012345679 1222.3942057613172)"/><path d="M 1033.5433744855968 1095.5909135802472 Q 1084.19787654321 1011.1667434842252 1202.3917146776407 1095.5909135802472 Q 1084.19787654321 1180.0150836762691 1033.5433744855968 1095.5909135802472 Z" fill="#b08d57" opacity="0.7710866769547324" transform="rotate(337.97222222222223 1033.5433744855968 1095.5909135802472)"/><path d="M 952.804279835391 1168.471572016461 Q 1035.737218106996 1030.2500082304527 1229.2474074074075 1168.471572016461 Q 1035.737218106996 1306.6931358024694 952.804279835391 1168.471572016461 Z" fill="#c9a469" opacity="0.7670775462962962" transform="rotate(21.313271604938272 952.804279835391 1168.471572016461)"/><path d="M 931.992098765432 1222.5354403292183 Q 1019.2933497942387 1077.0333552812074 1222.9962688614542 1222.5354403292183 Q 1019.2933497942387 1368.0375253772293 931.992098765432 1222.5354403292183 Z" fill="#b08d57" opacity="0.7875668724279835" transform="rotate(167.89506172839506 931.992098765432 1222.5354403292183)"/><path d="M 1021.6905349794239 1183.2106666666668 Q 1077.7581234567901 1089.7646858710564 1208.5824965706447 1183.2106666666668 Q 1077.7581234567901 1276.6566474622773 1021.6905349794239 1183.2106666666668 Z" fill="#c9a469" opacity="0.821906507201646" transform="rotate(338.8287037037037 1021.6905349794239 1183.2106666666668)"/><g><ellipse cx="1111.1" cy="1049.9" rx="30.1" ry="18.4" fill="#b08d57" opacity="0.96" transform="rotate(3.5548288099391163 1111.1 1049.9)"/><ellipse cx="1093.5" cy="1074.9" rx="30.1" ry="18.4" fill="#b08d57" opacity="0.96" transform="rotate(66.8249348300954 1093.5 1074.9)"/><ellipse cx="1062.4" cy="1069.6" rx="30.1" ry="18.4" fill="#b08d57" opacity="0.96" transform="rotate(132.34605173518565 1062.4 1069.6)"/><ellipse cx="1053.7" cy="1041.6" rx="30.1" ry="18.4" fill="#b08d57" opacity="0.96" transform="rotate(192.9119973796602 1053.7 1041.6)"/><ellipse cx="1070.0" cy="1021.6" rx="30.1" ry="18.4" fill="#b08d57" opacity="0.96" transform="rotate(245.56072143375317 1070.0 1021.6)"/><ellipse cx="1102.2" cy="1027.2" rx="30.1" ry="18.4" fill="#b08d57" opacity="0.96" transform="rotate(313.85599741634803 1102.2 1027.2)"/><circle cx="1082.029925925926" cy="1048.1382716049384" r="17.5" fill="#0f0c09"/></g><g><ellipse cx="970.4" cy="1087.0" rx="48.0" ry="29.4" fill="#e8dcc8" opacity="0.96" transform="rotate(0.49164877675031093 970.4 1087.0)"/><ellipse cx="942.5" cy="1129.2" rx="48.0" ry="29.4" fill="#e8dcc8" opacity="0.96" transform="rotate(66.51380902120394 942.5 1129.2)"/><ellipse cx="892.9" cy="1121.1" rx="48.0" ry="29.4" fill="#e8dcc8" opacity="0.96" transform="rotate(132.00176864648338 892.9 1121.1)"/><ellipse cx="877.7" cy="1082.6" rx="48.0" ry="29.4" fill="#e8dcc8" opacity="0.96" transform="rotate(184.9746972142821 877.7 1082.6)"/><ellipse cx="905.4" cy="1044.1" rx="48.0" ry="29.4" fill="#e8dcc8" opacity="0.96" transform="rotate(246.3437858586185 905.4 1044.1)"/><ellipse cx="951.5" cy="1049.2" rx="48.0" ry="29.4" fill="#e8dcc8" opacity="0.96" transform="rotate(306.25027004907804 951.5 1049.2)"/><circle cx="923.9917037037037" cy="1086.6333827160497" r="27.9" fill="#0f0c09"/></g><g><ellipse cx="1041.7" cy="1187.0" rx="28.7" ry="17.6" fill="#b08d57" opacity="0.96" transform="rotate(7.873011883967138 1041.7 1187.0)"/><ellipse cx="1025.5" cy="1208.6" rx="28.7" ry="17.6" fill="#b08d57" opacity="0.96" transform="rotate(65.90426769401519 1025.5 1208.6)"/><ellipse cx="1000.0" cy="1207.1" rx="28.7" ry="17.6" fill="#b08d57" opacity="0.96" transform="rotate(120.6161113807809 1000.0 1207.1)"/><ellipse cx="986.4" cy="1181.3" rx="28.7" ry="17.6" fill="#b08d57" opacity="0.96" transform="rotate(183.900953969742 986.4 1181.3)"/><ellipse cx="1001.6" cy="1158.4" rx="28.7" ry="17.6" fill="#b08d57" opacity="0.96" transform="rotate(243.2474485456189 1001.6 1158.4)"/><ellipse cx="1033.0" cy="1162.8" rx="28.7" ry="17.6" fill="#b08d57" opacity="0.96" transform="rotate(312.67007204178134 1033.0 1162.8)"/><circle cx="1014.1134814814815" cy="1183.2084938271607" r="16.7" fill="#0f0c09"/></g><path d="M 402.8618271604939 1164.1415637860084 Q 466.56737448559676 1057.9656515775036 615.2136515775035 1164.1415637860084 Q 466.56737448559676 1270.3174759945132 402.8618271604939 1164.1415637860084 Z" fill="#c9a469" opacity="0.809096579218107" transform="rotate(174.0108024691358 402.8618271604939 1164.1415637860084)"/><path d="M 466.48520164609056 1135.067654320988 Q 530.6812839506173 1028.0741838134434 680.4721426611798 1135.067654320988 Q 530.6812839506173 1242.0611248285325 466.48520164609056 1135.067654320988 Z" fill="#b08d57" opacity="0.7109130658436214" transform="rotate(333.5555555555556 466.48520164609056 1135.067654320988)"/><path d="M 429.95252674897125 1107.858436213992 Q 487.3305020576132 1012.2284773662554 621.2124444444446 1107.858436213992 Q 487.3305020576132 1203.4883950617286 429.95252674897125 1107.858436213992 Z" fill="#c9a469" opacity="0.7839872685185185" transform="rotate(321.8966049382716 429.95252674897125 1107.858436213992)"/><path d="M 416.52306172839513 1169.3642798353912 Q 472.38465843621407 1076.261618655693 602.7283840877916 1169.3642798353912 Q 472.38465843621407 1262.4669410150896 416.52306172839513 1169.3642798353912 Z" fill="#b08d57" opacity="0.7065599279835391" transform="rotate(353.4783950617284 416.52306172839513 1169.3642798353912)"/><path d="M 462.98495473251035 1142.4711111111114 Q 517.0378271604939 1052.3829903978055 643.1611961591221 1142.4711111111114 Q 517.0378271604939 1232.5592318244173 462.98495473251035 1142.4711111111114 Z" fill="#c9a469" opacity="0.7679828960905349" transform="rotate(349.412037037037 462.98495473251035 1142.4711111111114)"/><g><ellipse cx="568.1" cy="1147.7" rx="32.3" ry="19.8" fill="#b08d57" opacity="0.96" transform="rotate(12.928391812455535 568.1 1147.7)"/><ellipse cx="553.1" cy="1167.9" rx="32.3" ry="19.8" fill="#b08d57" opacity="0.96" transform="rotate(60.48194720228714 553.1 1167.9)"/><ellipse cx="521.0" cy="1167.2" rx="32.3" ry="19.8" fill="#b08d57" opacity="0.96" transform="rotate(122.2231342089449 521.0 1167.2)"/><ellipse cx="507.0" cy="1134.8" rx="32.3" ry="19.8" fill="#b08d57" opacity="0.96" transform="rotate(190.9457706868791 507.0 1134.8)"/><ellipse cx="526.7" cy="1111.5" rx="32.3" ry="19.8" fill="#b08d57" opacity="0.96" transform="rotate(249.36386142805324 526.7 1111.5)"/><ellipse cx="556.4" cy="1115.7" rx="32.3" ry="19.8" fill="#b08d57" opacity="0.96" transform="rotate(306.7172350730803 556.4 1115.7)"/><circle cx="537.6877037037037" cy="1140.7628641975311" r="18.7" fill="#0f0c09"/></g><g><ellipse cx="557.7" cy="1195.9" rx="20.9" ry="12.8" fill="#e8dcc8" opacity="0.96" transform="rotate(11.655704889050554 557.7 1195.9)"/><ellipse cx="545.1" cy="1210.7" rx="20.9" ry="12.8" fill="#e8dcc8" opacity="0.96" transform="rotate(69.1232869423148 545.1 1210.7)"/><ellipse cx="526.8" cy="1208.6" rx="20.9" ry="12.8" fill="#e8dcc8" opacity="0.96" transform="rotate(123.66934423002644 526.8 1208.6)"/><ellipse cx="518.2" cy="1187.6" rx="20.9" ry="12.8" fill="#e8dcc8" opacity="0.96" transform="rotate(191.9609360704201 518.2 1187.6)"/><ellipse cx="531.7" cy="1172.6" rx="20.9" ry="12.8" fill="#e8dcc8" opacity="0.96" transform="rotate(251.93741896270237 531.7 1172.6)"/><ellipse cx="550.4" cy="1175.9" rx="20.9" ry="12.8" fill="#e8dcc8" opacity="0.96" transform="rotate(308.06397325472943 550.4 1175.9)"/><circle cx="537.9508148148149" cy="1191.7993086419756" r="12.1" fill="#0f0c09"/></g><g><ellipse cx="467.5" cy="1199.1" rx="26.8" ry="16.5" fill="#b08d57" opacity="0.96" transform="rotate(13.665588666915912 467.5 1199.1)"/><ellipse cx="451.0" cy="1217.4" rx="26.8" ry="16.5" fill="#b08d57" opacity="0.96" transform="rotate(70.30423872490988 451.0 1217.4)"/><ellipse cx="428.7" cy="1215.1" rx="26.8" ry="16.5" fill="#b08d57" opacity="0.96" transform="rotate(121.23615251324307 428.7 1215.1)"/><ellipse cx="416.9" cy="1187.2" rx="26.8" ry="16.5" fill="#b08d57" opacity="0.96" transform="rotate(192.6776859356638 416.9 1187.2)"/><ellipse cx="430.6" cy="1169.7" rx="26.8" ry="16.5" fill="#b08d57" opacity="0.96" transform="rotate(243.4696023203513 430.6 1169.7)"/><ellipse cx="456.0" cy="1170.9" rx="26.8" ry="16.5" fill="#b08d57" opacity="0.96" transform="rotate(301.95032347894596 456.0 1170.9)"/><circle cx="442.213925925926" cy="1192.91575308642" r="15.6" fill="#0f0c09"/></g><g><ellipse cx="516.2" cy="1195.3" rx="36.9" ry="22.6" fill="#e8dcc8" opacity="0.96" transform="rotate(8.215084487348678 516.2 1195.3)"/><ellipse cx="494.5" cy="1223.2" rx="36.9" ry="22.6" fill="#e8dcc8" opacity="0.96" transform="rotate(67.60578876964001 494.5 1223.2)"/><ellipse cx="456.6" cy="1216.4" rx="36.9" ry="22.6" fill="#e8dcc8" opacity="0.96" transform="rotate(132.82849015643296 456.6 1216.4)"/><ellipse cx="445.2" cy="1188.7" rx="36.9" ry="22.6" fill="#e8dcc8" opacity="0.96" transform="rotate(182.35306162390725 445.2 1188.7)"/><ellipse cx="464.0" cy="1158.7" rx="36.9" ry="22.6" fill="#e8dcc8" opacity="0.96" transform="rotate(241.86534259883823 464.0 1158.7)"/><ellipse cx="502.0" cy="1161.4" rx="36.9" ry="22.6" fill="#e8dcc8" opacity="0.96" transform="rotate(306.28121684356813 502.0 1161.4)"/><circle cx="480.8770370370371" cy="1190.1921975308644" r="21.4" fill="#0f0c09"/></g><path d="M 1512.9963456790122 1130.0983045267492 Q 1576.8666337448558 1023.6478244170098 1725.897305898491 1130.0983045267492 Q 1576.8666337448558 1236.5487846364886 1512.9963456790122 1130.0983045267492 Z" fill="#c9a469" opacity="0.8401093106995884" transform="rotate(331.7746913580247 1512.9963456790122 1130.0983045267492)"/><path d="M 1488.1574979423867 1118.3755061728398 Q 1544.9094320987654 1023.7889492455421 1677.330611796982 1118.3755061728398 Q 1544.9094320987654 1212.9620631001374 1488.1574979423867 1118.3755061728398 Z" fill="#b08d57" opacity="0.7922730195473251" transform="rotate(332.15277777777777 1488.1574979423867 1118.3755061728398)"/><path d="M 1441.6692674897117 1146.0640658436216 Q 1483.1408724279834 1076.9447242798356 1579.9079506172839 1146.0640658436216 Q 1483.1408724279834 1215.1834074074077 1441.6692674897117 1146.0640658436216 Z" fill="#c9a469" opacity="0.7615277777777777" transform="rotate(271.3271604938272 1441.6692674897117 1146.0640658436216)"/><path d="M 1414.870913580247 1095.2143539094652 Q 1455.75058436214 1027.0815692729768 1551.1364828532237 1095.2143539094652 Q 1455.75058436214 1163.3471385459536 1414.870913580247 1095.2143539094652 Z" fill="#b08d57" opacity="0.7761143261316872" transform="rotate(123.74228395061729 1414.870913580247 1095.2143539094652)"/><path d="M 1485.5105843621398 1198.3122962962966 Q 1545.1326419753084 1098.9422002743488 1684.2507764060356 1198.3122962962966 Q 1545.1326419753084 1297.6823923182444 1485.5105843621398 1198.3122962962966 Z" fill="#c9a469" opacity="0.7253845164609053" transform="rotate(290.50925925925924 1485.5105843621398 1198.3122962962966)"/><path d="M 1453.7186502057612 1150.8127078189302 Q 1510.5522304526746 1056.0900740740742 1643.1639176954732 1150.8127078189302 Q 1510.5522304526746 1245.5353415637862 1453.7186502057612 1150.8127078189302 Z" fill="#b08d57" opacity="0.8264679783950617" transform="rotate(79.40586419753086 1453.7186502057612 1150.8127078189302)"/><path d="M 1470.0610370370368 1148.7926255144034 Q 1532.2523127572015 1045.140499314129 1677.3652894375855 1148.7926255144034 Q 1532.2523127572015 1252.4447517146777 1470.0610370370368 1148.7926255144034 Z" fill="#c9a469" opacity="0.8409387860082305" transform="rotate(24.876543209876544 1470.0610370370368 1148.7926255144034)"/><g><ellipse cx="1412.1" cy="1237.5" rx="31.1" ry="19.1" fill="#b08d57" opacity="0.96" transform="rotate(3.961251097101637 1412.1 1237.5)"/><ellipse cx="1394.5" cy="1262.8" rx="31.1" ry="19.1" fill="#b08d57" opacity="0.96" transform="rotate(65.43717986527288 1394.5 1262.8)"/><ellipse cx="1362.4" cy="1258.2" rx="31.1" ry="19.1" fill="#b08d57" opacity="0.96" transform="rotate(130.71145924288265 1362.4 1258.2)"/><ellipse cx="1352.1" cy="1231.6" rx="31.1" ry="19.1" fill="#b08d57" opacity="0.96" transform="rotate(187.27274231465142 1352.1 1231.6)"/><ellipse cx="1371.3" cy="1207.2" rx="31.1" ry="19.1" fill="#b08d57" opacity="0.96" transform="rotate(249.13550601394877 1371.3 1207.2)"/><ellipse cx="1398.3" cy="1210.0" rx="31.1" ry="19.1" fill="#b08d57" opacity="0.96" transform="rotate(302.7273704715493 1398.3 1210.0)"/><circle cx="1382.0144197530863" cy="1235.388839506173" r="18.1" fill="#0f0c09"/></g><g><ellipse cx="1427.7" cy="1090.9" rx="26.6" ry="16.3" fill="#e8dcc8" opacity="0.96" transform="rotate(10.215266690750873 1427.7 1090.9)"/><ellipse cx="1413.4" cy="1109.5" rx="26.6" ry="16.3" fill="#e8dcc8" opacity="0.96" transform="rotate(64.49606573997602 1413.4 1109.5)"/><ellipse cx="1386.0" cy="1106.2" rx="26.6" ry="16.3" fill="#e8dcc8" opacity="0.96" transform="rotate(129.33930048004524 1386.0 1106.2)"/><ellipse cx="1376.8" cy="1083.0" rx="26.6" ry="16.3" fill="#e8dcc8" opacity="0.96" transform="rotate(187.45897570292215 1376.8 1083.0)"/><ellipse cx="1392.7" cy="1062.4" rx="26.6" ry="16.3" fill="#e8dcc8" opacity="0.96" transform="rotate(248.0949200492195 1392.7 1062.4)"/><ellipse cx="1417.9" cy="1065.8" rx="26.6" ry="16.3" fill="#e8dcc8" opacity="0.96" transform="rotate(307.22405023522555 1417.9 1065.8)"/><circle cx="1402.3308641975307" cy="1086.3186172839507" r="15.4" fill="#0f0c09"/></g><g><ellipse cx="1397.7" cy="1121.7" rx="26.1" ry="16.0" fill="#b08d57" opacity="0.96" transform="rotate(9.008894326967512 1397.7 1121.7)"/><ellipse cx="1379.7" cy="1142.0" rx="26.1" ry="16.0" fill="#b08d57" opacity="0.96" transform="rotate(73.99949475508478 1379.7 1142.0)"/><ellipse cx="1357.3" cy="1137.7" rx="26.1" ry="16.0" fill="#b08d57" opacity="0.96" transform="rotate(127.6687261989105 1357.3 1137.7)"/><ellipse cx="1347.9" cy="1112.9" rx="26.1" ry="16.0" fill="#b08d57" opacity="0.96" transform="rotate(190.92777979246318 1347.9 1112.9)"/><ellipse cx="1365.7" cy="1093.4" rx="26.1" ry="16.0" fill="#b08d57" opacity="0.96" transform="rotate(253.9178910053282 1365.7 1093.4)"/><ellipse cx="1388.2" cy="1097.8" rx="26.1" ry="16.0" fill="#b08d57" opacity="0.96" transform="rotate(307.84132826103684 1388.2 1097.8)"/><circle cx="1372.7273086419752" cy="1117.7283950617286" r="15.2" fill="#0f0c09"/></g><g><ellipse cx="1556.6" cy="1193.6" rx="34.2" ry="20.9" fill="#e8dcc8" opacity="0.96" transform="rotate(3.9231202253192037 1556.6 1193.6)"/><ellipse cx="1535.5" cy="1222.2" rx="34.2" ry="20.9" fill="#e8dcc8" opacity="0.96" transform="rotate(68.88056337362566 1535.5 1222.2)"/><ellipse cx="1502.7" cy="1217.0" rx="34.2" ry="20.9" fill="#e8dcc8" opacity="0.96" transform="rotate(129.28072261904614 1502.7 1217.0)"/><ellipse cx="1490.8" cy="1187.4" rx="34.2" ry="20.9" fill="#e8dcc8" opacity="0.96" transform="rotate(186.93619592457165 1490.8 1187.4)"/><ellipse cx="1507.8" cy="1162.3" rx="34.2" ry="20.9" fill="#e8dcc8" opacity="0.96" transform="rotate(241.53751534530133 1507.8 1162.3)"/><ellipse cx="1544.0" cy="1165.4" rx="34.2" ry="20.9" fill="#e8dcc8" opacity="0.96" transform="rotate(308.1601907685508 1544.0 1165.4)"/><circle cx="1523.6037530864196" cy="1191.3781728395063" r="19.8" fill="#0f0c09"/></g><path d="M 202.50600823045266 178.18969547325105 Q 265.8312427983539 72.64763786008231 413.59012345679014 178.18969547325105 Q 265.8312427983539 283.73175308641976 202.50600823045266 178.18969547325105 Z" fill="#c9a469" opacity="0.735943287037037" transform="rotate(213.2577160493827 202.50600823045266 178.18969547325105)"/><path d="M 193.05876543209877 168.58442798353911 Q 233.67651028806586 100.88818655692731 328.4512482853224 168.58442798353911 Q 233.67651028806586 236.28066941015092 193.05876543209877 168.58442798353911 Z" fill="#b08d57" opacity="0.7300437242798353" transform="rotate(336.5061728395062 193.05876543209877 168.58442798353911)"/><path d="M 195.71621399176956 186.63348148148148 Q 252.5874567901235 91.84807681755828 385.28702331961597 186.63348148148148 Q 252.5874567901235 281.4188861454047 195.71621399176956 186.63348148148148 Z" fill="#c9a469" opacity="0.7546611368312757" transform="rotate(44.10648148148148 195.71621399176956 186.63348148148148)"/><path d="M 174.44872427983537 214.51167078189303 Q 225.18926748971194 129.9440987654321 343.5838683127572 214.51167078189303 Q 225.18926748971194 299.07924279835396 174.44872427983537 214.51167078189303 Z" fill="#b08d57" opacity="0.7769251543209876" transform="rotate(203.8364197530864 174.44872427983537 214.51167078189303)"/><path d="M 197.90222222222224 120.61603292181071 Q 260.04490534979425 17.04489437585734 405.044499314129 120.61603292181071 Q 260.04490534979425 224.18717146776407 197.90222222222224 120.61603292181071 Z" fill="#c9a469" opacity="0.7584098508230452" transform="rotate(30.140432098765434 197.90222222222224 120.61603292181071)"/><path d="M 166.33152263374487 164.73916049382717 Q 227.92177777777778 62.0887352537723 371.6323731138546 164.73916049382717 Q 227.92177777777778 267.38958573388203 166.33152263374487 164.73916049382717 Z" fill="#b08d57" opacity="0.7218004115226337" transform="rotate(4.12962962962963 166.33152263374487 164.73916049382717)"/><path d="M 111.97366255144033 233.4825349794239 Q 157.73840329218106 157.2079670781893 264.5227983539095 233.4825349794239 Q 157.73840329218106 309.75710288065846 111.97366255144033 233.4825349794239 Z" fill="#c9a469" opacity="0.767559799382716" transform="rotate(353.58179012345676 111.97366255144033 233.4825349794239)"/><g><ellipse cx="250.0" cy="269.4" rx="23.6" ry="14.5" fill="#b08d57" opacity="0.96" transform="rotate(3.876577228844028 250.0 269.4)"/><ellipse cx="236.6" cy="288.7" rx="23.6" ry="14.5" fill="#b08d57" opacity="0.96" transform="rotate(65.7024995061294 236.6 288.7)"/><ellipse cx="215.6" cy="287.6" rx="23.6" ry="14.5" fill="#b08d57" opacity="0.96" transform="rotate(120.40697490849267 215.6 287.6)"/><ellipse cx="204.4" cy="265.2" rx="23.6" ry="14.5" fill="#b08d57" opacity="0.96" transform="rotate(186.77912866206046 204.4 265.2)"/><ellipse cx="216.3" cy="247.7" rx="23.6" ry="14.5" fill="#b08d57" opacity="0.96" transform="rotate(241.6972843120934 216.3 247.7)"/><ellipse cx="240.1" cy="249.0" rx="23.6" ry="14.5" fill="#b08d57" opacity="0.96" transform="rotate(304.48108356169115 240.1 249.0)"/><circle cx="227.14706172839504" cy="267.85185185185185" r="13.7" fill="#0f0c09"/></g><g><ellipse cx="259.2" cy="190.3" rx="28.4" ry="17.4" fill="#e8dcc8" opacity="0.96" transform="rotate(0.5481389571687306 259.2 190.3)"/><ellipse cx="244.6" cy="214.3" rx="28.4" ry="17.4" fill="#e8dcc8" opacity="0.96" transform="rotate(61.94301659691355 244.6 214.3)"/><ellipse cx="213.1" cy="210.3" rx="28.4" ry="17.4" fill="#e8dcc8" opacity="0.96" transform="rotate(132.52982902865554 213.1 210.3)"/><ellipse cx="204.2" cy="188.4" rx="28.4" ry="17.4" fill="#e8dcc8" opacity="0.96" transform="rotate(183.35121855095272 204.2 188.4)"/><ellipse cx="219.5" cy="165.4" rx="28.4" ry="17.4" fill="#e8dcc8" opacity="0.96" transform="rotate(243.80663992939122 219.5 165.4)"/><ellipse cx="250.8" cy="170.3" rx="28.4" ry="17.4" fill="#e8dcc8" opacity="0.96" transform="rotate(314.1171416960431 250.8 170.3)"/><circle cx="231.67683950617283" cy="190.03496296296296" r="16.5" fill="#0f0c09"/></g><g><ellipse cx="255.3" cy="157.6" rx="24.0" ry="14.7" fill="#b08d57" opacity="0.96" transform="rotate(7.664243825899065 255.3 157.6)"/><ellipse cx="239.5" cy="176.5" rx="24.0" ry="14.7" fill="#b08d57" opacity="0.96" transform="rotate(72.20906304767098 239.5 176.5)"/><ellipse cx="216.4" cy="171.2" rx="24.0" ry="14.7" fill="#b08d57" opacity="0.96" transform="rotate(133.6113089718182 216.4 171.2)"/><ellipse cx="209.3" cy="151.7" rx="24.0" ry="14.7" fill="#b08d57" opacity="0.96" transform="rotate(186.78686536068295 209.3 151.7)"/><ellipse cx="221.5" cy="134.0" rx="24.0" ry="14.7" fill="#b08d57" opacity="0.96" transform="rotate(242.03659380882405 221.5 134.0)"/><ellipse cx="247.0" cy="136.5" rx="24.0" ry="14.7" fill="#b08d57" opacity="0.96" transform="rotate(309.1308394338273 247.0 136.5)"/><circle cx="232.36661728395063" cy="154.4580740740741" r="13.9" fill="#0f0c09"/></g><g><ellipse cx="122.4" cy="207.3" rx="32.5" ry="19.9" fill="#e8dcc8" opacity="0.96" transform="rotate(0.15798829806151493 122.4 207.3)"/><ellipse cx="101.0" cy="237.0" rx="32.5" ry="19.9" fill="#e8dcc8" opacity="0.96" transform="rotate(71.43373532142817 101.0 237.0)"/><ellipse cx="72.0" cy="232.2" rx="32.5" ry="19.9" fill="#e8dcc8" opacity="0.96" transform="rotate(127.23240095754824 72.0 232.2)"/><ellipse cx="59.8" cy="203.7" rx="32.5" ry="19.9" fill="#e8dcc8" opacity="0.96" transform="rotate(186.3431104325483 59.8 203.7)"/><ellipse cx="82.5" cy="177.0" rx="32.5" ry="19.9" fill="#e8dcc8" opacity="0.96" transform="rotate(254.2920770482302 82.5 177.0)"/><ellipse cx="110.1" cy="182.3" rx="32.5" ry="19.9" fill="#e8dcc8" opacity="0.96" transform="rotate(307.4271078728817 110.1 182.3)"/><circle cx="90.97639506172838" cy="207.2011851851852" r="18.9" fill="#0f0c09"/></g><path d="M 1792.9618436213993 145.1946666666667 Q 1831.0822716049383 81.66062002743487 1920.029936899863 145.1946666666667 Q 1831.0822716049383 208.72871330589854 1792.9618436213993 145.1946666666667 Z" fill="#c9a469" opacity="0.818312757201646" transform="rotate(240.2037037037037 1792.9618436213993 145.1946666666667)"/><path d="M 1812.9387983539095 156.290633744856 Q 1849.266304526749 95.74479012345681 1934.0304855967079 156.290633744856 Q 1849.266304526749 216.83647736625517 1812.9387983539095 156.290633744856 Z" fill="#b08d57" opacity="0.7992573302469135" transform="rotate(140.76697530864197 1812.9387983539095 156.290633744856)"/><path d="M 1751.3434074074075 124.11944032921812 Q 1812.797497942387 21.695956104252417 1956.190375857339 124.11944032921812 Q 1812.797497942387 226.54292455418383 1751.3434074074075 124.11944032921812 Z" fill="#c9a469" opacity="0.78525591563786" transform="rotate(297.90432098765433 1751.3434074074075 124.11944032921812)"/><path d="M 1795.150485596708 226.5536790123457 Q 1858.6832592592593 120.66572290809329 2006.926397805213 226.5536790123457 Q 1858.6832592592593 332.4416351165981 1795.150485596708 226.5536790123457 Z" fill="#b08d57" opacity="0.8489936985596708" transform="rotate(232.72685185185182 1795.150485596708 226.5536790123457)"/><path d="M 1771.7970699588477 145.39483127572018 Q 1821.2821069958848 62.9197695473251 1936.7471934156379 145.39483127572018 Q 1821.2821069958848 227.86989300411526 1771.7970699588477 145.39483127572018 Z" fill="#c9a469" opacity="0.8409336419753086" transform="rotate(293.01234567901236 1771.7970699588477 145.39483127572018)"/><path d="M 1777.23575308642 226.9066008230453 Q 1822.8103374485597 150.94896021947875 1929.151034293553 226.9066008230453 Q 1822.8103374485597 302.86424142661184 1777.23575308642 226.9066008230453 Z" fill="#b08d57" opacity="0.8059831532921811" transform="rotate(13.205246913580247 1777.23575308642 226.9066008230453)"/><path d="M 1779.9880164609053 143.78824691358028 Q 1829.6086913580248 61.08712208504804 1945.3902661179698 143.78824691358028 Q 1829.6086913580248 226.48937174211252 1779.9880164609053 143.78824691358028 Z" fill="#c9a469" opacity="0.7501607510288065" transform="rotate(314.4166666666667 1779.9880164609053 143.78824691358028)"/><g><ellipse cx="1711.3" cy="233.6" rx="35.0" ry="21.5" fill="#b08d57" opacity="0.96" transform="rotate(10.242836354889862 1711.3 233.6)"/><ellipse cx="1693.3" cy="257.8" rx="35.0" ry="21.5" fill="#b08d57" opacity="0.96" transform="rotate(63.09050408784771 1693.3 257.8)"/><ellipse cx="1654.4" cy="252.0" rx="35.0" ry="21.5" fill="#b08d57" opacity="0.96" transform="rotate(133.97204789568585 1654.4 252.0)"/><ellipse cx="1644.6" cy="221.5" rx="35.0" ry="21.5" fill="#b08d57" opacity="0.96" transform="rotate(190.21649473815125 1644.6 221.5)"/><ellipse cx="1661.8" cy="197.7" rx="35.0" ry="21.5" fill="#b08d57" opacity="0.96" transform="rotate(241.59418973282982 1661.8 197.7)"/><ellipse cx="1697.6" cy="199.9" rx="35.0" ry="21.5" fill="#b08d57" opacity="0.96" transform="rotate(305.3027086749291 1697.6 199.9)"/><circle cx="1677.9567407407408" cy="227.55634567901237" r="20.3" fill="#0f0c09"/></g><g><ellipse cx="1780.7" cy="248.5" rx="27.9" ry="17.1" fill="#e8dcc8" opacity="0.96" transform="rotate(4.0960292992955845 1780.7 248.5)"/><ellipse cx="1761.7" cy="272.4" rx="27.9" ry="17.1" fill="#e8dcc8" opacity="0.96" transform="rotate(72.82603406163216 1761.7 272.4)"/><ellipse cx="1737.0" cy="267.9" rx="27.9" ry="17.1" fill="#e8dcc8" opacity="0.96" transform="rotate(128.15681363819965 1737.0 267.9)"/><ellipse cx="1727.1" cy="241.9" rx="27.9" ry="17.1" fill="#e8dcc8" opacity="0.96" transform="rotate(189.93852620907066 1727.1 241.9)"/><ellipse cx="1744.0" cy="221.4" rx="27.9" ry="17.1" fill="#e8dcc8" opacity="0.96" transform="rotate(248.84292372080336 1744.0 221.4)"/><ellipse cx="1768.5" cy="223.9" rx="27.9" ry="17.1" fill="#e8dcc8" opacity="0.96" transform="rotate(302.96898879757816 1768.5 223.9)"/><circle cx="1753.7398518518519" cy="246.5927901234568" r="16.2" fill="#0f0c09"/></g><g><ellipse cx="1719.5" cy="176.4" rx="33.8" ry="20.7" fill="#b08d57" opacity="0.96" transform="rotate(11.974751603674585 1719.5 176.4)"/><ellipse cx="1697.8" cy="200.7" rx="33.8" ry="20.7" fill="#b08d57" opacity="0.96" transform="rotate(71.52018985841637 1697.8 200.7)"/><ellipse cx="1666.8" cy="195.0" rx="33.8" ry="20.7" fill="#b08d57" opacity="0.96" transform="rotate(129.2051363015515 1666.8 195.0)"/><ellipse cx="1654.9" cy="166.3" rx="33.8" ry="20.7" fill="#b08d57" opacity="0.96" transform="rotate(185.78115594212505 1654.9 166.3)"/><ellipse cx="1671.8" cy="140.9" rx="33.8" ry="20.7" fill="#b08d57" opacity="0.96" transform="rotate(241.4692973122091 1671.8 140.9)"/><ellipse cx="1705.7" cy="142.5" rx="33.8" ry="20.7" fill="#b08d57" opacity="0.96" transform="rotate(303.9178396214975 1705.7 142.5)"/><circle cx="1687.442962962963" cy="169.62923456790125" r="19.6" fill="#0f0c09"/></g><g><ellipse cx="1730.1" cy="230.3" rx="21.5" ry="13.2" fill="#e8dcc8" opacity="0.96" transform="rotate(8.812099731053344 1730.1 230.3)"/><ellipse cx="1719.0" cy="245.6" rx="21.5" ry="13.2" fill="#e8dcc8" opacity="0.96" transform="rotate(62.75395769776797 1719.0 245.6)"/><ellipse cx="1697.1" cy="243.8" rx="21.5" ry="13.2" fill="#e8dcc8" opacity="0.96" transform="rotate(126.37405722703835 1697.1 243.8)"/><ellipse cx="1688.6" cy="226.6" rx="21.5" ry="13.2" fill="#e8dcc8" opacity="0.96" transform="rotate(181.32537015688217 1688.6 226.6)"/><ellipse cx="1702.9" cy="207.3" rx="21.5" ry="13.2" fill="#e8dcc8" opacity="0.96" transform="rotate(251.70218648315569 1702.9 207.3)"/><ellipse cx="1723.3" cy="211.5" rx="21.5" ry="13.2" fill="#e8dcc8" opacity="0.96" transform="rotate(311.73024736625484 1723.3 211.5)"/><circle cx="1709.4660740740742" cy="227.0656790123457" r="12.5" fill="#0f0c09"/></g><path d="M 190.89748148148146 620.9735637860082 Q 233.50944855967077 549.9536186556927 332.9373717421125 620.9735637860082 Q 233.50944855967077 691.9935089163237 190.89748148148146 620.9735637860082 Z" fill="#c9a469" opacity="0.7339769804526749" transform="rotate(18.16820987654321 190.89748148148146 620.9735637860082)"/><path d="M 113.01517695473251 676.6991604938272 Q 140.73385185185185 630.5013689986283 205.41075994513034 676.6991604938272 Q 140.73385185185185 722.8969519890261 113.01517695473251 676.6991604938272 Z" fill="#b08d57" opacity="0.7855619855967078" transform="rotate(3.824074074074074 113.01517695473251 676.6991604938272)"/><path d="M 144.1916378600823 613.7620411522634 Q 193.14097119341562 532.1798189300412 307.35608230452675 613.7620411522634 Q 193.14097119341562 695.3442633744855 144.1916378600823 613.7620411522634 Z" fill="#c9a469" opacity="0.7611824845679012" transform="rotate(224.94290123456793 144.1916378600823 613.7620411522634)"/><path d="M 195.98834567901233 646.9414650205762 Q 232.11154732510286 586.7361289437586 316.3990178326475 646.9414650205762 Q 232.11154732510286 707.1468010973938 195.98834567901233 646.9414650205762 Z" fill="#b08d57" opacity="0.7557458847736624" transform="rotate(335.96913580246917 195.98834567901233 646.9414650205762)"/><path d="M 176.26900411522632 643.4255802469136 Q 221.9774320987654 567.2448669410151 328.6304307270233 643.4255802469136 Q 221.9774320987654 719.6062935528121 176.26900411522632 643.4255802469136 Z" fill="#c9a469" opacity="0.8252707047325103" transform="rotate(298.01388888888886 176.26900411522632 643.4255802469136)"/><g><ellipse cx="165.1" cy="609.8" rx="17.9" ry="11.0" fill="#b08d57" opacity="0.96" transform="rotate(0.3393094967306379 165.1 609.8)"/><ellipse cx="154.3" cy="625.8" rx="17.9" ry="11.0" fill="#b08d57" opacity="0.96" transform="rotate(67.67670850701312 154.3 625.8)"/><ellipse cx="135.8" cy="622.3" rx="17.9" ry="11.0" fill="#b08d57" opacity="0.96" transform="rotate(133.55150306341872 135.8 622.3)"/><ellipse cx="130.6" cy="607.0" rx="17.9" ry="11.0" fill="#b08d57" opacity="0.96" transform="rotate(189.16596158947874 130.6 607.0)"/><ellipse cx="142.9" cy="593.1" rx="17.9" ry="11.0" fill="#b08d57" opacity="0.96" transform="rotate(253.8397257882927 142.9 593.1)"/><ellipse cx="159.2" cy="596.7" rx="17.9" ry="11.0" fill="#b08d57" opacity="0.96" transform="rotate(311.3478334057702 159.2 596.7)"/><circle cx="147.7162962962963" cy="609.7193086419753" r="10.4" fill="#0f0c09"/></g><g><ellipse cx="203.9" cy="568.8" rx="17.3" ry="10.6" fill="#e8dcc8" opacity="0.96" transform="rotate(10.008524910893462 203.9 568.8)"/><ellipse cx="195.6" cy="580.5" rx="17.3" ry="10.6" fill="#e8dcc8" opacity="0.96" transform="rotate(60.99938497444587 195.6 580.5)"/><ellipse cx="178.6" cy="580.1" rx="17.3" ry="10.6" fill="#e8dcc8" opacity="0.96" transform="rotate(122.06637395828376 178.6 580.1)"/><ellipse cx="171.2" cy="561.9" rx="17.3" ry="10.6" fill="#e8dcc8" opacity="0.96" transform="rotate(193.96105687145226 171.2 561.9)"/><ellipse cx="181.3" cy="550.4" rx="17.3" ry="10.6" fill="#e8dcc8" opacity="0.96" transform="rotate(248.25659248948222 181.3 550.4)"/><ellipse cx="197.5" cy="552.5" rx="17.3" ry="10.6" fill="#e8dcc8" opacity="0.96" transform="rotate(306.9252049003381 197.5 552.5)"/><circle cx="187.45007407407405" cy="565.9064197530864" r="10.0" fill="#0f0c09"/></g><g><ellipse cx="246.8" cy="706.8" rx="23.5" ry="14.4" fill="#b08d57" opacity="0.96" transform="rotate(1.4743937089207524 246.8 706.8)"/><ellipse cx="232.5" cy="727.3" rx="23.5" ry="14.4" fill="#b08d57" opacity="0.96" transform="rotate(68.34759080185188 232.5 727.3)"/><ellipse cx="210.0" cy="724.1" rx="23.5" ry="14.4" fill="#b08d57" opacity="0.96" transform="rotate(128.18776043268974 210.0 724.1)"/><ellipse cx="201.7" cy="701.7" rx="23.5" ry="14.4" fill="#b08d57" opacity="0.96" transform="rotate(191.29576419599317 201.7 701.7)"/><ellipse cx="217.4" cy="684.4" rx="23.5" ry="14.4" fill="#b08d57" opacity="0.96" transform="rotate(253.11800233107732 217.4 684.4)"/><ellipse cx="236.2" cy="686.9" rx="23.5" ry="14.4" fill="#b08d57" opacity="0.96" transform="rotate(302.2041608766087 236.2 686.9)"/><circle cx="224.06385185185184" cy="706.1735308641976" r="13.7" fill="#0f0c09"/></g><g><ellipse cx="170.1" cy="621.7" rx="25.9" ry="15.9" fill="#e8dcc8" opacity="0.96" transform="rotate(6.965791866921322 170.1 621.7)"/><ellipse cx="156.0" cy="641.3" rx="25.9" ry="15.9" fill="#e8dcc8" opacity="0.96" transform="rotate(64.65442245225765 156.0 641.3)"/><ellipse cx="130.2" cy="638.7" rx="25.9" ry="15.9" fill="#e8dcc8" opacity="0.96" transform="rotate(126.84875894966315 130.2 638.7)"/><ellipse cx="120.3" cy="616.6" rx="25.9" ry="15.9" fill="#e8dcc8" opacity="0.96" transform="rotate(184.7510697826692 120.3 616.6)"/><ellipse cx="134.0" cy="596.3" rx="25.9" ry="15.9" fill="#e8dcc8" opacity="0.96" transform="rotate(243.3570517761046 134.0 596.3)"/><ellipse cx="158.1" cy="597.1" rx="25.9" ry="15.9" fill="#e8dcc8" opacity="0.96" transform="rotate(300.7656875541496 158.1 597.1)"/><circle cx="145.23762962962962" cy="618.6806419753086" r="15.0" fill="#0f0c09"/></g><g><ellipse cx="165.2" cy="641.1" rx="28.0" ry="17.1" fill="#b08d57" opacity="0.96" transform="rotate(1.4158158479216525 165.2 641.1)"/><ellipse cx="148.4" cy="665.4" rx="28.0" ry="17.1" fill="#b08d57" opacity="0.96" transform="rotate(67.82481102350143 148.4 665.4)"/><ellipse cx="124.0" cy="663.4" rx="28.0" ry="17.1" fill="#b08d57" opacity="0.96" transform="rotate(121.6303557287716 124.0 663.4)"/><ellipse cx="111.7" cy="634.7" rx="28.0" ry="17.1" fill="#b08d57" opacity="0.96" transform="rotate(192.23190472931844 111.7 634.7)"/><ellipse cx="129.5" cy="614.8" rx="28.0" ry="17.1" fill="#b08d57" opacity="0.96" transform="rotate(251.20261680067279 129.5 614.8)"/><ellipse cx="154.1" cy="618.5" rx="28.0" ry="17.1" fill="#b08d57" opacity="0.96" transform="rotate(306.1907711525286 154.1 618.5)"/><circle cx="138.1714074074074" cy="640.3877530864197" r="16.2" fill="#0f0c09"/></g><path d="M 1735.5042962962964 639.6781563786009 Q 1767.0768559670782 587.0572235939644 1840.7461618655693 639.6781563786009 Q 1767.0768559670782 692.2990891632373 1735.5042962962964 639.6781563786009 Z" fill="#c9a469" opacity="0.8093010545267489" transform="rotate(225.61265432098764 1735.5042962962964 639.6781563786009)"/><path d="M 1770.4042139917697 663.9726419753086 Q 1818.0523703703705 584.5590480109739 1929.231401920439 663.9726419753086 Q 1818.0523703703705 743.3862359396434 1770.4042139917697 663.9726419753086 Z" fill="#b08d57" opacity="0.846997170781893" transform="rotate(217.9351851851852 1770.4042139917697 663.9726419753086)"/><path d="M 1759.056230452675 647.2577448559671 Q 1786.797267489712 601.022683127572 1851.5263539094651 647.2577448559671 Q 1786.797267489712 693.4928065843621 1759.056230452675 647.2577448559671 Z" fill="#c9a469" opacity="0.8253954475308641" transform="rotate(5.72067901234568 1759.056230452675 647.2577448559671)"/><path d="M 1779.4218271604939 671.1927242798354 Q 1822.5322880658437 599.3419561042524 1923.1233635116598 671.1927242798354 Q 1822.5322880658437 743.0434924554183 1779.4218271604939 671.1927242798354 Z" fill="#b08d57" opacity="0.7894032921810699" transform="rotate(203.4135802469136 1779.4218271604939 671.1927242798354)"/><path d="M 1805.92470781893 669.5257283950617 Q 1847.9892839506174 599.4181015089163 1946.139961591221 669.5257283950617 Q 1847.9892839506174 739.6333552812072 1805.92470781893 669.5257283950617 Z" fill="#c9a469" opacity="0.7450392232510288" transform="rotate(292.125 1805.92470781893 669.5257283950617)"/><g><ellipse cx="1859.0" cy="624.9" rx="18.8" ry="11.5" fill="#b08d57" opacity="0.96" transform="rotate(12.041618784626387 1859.0 624.9)"/><ellipse cx="1849.4" cy="637.3" rx="18.8" ry="11.5" fill="#b08d57" opacity="0.96" transform="rotate(63.19826524723285 1849.4 637.3)"/><ellipse cx="1828.8" cy="634.3" rx="18.8" ry="11.5" fill="#b08d57" opacity="0.96" transform="rotate(133.58244985790878 1828.8 634.3)"/><ellipse cx="1823.4" cy="617.8" rx="18.8" ry="11.5" fill="#b08d57" opacity="0.96" transform="rotate(190.52319957640125 1823.4 617.8)"/><ellipse cx="1833.3" cy="604.9" rx="18.8" ry="11.5" fill="#b08d57" opacity="0.96" transform="rotate(243.79085952029607 1833.3 604.9)"/><ellipse cx="1853.1" cy="607.4" rx="18.8" ry="11.5" fill="#b08d57" opacity="0.96" transform="rotate(310.58300548480076 1853.1 607.4)"/><circle cx="1841.2665185185185" cy="621.1361975308643" r="10.9" fill="#0f0c09"/></g><g><ellipse cx="1735.3" cy="704.7" rx="30.1" ry="18.5" fill="#e8dcc8" opacity="0.96" transform="rotate(4.999565174140198 1735.3 704.7)"/><ellipse cx="1717.0" cy="729.3" rx="30.1" ry="18.5" fill="#e8dcc8" opacity="0.96" transform="rotate(68.45756244655773 1717.0 729.3)"/><ellipse cx="1686.0" cy="723.1" rx="30.1" ry="18.5" fill="#e8dcc8" opacity="0.96" transform="rotate(134.03394148466603 1686.0 723.1)"/><ellipse cx="1677.9" cy="695.6" rx="30.1" ry="18.5" fill="#e8dcc8" opacity="0.96" transform="rotate(192.9309707119964 1677.9 695.6)"/><ellipse cx="1696.4" cy="674.7" rx="30.1" ry="18.5" fill="#e8dcc8" opacity="0.96" transform="rotate(250.14434695337775 1696.4 674.7)"/><ellipse cx="1722.5" cy="677.9" rx="30.1" ry="18.5" fill="#e8dcc8" opacity="0.96" transform="rotate(303.7730528329903 1722.5 677.9)"/><circle cx="1706.2802962962965" cy="702.1233086419753" r="17.5" fill="#0f0c09"/></g><g><ellipse cx="1736.7" cy="670.4" rx="19.6" ry="12.0" fill="#b08d57" opacity="0.96" transform="rotate(8.40205470405964 1736.7 670.4)"/><ellipse cx="1723.3" cy="685.8" rx="19.6" ry="12.0" fill="#b08d57" opacity="0.96" transform="rotate(73.41844412758532 1723.3 685.8)"/><ellipse cx="1707.5" cy="683.5" rx="19.6" ry="12.0" fill="#b08d57" opacity="0.96" transform="rotate(123.44405893442298 1707.5 683.5)"/><ellipse cx="1699.2" cy="665.1" rx="19.6" ry="12.0" fill="#b08d57" opacity="0.96" transform="rotate(187.87835389015888 1699.2 665.1)"/><ellipse cx="1712.3" cy="649.6" rx="19.6" ry="12.0" fill="#b08d57" opacity="0.96" transform="rotate(252.61843264859448 1712.3 649.6)"/><ellipse cx="1730.4" cy="653.4" rx="19.6" ry="12.0" fill="#b08d57" opacity="0.96" transform="rotate(310.98862954115305 1730.4 653.4)"/><circle cx="1717.9340740740743" cy="667.6704197530864" r="11.4" fill="#0f0c09"/></g><g><ellipse cx="1782.4" cy="708.7" rx="19.5" ry="12.0" fill="#e8dcc8" opacity="0.96" transform="rotate(11.50612871568178 1782.4 708.7)"/><ellipse cx="1771.2" cy="722.4" rx="19.5" ry="12.0" fill="#e8dcc8" opacity="0.96" transform="rotate(67.33795163161267 1771.2 722.4)"/><ellipse cx="1750.8" cy="718.6" rx="19.5" ry="12.0" fill="#e8dcc8" opacity="0.96" transform="rotate(134.04167818328852 1750.8 718.6)"/><ellipse cx="1745.5" cy="700.6" rx="19.5" ry="12.0" fill="#e8dcc8" opacity="0.96" transform="rotate(193.270280208727 1745.5 700.6)"/><ellipse cx="1754.6" cy="688.5" rx="19.5" ry="12.0" fill="#e8dcc8" opacity="0.96" transform="rotate(240.47015794724328 1754.6 688.5)"/><ellipse cx="1775.3" cy="689.9" rx="19.5" ry="12.0" fill="#e8dcc8" opacity="0.96" transform="rotate(307.16283207231555 1775.3 689.9)"/><circle cx="1763.907851851852" cy="704.9775308641975" r="11.3" fill="#0f0c09"/></g><g><ellipse cx="1750.4" cy="702.9" rx="19.2" ry="11.7" fill="#b08d57" opacity="0.96" transform="rotate(3.5688285503036807 1750.4 702.9)"/><ellipse cx="1738.8" cy="718.9" rx="19.2" ry="11.7" fill="#b08d57" opacity="0.96" transform="rotate(68.121016056478 1738.8 718.9)"/><ellipse cx="1720.9" cy="716.6" rx="19.2" ry="11.7" fill="#b08d57" opacity="0.96" transform="rotate(126.43595081601855 1720.9 716.6)"/><ellipse cx="1713.4" cy="700.4" rx="19.2" ry="11.7" fill="#b08d57" opacity="0.96" transform="rotate(184.03984613072726 1713.4 700.4)"/><ellipse cx="1724.3" cy="684.8" rx="19.2" ry="11.7" fill="#b08d57" opacity="0.96" transform="rotate(245.92839882543308 1724.3 684.8)"/><ellipse cx="1743.9" cy="687.6" rx="19.2" ry="11.7" fill="#b08d57" opacity="0.96" transform="rotate(310.2005915243161 1743.9 687.6)"/><circle cx="1731.8816296296297" cy="701.7246419753086" r="11.1" fill="#0f0c09"/></g>
  <rect width="1920" height="1280" fill="url(#v1)"/>
  <rect width="1920" height="1280" filter="url(#n1)" opacity="0.5"/>
</svg>