<svg width="800" height="1000" viewBox="0 0 800 1000" xmlns="http://www.w3.org/2000/svg" role="img">
  <defs>
    <linearGradient id="g5" x1="0" y1="0" x2="1" y2="1">
      <stop offset="0%" stop-color="#d8cab4"/>
      <stop offset="100%" stop-color="#cabca8"/>
    </linearGradient>
    <radialGradient id="soft5" cx="50%" cy="35%" r="75%">
      <stop offset="0%" stop-color="#ffffff" stop-opacity="0.35"/>
      <stop offset="100%" stop-color="#ffffff" stop-opacity="0"/>
    </radialGradient>
  </defs>
  <rect width="800" height="1000" fill="url(#g5)"/>
  <rect width="800" height="1000" fill="url(#soft5)"/>
  <g transform="rotate(293.0138888888889 357.12345679012344 694.4851680384088)"><ellipse cx="357.12345679012344" cy="694.4851680384088" rx="13.719753086419752" ry="6.097668038408779" fill="#b08d57" opacity="0.5876778978052126" transform="rotate(-30 357.12345679012344 694.4851680384088)"/><ellipse cx="363.9833333333333" cy="662.1473998930339" rx="13.719753086419752" ry="6.097668038408779" fill="#b08d57" opacity="0.5876778978052126" transform="rotate(-15 363.9833333333333 662.1473998930339)"/><ellipse cx="370.8432098765432" cy="648.7526577503429" rx="13.719753086419752" ry="6.097668038408779" fill="#b08d57" opacity="0.5876778978052126" transform="rotate(0 370.8432098765432 648.7526577503429)"/><ellipse cx="377.70308641975305" cy="662.1473998930339" rx="13.719753086419752" ry="6.097668038408779" fill="#b08d57" opacity="0.5876778978052126" transform="rotate(15 377.70308641975305 662.1473998930339)"/><ellipse cx="384.56296296296296" cy="694.4851680384088" rx="13.719753086419752" ry="6.097668038408779" fill="#b08d57" opacity="0.5876778978052126" transform="rotate(30 384.56296296296296 694.4851680384088)"/></g><g transform="rotate(353.85493827160496 342.3189300411523 260.21090534979425)"><ellipse cx="342.3189300411523" cy="260.21090534979425" rx="10.391242283950618" ry="4.6183299039780525" fill="#5f6b41" opacity="0.5617058899176954" transform="rotate(-30 342.3189300411523 260.21090534979425)"/><ellipse cx="347.51455118312765" cy="235.71851240334803" rx="10.391242283950618" ry="4.6183299039780525" fill="#5f6b41" opacity="0.5617058899176954" transform="rotate(-15 347.51455118312765 235.71851240334803)"/><ellipse cx="352.7101723251029" cy="225.57343106995884" rx="10.391242283950618" ry="4.6183299039780525" fill="#5f6b41" opacity="0.5617058899176954" transform="rotate(0 352.7101723251029 225.57343106995884)"/><ellipse cx="357.90579346707824" cy="235.718512403348" rx="10.391242283950618" ry="4.6183299039780525" fill="#5f6b41" opacity="0.5617058899176954" transform="rotate(15 357.90579346707824 235.718512403348)"/><ellipse cx="363.10141460905356" cy="260.21090534979425" rx="10.391242283950618" ry="4.6183299039780525" fill="#5f6b41" opacity="0.5617058899176954" transform="rotate(30 363.10141460905356 260.21090534979425)"/></g><g transform="rotate(307.9367283950617 216.2798353909465 625.1907578875171)"><ellipse cx="216.2798353909465" cy="625.1907578875171" rx="13.588194444444445" ry="6.039197530864198" fill="#b08d57" opacity="0.4747127914951989" transform="rotate(-30 216.2798353909465 625.1907578875171)"/><ellipse cx="223.07393261316872" cy="593.1630764350236" rx="13.588194444444445" ry="6.039197530864198" fill="#b08d57" opacity="0.4747127914951989" transform="rotate(-15 223.07393261316872 593.1630764350236)"/><ellipse cx="229.86802983539093" cy="579.8967764060355" rx="13.588194444444445" ry="6.039197530864198" fill="#b08d57" opacity="0.4747127914951989" transform="rotate(0 229.86802983539093 579.8967764060355)"/><ellipse cx="236.66212705761316" cy="593.1630764350236" rx="13.588194444444445" ry="6.039197530864198" fill="#b08d57" opacity="0.4747127914951989" transform="rotate(15 236.66212705761316 593.1630764350236)"/><ellipse cx="243.45622427983537" cy="625.1907578875171" rx="13.588194444444445" ry="6.039197530864198" fill="#b08d57" opacity="0.4747127914951989" transform="rotate(30 243.45622427983537 625.1907578875171)"/></g><g transform="rotate(76.37037037037037 460.48765432098764 642.8197873799726)"><ellipse cx="460.48765432098764" cy="642.8197873799726" rx="13.005054012345678" ry="5.780024005486968" fill="#5f6b41" opacity="0.5311739111796983" transform="rotate(-30 460.48765432098764 642.8197873799726)"/><ellipse cx="466.9901813271605" cy="612.1665811072161" rx="13.005054012345678" ry="5.780024005486968" fill="#5f6b41" opacity="0.5311739111796983" transform="rotate(-15 466.9901813271605 612.1665811072161)"/><ellipse cx="473.4927083333333" cy="599.4696073388203" rx="13.005054012345678" ry="5.780024005486968" fill="#5f6b41" opacity="0.5311739111796983" transform="rotate(0 473.4927083333333 599.4696073388203)"/><ellipse cx="479.99523533950617" cy="612.1665811072161" rx="13.005054012345678" ry="5.780024005486968" fill="#5f6b41" opacity="0.5311739111796983" transform="rotate(15 479.99523533950617 612.1665811072161)"/><ellipse cx="486.497762345679" cy="642.8197873799726" rx="13.005054012345678" ry="5.780024005486968" fill="#5f6b41" opacity="0.5311739111796983" transform="rotate(30 486.497762345679 642.8197873799726)"/></g><circle cx="164.41015089163238" cy="684.8379629629629" r="26.67057613168724" fill="#b08d57" opacity="0.16607767489711933"/><circle cx="716.6906721536352" cy="636.2482853223595" r="27.479475308641973" fill="#b08d57" opacity="0.13398105281207132"/><circle cx="471.2345679012346" cy="902.2162208504801" r="24.692695473251028" fill="#b08d57" opacity="0.19352537722908092"/><circle cx="645.3257887517146" cy="930.272633744856" r="24.125051440329216" fill="#b08d57" opacity="0.16724151234567902"/><circle cx="115.50754458161865" cy="130.9113511659808" r="25.81358024691358" fill="#b08d57" opacity="0.1406232853223594"/><circle cx="306.47119341563786" cy="322.0336076817558" r="21.35087448559671" fill="#b08d57" opacity="0.20657193072702332"/>
</svg>