<svg width="800" height="1000" viewBox="0 0 800 1000" xmlns="http://www.w3.org/2000/svg" role="img">
  <defs>
    <linearGradient id="g6" x1="0.1" y1="0" x2="0.9" y2="1">
      <stop offset="0%" stop-color="#3a4326"/>
      <stop offset="100%" stop-color="#1c2113"/>
    </linearGradient>
    <radialGradient id="v6" cx="50%" cy="42%" r="72%">
      <stop offset="0%" stop-color="#000000" stop-opacity="0"/>
      <stop offset="100%" stop-color="#000000" stop-opacity="0.3"/>
    </radialGradient>
    <filter id="n6"><feTurbulence type="fractalNoise" baseFrequency="0.8" numOctaves="2" stitchTiles="stitch" result="noise"/><feColorMatrix in="noise" type="matrix" values="0 0 0 0 0  0 0 0 0 0  0 0 0 0 0  0 0 0 0.06 0"/></filter>
  </defs>
  <rect width="800" height="1000" fill="url(#g6)"/>
  <path d="M 168.00000000000003 920 L 168.00000000000003 392 A 231.99999999999997 231.99999999999997 0 0 1 632 392 L 632 920" fill="none" stroke="#c9a469" stroke-width="6.4" opacity="0.85"/><path d="M 131.82353909465024 391.7665843621399 Q 159.08650205761322 346.3283127572016 222.7000823045268 391.7665843621399 Q 159.08650205761322 437.2048559670782 131.82353909465024 391.7665843621399 Z" fill="#c9a469" opacity="0.766466049382716" transform="rotate(260.9567901234568 131.82353909465024 391.7665843621399)"/><path d="M 189.9782716049383 386.53366255144033 Q 211.41942386831278 350.7984087791495 261.4487791495199 386.53366255144033 Q 211.41942386831278 422.26891632373116 189.9782716049383 386.53366255144033 Z" fill="#c9a469" opacity="0.8051266718106995" transform="rotate(197.81635802469134 189.9782716049383 386.53366255144033)"/><path d="M 203.7873251028807 414.94024691358027 Q 226.51283950617287 377.06438957475996 279.5390397805213 414.94024691358027 Q 226.51283950617287 452.8161042524006 203.7873251028807 414.94024691358027 Z" fill="#c9a469" opacity="0.8395820473251028" transform="rotate(275.69444444444446 203.7873251028807 414.94024691358027)"/><path d="M 159.2655144032922 423.1789300411523 Q 186.17415637860086 378.33119341563787 248.960987654321 423.1789300411523 Q 186.17415637860086 468.0266666666667 159.2655144032922 423.1789300411523 Z" fill="#c9a469" opacity="0.8036284722222222" transform="rotate(82.36882716049384 159.2655144032922 423.1789300411523)"/><path d="M 159.0498765432099 414.33119341563787 Q 188.12189300411526 365.8778326474623 255.95659807956108 414.33119341563787 Q 188.12189300411526 462.78455418381344 159.0498765432099 414.33119341563787 Z" fill="#c9a469" opacity="0.7255066872427983" transform="rotate(312.28395061728395 159.0498765432099 414.33119341563787)"/><path d="M 174.93300411522637 380.1007407407407 Q 207.05234567901238 326.5685048010974 281.9974759945131 380.1007407407407 Q 207.05234567901238 433.63297668038405 174.93300411522637 380.1007407407407 Z" fill="#c9a469" opacity="0.7945685442386831" transform="rotate(286.5509259259259 174.93300411522637 380.1007407407407)"/><g><ellipse cx="175.1" cy="379.9" rx="13.7" ry="8.4" fill="#c9a469" opacity="0.96" transform="rotate(7.443072489086948 175.1 379.9)"/><ellipse cx="167.9" cy="390.1" rx="13.7" ry="8.4" fill="#c9a469" opacity="0.96" transform="rotate(63.41857695086469 167.9 390.1)"/><ellipse cx="155.3" cy="389.7" rx="13.7" ry="8.4" fill="#c9a469" opacity="0.96" transform="rotate(120.05354286665747 155.3 389.7)"/><ellipse cx="149.1" cy="375.0" rx="13.7" ry="8.4" fill="#c9a469" opacity="0.96" transform="rotate(194.01502955469988 149.1 375.0)"/><ellipse cx="157.2" cy="365.8" rx="13.7" ry="8.4" fill="#c9a469" opacity="0.96" transform="rotate(248.918448635928 157.2 365.8)"/><ellipse cx="169.3" cy="367.1" rx="13.7" ry="8.4" fill="#c9a469" opacity="0.96" transform="rotate(303.5529253364685 169.3 367.1)"/><circle cx="161.9392592592593" cy="378.19456790123456" r="8.0" fill="#12150c"/></g><g><ellipse cx="152.7" cy="446.4" rx="15.4" ry="9.4" fill="#f4ede3" opacity="0.96" transform="rotate(10.348202821844218 152.7 446.4)"/><ellipse cx="143.4" cy="457.6" rx="15.4" ry="9.4" fill="#f4ede3" opacity="0.96" transform="rotate(69.07576150791931 143.4 457.6)"/><ellipse cx="129.4" cy="455.8" rx="15.4" ry="9.4" fill="#f4ede3" opacity="0.96" transform="rotate(125.67757014390128 129.4 455.8)"/><ellipse cx="123.6" cy="440.6" rx="15.4" ry="9.4" fill="#f4ede3" opacity="0.96" transform="rotate(192.04603975526783 123.6 440.6)"/><ellipse cx="131.0" cy="430.6" rx="15.4" ry="9.4" fill="#f4ede3" opacity="0.96" transform="rotate(241.34587854846885 131.0 430.6)"/><ellipse cx="146.0" cy="431.1" rx="15.4" ry="9.4" fill="#f4ede3" opacity="0.96" transform="rotate(301.91550833514464 146.0 431.1)"/><circle cx="138.10370370370373" cy="443.69234567901236" r="8.9" fill="#12150c"/></g><g><ellipse cx="133.2" cy="423.9" rx="22.3" ry="13.7" fill="#c9a469" opacity="0.96" transform="rotate(9.373931416736541 133.2 423.9)"/><ellipse cx="122.6" cy="439.1" rx="22.3" ry="13.7" fill="#c9a469" opacity="0.96" transform="rotate(60.11058566840606 122.6 439.1)"/><ellipse cx="101.0" cy="439.1" rx="22.3" ry="13.7" fill="#c9a469" opacity="0.96" transform="rotate(120.26022324414485 101.0 439.1)"/><ellipse cx="90.3" cy="419.4" rx="22.3" ry="13.7" fill="#c9a469" opacity="0.96" transform="rotate(182.6166619984032 90.3 419.4)"/><ellipse cx="102.5" cy="400.9" rx="22.3" ry="13.7" fill="#c9a469" opacity="0.96" transform="rotate(244.2178516014153 102.5 400.9)"/><ellipse cx="127.0" cy="404.9" rx="22.3" ry="13.7" fill="#c9a469" opacity="0.96" transform="rotate(314.303620693794 127.0 404.9)"/><circle cx="111.86814814814818" cy="420.39012345679015" r="13.0" fill="#12150c"/></g><path d="M 217.34410668772827 536.8909521944051 Q 242.81637006221388 494.4371799035958 302.25165126934695 536.8909521944051 Q 242.81637006221388 579.3447244852144 217.34410668772827 536.8909521944051 Z" fill="#c9a469" opacity="0.7178697273662551" transform="rotate(8.399691358024691 217.34410668772827 536.8909521944051)"/><path d="M 181.01982685233733 527.9642032232117 Q 211.24311903340728 477.5920495880951 281.76413412257057 527.9642032232117 Q 211.24311903340728 578.3363568583284 181.01982685233733 527.9642032232117 Z" fill="#c9a469" opacity="0.7044084362139917" transform="rotate(91.27777777777777 181.01982685233733 527.9642032232117)"/><path d="M 227.16468281941553 562.8695530174505 Q 261.8377692391686 505.0810756511953 342.7416375519258 562.8695530174505 Q 261.8377692391686 620.6580303837056 227.16468281941553 562.8695530174505 Z" fill="#c9a469" opacity="0.7455381944444444" transform="rotate(202.95216049382717 227.16468281941553 562.8695530174505)"/><path d="M 228.01571162599987 491.0884830586027 Q 261.9188391980163 434.58327043857525 341.02613686605474 491.0884830586027 Q 261.9188391980163 547.5936956786302 228.01571162599987 491.0884830586027 Z" fill="#c9a469" opacity="0.7194997427983538" transform="rotate(317.8672839506173 228.01571162599987 491.0884830586027)"/><path d="M 232.165505864683 534.7246970503722 Q 262.9826252062468 483.36283148109925 334.88923700322897 534.7246970503722 Q 262.9826252062468 586.0865626196452 232.165505864683 534.7246970503722 Z" fill="#c9a469" opacity="0.8156449331275719" transform="rotate(117.13425925925927 232.165505864683 534.7246970503722)"/><g><ellipse cx="271.6" cy="499.5" rx="14.6" ry="9.0" fill="#c9a469" opacity="0.96" transform="rotate(9.654663052468075 271.6 499.5)"/><ellipse cx="263.8" cy="509.9" rx="14.6" ry="9.0" fill="#c9a469" opacity="0.96" transform="rotate(64.23756176219173 263.8 509.9)"/><ellipse cx="248.3" cy="507.8" rx="14.6" ry="9.0" fill="#c9a469" opacity="0.96" transform="rotate(131.41654265782256 248.3 507.8)"/><ellipse cx="243.5" cy="495.9" rx="14.6" ry="9.0" fill="#c9a469" opacity="0.96" transform="rotate(184.88683042278345 243.5 495.9)"/><ellipse cx="251.8" cy="484.2" rx="14.6" ry="9.0" fill="#c9a469" opacity="0.96" transform="rotate(245.55961619109283 251.8 484.2)"/><ellipse cx="265.5" cy="485.3" rx="14.6" ry="9.0" fill="#c9a469" opacity="0.96" transform="rotate(303.57613543233606 265.5 485.3)"/><circle cx="257.63398323093816" cy="497.14741309975494" r="8.5" fill="#12150c"/></g><g><ellipse cx="213.1" cy="577.1" rx="23.3" ry="14.3" fill="#f4ede3" opacity="0.96" transform="rotate(0.026341616738589157 213.1 577.1)"/><ellipse cx="200.3" cy="597.4" rx="23.3" ry="14.3" fill="#f4ede3" opacity="0.96" transform="rotate(64.52326698989489 200.3 597.4)"/><ellipse cx="177.9" cy="595.6" rx="23.3" ry="14.3" fill="#f4ede3" opacity="0.96" transform="rotate(124.50711816657962 177.9 595.6)"/><ellipse cx="168.6" cy="572.4" rx="23.3" ry="14.3" fill="#f4ede3" opacity="0.96" transform="rotate(191.87030617227052 168.6 572.4)"/><ellipse cx="184.4" cy="555.4" rx="23.3" ry="14.3" fill="#f4ede3" opacity="0.96" transform="rotate(254.10148409168806 184.4 555.4)"/><ellipse cx="205.3" cy="560.0" rx="23.3" ry="14.3" fill="#f4ede3" opacity="0.96" transform="rotate(310.89118397993127 205.3 560.0)"/><circle cx="190.5984276753826" cy="577.0451908775327" r="13.5" fill="#12150c"/></g><g><ellipse cx="198.4" cy="513.3" rx="20.5" ry="12.6" fill="#c9a469" opacity="0.96" transform="rotate(8.004535760550024 198.4 513.3)"/><ellipse cx="185.0" cy="529.4" rx="20.5" ry="12.6" fill="#c9a469" opacity="0.96" transform="rotate(71.67252913843603 185.0 529.4)"/><ellipse cx="166.5" cy="526.2" rx="20.5" ry="12.6" fill="#c9a469" opacity="0.96" transform="rotate(128.0422368157423 166.5 526.2)"/><ellipse cx="159.0" cy="509.1" rx="20.5" ry="12.6" fill="#c9a469" opacity="0.96" transform="rotate(184.23142152518975 159.0 509.1)"/><ellipse cx="172.5" cy="491.7" rx="20.5" ry="12.6" fill="#c9a469" opacity="0.96" transform="rotate(251.60197781528302 172.5 491.7)"/><ellipse cx="191.7" cy="495.5" rx="20.5" ry="12.6" fill="#c9a469" opacity="0.96" transform="rotate(310.7458445700939 191.7 495.5)"/><circle cx="178.76287211982702" cy="510.5429686553105" r="11.9" fill="#12150c"/></g><g><ellipse cx="270.4" cy="559.8" rx="20.3" ry="12.5" fill="#f4ede3" opacity="0.96" transform="rotate(8.522341946928863 270.4 559.8)"/><ellipse cx="260.6" cy="574.0" rx="20.3" ry="12.5" fill="#f4ede3" opacity="0.96" transform="rotate(60.61844467084165 260.6 574.0)"/><ellipse cx="238.0" cy="571.6" rx="20.3" ry="12.5" fill="#f4ede3" opacity="0.96" transform="rotate(131.2789399466077 238.0 571.6)"/><ellipse cx="231.9" cy="552.0" rx="20.3" ry="12.5" fill="#f4ede3" opacity="0.96" transform="rotate(194.19905245764986 231.9 552.0)"/><ellipse cx="241.6" cy="539.5" rx="20.3" ry="12.5" fill="#f4ede3" opacity="0.96" transform="rotate(241.64208358144538 241.6 539.5)"/><ellipse cx="262.7" cy="541.1" rx="20.3" ry="12.5" fill="#f4ede3" opacity="0.96" transform="rotate(306.72110342239154 262.7 541.1)"/><circle cx="250.92731656427148" cy="556.8407464330883" r="11.8" fill="#12150c"/></g><g><ellipse cx="219.3" cy="515.6" rx="14.3" ry="8.8" fill="#c9a469" opacity="0.96" transform="rotate(5.160746395442755 219.3 515.6)"/><ellipse cx="211.7" cy="526.8" rx="14.3" ry="8.8" fill="#c9a469" opacity="0.96" transform="rotate(63.589889563220545 211.7 526.8)"/><ellipse cx="197.8" cy="525.9" rx="14.3" ry="8.8" fill="#c9a469" opacity="0.96" transform="rotate(123.47426890047285 197.8 525.9)"/><ellipse cx="191.6" cy="513.8" rx="14.3" ry="8.8" fill="#c9a469" opacity="0.96" transform="rotate(182.38235055440683 191.6 513.8)"/><ellipse cx="199.0" cy="502.1" rx="14.3" ry="8.8" fill="#c9a469" opacity="0.96" transform="rotate(242.12673248801343 199.0 502.1)"/><ellipse cx="212.9" cy="502.6" rx="14.3" ry="8.8" fill="#c9a469" opacity="0.96" transform="rotate(302.39794675639195 212.9 502.6)"/><circle cx="205.49176100871594" cy="514.3385242108661" r="8.3" fill="#12150c"/></g><path d="M 297.95447705809863 627.0247002578419 Q 325.60155524739906 580.9462366090079 390.1114043557667 627.0247002578419 Q 325.60155524739906 673.103163906676 297.95447705809863 627.0247002578419 Z" fill="#c9a469" opacity="0.7265271347736625" transform="rotate(175.84413580246914 297.95447705809863 627.0247002578419)"/><path d="M 297.18575277826324 619.5201735088707 Q 321.40608199637023 579.152958145359 377.92018350528656 619.5201735088707 Q 321.40608199637023 659.8873888723824 297.18575277826324 619.5201735088707 Z" fill="#c9a469" opacity="0.7491769547325102" transform="rotate(25.38888888888889 297.18575277826324 619.5201735088707)"/><path d="M 336.2194976342303 638.781078858665 Q 358.845176646576 601.0716138380889 411.63842767538256 638.781078858665 Q 358.845176646576 676.490543879241 336.2194976342303 638.781078858665 Z" fill="#c9a469" opacity="0.8430844907407407" transform="rotate(183.72993827160494 336.2194976342303 638.781078858665)"/><path d="M 338.4927486630369 585.4888977887061 Q 369.2373577165348 534.2478826995429 440.97477884136333 585.4888977887061 Q 369.2373577165348 636.7299128778694 338.4927486630369 585.4888977887061 Z" fill="#c9a469" opacity="0.8364904835390946" transform="rotate(145.31172839506172 338.4927486630369 585.4888977887061)"/><path d="M 326.99809845727555 579.3473340026978 Q 352.87892150254305 536.212628927252 413.2675086081672 579.3473340026978 Q 352.87892150254305 622.4820390781437 326.99809845727555 579.3473340026978 Z" fill="#c9a469" opacity="0.7187467849794238" transform="rotate(191.24537037037038 326.99809845727555 579.3473340026978)"/><g><ellipse cx="366.6" cy="581.1" rx="21.5" ry="13.2" fill="#c9a469" opacity="0.96" transform="rotate(10.216126323931151 366.6 581.1)"/><ellipse cx="352.4" cy="597.2" rx="21.5" ry="13.2" fill="#c9a469" opacity="0.96" transform="rotate(72.49151394976307 352.4 597.2)"/><ellipse cx="334.2" cy="594.4" rx="21.5" ry="13.2" fill="#c9a469" opacity="0.96" transform="rotate(125.08129172863684 334.2 594.4)"/><ellipse cx="325.7" cy="574.0" rx="21.5" ry="13.2" fill="#c9a469" opacity="0.96" transform="rotate(189.4271672715439 325.7 574.0)"/><ellipse cx="338.5" cy="558.1" rx="21.5" ry="13.2" fill="#c9a469" opacity="0.96" transform="rotate(248.24314537044785 338.5 558.1)"/><ellipse cx="359.7" cy="561.7" rx="21.5" ry="13.2" fill="#c9a469" opacity="0.96" transform="rotate(310.76905466596145 359.7 561.7)"/><circle cx="346.1495387864937" cy="577.4085685705991" r="12.5" fill="#12150c"/></g><g><ellipse cx="391.3" cy="641.7" rx="17.1" ry="10.5" fill="#f4ede3" opacity="0.96" transform="rotate(12.524425620093815 391.3 641.7)"/><ellipse cx="380.7" cy="653.7" rx="17.1" ry="10.5" fill="#f4ede3" opacity="0.96" transform="rotate(70.38989503108782 380.7 653.7)"/><ellipse cx="364.5" cy="650.8" rx="17.1" ry="10.5" fill="#f4ede3" opacity="0.96" transform="rotate(130.10848796928605 364.5 650.8)"/><ellipse cx="359.1" cy="634.1" rx="17.1" ry="10.5" fill="#f4ede3" opacity="0.96" transform="rotate(194.02331887465255 359.1 634.1)"/><ellipse cx="366.9" cy="623.8" rx="17.1" ry="10.5" fill="#f4ede3" opacity="0.96" transform="rotate(240.07374424639403 366.9 623.8)"/><ellipse cx="383.7" cy="624.0" rx="17.1" ry="10.5" fill="#f4ede3" opacity="0.96" transform="rotate(301.37283418890763 383.7 624.0)"/><circle cx="375.1139832309381" cy="638.1063463483769" r="9.9" fill="#12150c"/></g><g><ellipse cx="366.9" cy="669.1" rx="23.6" ry="14.5" fill="#c9a469" opacity="0.96" transform="rotate(3.7913507392562384 366.9 669.1)"/><ellipse cx="355.2" cy="687.6" rx="23.6" ry="14.5" fill="#c9a469" opacity="0.96" transform="rotate(60.827888154979945 355.2 687.6)"/><ellipse cx="329.0" cy="684.8" rx="23.6" ry="14.5" fill="#c9a469" opacity="0.96" transform="rotate(131.2562824720703 329.0 684.8)"/><ellipse cx="321.3" cy="666.0" rx="23.6" ry="14.5" fill="#c9a469" opacity="0.96" transform="rotate(183.9971100811933 321.3 666.0)"/><ellipse cx="336.1" cy="646.2" rx="23.6" ry="14.5" fill="#c9a469" opacity="0.96" transform="rotate(249.51085870188118 336.1 646.2)"/><ellipse cx="359.7" cy="650.9" rx="23.6" ry="14.5" fill="#c9a469" opacity="0.96" transform="rotate(313.1641155109624 359.7 650.9)"/><circle cx="344.07842767538256" cy="667.6041241261546" r="13.7" fill="#12150c"/></g><g><ellipse cx="302.7" cy="580.2" rx="21.6" ry="13.2" fill="#f4ede3" opacity="0.96" transform="rotate(1.9218327792566485 302.7 580.2)"/><ellipse cx="291.7" cy="597.9" rx="21.6" ry="13.2" fill="#f4ede3" opacity="0.96" transform="rotate(61.710424419277714 291.7 597.9)"/><ellipse cx="267.8" cy="595.0" rx="21.6" ry="13.2" fill="#f4ede3" opacity="0.96" transform="rotate(132.10566145655727 267.8 595.0)"/><ellipse cx="261.4" cy="575.3" rx="21.6" ry="13.2" fill="#f4ede3" opacity="0.96" transform="rotate(191.57741686727502 261.4 575.3)"/><ellipse cx="275.2" cy="559.7" rx="21.6" ry="13.2" fill="#f4ede3" opacity="0.96" transform="rotate(251.4875851999357 275.2 559.7)"/><ellipse cx="294.3" cy="562.8" rx="21.6" ry="13.2" fill="#f4ede3" opacity="0.96" transform="rotate(306.7520502168816 294.3 562.8)"/><circle cx="281.842872119827" cy="579.5019019039324" r="12.5" fill="#12150c"/></g><path d="M 489.5724365221482 586.5476632208049 Q 512.5224776744116 548.2975946336993 566.0725736963595 586.5476632208049 Q 512.5224776744116 624.7977318079105 489.5724365221482 586.5476632208049 Z" fill="#c9a469" opacity="0.7200398662551439" transform="rotate(243.60802469135805 489.5724365221482 586.5476632208049)"/><path d="M 433.51482335342394 589.8875809162781 Q 467.48255997893835 533.2746865404208 546.7406121051386 589.8875809162781 Q 467.48255997893835 646.5004752921354 433.51482335342394 589.8875809162781 Z" fill="#c9a469" opacity="0.7930369084362139" transform="rotate(293.9861111111111 433.51482335342394 589.8875809162781)"/><path d="M 466.3263459871688 643.4595973771835 Q 493.41054351803297 598.3192681590765 556.6070044233828 643.4595973771835 Q 493.41054351803297 688.5999265952905 466.3263459871688 643.4595973771835 Z" fill="#c9a469" opacity="0.783125" transform="rotate(43.160493827160494 466.3263459871688 643.4595973771835)"/><path d="M 460.24404146041985 596.7451940850024 Q 496.0249468102141 537.1103518353453 579.513725959734 596.7451940850024 Q 496.0249468102141 656.3800363346594 460.24404146041985 596.7451940850024 Z" fill="#c9a469" opacity="0.7185448816872427" transform="rotate(185.57561728395063 460.24404146041985 596.7451940850024)"/><path d="M 463.86050236576966 595.0480747434386 Q 488.42206615177787 554.1121351000916 545.7323816524638 595.0480747434386 Q 488.42206615177787 635.9840143867857 463.86050236576966 595.0480747434386 Z" fill="#c9a469" opacity="0.7886484053497942" transform="rotate(42.342592592592595 463.86050236576966 595.0480747434386)"/><path d="M 505.8572101846997 601.6274986117513 Q 531.3426422834651 559.1517784471423 590.8086505139178 601.6274986117513 Q 531.3426422834651 644.1032187763603 505.8572101846997 601.6274986117513 Z" fill="#c9a469" opacity="0.7605652006172839" transform="rotate(1.2391975308641976 505.8572101846997 601.6274986117513)"/><g><ellipse cx="528.2" cy="583.3" rx="14.3" ry="8.8" fill="#c9a469" opacity="0.96" transform="rotate(13.929496053261964 528.2 583.3)"/><ellipse cx="521.5" cy="592.2" rx="14.3" ry="8.8" fill="#c9a469" opacity="0.96" transform="rotate(61.18832006699746 521.5 592.2)"/><ellipse cx="505.5" cy="590.3" rx="14.3" ry="8.8" fill="#c9a469" opacity="0.96" transform="rotate(131.8303946317575 505.5 590.3)"/><ellipse cx="500.9" cy="579.8" rx="14.3" ry="8.8" fill="#c9a469" opacity="0.96" transform="rotate(180.9828677369105 500.9 579.8)"/><ellipse cx="509.1" cy="567.4" rx="14.3" ry="8.8" fill="#c9a469" opacity="0.96" transform="rotate(246.0029413026373 509.1 567.4)"/><ellipse cx="522.0" cy="568.2" rx="14.3" ry="8.8" fill="#c9a469" opacity="0.96" transform="rotate(301.64687296630706 522.0 568.2)"/><circle cx="514.7758933122717" cy="580.0140006693646" r="8.3" fill="#12150c"/></g><g><ellipse cx="497.3" cy="632.8" rx="17.5" ry="10.7" fill="#f4ede3" opacity="0.96" transform="rotate(13.187325606829967 497.3 632.8)"/><ellipse cx="488.6" cy="644.0" rx="17.5" ry="10.7" fill="#f4ede3" opacity="0.96" transform="rotate(62.402429129403345 488.6 644.0)"/><ellipse cx="471.7" cy="643.2" rx="17.5" ry="10.7" fill="#f4ede3" opacity="0.96" transform="rotate(122.66627511337938 471.7 643.2)"/><ellipse cx="464.0" cy="626.8" rx="17.5" ry="10.7" fill="#f4ede3" opacity="0.96" transform="rotate(187.30319789018134 464.0 626.8)"/><ellipse cx="473.9" cy="613.5" rx="17.5" ry="10.7" fill="#f4ede3" opacity="0.96" transform="rotate(245.92391645242157 473.9 613.5)"/><ellipse cx="492.0" cy="616.3" rx="17.5" ry="10.7" fill="#f4ede3" opacity="0.96" transform="rotate(311.4818747795239 492.0 616.3)"/><circle cx="480.8070044233828" cy="628.978445113809" r="10.1" fill="#12150c"/></g><g><ellipse cx="521.8" cy="647.2" rx="20.4" ry="12.5" fill="#c9a469" opacity="0.96" transform="rotate(1.403780983397728 521.8 647.2)"/><ellipse cx="508.6" cy="665.3" rx="20.4" ry="12.5" fill="#c9a469" opacity="0.96" transform="rotate(70.48009511264722 508.6 665.3)"/><ellipse cx="491.0" cy="663.1" rx="20.4" ry="12.5" fill="#c9a469" opacity="0.96" transform="rotate(123.94669873540688 491.0 663.1)"/><ellipse cx="482.8" cy="642.2" rx="20.4" ry="12.5" fill="#c9a469" opacity="0.96" transform="rotate(193.3251125251549 482.8 642.2)"/><ellipse cx="495.0" cy="628.3" rx="20.4" ry="12.5" fill="#c9a469" opacity="0.96" transform="rotate(249.12746230347616 495.0 628.3)"/><ellipse cx="515.7" cy="632.5" rx="20.4" ry="12.5" fill="#c9a469" opacity="0.96" transform="rotate(313.85648863530815 515.7 632.5)"/><circle cx="502.0381155344939" cy="646.7428895582534" r="11.8" fill="#12150c"/></g><g><ellipse cx="506.1" cy="664.8" rx="14.7" ry="9.0" fill="#f4ede3" opacity="0.96" transform="rotate(10.807738159074058 506.1 664.8)"/><ellipse cx="499.1" cy="674.5" rx="14.7" ry="9.0" fill="#f4ede3" opacity="0.96" transform="rotate(60.35441447975555 499.1 674.5)"/><ellipse cx="483.9" cy="673.8" rx="14.7" ry="9.0" fill="#f4ede3" opacity="0.96" transform="rotate(124.92870683913708 483.9 673.8)"/><ellipse cx="477.9" cy="660.0" rx="14.7" ry="9.0" fill="#f4ede3" opacity="0.96" transform="rotate(188.3056529831282 477.9 660.0)"/><ellipse cx="486.0" cy="649.2" rx="14.7" ry="9.0" fill="#f4ede3" opacity="0.96" transform="rotate(244.87062019709816 486.0 649.2)"/><ellipse cx="501.7" cy="651.6" rx="14.7" ry="9.0" fill="#f4ede3" opacity="0.96" transform="rotate(312.35170075322753 501.7 651.6)"/><circle cx="492.06922664560506" cy="662.1073340026978" r="8.6" fill="#12150c"/></g><path d="M 560.0600085386092 512.7760550750637 Q 584.1751525715309 472.5841483535273 640.4438219816818 512.7760550750637 Q 584.1751525715309 552.9679617966001 560.0600085386092 512.7760550750637 Z" fill="#c9a469" opacity="0.7962718621399176" transform="rotate(105.08333333333333 560.0600085386092 512.7760550750637)"/><path d="M 605.8493089501318 543.0591826470802 Q 641.7920249995145 483.154655898109 725.6583624480742 543.0591826470802 Q 641.7920249995145 602.9637093960514 605.8493089501318 543.0591826470802 Z" fill="#c9a469" opacity="0.7200405092592592" transform="rotate(255.09104938271605 605.8493089501318 543.0591826470802)"/><path d="M 610.6114488678273 522.1225571326769 Q 641.4286505139179 470.76055438919263 713.3354543547957 522.1225571326769 Q 641.4286505139179 573.4845598761611 610.6114488678273 522.1225571326769 Z" fill="#c9a469" opacity="0.7849742798353909" transform="rotate(308.3395061728395 610.6114488678273 522.1225571326769)"/><path d="M 571.7390208842883 544.0698822355575 Q 608.9813254110372 481.9993746909759 695.8800359734515 544.0698822355575 Q 608.9813254110372 606.1403897801391 571.7390208842883 544.0698822355575 Z" fill="#c9a469" opacity="0.7804250257201646" transform="rotate(65.93981481481481 571.7390208842883 544.0698822355575)"/><path d="M 620.313506480996 520.9604172149815 Q 656.3907904316133 460.83161063061937 740.5711196497202 520.9604172149815 Q 656.3907904316133 581.0892237993436 620.313506480996 520.9604172149815 Z" fill="#c9a469" opacity="0.8235223765432098" transform="rotate(35.66975308641975 620.313506480996 520.9604172149815)"/><path d="M 568.8386093616544 524.1423102190967 Q 601.9088974274981 469.0251634426906 679.0729029144666 524.1423102190967 Q 601.9088974274981 579.2594569955027 568.8386093616544 524.1423102190967 Z" fill="#c9a469" opacity="0.7258404063786008" transform="rotate(151.97376543209876 568.8386093616544 524.1423102190967)"/><g><ellipse cx="599.4" cy="529.0" rx="23.2" ry="14.2" fill="#c9a469" opacity="0.96" transform="rotate(10.510366481067095 599.4 529.0)"/><ellipse cx="583.7" cy="546.4" rx="23.2" ry="14.2" fill="#c9a469" opacity="0.96" transform="rotate(73.34574372148163 583.7 546.4)"/><ellipse cx="565.9" cy="544.2" rx="23.2" ry="14.2" fill="#c9a469" opacity="0.96" transform="rotate(120.4829910425775 565.9 544.2)"/><ellipse cx="555.4" cy="520.3" rx="23.2" ry="14.2" fill="#c9a469" opacity="0.96" transform="rotate(191.9318927494006 555.4 520.3)"/><ellipse cx="571.1" cy="503.3" rx="23.2" ry="14.2" fill="#c9a469" opacity="0.96" transform="rotate(253.960442847752 571.1 503.3)"/><ellipse cx="589.4" cy="506.0" rx="23.2" ry="14.2" fill="#c9a469" opacity="0.96" transform="rotate(302.54555805392005 589.4 506.0)"/><circle cx="577.3220661517779" cy="524.8886476676563" r="13.5" fill="#12150c"/></g><g><ellipse cx="565.2" cy="472.6" rx="21.5" ry="13.2" fill="#f4ede3" opacity="0.96" transform="rotate(0.35152856836462226 565.2 472.6)"/><ellipse cx="552.6" cy="491.6" rx="21.5" ry="13.2" fill="#f4ede3" opacity="0.96" transform="rotate(66.73473474853597 552.6 491.6)"/><ellipse cx="532.7" cy="489.7" rx="21.5" ry="13.2" fill="#f4ede3" opacity="0.96" transform="rotate(124.18389609079422 532.7 489.7)"/><ellipse cx="524.2" cy="467.6" rx="21.5" ry="13.2" fill="#f4ede3" opacity="0.96" transform="rotate(193.61020372915786 524.2 467.6)"/><ellipse cx="537.6" cy="452.9" rx="21.5" ry="13.2" fill="#f4ede3" opacity="0.96" transform="rotate(250.8309482549416 537.6 452.9)"/><ellipse cx="555.2" cy="454.8" rx="21.5" ry="13.2" fill="#f4ede3" opacity="0.96" transform="rotate(301.37234296994745 555.2 454.8)"/><circle cx="544.4198439295557" cy="472.5197587787674" r="12.5" fill="#12150c"/></g><g><ellipse cx="585.5" cy="506.7" rx="19.6" ry="12.0" fill="#c9a469" opacity="0.96" transform="rotate(7.799206235203073 585.5 506.7)"/><ellipse cx="574.1" cy="521.6" rx="19.6" ry="12.0" fill="#c9a469" opacity="0.96" transform="rotate(66.98728269642832 574.1 521.6)"/><ellipse cx="556.1" cy="519.9" rx="19.6" ry="12.0" fill="#c9a469" opacity="0.96" transform="rotate(124.00539940114604 556.1 519.9)"/><ellipse cx="547.8" cy="503.9" rx="19.6" ry="12.0" fill="#c9a469" opacity="0.96" transform="rotate(180.6661543123472 547.8 503.9)"/><ellipse cx="560.5" cy="486.2" rx="19.6" ry="12.0" fill="#c9a469" opacity="0.96" transform="rotate(250.98402436340155 560.5 486.2)"/><ellipse cx="578.1" cy="489.0" rx="19.6" ry="12.0" fill="#c9a469" opacity="0.96" transform="rotate(307.06268480681297 578.1 489.0)"/><circle cx="566.7176217073335" cy="504.15086988987855" r="11.4" fill="#12150c"/></g><g><ellipse cx="577.2" cy="536.0" rx="20.2" ry="12.4" fill="#f4ede3" opacity="0.96" transform="rotate(7.7864959446089275 577.2 536.0)"/><ellipse cx="566.6" cy="550.9" rx="20.2" ry="12.4" fill="#f4ede3" opacity="0.96" transform="rotate(63.360428906455724 566.6 550.9)"/><ellipse cx="547.0" cy="549.7" rx="20.2" ry="12.4" fill="#f4ede3" opacity="0.96" transform="rotate(123.52848719320052 547.0 549.7)"/><ellipse cx="538.3" cy="531.6" rx="20.2" ry="12.4" fill="#f4ede3" opacity="0.96" transform="rotate(185.32862047507749 538.3 531.6)"/><ellipse cx="549.1" cy="515.8" rx="20.2" ry="12.4" fill="#f4ede3" opacity="0.96" transform="rotate(243.67671251442886 549.1 515.8)"/><ellipse cx="570.1" cy="518.2" rx="20.2" ry="12.4" fill="#f4ede3" opacity="0.96" transform="rotate(308.8736249058134 570.1 518.2)"/><circle cx="557.8153994851112" cy="533.3819810009896" r="11.7" fill="#12150c"/></g><path d="M 614.480329218107 427.3715226337449 Q 639.6815637860083 385.3694650205762 698.4844444444445 427.3715226337449 Q 639.6815637860083 469.37358024691366 614.480329218107 427.3715226337449 Z" fill="#c9a469" opacity="0.7663310185185185" transform="rotate(9.521604938271604 614.480329218107 427.3715226337449)"/><path d="M 649.286913580247 374.6126748971194 Q 679.5404115226338 324.19017832647467 750.1319067215364 374.6126748971194 Q 679.5404115226338 425.03517146776414 649.286913580247 374.6126748971194 Z" fill="#c9a469" opacity="0.8482786779835391" transform="rotate(63.60339506172839 649.286913580247 374.6126748971194)"/><path d="M 663.925596707819 362.6044444444445 Q 703.8486419753086 296.066035665295 797.002414266118 362.6044444444445 Q 703.8486419753086 429.142853223594 663.925596707819 362.6044444444445 Z" fill="#c9a469" opacity="0.8065766460905349" transform="rotate(172.03703703703704 663.925596707819 362.6044444444445)"/><path d="M 661.4778600823046 405.8060905349795 Q 683.7469958847737 368.6908641975309 735.7083127572017 405.8060905349795 Q 683.7469958847737 442.92131687242806 661.4778600823046 405.8060905349795 Z" fill="#c9a469" opacity="0.8083545524691358" transform="rotate(242.6003086419753 661.4778600823046 405.8060905349795)"/><path d="M 633.6474074074074 370.7657613168725 Q 661.4873251028806 324.3658984910837 726.447133058985 370.7657613168725 Q 661.4873251028806 417.1656241426613 633.6474074074074 370.7657613168725 Z" fill="#c9a469" opacity="0.7151864711934156" transform="rotate(329.73765432098764 633.6474074074074 370.7657613168725)"/><g><ellipse cx="614.5" cy="375.9" rx="14.9" ry="9.1" fill="#c9a469" opacity="0.96" transform="rotate(4.751499599259312 614.5 375.9)"/><ellipse cx="605.7" cy="388.0" rx="14.9" ry="9.1" fill="#c9a469" opacity="0.96" transform="rotate(67.35477588099815 605.7 388.0)"/><ellipse cx="590.3" cy="385.3" rx="14.9" ry="9.1" fill="#c9a469" opacity="0.96" transform="rotate(132.96062805671605 590.3 385.3)"/><ellipse cx="586.1" cy="371.3" rx="14.9" ry="9.1" fill="#c9a469" opacity="0.96" transform="rotate(193.83235750389028 586.1 371.3)"/><ellipse cx="592.9" cy="362.3" rx="14.9" ry="9.1" fill="#c9a469" opacity="0.96" transform="rotate(240.11119969210625 592.9 362.3)"/><ellipse cx="608.6" cy="363.1" rx="14.9" ry="9.1" fill="#c9a469" opacity="0.96" transform="rotate(305.97125767970704 608.6 363.1)"/><circle cx="600.1145679012345" cy="374.7402469135803" r="8.6" fill="#12150c"/></g><g><ellipse cx="650.6" cy="364.8" rx="14.4" ry="8.8" fill="#f4ede3" opacity="0.96" transform="rotate(6.8276979367462935 650.6 364.8)"/><ellipse cx="641.7" cy="376.2" rx="14.4" ry="8.8" fill="#f4ede3" opacity="0.96" transform="rotate(69.39781693867434 641.7 376.2)"/><ellipse cx="628.4" cy="374.2" rx="14.4" ry="8.8" fill="#f4ede3" opacity="0.96" transform="rotate(127.41065203771637 628.4 374.2)"/><ellipse cx="622.9" cy="362.5" rx="14.4" ry="8.8" fill="#f4ede3" opacity="0.96" transform="rotate(182.67880119686345 622.9 362.5)"/><ellipse cx="631.9" cy="350.2" rx="14.4" ry="8.8" fill="#f4ede3" opacity="0.96" transform="rotate(249.21674134948526 631.9 350.2)"/><ellipse cx="646.4" cy="353.1" rx="14.4" ry="8.8" fill="#f4ede3" opacity="0.96" transform="rotate(313.4520926263563 646.4 353.1)"/><circle cx="636.8123456790123" cy="363.1713580246914" r="8.3" fill="#12150c"/></g><g><ellipse cx="605.7" cy="410.0" rx="21.9" ry="13.4" fill="#c9a469" opacity="0.96" transform="rotate(8.605480755935973 605.7 410.0)"/><ellipse cx="595.2" cy="425.3" rx="21.9" ry="13.4" fill="#c9a469" opacity="0.96" transform="rotate(60.39948381935025 595.2 425.3)"/><ellipse cx="571.4" cy="423.4" rx="21.9" ry="13.4" fill="#c9a469" opacity="0.96" transform="rotate(128.72423293955467 571.4 423.4)"/><ellipse cx="563.5" cy="406.1" rx="21.9" ry="13.4" fill="#c9a469" opacity="0.96" transform="rotate(181.9697880302423 563.5 406.1)"/><ellipse cx="575.3" cy="387.8" rx="21.9" ry="13.4" fill="#c9a469" opacity="0.96" transform="rotate(243.6999226102964 575.3 387.8)"/><ellipse cx="598.3" cy="390.5" rx="21.9" ry="13.4" fill="#c9a469" opacity="0.96" transform="rotate(309.89155339600535 598.3 390.5)"/><circle cx="584.7101234567901" cy="406.80246913580254" r="12.7" fill="#12150c"/></g><g><ellipse cx="604.9" cy="423.4" rx="18.2" ry="11.1" fill="#f4ede3" opacity="0.96" transform="rotate(13.665834276395993 604.9 423.4)"/><ellipse cx="593.1" cy="436.0" rx="18.2" ry="11.1" fill="#f4ede3" opacity="0.96" transform="rotate(72.58865249913475 593.1 436.0)"/><ellipse cx="577.4" cy="433.4" rx="18.2" ry="11.1" fill="#f4ede3" opacity="0.96" transform="rotate(126.15841210352804 577.4 433.4)"/><ellipse cx="570.2" cy="418.9" rx="18.2" ry="11.1" fill="#f4ede3" opacity="0.96" transform="rotate(180.9623593453238 570.2 418.9)"/><ellipse cx="579.4" cy="403.8" rx="18.2" ry="11.1" fill="#f4ede3" opacity="0.96" transform="rotate(241.46567457237788 579.4 403.8)"/><ellipse cx="599.8" cy="406.4" rx="18.2" ry="11.1" fill="#f4ede3" opacity="0.96" transform="rotate(313.1945710864924 599.8 406.4)"/><circle cx="587.8079012345679" cy="419.2335802469136" r="10.5" fill="#12150c"/></g><g><ellipse cx="691.0" cy="432.5" rx="16.9" ry="10.4" fill="#c9a469" opacity="0.96" transform="rotate(11.265799839423417 691.0 432.5)"/><ellipse cx="681.4" cy="444.3" rx="16.9" ry="10.4" fill="#c9a469" opacity="0.96" transform="rotate(66.57447456278372 681.4 444.3)"/><ellipse cx="665.9" cy="443.0" rx="16.9" ry="10.4" fill="#c9a469" opacity="0.96" transform="rotate(123.29417574920411 665.9 443.0)"/><ellipse cx="658.5" cy="428.3" rx="16.9" ry="10.4" fill="#c9a469" opacity="0.96" transform="rotate(183.23750136167564 658.5 428.3)"/><ellipse cx="668.3" cy="414.3" rx="16.9" ry="10.4" fill="#c9a469" opacity="0.96" transform="rotate(246.09498345529738 668.3 414.3)"/><ellipse cx="686.0" cy="417.2" rx="16.9" ry="10.4" fill="#c9a469" opacity="0.96" transform="rotate(312.6181870391144 686.0 417.2)"/><circle cx="674.9056790123457" cy="429.2646913580248" r="9.8" fill="#12150c"/></g><path d="M 383.9608230452675 853.130658436214 Q 432.8473353909465 771.6531378600823 546.9158641975309 853.130658436214 Q 432.8473353909465 934.6081790123458 383.9608230452675 853.130658436214 Z" fill="#c9a469" opacity="0.7388773148148148" transform="rotate(50.29938271604939 383.9608230452675 853.130658436214)"/><path d="M 433.77543209876546 911.6094650205762 Q 475.4310288065844 842.1834705075446 572.6274211248285 911.6094650205762 Q 475.4310288065844 981.0354595336078 433.77543209876546 911.6094650205762 Z" fill="#c9a469" opacity="0.8402694187242798" transform="rotate(311.0478395061728 433.77543209876546 911.6094650205762)"/><path d="M 432.39251028806586 932.2537037037036 Q 484.8992901234568 844.742403978052 607.415109739369 932.2537037037036 Q 484.8992901234568 1019.7650034293553 432.39251028806586 932.2537037037036 Z" fill="#c9a469" opacity="0.7346784979423868" transform="rotate(306.14814814814815 432.39251028806586 932.2537037037036)"/><path d="M 348.84909465020576 899.7448559670781 Q 403.9706378600823 807.8756172839505 532.5875720164609 899.7448559670781 Q 403.9706378600823 991.6140946502057 348.84909465020576 899.7448559670781 Z" fill="#c9a469" opacity="0.8392341820987654" transform="rotate(183.3780864197531 348.84909465020576 899.7448559670781)"/><path d="M 347.73777777777775 912.1866255144033 Q 378.7413683127572 860.513974622771 451.0830795610425 912.1866255144033 Q 378.7413683127572 963.8592764060356 347.73777777777775 912.1866255144033 Z" fill="#c9a469" opacity="0.8155105452674897" transform="rotate(237.1820987654321 347.73777777777775 912.1866255144033)"/><path d="M 448.94004115226335 876.0382716049382 Q 482.9522222222222 819.3513031550068 562.3139780521262 876.0382716049382 Q 482.9522222222222 932.7252400548697 448.94004115226335 876.0382716049382 Z" fill="#c9a469" opacity="0.8361927726337448" transform="rotate(228.67129629629628 448.94004115226335 876.0382716049382)"/><g><ellipse cx="380.4" cy="849.1" rx="25.2" ry="15.5" fill="#c9a469" opacity="0.96" transform="rotate(0.1665232274942979 380.4 849.1)"/><ellipse cx="366.3" cy="871.2" rx="25.2" ry="15.5" fill="#c9a469" opacity="0.96" transform="rotate(64.87344470611907 366.3 871.2)"/><ellipse cx="340.2" cy="867.8" rx="25.2" ry="15.5" fill="#c9a469" opacity="0.96" transform="rotate(129.9745694002724 340.2 867.8)"/><ellipse cx="331.5" cy="848.9" rx="25.2" ry="15.5" fill="#c9a469" opacity="0.96" transform="rotate(180.30596800980976 331.5 848.9)"/><ellipse cx="348.7" cy="825.7" rx="25.2" ry="15.5" fill="#c9a469" opacity="0.96" transform="rotate(252.6943259779392 348.7 825.7)"/><ellipse cx="368.4" cy="828.0" rx="25.2" ry="15.5" fill="#c9a469" opacity="0.96" transform="rotate(300.6752418631102 368.4 828.0)"/><circle cx="355.9327777777778" cy="849.0393827160494" r="14.7" fill="#12150c"/></g><g><ellipse cx="457.8" cy="860.6" rx="32.4" ry="19.9" fill="#f4ede3" opacity="0.96" transform="rotate(5.260034027765129 457.8 860.6)"/><ellipse cx="437.1" cy="887.2" rx="32.4" ry="19.9" fill="#f4ede3" opacity="0.96" transform="rotate(70.33168558430883 437.1 887.2)"/><ellipse cx="405.2" cy="880.6" rx="32.4" ry="19.9" fill="#f4ede3" opacity="0.96" transform="rotate(133.0123288522729 405.2 880.6)"/><ellipse cx="395.5" cy="853.5" rx="32.4" ry="19.9" fill="#f4ede3" opacity="0.96" transform="rotate(187.6873311170266 395.5 853.5)"/><ellipse cx="416.9" cy="827.9" rx="32.4" ry="19.9" fill="#f4ede3" opacity="0.96" transform="rotate(252.0847846507504 416.9 827.9)"/><ellipse cx="443.9" cy="831.6" rx="32.4" ry="19.9" fill="#f4ede3" opacity="0.96" transform="rotate(303.6135294756783 443.9 831.6)"/><circle cx="426.5588888888889" cy="857.6988271604938" r="18.8" fill="#12150c"/></g><g><ellipse cx="437.2" cy="987.3" rx="24.0" ry="14.7" fill="#c9a469" opacity="0.96" transform="rotate(13.636115529306302 437.2 987.3)"/><ellipse cx="423.3" cy="1003.4" rx="24.0" ry="14.7" fill="#c9a469" opacity="0.96" transform="rotate(68.329538505066 423.3 1003.4)"/><ellipse cx="399.1" cy="999.1" rx="24.0" ry="14.7" fill="#c9a469" opacity="0.96" transform="rotate(132.17068656640845 399.1 999.1)"/><ellipse cx="391.5" cy="981.7" rx="24.0" ry="14.7" fill="#c9a469" opacity="0.96" transform="rotate(180.44633382767555 391.5 981.7)"/><ellipse cx="403.2" cy="961.7" rx="24.0" ry="14.7" fill="#c9a469" opacity="0.96" transform="rotate(240.43386914656145 403.2 961.7)"/><ellipse cx="430.6" cy="965.0" rx="24.0" ry="14.7" fill="#c9a469" opacity="0.96" transform="rotate(313.41537400908436 430.6 965.0)"/><circle cx="414.685" cy="981.8582716049383" r="13.9" fill="#12150c"/></g><path d="M 154.02172839506176 878.7252674897119 Q 177.14781893004118 840.1817832647462 231.10869684499318 878.7252674897119 Q 177.14781893004118 917.2687517146776 154.02172839506176 878.7252674897119 Z" fill="#c9a469" opacity="0.8155124742798353" transform="rotate(271.6311728395062 154.02172839506176 878.7252674897119)"/><path d="M 179.682633744856 933.205925925926 Q 214.1671604938272 875.7317146776406 294.6310562414267 933.205925925926 Q 214.1671604938272 990.6801371742113 179.682633744856 933.205925925926 Z" fill="#c9a469" opacity="0.8120048868312757" transform="rotate(271.73148148148147 179.682633744856 933.205925925926)"/><path d="M 209.59045267489714 936.2297942386831 Q 246.24329218107 875.1417283950617 331.76658436213995 936.2297942386831 Q 246.24329218107 997.3178600823045 209.59045267489714 936.2297942386831 Z" fill="#c9a469" opacity="0.8436439043209876" transform="rotate(93.96141975308642 209.59045267489714 936.2297942386831)"/><path d="M 209.8488888888889 882.3450205761317 Q 245.2280658436214 823.3797256515775 327.77947873799724 882.3450205761317 Q 245.2280658436214 941.3103155006859 209.8488888888889 882.3450205761317 Z" fill="#c9a469" opacity="0.7220036008230453" transform="rotate(32.76543209876543 209.8488888888889 882.3450205761317)"/><path d="M 194.91720164609055 933.921975308642 Q 226.35111111111112 881.5321262002744 299.69689986282583 933.921975308642 Q 226.35111111111112 986.3118244170096 194.91720164609055 933.921975308642 Z" fill="#c9a469" opacity="0.7697691615226336" transform="rotate(209.25462962962965 194.91720164609055 933.921975308642)"/><g><ellipse cx="155.6" cy="896.4" rx="12.8" ry="7.9" fill="#c9a469" opacity="0.96" transform="rotate(8.346424156821502 155.6 896.4)"/><ellipse cx="147.2" cy="906.4" rx="12.8" ry="7.9" fill="#c9a469" opacity="0.96" transform="rotate(71.66073988339218 147.2 906.4)"/><ellipse cx="134.9" cy="903.7" rx="12.8" ry="7.9" fill="#c9a469" opacity="0.96" transform="rotate(132.98193467911298 134.9 903.7)"/><ellipse cx="131.2" cy="892.1" rx="12.8" ry="7.9" fill="#c9a469" opacity="0.96" transform="rotate(191.47002412211 131.2 892.1)"/><ellipse cx="137.3" cy="883.8" rx="12.8" ry="7.9" fill="#c9a469" opacity="0.96" transform="rotate(240.97985902077951 137.3 883.8)"/><ellipse cx="150.7" cy="884.7" rx="12.8" ry="7.9" fill="#c9a469" opacity="0.96" transform="rotate(306.6667623249238 150.7 884.7)"/><circle cx="143.3377777777778" cy="894.6153086419753" r="7.4" fill="#12150c"/></g><g><ellipse cx="164.9" cy="915.5" rx="13.9" ry="8.5" fill="#f4ede3" opacity="0.96" transform="rotate(0.9064831886055752 164.9 915.5)"/><ellipse cx="155.7" cy="928.1" rx="13.9" ry="8.5" fill="#f4ede3" opacity="0.96" transform="rotate(71.74750143223048 155.7 928.1)"/><ellipse cx="144.1" cy="926.5" rx="13.9" ry="8.5" fill="#f4ede3" opacity="0.96" transform="rotate(123.48624236262674 144.1 926.5)"/><ellipse cx="138.4" cy="912.2" rx="13.9" ry="8.5" fill="#f4ede3" opacity="0.96" transform="rotate(193.47990789997536 138.4 912.2)"/><ellipse cx="145.2" cy="903.4" rx="13.9" ry="8.5" fill="#f4ede3" opacity="0.96" transform="rotate(242.16081080337457 145.2 903.4)"/><ellipse cx="159.1" cy="904.2" rx="13.9" ry="8.5" fill="#f4ede3" opacity="0.96" transform="rotate(304.23357060814044 159.1 904.2)"/><circle cx="151.50222222222223" cy="915.3130864197531" r="8.1" fill="#12150c"/></g><g><ellipse cx="176.8" cy="848.5" rx="20.2" ry="12.4" fill="#c9a469" opacity="0.96" transform="rotate(3.91108536079528 176.8 848.5)"/><ellipse cx="163.5" cy="865.8" rx="20.2" ry="12.4" fill="#c9a469" opacity="0.96" transform="rotate(71.53584746277146 163.5 865.8)"/><ellipse cx="144.3" cy="861.9" rx="20.2" ry="12.4" fill="#c9a469" opacity="0.96" transform="rotate(131.5970656256814 144.3 861.9)"/><ellipse cx="137.9" cy="844.5" rx="20.2" ry="12.4" fill="#c9a469" opacity="0.96" transform="rotate(188.02940372040814 137.9 844.5)"/><ellipse cx="151.8" cy="828.4" rx="20.2" ry="12.4" fill="#c9a469" opacity="0.96" transform="rotate(253.78630572637525 151.8 828.4)"/><ellipse cx="167.5" cy="830.5" rx="20.2" ry="12.4" fill="#c9a469" opacity="0.96" transform="rotate(301.50196337305977 167.5 830.5)"/><circle cx="157.26666666666668" cy="847.2108641975309" r="11.8" fill="#12150c"/></g><g><ellipse cx="212.1" cy="952.1" rx="23.6" ry="14.5" fill="#f4ede3" opacity="0.96" transform="rotate(6.617272014687681 212.1 952.1)"/><ellipse cx="200.8" cy="969.3" rx="23.6" ry="14.5" fill="#f4ede3" opacity="0.96" transform="rotate(60.282819316312214 200.8 969.3)"/><ellipse cx="174.1" cy="966.4" rx="23.6" ry="14.5" fill="#f4ede3" opacity="0.96" transform="rotate(132.24750093130353 174.1 966.4)"/><ellipse cx="167.2" cy="944.4" rx="23.6" ry="14.5" fill="#f4ede3" opacity="0.96" transform="rotate(193.02344268124654 167.2 944.4)"/><ellipse cx="181.9" cy="927.9" rx="23.6" ry="14.5" fill="#f4ede3" opacity="0.96" transform="rotate(250.7894402528081 181.9 927.9)"/><ellipse cx="201.6" cy="930.2" rx="23.6" ry="14.5" fill="#f4ede3" opacity="0.96" transform="rotate(302.05292683924944 201.6 930.2)"/><circle cx="189.43111111111114" cy="949.5086419753086" r="13.7" fill="#12150c"/></g><path d="M 637.989135802469 920.3815637860082 Q 664.1515226337448 876.777585733882 725.1970919067214 920.3815637860082 Q 664.1515226337448 963.9855418381344 637.989135802469 920.3815637860082 Z" fill="#c9a469" opacity="0.7944418724279835" transform="rotate(184.39506172839506 637.989135802469 920.3815637860082)"/><path d="M 621.1611522633744 921.7066666666667 Q 657.1264197530863 861.7645541838135 741.0453772290809 921.7066666666667 Q 657.1264197530863 981.6487791495199 621.1611522633744 921.7066666666667 Z" fill="#c9a469" opacity="0.7162815072016461" transform="rotate(85.32870370370371 621.1611522633744 921.7066666666667)"/><path d="M 580.8467489711934 895.041646090535 Q 616.8914403292181 834.9671604938271 700.995720164609 895.041646090535 Q 616.8914403292181 955.1161316872428 580.8467489711934 895.041646090535 Z" fill="#c9a469" opacity="0.8191010802469135" transform="rotate(278.391975308642 580.8467489711934 895.041646090535)"/><path d="M 585.5496296296296 937.3346502057614 Q 624.0984362139918 873.0866392318245 714.0456515775035 937.3346502057614 Q 624.0984362139918 1001.5826611796982 585.5496296296296 937.3346502057614 Z" fill="#c9a469" opacity="0.8144746656378601" transform="rotate(98.02932098765432 585.5496296296296 937.3346502057614)"/><path d="M 598.5290534979423 929.356049382716 Q 629.977037037037 876.9427434842249 703.3556652949245 929.356049382716 Q 629.977037037037 981.7693552812071 598.5290534979423 929.356049382716 Z" fill="#c9a469" opacity="0.7750874485596707" transform="rotate(145.35185185185185 598.5290534979423 929.356049382716)"/><g><ellipse cx="671.6" cy="873.9" rx="18.1" ry="11.1" fill="#c9a469" opacity="0.96" transform="rotate(0.13391856901366656 671.6 873.9)"/><ellipse cx="662.2" cy="889.4" rx="18.1" ry="11.1" fill="#c9a469" opacity="0.96" transform="rotate(62.420358621449196 662.2 889.4)"/><ellipse cx="642.4" cy="886.9" rx="18.1" ry="11.1" fill="#c9a469" opacity="0.96" transform="rotate(131.86508697081882 642.4 886.9)"/><ellipse cx="636.8" cy="871.3" rx="18.1" ry="11.1" fill="#c9a469" opacity="0.96" transform="rotate(188.5295260242212 636.8 871.3)"/><ellipse cx="648.2" cy="857.5" rx="18.1" ry="11.1" fill="#c9a469" opacity="0.96" transform="rotate(250.1417680538369 648.2 857.5)"/><ellipse cx="665.0" cy="860.2" rx="18.1" ry="11.1" fill="#c9a469" opacity="0.96" transform="rotate(308.43459796017027 665.0 860.2)"/><circle cx="654.0888888888888" cy="873.8997530864198" r="10.5" fill="#12150c"/></g><g><ellipse cx="573.0" cy="880.8" rx="14.7" ry="9.0" fill="#f4ede3" opacity="0.96" transform="rotate(12.090986290122483 573.0 880.8)"/><ellipse cx="565.3" cy="890.6" rx="14.7" ry="9.0" fill="#f4ede3" opacity="0.96" transform="rotate(63.999197761774006 565.3 890.6)"/><ellipse cx="551.9" cy="890.1" rx="14.7" ry="9.0" fill="#f4ede3" opacity="0.96" transform="rotate(120.28048602625145 551.9 890.1)"/><ellipse cx="544.9" cy="876.6" rx="14.7" ry="9.0" fill="#f4ede3" opacity="0.96" transform="rotate(184.8695149544378 544.9 876.6)"/><ellipse cx="552.4" cy="865.2" rx="14.7" ry="9.0" fill="#f4ede3" opacity="0.96" transform="rotate(242.07183876921553 552.4 865.2)"/><ellipse cx="567.7" cy="866.5" rx="14.7" ry="9.0" fill="#f4ede3" opacity="0.96" transform="rotate(307.49348383487336 567.7 866.5)"/><circle cx="559.0533333333333" cy="877.7975308641975" r="8.5" fill="#12150c"/></g><g><ellipse cx="676.7" cy="879.8" rx="13.9" ry="8.5" fill="#c9a469" opacity="0.96" transform="rotate(2.263721175528127 676.7 879.8)"/><ellipse cx="669.6" cy="891.1" rx="13.9" ry="8.5" fill="#c9a469" opacity="0.96" transform="rotate(61.69863516423387 669.6 891.1)"/><ellipse cx="655.9" cy="890.6" rx="13.9" ry="8.5" fill="#c9a469" opacity="0.96" transform="rotate(122.72141444165736 655.9 890.6)"/><ellipse cx="649.8" cy="878.2" rx="13.9" ry="8.5" fill="#c9a469" opacity="0.96" transform="rotate(184.4920745859247 649.8 878.2)"/><ellipse cx="656.7" cy="867.6" rx="13.9" ry="8.5" fill="#c9a469" opacity="0.96" transform="rotate(240.86546640543222 656.7 867.6)"/><ellipse cx="670.5" cy="868.0" rx="13.9" ry="8.5" fill="#c9a469" opacity="0.96" transform="rotate(302.67296797171156 670.5 868.0)"/><circle cx="663.2177777777778" cy="879.2953086419753" r="8.1" fill="#12150c"/></g><path d="M 41.04691358024691 173.57267489711933 Q 72.04041152263375 121.91684499314127 144.358573388203 173.57267489711933 Q 72.04041152263375 225.2285048010974 41.04691358024691 173.57267489711933 Z" fill="#c9a469" opacity="0.7884349279835391" transform="rotate(189.97839506172838 41.04691358024691 173.57267489711933)"/><path d="M 89.28559670781894 175.96444444444444 Q 123.94864197530865 118.19270233196158 204.82908093278465 175.96444444444444 Q 123.94864197530865 233.7361865569273 89.28559670781894 175.96444444444444 Z" fill="#c9a469" opacity="0.7373578960905349" transform="rotate(275.91203703703707 89.28559670781894 175.96444444444444)"/><path d="M 101.23786008230454 137.56609053497942 Q 126.64699588477367 95.21753086419753 185.93497942386833 137.56609053497942 Q 126.64699588477367 179.91465020576132 101.23786008230454 137.56609053497942 Z" fill="#c9a469" opacity="0.8422608024691357" transform="rotate(233.9753086419753 101.23786008230454 137.56609053497942)"/><path d="M 68.60740740740741 155.32576131687242 Q 103.18732510288066 97.69256515775032 183.8737997256516 155.32576131687242 Q 103.18732510288066 212.9589574759945 68.60740740740741 155.32576131687242 Z" fill="#c9a469" opacity="0.8147177211934156" transform="rotate(118.61265432098764 68.60740740740741 155.32576131687242)"/><path d="M 31.453497942386832 110.01382716049383 Q 62.39925925925927 58.43755829903978 134.60603566529494 110.01382716049383 Q 62.39925925925927 161.5900960219479 31.453497942386832 110.01382716049383 Z" fill="#c9a469" opacity="0.7274138374485596" transform="rotate(170.9351851851852 31.453497942386832 110.01382716049383)"/><path d="M 35.52427983539094 109.95621399176954 Q 73.55687242798354 46.56855967078189 162.29958847736626 109.95621399176954 Q 73.55687242798354 173.3438683127572 35.52427983539094 109.95621399176954 Z" fill="#c9a469" opacity="0.7308121141975308" transform="rotate(18.72067901234568 35.52427983539094 109.95621399176954)"/><path d="M 63.99012345679012 141.1677366255144 Q 97.84534979423869 84.74235939643347 176.840877914952 141.1677366255144 Q 97.84534979423869 197.59311385459534 63.99012345679012 141.1677366255144 Z" fill="#c9a469" opacity="0.7198199588477365" transform="rotate(276.41358024691357 63.99012345679012 141.1677366255144)"/><g><ellipse cx="116.6" cy="189.8" rx="20.1" ry="12.3" fill="#c9a469" opacity="0.96" transform="rotate(0.04353428034419513 116.6 189.8)"/><ellipse cx="104.8" cy="207.6" rx="20.1" ry="12.3" fill="#c9a469" opacity="0.96" transform="rotate(66.8688375246597 104.8 207.6)"/><ellipse cx="86.0" cy="205.6" rx="20.1" ry="12.3" fill="#c9a469" opacity="0.96" transform="rotate(125.29061240803509 86.0 205.6)"/><ellipse cx="77.9" cy="187.0" rx="20.1" ry="12.3" fill="#c9a469" opacity="0.96" transform="rotate(188.26230290989406 77.9 187.0)"/><ellipse cx="88.3" cy="172.5" rx="20.1" ry="12.3" fill="#c9a469" opacity="0.96" transform="rotate(242.7420456379841 88.3 172.5)"/><ellipse cx="109.7" cy="174.9" rx="20.1" ry="12.3" fill="#c9a469" opacity="0.96" transform="rotate(310.17154820329665 109.7 174.9)"/><circle cx="97.1841975308642" cy="189.76543209876542" r="11.7" fill="#12150c"/></g><g><ellipse cx="126.4" cy="139.8" rx="13.9" ry="8.5" fill="#f4ede3" opacity="0.96" transform="rotate(6.695437231723168 126.4 139.8)"/><ellipse cx="117.4" cy="150.9" rx="13.9" ry="8.5" fill="#f4ede3" opacity="0.96" transform="rotate(71.10025904984943 117.4 150.9)"/><ellipse cx="103.8" cy="147.9" rx="13.9" ry="8.5" fill="#f4ede3" opacity="0.96" transform="rotate(133.86563758844113 103.8 147.9)"/><ellipse cx="99.8" cy="136.1" rx="13.9" ry="8.5" fill="#f4ede3" opacity="0.96" transform="rotate(188.84642365589454 99.8 136.1)"/><ellipse cx="107.8" cy="125.9" rx="13.9" ry="8.5" fill="#f4ede3" opacity="0.96" transform="rotate(246.87399532374138 107.8 125.9)"/><ellipse cx="121.8" cy="128.0" rx="13.9" ry="8.5" fill="#f4ede3" opacity="0.96" transform="rotate(310.2914670319458 121.8 128.0)"/><circle cx="113.08197530864197" cy="138.19654320987655" r="8.0" fill="#12150c"/></g><g><ellipse cx="118.3" cy="86.3" rx="21.3" ry="13.0" fill="#c9a469" opacity="0.96" transform="rotate(5.886952225669547 118.3 86.3)"/><ellipse cx="104.3" cy="103.7" rx="21.3" ry="13.0" fill="#c9a469" opacity="0.96" transform="rotate(71.4522788371742 104.3 103.7)"/><ellipse cx="85.2" cy="100.5" rx="21.3" ry="13.0" fill="#c9a469" opacity="0.96" transform="rotate(127.81830237227929 85.2 100.5)"/><ellipse cx="77.7" cy="79.7" rx="21.3" ry="13.0" fill="#c9a469" opacity="0.96" transform="rotate(192.71311510316534 77.7 79.7)"/><ellipse cx="88.6" cy="65.8" rx="21.3" ry="13.0" fill="#c9a469" opacity="0.96" transform="rotate(243.54555705206607 88.6 65.8)"/><ellipse cx="110.0" cy="67.7" rx="21.3" ry="13.0" fill="#c9a469" opacity="0.96" transform="rotate(306.53198412272985 110.0 67.7)"/><circle cx="97.77975308641976" cy="84.22765432098765" r="12.4" fill="#12150c"/></g><path d="M 704.0289711934156 163.29053497942385 Q 742.8025514403291 98.66790123456788 833.2742386831276 163.29053497942385 Q 742.8025514403291 227.91316872427984 704.0289711934156 163.29053497942385 Z" fill="#c9a469" opacity="0.752920524691358" transform="rotate(279.55864197530866 704.0289711934156 163.29053497942385)"/><path d="M 710.8651851851852 156.51687242798354 Q 746.2762139917695 97.49849108367627 828.9019478737997 156.51687242798354 Q 746.2762139917695 215.53525377229082 710.8651851851852 156.51687242798354 Z" fill="#c9a469" opacity="0.7024607767489711" transform="rotate(229.195987654321 710.8651851851852 156.51687242798354)"/><path d="M 700.3779423868313 150.6716049382716 Q 735.6214814814814 91.9323731138546 817.8564060356653 150.6716049382716 Q 735.6214814814814 209.4108367626886 700.3779423868313 150.6716049382716 Z" fill="#c9a469" opacity="0.7172402263374485" transform="rotate(286.5185185185185 700.3779423868313 150.6716049382716)"/><path d="M 718.315390946502 177.280658436214 Q 741.7124279835391 138.28559670781894 796.3055144032921 177.280658436214 Q 741.7124279835391 216.27572016460906 718.315390946502 177.280658436214 Z" fill="#c9a469" opacity="0.797721836419753" transform="rotate(79.30401234567901 718.315390946502 177.280658436214)"/><path d="M 747.8479012345679 145.55884773662552 Q 783.3342386831275 86.41495198902606 866.1356927297668 145.55884773662552 Q 783.3342386831275 204.70274348422498 747.8479012345679 145.55884773662552 Z" fill="#c9a469" opacity="0.8388130144032921" transform="rotate(221.9969135802469 747.8479012345679 145.55884773662552)"/><path d="M 769.3013991769548 158.1432098765432 Q 801.0498765432098 105.22908093278463 875.1296570644719 158.1432098765432 Q 801.0498765432098 211.0573388203018 769.3013991769548 158.1432098765432 Z" fill="#c9a469" opacity="0.8465322788065843" transform="rotate(195.70833333333331 769.3013991769548 158.1432098765432)"/><g><ellipse cx="766.4" cy="114.6" rx="13.9" ry="8.5" fill="#c9a469" opacity="0.96" transform="rotate(9.995814620299315 766.4 114.6)"/><ellipse cx="757.4" cy="125.0" rx="13.9" ry="8.5" fill="#c9a469" opacity="0.96" transform="rotate(71.69647606274386 757.4 125.0)"/><ellipse cx="746.1" cy="123.7" rx="13.9" ry="8.5" fill="#c9a469" opacity="0.96" transform="rotate(121.58946175033827 746.1 123.7)"/><ellipse cx="739.7" cy="111.2" rx="13.9" ry="8.5" fill="#c9a469" opacity="0.96" transform="rotate(184.29957815591197 739.7 111.2)"/><ellipse cx="746.6" cy="100.5" rx="13.9" ry="8.5" fill="#c9a469" opacity="0.96" transform="rotate(240.9492806405095 746.6 100.5)"/><ellipse cx="761.6" cy="101.7" rx="13.9" ry="8.5" fill="#c9a469" opacity="0.96" transform="rotate(308.7361449993386 761.6 101.7)"/><circle cx="753.1362962962963" cy="112.23604938271605" r="8.1" fill="#12150c"/></g><g><ellipse cx="791.2" cy="133.9" rx="13.0" ry="7.9" fill="#f4ede3" opacity="0.96" transform="rotate(11.906226558732241 791.2 133.9)"/><ellipse cx="784.3" cy="142.6" rx="13.0" ry="7.9" fill="#f4ede3" opacity="0.96" transform="rotate(64.42232149358198 784.3 142.6)"/><ellipse cx="770.7" cy="140.8" rx="13.0" ry="7.9" fill="#f4ede3" opacity="0.96" transform="rotate(130.99341892601458 770.7 140.8)"/><ellipse cx="766.5" cy="129.5" rx="13.0" ry="7.9" fill="#f4ede3" opacity="0.96" transform="rotate(188.49784240129088 766.5 129.5)"/><ellipse cx="773.0" cy="120.3" rx="13.0" ry="7.9" fill="#f4ede3" opacity="0.96" transform="rotate(241.93128874423977 773.0 120.3)"/><ellipse cx="785.9" cy="120.9" rx="13.0" ry="7.9" fill="#f4ede3" opacity="0.96" transform="rotate(303.7166854573119 785.9 120.9)"/><circle cx="778.9007407407407" cy="131.33382716049383" r="7.5" fill="#12150c"/></g><g><ellipse cx="766.8" cy="120.3" rx="22.9" ry="14.0" fill="#c9a469" opacity="0.96" transform="rotate(2.775264320164925 766.8 120.3)"/><ellipse cx="754.4" cy="139.1" rx="22.9" ry="14.0" fill="#c9a469" opacity="0.96" transform="rotate(64.01172384525809 754.4 139.1)"/><ellipse cx="732.9" cy="138.0" rx="22.9" ry="14.0" fill="#c9a469" opacity="0.96" transform="rotate(122.19402948555539 732.9 138.0)"/><ellipse cx="723.0" cy="114.5" rx="22.9" ry="14.0" fill="#c9a469" opacity="0.96" transform="rotate(192.39769112837251 723.0 114.5)"/><ellipse cx="735.7" cy="99.0" rx="22.9" ry="14.0" fill="#c9a469" opacity="0.96" transform="rotate(246.19586754924023 735.7 99.0)"/><ellipse cx="757.5" cy="101.2" rx="22.9" ry="14.0" fill="#c9a469" opacity="0.96" transform="rotate(305.5607828361232 757.5 101.2)"/><circle cx="744.6651851851851" cy="119.2316049382716" r="13.3" fill="#12150c"/></g><path d="M 35.01240740740741 529.9877366255143 Q 52.75914609053498 500.40983882030173 94.16820301783265 529.9877366255143 Q 52.75914609053498 559.565634430727 35.01240740740741 529.9877366255143 Z" fill="#c9a469" opacity="0.7777038323045267" transform="rotate(69.77932098765432 35.01240740740741 529.9877366255143)"/><path d="M 48.15818930041152 494.90512345679014 Q 68.58550925925925 460.8595901920439 116.24925582990399 494.90512345679014 Q 68.58550925925925 528.9506567215363 48.15818930041152 494.90512345679014 Z" fill="#c9a469" opacity="0.7445666152263374" transform="rotate(132.10185185185185 48.15818930041152 494.90512345679014)"/><path d="M 73.9990329218107 475.791646090535 Q 100.6177366255144 431.42713991769546 162.72804526748973 475.791646090535 Q 100.6177366255144 520.1561522633745 73.9990329218107 475.791646090535 Z" fill="#c9a469" opacity="0.7521315586419752" transform="rotate(229.88734567901233 73.9990329218107 475.791646090535)"/><path d="M 36.46086419753087 523.684341563786 Q 54.91879115226338 492.92112997256515 97.98728737997257 523.684341563786 Q 54.91879115226338 554.4475531550069 36.46086419753087 523.684341563786 Z" fill="#c9a469" opacity="0.8453060699588477" transform="rotate(257.58024691358025 36.46086419753087 523.684341563786)"/><path d="M 44.35849794238683 472.3758024691358 Q 70.39608024691358 428.97983196159123 131.150438957476 472.3758024691358 Q 70.39608024691358 515.7717729766804 44.35849794238683 472.3758024691358 Z" fill="#c9a469" opacity="0.7301086676954732" transform="rotate(56.29166666666667 44.35849794238683 472.3758024691358)"/><g><ellipse cx="45.9" cy="474.0" rx="12.8" ry="7.9" fill="#c9a469" opacity="0.96" transform="rotate(13.40106725686966 45.9 474.0)"/><ellipse cx="37.4" cy="483.0" rx="12.8" ry="7.9" fill="#c9a469" opacity="0.96" transform="rotate(73.70912294726011 37.4 483.0)"/><ellipse cx="25.2" cy="480.0" rx="12.8" ry="7.9" fill="#c9a469" opacity="0.96" transform="rotate(134.14612361469258 25.2 480.0)"/><ellipse cx="21.7" cy="468.8" rx="12.8" ry="7.9" fill="#c9a469" opacity="0.96" transform="rotate(190.68898597545532 21.7 468.8)"/><ellipse cx="30.3" cy="459.2" rx="12.8" ry="7.9" fill="#c9a469" opacity="0.96" transform="rotate(253.10805514713408 30.3 459.2)"/><ellipse cx="41.8" cy="461.6" rx="12.8" ry="7.9" fill="#c9a469" opacity="0.96" transform="rotate(309.9530171683954 41.8 461.6)"/><circle cx="33.87490740740741" cy="471.09345679012347" r="7.4" fill="#12150c"/></g><g><ellipse cx="36.8" cy="499.1" rx="17.7" ry="10.8" fill="#f4ede3" opacity="0.96" transform="rotate(2.778027426815826 36.8 499.1)"/><ellipse cx="28.0" cy="513.3" rx="17.7" ry="10.8" fill="#f4ede3" opacity="0.96" transform="rotate(61.06348904874677 28.0 513.3)"/><ellipse cx="8.5" cy="511.2" rx="17.7" ry="10.8" fill="#f4ede3" opacity="0.96" transform="rotate(131.01662902188215 8.5 511.2)"/><ellipse cx="2.8" cy="495.5" rx="17.7" ry="10.8" fill="#f4ede3" opacity="0.96" transform="rotate(189.51577089148282 2.8 495.5)"/><ellipse cx="11.6" cy="483.3" rx="17.7" ry="10.8" fill="#f4ede3" opacity="0.96" transform="rotate(241.55661148237752 11.6 483.3)"/><ellipse cx="31.6" cy="486.0" rx="17.7" ry="10.8" fill="#f4ede3" opacity="0.96" transform="rotate(313.8860231752878 31.6 486.0)"/><circle cx="19.708518518518517" cy="498.3104012345679" r="10.3" fill="#12150c"/></g><g><ellipse cx="114.4" cy="454.2" rx="17.8" ry="10.9" fill="#c9a469" opacity="0.96" transform="rotate(2.5995307371676244 114.4 454.2)"/><ellipse cx="105.2" cy="468.7" rx="17.8" ry="10.9" fill="#c9a469" opacity="0.96" transform="rotate(62.4433845102067 105.2 468.7)"/><ellipse cx="85.8" cy="466.4" rx="17.8" ry="10.9" fill="#c9a469" opacity="0.96" transform="rotate(131.16970513034207 85.8 466.4)"/><ellipse cx="79.9" cy="453.1" rx="17.8" ry="10.9" fill="#c9a469" opacity="0.96" transform="rotate(180.88216785007765 79.9 453.1)"/><ellipse cx="88.7" cy="438.4" rx="17.8" ry="10.9" fill="#c9a469" opacity="0.96" transform="rotate(240.4497109580266 88.7 438.4)"/><ellipse cx="106.6" cy="438.9" rx="17.8" ry="10.9" fill="#c9a469" opacity="0.96" transform="rotate(303.19666878561236 106.6 438.9)"/><circle cx="97.19212962962963" cy="453.37734567901236" r="10.4" fill="#12150c"/></g><path d="M 714.0468518518519 499.7555144032922 Q 740.2688683127573 456.0521536351166 801.453573388203 499.7555144032922 Q 740.2688683127573 543.4588751714678 714.0468518518519 499.7555144032922 Z" fill="#c9a469" opacity="0.7404468878600823" transform="rotate(0.36265432098765427 714.0468518518519 499.7555144032922)"/><path d="M 748.8593004115227 496.7395679012346 Q 780.5785648148149 443.87412722908095 854.5901817558299 496.7395679012346 Q 780.5785648148149 549.6050085733882 748.8593004115227 496.7395679012346 Z" fill="#c9a469" opacity="0.8093930041152263" transform="rotate(67.68518518518519 748.8593004115227 496.7395679012346)"/><path d="M 723.5668106995885 499.2927572016461 Q 746.0941255144032 461.7472325102881 798.6578600823045 499.2927572016461 Q 746.0941255144032 536.8382818930041 723.5668106995885 499.2927572016461 Z" fill="#c9a469" opacity="0.7440412808641975" transform="rotate(110.47067901234568 723.5668106995885 499.2927572016461)"/><path d="M 749.2953086419753 496.0521193415638 Q 776.8785133744856 450.0801114540467 841.2393244170096 496.0521193415638 Q 776.8785133744856 542.0241272290809 749.2953086419753 496.0521193415638 Z" fill="#c9a469" opacity="0.7392991255144032" transform="rotate(23.16358024691358 749.2953086419753 496.0521193415638)"/><path d="M 747.659609053498 508.01024691358026 Q 777.8391358024692 457.71103566529496 848.2580315500686 508.01024691358026 Q 777.8391358024692 558.3094581618656 747.659609053498 508.01024691358026 Z" fill="#c9a469" opacity="0.8011850565843621" transform="rotate(6.875000000000001 747.659609053498 508.01024691358026)"/><path d="M 728.0967489711934 512.248621399177 Q 760.1945113168724 458.7523508230453 835.0892901234567 512.248621399177 Q 760.1945113168724 565.7448919753086 728.0967489711934 512.248621399177 Z" fill="#c9a469" opacity="0.7634953703703703" transform="rotate(129.3827160493827 728.0967489711934 512.248621399177)"/><path d="M 732.3993209876543 469.67094650205763 Q 751.3409362139918 438.1015877914952 795.5380384087791 469.67094650205763 Q 751.3409362139918 501.24030521262006 732.3993209876543 469.67094650205763 Z" fill="#c9a469" opacity="0.7044708076131687" transform="rotate(125.13117283950618 732.3993209876543 469.67094650205763)"/><g><ellipse cx="780.1" cy="534.1" rx="17.6" ry="10.8" fill="#c9a469" opacity="0.96" transform="rotate(1.285642823479207 780.1 534.1)"/><ellipse cx="771.5" cy="548.5" rx="17.6" ry="10.8" fill="#c9a469" opacity="0.96" transform="rotate(60.296880459046804 771.5 548.5)"/><ellipse cx="751.2" cy="545.9" rx="17.6" ry="10.8" fill="#c9a469" opacity="0.96" transform="rotate(134.11468560124234 751.2 545.9)"/><ellipse cx="746.1" cy="532.3" rx="17.6" ry="10.8" fill="#c9a469" opacity="0.96" transform="rotate(184.762920440083 746.1 532.3)"/><ellipse cx="758.2" cy="517.4" rx="17.6" ry="10.8" fill="#c9a469" opacity="0.96" transform="rotate(253.31240223456072 758.2 517.4)"/><ellipse cx="773.0" cy="519.8" rx="17.6" ry="10.8" fill="#c9a469" opacity="0.96" transform="rotate(305.5006085135036 773.0 519.8)"/><circle cx="763.0620679012345" cy="533.6732098765432" r="10.2" fill="#12150c"/></g><g><ellipse cx="790.2" cy="454.5" rx="14.1" ry="8.6" fill="#f4ede3" opacity="0.96" transform="rotate(4.45603139472297 790.2 454.5)"/><ellipse cx="781.4" cy="466.2" rx="14.1" ry="8.6" fill="#f4ede3" opacity="0.96" transform="rotate(69.40242211642583 781.4 466.2)"/><ellipse cx="768.4" cy="464.3" rx="14.1" ry="8.6" fill="#f4ede3" opacity="0.96" transform="rotate(127.27157566962101 768.4 464.3)"/><ellipse cx="763.3" cy="450.4" rx="14.1" ry="8.6" fill="#f4ede3" opacity="0.96" transform="rotate(192.6084854646512 763.3 450.4)"/><ellipse cx="770.7" cy="441.1" rx="14.1" ry="8.6" fill="#f4ede3" opacity="0.96" transform="rotate(244.41354095466912 770.7 441.1)"/><ellipse cx="783.6" cy="441.7" rx="14.1" ry="8.6" fill="#f4ede3" opacity="0.96" transform="rotate(300.9453508888283 783.6 441.7)"/><circle cx="776.629012345679" cy="453.423487654321" r="8.2" fill="#12150c"/></g><g><ellipse cx="709.1" cy="489.2" rx="14.9" ry="9.2" fill="#c9a469" opacity="0.96" transform="rotate(3.7470182281017825 709.1 489.2)"/><ellipse cx="701.0" cy="501.2" rx="14.9" ry="9.2" fill="#c9a469" opacity="0.96" transform="rotate(63.88560337723697 701.0 501.2)"/><ellipse cx="686.6" cy="500.2" rx="14.9" ry="9.2" fill="#c9a469" opacity="0.96" transform="rotate(123.71103643927003 686.6 500.2)"/><ellipse cx="680.6" cy="485.0" rx="14.9" ry="9.2" fill="#c9a469" opacity="0.96" transform="rotate(192.9936625317868 680.6 485.0)"/><ellipse cx="688.8" cy="475.0" rx="14.9" ry="9.2" fill="#c9a469" opacity="0.96" transform="rotate(245.9592228151831 688.8 475.0)"/><ellipse cx="704.0" cy="477.2" rx="14.9" ry="9.2" fill="#c9a469" opacity="0.96" transform="rotate(310.41562262412623 704.0 477.2)"/><circle cx="694.6459567901235" cy="488.2237654320988" r="8.7" fill="#12150c"/></g><g><ellipse cx="740.6" cy="474.9" rx="13.3" ry="8.2" fill="#f4ede3" opacity="0.96" transform="rotate(2.7395895431832926 740.6 474.9)"/><ellipse cx="733.8" cy="485.6" rx="13.3" ry="8.2" fill="#f4ede3" opacity="0.96" transform="rotate(61.65135533931845 733.8 485.6)"/><ellipse cx="720.0" cy="484.6" rx="13.3" ry="8.2" fill="#f4ede3" opacity="0.96" transform="rotate(127.01405412975704 720.0 484.6)"/><ellipse cx="715.0" cy="472.1" rx="13.3" ry="8.2" fill="#f4ede3" opacity="0.96" transform="rotate(189.49943786105746 715.0 472.1)"/><ellipse cx="722.7" cy="462.4" rx="13.3" ry="8.2" fill="#f4ede3" opacity="0.96" transform="rotate(247.20648915739977 722.7 462.4)"/><ellipse cx="735.8" cy="464.2" rx="13.3" ry="8.2" fill="#f4ede3" opacity="0.96" transform="rotate(308.84452018242393 735.8 464.2)"/><circle cx="727.7129012345679" cy="474.27404320987654" r="7.7" fill="#12150c"/></g>
  <rect width="800" height="1000" fill="url(#v6)"/>
  <rect width="800" height="1000" filter="url(#n6)" opacity="0.5"/>
</svg>