<svg width="800" height="1000" viewBox="0 0 800 1000" xmlns="http://www.w3.org/2000/svg" role="img">
  <defs>
    <linearGradient id="g5" x1="0.2" y1="0" x2="0.8" y2="1">
      <stop offset="0%" stop-color="#f5e2d8"/>
      <stop offset="100%" stop-color="#e3bfab"/>
    </linearGradient>
    <radialGradient id="glow5" cx="50%" cy="30%" r="65%">
      <stop offset="0%" stop-color="#fff6e8" stop-opacity="0.55"/>
      <stop offset="100%" stop-color="#fff6e8" stop-opacity="0"/>
    </radialGradient>
    <filter id="n5"><feTurbulence type="fractalNoise" baseFrequency="0.85" numOctaves="2" stitchTiles="stitch" result="noise"/><feColorMatrix in="noise" type="matrix" values="0 0 0 0 0  0 0 0 0 0  0 0 0 0 0  0 0 0 0.035 0"/></filter>
  </defs>
  <rect width="800" height="1000" fill="url(#g5)"/>
  <rect width="800" height="1000" fill="url(#glow5)"/>
  <path d="M 400 620
    C 118.39999999999998 514.4, 224 160, 329.6 160
    C 382.4 160, 400 221.6, 400 221.6
    C 400 221.6, 417.6 160, 470.4 160
    C 576 160, 681.6 514.4, 400 620 Z" fill="none" stroke="#ad8253" stroke-width="5.6000000000000005"/><g fill="none" stroke="#5b4f3d" stroke-width="1.6464043209876544"><ellipse cx="600.4" cy="481.3" rx="16.5" ry="9.9" transform="rotate(10.186849673905604 600.4 481.3)"/><ellipse cx="584.6" cy="497.7" rx="16.5" ry="9.9" transform="rotate(78.00937627101547 584.6 497.7)"/><ellipse cx="562.1" cy="486.9" rx="16.5" ry="9.9" transform="rotate(153.3269217622492 562.1 486.9)"/><ellipse cx="565.2" cy="464.0" rx="16.5" ry="9.9" transform="rotate(222.31068998117772 565.2 464.0)"/><ellipse cx="588.1" cy="458.8" rx="16.5" ry="9.9" transform="rotate(292.3525438402912 588.1 458.8)"/><circle cx="580.3397204957257" cy="477.7109645496804" r="4.6" fill="#5b4f3d" stroke="none"/></g><g fill="none" stroke="#5b4f3d" stroke-width="1.4122530864197533"><ellipse cx="515.6" cy="559.5" rx="14.1" ry="8.5" transform="rotate(1.771384692233592 515.6 559.5)"/><ellipse cx="500.2" cy="576.4" rx="14.1" ry="8.5" transform="rotate(83.26355251268069 500.2 576.4)"/><ellipse cx="483.1" cy="568.0" rx="14.1" ry="8.5" transform="rotate(149.12022083122955 483.1 568.0)"/><ellipse cx="484.2" cy="548.4" rx="14.1" ry="8.5" transform="rotate(217.3435820998301 484.2 548.4)"/><ellipse cx="506.0" cy="543.3" rx="14.1" ry="8.5" transform="rotate(296.59873877570783 506.0 543.3)"/><circle cx="498.12546713785866" cy="558.9765274193312" r="4.0" fill="#5b4f3d" stroke="none"/></g><g fill="none" stroke="#5b4f3d" stroke-width="1.7058796296296297"><ellipse cx="403.2" cy="586.1" rx="17.1" ry="10.2" transform="rotate(9.801930496724097 403.2 586.1)"/><ellipse cx="388.5" cy="602.7" rx="17.1" ry="10.2" transform="rotate(73.13275092212935 388.5 602.7)"/><ellipse cx="363.8" cy="592.7" rx="17.1" ry="10.2" transform="rotate(151.17361432849108 363.8 592.7)"/><ellipse cx="367.4" cy="567.5" rx="17.1" ry="10.2" transform="rotate(225.0027663704395 367.4 567.5)"/><ellipse cx="390.7" cy="563.0" rx="17.1" ry="10.2" transform="rotate(293.0993931473188 390.7 563.0)"/><circle cx="382.359677667874" cy="582.4648156713253" r="4.8" fill="#5b4f3d" stroke="none"/></g><g fill="none" stroke="#5b4f3d" stroke-width="1.5272839506172842"><ellipse cx="291.5" cy="541.4" rx="15.3" ry="9.2" transform="rotate(3.7207380137332136 291.5 541.4)"/><ellipse cx="277.7" cy="558.4" rx="15.3" ry="9.2" transform="rotate(74.3550019387999 277.7 558.4)"/><ellipse cx="255.9" cy="549.1" rx="15.3" ry="9.2" transform="rotate(151.84766498562288 255.9 549.1)"/><ellipse cx="259.5" cy="526.5" rx="15.3" ry="9.2" transform="rotate(226.18964962197853 259.5 526.5)"/><ellipse cx="281.3" cy="523.3" rx="15.3" ry="9.2" transform="rotate(297.1333814919461 281.3 523.3)"/><circle cx="272.62555285151296" cy="540.1445997534868" r="4.3" fill="#5b4f3d" stroke="none"/></g><g fill="none" stroke="#5b4f3d" stroke-width="1.6764660493827162"><ellipse cx="226.9" cy="450.2" rx="16.8" ry="10.1" transform="rotate(10.265837682699365 226.9 450.2)"/><ellipse cx="210.3" cy="466.9" rx="16.8" ry="10.1" transform="rotate(79.29086829428132 210.3 466.9)"/><ellipse cx="187.6" cy="455.3" rx="16.8" ry="10.1" transform="rotate(154.96209143683038 187.6 455.3)"/><ellipse cx="191.7" cy="431.9" rx="16.8" ry="10.1" transform="rotate(224.7239504886526 191.7 431.9)"/><ellipse cx="213.4" cy="426.9" rx="16.8" ry="10.1" transform="rotate(289.6021106385624 213.4 426.9)"/><circle cx="206.44391739308165" cy="446.4862133524328" r="4.7" fill="#5b4f3d" stroke="none"/></g><g fill="none" stroke="#5b4f3d" stroke-width="1.7534259259259262"><ellipse cx="227.8" cy="337.4" rx="17.5" ry="10.5" transform="rotate(10.338636332595101 227.8 337.4)"/><ellipse cx="210.1" cy="354.9" rx="17.5" ry="10.5" transform="rotate(80.30091272016267 210.1 354.9)"/><ellipse cx="187.1" cy="343.4" rx="17.5" ry="10.5" transform="rotate(152.87745641370267 187.1 343.4)"/><ellipse cx="190.9" cy="318.3" rx="17.5" ry="10.5" transform="rotate(224.42538760466726 190.9 318.3)"/><ellipse cx="216.4" cy="314.2" rx="17.5" ry="10.5" transform="rotate(297.24361102660606 216.4 314.2)"/><circle cx="206.44391739308162" cy="333.5137866475673" r="4.9" fill="#5b4f3d" stroke="none"/></g><g fill="none" stroke="#5b4f3d" stroke-width="1.9581635802469137"><ellipse cx="296.7" cy="243.1" rx="19.6" ry="11.7" transform="rotate(7.758852597625915 296.7 243.1)"/><ellipse cx="276.3" cy="263.9" rx="19.6" ry="11.7" transform="rotate(81.20485385064941 276.3 263.9)"/><ellipse cx="251.7" cy="252.2" rx="19.6" ry="11.7" transform="rotate(149.41347855044518 251.7 252.2)"/><ellipse cx="253.4" cy="225.0" rx="19.6" ry="11.7" transform="rotate(217.65452370161148 253.4 225.0)"/><ellipse cx="280.7" cy="217.0" rx="19.6" ry="11.7" transform="rotate(289.50013358243314 280.7 217.0)"/><circle cx="272.62555285151285" cy="239.85540024651328" r="5.5" fill="#5b4f3d" stroke="none"/></g><g fill="none" stroke="#5b4f3d" stroke-width="1.8906790123456791"><ellipse cx="405.7" cy="200.1" rx="18.9" ry="11.3" transform="rotate(6.346205111997294 405.7 200.1)"/><ellipse cx="388.7" cy="220.1" rx="18.9" ry="11.3" transform="rotate(74.36325441733058 388.7 220.1)"/><ellipse cx="362.4" cy="209.8" rx="18.9" ry="11.3" transform="rotate(148.3898764812634 362.4 209.8)"/><ellipse cx="364.3" cy="182.6" rx="18.9" ry="11.3" transform="rotate(219.69023331630729 364.3 182.6)"/><ellipse cx="391.6" cy="176.0" rx="18.9" ry="11.3" transform="rotate(293.1097087454821 391.6 176.0)"/><circle cx="382.359677667874" cy="197.53518432867475" r="5.3" fill="#5b4f3d" stroke="none"/></g><g fill="none" stroke="#5b4f3d" stroke-width="1.7509722222222224"><ellipse cx="519.5" cy="224.8" rx="17.5" ry="10.5" transform="rotate(9.92041250991473 519.5 224.8)"/><ellipse cx="503.7" cy="242.0" rx="17.5" ry="10.5" transform="rotate(75.05498895702813 503.7 242.0)"/><ellipse cx="478.7" cy="230.7" rx="17.5" ry="10.5" transform="rotate(153.62636884036286 478.7 230.7)"/><ellipse cx="482.2" cy="206.2" rx="17.5" ry="10.5" transform="rotate(222.89307918034362 482.2 206.2)"/><ellipse cx="505.2" cy="200.5" rx="17.5" ry="10.5" transform="rotate(288.9737433447255 505.2 200.5)"/><circle cx="498.1254671378585" cy="221.02347258066868" r="4.9" fill="#5b4f3d" stroke="none"/></g><g fill="none" stroke="#5b4f3d" stroke-width="1.7390432098765434"><ellipse cx="601.5" cy="306.3" rx="17.4" ry="10.4" transform="rotate(10.842037522967242 601.5 306.3)"/><ellipse cx="585.7" cy="323.2" rx="17.4" ry="10.4" transform="rotate(75.6406202013311 585.7 323.2)"/><ellipse cx="562.5" cy="314.3" rx="17.4" ry="10.4" transform="rotate(146.0243624567161 562.5 314.3)"/><ellipse cx="563.7" cy="288.5" rx="17.4" ry="10.4" transform="rotate(219.62362402530954 563.7 288.5)"/><ellipse cx="588.5" cy="282.3" rx="17.4" ry="10.4" transform="rotate(292.3711119169853 588.5 282.3)"/><circle cx="580.3397204957256" cy="302.2890354503195" r="4.9" fill="#5b4f3d" stroke="none"/></g><g stroke="#c99a5f" stroke-width="2.16" fill="none" transform="rotate(-30 294.4 248)"><path d="M 294.4 248 Q 318.4 243.2 342.4 248" /><path d="M 306.4 246 q 5.76 -7.68 2.4000000000000004 -13.440000000000001" /><path d="M 318.4 250 q 5.76 7.68 2.4000000000000004 13.440000000000001" /><path d="M 330.4 246 q 5.76 -7.68 2.4000000000000004 -13.440000000000001" /></g><g stroke="#c99a5f" stroke-width="2.16" fill="none" transform="rotate(30 505.6 248)"><path d="M 505.6 248 Q 529.6 243.2 553.6 248" /><path d="M 517.6 246 q 5.76 -7.68 2.4000000000000004 -13.440000000000001" /><path d="M 529.6 250 q 5.76 7.68 2.4000000000000004 13.440000000000001" /><path d="M 541.6 246 q 5.76 -7.68 2.4000000000000004 -13.440000000000001" /></g>
    <rect x="107.20000000000002" y="817.4383744855967" width="9.6" height="42.561625514403296" rx="4.8" fill="none" stroke="#5b4f3d" stroke-width="1.152"/>
    <circle cx="112.00000000000001" cy="802.0783744855967" r="24.96" fill="#c99a5f" opacity="0.28"/>
    <path d="M 112.00000000000001 815.4383744855967 q 4.8 -13.44 0 -23.04 q -4.8 9.6 0 23.04" fill="#c99a5f"/>
  
    <rect x="251.2" y="816.404098079561" width="9.6" height="43.59590192043896" rx="4.8" fill="none" stroke="#5b4f3d" stroke-width="1.152"/>
    <circle cx="256" cy="801.044098079561" r="24.96" fill="#c99a5f" opacity="0.28"/>
    <path d="M 256 814.404098079561 q 4.8 -13.44 0 -23.04 q -4.8 9.6 0 23.04" fill="#c99a5f"/>
  
    <rect x="395.2" y="800.5992455418382" width="9.6" height="59.40075445816186" rx="4.8" fill="none" stroke="#5b4f3d" stroke-width="1.152"/>
    <circle cx="400" cy="785.2392455418382" r="24.96" fill="#c99a5f" opacity="0.28"/>
    <path d="M 400 798.5992455418382 q 4.8 -13.44 0 -23.04 q -4.8 9.6 0 23.04" fill="#c99a5f"/>
  
    <rect x="539.2" y="799.66579218107" width="9.6" height="60.33420781893004" rx="4.8" fill="none" stroke="#5b4f3d" stroke-width="1.152"/>
    <circle cx="544" cy="784.3057921810699" r="24.96" fill="#c99a5f" opacity="0.28"/>
    <path d="M 544 797.66579218107 q 4.8 -13.44 0 -23.04 q -4.8 9.6 0 23.04" fill="#c99a5f"/>
  
    <rect x="683.2" y="797.6160836762689" width="9.6" height="62.38391632373115" rx="4.8" fill="none" stroke="#5b4f3d" stroke-width="1.152"/>
    <circle cx="688" cy="782.2560836762689" r="24.96" fill="#c99a5f" opacity="0.28"/>
    <path d="M 688 795.6160836762689 q 4.8 -13.44 0 -23.04 q -4.8 9.6 0 23.04" fill="#c99a5f"/>
  
  <rect width="800" height="1000" filter="url(#n5)" opacity="0.4"/>
</svg>