<svg width="800" height="1000" viewBox="0 0 800 1000" xmlns="http://www.w3.org/2000/svg" role="img">
  <defs>
    <linearGradient id="g3" x1="0.1" y1="0" x2="0.9" y2="1">
      <stop offset="0%" stop-color="#332a20"/>
      <stop offset="100%" stop-color="#191410"/>
    </linearGradient>
    <radialGradient id="v3" cx="50%" cy="42%" r="72%">
      <stop offset="0%" stop-color="#000000" stop-opacity="0"/>
      <stop offset="100%" stop-color="#000000" stop-opacity="0.3"/>
    </radialGradient>
    <filter id="n3"><feTurbulence type="fractalNoise" baseFrequency="0.8" numOctaves="2" stitchTiles="stitch" result="noise"/><feColorMatrix in="noise" type="matrix" values="0 0 0 0 0  0 0 0 0 0  0 0 0 0 0  0 0 0 0.06 0"/></filter>
  </defs>
  <rect width="800" height="1000" fill="url(#g3)"/>
  <path d="M 168.00000000000003 920 L 168.00000000000003 392 A 231.99999999999997 231.99999999999997 0 0 1 632 392 L 632 920" fill="none" stroke="#c9a469" stroke-width="6.4" opacity="0.85"/><path d="M 159.08181069958852 404.15078189300414 Q 198.12230452674902 339.08329218106996 289.2167901234568 404.15078189300414 Q 198.12230452674902 469.2182716049383 159.08181069958852 404.15078189300414 Z" fill="#c9a469" opacity="0.7379918981481481" transform="rotate(78.17438271604938 159.08181069958852 404.15078189300414)"/><path d="M 158.51061728395064 390.6808230452675 Q 187.89226337448562 341.7114128943759 256.4494375857339 390.6808230452675 Q 187.89226337448562 439.65023319615915 158.51061728395064 390.6808230452675 Z" fill="#b08d57" opacity="0.8425090020576131" transform="rotate(346.42283950617286 158.51061728395064 390.6808230452675)"/><path d="M 178.30485596707823 407.2948148148148 Q 206.3782716049383 360.50578875171465 271.8829080932785 407.2948148148148 Q 206.3782716049383 454.08384087791495 178.30485596707823 407.2948148148148 Z" fill="#c9a469" opacity="0.7025430812757201" transform="rotate(259.02314814814815 178.30485596707823 407.2948148148148)"/><path d="M 195.94600823045272 366.05201646090535 Q 231.12106995884778 307.4269135802469 313.1962139917696 366.05201646090535 Q 231.12106995884778 424.6771193415638 195.94600823045272 366.05201646090535 Z" fill="#b08d57" opacity="0.7352237654320988" transform="rotate(323.7530864197531 195.94600823045272 366.05201646090535)"/><path d="M 177.53777777777782 415.10057613168726 Q 214.7725102880659 353.04268861454045 301.6535528120714 415.10057613168726 Q 214.7725102880659 477.1584636488341 177.53777777777782 415.10057613168726 Z" fill="#c9a469" opacity="0.752125128600823" transform="rotate(115.0570987654321 177.53777777777782 415.10057613168726)"/><g><ellipse cx="213.8" cy="348.8" rx="20.8" ry="12.7" fill="#b08d57" opacity="0.96" transform="rotate(7.251005875664321 213.8 348.8)"/><ellipse cx="201.5" cy="364.9" rx="20.8" ry="12.7" fill="#b08d57" opacity="0.96" transform="rotate(67.50011529083554 201.5 364.9)"/><ellipse cx="182.6" cy="363.0" rx="20.8" ry="12.7" fill="#b08d57" opacity="0.96" transform="rotate(123.98771551858026 182.6 363.0)"/><ellipse cx="173.9" cy="343.5" rx="20.8" ry="12.7" fill="#b08d57" opacity="0.96" transform="rotate(188.07570110740323 173.9 343.5)"/><ellipse cx="183.9" cy="328.8" rx="20.8" ry="12.7" fill="#b08d57" opacity="0.96" transform="rotate(240.35601094137607 183.9 328.8)"/><ellipse cx="205.5" cy="329.9" rx="20.8" ry="12.7" fill="#b08d57" opacity="0.96" transform="rotate(305.4534514933282 205.5 329.9)"/><circle cx="193.81679012345683" cy="346.30913580246914" r="12.1" fill="#0f0c09"/></g><g><ellipse cx="163.7" cy="337.9" rx="17.7" ry="10.9" fill="#e8dcc8" opacity="0.96" transform="rotate(2.4636472923133166 163.7 337.9)"/><ellipse cx="151.4" cy="353.6" rx="17.7" ry="10.9" fill="#e8dcc8" opacity="0.96" transform="rotate(73.42255808637667 151.4 353.6)"/><ellipse cx="134.8" cy="349.7" rx="17.7" ry="10.9" fill="#e8dcc8" opacity="0.96" transform="rotate(133.06009989614847 134.8 349.7)"/><ellipse cx="129.5" cy="334.8" rx="17.7" ry="10.9" fill="#e8dcc8" opacity="0.96" transform="rotate(187.96351897737662 129.5 334.8)"/><ellipse cx="138.6" cy="321.9" rx="17.7" ry="10.9" fill="#e8dcc8" opacity="0.96" transform="rotate(242.59799567791714 138.6 321.9)"/><ellipse cx="155.7" cy="322.7" rx="17.7" ry="10.9" fill="#e8dcc8" opacity="0.96" transform="rotate(302.48974329957184 155.7 322.7)"/><circle cx="146.51456790123459" cy="337.14024691358026" r="10.3" fill="#0f0c09"/></g><g><ellipse cx="231.2" cy="357.1" rx="20.0" ry="12.2" fill="#b08d57" opacity="0.96" transform="rotate(8.120831849367944 231.2 357.1)"/><ellipse cx="220.3" cy="371.9" rx="20.0" ry="12.2" fill="#b08d57" opacity="0.96" transform="rotate(64.7226404853499 220.3 371.9)"/><ellipse cx="199.3" cy="368.9" rx="20.0" ry="12.2" fill="#b08d57" opacity="0.96" transform="rotate(131.09111009671645 199.3 368.9)"/><ellipse cx="192.7" cy="354.2" rx="20.0" ry="12.2" fill="#b08d57" opacity="0.96" transform="rotate(180.3909488899175 192.7 354.2)"/><ellipse cx="202.6" cy="337.5" rx="20.0" ry="12.2" fill="#b08d57" opacity="0.96" transform="rotate(240.9605786765932 202.6 337.5)"/><ellipse cx="225.3" cy="340.4" rx="20.0" ry="12.2" fill="#b08d57" opacity="0.96" transform="rotate(313.5515644657888 225.3 340.4)"/><circle cx="212.01234567901238" cy="354.37135802469135" r="11.6" fill="#0f0c09"/></g><path d="M 246.1809791157118 563.0414048693023 Q 278.5859173873167 509.03317441662733 354.1974400210616 563.0414048693023 Q 278.5859173873167 617.0496353219771 246.1809791157118 563.0414048693023 Z" fill="#c9a469" opacity="0.7174016203703704" transform="rotate(288.75771604938274 246.1809791157118 563.0414048693023)"/><path d="M 246.67645236674062 563.4381126882323 Q 285.68920956838673 498.41685068548884 376.7189763722276 563.4381126882323 Q 285.68920956838673 628.4593746909758 246.67645236674062 563.4381126882323 Z" fill="#b08d57" opacity="0.7240020576131687" transform="rotate(82.00617283950618 246.67645236674062 563.4381126882323)"/><path d="M 177.93735771653485 504.31877112444636 Q 209.50855113217273 451.7001154317166 283.17466910199437 504.31877112444636 Q 209.50855113217273 556.9374268171762 177.93735771653485 504.31877112444636 Z" fill="#c9a469" opacity="0.761119470164609" transform="rotate(179.6064814814815 177.93735771653485 504.31877112444636)"/><path d="M 247.84517664657602 528.1426394372036 Q 277.1846828194155 479.24346248247105 345.643530556041 528.1426394372036 Q 277.1846828194155 577.0418163919361 247.84517664657602 528.1426394372036 Z" fill="#b08d57" opacity="0.7958834876543209" transform="rotate(9.336419753086421 247.84517664657602 528.1426394372036)"/><path d="M 192.10361286056778 552.6578657746521 Q 230.16945648196696 489.21479307232016 318.98975826523167 552.6578657746521 Q 230.16945648196696 616.1009384769841 192.10361286056778 552.6578657746521 Z" fill="#c9a469" opacity="0.7898681841563786" transform="rotate(225.64043209876544 192.10361286056778 552.6578657746521)"/><path d="M 178.77192561776943 509.83482050716236 Q 218.09250174945666 444.3005269543503 309.84051272339354 509.83482050716236 Q 218.09250174945666 575.3691140599744 178.77192561776943 509.83482050716236 Z" fill="#b08d57" opacity="0.7657587448559671" transform="rotate(229.62962962962962 178.77192561776943 509.83482050716236)"/><path d="M 227.9982630663291 559.1994295606603 Q 259.0278926959587 507.48338017794424 331.43036183176116 559.1994295606603 Q 259.0278926959587 610.9154789433763 227.9982630663291 559.1994295606603 Z" fill="#c9a469" opacity="0.8240181327160493" transform="rotate(249.08179012345678 227.9982630663291 559.1994295606603)"/><g><ellipse cx="181.7" cy="543.4" rx="15.2" ry="9.3" fill="#b08d57" opacity="0.96" transform="rotate(10.461612999271196 181.7 543.4)"/><ellipse cx="173.7" cy="554.0" rx="15.2" ry="9.3" fill="#b08d57" opacity="0.96" transform="rotate(63.93190076423206 173.7 554.0)"/><ellipse cx="158.9" cy="552.9" rx="15.2" ry="9.3" fill="#b08d57" opacity="0.96" transform="rotate(124.60468653254144 158.9 552.9)"/><ellipse cx="152.5" cy="540.1" rx="15.2" ry="9.3" fill="#b08d57" opacity="0.96" transform="rotate(182.6212057737847 152.5 540.1)"/><ellipse cx="160.7" cy="527.5" rx="15.2" ry="9.3" fill="#b08d57" opacity="0.96" transform="rotate(243.50767178976375 160.7 527.5)"/><ellipse cx="177.2" cy="529.8" rx="15.2" ry="9.3" fill="#b08d57" opacity="0.96" transform="rotate(312.25978140530754 177.2 529.8)"/><circle cx="167.23497088525914" cy="540.7335859392612" r="8.9" fill="#0f0c09"/></g><g><ellipse cx="271.4" cy="579.4" rx="15.5" ry="9.5" fill="#e8dcc8" opacity="0.96" transform="rotate(3.5521885080282556 271.4 579.4)"/><ellipse cx="261.4" cy="592.6" rx="15.5" ry="9.5" fill="#e8dcc8" opacity="0.96" transform="rotate(70.91537651371915 261.4 592.6)"/><ellipse cx="246.2" cy="589.4" rx="15.5" ry="9.5" fill="#e8dcc8" opacity="0.96" transform="rotate(133.14655443313666 246.2 589.4)"/><ellipse cx="241.7" cy="575.9" rx="15.5" ry="9.5" fill="#e8dcc8" opacity="0.96" transform="rotate(189.9362543213799 241.7 575.9)"/><ellipse cx="249.4" cy="565.3" rx="15.5" ry="9.5" fill="#e8dcc8" opacity="0.96" transform="rotate(242.03604118749385 249.4 565.3)"/><ellipse cx="264.8" cy="566.1" rx="15.5" ry="9.5" fill="#e8dcc8" opacity="0.96" transform="rotate(303.9909084418213 264.8 566.1)"/><circle cx="256.46608199637024" cy="578.4980303837056" r="9.0" fill="#0f0c09"/></g><g><ellipse cx="248.3" cy="530.0" rx="21.0" ry="12.9" fill="#b08d57" opacity="0.96" transform="rotate(7.087307157190945 248.3 530.0)"/><ellipse cx="237.2" cy="545.6" rx="21.0" ry="12.9" fill="#b08d57" opacity="0.96" transform="rotate(63.27649186663835 237.2 545.6)"/><ellipse cx="214.9" cy="542.9" rx="21.0" ry="12.9" fill="#b08d57" opacity="0.96" transform="rotate(130.64704815673164 214.9 542.9)"/><ellipse cx="208.1" cy="524.0" rx="21.0" ry="12.9" fill="#b08d57" opacity="0.96" transform="rotate(189.79091491154247 208.1 524.0)"/><ellipse cx="221.5" cy="508.2" rx="21.0" ry="12.9" fill="#b08d57" opacity="0.96" transform="rotate(251.00895372562968 221.5 508.2)"/><ellipse cx="241.1" cy="511.8" rx="21.0" ry="12.9" fill="#b08d57" opacity="0.96" transform="rotate(309.74756483830834 241.1 511.8)"/><circle cx="228.09719310748136" cy="527.46247482815" r="12.2" fill="#0f0c09"/></g><path d="M 345.2618021609793 645.255482150846 Q 385.13077335439493 578.8071968284866 478.1583728056981 645.255482150846 Q 385.13077335439493 711.7037674732054 345.2618021609793 645.255482150846 Z" fill="#c9a469" opacity="0.7071958590534979" transform="rotate(190.18981481481484 345.2618021609793 645.255482150846)"/><path d="M 313.8362877576871 580.5460171302699 Q 342.14023837497103 533.3727661014633 408.1827898153003 580.5460171302699 Q 342.14023837497103 627.7192681590765 313.8362877576871 580.5460171302699 Z" fill="#b08d57" opacity="0.7440432098765432" transform="rotate(144.91975308641975 313.8362877576871 580.5460171302699)"/><path d="M 297.56139063834553 580.5279101343851 Q 322.0583453708558 539.699652246868 379.2179064133798 580.5279101343851 Q 322.0583453708558 621.3561680219022 297.56139063834553 580.5279101343851 Z" fill="#c9a469" opacity="0.7151112397119341" transform="rotate(66.22376543209876 297.56139063834553 580.5279101343851)"/><path d="M 310.89637006221386 577.1715315335621 Q 340.11472397167887 528.474275017787 408.2908830937639 577.1715315335621 Q 340.11472397167887 625.8687880493371 310.89637006221386 577.1715315335621 Z" fill="#b08d57" opacity="0.7930851337448559" transform="rotate(75.21296296296296 310.89637006221386 577.1715315335621)"/><path d="M 297.1893741774402 576.4028072537267 Q 318.38344825151427 541.0793504636032 367.8362877576871 576.4028072537267 Q 318.38344825151427 611.7262640438502 297.1893741774402 576.4028072537267 Z" fill="#c9a469" opacity="0.7784278549382716" transform="rotate(39.66512345679012 297.1893741774402 576.4028072537267)"/><path d="M 290.81077335439494 615.4365521096937 Q 320.4497033955472 566.03833537444 389.6072068249025 615.4365521096937 Q 320.4497033955472 664.8347688449475 290.81077335439494 615.4365521096937 Z" fill="#b08d57" opacity="0.8160468106995884" transform="rotate(94.0246913580247 290.81077335439494 615.4365521096937)"/><g><ellipse cx="327.9" cy="605.5" rx="19.0" ry="11.6" fill="#b08d57" opacity="0.96" transform="rotate(1.142145484742417 327.9 605.5)"/><ellipse cx="315.2" cy="622.6" rx="19.0" ry="11.6" fill="#b08d57" opacity="0.96" transform="rotate(72.07895142559855 315.2 622.6)"/><ellipse cx="298.6" cy="619.9" rx="19.0" ry="11.6" fill="#b08d57" opacity="0.96" transform="rotate(126.65448185091982 298.6 619.9)"/><ellipse cx="291.2" cy="604.3" rx="19.0" ry="11.6" fill="#b08d57" opacity="0.96" transform="rotate(182.59682903288677 291.2 604.3)"/><ellipse cx="302.0" cy="588.3" rx="19.0" ry="11.6" fill="#b08d57" opacity="0.96" transform="rotate(245.96272275027422 302.0 588.3)"/><ellipse cx="322.4" cy="592.0" rx="19.0" ry="11.6" fill="#b08d57" opacity="0.96" transform="rotate(314.3206291502895 322.4 592.0)"/><circle cx="309.52781039143196" cy="605.1127661014633" r="11.0" fill="#0f0c09"/></g><g><ellipse cx="296.0" cy="621.3" rx="19.2" ry="11.8" fill="#e8dcc8" opacity="0.96" transform="rotate(1.825738070175315 296.0 621.3)"/><ellipse cx="283.7" cy="638.3" rx="19.2" ry="11.8" fill="#e8dcc8" opacity="0.96" transform="rotate(70.34206258484221 283.7 638.3)"/><ellipse cx="265.6" cy="635.2" rx="19.2" ry="11.8" fill="#e8dcc8" opacity="0.96" transform="rotate(129.26119666537977 265.6 635.2)"/><ellipse cx="259.2" cy="617.0" rx="19.2" ry="11.8" fill="#e8dcc8" opacity="0.96" transform="rotate(191.5365842912117 259.2 617.0)"/><ellipse cx="269.3" cy="604.0" rx="19.2" ry="11.8" fill="#e8dcc8" opacity="0.96" transform="rotate(244.1263620700855 269.3 604.0)"/><ellipse cx="289.0" cy="606.2" rx="19.2" ry="11.8" fill="#e8dcc8" opacity="0.96" transform="rotate(308.4722376129925 289.0 606.2)"/><circle cx="277.42558816920973" cy="620.7438772125744" r="11.2" fill="#0f0c09"/></g><g><ellipse cx="350.4" cy="637.4" rx="22.0" ry="13.5" fill="#b08d57" opacity="0.96" transform="rotate(9.3728875764462 350.4 637.4)"/><ellipse cx="338.4" cy="653.3" rx="22.0" ry="13.5" fill="#b08d57" opacity="0.96" transform="rotate(64.72577200622092 338.4 653.3)"/><ellipse cx="315.2" cy="649.9" rx="22.0" ry="13.5" fill="#b08d57" opacity="0.96" transform="rotate(131.56949596154243 315.2 649.9)"/><ellipse cx="308.3" cy="630.5" rx="22.0" ry="13.5" fill="#b08d57" opacity="0.96" transform="rotate(189.43496537253642 308.3 630.5)"/><ellipse cx="321.7" cy="614.1" rx="22.0" ry="13.5" fill="#b08d57" opacity="0.96" transform="rotate(249.15355831073464 321.7 614.1)"/><ellipse cx="343.9" cy="618.4" rx="22.0" ry="13.5" fill="#b08d57" opacity="0.96" transform="rotate(313.0683892161012 343.9 618.4)"/><circle cx="329.3233659469875" cy="633.9749883236856" r="12.8" fill="#0f0c09"/></g><g><ellipse cx="396.8" cy="562.6" rx="19.0" ry="11.7" fill="#e8dcc8" opacity="0.96" transform="rotate(13.040635344852133 396.8 562.6)"/><ellipse cx="384.2" cy="576.0" rx="19.0" ry="11.7" fill="#e8dcc8" opacity="0.96" transform="rotate(73.1350107875729 384.2 576.0)"/><ellipse cx="368.8" cy="573.9" rx="19.0" ry="11.7" fill="#e8dcc8" opacity="0.96" transform="rotate(122.83642108070485 368.8 573.9)"/><ellipse cx="361.0" cy="553.9" rx="19.0" ry="11.7" fill="#e8dcc8" opacity="0.96" transform="rotate(194.19690337469916 361.0 553.9)"/><ellipse cx="372.6" cy="541.1" rx="19.0" ry="11.7" fill="#e8dcc8" opacity="0.96" transform="rotate(250.30135281351892 372.6 541.1)"/><ellipse cx="388.9" cy="543.0" rx="19.0" ry="11.7" fill="#e8dcc8" opacity="0.96" transform="rotate(303.042180422642 388.9 543.0)"/><circle cx="378.8211437247653" cy="558.4060994347966" r="11.1" fill="#0f0c09"/></g><g><ellipse cx="352.1" cy="653.7" rx="13.0" ry="8.0" fill="#b08d57" opacity="0.96" transform="rotate(2.0860227166901852 352.1 653.7)"/><ellipse cx="343.7" cy="665.1" rx="13.0" ry="8.0" fill="#b08d57" opacity="0.96" transform="rotate(70.50287539192465 343.7 665.1)"/><ellipse cx="333.0" cy="664.1" rx="13.0" ry="8.0" fill="#b08d57" opacity="0.96" transform="rotate(120.96690312070525 333.0 664.1)"/><ellipse cx="326.9" cy="653.1" rx="13.0" ry="8.0" fill="#b08d57" opacity="0.96" transform="rotate(180.75549476072635 326.9 653.1)"/><ellipse cx="335.4" cy="641.3" rx="13.0" ry="8.0" fill="#b08d57" opacity="0.96" transform="rotate(251.15073179800586 335.4 641.3)"/><ellipse cx="347.7" cy="643.7" rx="13.0" ry="8.0" fill="#b08d57" opacity="0.96" transform="rotate(310.62248720872367 347.7 643.7)"/><circle cx="339.51892150254304" cy="653.2372105459077" r="7.6" fill="#0f0c09"/></g><path d="M 480.1416546291441 576.4452763895291 Q 510.26486450568734 526.2399265952904 580.5523542176215 576.4452763895291 Q 510.26486450568734 626.6506261837678 480.1416546291441 576.4452763895291 Z" fill="#c9a469" opacity="0.7999228395061728" transform="rotate(145.69753086419755 480.1416546291441 576.4452763895291)"/><path d="M 490.8889797320248 620.5160582825332 Q 513.2940826126833 583.1742201481024 565.5726560008862 620.5160582825332 Q 513.2940826126833 657.857896416964 490.8889797320248 620.5160582825332 Z" fill="#b08d57" opacity="0.8404353137860082" transform="rotate(33.66820987654321 490.8889797320248 620.5160582825332)"/><path d="M 437.3795147114487 592.9819019039325 Q 469.1282389912841 540.0673614375402 543.2085956442334 592.9819019039325 Q 469.1282389912841 645.8964423703247 437.3795147114487 592.9819019039325 Z" fill="#c9a469" opacity="0.7545203189300411" transform="rotate(49.324074074074076 437.3795147114487 592.9819019039325)"/><path d="M 467.76140771556385 627.7687331796526 Q 498.24140771556387 576.9687331796526 569.3614077155638 627.7687331796526 Q 498.24140771556387 678.5687331796526 467.76140771556385 627.7687331796526 Z" fill="#b08d57" opacity="0.7426408179012345" transform="rotate(300.4429012345679 467.76140771556385 627.7687331796526)"/><path d="M 437.20502911474085 582.8913669245086 Q 459.41877397070795 545.8684588312301 511.2508453012978 582.8913669245086 Q 459.41877397070795 619.9142750177871 437.20502911474085 582.8913669245086 Z" fill="#c9a469" opacity="0.7497042181069958" transform="rotate(81.46913580246914 437.20502911474085 582.8913669245086)"/><path d="M 505.23630483490547 586.5868401755374 Q 536.4233007196791 534.6085137009146 609.1929577841511 586.5868401755374 Q 536.4233007196791 638.5651666501602 505.23630483490547 586.5868401755374 Z" fill="#b08d57" opacity="0.8317290380658435" transform="rotate(73.51388888888889 505.23630483490547 586.5868401755374)"/><path d="M 478.67004969087253 636.2477455253317 Q 506.26239536988487 590.2605027269777 570.6445352875803 636.2477455253317 Q 506.26239536988487 682.2349883236856 478.67004969087253 636.2477455253317 Z" fill="#c9a469" opacity="0.7225115740740741" transform="rotate(104.35493827160494 478.67004969087253 636.2477455253317)"/><g><ellipse cx="538.9" cy="556.9" rx="21.1" ry="13.0" fill="#b08d57" opacity="0.96" transform="rotate(0.027938078359109716 538.9 556.9)"/><ellipse cx="527.1" cy="575.5" rx="21.1" ry="13.0" fill="#b08d57" opacity="0.96" transform="rotate(65.04801164408599 527.1 575.5)"/><ellipse cx="508.0" cy="574.5" rx="21.1" ry="13.0" fill="#b08d57" opacity="0.96" transform="rotate(120.69194330775561 508.0 574.5)"/><ellipse cx="498.2" cy="554.3" rx="21.1" ry="13.0" fill="#b08d57" opacity="0.96" transform="rotate(187.3404077264135 498.2 554.3)"/><ellipse cx="510.9" cy="537.9" rx="21.1" ry="13.0" fill="#b08d57" opacity="0.96" transform="rotate(248.23792616899613 510.9 537.9)"/><ellipse cx="530.2" cy="540.2" rx="21.1" ry="13.0" fill="#b08d57" opacity="0.96" transform="rotate(305.19709659849457 530.2 540.2)"/><circle cx="518.4395970159754" cy="556.9221488175127" r="12.3" fill="#0f0c09"/></g><g><ellipse cx="526.0" cy="568.2" rx="14.0" ry="8.6" fill="#e8dcc8" opacity="0.96" transform="rotate(6.348268231629968 526.0 568.2)"/><ellipse cx="518.2" cy="579.0" rx="14.0" ry="8.6" fill="#e8dcc8" opacity="0.96" transform="rotate(64.96898679387023 518.2 579.0)"/><ellipse cx="503.7" cy="577.0" rx="14.0" ry="8.6" fill="#e8dcc8" opacity="0.96" transform="rotate(130.5269451209725 503.7 577.0)"/><ellipse cx="499.1" cy="564.3" rx="14.0" ry="8.6" fill="#e8dcc8" opacity="0.96" transform="rotate(189.98027982068425 499.1 564.3)"/><ellipse cx="507.9" cy="553.9" rx="14.0" ry="8.6" fill="#e8dcc8" opacity="0.96" transform="rotate(250.44675362572633 507.9 553.9)"/><ellipse cx="521.0" cy="556.1" rx="14.0" ry="8.6" fill="#e8dcc8" opacity="0.96" transform="rotate(308.964316206333 521.0 556.1)"/><circle cx="512.4707081270865" cy="566.6865932619571" r="8.1" fill="#0f0c09"/></g><g><ellipse cx="431.9" cy="634.8" rx="15.0" ry="9.2" fill="#b08d57" opacity="0.96" transform="rotate(12.370182866603521 431.9 634.8)"/><ellipse cx="423.1" cy="645.1" rx="15.0" ry="9.2" fill="#b08d57" opacity="0.96" transform="rotate(68.17253264492479 423.1 645.1)"/><ellipse cx="407.8" cy="642.3" rx="15.0" ry="9.2" fill="#b08d57" opacity="0.96" transform="rotate(132.90155897675677 407.8 642.3)"/><ellipse cx="403.3" cy="629.4" rx="15.0" ry="9.2" fill="#b08d57" opacity="0.96" transform="rotate(188.7407501770901 403.3 629.4)"/><ellipse cx="413.3" cy="617.8" rx="15.0" ry="9.2" fill="#b08d57" opacity="0.96" transform="rotate(252.35716556415926 413.3 617.8)"/><ellipse cx="425.3" cy="619.3" rx="15.0" ry="9.2" fill="#b08d57" opacity="0.96" transform="rotate(301.6901616371711 425.3 619.3)"/><circle cx="417.70181923819763" cy="631.6510377064016" r="8.7" fill="#0f0c09"/></g><path d="M 588.7039591558931 510.9607464330884 Q 615.1504612135063 466.8832430037331 676.8589660146037 510.9607464330884 Q 615.1504612135063 555.0382498624436 588.7039591558931 510.9607464330884 Z" fill="#c9a469" opacity="0.81934670781893" transform="rotate(344.9074074074074 588.7039591558931 510.9607464330884)"/><path d="M 556.1525188266751 495.61424437547527 Q 581.5969632711195 453.2068369680679 640.9673336414899 495.61424437547527 Q 581.5969632711195 538.0216517828827 556.1525188266751 495.61424437547527 Z" fill="#b08d57" opacity="0.7345505401234568" transform="rotate(181.02623456790124 556.1525188266751 495.61424437547527)"/><path d="M 603.4628068925186 541.4035447869978 Q 636.9076628595968 485.6621181752008 714.9456601161125 541.4035447869978 Q 636.9076628595968 597.1449713987948 603.4628068925186 541.4035447869978 Z" fill="#c9a469" opacity="0.7936972736625514" transform="rotate(207.05246913580245 603.4628068925186 541.4035447869978)"/><path d="M 582.9607492793499 546.1656847046934 Q 619.2455229419013 485.69106193377434 703.9099948211881 546.1656847046934 Q 619.2455229419013 606.6403074756124 582.9607492793499 546.1656847046934 Z" fill="#b08d57" opacity="0.7528054269547324" transform="rotate(24.097222222222225 582.9607492793499 546.1656847046934)"/><path d="M 608.6611608019837 507.29325672115425 Q 632.0179509254405 468.3652731820596 686.517127880173 507.29325672115425 Q 632.0179509254405 546.2212402602489 608.6611608019837 507.29325672115425 Z" fill="#c9a469" opacity="0.7956712962962963" transform="rotate(179.93827160493828 608.6611608019837 507.29325672115425)"/><path d="M 604.0010784974569 555.867742317862 Q 625.7434653287326 519.6304309324025 676.4757012683759 555.867742317862 Q 625.7434653287326 592.1050537033216 604.0010784974569 555.867742317862 Z" fill="#b08d57" opacity="0.7505356224279836" transform="rotate(169.02006172839506 604.0010784974569 555.867742317862)"/><path d="M 591.9730949583623 504.3928451985205 Q 619.9183624480742 457.8173993823339 685.1239865907354 504.3928451985205 Q 619.9183624480742 550.968291014707 591.9730949583623 504.3928451985205 Z" fill="#c9a469" opacity="0.756750257201646" transform="rotate(272.4537037037037 591.9730949583623 504.3928451985205)"/><g><ellipse cx="594.9" cy="513.9" rx="17.2" ry="10.5" fill="#b08d57" opacity="0.96" transform="rotate(12.552056686602823 594.9 513.9)"/><ellipse cx="584.5" cy="525.9" rx="17.2" ry="10.5" fill="#b08d57" opacity="0.96" transform="rotate(69.55543682251572 584.5 525.9)"/><ellipse cx="567.5" cy="522.6" rx="17.2" ry="10.5" fill="#b08d57" opacity="0.96" transform="rotate(132.39081406293025 567.5 522.6)"/><ellipse cx="562.6" cy="506.3" rx="17.2" ry="10.5" fill="#b08d57" opacity="0.96" transform="rotate(193.8520062622967 562.6 506.3)"/><ellipse cx="573.3" cy="494.6" rx="17.2" ry="10.5" fill="#b08d57" opacity="0.96" transform="rotate(250.9769630908492 573.3 494.6)"/><ellipse cx="590.1" cy="498.2" rx="17.2" ry="10.5" fill="#b08d57" opacity="0.96" transform="rotate(313.0055131892007 590.1 498.2)"/><circle cx="578.720090843136" cy="510.31630198864394" r="10.0" fill="#0f0c09"/></g><g><ellipse cx="565.0" cy="481.5" rx="23.2" ry="14.2" fill="#e8dcc8" opacity="0.96" transform="rotate(10.38412320830593 565.0 481.5)"/><ellipse cx="549.2" cy="499.0" rx="23.2" ry="14.2" fill="#e8dcc8" opacity="0.96" transform="rotate(73.72054378808382 549.2 499.0)"/><ellipse cx="529.7" cy="495.7" rx="23.2" ry="14.2" fill="#e8dcc8" opacity="0.96" transform="rotate(125.77980508998459 529.7 495.7)"/><ellipse cx="520.4" cy="476.1" rx="23.2" ry="14.2" fill="#e8dcc8" opacity="0.96" transform="rotate(183.22896643224286 520.4 476.1)"/><ellipse cx="536.2" cy="455.9" rx="23.2" ry="14.2" fill="#e8dcc8" opacity="0.96" transform="rotate(252.65527407060648 536.2 455.9)"/><ellipse cx="557.3" cy="460.2" rx="23.2" ry="14.2" fill="#e8dcc8" opacity="0.96" transform="rotate(309.8760185963903 557.3 460.2)"/><circle cx="542.8845352875804" cy="477.41407976642176" r="13.5" fill="#0f0c09"/></g><g><ellipse cx="548.0" cy="501.7" rx="15.2" ry="9.3" fill="#b08d57" opacity="0.96" transform="rotate(7.917774211711732 548.0 501.7)"/><ellipse cx="539.2" cy="513.2" rx="15.2" ry="9.3" fill="#b08d57" opacity="0.96" transform="rotate(66.8442765766517 539.2 513.2)"/><ellipse cx="524.8" cy="511.6" rx="15.2" ry="9.3" fill="#b08d57" opacity="0.96" transform="rotate(126.03235303787697 524.8 511.6)"/><ellipse cx="518.8" cy="498.9" rx="15.2" ry="9.3" fill="#b08d57" opacity="0.96" transform="rotate(183.0504697425947 518.8 498.9)"/><ellipse cx="529.4" cy="485.6" rx="15.2" ry="9.3" fill="#b08d57" opacity="0.96" transform="rotate(254.03516953206642 529.4 485.6)"/><ellipse cx="542.9" cy="488.5" rx="15.2" ry="9.3" fill="#b08d57" opacity="0.96" transform="rotate(310.0290947048502 542.9 488.5)"/><circle cx="533.4489797320248" cy="499.7118575441995" r="8.8" fill="#0f0c09"/></g><path d="M 640.4286419753087 390.2284773662552 Q 670.704609053498 339.7685322359397 741.3485322359397 390.2284773662552 Q 670.704609053498 440.68842249657075 640.4286419753087 390.2284773662552 Z" fill="#c9a469" opacity="0.725190329218107" transform="rotate(62.635802469135804 640.4286419753087 390.2284773662552)"/><path d="M 608.1932510288066 396.0572839506173 Q 635.1758024691358 351.086364883402 698.1350891632374 396.0572839506173 Q 635.1758024691358 441.02820301783265 608.1932510288066 396.0572839506173 Z" fill="#b08d57" opacity="0.7113818158436214" transform="rotate(64.68055555555556 608.1932510288066 396.0572839506173)"/><path d="M 609.360329218107 422.2515226337449 Q 633.2815637860083 382.3827983539095 689.0977777777778 422.2515226337449 Q 633.2815637860083 462.12024691358033 609.360329218107 422.2515226337449 Z" fill="#c9a469" opacity="0.7563310185185185" transform="rotate(345.52160493827165 609.360329218107 422.2515226337449)"/><path d="M 644.166913580247 369.4926748971194 Q 673.1404115226338 321.203511659808 740.7452400548698 369.4926748971194 Q 673.1404115226338 417.7818381344308 644.166913580247 369.4926748971194 Z" fill="#b08d57" opacity="0.8382786779835391" transform="rotate(39.6033950617284 644.166913580247 369.4926748971194)"/><path d="M 658.805596707819 357.48444444444453 Q 697.4486419753086 293.07936899862835 787.6157475994513 357.48444444444453 Q 697.4486419753086 421.8895198902607 658.805596707819 357.48444444444453 Z" fill="#c9a469" opacity="0.7965766460905349" transform="rotate(148.03703703703704 658.805596707819 357.48444444444453)"/><path d="M 656.3578600823046 400.6860905349795 Q 696.5469958847737 333.70419753086423 790.3216460905351 400.6860905349795 Q 696.5469958847737 467.66798353909473 656.3578600823046 400.6860905349795 Z" fill="#b08d57" opacity="0.7983545524691358" transform="rotate(218.6003086419753 656.3578600823046 400.6860905349795)"/><g><ellipse cx="621.0" cy="386.9" rx="14.4" ry="8.9" fill="#b08d57" opacity="0.96" transform="rotate(0.49527151658149227 621.0 386.9)"/><ellipse cx="611.5" cy="400.0" rx="14.4" ry="8.9" fill="#b08d57" opacity="0.96" transform="rotate(71.56102243447967 611.5 400.0)"/><ellipse cx="599.6" cy="398.6" rx="14.4" ry="8.9" fill="#b08d57" opacity="0.96" transform="rotate(122.24241455313117 599.6 398.6)"/><ellipse cx="593.1" cy="385.8" rx="14.4" ry="8.9" fill="#b08d57" opacity="0.96" transform="rotate(184.06096854601418 593.1 385.8)"/><ellipse cx="600.4" cy="374.5" rx="14.4" ry="8.9" fill="#b08d57" opacity="0.96" transform="rotate(241.8527551129841 600.4 374.5)"/><ellipse cx="614.8" cy="375.2" rx="14.4" ry="8.9" fill="#b08d57" opacity="0.96" transform="rotate(303.79656994070797 614.8 375.2)"/><circle cx="607.0395061728395" cy="386.79111111111115" r="8.4" fill="#0f0c09"/></g><g><ellipse cx="647.2" cy="436.1" rx="22.7" ry="13.9" fill="#e8dcc8" opacity="0.96" transform="rotate(13.480214911825467 647.2 436.1)"/><ellipse cx="635.1" cy="450.9" rx="22.7" ry="13.9" fill="#e8dcc8" opacity="0.96" transform="rotate(65.01632802115566 635.1 450.9)"/><ellipse cx="612.7" cy="448.5" rx="22.7" ry="13.9" fill="#e8dcc8" opacity="0.96" transform="rotate(126.80540887642901 612.7 448.5)"/><ellipse cx="603.9" cy="430.0" rx="22.7" ry="13.9" fill="#e8dcc8" opacity="0.96" transform="rotate(182.62249522355512 603.9 430.0)"/><ellipse cx="615.3" cy="411.7" rx="22.7" ry="13.9" fill="#e8dcc8" opacity="0.96" transform="rotate(241.17689922617373 615.3 411.7)"/><ellipse cx="638.7" cy="413.2" rx="22.7" ry="13.9" fill="#e8dcc8" opacity="0.96" transform="rotate(305.87276827819494 638.7 413.2)"/><circle cx="625.8706172839507" cy="430.95555555555563" r="13.2" fill="#0f0c09"/></g><g><ellipse cx="655.7" cy="388.3" rx="14.0" ry="8.6" fill="#b08d57" opacity="0.96" transform="rotate(8.261811690933914 655.7 388.3)"/><ellipse cx="646.4" cy="399.3" rx="14.0" ry="8.6" fill="#b08d57" opacity="0.96" transform="rotate(72.49716296780493 646.4 399.3)"/><ellipse cx="635.4" cy="398.0" rx="14.0" ry="8.6" fill="#b08d57" opacity="0.96" transform="rotate(120.3270290227266 635.4 398.0)"/><ellipse cx="628.9" cy="384.4" rx="14.0" ry="8.6" fill="#b08d57" opacity="0.96" transform="rotate(188.04757882193408 628.9 384.4)"/><ellipse cx="637.9" cy="373.5" rx="14.0" ry="8.6" fill="#b08d57" opacity="0.96" transform="rotate(250.94558647976896 637.9 373.5)"/><ellipse cx="650.6" cy="375.6" rx="14.0" ry="8.6" fill="#b08d57" opacity="0.96" transform="rotate(307.65055109738466 650.6 375.6)"/><circle cx="642.3017283950618" cy="386.32000000000005" r="8.1" fill="#0f0c09"/></g><g><ellipse cx="698.2" cy="397.5" rx="13.5" ry="8.3" fill="#e8dcc8" opacity="0.96" transform="rotate(2.7449929517450546 698.2 397.5)"/><ellipse cx="689.8" cy="409.1" rx="13.5" ry="8.3" fill="#e8dcc8" opacity="0.96" transform="rotate(68.93662373745394 689.8 409.1)"/><ellipse cx="678.5" cy="408.1" rx="13.5" ry="8.3" fill="#e8dcc8" opacity="0.96" transform="rotate(120.7122060898622 678.5 408.1)"/><ellipse cx="672.3" cy="394.7" rx="13.5" ry="8.3" fill="#e8dcc8" opacity="0.96" transform="rotate(189.59326068244806 672.3 394.7)"/><ellipse cx="679.8" cy="385.0" rx="13.5" ry="8.3" fill="#e8dcc8" opacity="0.96" transform="rotate(246.09191333679638 679.8 385.0)"/><ellipse cx="694.0" cy="387.3" rx="13.5" ry="8.3" fill="#e8dcc8" opacity="0.96" transform="rotate(312.7109046178446 694.0 387.3)"/><circle cx="685.1328395061729" cy="396.8844444444445" r="7.8" fill="#0f0c09"/></g><g><ellipse cx="680.3" cy="376.4" rx="12.7" ry="7.8" fill="#b08d57" opacity="0.96" transform="rotate(0.5107449138265376 680.3 376.4)"/><ellipse cx="671.7" cy="388.0" rx="12.7" ry="7.8" fill="#b08d57" opacity="0.96" transform="rotate(72.23964142794095 671.7 388.0)"/><ellipse cx="659.8" cy="385.5" rx="12.7" ry="7.8" fill="#b08d57" opacity="0.96" transform="rotate(131.54192629740345 659.8 385.5)"/><ellipse cx="655.9" cy="373.9" rx="12.7" ry="7.8" fill="#b08d57" opacity="0.96" transform="rotate(190.84052702466477 655.9 373.9)"/><ellipse cx="662.7" cy="365.2" rx="12.7" ry="7.8" fill="#b08d57" opacity="0.96" transform="rotate(244.5208108950941 662.7 365.2)"/><ellipse cx="675.9" cy="366.9" rx="12.7" ry="7.8" fill="#b08d57" opacity="0.96" transform="rotate(310.31087018087203 675.9 366.9)"/><circle cx="667.9639506172839" cy="376.2488888888889" r="7.4" fill="#0f0c09"/></g><path d="M 385.0938683127572 937.1846913580247 Q 418.3408024691358 881.773134430727 495.91698216735256 937.1846913580247 Q 418.3408024691358 992.5962482853223 385.0938683127572 937.1846913580247 Z" fill="#c9a469" opacity="0.7811503343621399" transform="rotate(58.79166666666667 385.0938683127572 937.1846913580247)"/><path d="M 376.92082304526747 951.690658436214 Q 424.0473353909465 873.1464711934157 534.0091975308642 951.690658436214 Q 424.0473353909465 1030.2348456790123 376.92082304526747 951.690658436214 Z" fill="#b08d57" opacity="0.7288773148148148" transform="rotate(26.299382716049386 376.92082304526747 951.690658436214)"/><path d="M 426.73543209876544 904.5694650205761 Q 466.63102880658437 838.0768038408779 559.7207544581619 904.5694650205761 Q 466.63102880658437 971.0621262002743 426.73543209876544 904.5694650205761 Z" fill="#c9a469" opacity="0.8302694187242798" transform="rotate(287.0478395061728 426.73543209876544 904.5694650205761)"/><path d="M 425.35251028806584 925.2137037037037 Q 476.0992901234568 840.6357373113855 594.5084430727023 925.2137037037037 Q 476.0992901234568 1009.7916700960219 425.35251028806584 925.2137037037037 Z" fill="#b08d57" opacity="0.7246784979423868" transform="rotate(282.14814814814815 425.35251028806584 925.2137037037037)"/><path d="M 447.40909465020576 892.7048559670782 Q 500.77063786008233 803.768950617284 625.2809053497942 892.7048559670782 Q 500.77063786008233 981.6407613168724 447.40909465020576 892.7048559670782 Z" fill="#c9a469" opacity="0.8292341820987654" transform="rotate(159.3780864197531 447.40909465020576 892.7048559670782)"/><path d="M 446.29777777777775 905.1466255144032 Q 475.5413683127572 856.4073079561042 543.7764128943759 905.1466255144032 Q 475.5413683127572 953.8859430727023 446.29777777777775 905.1466255144032 Z" fill="#b08d57" opacity="0.8055105452674897" transform="rotate(213.1820987654321 446.29777777777775 905.1466255144032)"/><g><ellipse cx="359.0" cy="970.9" rx="20.0" ry="12.3" fill="#b08d57" opacity="0.96" transform="rotate(12.05052212827929 359.0 970.9)"/><ellipse cx="349.7" cy="983.7" rx="20.0" ry="12.3" fill="#b08d57" opacity="0.96" transform="rotate(60.06459529326105 349.7 983.7)"/><ellipse cx="329.7" cy="983.3" rx="20.0" ry="12.3" fill="#b08d57" opacity="0.96" transform="rotate(122.22209036865452 329.7 983.3)"/><ellipse cx="320.7" cy="966.4" rx="20.0" ry="12.3" fill="#b08d57" opacity="0.96" transform="rotate(181.23701214642333 320.7 966.4)"/><ellipse cx="332.3" cy="949.1" rx="20.0" ry="12.3" fill="#b08d57" opacity="0.96" transform="rotate(246.34918926718026 332.3 949.1)"/><ellipse cx="353.4" cy="952.8" rx="20.0" ry="12.3" fill="#b08d57" opacity="0.96" transform="rotate(313.5355384472135 353.4 952.8)"/><circle cx="340.0730864197531" cy="966.8500617283951" r="11.6" fill="#0f0c09"/></g><g><ellipse cx="394.5" cy="930.9" rx="32.0" ry="19.6" fill="#e8dcc8" opacity="0.96" transform="rotate(11.739396319387843 394.5 930.9)"/><ellipse cx="372.7" cy="954.4" rx="32.0" ry="19.6" fill="#e8dcc8" opacity="0.96" transform="rotate(74.04425708282938 372.7 954.4)"/><ellipse cx="344.8" cy="948.8" rx="32.0" ry="19.6" fill="#e8dcc8" opacity="0.96" transform="rotate(128.60873508154702 344.8 948.8)"/><ellipse cx="333.1" cy="923.4" rx="32.0" ry="19.6" fill="#e8dcc8" opacity="0.96" transform="rotate(182.0200765712887 333.1 923.4)"/><ellipse cx="355.1" cy="894.9" rx="32.0" ry="19.6" fill="#e8dcc8" opacity="0.96" transform="rotate(253.06740677818084 355.1 894.9)"/><ellipse cx="381.6" cy="898.9" rx="32.0" ry="19.6" fill="#e8dcc8" opacity="0.96" transform="rotate(304.3051043692138 381.6 898.9)"/><circle cx="364.1325308641975" cy="924.5428395061729" r="18.6" fill="#0f0c09"/></g><g><ellipse cx="447.9" cy="962.7" rx="24.6" ry="15.1" fill="#b08d57" opacity="0.96" transform="rotate(11.12985499219909 447.9 962.7)"/><ellipse cx="435.4" cy="979.3" rx="24.6" ry="15.1" fill="#b08d57" opacity="0.96" transform="rotate(62.65859981712688 435.4 979.3)"/><ellipse cx="410.0" cy="977.0" rx="24.6" ry="15.1" fill="#b08d57" opacity="0.96" transform="rotate(127.53499183700691 410.0 977.0)"/><ellipse cx="401.3" cy="952.7" rx="24.6" ry="15.1" fill="#b08d57" opacity="0.96" transform="rotate(193.24768413655966 401.3 952.7)"/><ellipse cx="414.5" cy="936.5" rx="24.6" ry="15.1" fill="#b08d57" opacity="0.96" transform="rotate(245.1632638926136 414.5 936.5)"/><ellipse cx="440.7" cy="940.6" rx="24.6" ry="15.1" fill="#b08d57" opacity="0.96" transform="rotate(312.681185870755 440.7 940.6)"/><circle cx="424.491975308642" cy="958.1356172839506" r="14.3" fill="#0f0c09"/></g><g><ellipse cx="432.6" cy="956.3" rx="32.2" ry="19.7" fill="#e8dcc8" opacity="0.96" transform="rotate(13.80288436628068 432.6 956.3)"/><ellipse cx="411.7" cy="978.5" rx="32.2" ry="19.7" fill="#e8dcc8" opacity="0.96" transform="rotate(72.46044435053295 411.7 978.5)"/><ellipse cx="385.6" cy="975.1" rx="32.2" ry="19.7" fill="#e8dcc8" opacity="0.96" transform="rotate(122.58184685460184 385.6 975.1)"/><ellipse cx="371.7" cy="943.5" rx="32.2" ry="19.7" fill="#e8dcc8" opacity="0.96" transform="rotate(189.85293130526273 371.7 943.5)"/><ellipse cx="387.0" cy="921.7" rx="32.2" ry="19.7" fill="#e8dcc8" opacity="0.96" transform="rotate(240.5416917083166 387.0 921.7)"/><ellipse cx="423.8" cy="926.3" rx="32.2" ry="19.7" fill="#e8dcc8" opacity="0.96" transform="rotate(313.59687941486357 423.8 926.3)"/><circle cx="402.3514197530864" cy="948.8283950617284" r="18.7" fill="#0f0c09"/></g><path d="M 201.13810699588478 887.362633744856 Q 235.47045267489713 830.1420576131687 315.5792592592593 887.362633744856 Q 235.47045267489713 944.5832098765433 201.13810699588478 887.362633744856 Z" fill="#c9a469" opacity="0.822042824074074" transform="rotate(253.22993827160494 201.13810699588478 887.362633744856)"/><path d="M 209.81135802469137 917.2704526748971 Q 234.66263374485598 875.8516598079561 292.6489437585734 917.2704526748971 Q 234.66263374485598 958.6892455418381 209.81135802469137 917.2704526748971 Z" fill="#b08d57" opacity="0.8279488168724279" transform="rotate(244.81172839506172 209.81135802469137 917.2704526748971)"/><path d="M 204.71670781893005 917.5288888888889 Q 226.3041975308642 881.5497393689986 276.67500685871056 917.5288888888889 Q 226.3041975308642 953.5080384087792 204.71670781893005 917.5288888888889 Z" fill="#c9a469" opacity="0.7227051183127572" transform="rotate(320.7453703703704 204.71670781893005 917.5288888888889)"/><path d="M 188.93563786008232 902.5972016460905 Q 219.93588477366256 850.9301234567902 292.2697942386832 902.5972016460905 Q 219.93588477366256 954.2642798353909 188.93563786008232 902.5972016460905 Z" fill="#b08d57" opacity="0.8234413580246913" transform="rotate(28.808641975308642 188.93563786008232 902.5972016460905)"/><path d="M 154.17185185185187 892.6235390946503 Q 181.0095473251029 847.8940466392319 243.63083676268863 892.6235390946503 Q 181.0095473251029 937.3530315500686 154.17185185185187 892.6235390946503 Z" fill="#c9a469" opacity="0.8417316100823045" transform="rotate(143.445987654321 154.17185185185187 892.6235390946503)"/><g><ellipse cx="239.9" cy="943.1" rx="20.9" ry="12.8" fill="#b08d57" opacity="0.96" transform="rotate(0.02492936222812867 239.9 943.1)"/><ellipse cx="228.0" cy="961.5" rx="20.9" ry="12.8" fill="#b08d57" opacity="0.96" transform="rotate(65.71183266637244 228.0 961.5)"/><ellipse cx="209.2" cy="960.4" rx="20.9" ry="12.8" fill="#b08d57" opacity="0.96" transform="rotate(121.27102905941443 209.2 960.4)"/><ellipse cx="199.7" cy="940.5" rx="20.9" ry="12.8" fill="#b08d57" opacity="0.96" transform="rotate(187.6137096753726 199.7 940.5)"/><ellipse cx="209.8" cy="925.6" rx="20.9" ry="12.8" fill="#b08d57" opacity="0.96" transform="rotate(240.55716510556167 209.8 925.6)"/><ellipse cx="233.8" cy="928.7" rx="20.9" ry="12.8" fill="#b08d57" opacity="0.96" transform="rotate(314.2754984083248 233.8 928.7)"/><circle cx="219.70123456790125" cy="943.1269135802469" r="12.1" fill="#0f0c09"/></g><g><ellipse cx="242.1" cy="867.2" rx="22.4" ry="13.7" fill="#e8dcc8" opacity="0.96" transform="rotate(1.2058811448231992 242.1 867.2)"/><ellipse cx="230.2" cy="886.1" rx="22.4" ry="13.7" fill="#e8dcc8" opacity="0.96" transform="rotate(63.278640949589054 230.2 886.1)"/><ellipse cx="208.9" cy="885.2" rx="22.4" ry="13.7" fill="#e8dcc8" opacity="0.96" transform="rotate(121.98777892465814 208.9 885.2)"/><ellipse cx="199.3" cy="861.7" rx="22.4" ry="13.7" fill="#e8dcc8" opacity="0.96" transform="rotate(193.4698379112921 199.3 861.7)"/><ellipse cx="212.5" cy="846.5" rx="22.4" ry="13.7" fill="#e8dcc8" opacity="0.96" transform="rotate(248.76746020804876 212.5 846.5)"/><ellipse cx="232.2" cy="848.6" rx="22.4" ry="13.7" fill="#e8dcc8" opacity="0.96" transform="rotate(302.9561557022439 232.2 848.6)"/><circle cx="220.399012345679" cy="866.7580246913581" r="13.0" fill="#0f0c09"/></g><g><ellipse cx="235.9" cy="935.9" rx="18.2" ry="11.1" fill="#b08d57" opacity="0.96" transform="rotate(12.831376067823902 235.9 935.9)"/><ellipse cx="227.4" cy="947.3" rx="18.2" ry="11.1" fill="#b08d57" opacity="0.96" transform="rotate(60.54703371450836 227.4 947.3)"/><ellipse cx="208.4" cy="946.2" rx="18.2" ry="11.1" fill="#b08d57" opacity="0.96" transform="rotate(125.9870994911722 208.4 946.2)"/><ellipse cx="201.5" cy="928.4" rx="18.2" ry="11.1" fill="#b08d57" opacity="0.96" transform="rotate(191.865578189779 201.5 928.4)"/><ellipse cx="213.6" cy="915.2" rx="18.2" ry="11.1" fill="#b08d57" opacity="0.96" transform="rotate(253.09835357267093 213.6 915.2)"/><ellipse cx="229.0" cy="917.7" rx="18.2" ry="11.1" fill="#b08d57" opacity="0.96" transform="rotate(305.6623423561363 229.0 917.7)"/><circle cx="218.6967901234568" cy="931.9891358024691" r="10.6" fill="#0f0c09"/></g><g><ellipse cx="264.4" cy="940.9" rx="22.1" ry="13.5" fill="#e8dcc8" opacity="0.96" transform="rotate(9.83451059425672 264.4 940.9)"/><ellipse cx="253.7" cy="955.9" rx="22.1" ry="13.5" fill="#e8dcc8" opacity="0.96" transform="rotate(61.097997180698016 253.7 955.9)"/><ellipse cx="231.9" cy="955.2" rx="22.1" ry="13.5" fill="#e8dcc8" opacity="0.96" transform="rotate(122.52603210025366 231.9 955.2)"/><ellipse cx="222.2" cy="934.8" rx="22.1" ry="13.5" fill="#e8dcc8" opacity="0.96" transform="rotate(186.38191673040095 222.2 934.8)"/><ellipse cx="233.6" cy="918.2" rx="22.1" ry="13.5" fill="#e8dcc8" opacity="0.96" transform="rotate(242.8068865407252 233.6 918.2)"/><ellipse cx="257.6" cy="921.3" rx="22.1" ry="13.5" fill="#e8dcc8" opacity="0.96" transform="rotate(311.651099711299 257.6 921.3)"/><circle cx="243.39456790123458" cy="937.2202469135802" r="12.8" fill="#0f0c09"/></g><path d="M 624.6610699588477 911.2411522633745 Q 649.0519341563786 870.5897119341564 705.963950617284 911.2411522633745 Q 649.0519341563786 951.8925925925926 624.6610699588477 911.2411522633745 Z" fill="#c9a469" opacity="0.7995833333333333" transform="rotate(202.66049382716048 624.6610699588477 911.2411522633745)"/><path d="M 624.9787654320987 870.9267489711934 Q 659.6663374485596 813.1141289437586 740.6040054869684 870.9267489711934 Q 659.6663374485596 928.7393689986283 624.9787654320987 870.9267489711934 Z" fill="#b08d57" opacity="0.747503215020576" transform="rotate(15.075617283950619 624.9787654320987 870.9267489711934)"/><path d="M 634.9952263374486 875.6296296296297 Q 660.0634567901235 833.8492455418382 718.5559945130316 875.6296296296297 Q 660.0634567901235 917.4100137174212 634.9952263374486 875.6296296296297 Z" fill="#c9a469" opacity="0.8301067386831276" transform="rotate(261.8425925925926 634.9952263374486 875.6296296296297)"/><path d="M 606.5919341563786 888.6090534979423 Q 634.1840329218106 842.6222222222221 698.5655967078189 888.6090534979423 Q 634.1840329218106 934.5958847736625 606.5919341563786 888.6090534979423 Z" fill="#b08d57" opacity="0.8145235339506173" transform="rotate(250.73919753086417 606.5919341563786 888.6090534979423)"/><path d="M 633.8725925925926 878.8131687242799 Q 656.2799176954733 841.4676268861455 708.5636762688614 878.8131687242799 Q 656.2799176954733 916.1587105624143 633.8725925925926 878.8131687242799 Z" fill="#c9a469" opacity="0.7623276748971193" transform="rotate(156.20987654320987 633.8725925925926 878.8131687242799)"/><path d="M 628.8964609053497 906.2123456790123 Q 651.9807407407407 867.7385459533607 705.8440603566529 906.2123456790123 Q 651.9807407407407 944.6861454046639 628.8964609053497 906.2123456790123 Z" fill="#b08d57" opacity="0.7962043467078189" transform="rotate(339.36574074074076 628.8964609053497 906.2123456790123)"/><g><ellipse cx="564.6" cy="872.7" rx="14.0" ry="8.6" fill="#b08d57" opacity="0.96" transform="rotate(11.136056631571112 564.6 872.7)"/><ellipse cx="557.5" cy="882.2" rx="14.0" ry="8.6" fill="#b08d57" opacity="0.96" transform="rotate(63.04426810322263 557.5 882.2)"/><ellipse cx="542.0" cy="879.9" rx="14.0" ry="8.6" fill="#b08d57" opacity="0.96" transform="rotate(133.64950124597067 542.0 879.9)"/><ellipse cx="537.9" cy="869.2" rx="14.0" ry="8.6" fill="#b08d57" opacity="0.96" transform="rotate(183.9145852958864 537.9 869.2)"/><ellipse cx="544.8" cy="858.3" rx="14.0" ry="8.6" fill="#b08d57" opacity="0.96" transform="rotate(241.11690911066415 544.8 858.3)"/><ellipse cx="559.4" cy="859.3" rx="14.0" ry="8.6" fill="#b08d57" opacity="0.96" transform="rotate(306.538554176322 559.4 859.3)"/><circle cx="551.3733333333333" cy="870.1175308641975" r="8.1" fill="#0f0c09"/></g><g><ellipse cx="668.3" cy="871.9" rx="13.2" ry="8.1" fill="#e8dcc8" opacity="0.96" transform="rotate(1.3087915169767552 668.3 871.9)"/><ellipse cx="661.8" cy="882.7" rx="13.2" ry="8.1" fill="#e8dcc8" opacity="0.96" transform="rotate(60.74370550568249 661.8 882.7)"/><ellipse cx="648.8" cy="882.4" rx="13.2" ry="8.1" fill="#e8dcc8" opacity="0.96" transform="rotate(121.76648478310601 648.8 882.4)"/><ellipse cx="642.8" cy="870.8" rx="13.2" ry="8.1" fill="#e8dcc8" opacity="0.96" transform="rotate(183.53714492737333 642.8 870.8)"/><ellipse cx="652.1" cy="859.4" rx="13.2" ry="8.1" fill="#e8dcc8" opacity="0.96" transform="rotate(254.2344816251514 652.1 859.4)"/><ellipse cx="662.2" cy="860.8" rx="13.2" ry="8.1" fill="#e8dcc8" opacity="0.96" transform="rotate(301.7180383131602 662.2 860.8)"/><circle cx="655.5377777777777" cy="871.6153086419753" r="7.6" fill="#0f0c09"/></g><g><ellipse cx="659.2" cy="900.1" rx="17.7" ry="10.8" fill="#b08d57" opacity="0.96" transform="rotate(1.9260695427880297 659.2 900.1)"/><ellipse cx="647.3" cy="915.8" rx="17.7" ry="10.8" fill="#b08d57" opacity="0.96" transform="rotate(72.46867226811563 647.3 915.8)"/><ellipse cx="631.7" cy="913.1" rx="17.7" ry="10.8" fill="#b08d57" opacity="0.96" transform="rotate(127.48998389978225 631.7 913.1)"/><ellipse cx="625.3" cy="896.5" rx="17.7" ry="10.8" fill="#b08d57" opacity="0.96" transform="rotate(190.02326147969825 625.3 896.5)"/><ellipse cx="636.0" cy="883.5" rx="17.7" ry="10.8" fill="#b08d57" opacity="0.96" transform="rotate(249.1487075235031 636.0 883.5)"/><ellipse cx="653.3" cy="886.6" rx="17.7" ry="10.8" fill="#b08d57" opacity="0.96" transform="rotate(310.9230518099717 653.3 886.6)"/><circle cx="642.1022222222222" cy="899.5130864197531" r="10.3" fill="#0f0c09"/></g><g><ellipse cx="673.6" cy="868.1" rx="19.2" ry="11.8" fill="#e8dcc8" opacity="0.96" transform="rotate(2.2449320503020007 673.6 868.1)"/><ellipse cx="660.4" cy="885.2" rx="19.2" ry="11.8" fill="#e8dcc8" opacity="0.96" transform="rotate(73.15226485354852 660.4 885.2)"/><ellipse cx="644.2" cy="882.5" rx="19.2" ry="11.8" fill="#e8dcc8" opacity="0.96" transform="rotate(125.75309505902588 644.2 882.5)"/><ellipse cx="637.0" cy="863.4" rx="19.2" ry="11.8" fill="#e8dcc8" opacity="0.96" transform="rotate(192.62997629415824 637.0 863.4)"/><ellipse cx="646.9" cy="850.8" rx="19.2" ry="11.8" fill="#e8dcc8" opacity="0.96" transform="rotate(243.7645179035575 646.9 850.8)"/><ellipse cx="666.8" cy="853.0" rx="19.2" ry="11.8" fill="#e8dcc8" opacity="0.96" transform="rotate(309.0866911297829 666.8 853.0)"/><circle cx="655.0666666666666" cy="867.4108641975308" r="11.1" fill="#0f0c09"/></g><path d="M 56.94617283950617 135.7830452674897 Q 91.47004115226338 78.24326474622771 172.02573388203018 135.7830452674897 Q 91.47004115226338 193.32282578875171 56.94617283950617 135.7830452674897 Z" fill="#c9a469" opacity="0.7014326131687242" transform="rotate(227.8395061728395 56.94617283950617 135.7830452674897)"/><path d="M 101.27374485596708 164.13037037037037 Q 124.62271604938272 125.2154183813443 179.10364883401922 164.13037037037037 Q 124.62271604938272 203.04532235939644 101.27374485596708 164.13037037037037 Z" fill="#b08d57" opacity="0.7093833590534979" transform="rotate(15.439814814814815 101.27374485596708 164.13037037037037)"/><path d="M 79.44823045267489 147.42090534979425 Q 103.23218106995884 107.780987654321 158.72806584362138 147.42090534979425 Q 103.23218106995884 187.0608230452675 79.44823045267489 147.42090534979425 Z" fill="#c9a469" opacity="0.7649807098765432" transform="rotate(15.169753086419751 79.44823045267489 147.42090534979425)"/><path d="M 34.373333333333335 157.00279835390947 Q 56.75028806584362 119.70787379972566 108.96318244170097 157.00279835390947 Q 56.75028806584362 194.29772290809328 34.373333333333335 157.00279835390947 Z" fill="#b08d57" opacity="0.8297987397119341" transform="rotate(161.47376543209876 34.373333333333335 157.00279835390947)"/><path d="M 57.30831275720165 124.84641975308642 Q 96.40666666666667 59.682496570644716 187.63615912208508 124.84641975308642 Q 96.40666666666667 190.01034293552812 57.30831275720165 124.84641975308642 Z" fill="#c9a469" opacity="0.776522633744856" transform="rotate(215.46296296296296 57.30831275720165 124.84641975308642)"/><path d="M 91.60131687242799 133.67769547325102 Q 125.07539094650207 77.8875720164609 203.18156378600824 133.67769547325102 Q 125.07539094650207 189.46781893004115 91.60131687242799 133.67769547325102 Z" fill="#b08d57" opacity="0.7056153549382715" transform="rotate(44.91512345679013 91.60131687242799 133.67769547325102)"/><g><ellipse cx="106.1" cy="188.1" rx="18.8" ry="11.5" fill="#b08d57" opacity="0.96" transform="rotate(5.919065665190018 106.1 188.1)"/><ellipse cx="94.4" cy="203.3" rx="18.8" ry="11.5" fill="#b08d57" opacity="0.96" transform="rotate(69.33653737339435 94.4 203.3)"/><ellipse cx="76.2" cy="200.1" rx="18.8" ry="11.5" fill="#b08d57" opacity="0.96" transform="rotate(130.40721049943346 76.2 200.1)"/><ellipse cx="70.3" cy="182.0" rx="18.8" ry="11.5" fill="#b08d57" opacity="0.96" transform="rotate(193.5962653911633 70.3 182.0)"/><ellipse cx="81.8" cy="169.1" rx="18.8" ry="11.5" fill="#b08d57" opacity="0.96" transform="rotate(250.10597047211522 81.8 169.1)"/><ellipse cx="98.4" cy="171.3" rx="18.8" ry="11.5" fill="#b08d57" opacity="0.96" transform="rotate(304.9320225671182 98.4 171.3)"/><circle cx="87.99358024691358" cy="186.23407407407407" r="10.9" fill="#0f0c09"/></g><g><ellipse cx="111.9" cy="138.6" rx="21.8" ry="13.4" fill="#e8dcc8" opacity="0.96" transform="rotate(2.590627393514721 111.9 138.6)"/><ellipse cx="99.6" cy="156.8" rx="21.8" ry="13.4" fill="#e8dcc8" opacity="0.96" transform="rotate(65.57705446417849 99.6 156.8)"/><ellipse cx="77.8" cy="154.2" rx="21.8" ry="13.4" fill="#e8dcc8" opacity="0.96" transform="rotate(128.20611974132575 77.8 154.2)"/><ellipse cx="70.0" cy="133.9" rx="21.8" ry="13.4" fill="#e8dcc8" opacity="0.96" transform="rotate(190.1683552800556 70.0 133.9)"/><ellipse cx="84.4" cy="117.5" rx="21.8" ry="13.4" fill="#e8dcc8" opacity="0.96" transform="rotate(252.215326089413 84.4 117.5)"/><ellipse cx="101.5" cy="119.4" rx="21.8" ry="13.4" fill="#e8dcc8" opacity="0.96" transform="rotate(300.2441358231996 101.5 119.4)"/><circle cx="90.8246913580247" cy="137.59851851851852" r="12.7" fill="#0f0c09"/></g><g><ellipse cx="109.4" cy="118.5" rx="19.0" ry="11.7" fill="#b08d57" opacity="0.96" transform="rotate(9.706732262245055 109.4 118.5)"/><ellipse cx="100.0" cy="131.6" rx="19.0" ry="11.7" fill="#b08d57" opacity="0.96" transform="rotate(61.51915603666535 100.0 131.6)"/><ellipse cx="79.6" cy="129.6" rx="19.0" ry="11.7" fill="#b08d57" opacity="0.96" transform="rotate(129.28759968448838 79.6 129.6)"/><ellipse cx="73.4" cy="111.0" rx="19.0" ry="11.7" fill="#b08d57" opacity="0.96" transform="rotate(193.60400208978584 73.4 111.0)"/><ellipse cx="85.1" cy="98.0" rx="19.0" ry="11.7" fill="#b08d57" opacity="0.96" transform="rotate(250.44527996884585 85.1 98.0)"/><ellipse cx="103.0" cy="101.2" rx="19.0" ry="11.7" fill="#b08d57" opacity="0.96" transform="rotate(309.5817784392543 103.0 101.2)"/><circle cx="91.2558024691358" cy="115.36296296296297" r="11.0" fill="#0f0c09"/></g><g><ellipse cx="130.9" cy="148.8" rx="13.2" ry="8.1" fill="#e8dcc8" opacity="0.96" transform="rotate(2.2004767344075056 130.9 148.8)"/><ellipse cx="124.3" cy="159.5" rx="13.2" ry="8.1" fill="#e8dcc8" opacity="0.96" transform="rotate(60.74382831042253 124.3 159.5)"/><ellipse cx="111.1" cy="159.1" rx="13.2" ry="8.1" fill="#e8dcc8" opacity="0.96" transform="rotate(122.90869167021842 111.1 159.1)"/><ellipse cx="105.6" cy="145.4" rx="13.2" ry="8.1" fill="#e8dcc8" opacity="0.96" transform="rotate(193.16024716165114 105.6 145.4)"/><ellipse cx="113.4" cy="136.4" rx="13.2" ry="8.1" fill="#e8dcc8" opacity="0.96" transform="rotate(248.37681832998138 113.4 136.4)"/><ellipse cx="126.0" cy="138.2" rx="13.2" ry="8.1" fill="#e8dcc8" opacity="0.96" transform="rotate(307.8780468783088 126.0 138.2)"/><circle cx="118.08691358024691" cy="148.3274074074074" r="7.7" fill="#0f0c09"/></g><path d="M 763.5522633744856 138.23111111111112 Q 794.381975308642 86.84825788751715 866.3179698216736 138.23111111111112 Q 794.381975308642 189.6139643347051 763.5522633744856 138.23111111111112 Z" fill="#c9a469" opacity="0.7730349794238682" transform="rotate(211.53703703703704 763.5522633744856 138.23111111111112)"/><path d="M 767.5045267489712 111.03275720164609 Q 801.480329218107 54.40641975308642 880.7572016460906 111.03275720164609 Q 801.480329218107 167.65909465020576 767.5045267489712 111.03275720164609 Z" fill="#b08d57" opacity="0.787312885802469" transform="rotate(312.10030864197535 767.5045267489712 111.03275720164609)"/><path d="M 746.0740740740741 159.1924279835391 Q 768.020658436214 122.61478737997257 819.2293552812072 159.1924279835391 Q 768.020658436214 195.7700685871056 746.0740740740741 159.1924279835391 Z" fill="#c9a469" opacity="0.7066448045267489" transform="rotate(69.23765432098764 746.0740740740741 159.1924279835391)"/><path d="M 739.3201646090534 163.4804938271605 Q 779.6325925925926 96.29311385459533 873.6949245541838 163.4804938271605 Q 779.6325925925926 230.66787379972567 739.3201646090534 163.4804938271605 Z" fill="#b08d57" opacity="0.753715920781893" transform="rotate(84.06018518518518 739.3201646090534 163.4804938271605)"/><path d="M 716.1909465020576 155.4228806584362 Q 751.9902057613169 95.75744855967078 835.5218106995885 155.4228806584362 Q 751.9902057613169 215.08831275720166 716.1909465020576 155.4228806584362 Z" fill="#c9a469" opacity="0.7789891975308642" transform="rotate(344.34567901234567 716.1909465020576 155.4228806584362)"/><path d="M 736.6567901234567 121.03440329218107 Q 761.478683127572 79.66458161865569 819.3964334705075 121.03440329218107 Q 761.478683127572 162.40422496570645 736.6567901234567 121.03440329218107 Z" fill="#b08d57" opacity="0.82737204218107" transform="rotate(24.53858024691358 736.6567901234567 121.03440329218107)"/><path d="M 704.243621399177 162.95209876543208 Q 729.460987654321 120.92315500685869 788.3015089163238 162.95209876543208 Q 729.460987654321 204.9810425240055 704.243621399177 162.95209876543208 Z" fill="#c9a469" opacity="0.7548829732510287" transform="rotate(45.75 704.243621399177 162.95209876543208)"/><g><ellipse cx="808.8" cy="102.5" rx="23.5" ry="14.4" fill="#b08d57" opacity="0.96" transform="rotate(13.876874222154806 808.8 102.5)"/><ellipse cx="793.4" cy="118.8" rx="23.5" ry="14.4" fill="#b08d57" opacity="0.96" transform="rotate(73.09073967878847 793.4 118.8)"/><ellipse cx="773.2" cy="115.3" rx="23.5" ry="14.4" fill="#b08d57" opacity="0.96" transform="rotate(126.4652397465181 773.2 115.3)"/><ellipse cx="764.1" cy="95.3" rx="23.5" ry="14.4" fill="#b08d57" opacity="0.96" transform="rotate(184.30123601990252 764.1 95.3)"/><ellipse cx="776.1" cy="77.0" rx="23.5" ry="14.4" fill="#b08d57" opacity="0.96" transform="rotate(242.04512873825684 776.1 77.0)"/><ellipse cx="799.0" cy="77.9" rx="23.5" ry="14.4" fill="#b08d57" opacity="0.96" transform="rotate(302.5705488185182 799.0 77.9)"/><circle cx="786.7496296296297" cy="97.04938271604938" r="13.6" fill="#0f0c09"/></g><g><ellipse cx="737.2" cy="111.4" rx="19.1" ry="11.7" fill="#e8dcc8" opacity="0.96" transform="rotate(7.730067166560529 737.2 111.4)"/><ellipse cx="725.7" cy="126.1" rx="19.1" ry="11.7" fill="#e8dcc8" opacity="0.96" transform="rotate(68.50232477430232 725.7 126.1)"/><ellipse cx="709.5" cy="124.8" rx="19.1" ry="11.7" fill="#e8dcc8" opacity="0.96" transform="rotate(120.65000548903194 709.5 124.8)"/><ellipse cx="700.5" cy="107.7" rx="19.1" ry="11.7" fill="#e8dcc8" opacity="0.96" transform="rotate(184.02326749082184 700.5 107.7)"/><ellipse cx="712.4" cy="91.7" rx="19.1" ry="11.7" fill="#e8dcc8" opacity="0.96" transform="rotate(249.29386272623043 712.4 91.7)"/><ellipse cx="728.2" cy="93.0" rx="19.1" ry="11.7" fill="#e8dcc8" opacity="0.96" transform="rotate(300.23682894116723 728.2 93.0)"/><circle cx="718.914074074074" cy="108.94716049382716" r="11.1" fill="#0f0c09"/></g><g><ellipse cx="814.7" cy="176.5" rx="22.7" ry="13.9" fill="#b08d57" opacity="0.96" transform="rotate(1.2848445926689467 814.7 176.5)"/><ellipse cx="801.2" cy="196.3" rx="22.7" ry="13.9" fill="#b08d57" opacity="0.96" transform="rotate(67.19648057108654 801.2 196.3)"/><ellipse cx="781.1" cy="194.8" rx="22.7" ry="13.9" fill="#b08d57" opacity="0.96" transform="rotate(121.69832815238375 781.1 194.8)"/><ellipse cx="771.4" cy="170.7" rx="22.7" ry="13.9" fill="#b08d57" opacity="0.96" transform="rotate(194.18984210214686 771.4 170.7)"/><ellipse cx="782.3" cy="156.6" rx="22.7" ry="13.9" fill="#b08d57" opacity="0.96" transform="rotate(241.92023631763612 782.3 156.6)"/><ellipse cx="804.1" cy="157.2" rx="22.7" ry="13.9" fill="#b08d57" opacity="0.96" transform="rotate(301.1856797650866 804.1 157.2)"/><circle cx="792.6785185185186" cy="176.04493827160493" r="13.2" fill="#0f0c09"/></g><path d="M 87.01962962962963 524.3616255144033 Q 107.47650720164609 490.2668295610425 155.20922153635115 524.3616255144033 Q 107.47650720164609 558.456421467764 87.01962962962963 524.3616255144033 Z" fill="#c9a469" opacity="0.8381378600823045" transform="rotate(44.82098765432099 87.01962962962963 524.3616255144033)"/><path d="M 71.99874485596708 528.7123456790123 Q 102.39453703703703 478.0526920438957 173.31805212620026 528.7123456790123 Q 102.39453703703703 579.3719993141289 71.99874485596708 528.7123456790123 Z" fill="#b08d57" opacity="0.7622923096707819" transform="rotate(244.6435185185185 71.99874485596708 528.7123456790123)"/><path d="M 33.27292181069959 512.6322016460905 Q 52.41843106995886 480.72301954732507 97.09128600823047 512.6322016460905 Q 52.41843106995886 544.5413837448559 33.27292181069959 512.6322016460905 Z" fill="#c9a469" opacity="0.7896489197530864" transform="rotate(269.92901234567904 33.27292181069959 512.6322016460905)"/><path d="M 81.96808641975309 527.1582304526748 Q 113.21115226337449 475.0864540466392 186.11163923182443 527.1582304526748 Q 113.21115226337449 579.2300068587106 81.96808641975309 527.1582304526748 Z" fill="#b08d57" opacity="0.8151150977366255" transform="rotate(15.121913580246913 81.96808641975309 527.1582304526748)"/><path d="M 77.29905349794238 530.8830246913581 Q 96.08010802469136 499.58126714677644 139.90256858710563 530.8830246913581 Q 96.08010802469136 562.1847822359397 77.29905349794238 530.8830246913581 Z" fill="#c9a469" opacity="0.8447093621399177" transform="rotate(41.333333333333336 77.29905349794238 530.8830246913581)"/><g><ellipse cx="110.8" cy="540.9" rx="15.0" ry="9.2" fill="#b08d57" opacity="0.96" transform="rotate(1.167688870670746 110.8 540.9)"/><ellipse cx="102.1" cy="553.9" rx="15.0" ry="9.2" fill="#b08d57" opacity="0.96" transform="rotate(66.1509210143856 102.1 553.9)"/><ellipse cx="88.4" cy="552.8" rx="15.0" ry="9.2" fill="#b08d57" opacity="0.96" transform="rotate(122.90746362281803 88.4 552.8)"/><ellipse cx="81.8" cy="540.2" rx="15.0" ry="9.2" fill="#b08d57" opacity="0.96" transform="rotate(181.73817829052678 81.8 540.2)"/><ellipse cx="91.9" cy="526.9" rx="15.0" ry="9.2" fill="#b08d57" opacity="0.96" transform="rotate(252.41341013509762 91.9 526.9)"/><ellipse cx="105.4" cy="529.4" rx="15.0" ry="9.2" fill="#b08d57" opacity="0.96" transform="rotate(309.1589003169264 105.4 529.4)"/><circle cx="96.28574074074074" cy="540.6542901234568" r="8.7" fill="#0f0c09"/></g><g><ellipse cx="64.9" cy="516.1" rx="12.5" ry="7.7" fill="#e8dcc8" opacity="0.96" transform="rotate(3.973347363995581 64.9 516.1)"/><ellipse cx="58.3" cy="526.0" rx="12.5" ry="7.7" fill="#e8dcc8" opacity="0.96" transform="rotate(63.3529992196833 58.3 526.0)"/><ellipse cx="45.8" cy="525.0" rx="12.5" ry="7.7" fill="#e8dcc8" opacity="0.96" transform="rotate(126.044694914251 45.8 525.0)"/><ellipse cx="40.8" cy="514.5" rx="12.5" ry="7.7" fill="#e8dcc8" opacity="0.96" transform="rotate(183.25070287122995 40.8 514.5)"/><ellipse cx="49.6" cy="503.6" rx="12.5" ry="7.7" fill="#e8dcc8" opacity="0.96" transform="rotate(254.2906647937197 49.6 503.6)"/><ellipse cx="60.4" cy="505.8" rx="12.5" ry="7.7" fill="#e8dcc8" opacity="0.96" transform="rotate(308.6156735493593 60.4 505.8)"/><circle cx="52.86935185185185" cy="515.2212345679012" r="7.2" fill="#0f0c09"/></g><g><ellipse cx="89.1" cy="490.6" rx="12.1" ry="7.4" fill="#b08d57" opacity="0.96" transform="rotate(13.642562778158403 89.1 490.6)"/><ellipse cx="81.5" cy="498.9" rx="12.1" ry="7.4" fill="#b08d57" opacity="0.96" transform="rotate(70.99962056538662 81.5 498.9)"/><ellipse cx="70.4" cy="496.9" rx="12.1" ry="7.4" fill="#b08d57" opacity="0.96" transform="rotate(128.88351068738663 70.4 496.9)"/><ellipse cx="66.1" cy="486.2" rx="12.1" ry="7.4" fill="#b08d57" opacity="0.96" transform="rotate(188.04579815320346 66.1 486.2)"/><ellipse cx="73.5" cy="476.9" rx="12.1" ry="7.4" fill="#b08d57" opacity="0.96" transform="rotate(248.70753149490926 73.5 476.9)"/><ellipse cx="84.3" cy="478.2" rx="12.1" ry="7.4" fill="#b08d57" opacity="0.96" transform="rotate(304.19304504392727 84.3 478.2)"/><circle cx="77.70296296296296" cy="487.8381790123457" r="7.0" fill="#0f0c09"/></g><path d="M 727.054074074074 486.32940329218104 Q 754.0362294238682 441.35914437585734 816.9945919067216 486.32940329218104 Q 754.0362294238682 531.2996622085047 727.054074074074 486.32940329218104 Z" fill="#c9a469" opacity="0.70713091563786" transform="rotate(110.40432098765432 727.054074074074 486.32940329218104)"/><path d="M 764.8998559670782 491.5467901234568 Q 796.8375925925926 438.3172290809328 871.3589780521262 491.5467901234568 Q 796.8375925925926 544.7763511659808 764.8998559670782 491.5467901234568 Z" fill="#b08d57" opacity="0.8083686985596708" transform="rotate(135.22685185185185 764.8998559670782 491.5467901234568)"/><path d="M 706.2406995884774 528.3333127572016 Q 734.9448199588477 480.4931121399177 801.9211008230452 528.3333127572016 Q 734.9448199588477 576.1735133744855 706.2406995884774 528.3333127572016 Z" fill="#c9a469" opacity="0.8378086419753086" transform="rotate(285.51234567901236 706.2406995884774 528.3333127572016)"/><path d="M 724.6025308641975 522.9260082304527 Q 755.2208744855967 471.89543552812074 826.6636762688615 522.9260082304527 Q 755.2208744855967 573.9565809327846 724.6025308641975 522.9260082304527 Z" fill="#b08d57" opacity="0.840358153292181" transform="rotate(95.70524691358024 724.6025308641975 522.9260082304527)"/><path d="M 741.6001646090535 496.31746913580247 Q 762.573163580247 461.3624708504801 811.5101611796982 496.31746913580247 Q 762.573163580247 531.2724674211248 741.6001646090535 496.31746913580247 Z" fill="#c9a469" opacity="0.8220357510288065" transform="rotate(126.91666666666667 741.6001646090535 496.31746913580247)"/><path d="M 766.6706378600823 487.9891769547325 Q 799.4202057613168 433.40656378600823 875.8358641975308 487.9891769547325 Q 799.4202057613168 542.5717901234568 766.6706378600823 487.9891769547325 Z" fill="#b08d57" opacity="0.7666377314814814" transform="rotate(86.92438271604938 766.6706378600823 487.9891769547325)"/><path d="M 716.8065432098765 521.2448353909465 Q 737.1582973251028 487.3252451989026 784.6457235939642 521.2448353909465 Q 737.1582973251028 555.1644255829904 716.8065432098765 521.2448353909465 Z" fill="#c9a469" opacity="0.7524048353909465" transform="rotate(70.17283950617283 716.8065432098765 521.2448353909465)"/><g><ellipse cx="733.8" cy="468.4" rx="12.7" ry="7.8" fill="#b08d57" opacity="0.96" transform="rotate(1.7846598846319208 733.8 468.4)"/><ellipse cx="727.5" cy="478.8" rx="12.7" ry="7.8" fill="#b08d57" opacity="0.96" transform="rotate(60.696425680767085 727.5 478.8)"/><ellipse cx="714.2" cy="478.0" rx="12.7" ry="7.8" fill="#b08d57" opacity="0.96" transform="rotate(126.05912447120568 714.2 478.0)"/><ellipse cx="709.3" cy="466.2" rx="12.7" ry="7.8" fill="#b08d57" opacity="0.96" transform="rotate(188.54450820250608 709.3 466.2)"/><ellipse cx="716.5" cy="456.8" rx="12.7" ry="7.8" fill="#b08d57" opacity="0.96" transform="rotate(246.2515594988484 716.5 456.8)"/><ellipse cx="729.0" cy="458.3" rx="12.7" ry="7.8" fill="#b08d57" opacity="0.96" transform="rotate(307.8895905238725 729.0 458.3)"/><circle cx="721.4729012345679" cy="468.03404320987653" r="7.4" fill="#0f0c09"/></g><g><ellipse cx="716.3" cy="523.1" rx="10.9" ry="6.7" fill="#e8dcc8" opacity="0.96" transform="rotate(4.059801900983771 716.3 523.1)"/><ellipse cx="710.2" cy="531.9" rx="10.9" ry="6.7" fill="#e8dcc8" opacity="0.96" transform="rotate(65.32573456368655 710.2 531.9)"/><ellipse cx="699.7" cy="530.9" rx="10.9" ry="6.7" fill="#e8dcc8" opacity="0.96" transform="rotate(125.48274042382775 699.7 530.9)"/><ellipse cx="695.3" cy="521.5" rx="10.9" ry="6.7" fill="#e8dcc8" opacity="0.96" transform="rotate(184.75186801347942 695.3 521.5)"/><ellipse cx="702.3" cy="512.4" rx="10.9" ry="6.7" fill="#e8dcc8" opacity="0.96" transform="rotate(250.78139654233544 702.3 512.4)"/><ellipse cx="713.0" cy="514.6" rx="10.9" ry="6.7" fill="#e8dcc8" opacity="0.96" transform="rotate(313.1820450030083 713.0 514.6)"/><circle cx="705.7898456790124" cy="522.3343209876543" r="6.3" fill="#0f0c09"/></g><g><ellipse cx="768.9" cy="483.6" rx="11.2" ry="6.8" fill="#b08d57" opacity="0.96" transform="rotate(13.19850083817361 768.9 483.6)"/><ellipse cx="762.7" cy="491.0" rx="11.2" ry="6.8" fill="#b08d57" opacity="0.96" transform="rotate(66.07564170874106 762.7 491.0)"/><ellipse cx="752.2" cy="490.0" rx="11.2" ry="6.8" fill="#b08d57" opacity="0.96" transform="rotate(124.60794085815249 752.2 490.0)"/><ellipse cx="747.6" cy="480.3" rx="11.2" ry="6.8" fill="#b08d57" opacity="0.96" transform="rotate(184.2417985257231 747.6 480.3)"/><ellipse cx="754.3" cy="471.1" rx="11.2" ry="6.8" fill="#b08d57" opacity="0.96" transform="rotate(247.85084562838986 754.3 471.1)"/><ellipse cx="763.8" cy="471.7" rx="11.2" ry="6.8" fill="#b08d57" opacity="0.96" transform="rotate(300.27115286600844 763.8 471.7)"/><circle cx="758.3567901234568" cy="481.0845987654321" r="6.5" fill="#0f0c09"/></g><g><ellipse cx="730.6" cy="462.4" rx="15.8" ry="9.7" fill="#e8dcc8" opacity="0.96" transform="rotate(4.133853159227917 730.6 462.4)"/><ellipse cx="721.4" cy="475.3" rx="15.8" ry="9.7" fill="#e8dcc8" opacity="0.96" transform="rotate(66.52713333549829 721.4 475.3)"/><ellipse cx="706.2" cy="473.5" rx="15.8" ry="9.7" fill="#e8dcc8" opacity="0.96" transform="rotate(127.0157119937476 706.2 473.5)"/><ellipse cx="700.4" cy="458.5" rx="15.8" ry="9.7" fill="#e8dcc8" opacity="0.96" transform="rotate(190.5952859588048 700.4 458.5)"/><ellipse cx="708.0" cy="447.9" rx="15.8" ry="9.7" fill="#e8dcc8" opacity="0.96" transform="rotate(241.04089297657939 708.0 447.9)"/><ellipse cx="723.3" cy="448.3" rx="15.8" ry="9.7" fill="#e8dcc8" opacity="0.96" transform="rotate(301.3857900889819 723.3 448.3)"/><circle cx="715.3737345679012" cy="461.28487654320986" r="9.1" fill="#0f0c09"/></g>
  <rect width="800" height="1000" fill="url(#v3)"/>
  <rect width="800" height="1000" filter="url(#n3)" opacity="0.5"/>
</svg>