<svg width="800" height="1000" viewBox="0 0 800 1000" xmlns="http://www.w3.org/2000/svg" role="img">
  <defs>
    <linearGradient id="g3" x1="0.2" y1="0" x2="0.8" y2="1">
      <stop offset="0%" stop-color="#f6e9dd"/>
      <stop offset="100%" stop-color="#e9cdb6"/>
    </linearGradient>
    <radialGradient id="glow3" cx="50%" cy="30%" r="65%">
      <stop offset="0%" stop-color="#fff6e8" stop-opacity="0.55"/>
      <stop offset="100%" stop-color="#fff6e8" stop-opacity="0"/>
    </radialGradient>
    <filter id="n3"><feTurbulence type="fractalNoise" baseFrequency="0.85" numOctaves="2" stitchTiles="stitch" result="noise"/><feColorMatrix in="noise" type="matrix" values="0 0 0 0 0  0 0 0 0 0  0 0 0 0 0  0 0 0 0.035 0"/></filter>
  </defs>
  <rect width="800" height="1000" fill="url(#g3)"/>
  <rect width="800" height="1000" fill="url(#glow3)"/>
  <path d="M 200 940 L 200 340 A 200 200 0 0 1 600 340 L 600 940" fill="none" stroke="#ad8253" stroke-width="4.8"/><g fill="none" stroke="#5b4f3d" stroke-width="2.2647462277091908"><ellipse cx="228.1" cy="341.2" rx="22.6" ry="13.6" transform="rotate(2.4883678864833776 228.1 341.2)"/><ellipse cx="203.6" cy="367.9" rx="22.6" ry="13.6" transform="rotate(82.69550690715145 203.6 367.9)"/><ellipse cx="176.1" cy="354.7" rx="22.6" ry="13.6" transform="rotate(148.39891491013034 176.1 354.7)"/><ellipse cx="179.6" cy="320.7" rx="22.6" ry="13.6" transform="rotate(223.54256888946742 179.6 320.7)"/><ellipse cx="210.0" cy="313.8" rx="22.6" ry="13.6" transform="rotate(290.9023672261064 210.0 313.8)"/><circle cx="200" cy="340" r="6.3" fill="#5b4f3d" stroke="none"/></g><g stroke="#c99a5f" stroke-width="2.52" fill="none" transform="rotate(27.737139917695472 200 340)"><path d="M 200 340 Q 228 334.4 256 340" /><path d="M 214 338 q 6.720000000000001 -8.96 2.8000000000000007 -15.680000000000003" /><path d="M 228 342 q 6.720000000000001 8.96 2.8000000000000007 15.680000000000003" /><path d="M 242 338 q 6.720000000000001 -8.96 2.8000000000000007 -15.680000000000003" /></g><g fill="none" stroke="#5b4f3d" stroke-width="2.344235253772291"><ellipse cx="267.2" cy="459.7" rx="23.4" ry="14.1" transform="rotate(4.313688420542556 267.2 459.7)"/><ellipse cx="244.5" cy="485.9" rx="23.4" ry="14.1" transform="rotate(77.53274651397206 244.5 485.9)"/><ellipse cx="211.9" cy="469.9" rx="23.4" ry="14.1" transform="rotate(154.88688581402988 211.9 469.9)"/><ellipse cx="217.4" cy="437.3" rx="23.4" ry="14.1" transform="rotate(224.24496288060044 217.4 437.3)"/><ellipse cx="249.2" cy="430.6" rx="23.4" ry="14.1" transform="rotate(292.15001426301717 249.2 430.6)"/><circle cx="238.19660112501052" cy="457.5570504584946" r="6.6" fill="#5b4f3d" stroke="none"/></g><g stroke="#c99a5f" stroke-width="2.52" fill="none" transform="rotate(8.050668724279838 238.19660112501052 457.5570504584946)"><path d="M 238.19660112501052 457.5570504584946 Q 266.19660112501055 451.95705045849456 294.19660112501055 457.5570504584946" /><path d="M 252.19660112501052 455.5570504584946 q 6.720000000000001 -8.96 2.8000000000000007 -15.680000000000003" /><path d="M 266.19660112501055 459.5570504584946 q 6.720000000000001 8.96 2.8000000000000007 15.680000000000003" /><path d="M 280.19660112501055 455.5570504584946 q 6.720000000000001 -8.96 2.8000000000000007 -15.680000000000003" /></g><g fill="none" stroke="#5b4f3d" stroke-width="2.559320987654321"><ellipse cx="369.9" cy="530.3" rx="25.6" ry="15.4" transform="rotate(0.19427709874334756 369.9 530.3)"/><ellipse cx="342.4" cy="561.7" rx="25.6" ry="15.4" transform="rotate(82.30538080899225 342.4 561.7)"/><ellipse cx="310.1" cy="544.9" rx="25.6" ry="15.4" transform="rotate(152.38849706075922 310.1 544.9)"/><ellipse cx="316.1" cy="507.4" rx="25.6" ry="15.4" transform="rotate(225.89933921652386 316.1 507.4)"/><ellipse cx="349.0" cy="500.4" rx="25.6" ry="15.4" transform="rotate(289.8579374730138 349.0 500.4)"/><circle cx="338.1966011250105" cy="530.2113032590307" r="7.2" fill="#5b4f3d" stroke="none"/></g><g stroke="#c99a5f" stroke-width="2.52" fill="none" transform="rotate(-15.910493827160494 338.1966011250105 530.2113032590307)"><path d="M 338.1966011250105 530.2113032590307 Q 366.1966011250105 524.6113032590307 394.1966011250105 530.2113032590307" /><path d="M 352.1966011250105 528.2113032590307 q 6.720000000000001 -8.96 2.8000000000000007 -15.680000000000003" /><path d="M 366.1966011250105 532.2113032590307 q 6.720000000000001 8.96 2.8000000000000007 15.680000000000003" /><path d="M 380.1966011250105 528.2113032590307 q 6.720000000000001 -8.96 2.8000000000000007 -15.680000000000003" /></g><g fill="none" stroke="#5b4f3d" stroke-width="2.25568244170096"><ellipse cx="489.4" cy="534.9" rx="22.6" ry="13.5" transform="rotate(9.617772508560048 489.4 534.9)"/><ellipse cx="467.1" cy="557.7" rx="22.6" ry="13.5" transform="rotate(79.15268840078826 467.1 557.7)"/><ellipse cx="436.8" cy="542.8" rx="22.6" ry="13.5" transform="rotate(153.17636315096013 436.8 542.8)"/><ellipse cx="440.4" cy="512.2" rx="22.6" ry="13.5" transform="rotate(219.98206650053842 440.4 512.2)"/><ellipse cx="472.1" cy="504.2" rx="22.6" ry="13.5" transform="rotate(291.6302063593757 472.1 504.2)"/><circle cx="461.80339887498945" cy="530.2113032590307" r="6.3" fill="#5b4f3d" stroke="none"/></g><g stroke="#c99a5f" stroke-width="2.52" fill="none" transform="rotate(13.44624485596708 461.80339887498945 530.2113032590307)"><path d="M 461.80339887498945 530.2113032590307 Q 489.80339887498945 524.6113032590307 517.8033988749895 530.2113032590307" /><path d="M 475.80339887498945 528.2113032590307 q 6.720000000000001 -8.96 2.8000000000000007 -15.680000000000003" /><path d="M 489.80339887498945 532.2113032590307 q 6.720000000000001 8.96 2.8000000000000007 15.680000000000003" /><path d="M 503.80339887498945 528.2113032590307 q 6.720000000000001 -8.96 2.8000000000000007 -15.680000000000003" /></g><g fill="none" stroke="#5b4f3d" stroke-width="2.0827023319615914"><ellipse cx="587.4" cy="461.3" rx="20.8" ry="12.5" transform="rotate(8.357255534893033 587.4 461.3)"/><ellipse cx="567.3" cy="482.8" rx="20.8" ry="12.5" transform="rotate(77.80080470053146 567.3 482.8)"/><ellipse cx="539.4" cy="470.5" rx="20.8" ry="12.5" transform="rotate(150.00009223266844 539.4 470.5)"/><ellipse cx="541.8" cy="441.2" rx="20.8" ry="12.5" transform="rotate(219.1901724148642 541.8 441.2)"/><ellipse cx="572.5" cy="434.0" rx="20.8" ry="12.5" transform="rotate(294.4605608859226 572.5 434.0)"/><circle cx="561.8033988749894" cy="457.5570504584947" r="5.8" fill="#5b4f3d" stroke="none"/></g><g stroke="#c99a5f" stroke-width="2.52" fill="none" transform="rotate(-28.508744855967077 561.8033988749894 457.5570504584947)"><path d="M 561.8033988749894 457.5570504584947 Q 589.8033988749894 451.9570504584947 617.8033988749894 457.5570504584947" /><path d="M 575.8033988749894 455.5570504584947 q 6.720000000000001 -8.96 2.8000000000000007 -15.680000000000003" /><path d="M 589.8033988749894 459.5570504584947 q 6.720000000000001 8.96 2.8000000000000007 15.680000000000003" /><path d="M 603.8033988749894 455.5570504584947 q 6.720000000000001 -8.96 2.8000000000000007 -15.680000000000003" /></g><g fill="none" stroke="#5b4f3d" stroke-width="2.3045781893004116"><ellipse cx="628.5" cy="341.8" rx="23.0" ry="13.8" transform="rotate(3.592382499443361 628.5 341.8)"/><ellipse cx="608.7" cy="367.2" rx="23.0" ry="13.8" transform="rotate(72.27257740099289 608.7 367.2)"/><ellipse cx="575.5" cy="354.6" rx="23.0" ry="13.8" transform="rotate(149.19051426442846 575.5 354.6)"/><ellipse cx="577.5" cy="322.4" rx="23.0" ry="13.8" transform="rotate(217.97091783385065 577.5 322.4)"/><ellipse cx="613.7" cy="314.9" rx="23.0" ry="13.8" transform="rotate(298.73804646910133 613.7 314.9)"/><circle cx="600" cy="340.00000000000006" r="6.5" fill="#5b4f3d" stroke="none"/></g><g stroke="#c99a5f" stroke-width="2.52" fill="none" transform="rotate(24.70601851851852 600 340.00000000000006)"><path d="M 600 340.00000000000006 Q 628 334.40000000000003 656 340.00000000000006" /><path d="M 614 338.00000000000006 q 6.720000000000001 -8.96 2.8000000000000007 -15.680000000000003" /><path d="M 628 342.00000000000006 q 6.720000000000001 8.96 2.8000000000000007 15.680000000000003" /><path d="M 642 338.00000000000006 q 6.720000000000001 -8.96 2.8000000000000007 -15.680000000000003" /></g><g fill="none" stroke="#5b4f3d" stroke-width="1.8"><ellipse cx="422.2" cy="938.5" rx="18.0" ry="10.8" transform="rotate(6.370815181901319 422.2 938.5)"/><ellipse cx="406.1" cy="957.5" rx="18.0" ry="10.8" transform="rotate(74.07839654233369 406.1 957.5)"/><ellipse cx="381.5" cy="948.5" rx="18.0" ry="10.8" transform="rotate(145.99179463965746 381.5 948.5)"/><ellipse cx="384.5" cy="919.9" rx="18.0" ry="10.8" transform="rotate(226.10756693373577 384.5 919.9)"/><ellipse cx="407.6" cy="915.0" rx="18.0" ry="10.8" transform="rotate(289.98658771867974 407.6 915.0)"/><circle cx="400" cy="936" r="5.0" fill="#5b4f3d" stroke="none"/></g>
    <rect x="155.2" y="900.2614197530864" width="9.6" height="55.738580246913585" rx="4.8" fill="none" stroke="#5b4f3d" stroke-width="1.152"/>
    <circle cx="160" cy="884.9014197530864" r="24.96" fill="#c99a5f" opacity="0.28"/>
    <path d="M 160 898.2614197530864 q 4.8 -13.44 0 -23.04 q -4.8 9.6 0 23.04" fill="#c99a5f"/>
  
    <rect x="315.2" y="902.3934156378601" width="9.6" height="53.60658436213992" rx="4.8" fill="none" stroke="#5b4f3d" stroke-width="1.152"/>
    <circle cx="320" cy="887.0334156378601" r="24.96" fill="#c99a5f" opacity="0.28"/>
    <path d="M 320 900.3934156378601 q 4.8 -13.44 0 -23.04 q -4.8 9.6 0 23.04" fill="#c99a5f"/>
  
    <rect x="475.20000000000005" y="908.0871399176955" width="9.6" height="47.91286008230453" rx="4.8" fill="none" stroke="#5b4f3d" stroke-width="1.152"/>
    <circle cx="480.00000000000006" cy="892.7271399176955" r="24.96" fill="#c99a5f" opacity="0.28"/>
    <path d="M 480.00000000000006 906.0871399176955 q 4.8 -13.44 0 -23.04 q -4.8 9.6 0 23.04" fill="#c99a5f"/>
  
    <rect x="635.2" y="897.4166666666666" width="9.6" height="58.58333333333333" rx="4.8" fill="none" stroke="#5b4f3d" stroke-width="1.152"/>
    <circle cx="640" cy="882.0566666666666" r="24.96" fill="#c99a5f" opacity="0.28"/>
    <path d="M 640 895.4166666666666 q 4.8 -13.44 0 -23.04 q -4.8 9.6 0 23.04" fill="#c99a5f"/>
  
  <rect width="800" height="1000" filter="url(#n3)" opacity="0.4"/>
</svg>