<svg width="800" height="1000" viewBox="0 0 800 1000" xmlns="http://www.w3.org/2000/svg" role="img">
  <defs>
    <linearGradient id="g6" x1="0" y1="0" x2="1" y2="1">
      <stop offset="0%" stop-color="#7c8a56"/>
      <stop offset="100%" stop-color="#5f6b41"/>
    </linearGradient>
    <radialGradient id="soft6" cx="50%" cy="35%" r="75%">
      <stop offset="0%" stop-color="#ffffff" stop-opacity="0.35"/>
      <stop offset="100%" stop-color="#ffffff" stop-opacity="0"/>
    </radialGradient>
  </defs>
  <rect width="800" height="1000" fill="url(#g6)"/>
  <rect width="800" height="1000" fill="url(#soft6)"/>
  <path d="M 200 820 L 200 620 A 200 200 0 0 1 600 620 L 600 820" fill="none" stroke="#8a9767" stroke-width="2" opacity="0.5"/><g transform="rotate(20 256 420)"><ellipse cx="256" cy="420" rx="14.4" ry="6.4" fill="#5f6b41" opacity="0.6" transform="rotate(-30 256 420)"/><ellipse cx="263.2" cy="386.05887450304573" rx="14.4" ry="6.4" fill="#5f6b41" opacity="0.6" transform="rotate(-15 263.2 386.05887450304573)"/><ellipse cx="270.4" cy="372" rx="14.4" ry="6.4" fill="#5f6b41" opacity="0.6" transform="rotate(0 270.4 372)"/><ellipse cx="277.6" cy="386.05887450304573" rx="14.4" ry="6.4" fill="#5f6b41" opacity="0.6" transform="rotate(15 277.6 386.05887450304573)"/><ellipse cx="284.8" cy="420" rx="14.4" ry="6.4" fill="#5f6b41" opacity="0.6" transform="rotate(30 284.8 420)"/></g><g transform="rotate(-20 544 420)"><ellipse cx="544" cy="420" rx="14.4" ry="6.4" fill="#5f6b41" opacity="0.6" transform="rotate(-30 544 420)"/><ellipse cx="551.2" cy="386.05887450304573" rx="14.4" ry="6.4" fill="#5f6b41" opacity="0.6" transform="rotate(-15 551.2 386.05887450304573)"/><ellipse cx="558.4" cy="372" rx="14.4" ry="6.4" fill="#5f6b41" opacity="0.6" transform="rotate(0 558.4 372)"/><ellipse cx="565.6" cy="386.05887450304573" rx="14.4" ry="6.4" fill="#5f6b41" opacity="0.6" transform="rotate(15 565.6 386.05887450304573)"/><ellipse cx="572.8" cy="420" rx="14.4" ry="6.4" fill="#5f6b41" opacity="0.6" transform="rotate(30 572.8 420)"/></g><circle cx="360.4355281207133" cy="724.8799725651578" r="19.839351851851852" fill="#8a9767" opacity="0.16969607338820303"/><circle cx="354.4855967078189" cy="549.4898834019205" r="16.200720164609052" fill="#b08d57" opacity="0.1628823731138546"/><circle cx="560.6755829903979" cy="765.8179012345679" r="17.003446502057614" fill="#b08d57" opacity="0.19987011316872427"/><circle cx="744.4375857338821" cy="228.80229766803842" r="19.617901234567903" fill="#8a9767" opacity="0.21059756515775035"/><circle cx="552.6851851851852" cy="867.4554183813443" r="20.970010288065843" fill="#8a9767" opacity="0.19907707475994513"/><circle cx="136.03566529492454" cy="795.9747942386831" r="22.874588477366256" fill="#b08d57" opacity="0.15450617283950618"/>
</svg>