<svg width="800" height="1000" viewBox="0 0 800 1000" xmlns="http://www.w3.org/2000/svg" role="img">
  <defs>
    <linearGradient id="g4" x1="0.1" y1="0" x2="0.9" y2="1">
      <stop offset="0%" stop-color="#7a5a28"/>
      <stop offset="100%" stop-color="#40300f"/>
    </linearGradient>
    <radialGradient id="v4" cx="50%" cy="42%" r="72%">
      <stop offset="0%" stop-color="#000000" stop-opacity="0"/>
      <stop offset="100%" stop-color="#000000" stop-opacity="0.3"/>
    </radialGradient>
    <filter id="n4"><feTurbulence type="fractalNoise" baseFrequency="0.8" numOctaves="2" stitchTiles="stitch" result="noise"/><feColorMatrix in="noise" type="matrix" values="0 0 0 0 0  0 0 0 0 0  0 0 0 0 0  0 0 0 0.06 0"/></filter>
  </defs>
  <rect width="800" height="1000" fill="url(#g4)"/>
  <circle cx="400" cy="420" r="112.00000000000001" fill="none" stroke="#f4ede3" stroke-width="3.2" opacity="0.5"/><circle cx="400" cy="420" r="216" fill="none" stroke="#f4ede3" stroke-width="3.2" opacity="0.38"/><circle cx="400" cy="420" r="320" fill="none" stroke="#f4ede3" stroke-width="3.2" opacity="0.26"/><g><ellipse cx="701.3" cy="420.4" rx="30.3" ry="18.6" fill="#5f6b41" opacity="0.96" transform="rotate(0.7600385361078242 701.3 420.4)"/><ellipse cx="681.8" cy="447.6" rx="30.3" ry="18.6" fill="#5f6b41" opacity="0.96" transform="rotate(70.44055198635432 681.8 447.6)"/><ellipse cx="653.7" cy="442.9" rx="30.3" ry="18.6" fill="#5f6b41" opacity="0.96" transform="rotate(128.57864792023722 653.7 442.9)"/><ellipse cx="643.0" cy="415.6" rx="30.3" ry="18.6" fill="#5f6b41" opacity="0.96" transform="rotate(188.6582867941532 643.0 415.6)"/><ellipse cx="659.4" cy="393.5" rx="30.3" ry="18.6" fill="#5f6b41" opacity="0.96" transform="rotate(244.53431941649848 659.4 393.5)"/><ellipse cx="689.7" cy="396.6" rx="30.3" ry="18.6" fill="#5f6b41" opacity="0.96" transform="rotate(307.03812385880497 689.7 396.6)"/><circle cx="672" cy="420" r="17.6" fill="#241a0a"/></g><g><ellipse cx="648.2" cy="557.2" rx="29.2" ry="17.9" fill="#f4ede3" opacity="0.96" transform="rotate(2.5738031441292346 648.2 557.2)"/><ellipse cx="631.2" cy="581.8" rx="29.2" ry="17.9" fill="#f4ede3" opacity="0.96" transform="rotate(66.658104590751 631.2 581.8)"/><ellipse cx="602.8" cy="578.2" rx="29.2" ry="17.9" fill="#f4ede3" opacity="0.96" transform="rotate(127.64404244616246 602.8 578.2)"/><ellipse cx="592.3" cy="550.7" rx="29.2" ry="17.9" fill="#f4ede3" opacity="0.96" transform="rotate(190.5273135351926 592.3 550.7)"/><ellipse cx="612.0" cy="528.9" rx="29.2" ry="17.9" fill="#f4ede3" opacity="0.96" transform="rotate(253.40690048202154 612.0 528.9)"/><ellipse cx="638.4" cy="534.5" rx="29.2" ry="17.9" fill="#f4ede3" opacity="0.96" transform="rotate(310.66817057201854 638.4 534.5)"/><circle cx="620.0526224699856" cy="555.8959503300198" r="16.9" fill="#241a0a"/></g><g><ellipse cx="513.7" cy="642.3" rx="30.7" ry="18.8" fill="#5f6b41" opacity="0.96" transform="rotate(4.604932142021521 513.7 642.3)"/><ellipse cx="496.7" cy="666.8" rx="30.7" ry="18.8" fill="#5f6b41" opacity="0.96" transform="rotate(64.90561954800955 496.7 666.8)"/><ellipse cx="465.6" cy="663.2" rx="30.7" ry="18.8" fill="#5f6b41" opacity="0.96" transform="rotate(128.4299313800487 465.6 663.2)"/><ellipse cx="454.3" cy="639.6" rx="30.7" ry="18.8" fill="#5f6b41" opacity="0.96" transform="rotate(180.54445481496754 454.3 639.6)"/><ellipse cx="474.2" cy="611.8" rx="30.7" ry="18.8" fill="#5f6b41" opacity="0.96" transform="rotate(250.64864461835217 474.2 611.8)"/><ellipse cx="503.3" cy="617.2" rx="30.7" ry="18.8" fill="#5f6b41" opacity="0.96" transform="rotate(310.3156595657336 503.3 617.2)"/><circle cx="484.0526224699857" cy="639.8842665674395" r="17.8" fill="#241a0a"/></g><g><ellipse cx="347.0" cy="642.7" rx="32.3" ry="19.8" fill="#f4ede3" opacity="0.96" transform="rotate(5.2176663924513145 347.0 642.7)"/><ellipse cx="330.1" cy="667.7" rx="32.3" ry="19.8" fill="#f4ede3" opacity="0.96" transform="rotate(63.016821243823685 330.1 667.7)"/><ellipse cx="299.5" cy="666.4" rx="32.3" ry="19.8" fill="#f4ede3" opacity="0.96" transform="rotate(121.87332490694082 299.5 666.4)"/><ellipse cx="285.1" cy="635.0" rx="32.3" ry="19.8" fill="#f4ede3" opacity="0.96" transform="rotate(188.9049401145236 285.1 635.0)"/><ellipse cx="303.7" cy="611.2" rx="32.3" ry="19.8" fill="#f4ede3" opacity="0.96" transform="rotate(246.8256716585356 303.7 611.2)"/><ellipse cx="333.8" cy="614.3" rx="32.3" ry="19.8" fill="#f4ede3" opacity="0.96" transform="rotate(304.8753481795897 333.8 614.3)"/><circle cx="315.9473775300143" cy="639.8842665674395" r="18.7" fill="#241a0a"/></g><g><ellipse cx="216.4" cy="564.6" rx="38.7" ry="23.7" fill="#5f6b41" opacity="0.96" transform="rotate(13.386576297544934 216.4 564.6)"/><ellipse cx="194.1" cy="590.6" rx="38.7" ry="23.7" fill="#5f6b41" opacity="0.96" transform="rotate(67.84421417242774 194.1 590.6)"/><ellipse cx="155.8" cy="584.5" rx="38.7" ry="23.7" fill="#5f6b41" opacity="0.96" transform="rotate(130.2117053532897 155.8 584.5)"/><ellipse cx="142.5" cy="555.9" rx="38.7" ry="23.7" fill="#5f6b41" opacity="0.96" transform="rotate(180.0199557702565 142.5 555.9)"/><ellipse cx="162.6" cy="522.7" rx="38.7" ry="23.7" fill="#5f6b41" opacity="0.96" transform="rotate(242.42428837313045 162.6 522.7)"/><ellipse cx="201.7" cy="525.4" rx="38.7" ry="23.7" fill="#5f6b41" opacity="0.96" transform="rotate(305.44387272360507 201.7 525.4)"/><circle cx="179.94737753001434" cy="555.8959503300198" r="22.5" fill="#241a0a"/></g><g><ellipse cx="153.0" cy="423.9" rx="26.2" ry="16.1" fill="#f4ede3" opacity="0.96" transform="rotate(8.907826025914558 153.0 423.9)"/><ellipse cx="138.7" cy="443.0" rx="26.2" ry="16.1" fill="#f4ede3" opacity="0.96" transform="rotate(65.01964374913675 138.7 443.0)"/><ellipse cx="112.0" cy="439.7" rx="26.2" ry="16.1" fill="#f4ede3" opacity="0.96" transform="rotate(128.99710507192367 112.0 439.7)"/><ellipse cx="102.7" cy="418.0" rx="26.2" ry="16.1" fill="#f4ede3" opacity="0.96" transform="rotate(184.6152477401849 102.7 418.0)"/><ellipse cx="115.5" cy="397.9" rx="26.2" ry="16.1" fill="#f4ede3" opacity="0.96" transform="rotate(240.5833839175602 115.5 397.9)"/><ellipse cx="140.8" cy="398.1" rx="26.2" ry="16.1" fill="#f4ede3" opacity="0.96" transform="rotate(300.3056609979597 140.8 398.1)"/><circle cx="128" cy="420" r="15.2" fill="#241a0a"/></g><g><ellipse cx="213.0" cy="291.4" rx="35.0" ry="21.5" fill="#5f6b41" opacity="0.96" transform="rotate(12.427348473092161 213.0 291.4)"/><ellipse cx="191.6" cy="315.9" rx="35.0" ry="21.5" fill="#5f6b41" opacity="0.96" transform="rotate(69.88387809975282 191.6 315.9)"/><ellipse cx="162.0" cy="312.9" rx="35.0" ry="21.5" fill="#5f6b41" opacity="0.96" transform="rotate(121.89892969523916 162.0 312.9)"/><ellipse cx="146.1" cy="282.0" rx="35.0" ry="21.5" fill="#5f6b41" opacity="0.96" transform="rotate(183.54801314686688 146.1 282.0)"/><ellipse cx="163.4" cy="254.5" rx="35.0" ry="21.5" fill="#5f6b41" opacity="0.96" transform="rotate(240.72823210843742 163.4 254.5)"/><ellipse cx="197.4" cy="255.1" rx="35.0" ry="21.5" fill="#5f6b41" opacity="0.96" transform="rotate(301.08786578964475 197.4 255.1)"/><circle cx="179.9473775300143" cy="284.1040496699802" r="20.3" fill="#241a0a"/></g><g><ellipse cx="348.3" cy="204.3" rx="33.7" ry="20.7" fill="#f4ede3" opacity="0.96" transform="rotate(7.454923146500813 348.3 204.3)"/><ellipse cx="325.3" cy="231.4" rx="33.7" ry="20.7" fill="#f4ede3" opacity="0.96" transform="rotate(73.37392740932081 325.3 231.4)"/><ellipse cx="297.3" cy="226.9" rx="33.7" ry="20.7" fill="#f4ede3" opacity="0.96" transform="rotate(124.78846382601135 297.3 226.9)"/><ellipse cx="283.6" cy="195.9" rx="33.7" ry="20.7" fill="#f4ede3" opacity="0.96" transform="rotate(187.38437182334783 283.6 195.9)"/><ellipse cx="300.5" cy="171.4" rx="33.7" ry="20.7" fill="#f4ede3" opacity="0.96" transform="rotate(241.75359028540177 300.5 171.4)"/><ellipse cx="338.0" cy="176.1" rx="33.7" ry="20.7" fill="#f4ede3" opacity="0.96" transform="rotate(312.5209256850027 338.0 176.1)"/><circle cx="315.94737753001425" cy="200.11573343256055" r="19.6" fill="#241a0a"/></g><g><ellipse cx="514.6" cy="200.6" rx="31.5" ry="19.3" fill="#5f6b41" opacity="0.96" transform="rotate(0.8430545403748931 514.6 200.6)"/><ellipse cx="495.0" cy="228.6" rx="31.5" ry="19.3" fill="#5f6b41" opacity="0.96" transform="rotate(69.0793842477505 495.0 228.6)"/><ellipse cx="464.1" cy="223.2" rx="31.5" ry="19.3" fill="#5f6b41" opacity="0.96" transform="rotate(130.724783557177 464.1 223.2)"/><ellipse cx="453.6" cy="198.9" rx="31.5" ry="19.3" fill="#5f6b41" opacity="0.96" transform="rotate(182.2866856619156 453.6 198.9)"/><ellipse cx="469.0" cy="173.6" rx="31.5" ry="19.3" fill="#5f6b41" opacity="0.96" transform="rotate(240.43214988020085 469.0 173.6)"/><ellipse cx="504.4" cy="177.3" rx="31.5" ry="19.3" fill="#5f6b41" opacity="0.96" transform="rotate(311.7484224677808 504.4 177.3)"/><circle cx="484.05262246998564" cy="200.1157334325605" r="18.3" fill="#241a0a"/></g><g><ellipse cx="655.9" cy="288.4" rx="37.3" ry="22.9" fill="#f4ede3" opacity="0.96" transform="rotate(6.87147782657057 655.9 288.4)"/><ellipse cx="637.5" cy="315.8" rx="37.3" ry="22.9" fill="#f4ede3" opacity="0.96" transform="rotate(61.200170724411336 637.5 315.8)"/><ellipse cx="598.1" cy="312.8" rx="37.3" ry="22.9" fill="#f4ede3" opacity="0.96" transform="rotate(127.46180021194306 598.1 312.8)"/><ellipse cx="584.1" cy="280.5" rx="37.3" ry="22.9" fill="#f4ede3" opacity="0.96" transform="rotate(185.7177886962644 584.1 280.5)"/><ellipse cx="609.9" cy="249.4" rx="37.3" ry="22.9" fill="#f4ede3" opacity="0.96" transform="rotate(253.6962284495559 609.9 249.4)"/><ellipse cx="642.7" cy="256.0" rx="37.3" ry="22.9" fill="#f4ede3" opacity="0.96" transform="rotate(308.80595949405136 642.7 256.0)"/><circle cx="620.0526224699856" cy="284.10404966998016" r="21.7" fill="#241a0a"/></g><g><ellipse cx="452.7" cy="422.7" rx="54.6" ry="33.4" fill="#f4ede3" opacity="0.96" transform="rotate(2.939392855228442 452.7 422.7)"/><ellipse cx="428.6" cy="464.4" rx="54.6" ry="33.4" fill="#f4ede3" opacity="0.96" transform="rotate(57.23307137434881 428.6 464.4)"/><ellipse cx="392.9" cy="472.3" rx="54.6" ry="33.4" fill="#f4ede3" opacity="0.96" transform="rotate(97.72963734997039 392.9 472.3)"/><ellipse cx="359.8" cy="454.3" rx="54.6" ry="33.4" fill="#f4ede3" opacity="0.96" transform="rotate(139.5046006694088 359.8 454.3)"/><ellipse cx="347.3" cy="417.4" rx="54.6" ry="33.4" fill="#f4ede3" opacity="0.96" transform="rotate(182.77900986473617 347.3 417.4)"/><ellipse cx="369.9" cy="376.6" rx="54.6" ry="33.4" fill="#f4ede3" opacity="0.96" transform="rotate(235.20114414564628 369.9 376.6)"/><ellipse cx="401.9" cy="367.2" rx="54.6" ry="33.4" fill="#f4ede3" opacity="0.96" transform="rotate(272.05777762648097 401.9 367.2)"/><ellipse cx="440.8" cy="386.5" rx="54.6" ry="33.4" fill="#f4ede3" opacity="0.96" transform="rotate(320.62629916493455 440.8 386.5)"/><circle cx="400" cy="420" r="31.7" fill="#241a0a"/></g><path d="M 109.14740740740743 871.0944444444444 Q 151.6352777777778 800.2813271604938 250.77364197530866 871.0944444444444 Q 151.6352777777778 941.9075617283951 109.14740740740743 871.0944444444444 Z" fill="#f4ede3" opacity="0.7050102880658435" transform="rotate(39.38888888888889 109.14740740740743 871.0944444444444)"/><path d="M 95.46037037037038 835.162962962963 Q 121.75425925925927 791.3398148148149 183.10666666666668 835.162962962963 Q 121.75425925925927 878.9861111111111 95.46037037037038 835.162962962963 Z" fill="#5f6b41" opacity="0.848917824074074" transform="rotate(317.72993827160496 95.46037037037038 835.162962962963)"/><path d="M 126.81777777777779 890.4092592592592 Q 169.44546296296298 819.3631172839506 268.9100617283951 890.4092592592592 Q 169.44546296296298 961.4554012345678 126.81777777777779 890.4092592592592 Z" fill="#f4ede3" opacity="0.742323816872428" transform="rotate(39.31172839506173 126.81777777777779 890.4092592592592)"/><path d="M 142.68629629629632 825.9 Q 187.04222222222225 751.9734567901235 290.53938271604943 825.9 Q 187.04222222222225 899.8265432098765 142.68629629629632 825.9 Z" fill="#5f6b41" opacity="0.8245801183127571" transform="rotate(205.24537037037038 142.68629629629632 825.9)"/><path d="M 146.5325925925926 830.7018518518519 Q 185.27787037037038 766.1263888888889 275.68351851851855 830.7018518518519 Q 185.27787037037038 895.2773148148149 146.5325925925926 830.7018518518519 Z" fill="#f4ede3" opacity="0.8128163580246913" transform="rotate(3.308641975308642 146.5325925925926 830.7018518518519)"/><path d="M 129.02333333333334 841.0814814814814 Q 168.48574074074074 775.3108024691358 260.5646913580247 841.0814814814814 Q 168.48574074074074 906.8521604938271 129.02333333333334 841.0814814814814 Z" fill="#5f6b41" opacity="0.7186066100823045" transform="rotate(207.945987654321 129.02333333333334 841.0814814814814)"/><g><ellipse cx="127.2" cy="897.5" rx="25.7" ry="15.8" fill="#5f6b41" opacity="0.96" transform="rotate(6.172289039152585 127.2 897.5)"/><ellipse cx="114.5" cy="916.6" rx="25.7" ry="15.8" fill="#5f6b41" opacity="0.96" transform="rotate(61.11623368459397 114.5 916.6)"/><ellipse cx="90.0" cy="916.3" rx="25.7" ry="15.8" fill="#5f6b41" opacity="0.96" transform="rotate(120.2564162972036 90.0 916.3)"/><ellipse cx="78.0" cy="890.4" rx="25.7" ry="15.8" fill="#5f6b41" opacity="0.96" transform="rotate(190.1800831327294 78.0 890.4)"/><ellipse cx="92.6" cy="872.0" rx="25.7" ry="15.8" fill="#5f6b41" opacity="0.96" transform="rotate(246.70452478248612 92.6 872.0)"/><ellipse cx="118.4" cy="875.7" rx="25.7" ry="15.8" fill="#5f6b41" opacity="0.96" transform="rotate(309.67989942654634 118.4 875.7)"/><circle cx="102.4838888888889" cy="894.8377777777778" r="14.9" fill="#241a0a"/></g><g><ellipse cx="152.8" cy="844.6" rx="18.1" ry="11.1" fill="#f4ede3" opacity="0.96" transform="rotate(10.934227041315301 152.8 844.6)"/><ellipse cx="143.8" cy="856.8" rx="18.1" ry="11.1" fill="#f4ede3" opacity="0.96" transform="rotate(62.26402818737823 143.8 856.8)"/><ellipse cx="125.7" cy="855.7" rx="18.1" ry="11.1" fill="#f4ede3" opacity="0.96" transform="rotate(124.55415238201496 125.7 855.7)"/><ellipse cx="118.2" cy="839.7" rx="18.1" ry="11.1" fill="#f4ede3" opacity="0.96" transform="rotate(185.29325270994596 118.2 839.7)"/><ellipse cx="128.0" cy="825.6" rx="18.1" ry="11.1" fill="#f4ede3" opacity="0.96" transform="rotate(244.1718612262703 128.0 825.6)"/><ellipse cx="144.9" cy="826.5" rx="18.1" ry="11.1" fill="#f4ede3" opacity="0.96" transform="rotate(301.94154294003306 144.9 826.5)"/><circle cx="135.66888888888892" cy="841.3227777777778" r="10.5" fill="#241a0a"/></g><g><ellipse cx="181.7" cy="820.8" rx="16.4" ry="10.1" fill="#5f6b41" opacity="0.96" transform="rotate(11.816763305613069 181.7 820.8)"/><ellipse cx="173.4" cy="831.7" rx="16.4" ry="10.1" fill="#5f6b41" opacity="0.96" transform="rotate(63.113407171865184 173.4 831.7)"/><ellipse cx="155.5" cy="829.3" rx="16.4" ry="10.1" fill="#5f6b41" opacity="0.96" transform="rotate(132.13445916809667 155.5 829.3)"/><ellipse cx="150.4" cy="815.5" rx="16.4" ry="10.1" fill="#5f6b41" opacity="0.96" transform="rotate(187.2699792080005 150.4 815.5)"/><ellipse cx="161.3" cy="802.4" rx="16.4" ry="10.1" fill="#5f6b41" opacity="0.96" transform="rotate(252.0837408104601 161.3 802.4)"/><ellipse cx="176.0" cy="805.0" rx="16.4" ry="10.1" fill="#5f6b41" opacity="0.96" transform="rotate(308.2287158134931 176.0 805.0)"/><circle cx="166.1538888888889" cy="817.5077777777777" r="9.6" fill="#241a0a"/></g><g><ellipse cx="119.4" cy="860.8" rx="23.9" ry="14.7" fill="#f4ede3" opacity="0.96" transform="rotate(12.400884051613533 119.4 860.8)"/><ellipse cx="105.7" cy="877.1" rx="23.9" ry="14.7" fill="#f4ede3" opacity="0.96" transform="rotate(67.24535685762247 105.7 877.1)"/><ellipse cx="81.2" cy="872.9" rx="23.9" ry="14.7" fill="#f4ede3" opacity="0.96" transform="rotate(132.25437799674577 81.2 872.9)"/><ellipse cx="73.7" cy="853.6" rx="23.9" ry="14.7" fill="#f4ede3" opacity="0.96" transform="rotate(185.3673039681901 73.7 853.6)"/><ellipse cx="87.1" cy="834.7" rx="23.9" ry="14.7" fill="#f4ede3" opacity="0.96" transform="rotate(245.373259998082 87.1 834.7)"/><ellipse cx="109.5" cy="836.5" rx="23.9" ry="14.7" fill="#f4ede3" opacity="0.96" transform="rotate(303.47451450995294 109.5 836.5)"/><circle cx="96.73888888888891" cy="855.7927777777778" r="13.9" fill="#241a0a"/></g><g><ellipse cx="107.5" cy="859.6" rx="18.7" ry="11.4" fill="#5f6b41" opacity="0.96" transform="rotate(1.943630620613756 107.5 859.6)"/><ellipse cx="97.4" cy="875.2" rx="18.7" ry="11.4" fill="#5f6b41" opacity="0.96" transform="rotate(63.916918585947165 97.4 875.2)"/><ellipse cx="78.2" cy="873.1" rx="18.7" ry="11.4" fill="#5f6b41" opacity="0.96" transform="rotate(128.4948950875299 78.2 873.1)"/><ellipse cx="71.4" cy="858.0" rx="18.7" ry="11.4" fill="#5f6b41" opacity="0.96" transform="rotate(183.1662132100824 71.4 858.0)"/><ellipse cx="80.9" cy="843.0" rx="18.7" ry="11.4" fill="#5f6b41" opacity="0.96" transform="rotate(241.94534988697427 80.9 843.0)"/><ellipse cx="99.9" cy="844.3" rx="18.7" ry="11.4" fill="#5f6b41" opacity="0.96" transform="rotate(305.58387012725075 99.9 844.3)"/><circle cx="89.42388888888891" cy="858.9777777777778" r="10.8" fill="#241a0a"/></g><path d="M 721.247037037037 883.3496296296296 Q 748.3875925925926 838.1153703703703 811.7155555555555 883.3496296296296 Q 748.3875925925926 928.5838888888889 721.247037037037 883.3496296296296 Z" fill="#f4ede3" opacity="0.7464641203703704" transform="rotate(178.5077160493827 721.247037037037 883.3496296296296)"/><path d="M 667.8044444444445 872.9959259259259 Q 699.6787962962964 819.8720061728395 774.0522839506173 872.9959259259259 Q 699.6787962962964 926.1198456790123 667.8044444444445 872.9959259259259 Z" fill="#5f6b41" opacity="0.8093145576131686" transform="rotate(106.75617283950616 667.8044444444445 872.9959259259259)"/><path d="M 666.072962962963 838.8866666666667 Q 697.6755555555555 786.2156790123456 771.4149382716049 838.8866666666667 Q 697.6755555555555 891.5576543209877 666.072962962963 838.8866666666667 Z" fill="#f4ede3" opacity="0.827681970164609" transform="rotate(159.35648148148147 666.072962962963 838.8866666666667)"/><path d="M 690.7192592592593 854.8885185185185 Q 717.1112037037037 810.9019444444444 778.6924074074075 854.8885185185185 Q 717.1112037037037 898.8750925925925 690.7192592592593 854.8885185185185 Z" fill="#5f6b41" opacity="0.7686959876543209" transform="rotate(124.08641975308642 690.7192592592593 854.8885185185185)"/><path d="M 703.61 828.4681481481482 Q 747.919074074074 754.6196913580247 851.3069135802469 828.4681481481482 Q 747.919074074074 902.3166049382717 703.61 828.4681481481482 Z" fill="#f4ede3" opacity="0.7439306841563785" transform="rotate(295.3904320987654 703.61 828.4681481481482)"/><path d="M 721.0118518518518 855.8922222222222 Q 764.0325 784.1911419753087 864.414012345679 855.8922222222222 Q 764.0325 927.5933024691358 721.0118518518518 855.8922222222222 Z" fill="#5f6b41" opacity="0.776071244855967" transform="rotate(74.37962962962962 721.0118518518518 855.8922222222222)"/><path d="M 679.1914814814814 857.4274074074074 Q 720.9848148148147 787.7718518518518 818.5025925925926 857.4274074074074 Q 720.9848148148147 927.0829629629629 679.1914814814814 857.4274074074074 Z" fill="#f4ede3" opacity="0.8155806327160493" transform="rotate(48.83179012345679 679.1914814814814 857.4274074074074)"/><g><ellipse cx="684.4" cy="883.1" rx="22.7" ry="13.9" fill="#5f6b41" opacity="0.96" transform="rotate(0.7034255509493647 684.4 883.1)"/><ellipse cx="668.5" cy="903.9" rx="22.7" ry="13.9" fill="#5f6b41" opacity="0.96" transform="rotate(73.86913752353229 668.5 903.9)"/><ellipse cx="647.5" cy="899.0" rx="22.7" ry="13.9" fill="#5f6b41" opacity="0.96" transform="rotate(132.75143018205782 647.5 899.0)"/><ellipse cx="640.5" cy="882.1" rx="22.7" ry="13.9" fill="#5f6b41" opacity="0.96" transform="rotate(181.81548387438198 640.5 882.1)"/><ellipse cx="651.7" cy="863.6" rx="22.7" ry="13.9" fill="#5f6b41" opacity="0.96" transform="rotate(240.91145678057717 651.7 863.6)"/><ellipse cx="673.6" cy="863.9" rx="22.7" ry="13.9" fill="#5f6b41" opacity="0.96" transform="rotate(300.71110084720186 673.6 863.9)"/><circle cx="662.4027777777778" cy="882.8233333333334" r="13.2" fill="#241a0a"/></g><g><ellipse cx="766.7" cy="849.1" rx="21.4" ry="13.1" fill="#f4ede3" opacity="0.96" transform="rotate(13.48942526732847 766.7 849.1)"/><ellipse cx="755.4" cy="863.0" rx="21.4" ry="13.1" fill="#f4ede3" opacity="0.96" transform="rotate(64.73817528496497 755.4 863.0)"/><ellipse cx="732.7" cy="859.6" rx="21.4" ry="13.1" fill="#f4ede3" opacity="0.96" transform="rotate(132.34083253373396 732.7 859.6)"/><ellipse cx="726.1" cy="841.7" rx="21.4" ry="13.1" fill="#f4ede3" opacity="0.96" transform="rotate(187.34003931219334 726.1 841.7)"/><ellipse cx="737.8" cy="825.6" rx="21.4" ry="13.1" fill="#f4ede3" opacity="0.96" transform="rotate(244.8113055076588 737.8 825.6)"/><ellipse cx="758.4" cy="827.4" rx="21.4" ry="13.1" fill="#f4ede3" opacity="0.96" transform="rotate(304.9756796522024 758.4 827.4)"/><circle cx="746.5877777777778" cy="844.3083333333333" r="12.4" fill="#241a0a"/></g><g><ellipse cx="652.8" cy="900.6" rx="19.8" ry="12.1" fill="#5f6b41" opacity="0.96" transform="rotate(0.9101059284367564 652.8 900.6)"/><ellipse cx="642.5" cy="917.3" rx="19.8" ry="12.1" fill="#5f6b41" opacity="0.96" transform="rotate(62.47076996723563 642.5 917.3)"/><ellipse cx="621.9" cy="915.4" rx="19.8" ry="12.1" fill="#5f6b41" opacity="0.96" transform="rotate(128.0508331475451 621.9 915.4)"/><ellipse cx="615.0" cy="896.1" rx="19.8" ry="12.1" fill="#5f6b41" opacity="0.96" transform="rotate(192.56617923170745 615.0 896.1)"/><ellipse cx="627.7" cy="882.1" rx="19.8" ry="12.1" fill="#5f6b41" opacity="0.96" transform="rotate(251.99372493601075 627.7 882.1)"/><ellipse cx="643.8" cy="884.0" rx="19.8" ry="12.1" fill="#5f6b41" opacity="0.96" transform="rotate(301.77987049977037 643.8 884.0)"/><circle cx="633.6727777777778" cy="900.2933333333333" r="11.5" fill="#241a0a"/></g><g><ellipse cx="765.0" cy="827.4" rx="21.1" ry="12.9" fill="#f4ede3" opacity="0.96" transform="rotate(9.518288388653609 765.0 827.4)"/><ellipse cx="751.6" cy="843.2" rx="21.1" ry="12.9" fill="#f4ede3" opacity="0.96" transform="rotate(70.64790778991194 751.6 843.2)"/><ellipse cx="733.6" cy="841.0" rx="21.1" ry="12.9" fill="#f4ede3" opacity="0.96" transform="rotate(123.46241824305899 733.6 841.0)"/><ellipse cx="724.6" cy="821.6" rx="21.1" ry="12.9" fill="#f4ede3" opacity="0.96" transform="rotate(186.75094497422126 724.6 821.6)"/><ellipse cx="738.5" cy="804.6" rx="21.1" ry="12.9" fill="#f4ede3" opacity="0.96" transform="rotate(251.7157564069301 738.5 804.6)"/><ellipse cx="757.7" cy="808.1" rx="21.1" ry="12.9" fill="#f4ede3" opacity="0.96" transform="rotate(309.02860448774396 757.7 808.1)"/><circle cx="744.8577777777778" cy="823.9783333333334" r="12.3" fill="#241a0a"/></g><g><ellipse cx="738.6" cy="910.7" rx="15.9" ry="9.7" fill="#5f6b41" opacity="0.96" transform="rotate(14.247069111005514 738.6 910.7)"/><ellipse cx="730.4" cy="920.8" rx="15.9" ry="9.7" fill="#5f6b41" opacity="0.96" transform="rotate(64.20268521602036 730.4 920.8)"/><ellipse cx="715.6" cy="920.0" rx="15.9" ry="9.7" fill="#5f6b41" opacity="0.96" transform="rotate(122.15657403984319 715.6 920.0)"/><ellipse cx="708.5" cy="904.9" rx="15.9" ry="9.7" fill="#5f6b41" opacity="0.96" transform="rotate(187.7992676375731 708.5 904.9)"/><ellipse cx="717.9" cy="892.8" rx="15.9" ry="9.7" fill="#5f6b41" opacity="0.96" transform="rotate(247.55838613998452 717.9 892.8)"/><ellipse cx="731.8" cy="893.9" rx="15.9" ry="9.7" fill="#5f6b41" opacity="0.96" transform="rotate(301.65497807914966 731.8 893.9)"/><circle cx="723.7427777777777" cy="906.9633333333334" r="9.2" fill="#241a0a"/></g>
  <rect width="800" height="1000" fill="url(#v4)"/>
  <rect width="800" height="1000" filter="url(#n4)" opacity="0.5"/>
</svg>