<svg width="800" height="1000" viewBox="0 0 800 1000" xmlns="http://www.w3.org/2000/svg" role="img">
  <defs>
    <linearGradient id="g6" x1="0.2" y1="0" x2="0.8" y2="1">
      <stop offset="0%" stop-color="#f0ece0"/>
      <stop offset="100%" stop-color="#d9d3ba"/>
    </linearGradient>
    <radialGradient id="glow6" cx="50%" cy="30%" r="65%">
      <stop offset="0%" stop-color="#fff6e8" stop-opacity="0.55"/>
      <stop offset="100%" stop-color="#fff6e8" stop-opacity="0"/>
    </radialGradient>
    <filter id="n6"><feTurbulence type="fractalNoise" baseFrequency="0.85" numOctaves="2" stitchTiles="stitch" result="noise"/><feColorMatrix in="noise" type="matrix" values="0 0 0 0 0  0 0 0 0 0  0 0 0 0 0  0 0 0 0.035 0"/></filter>
  </defs>
  <rect width="800" height="1000" fill="url(#g6)"/>
  <rect width="800" height="1000" fill="url(#glow6)"/>
  <path d="M 200 940 L 200 340 A 200 200 0 0 1 600 340 L 600 940" fill="none" stroke="#ad8253" stroke-width="4.8"/><g fill="none" stroke="#5b4f3d" stroke-width="2.3604355281207137"><ellipse cx="229.0" cy="344.2" rx="23.6" ry="14.2" transform="rotate(8.306512616308488 229.0 344.2)"/><ellipse cx="207.2" cy="368.4" rx="23.6" ry="14.2" transform="rotate(75.66631095294747 207.2 368.4)"/><ellipse cx="176.2" cy="357.1" rx="23.6" ry="14.2" transform="rotate(144.3317692856922 176.2 357.1)"/><ellipse cx="178.1" cy="320.5" rx="23.6" ry="14.2" transform="rotate(221.69475052703288 178.1 320.5)"/><ellipse cx="211.5" cy="313.1" rx="23.6" ry="14.2" transform="rotate(293.0776321473836 211.5 313.1)"/><circle cx="200" cy="340" r="6.6" fill="#5b4f3d" stroke="none"/></g><g stroke="#c99a5f" stroke-width="2.52" fill="none" transform="rotate(2.9693930041152257 200 340)"><path d="M 200 340 Q 228 334.4 256 340" /><path d="M 214 338 q 6.720000000000001 -8.96 2.8000000000000007 -15.680000000000003" /><path d="M 228 342 q 6.720000000000001 8.96 2.8000000000000007 15.680000000000003" /><path d="M 242 338 q 6.720000000000001 -8.96 2.8000000000000007 -15.680000000000003" /></g><g fill="none" stroke="#5b4f3d" stroke-width="2.0133813443072706"><ellipse cx="262.9" cy="461.5" rx="20.1" ry="12.1" transform="rotate(9.008906607441517 262.9 461.5)"/><ellipse cx="243.8" cy="481.9" rx="20.1" ry="12.1" transform="rotate(76.91395798985828 243.8 481.9)"/><ellipse cx="216.1" cy="469.3" rx="20.1" ry="12.1" transform="rotate(152.03108614534668 216.1 469.3)"/><ellipse cx="220.5" cy="440.0" rx="20.1" ry="12.1" transform="rotate(224.77562672326144 220.5 440.0)"/><ellipse cx="246.3" cy="433.9" rx="20.1" ry="12.1" transform="rotate(288.9582208255844 246.3 433.9)"/><circle cx="238.19660112501052" cy="457.5570504584946" r="5.6" fill="#5b4f3d" stroke="none"/></g><g stroke="#c99a5f" stroke-width="2.52" fill="none" transform="rotate(27.958847736625515 238.19660112501052 457.5570504584946)"><path d="M 238.19660112501052 457.5570504584946 Q 266.19660112501055 451.95705045849456 294.19660112501055 457.5570504584946" /><path d="M 252.19660112501052 455.5570504584946 q 6.720000000000001 -8.96 2.8000000000000007 -15.680000000000003" /><path d="M 266.19660112501055 459.5570504584946 q 6.720000000000001 8.96 2.8000000000000007 15.680000000000003" /><path d="M 280.19660112501055 455.5570504584946 q 6.720000000000001 -8.96 2.8000000000000007 -15.680000000000003" /></g><g fill="none" stroke="#5b4f3d" stroke-width="2.638960905349794"><ellipse cx="370.4" cy="536.3" rx="26.4" ry="15.8" transform="rotate(10.663282943364957 370.4 536.3)"/><ellipse cx="346.9" cy="561.8" rx="26.4" ry="15.8" transform="rotate(74.62188119985491 346.9 561.8)"/><ellipse cx="310.6" cy="547.8" rx="26.4" ry="15.8" transform="rotate(147.4548411905985 310.6 547.8)"/><ellipse cx="313.3" cy="509.0" rx="26.4" ry="15.8" transform="rotate(220.42632492810728 313.3 509.0)"/><ellipse cx="353.8" cy="501.4" rx="26.4" ry="15.8" transform="rotate(298.38171623540114 353.8 501.4)"/><circle cx="338.1966011250105" cy="530.2113032590307" r="7.4" fill="#5b4f3d" stroke="none"/></g><g stroke="#c99a5f" stroke-width="2.52" fill="none" transform="rotate(11.451388888888886 338.1966011250105 530.2113032590307)"><path d="M 338.1966011250105 530.2113032590307 Q 366.1966011250105 524.6113032590307 394.1966011250105 530.2113032590307" /><path d="M 352.1966011250105 528.2113032590307 q 6.720000000000001 -8.96 2.8000000000000007 -15.680000000000003" /><path d="M 366.1966011250105 532.2113032590307 q 6.720000000000001 8.96 2.8000000000000007 15.680000000000003" /><path d="M 380.1966011250105 528.2113032590307 q 6.720000000000001 -8.96 2.8000000000000007 -15.680000000000003" /></g><g fill="none" stroke="#5b4f3d" stroke-width="2.6939643347050755"><ellipse cx="495.1" cy="533.0" rx="26.9" ry="16.2" transform="rotate(4.746010227379522 495.1 533.0)"/><ellipse cx="469.7" cy="562.7" rx="26.9" ry="16.2" transform="rotate(76.3941500862168 469.7 562.7)"/><ellipse cx="432.0" cy="545.3" rx="26.9" ry="16.2" transform="rotate(153.0615652799707 432.0 545.3)"/><ellipse cx="435.5" cy="509.7" rx="26.9" ry="16.2" transform="rotate(217.94856737116336 435.5 509.7)"/><ellipse cx="477.0" cy="500.5" rx="26.9" ry="16.2" transform="rotate(297.12119926173415 477.0 500.5)"/><circle cx="461.80339887498945" cy="530.2113032590307" r="7.5" fill="#5b4f3d" stroke="none"/></g><g stroke="#c99a5f" stroke-width="2.52" fill="none" transform="rotate(4.3729423868312765 461.80339887498945 530.2113032590307)"><path d="M 461.80339887498945 530.2113032590307 Q 489.80339887498945 524.6113032590307 517.8033988749895 530.2113032590307" /><path d="M 475.80339887498945 528.2113032590307 q 6.720000000000001 -8.96 2.8000000000000007 -15.680000000000003" /><path d="M 489.80339887498945 532.2113032590307 q 6.720000000000001 8.96 2.8000000000000007 15.680000000000003" /><path d="M 503.80339887498945 528.2113032590307 q 6.720000000000001 -8.96 2.8000000000000007 -15.680000000000003" /></g><g fill="none" stroke="#5b4f3d" stroke-width="2.4722187928669412"><ellipse cx="592.4" cy="459.7" rx="24.7" ry="14.8" transform="rotate(3.954116141705311 592.4 459.7)"/><ellipse cx="567.5" cy="487.7" rx="24.7" ry="14.8" transform="rotate(79.22450461276368 567.5 487.7)"/><ellipse cx="536.7" cy="475.1" rx="24.7" ry="14.8" transform="rotate(145.04875247994198 536.7 475.1)"/><ellipse cx="538.7" cy="437.4" rx="24.7" ry="14.8" transform="rotate(221.12670492150366 538.7 437.4)"/><ellipse cx="573.5" cy="429.2" rx="24.7" ry="14.8" transform="rotate(292.35632622628447 573.5 429.2)"/><circle cx="561.8033988749894" cy="457.5570504584947" r="6.9" fill="#5b4f3d" stroke="none"/></g><g stroke="#c99a5f" stroke-width="2.52" fill="none" transform="rotate(-24.57278806584362 561.8033988749894 457.5570504584947)"><path d="M 561.8033988749894 457.5570504584947 Q 589.8033988749894 451.9570504584947 617.8033988749894 457.5570504584947" /><path d="M 575.8033988749894 455.5570504584947 q 6.720000000000001 -8.96 2.8000000000000007 -15.680000000000003" /><path d="M 589.8033988749894 459.5570504584947 q 6.720000000000001 8.96 2.8000000000000007 15.680000000000003" /><path d="M 603.8033988749894 455.5570504584947 q 6.720000000000001 -8.96 2.8000000000000007 -15.680000000000003" /></g><g fill="none" stroke="#5b4f3d" stroke-width="2.4156995884773664"><ellipse cx="629.9" cy="341.4" rx="24.2" ry="14.5" transform="rotate(2.7348615606917512 629.9 341.4)"/><ellipse cx="609.2" cy="368.5" rx="24.2" ry="14.5" transform="rotate(72.04283429332597 609.2 368.5)"/><ellipse cx="572.8" cy="352.6" rx="24.2" ry="14.5" transform="rotate(155.2120236437599 572.8 352.6)"/><ellipse cx="578.1" cy="319.5" rx="24.2" ry="14.5" transform="rotate(223.1347589087424 578.1 319.5)"/><ellipse cx="610.7" cy="312.0" rx="24.2" ry="14.5" transform="rotate(290.84234026917477 610.7 312.0)"/><circle cx="600" cy="340.00000000000006" r="6.8" fill="#5b4f3d" stroke="none"/></g><g stroke="#c99a5f" stroke-width="2.52" fill="none" transform="rotate(-15.570987654320987 600 340.00000000000006)"><path d="M 600 340.00000000000006 Q 628 334.40000000000003 656 340.00000000000006" /><path d="M 614 338.00000000000006 q 6.720000000000001 -8.96 2.8000000000000007 -15.680000000000003" /><path d="M 628 342.00000000000006 q 6.720000000000001 8.96 2.8000000000000007 15.680000000000003" /><path d="M 642 338.00000000000006 q 6.720000000000001 -8.96 2.8000000000000007 -15.680000000000003" /></g><g fill="none" stroke="#5b4f3d" stroke-width="1.8"><ellipse cx="421.9" cy="940.2" rx="18.0" ry="10.8" transform="rotate(10.871510660576853 421.9 940.2)"/><ellipse cx="405.9" cy="957.5" rx="18.0" ry="10.8" transform="rotate(74.75053144552086 405.9 957.5)"/><ellipse cx="380.2" cy="946.4" rx="18.0" ry="10.8" transform="rotate(152.2785622574754 380.2 946.4)"/><ellipse cx="383.7" cy="920.7" rx="18.0" ry="10.8" transform="rotate(223.26060920633546 383.7 920.7)"/><ellipse cx="408.6" cy="915.4" rx="18.0" ry="10.8" transform="rotate(292.542056115121 408.6 915.4)"/><circle cx="400" cy="936" r="5.0" fill="#5b4f3d" stroke="none"/></g>
    <rect x="155.2" y="895.8166666666667" width="9.6" height="60.18333333333333" rx="4.8" fill="none" stroke="#5b4f3d" stroke-width="1.152"/>
    <circle cx="160" cy="880.4566666666667" r="24.96" fill="#c99a5f" opacity="0.28"/>
    <path d="M 160 893.8166666666667 q 4.8 -13.44 0 -23.04 q -4.8 9.6 0 23.04" fill="#c99a5f"/>
  
    <rect x="315.2" y="913.7449588477366" width="9.6" height="42.25504115226338" rx="4.8" fill="none" stroke="#5b4f3d" stroke-width="1.152"/>
    <circle cx="320" cy="898.3849588477366" r="24.96" fill="#c99a5f" opacity="0.28"/>
    <path d="M 320 911.7449588477366 q 4.8 -13.44 0 -23.04 q -4.8 9.6 0 23.04" fill="#c99a5f"/>
  
    <rect x="475.20000000000005" y="912.7905349794239" width="9.6" height="43.20946502057613" rx="4.8" fill="none" stroke="#5b4f3d" stroke-width="1.152"/>
    <circle cx="480.00000000000006" cy="897.4305349794239" r="24.96" fill="#c99a5f" opacity="0.28"/>
    <path d="M 480.00000000000006 910.7905349794239 q 4.8 -13.44 0 -23.04 q -4.8 9.6 0 23.04" fill="#c99a5f"/>
  
    <rect x="635.2" y="915.6941358024692" width="9.6" height="40.305864197530866" rx="4.8" fill="none" stroke="#5b4f3d" stroke-width="1.152"/>
    <circle cx="640" cy="900.3341358024692" r="24.96" fill="#c99a5f" opacity="0.28"/>
    <path d="M 640 913.6941358024692 q 4.8 -13.44 0 -23.04 q -4.8 9.6 0 23.04" fill="#c99a5f"/>
  
  <rect width="800" height="1000" filter="url(#n6)" opacity="0.4"/>
</svg>