<svg width="800" height="1000" viewBox="0 0 800 1000" xmlns="http://www.w3.org/2000/svg" role="img">
  <defs>
    <linearGradient id="g5" x1="0.1" y1="0" x2="0.9" y2="1">
      <stop offset="0%" stop-color="#5c342c"/>
      <stop offset="100%" stop-color="#2c1815"/>
    </linearGradient>
    <radialGradient id="v5" cx="50%" cy="42%" r="72%">
      <stop offset="0%" stop-color="#000000" stop-opacity="0"/>
      <stop offset="100%" stop-color="#000000" stop-opacity="0.3"/>
    </radialGradient>
    <filter id="n5"><feTurbulence type="fractalNoise" baseFrequency="0.8" numOctaves="2" stitchTiles="stitch" result="noise"/><feColorMatrix in="noise" type="matrix" values="0 0 0 0 0  0 0 0 0 0  0 0 0 0 0  0 0 0 0.06 0"/></filter>
  </defs>
  <rect width="800" height="1000" fill="url(#g5)"/>
  <path d="M 243.23296296296297 228.27613168724278 Q 309.50917695473254 117.81577503429354 464.15367626886143 228.27613168724278 Q 309.50917695473254 338.736488340192 243.23296296296297 228.27613168724278 Z" fill="#e8b45a" opacity="0.7569746656378601" transform="rotate(320.02932098765433 243.23296296296297 228.27613168724278)"/><path d="M 270.8142386831276 211.3216049382716 Q 322.0012037037037 126.0099965706447 441.43745541838143 211.3216049382716 Q 322.0012037037037 296.6332133058985 270.8142386831276 211.3216049382716 Z" fill="#c9a469" opacity="0.7175874485596707" transform="rotate(7.351851851851851 270.8142386831276 211.3216049382716)"/><path d="M 249.99798353909463 154.53251028806585 Q 315.67779835390945 45.06615226337449 468.93069958847735 154.53251028806585 Q 315.67779835390945 263.9988683127572 249.99798353909463 154.53251028806585 Z" fill="#e8b45a" opacity="0.7939023919753085" transform="rotate(270.13734567901236 249.99798353909463 154.53251028806585)"/><path d="M 145.02123456790122 191.39032921810698 Q 208.0574794238683 86.32992112482852 355.1420507544582 191.39032921810698 Q 208.0574794238683 296.45073731138547 145.02123456790122 191.39032921810698 Z" fill="#c9a469" opacity="0.730826903292181" transform="rotate(282.83024691358025 145.02123456790122 191.39032921810698)"/><path d="M 240.47658436213993 213.59876543209876 Q 321.63654320987655 78.33216735253771 511.00978052126203 213.59876543209876 Q 321.63654320987655 348.8653635116598 240.47658436213993 213.59876543209876 Z" fill="#e8b45a" opacity="0.8343795010288065" transform="rotate(246.54166666666666 240.47658436213993 213.59876543209876)"/><path d="M 234.64551440329217 161.21707818930042 Q 318.5557304526749 21.366718106995876 514.3462345679013 161.21707818930042 Q 318.5557304526749 301.06743827160494 234.64551440329217 161.21707818930042 Z" fill="#c9a469" opacity="0.7883564814814814" transform="rotate(229.0493827160494 234.64551440329217 161.21707818930042)"/><g><ellipse cx="289.0" cy="295.8" rx="44.3" ry="27.2" fill="#c9a469" opacity="0.96" transform="rotate(11.554513783257557 289.0 295.8)"/><ellipse cx="259.2" cy="328.4" rx="44.3" ry="27.2" fill="#c9a469" opacity="0.96" transform="rotate(73.32517392752492 259.2 328.4)"/><ellipse cx="219.5" cy="320.3" rx="44.3" ry="27.2" fill="#c9a469" opacity="0.96" transform="rotate(129.69856574703238 219.5 320.3)"/><ellipse cx="204.9" cy="278.7" rx="44.3" ry="27.2" fill="#c9a469" opacity="0.96" transform="rotate(191.50606731331175 204.9 278.7)"/><ellipse cx="230.0" cy="247.8" rx="44.3" ry="27.2" fill="#c9a469" opacity="0.96" transform="rotate(246.76684818805646 230.0 247.8)"/><ellipse cx="269.7" cy="250.9" rx="44.3" ry="27.2" fill="#c9a469" opacity="0.96" transform="rotate(302.06815462701434 269.7 250.9)"/><circle cx="246.93098765432097" cy="287.2475925925926" r="25.7" fill="#1a0f0d"/></g><g><ellipse cx="140.4" cy="299.8" rx="40.1" ry="24.6" fill="#f0ddc4" opacity="0.96" transform="rotate(2.954068021663227 140.4 299.8)"/><ellipse cx="117.7" cy="333.1" rx="40.1" ry="24.6" fill="#f0ddc4" opacity="0.96" transform="rotate(65.48734560157924 117.7 333.1)"/><ellipse cx="79.6" cy="329.7" rx="40.1" ry="24.6" fill="#f0ddc4" opacity="0.96" transform="rotate(124.61279164538406 79.6 329.7)"/><ellipse cx="63.1" cy="293.5" rx="40.1" ry="24.6" fill="#f0ddc4" opacity="0.96" transform="rotate(186.38713593185264 63.1 293.5)"/><ellipse cx="87.4" cy="261.8" rx="40.1" ry="24.6" fill="#f0ddc4" opacity="0.96" transform="rotate(248.37884460819205 87.4 261.8)"/><ellipse cx="127.8" cy="269.2" rx="40.1" ry="24.6" fill="#f0ddc4" opacity="0.96" transform="rotate(312.4005156373934 127.8 269.2)"/><circle cx="101.6470987654321" cy="297.79703703703706" r="23.3" fill="#1a0f0d"/></g><g><ellipse cx="174.7" cy="304.1" rx="41.2" ry="25.2" fill="#c9a469" opacity="0.96" transform="rotate(1.2171791809068833 174.7 304.1)"/><ellipse cx="149.7" cy="340.2" rx="41.2" ry="25.2" fill="#c9a469" opacity="0.96" transform="rotate(68.09406041603921 149.7 340.2)"/><ellipse cx="107.4" cy="332.1" rx="41.2" ry="25.2" fill="#c9a469" opacity="0.96" transform="rotate(133.55254690370904 107.4 332.1)"/><ellipse cx="95.1" cy="300.1" rx="41.2" ry="25.2" fill="#c9a469" opacity="0.96" transform="rotate(184.55077525166388 95.1 300.1)"/><ellipse cx="116.5" cy="267.9" rx="41.2" ry="25.2" fill="#c9a469" opacity="0.96" transform="rotate(242.5304530708951 116.5 267.9)"/><ellipse cx="157.5" cy="270.4" rx="41.2" ry="25.2" fill="#c9a469" opacity="0.96" transform="rotate(304.52953003163697 157.5 270.4)"/><circle cx="134.8632098765432" cy="303.2464814814815" r="23.9" fill="#1a0f0d"/></g><g><ellipse cx="191.6" cy="125.0" rx="30.0" ry="18.4" fill="#f0ddc4" opacity="0.96" transform="rotate(9.924833480556172 191.6 125.0)"/><ellipse cx="172.7" cy="147.4" rx="30.0" ry="18.4" fill="#f0ddc4" opacity="0.96" transform="rotate(70.40235971220189 172.7 147.4)"/><ellipse cx="143.8" cy="141.8" rx="30.0" ry="18.4" fill="#f0ddc4" opacity="0.96" transform="rotate(131.4509279850338 143.8 141.8)"/><ellipse cx="134.3" cy="115.2" rx="30.0" ry="18.4" fill="#f0ddc4" opacity="0.96" transform="rotate(189.57797149231305 134.3 115.2)"/><ellipse cx="151.7" cy="93.2" rx="30.0" ry="18.4" fill="#f0ddc4" opacity="0.96" transform="rotate(247.12660467400374 151.7 93.2)"/><ellipse cx="181.9" cy="98.0" rx="30.0" ry="18.4" fill="#f0ddc4" opacity="0.96" transform="rotate(310.68407378585374 181.9 98.0)"/><circle cx="162.97932098765432" cy="119.99592592592593" r="17.4" fill="#1a0f0d"/></g><g><ellipse cx="282.0" cy="301.3" rx="36.1" ry="22.1" fill="#c9a469" opacity="0.96" transform="rotate(4.010127383637575 282.0 301.3)"/><ellipse cx="263.8" cy="329.6" rx="36.1" ry="22.1" fill="#c9a469" opacity="0.96" transform="rotate(61.669284831364294 263.8 329.6)"/><ellipse cx="228.8" cy="328.5" rx="36.1" ry="22.1" fill="#c9a469" opacity="0.96" transform="rotate(121.88892110892591 228.8 328.5)"/><ellipse cx="212.9" cy="292.4" rx="36.1" ry="22.1" fill="#c9a469" opacity="0.96" transform="rotate(190.72576599509733 212.9 292.4)"/><ellipse cx="236.1" cy="265.8" rx="36.1" ry="22.1" fill="#c9a469" opacity="0.96" transform="rotate(251.4243407588151 236.1 265.8)"/><ellipse cx="267.6" cy="270.5" rx="36.1" ry="22.1" fill="#c9a469" opacity="0.96" transform="rotate(305.7972433630703 267.6 270.5)"/><circle cx="247.19543209876542" cy="298.84537037037035" r="20.9" fill="#1a0f0d"/></g><path d="M 569.7295473251029 405.32123456790123 Q 627.5116666666667 309.0177023319616 762.3366117969822 405.32123456790123 Q 627.5116666666667 501.6247668038409 569.7295473251029 405.32123456790123 Z" fill="#e8b45a" opacity="0.7290226337448559" transform="rotate(101.46296296296296 569.7295473251029 405.32123456790123)"/><path d="M 629.742304526749 286.3759670781893 Q 677.6819341563786 206.47658436213993 789.5410699588477 286.3759670781893 Q 677.6819341563786 366.2753497942387 629.742304526749 286.3759670781893 Z" fill="#c9a469" opacity="0.8081153549382716" transform="rotate(290.9151234567901 629.742304526749 286.3759670781893)"/><path d="M 635.3797530864198 304.28502057613167 Q 685.4978806584362 220.75480795610423 802.4401783264747 304.28502057613167 Q 685.4978806584362 387.8152331961591 635.3797530864198 304.28502057613167 Z" fill="#e8b45a" opacity="0.7144843106995884" transform="rotate(30.27469135802469 635.3797530864198 304.28502057613167)"/><path d="M 641.8122633744856 325.0632098765432 Q 692.5446913580247 240.50916323731138 810.9203566529493 325.0632098765432 Q 692.5446913580247 409.61725651577507 641.8122633744856 325.0632098765432 Z" fill="#c9a469" opacity="0.7041480195473251" transform="rotate(120.65277777777777 641.8122633744856 325.0632098765432)"/><path d="M 624.5657613168725 388.9475720164609 Q 666.985329218107 318.2482921810699 765.9643209876544 388.9475720164609 Q 666.985329218107 459.6468518518519 624.5657613168725 388.9475720164609 Z" fill="#e8b45a" opacity="0.7109027777777778" transform="rotate(149.82716049382717 624.5657613168725 388.9475720164609)"/><path d="M 628.8550617283951 366.93069958847735 Q 679.0272016460906 283.31046639231823 796.0955281207133 366.93069958847735 Q 679.0272016460906 450.5509327846365 628.8550617283951 366.93069958847735 Z" fill="#c9a469" opacity="0.7629893261316872" transform="rotate(92.24228395061728 628.8550617283951 366.93069958847735)"/><g><ellipse cx="610.5" cy="315.0" rx="37.6" ry="23.0" fill="#c9a469" opacity="0.96" transform="rotate(4.751683806369372 610.5 315.0)"/><ellipse cx="587.3" cy="345.9" rx="37.6" ry="23.0" fill="#c9a469" opacity="0.96" transform="rotate(69.06808621166681 587.3 345.9)"/><ellipse cx="552.9" cy="341.4" rx="37.6" ry="23.0" fill="#c9a469" opacity="0.96" transform="rotate(125.90936409072685 552.9 341.4)"/><ellipse cx="538.1" cy="308.8" rx="37.6" ry="23.0" fill="#c9a469" opacity="0.96" transform="rotate(185.04586256113532 538.1 308.8)"/><ellipse cx="561.4" cy="278.0" rx="37.6" ry="23.0" fill="#c9a469" opacity="0.96" transform="rotate(249.3512125398291 561.4 278.0)"/><ellipse cx="594.4" cy="281.7" rx="37.6" ry="23.0" fill="#c9a469" opacity="0.96" transform="rotate(303.66148472666396 594.4 281.7)"/><circle cx="574.2697530864198" cy="311.97580246913583" r="21.8" fill="#1a0f0d"/></g><g><ellipse cx="705.2" cy="415.7" rx="36.5" ry="22.4" fill="#f0ddc4" opacity="0.96" transform="rotate(12.696720670369995 705.2 415.7)"/><ellipse cx="683.6" cy="440.8" rx="36.5" ry="22.4" fill="#f0ddc4" opacity="0.96" transform="rotate(68.62433128353211 683.6 440.8)"/><ellipse cx="651.0" cy="437.3" rx="36.5" ry="22.4" fill="#f0ddc4" opacity="0.96" transform="rotate(123.84090245186239 651.0 437.3)"/><ellipse cx="635.4" cy="405.9" rx="36.5" ry="22.4" fill="#f0ddc4" opacity="0.96" transform="rotate(183.34213100018977 635.4 405.9)"/><ellipse cx="655.9" cy="375.8" rx="36.5" ry="22.4" fill="#f0ddc4" opacity="0.96" transform="rotate(245.2269995526943 655.9 375.8)"/><ellipse cx="690.4" cy="378.6" rx="36.5" ry="22.4" fill="#f0ddc4" opacity="0.96" transform="rotate(303.8808753947455 690.4 378.6)"/><circle cx="670.6908641975309" cy="407.9302469135803" r="21.2" fill="#1a0f0d"/></g><g><ellipse cx="585.8" cy="349.5" rx="25.3" ry="15.5" fill="#c9a469" opacity="0.96" transform="rotate(2.4384109182350877 585.8 349.5)"/><ellipse cx="570.5" cy="371.2" rx="25.3" ry="15.5" fill="#c9a469" opacity="0.96" transform="rotate(67.88216083710012 570.5 371.2)"/><ellipse cx="547.2" cy="368.6" rx="25.3" ry="15.5" fill="#c9a469" opacity="0.96" transform="rotate(125.05501151426826 547.2 368.6)"/><ellipse cx="537.1" cy="344.9" rx="25.3" ry="15.5" fill="#c9a469" opacity="0.96" transform="rotate(188.5019563600822 537.1 344.9)"/><ellipse cx="553.6" cy="325.2" rx="25.3" ry="15.5" fill="#c9a469" opacity="0.96" transform="rotate(251.54732970596518 553.6 325.2)"/><ellipse cx="575.0" cy="328.1" rx="25.3" ry="15.5" fill="#c9a469" opacity="0.96" transform="rotate(303.80185054452966 575.0 328.1)"/><circle cx="561.311975308642" cy="348.4846913580247" r="14.7" fill="#1a0f0d"/></g><g><ellipse cx="727.0" cy="388.6" rx="28.3" ry="17.4" fill="#f0ddc4" opacity="0.96" transform="rotate(6.205630526073459 727.0 388.6)"/><ellipse cx="708.9" cy="411.5" rx="28.3" ry="17.4" fill="#f0ddc4" opacity="0.96" transform="rotate(70.42256109193846 708.9 411.5)"/><ellipse cx="681.0" cy="405.7" rx="28.3" ry="17.4" fill="#f0ddc4" opacity="0.96" transform="rotate(133.13267749751216 681.0 405.7)"/><ellipse cx="672.7" cy="381.0" rx="28.3" ry="17.4" fill="#f0ddc4" opacity="0.96" transform="rotate(189.78237998210972 672.7 381.0)"/><ellipse cx="687.4" cy="361.2" rx="28.3" ry="17.4" fill="#f0ddc4" opacity="0.96" transform="rotate(243.24529946266816 687.4 361.2)"/><ellipse cx="716.2" cy="363.7" rx="28.3" ry="17.4" fill="#f0ddc4" opacity="0.96" transform="rotate(307.0053963955843 716.2 363.7)"/><circle cx="699.7330864197531" cy="385.6391358024691" r="16.5" fill="#1a0f0d"/></g><g><ellipse cx="560.7" cy="375.1" rx="30.9" ry="19.0" fill="#c9a469" opacity="0.96" transform="rotate(13.255420835182168 560.7 375.1)"/><ellipse cx="544.0" cy="395.4" rx="30.9" ry="19.0" fill="#c9a469" opacity="0.96" transform="rotate(65.5025733893442 544.0 395.4)"/><ellipse cx="515.2" cy="393.3" rx="30.9" ry="19.0" fill="#c9a469" opacity="0.96" transform="rotate(123.00699686462048 515.2 393.3)"/><ellipse cx="502.1" cy="362.6" rx="30.9" ry="19.0" fill="#c9a469" opacity="0.96" transform="rotate(190.76438808583993 502.1 362.6)"/><ellipse cx="522.6" cy="339.6" rx="30.9" ry="19.0" fill="#c9a469" opacity="0.96" transform="rotate(252.54978479891207 522.6 339.6)"/><ellipse cx="547.7" cy="343.0" rx="30.9" ry="19.0" fill="#c9a469" opacity="0.96" transform="rotate(302.74855428920625 547.7 343.0)"/><circle cx="531.5541975308641" cy="368.1935802469136" r="18.0" fill="#1a0f0d"/></g><path d="M 313.13024691358027 758.8567901234568 Q 381.9052469135803 644.2317901234568 542.3802469135803 758.8567901234568 Q 381.9052469135803 873.4817901234568 313.13024691358027 758.8567901234568 Z" fill="#e8b45a" opacity="0.7723283179012346" transform="rotate(191.6929012345679 313.13024691358027 758.8567901234568)"/><path d="M 273.837037037037 764.7117283950618 Q 313.6128086419753 698.4187757201646 406.42294238683127 764.7117283950618 Q 313.6128086419753 831.0046810699589 273.837037037037 764.7117283950618 Z" fill="#c9a469" opacity="0.7981417181069959" transform="rotate(17.719135802469136 273.837037037037 764.7117283950618)"/><path d="M 203.39567901234568 789.6407407407407 Q 264.4962962962963 687.806378600823 407.06440329218105 789.6407407407407 Q 264.4962962962963 891.4751028806585 203.39567901234568 789.6407407407407 Z" fill="#e8b45a" opacity="0.8239165380658435" transform="rotate(234.7638888888889 203.39567901234568 789.6407407407407)"/><path d="M 315.58395061728396 684.7549382716049 Q 356.4445987654321 616.6538580246913 451.78611111111115 684.7549382716049 Q 356.4445987654321 752.8560185185186 315.58395061728396 684.7549382716049 Z" fill="#c9a469" opacity="0.733449074074074" transform="rotate(310.60493827160496 315.58395061728396 684.7549382716049)"/><path d="M 322.84629629629626 695.8320987654321 Q 388.6799382716049 586.1093621399177 542.2917695473251 695.8320987654321 Q 388.6799382716049 805.5548353909464 322.84629629629626 695.8320987654321 Z" fill="#e8b45a" opacity="0.804980066872428" transform="rotate(99.68672839506173 322.84629629629626 695.8320987654321)"/><path d="M 268.29382716049383 759.3166666666667 Q 325.75787037037037 663.5432613168725 459.8406378600823 759.3166666666667 Q 325.75787037037037 855.0900720164609 268.29382716049383 759.3166666666667 Z" fill="#c9a469" opacity="0.7278613683127572" transform="rotate(243.12037037037038 268.29382716049383 759.3166666666667)"/><path d="M 301.70432098765434 758.3197530864197 Q 365.5672839506173 651.8814814814814 514.5808641975309 758.3197530864197 Q 365.5672839506173 864.7580246913581 301.70432098765434 758.3197530864197 Z" fill="#e8b45a" opacity="0.8192226080246913" transform="rotate(288.68364197530866 301.70432098765434 758.3197530864197)"/><g><ellipse cx="375.5" cy="736.5" rx="35.8" ry="21.9" fill="#c9a469" opacity="0.96" transform="rotate(8.65527807802221 375.5 736.5)"/><ellipse cx="355.8" cy="762.7" rx="35.8" ry="21.9" fill="#c9a469" opacity="0.96" transform="rotate(65.19814043878493 355.8 762.7)"/><ellipse cx="320.1" cy="758.7" rx="35.8" ry="21.9" fill="#c9a469" opacity="0.96" transform="rotate(127.61720961046372 320.1 758.7)"/><ellipse cx="306.7" cy="728.6" rx="35.8" ry="21.9" fill="#c9a469" opacity="0.96" transform="rotate(184.46217163172497 306.7 728.6)"/><ellipse cx="329.0" cy="698.9" rx="35.8" ry="21.9" fill="#c9a469" opacity="0.96" transform="rotate(249.21698695896532 329.0 698.9)"/><ellipse cx="359.3" cy="701.7" rx="35.8" ry="21.9" fill="#c9a469" opacity="0.96" transform="rotate(301.4125615223106 359.3 701.7)"/><circle cx="341.2490740740741" cy="731.2833333333333" r="20.8" fill="#1a0f0d"/></g><g><ellipse cx="278.4" cy="790.7" rx="38.2" ry="23.4" fill="#f0ddc4" opacity="0.96" transform="rotate(5.5257834852117815 278.4 790.7)"/><ellipse cx="257.7" cy="820.3" rx="38.2" ry="23.4" fill="#f0ddc4" opacity="0.96" transform="rotate(64.0249253548124 257.7 820.3)"/><ellipse cx="217.6" cy="815.2" rx="38.2" ry="23.4" fill="#f0ddc4" opacity="0.96" transform="rotate(130.38971082397777 217.6 815.2)"/><ellipse cx="205.0" cy="781.7" rx="38.2" ry="23.4" fill="#f0ddc4" opacity="0.96" transform="rotate(188.39517763861738 205.0 781.7)"/><ellipse cx="227.0" cy="753.1" rx="38.2" ry="23.4" fill="#f0ddc4" opacity="0.96" transform="rotate(246.75063796237112 227.0 753.1)"/><ellipse cx="264.8" cy="758.3" rx="38.2" ry="23.4" fill="#f0ddc4" opacity="0.96" transform="rotate(308.860239189149 264.8 758.3)"/><circle cx="241.5574074074074" cy="787.0916666666667" r="22.2" fill="#1a0f0d"/></g><g><ellipse cx="284.1" cy="788.3" rx="40.2" ry="24.6" fill="#c9a469" opacity="0.96" transform="rotate(5.678859593671695 284.1 788.3)"/><ellipse cx="258.9" cy="820.9" rx="40.2" ry="24.6" fill="#c9a469" opacity="0.96" transform="rotate(69.71526719167784 258.9 820.9)"/><ellipse cx="220.7" cy="814.5" rx="40.2" ry="24.6" fill="#c9a469" opacity="0.96" transform="rotate(129.28281029962682 220.7 814.5)"/><ellipse cx="207.3" cy="776.3" rx="40.2" ry="24.6" fill="#c9a469" opacity="0.96" transform="rotate(192.02976812721252 207.3 776.3)"/><ellipse cx="230.5" cy="748.4" rx="40.2" ry="24.6" fill="#c9a469" opacity="0.96" transform="rotate(247.5668596670473 230.5 748.4)"/><ellipse cx="269.8" cy="754.1" rx="40.2" ry="24.6" fill="#c9a469" opacity="0.96" transform="rotate(308.8475288985549 269.8 754.1)"/><circle cx="245.36574074074073" cy="784.4" r="23.3" fill="#1a0f0d"/></g><g><ellipse cx="215.4" cy="782.8" rx="26.2" ry="16.0" fill="#f0ddc4" opacity="0.96" transform="rotate(12.695492622969594 215.4 782.8)"/><ellipse cx="198.7" cy="801.2" rx="26.2" ry="16.0" fill="#f0ddc4" opacity="0.96" transform="rotate(71.52620729067833 198.7 801.2)"/><ellipse cx="175.1" cy="797.2" rx="26.2" ry="16.0" fill="#f0ddc4" opacity="0.96" transform="rotate(127.8774942569786 175.1 797.2)"/><ellipse cx="165.4" cy="775.2" rx="26.2" ry="16.0" fill="#f0ddc4" opacity="0.96" transform="rotate(184.62298443880738 165.4 775.2)"/><ellipse cx="178.4" cy="755.1" rx="26.2" ry="16.0" fill="#f0ddc4" opacity="0.96" transform="rotate(240.92269341429082 178.4 755.1)"/><ellipse cx="205.2" cy="756.5" rx="26.2" ry="16.0" fill="#f0ddc4" opacity="0.96" transform="rotate(304.9554168700958 205.2 756.5)"/><circle cx="190.6740740740741" cy="777.2083333333334" r="15.2" fill="#1a0f0d"/></g><g><ellipse cx="389.0" cy="820.6" rx="42.9" ry="26.3" fill="#c9a469" opacity="0.96" transform="rotate(1.5087790361319646 389.0 820.6)"/><ellipse cx="359.6" cy="859.2" rx="42.9" ry="26.3" fill="#c9a469" opacity="0.96" transform="rotate(73.03873187138151 359.6 859.2)"/><ellipse cx="320.9" cy="851.4" rx="42.9" ry="26.3" fill="#c9a469" opacity="0.96" transform="rotate(129.7547489156007 320.9 851.4)"/><ellipse cx="306.1" cy="816.6" rx="42.9" ry="26.3" fill="#c9a469" opacity="0.96" transform="rotate(184.0797576712403 306.1 816.6)"/><ellipse cx="329.7" cy="782.0" rx="42.9" ry="26.3" fill="#c9a469" opacity="0.96" transform="rotate(244.72307030194003 329.7 782.0)"/><ellipse cx="368.7" cy="783.8" rx="42.9" ry="26.3" fill="#c9a469" opacity="0.96" transform="rotate(300.7648893233394 368.7 783.8)"/><circle cx="347.48240740740744" cy="819.5166666666667" r="24.9" fill="#1a0f0d"/></g><path d="M 569.3654320987654 790.6281481481482 Q 614.0414814814815 716.1680658436214 718.285596707819 790.6281481481482 Q 614.0414814814815 865.0882304526749 569.3654320987654 790.6281481481482 Z" fill="#e8b45a" opacity="0.7436850565843621" transform="rotate(228.875 569.3654320987654 790.6281481481482)"/><path d="M 648.4493827160494 798.4528395061728 Q 696.6667901234568 718.0904938271605 809.174074074074 798.4528395061728 Q 696.6667901234568 878.8151851851852 648.4493827160494 798.4528395061728 Z" fill="#c9a469" opacity="0.7059953703703703" transform="rotate(351.38271604938274 648.4493827160494 798.4528395061728)"/><path d="M 541.1925925925926 835.0479012345679 Q 593.9217283950618 747.1660082304527 716.9563786008231 835.0479012345679 Q 593.9217283950618 922.9297942386831 541.1925925925926 835.0479012345679 Z" fill="#e8b45a" opacity="0.7969708076131686" transform="rotate(347.1311728395062 541.1925925925926 835.0479012345679)"/><path d="M 589.283950617284 811.1688888888889 Q 632.6507407407407 738.8909053497943 733.8399176954733 811.1688888888889 Q 632.6507407407407 883.4468724279835 589.283950617284 811.1688888888889 Z" fill="#c9a469" opacity="0.805963220164609" transform="rotate(17.23148148148148 589.283950617284 811.1688888888889)"/><path d="M 643.7456790123457 825.3046913580247 Q 692.7649382716049 743.6059259259259 807.1432098765432 825.3046913580247 Q 692.7649382716049 907.0034567901234 643.7456790123457 825.3046913580247 Z" fill="#e8b45a" opacity="0.7001022376543209" transform="rotate(229.46141975308643 643.7456790123457 825.3046913580247)"/><path d="M 538.5333333333333 869.2775308641975 Q 588.0420987654321 786.7629218106996 703.5625514403292 869.2775308641975 Q 588.0420987654321 951.7921399176954 538.5333333333333 869.2775308641975 Z" fill="#c9a469" opacity="0.7409619341563786" transform="rotate(198.26543209876544 538.5333333333333 869.2775308641975)"/><path d="M 640.9358024691358 841.042962962963 Q 686.9266666666666 764.3915226337449 794.238683127572 841.042962962963 Q 686.9266666666666 917.694403292181 640.9358024691358 841.042962962963 Z" fill="#e8b45a" opacity="0.801227494855967" transform="rotate(44.75462962962963 640.9358024691358 841.042962962963)"/><g><ellipse cx="559.6" cy="892.5" rx="33.8" ry="20.7" fill="#c9a469" opacity="0.96" transform="rotate(12.544135780870242 559.6 892.5)"/><ellipse cx="540.2" cy="915.6" rx="33.8" ry="20.7" fill="#c9a469" opacity="0.96" transform="rotate(67.50281699511643 540.2 915.6)"/><ellipse cx="511.0" cy="913.6" rx="33.8" ry="20.7" fill="#c9a469" opacity="0.96" transform="rotate(120.46837727851272 511.0 913.6)"/><ellipse cx="495.0" cy="882.6" rx="33.8" ry="20.7" fill="#c9a469" opacity="0.96" transform="rotate(184.92477708745585 495.0 882.6)"/><ellipse cx="511.5" cy="856.9" rx="33.8" ry="20.7" fill="#c9a469" opacity="0.96" transform="rotate(240.40292235207139 511.5 856.9)"/><ellipse cx="549.6" cy="861.0" rx="33.8" ry="20.7" fill="#c9a469" opacity="0.96" transform="rotate(312.05813602216176 549.6 861.0)"/><circle cx="527.6466666666666" cy="885.3629629629629" r="19.7" fill="#1a0f0d"/></g><g><ellipse cx="699.7" cy="874.0" rx="31.2" ry="19.2" fill="#f0ddc4" opacity="0.96" transform="rotate(1.52320859308667 699.7 874.0)"/><ellipse cx="682.7" cy="900.4" rx="31.2" ry="19.2" fill="#f0ddc4" opacity="0.96" transform="rotate(64.00859232438707 682.7 900.4)"/><ellipse cx="653.6" cy="898.9" rx="31.2" ry="19.2" fill="#f0ddc4" opacity="0.96" transform="rotate(121.71564362072941 653.6 898.9)"/><ellipse cx="639.3" cy="871.4" rx="31.2" ry="19.2" fill="#f0ddc4" opacity="0.96" transform="rotate(183.35367464575356 639.3 871.4)"/><ellipse cx="660.3" cy="844.4" rx="31.2" ry="19.2" fill="#f0ddc4" opacity="0.96" transform="rotate(252.3268327933694 660.3 844.4)"/><ellipse cx="687.3" cy="848.8" rx="31.2" ry="19.2" fill="#f0ddc4" opacity="0.96" transform="rotate(306.04395808581074 687.3 848.8)"/><circle cx="669.4933333333333" cy="873.2096296296296" r="18.1" fill="#1a0f0d"/></g><g><ellipse cx="654.3" cy="901.0" rx="20.0" ry="12.2" fill="#c9a469" opacity="0.96" transform="rotate(0.9468245457087291 654.3 901.0)"/><ellipse cx="644.5" cy="917.4" rx="20.0" ry="12.2" fill="#c9a469" opacity="0.96" transform="rotate(60.2159521353604 644.5 917.4)"/><ellipse cx="623.5" cy="916.2" rx="20.0" ry="12.2" fill="#c9a469" opacity="0.96" transform="rotate(126.24548066421646 623.5 916.2)"/><ellipse cx="615.8" cy="897.8" rx="20.0" ry="12.2" fill="#c9a469" opacity="0.96" transform="rotate(188.64612912488923 615.8 897.8)"/><ellipse cx="627.1" cy="883.0" rx="20.0" ry="12.2" fill="#c9a469" opacity="0.96" transform="rotate(246.04739661853185 627.1 883.0)"/><ellipse cx="648.4" cy="886.8" rx="20.0" ry="12.2" fill="#c9a469" opacity="0.96" transform="rotate(314.055309509433 648.4 886.8)"/><circle cx="634.94" cy="900.6562962962963" r="11.6" fill="#1a0f0d"/></g><g><ellipse cx="660.2" cy="838.1" rx="20.8" ry="12.8" fill="#f0ddc4" opacity="0.96" transform="rotate(0.07202498003348504 660.2 838.1)"/><ellipse cx="645.5" cy="857.5" rx="20.8" ry="12.8" fill="#f0ddc4" opacity="0.96" transform="rotate(74.02982752587467 645.5 857.5)"/><ellipse cx="628.9" cy="855.0" rx="20.8" ry="12.8" fill="#f0ddc4" opacity="0.96" transform="rotate(123.31492975027088 628.9 855.0)"/><ellipse cx="620.1" cy="834.6" rx="20.8" ry="12.8" fill="#f0ddc4" opacity="0.96" transform="rotate(190.05918186615997 620.1 834.6)"/><ellipse cx="634.4" cy="818.7" rx="20.8" ry="12.8" fill="#f0ddc4" opacity="0.96" transform="rotate(253.7934898036676 634.4 818.7)"/><ellipse cx="653.2" cy="822.9" rx="20.8" ry="12.8" fill="#f0ddc4" opacity="0.96" transform="rotate(311.02528675605504 653.2 822.9)"/><circle cx="639.9866666666667" cy="838.1029629629629" r="12.1" fill="#1a0f0d"/></g><g><ellipse cx="575.7" cy="902.4" rx="21.4" ry="13.1" fill="#c9a469" opacity="0.96" transform="rotate(2.479796115628582 575.7 902.4)"/><ellipse cx="563.4" cy="920.4" rx="21.4" ry="13.1" fill="#c9a469" opacity="0.96" transform="rotate(66.05937008068577 563.4 920.4)"/><ellipse cx="541.5" cy="917.2" rx="21.4" ry="13.1" fill="#c9a469" opacity="0.96" transform="rotate(130.82892197673095 541.5 917.2)"/><ellipse cx="534.8" cy="897.5" rx="21.4" ry="13.1" fill="#c9a469" opacity="0.96" transform="rotate(191.17381908913342 534.8 897.5)"/><ellipse cx="548.1" cy="882.1" rx="21.4" ry="13.1" fill="#c9a469" opacity="0.96" transform="rotate(250.49820881180312 548.1 882.1)"/><ellipse cx="565.5" cy="883.7" rx="21.4" ry="13.1" fill="#c9a469" opacity="0.96" transform="rotate(300.5348760452444 565.5 883.7)"/><circle cx="555.0333333333333" cy="901.5496296296296" r="12.4" fill="#1a0f0d"/></g><path d="M 446.75679012345677 509.1917695473251 Q 482.7495884773662 449.20377229080935 566.7327846364883 509.1917695473251 Q 482.7495884773662 569.179766803841 446.75679012345677 509.1917695473251 Z" fill="#e8b45a" opacity="0.7389615483539094" transform="rotate(114.57561728395062 446.75679012345677 509.1917695473251)"/><path d="M 371.27736625514405 523.0703703703704 Q 421.24598765432097 439.7893347050755 537.8394375857339 523.0703703703704 Q 421.24598765432097 606.3514060356653 371.27736625514405 523.0703703703704 Z" fill="#c9a469" opacity="0.8340650720164609" transform="rotate(31.342592592592595 371.27736625514405 523.0703703703704)"/><path d="M 439.7732510288066 547.2946502057613 Q 470.89670781893005 495.4222222222222 543.5181069958849 547.2946502057613 Q 470.89670781893005 599.1670781893004 439.7732510288066 547.2946502057613 Z" fill="#e8b45a" opacity="0.8309818672839506" transform="rotate(50.239197530864196 439.7732510288066 547.2946502057613)"/><path d="M 385.8740740740741 543.0497942386831 Q 412.51656378600825 498.6456447187929 474.6823731138546 543.0497942386831 Q 412.51656378600825 587.4539437585734 385.8740740740741 543.0497942386831 Z" fill="#c9a469" opacity="0.7912860082304526" transform="rotate(345.7098765432099 385.8740740740741 543.0497942386831)"/><path d="M 387.6539094650206 489.2987654320988 Q 417.1425925925926 440.15096021947875 485.94951989026066 489.2987654320988 Q 417.1425925925926 538.4465706447188 387.6539094650206 489.2987654320988 Z" fill="#e8b45a" opacity="0.8376626800411522" transform="rotate(198.86574074074076 387.6539094650206 489.2987654320988)"/><path d="M 438.29794238683127 457.4489711934156 Q 467.3673868312757 408.99989711934154 535.1960905349795 457.4489711934156 Q 467.3673868312757 505.8980452674897 438.29794238683127 457.4489711934156 Z" fill="#c9a469" opacity="0.7205748456790123" transform="rotate(77.48456790123457 438.29794238683127 457.4489711934156)"/><g><ellipse cx="381.4" cy="558.9" rx="17.3" ry="10.6" fill="#c9a469" opacity="0.96" transform="rotate(12.884857532111342 381.4 558.9)"/><ellipse cx="370.5" cy="571.0" rx="17.3" ry="10.6" fill="#c9a469" opacity="0.96" transform="rotate(70.964007190775 370.5 571.0)"/><ellipse cx="354.9" cy="568.5" rx="17.3" ry="10.6" fill="#c9a469" opacity="0.96" transform="rotate(127.0942456250032 354.9 568.5)"/><ellipse cx="348.5" cy="552.1" rx="17.3" ry="10.6" fill="#c9a469" opacity="0.96" transform="rotate(190.51540147540874 348.5 552.1)"/><ellipse cx="357.4" cy="540.2" rx="17.3" ry="10.6" fill="#c9a469" opacity="0.96" transform="rotate(242.8804465800092 357.4 540.2)"/><ellipse cx="375.4" cy="542.0" rx="17.3" ry="10.6" fill="#c9a469" opacity="0.96" transform="rotate(308.2836709346611 375.4 542.0)"/><circle cx="365.01975308641977" cy="555.1537037037037" r="10.1" fill="#1a0f0d"/></g><g><ellipse cx="379.2" cy="517.4" rx="26.6" ry="16.3" fill="#f0ddc4" opacity="0.96" transform="rotate(4.483355449381879 379.2 517.4)"/><ellipse cx="364.1" cy="538.8" rx="26.6" ry="16.3" fill="#f0ddc4" opacity="0.96" transform="rotate(65.71244669007265 364.1 538.8)"/><ellipse cx="338.1" cy="535.9" rx="26.6" ry="16.3" fill="#f0ddc4" opacity="0.96" transform="rotate(126.98206349497661 338.1 535.9)"/><ellipse cx="328.5" cy="509.7" rx="26.6" ry="16.3" fill="#f0ddc4" opacity="0.96" transform="rotate(192.75738621194978 328.5 509.7)"/><ellipse cx="346.6" cy="490.6" rx="26.6" ry="16.3" fill="#f0ddc4" opacity="0.96" transform="rotate(254.24068326452343 346.6 490.6)"/><ellipse cx="367.2" cy="493.6" rx="26.6" ry="16.3" fill="#f0ddc4" opacity="0.96" transform="rotate(302.103706599256 367.2 493.6)"/><circle cx="353.55864197530866" cy="515.3592592592593" r="15.4" fill="#1a0f0d"/></g><g><ellipse cx="392.4" cy="547.6" rx="18.2" ry="11.1" fill="#c9a469" opacity="0.96" transform="rotate(10.107382726625694 392.4 547.6)"/><ellipse cx="382.9" cy="560.3" rx="18.2" ry="11.1" fill="#c9a469" opacity="0.96" transform="rotate(63.74345689064062 382.9 560.3)"/><ellipse cx="362.9" cy="557.3" rx="18.2" ry="11.1" fill="#c9a469" opacity="0.96" transform="rotate(133.73343828578803 362.9 557.3)"/><ellipse cx="357.8" cy="541.2" rx="18.2" ry="11.1" fill="#c9a469" opacity="0.96" transform="rotate(191.11996921062587 357.8 541.2)"/><ellipse cx="369.4" cy="527.9" rx="18.2" ry="11.1" fill="#c9a469" opacity="0.96" transform="rotate(250.9785595524697 369.4 527.9)"/><ellipse cx="387.2" cy="531.8" rx="18.2" ry="11.1" fill="#c9a469" opacity="0.96" transform="rotate(313.53025784339184 387.2 531.8)"/><circle cx="375.09753086419755" cy="544.5648148148148" r="10.5" fill="#1a0f0d"/></g><g><ellipse cx="488.2" cy="536.6" rx="23.4" ry="14.3" fill="#f0ddc4" opacity="0.96" transform="rotate(4.690035826869271 488.2 536.6)"/><ellipse cx="473.9" cy="555.8" rx="23.4" ry="14.3" fill="#f0ddc4" opacity="0.96" transform="rotate(68.63802401204659 473.9 555.8)"/><ellipse cx="453.6" cy="553.9" rx="23.4" ry="14.3" fill="#f0ddc4" opacity="0.96" transform="rotate(122.28146646046392 453.6 553.9)"/><ellipse cx="443.3" cy="531.2" rx="23.4" ry="14.3" fill="#f0ddc4" opacity="0.96" transform="rotate(189.18413669100462 443.3 531.2)"/><ellipse cx="458.3" cy="513.4" rx="23.4" ry="14.3" fill="#f0ddc4" opacity="0.96" transform="rotate(250.9990065416864 458.3 513.4)"/><ellipse cx="478.0" cy="515.8" rx="23.4" ry="14.3" fill="#f0ddc4" opacity="0.96" transform="rotate(303.1724762518245 478.0 515.8)"/><circle cx="465.63641975308644" cy="534.7703703703704" r="13.6" fill="#1a0f0d"/></g><g><ellipse cx="390.4" cy="523.8" rx="17.9" ry="10.9" fill="#c9a469" opacity="0.96" transform="rotate(6.136245847950835 390.4 523.8)"/><ellipse cx="379.2" cy="538.2" rx="17.9" ry="10.9" fill="#c9a469" opacity="0.96" transform="rotate(69.65318939558759 379.2 538.2)"/><ellipse cx="363.3" cy="536.2" rx="17.9" ry="10.9" fill="#c9a469" opacity="0.96" transform="rotate(124.85502399511306 363.3 536.2)"/><ellipse cx="356.2" cy="518.8" rx="17.9" ry="10.9" fill="#c9a469" opacity="0.96" transform="rotate(190.53087487265378 356.2 518.8)"/><ellipse cx="365.5" cy="506.5" rx="17.9" ry="10.9" fill="#c9a469" opacity="0.96" transform="rotate(243.55906557347052 365.5 506.5)"/><ellipse cx="382.6" cy="507.5" rx="17.9" ry="10.9" fill="#c9a469" opacity="0.96" transform="rotate(303.25923780066273 382.6 507.5)"/><circle cx="373.17530864197533" cy="521.9759259259259" r="10.4" fill="#1a0f0d"/></g>
  <rect width="800" height="1000" fill="url(#v5)"/>
  <rect width="800" height="1000" filter="url(#n5)" opacity="0.5"/>
</svg>