<svg width="800" height="1000" viewBox="0 0 800 1000" xmlns="http://www.w3.org/2000/svg" role="img">
  <defs>
    <linearGradient id="g4" x1="0.2" y1="0" x2="0.8" y2="1">
      <stop offset="0%" stop-color="#eee5da"/>
      <stop offset="100%" stop-color="#d7c9b4"/>
    </linearGradient>
    <radialGradient id="glow4" cx="50%" cy="30%" r="65%">
      <stop offset="0%" stop-color="#fff6e8" stop-opacity="0.55"/>
      <stop offset="100%" stop-color="#fff6e8" stop-opacity="0"/>
    </radialGradient>
    <filter id="n4"><feTurbulence type="fractalNoise" baseFrequency="0.85" numOctaves="2" stitchTiles="stitch" result="noise"/><feColorMatrix in="noise" type="matrix" values="0 0 0 0 0  0 0 0 0 0  0 0 0 0 0  0 0 0 0.035 0"/></filter>
  </defs>
  <rect width="800" height="1000" fill="url(#g4)"/>
  <rect width="800" height="1000" fill="url(#glow4)"/>
  <circle cx="400" cy="420" r="128" fill="none" stroke="#ad8253" stroke-width="2.4"/><circle cx="400" cy="420" r="240.00000000000003" fill="none" stroke="#ad8253" stroke-width="2.4"/><g fill="none" stroke="#3c6b68" stroke-width="1.8"><ellipse cx="662.3" cy="421.7" rx="18.0" ry="10.8" transform="rotate(4.249093127281494 662.3 421.7)"/><ellipse cx="646.7" cy="441.3" rx="18.0" ry="10.8" transform="rotate(72.60803082888626 646.7 441.3)"/><ellipse cx="620.2" cy="430.4" rx="18.0" ry="10.8" transform="rotate(152.35244158908344 620.2 430.4)"/><ellipse cx="623.6" cy="404.8" rx="18.0" ry="10.8" transform="rotate(222.8629183361898 623.6 404.8)"/><ellipse cx="649.4" cy="399.8" rx="18.0" ry="10.8" transform="rotate(294.9266294353226 649.4 399.8)"/><circle cx="640" cy="420" r="5.0" fill="#3c6b68" stroke="none"/></g><g fill="none" stroke="#5b4f3d" stroke-width="1.8"><ellipse cx="592.0" cy="565.7" rx="18.0" ry="10.8" transform="rotate(3.6274555331987974 592.0 565.7)"/><ellipse cx="574.5" cy="586.1" rx="18.0" ry="10.8" transform="rotate(77.63049908704393 574.5 586.1)"/><ellipse cx="550.9" cy="576.3" rx="18.0" ry="10.8" transform="rotate(147.35109574621268 550.9 576.3)"/><ellipse cx="552.1" cy="550.5" rx="18.0" ry="10.8" transform="rotate(218.0590425153034 552.1 550.5)"/><ellipse cx="578.5" cy="543.8" rx="18.0" ry="10.8" transform="rotate(293.3264836726008 578.5 543.8)"/><circle cx="569.7056274847714" cy="564.2497833620557" r="5.0" fill="#5b4f3d" stroke="none"/></g><g fill="none" stroke="#3c6b68" stroke-width="1.8"><ellipse cx="422.2" cy="626.4" rx="18.0" ry="10.8" transform="rotate(6.115233956929981 422.2 626.4)"/><ellipse cx="403.7" cy="646.0" rx="18.0" ry="10.8" transform="rotate(80.42185082815409 403.7 646.0)"/><ellipse cx="379.8" cy="633.5" rx="18.0" ry="10.8" transform="rotate(154.72552038561724 379.8 633.5)"/><ellipse cx="384.1" cy="608.3" rx="18.0" ry="10.8" transform="rotate(224.53453645761482 384.1 608.3)"/><ellipse cx="408.6" cy="603.4" rx="18.0" ry="10.8" transform="rotate(292.5722169592749 408.6 603.4)"/><circle cx="400" cy="624" r="5.0" fill="#3c6b68" stroke="none"/></g><g fill="none" stroke="#5b4f3d" stroke-width="1.8"><ellipse cx="252.6" cy="565.7" rx="18.0" ry="10.8" transform="rotate(3.683945713617217 252.6 565.7)"/><ellipse cx="235.7" cy="585.9" rx="18.0" ry="10.8" transform="rotate(75.92449563840765 235.7 585.9)"/><ellipse cx="210.8" cy="575.2" rx="18.0" ry="10.8" transform="rotate(150.74394510403897 210.8 575.2)"/><ellipse cx="212.3" cy="551.0" rx="18.0" ry="10.8" transform="rotate(216.43556385197402 212.3 551.0)"/><ellipse cx="240.3" cy="544.3" rx="18.0" ry="10.8" transform="rotate(296.5189156946817 240.3 544.3)"/><circle cx="230.29437251522862" cy="564.2497833620557" r="5.0" fill="#5b4f3d" stroke="none"/></g><g fill="none" stroke="#3c6b68" stroke-width="1.8"><ellipse cx="182.1" cy="423.2" rx="18.0" ry="10.8" transform="rotate(8.252527652586886 182.1 423.2)"/><ellipse cx="164.7" cy="441.8" rx="18.0" ry="10.8" transform="rotate(77.75502309344454 164.7 441.8)"/><ellipse cx="141.0" cy="431.8" rx="18.0" ry="10.8" transform="rotate(148.17413311396106 141.0 431.8)"/><ellipse cx="142.5" cy="406.1" rx="18.0" ry="10.8" transform="rotate(218.41345699505894 142.5 406.1)"/><ellipse cx="167.5" cy="399.0" rx="18.0" ry="10.8" transform="rotate(289.49865992555266 167.5 399.0)"/><circle cx="160" cy="420" r="5.0" fill="#3c6b68" stroke="none"/></g><g fill="none" stroke="#5b4f3d" stroke-width="1.8"><ellipse cx="252.4" cy="278.5" rx="18.0" ry="10.8" transform="rotate(7.123952091618894 252.4 278.5)"/><ellipse cx="235.1" cy="297.5" rx="18.0" ry="10.8" transform="rotate(77.4605373268285 235.1 297.5)"/><ellipse cx="211.4" cy="287.6" rx="18.0" ry="10.8" transform="rotate(147.90027854367176 211.4 287.6)"/><ellipse cx="215.0" cy="259.5" rx="18.0" ry="10.8" transform="rotate(226.68386501779568 215.0 259.5)"/><ellipse cx="241.0" cy="256.2" rx="18.0" ry="10.8" transform="rotate(298.709261038036 241.0 256.2)"/><circle cx="230.29437251522856" cy="275.75021663794433" r="5.0" fill="#5b4f3d" stroke="none"/></g><g fill="none" stroke="#3c6b68" stroke-width="1.8"><ellipse cx="422.2" cy="218.4" rx="18.0" ry="10.8" transform="rotate(6.275371337942199 422.2 218.4)"/><ellipse cx="403.8" cy="238.0" rx="18.0" ry="10.8" transform="rotate(80.16936428263176 403.8 238.0)"/><ellipse cx="381.9" cy="229.1" rx="18.0" ry="10.8" transform="rotate(144.01596461620522 381.9 229.1)"/><ellipse cx="382.4" cy="202.3" rx="18.0" ry="10.8" transform="rotate(217.93943069850437 382.4 202.3)"/><ellipse cx="408.5" cy="195.4" rx="18.0" ry="10.8" transform="rotate(292.355098178884 408.5 195.4)"/><circle cx="399.99999999999994" cy="216" r="5.0" fill="#3c6b68" stroke="none"/></g><g fill="none" stroke="#5b4f3d" stroke-width="1.8"><ellipse cx="592.0" cy="276.2" rx="18.0" ry="10.8" transform="rotate(1.0736081593260696 592.0 276.2)"/><ellipse cx="573.9" cy="297.7" rx="18.0" ry="10.8" transform="rotate(79.12626082073164 573.9 297.7)"/><ellipse cx="550.8" cy="287.6" rx="18.0" ry="10.8" transform="rotate(148.0157149993094 550.8 287.6)"/><ellipse cx="553.4" cy="260.5" rx="18.0" ry="10.8" transform="rotate(223.19768405753896 553.4 260.5)"/><ellipse cx="578.0" cy="255.0" rx="18.0" ry="10.8" transform="rotate(291.6921981921479 578.0 255.0)"/><circle cx="569.7056274847714" cy="275.7502166379443" r="5.0" fill="#5b4f3d" stroke="none"/></g><g fill="none" stroke="#5b4f3d" stroke-width="3.6"><ellipse cx="444.6" cy="420.4" rx="36.0" ry="21.6" transform="rotate(0.4667071340481784 444.6 420.4)"/><ellipse cx="427.7" cy="455.0" rx="36.0" ry="21.6" transform="rotate(51.67310022693916 427.7 455.0)"/><ellipse cx="384.2" cy="461.8" rx="36.0" ry="21.6" transform="rotate(110.72818986526936 384.2 461.8)"/><ellipse cx="357.0" cy="432.1" rx="36.0" ry="21.6" transform="rotate(164.227593064188 357.0 432.1)"/><ellipse cx="362.8" cy="395.3" rx="36.0" ry="21.6" transform="rotate(213.62138819408796 362.8 395.3)"/><ellipse cx="391.2" cy="376.2" rx="36.0" ry="21.6" transform="rotate(258.66200089904845 391.2 376.2)"/><ellipse cx="429.5" cy="386.5" rx="36.0" ry="21.6" transform="rotate(311.40983908892207 429.5 386.5)"/><circle cx="400" cy="420" r="10.1" fill="#5b4f3d" stroke="none"/></g><g stroke="#ad8253" stroke-width="4.32" fill="none" transform="rotate(-20 128 840)"><path d="M 128 840 Q 176 830.4 224 840" /><path d="M 152 838 q 11.52 -15.36 4.800000000000001 -26.880000000000003" /><path d="M 176 842 q 11.52 15.36 4.800000000000001 26.880000000000003" /><path d="M 200 838 q 11.52 -15.36 4.800000000000001 -26.880000000000003" /></g><g stroke="#3c6b68" stroke-width="4.32" fill="none" transform="rotate(20 672 840)"><path d="M 672 840 Q 720 830.4 768 840" /><path d="M 696 838 q 11.52 -15.36 4.800000000000001 -26.880000000000003" /><path d="M 720 842 q 11.52 15.36 4.800000000000001 26.880000000000003" /><path d="M 744 838 q 11.52 -15.36 4.800000000000001 -26.880000000000003" /></g>
  <rect width="800" height="1000" filter="url(#n4)" opacity="0.4"/>
</svg>